<svg width="210" height="31" viewBox="0 0 210 31" fill="none" xmlns="http://www.w3.org/2000/svg">
<path d="M23.36 14.24H0.64V17.504H23.36V14.24ZM50.898 10.624H41.106V13.504H50.898V11.904C51.602 12.576 52.594 13.696 52.978 14.336C57.01 12.192 57.874 8.576 57.874 5.472V5.44H61.714V8.864C61.714 12.032 62.29 13.376 65.298 13.376H66.962C67.602 13.376 68.306 13.344 68.754 13.12C68.626 12.256 68.562 10.944 68.498 9.984C68.082 10.112 67.346 10.208 66.93 10.208H65.65C65.266 10.208 65.202 9.824 65.202 8.896V1.92H54.418V5.344C54.418 7.424 54.034 9.664 50.898 11.392V10.624ZM52.242 6.176H46.162L48.274 5.024C47.762 3.84 46.802 2.08 45.938 0.768L42.962 2.144C43.666 3.36 44.53 4.96 45.042 6.176H39.73V9.184H52.242V6.176ZM50.962 14.912H41.106V17.792H50.962V14.912ZM63.25 18.272C62.386 20.032 61.234 21.536 59.826 22.816C58.258 21.504 56.978 20 56.05 18.272H63.25ZM47.634 25.952H44.37V22.368H47.634V25.952ZM65.682 14.56L65.074 14.72H51.73V18.272H54.674L52.594 19.008C53.746 21.28 55.154 23.296 56.818 24.96C55.058 25.984 53.074 26.72 50.93 27.232V19.328H41.138V30.368H44.37V29.024H50.93V27.872C51.506 28.768 52.082 29.92 52.402 30.72C55.154 29.984 57.65 28.896 59.858 27.488C61.97 28.896 64.434 29.952 67.25 30.624C67.762 29.6 68.754 27.968 69.586 27.2C67.122 26.72 64.914 25.92 62.962 24.896C65.266 22.56 67.026 19.52 68.082 15.584L65.682 14.56ZM87.41 6.176H80.69L82.77 5.024C82.258 3.84 81.298 2.08 80.434 0.768L77.458 2.144C78.162 3.36 79.026 4.96 79.538 6.176H73.938V9.184H87.41V6.176ZM86.066 13.504V10.624H75.346V13.504H86.066ZM86.034 14.912H75.346V17.792H86.034V14.912ZM82.834 22.368V25.952H78.674V22.368H82.834ZM86.13 19.328H75.474V30.368H78.674V29.024H86.13V19.328ZM102.77 11.52H96.85V1.472H92.882V11.52H87.282V15.264H92.882V30.784H96.85V15.264H102.77V11.52ZM123.442 16.192H126.802L126.162 16.704C126.578 16.864 127.026 17.088 127.474 17.28L123.442 17.312V16.192ZM114.066 13.856V12.64H119.73V13.856H114.066ZM114.066 9.28H119.73V10.464H114.066V9.28ZM129.394 9.28V10.464H123.442V9.28H129.394ZM123.442 13.856V12.64H129.394V13.856H123.442ZM136.21 20.992H129.074V19.712L131.41 19.648C131.922 20 132.37 20.384 132.754 20.704L135.09 18.752C134.066 17.984 132.562 17.024 130.962 16.192H133.106V6.976H123.442V5.824H135.122V2.944H123.442V0.927999H119.73V2.944H107.986V5.824H119.73V6.976H110.514V16.192H119.73V17.344C115.41 17.344 111.474 17.376 108.466 17.344L108.562 20.064C113.042 20.032 119.09 19.936 125.394 19.808V20.992H107.122V24H113.522L112.178 25.12C113.906 26.304 116.05 28.128 116.978 29.376L119.794 26.944C119.058 26.08 117.714 24.96 116.37 24H125.394V26.976C125.394 27.392 125.234 27.488 124.722 27.52C124.21 27.52 122.386 27.52 120.85 27.456C121.298 28.416 121.778 29.76 121.938 30.784C124.37 30.784 126.162 30.752 127.442 30.272C128.754 29.76 129.074 28.864 129.074 27.104V24H136.21V20.992ZM158.354 11.936C157.65 12.64 156.818 13.216 155.89 13.728C154.194 13.376 152.402 13.024 150.642 12.736C150.93 12.48 151.186 12.224 151.442 11.936H158.354ZM169.49 17.248C167.09 16.416 163.954 15.52 160.498 14.688C161.394 13.952 162.226 13.024 162.93 11.936H169.458V8.96H164.434C164.594 8.576 164.754 8.16 164.882 7.744L161.17 7.008C160.946 7.68 160.69 8.352 160.402 8.96H154.226C154.834 8.256 155.346 7.552 155.858 6.88L153.554 6.176H165.298V7.936H168.978V3.04H157.554C157.17 2.304 156.722 1.504 156.306 0.895998L152.274 1.696C152.498 2.112 152.722 2.56 152.946 3.04H141.586V7.936H145.106V6.176H152.05C151.474 7.072 150.802 8 150.034 8.96H141.042V11.936H147.41C146.514 12.928 145.586 13.824 144.754 14.56C146.642 14.848 148.434 15.168 150.226 15.52C147.602 15.968 144.498 16.224 140.818 16.32C141.362 17.12 141.842 18.304 142.13 19.456C148.434 19.104 153.202 18.432 156.786 16.96C160.434 17.856 163.602 18.784 165.874 19.712L169.49 17.248ZM169.81 20.48H157.074V18.272H153.266V20.48H140.786V23.616H147.762C146.29 25.28 143.442 26.816 140.722 27.712C141.618 28.32 143.154 29.504 143.922 30.24C146.642 29.024 149.778 27.04 151.634 24.864L147.89 23.616H153.266V30.784H157.074V23.616H160.754L158.578 25.44C161.362 26.88 164.946 29.088 166.642 30.624L169.618 27.968C167.954 26.624 164.914 24.864 162.418 23.616H169.81V20.48ZM209.06 14.24H186.34V17.504H209.06V14.24Z" fill="black"/>
</svg>
