<svg width="1936" height="336" viewBox="0 0 1936 336" fill="none" xmlns="http://www.w3.org/2000/svg">
<rect x="913" width="1023" height="336" rx="8" fill="#F0EFEC"/>
<circle cx="953" cy="56" r="12" fill="#BAB4A3"/>
<path d="M997.448 52.624H987.656V55.504H997.448V53.904C998.152 54.576 999.144 55.696 999.528 56.336C1003.56 54.192 1004.42 50.576 1004.42 47.472V47.44H1008.26V50.864C1008.26 54.032 1008.84 55.376 1011.85 55.376H1013.51C1014.15 55.376 1014.86 55.344 1015.3 55.12C1015.18 54.256 1015.11 52.944 1015.05 51.984C1014.63 52.112 1013.9 52.208 1013.48 52.208H1012.2C1011.82 52.208 1011.75 51.824 1011.75 50.896V43.92H1000.97V47.344C1000.97 49.424 1000.58 51.664 997.448 53.392V52.624ZM998.792 48.176H992.712L994.824 47.024C994.312 45.84 993.352 44.08 992.488 42.768L989.512 44.144C990.216 45.36 991.08 46.96 991.592 48.176H986.28V51.184H998.792V48.176ZM997.512 56.912H987.656V59.792H997.512V56.912ZM1009.8 60.272C1008.94 62.032 1007.78 63.536 1006.38 64.816C1004.81 63.504 1003.53 62 1002.6 60.272H1009.8ZM994.184 67.952H990.92V64.368H994.184V67.952ZM1012.23 56.56L1011.62 56.72H998.28V60.272H1001.22L999.144 61.008C1000.3 63.28 1001.7 65.296 1003.37 66.96C1001.61 67.984 999.624 68.72 997.48 69.232V61.328H987.688V72.368H990.92V71.024H997.48V69.872C998.056 70.768 998.632 71.92 998.952 72.72C1001.7 71.984 1004.2 70.896 1006.41 69.488C1008.52 70.896 1010.98 71.952 1013.8 72.624C1014.31 71.6 1015.3 69.968 1016.14 69.2C1013.67 68.72 1011.46 67.92 1009.51 66.896C1011.82 64.56 1013.58 61.52 1014.63 57.584L1012.23 56.56ZM1033.96 48.176H1027.24L1029.32 47.024C1028.81 45.84 1027.85 44.08 1026.98 42.768L1024.01 44.144C1024.71 45.36 1025.58 46.96 1026.09 48.176H1020.49V51.184H1033.96V48.176ZM1032.62 55.504V52.624H1021.9V55.504H1032.62ZM1032.58 56.912H1021.9V59.792H1032.58V56.912ZM1029.38 64.368V67.952H1025.22V64.368H1029.38ZM1032.68 61.328H1022.02V72.368H1025.22V71.024H1032.68V61.328ZM1049.32 53.52H1043.4V43.472H1039.43V53.52H1033.83V57.264H1039.43V72.784H1043.4V57.264H1049.32V53.52ZM1077.19 50.128L1074.95 51.44C1075.43 52.016 1075.94 52.688 1076.49 53.36L1068.2 53.808C1069.19 52.656 1070.18 51.44 1071.14 50.128H1077.19ZM1083.21 56.464C1082.06 54.8 1079.82 52.144 1078.15 50.128H1082.57V46.736H1073.48C1074.02 45.872 1074.54 45.04 1074.98 44.176L1071.3 42.736C1070.66 44.112 1069.9 45.456 1069.16 46.736H1062.73V50.128H1066.92C1066.18 51.152 1065.58 51.92 1065.19 52.304C1064.23 53.424 1063.56 54.096 1062.76 54.32C1063.18 55.248 1063.75 57.072 1063.94 57.808C1065.13 57.36 1066.86 57.2 1078.73 56.368C1079.27 57.136 1079.75 57.872 1080.1 58.416L1083.21 56.464ZM1062.54 46.736C1061.29 45.52 1058.66 44.112 1056.71 43.248L1054.6 46.032C1056.62 46.992 1059.14 48.592 1060.3 49.776L1062.54 46.736ZM1061.32 55.152C1060.01 54.064 1057.29 52.72 1055.27 51.952L1053.29 54.864C1055.34 55.728 1057.96 57.232 1059.21 58.32L1061.32 55.152ZM1059.91 59.76C1057.99 63.472 1055.56 67.44 1053.86 69.84L1057.1 72.4C1058.98 69.296 1061 65.648 1062.7 62.32L1059.91 59.76ZM1065.19 61.264C1065.19 64.048 1064.78 67.536 1061.19 70.16C1062.06 70.672 1063.34 71.888 1063.88 72.656C1068.1 69.424 1068.62 64.944 1068.62 61.392V58.288H1065.19V61.264ZM1070.57 71.376H1073.9V58.576H1070.57V71.376ZM1079.94 69.136C1079.53 69.136 1079.5 68.784 1079.5 67.76V58.288H1076.01V67.728C1076.01 70.768 1076.58 72.048 1079.59 72.048H1081.19C1081.83 72.048 1082.5 72.016 1082.98 71.824C1082.86 71.024 1082.76 69.84 1082.7 68.944C1082.28 69.072 1081.61 69.136 1081.16 69.136H1079.94ZM1111.37 52.08H1103.75V47.472H1111.37V52.08ZM1115.08 44.272H1100.23V55.28H1115.08V44.272ZM1099.56 60.528C1098.95 59.824 1096.33 57.04 1095.46 56.336V55.408H1098.89V51.856H1095.46V47.408C1096.9 47.024 1098.28 46.608 1099.5 46.128L1096.94 43.216C1094.41 44.336 1090.44 45.264 1086.82 45.872C1087.24 46.64 1087.69 47.952 1087.88 48.784C1089.13 48.624 1090.44 48.432 1091.78 48.176V51.856H1087.21V55.408H1091.27C1090.09 58.512 1088.33 61.904 1086.54 63.984C1087.14 64.944 1087.94 66.512 1088.3 67.6C1089.54 66 1090.76 63.728 1091.78 61.264V72.752H1095.46V60.272C1096.23 61.424 1097 62.672 1097.38 63.504L1099.56 60.528ZM1109.51 68.752V65.808H1115.18V62.608H1109.51V59.632C1111.78 59.344 1113.93 58.992 1115.78 58.544L1113.48 55.664C1109.96 56.592 1104.2 57.168 1099.21 57.456C1099.56 58.224 1099.98 59.504 1100.1 60.336C1101.9 60.272 1103.78 60.176 1105.7 60.016V62.608H1100.04V65.808H1105.7V68.752H1098.44V72.08H1116.42V68.752H1109.51ZM1128.07 72.24C1129.83 70.704 1130.82 68.304 1131.5 66.032L1128.42 64.912C1127.85 66.96 1126.73 69.104 1125.16 70.416L1128.07 72.24ZM1131.53 48.24H1135.75C1134.86 50.32 1133.48 52.368 1131.94 53.968V52.048C1132.65 51.056 1133.22 49.968 1133.77 48.944L1131.53 48.24ZM1126.12 48.24H1130.57C1129.54 50.352 1127.88 52.432 1126.12 54.064V48.24ZM1138.02 50.8C1138.38 50.096 1138.73 49.456 1139.02 48.752L1137.16 48.24H1142.22L1140.36 48.912C1140.78 49.488 1141.22 50.16 1141.54 50.8H1138.02ZM1141.13 54.128H1137.32V53.008H1141.13V54.128ZM1141.13 57.2H1137.32V55.984H1141.13V57.2ZM1141.13 60.304H1137.32V59.024H1141.13V60.304ZM1134.18 63.536H1136.36L1135.4 64.464C1137.16 65.296 1139.3 66.736 1140.33 67.792L1142.66 65.552C1141.58 64.56 1139.59 63.408 1137.9 62.608H1149.51V60.304H1144.3V59.024H1148.33V57.2H1144.3V55.984H1148.3V54.128H1144.3V53.008H1149.13V50.8H1143.88L1144.71 50.448C1144.42 49.808 1143.88 48.976 1143.3 48.24H1149.96V45.136H1138.86C1138.41 44.208 1137.83 43.184 1137.22 42.384L1133.83 43.344C1134.18 43.856 1134.54 44.496 1134.82 45.136H1122.63V54.512C1122.63 59.248 1122.47 65.968 1120.14 70.576C1120.9 70.96 1122.41 72.144 1123.02 72.816C1125.42 68.208 1126.02 61.2 1126.12 56.048C1126.6 56.56 1127.08 57.072 1127.34 57.392C1127.78 56.976 1128.3 56.496 1128.78 56.016V63.536H1131.94V55.44C1132.58 55.888 1133.22 56.496 1133.58 56.912C1133.77 56.72 1133.99 56.496 1134.18 56.272V63.536ZM1137.32 69.616C1136.23 69.616 1136.04 69.52 1136.04 68.72V65.296H1132.58V68.784C1132.58 71.664 1133.38 72.592 1136.84 72.592H1140.9C1143.43 72.592 1144.36 71.76 1144.71 68.496C1143.82 68.272 1142.38 67.76 1141.7 67.28C1141.58 69.328 1141.42 69.616 1140.55 69.616H1137.32ZM1143.3 65.936C1144.9 67.792 1146.66 70.416 1147.27 72.144L1150.31 70.672C1149.58 68.88 1147.75 66.416 1146.09 64.56L1143.3 65.936ZM1171.24 59.856V55.92H1177.99V59.856H1171.24ZM1161.29 59.856C1161.35 58.672 1161.38 57.52 1161.38 56.496V55.92H1167.4V59.856H1161.29ZM1167.4 48.656V52.368H1161.38V48.656H1167.4ZM1177.99 52.368H1171.24V48.656H1177.99V52.368ZM1181.77 45.04H1157.61V56.464C1157.61 60.944 1157.32 66.64 1153.83 70.48C1154.7 70.928 1156.23 72.24 1156.84 72.944C1159.14 70.448 1160.3 66.928 1160.87 63.44H1167.4V72.368H1171.24V63.44H1177.99V68.24C1177.99 68.816 1177.77 69.008 1177.16 69.008C1176.58 69.008 1174.47 69.04 1172.68 68.944C1173.16 69.936 1173.77 71.568 1173.9 72.592C1176.78 72.624 1178.73 72.56 1180.04 71.92C1181.32 71.344 1181.77 70.32 1181.77 68.272V45.04Z" fill="#8D887C"/>
<path d="M965 110.448C963.112 110.448 961.608 111.952 961.608 113.84C961.608 115.728 963.112 117.232 965 117.232C966.888 117.232 968.392 115.728 968.392 113.84C968.392 111.952 966.888 110.448 965 110.448ZM992.2 126H995.176V115.472H1004.14V112.976H995.176V105.04H1005.74V102.512H992.2V126ZM1015.69 126.416C1018.09 126.416 1019.82 125.168 1021.45 123.28H1021.55L1021.77 126H1024.21V108.624H1021.29V120.944C1019.63 123.024 1018.38 123.888 1016.59 123.888C1014.29 123.888 1013.33 122.512 1013.33 119.28V108.624H1010.41V119.632C1010.41 124.048 1012.05 126.416 1015.69 126.416ZM1031.68 126H1034.59V113.392C1036.35 111.632 1037.56 110.736 1039.36 110.736C1041.66 110.736 1042.65 112.112 1042.65 115.376V126H1045.56V114.992C1045.56 110.544 1043.9 108.176 1040.25 108.176C1037.88 108.176 1036.09 109.488 1034.43 111.12H1034.33L1034.08 108.624H1031.68V126ZM1059.69 126.416C1061.77 126.416 1063.75 125.616 1065.32 124.208L1064.04 122.256C1062.95 123.248 1061.54 123.984 1059.94 123.984C1056.74 123.984 1054.57 121.328 1054.57 117.328C1054.57 113.328 1056.87 110.608 1060.04 110.608C1061.41 110.608 1062.47 111.248 1063.49 112.144L1065 110.224C1063.75 109.136 1062.18 108.176 1059.91 108.176C1055.46 108.176 1051.53 111.536 1051.53 117.328C1051.53 123.088 1055.08 126.416 1059.69 126.416ZM1075.85 126.416C1076.9 126.416 1078.06 126.096 1079.05 125.776L1078.47 123.6C1077.9 123.824 1077.1 124.048 1076.49 124.048C1074.47 124.048 1073.8 122.832 1073.8 120.688V110.992H1078.5V108.624H1073.8V103.728H1071.37L1071.02 108.624L1068.3 108.784V110.992H1070.89V120.624C1070.89 124.08 1072.14 126.416 1075.85 126.416ZM1084.04 126H1086.95V108.624H1084.04V126ZM1085.51 105.04C1086.66 105.04 1087.46 104.272 1087.46 103.088C1087.46 101.968 1086.66 101.2 1085.51 101.2C1084.36 101.2 1083.56 101.968 1083.56 103.088C1083.56 104.272 1084.36 105.04 1085.51 105.04ZM1101.2 126.416C1105.46 126.416 1109.27 123.088 1109.27 117.328C1109.27 111.536 1105.46 108.176 1101.2 108.176C1096.95 108.176 1093.14 111.536 1093.14 117.328C1093.14 123.088 1096.95 126.416 1101.2 126.416ZM1101.2 123.984C1098.19 123.984 1096.18 121.328 1096.18 117.328C1096.18 113.328 1098.19 110.608 1101.2 110.608C1104.21 110.608 1106.26 113.328 1106.26 117.328C1106.26 121.328 1104.21 123.984 1101.2 123.984ZM1115.46 126H1118.37V113.392C1120.13 111.632 1121.34 110.736 1123.14 110.736C1125.44 110.736 1126.43 112.112 1126.43 115.376V126H1129.34V114.992C1129.34 110.544 1127.68 108.176 1124.03 108.176C1121.66 108.176 1119.87 109.488 1118.21 111.12H1118.11L1117.86 108.624H1115.46V126ZM1140.62 126.416C1142.76 126.416 1144.72 125.296 1146.38 123.92H1146.48L1146.73 126H1149.13V115.312C1149.13 111.024 1147.34 108.176 1143.12 108.176C1140.33 108.176 1137.87 109.424 1136.27 110.448L1137.42 112.464C1138.8 111.536 1140.62 110.608 1142.64 110.608C1145.48 110.608 1146.22 112.752 1146.22 114.992C1138.83 115.824 1135.53 117.712 1135.53 121.488C1135.53 124.624 1137.71 126.416 1140.62 126.416ZM1141.45 124.08C1139.72 124.08 1138.38 123.28 1138.38 121.296C1138.38 119.056 1140.36 117.616 1146.22 116.912V121.776C1144.52 123.28 1143.15 124.08 1141.45 124.08ZM1159.35 126.416C1160.15 126.416 1160.63 126.32 1161.05 126.16L1160.63 123.92C1160.31 123.984 1160.19 123.984 1160.03 123.984C1159.58 123.984 1159.19 123.632 1159.19 122.736V100.528H1156.28V122.544C1156.28 125.008 1157.18 126.416 1159.35 126.416ZM1176.02 126H1178.71V113.008C1178.71 110.992 1178.48 108.144 1178.35 106.096H1178.48L1180.34 111.44L1184.79 123.632H1186.77L1191.22 111.44L1193.07 106.096H1193.2C1193.04 108.144 1192.82 110.992 1192.82 113.008V126H1195.6V102.512H1192.02L1187.54 115.088C1186.99 116.72 1186.48 118.352 1185.94 119.984H1185.78C1185.2 118.352 1184.66 116.72 1184.11 115.088L1179.6 102.512H1176.02V126ZM1207.33 126.416C1209.48 126.416 1211.43 125.296 1213.09 123.92H1213.19L1213.44 126H1215.84V115.312C1215.84 111.024 1214.05 108.176 1209.83 108.176C1207.04 108.176 1204.58 109.424 1202.98 110.448L1204.13 112.464C1205.51 111.536 1207.33 110.608 1209.35 110.608C1212.2 110.608 1212.93 112.752 1212.93 114.992C1205.54 115.824 1202.24 117.712 1202.24 121.488C1202.24 124.624 1204.42 126.416 1207.33 126.416ZM1208.16 124.08C1206.44 124.08 1205.09 123.28 1205.09 121.296C1205.09 119.056 1207.08 117.616 1212.93 116.912V121.776C1211.24 123.28 1209.86 124.08 1208.16 124.08ZM1222.99 133.328H1225.91V127.44L1225.84 124.4C1227.41 125.68 1229.07 126.416 1230.64 126.416C1234.64 126.416 1238.19 122.992 1238.19 117.04C1238.19 111.696 1235.76 108.176 1231.28 108.176C1229.27 108.176 1227.31 109.328 1225.75 110.608H1225.65L1225.39 108.624H1222.99V133.328ZM1230.16 123.984C1229.01 123.984 1227.47 123.504 1225.91 122.16V113.04C1227.6 111.472 1229.11 110.64 1230.58 110.64C1233.87 110.64 1235.15 113.232 1235.15 117.072C1235.15 121.392 1233.04 123.984 1230.16 123.984ZM965 166.448C963.112 166.448 961.608 167.952 961.608 169.84C961.608 171.728 963.112 173.232 965 173.232C966.888 173.232 968.392 171.728 968.392 169.84C968.392 167.952 966.888 166.448 965 166.448ZM1000.52 182.416C1005.32 182.416 1008.97 179.856 1008.97 172.304V158.512H1006.12V172.4C1006.12 178.064 1003.66 179.824 1000.52 179.824C997.48 179.824 995.08 178.064 995.08 172.4V158.512H992.104V172.304C992.104 179.856 995.752 182.416 1000.52 182.416ZM1021.03 182.416C1025.12 182.416 1027.36 180.08 1027.36 177.264C1027.36 173.968 1024.58 172.944 1022.05 171.984C1020.1 171.248 1018.31 170.64 1018.31 168.976C1018.31 167.632 1019.33 166.48 1021.54 166.48C1023.07 166.48 1024.29 167.12 1025.47 168.016L1026.88 166.128C1025.54 165.072 1023.65 164.176 1021.51 164.176C1017.73 164.176 1015.49 166.352 1015.49 169.104C1015.49 172.048 1018.15 173.232 1020.58 174.128C1022.5 174.864 1024.55 175.632 1024.55 177.424C1024.55 178.928 1023.43 180.144 1021.12 180.144C1019.04 180.144 1017.47 179.312 1015.97 178.096L1014.53 180.016C1016.19 181.392 1018.56 182.416 1021.03 182.416ZM1040.06 182.416C1042.43 182.416 1044.28 181.616 1045.82 180.624L1044.76 178.704C1043.48 179.568 1042.11 180.08 1040.41 180.08C1037.11 180.08 1034.84 177.712 1034.65 174H1046.36C1046.43 173.584 1046.49 172.976 1046.49 172.336C1046.49 167.376 1043.99 164.176 1039.58 164.176C1035.55 164.176 1031.74 167.696 1031.74 173.328C1031.74 179.056 1035.45 182.416 1040.06 182.416ZM1034.62 171.888C1034.97 168.496 1037.15 166.512 1039.61 166.512C1042.33 166.512 1043.93 168.4 1043.93 171.888H1034.62ZM1052.37 182H1055.28V170.832C1056.43 167.856 1058.23 166.832 1059.67 166.832C1060.37 166.832 1060.79 166.896 1061.36 167.12L1061.91 164.56C1061.36 164.272 1060.82 164.176 1060.05 164.176C1058.1 164.176 1056.34 165.584 1055.12 167.792H1055.03L1054.77 164.624H1052.37V182ZM1075.39 182H1078.36V171.472H1087.32V168.976H1078.36V161.04H1088.92V158.512H1075.39V182ZM1097.46 182.416C1098.26 182.416 1098.74 182.32 1099.16 182.16L1098.74 179.92C1098.42 179.984 1098.29 179.984 1098.13 179.984C1097.68 179.984 1097.3 179.632 1097.3 178.736V156.528H1094.39V178.544C1094.39 181.008 1095.28 182.416 1097.46 182.416ZM1111.86 182.416C1116.12 182.416 1119.93 179.088 1119.93 173.328C1119.93 167.536 1116.12 164.176 1111.86 164.176C1107.61 164.176 1103.8 167.536 1103.8 173.328C1103.8 179.088 1107.61 182.416 1111.86 182.416ZM1111.86 179.984C1108.86 179.984 1106.84 177.328 1106.84 173.328C1106.84 169.328 1108.86 166.608 1111.86 166.608C1114.87 166.608 1116.92 169.328 1116.92 173.328C1116.92 177.328 1114.87 179.984 1111.86 179.984ZM1128.75 182H1132.17L1134.6 172.688C1135.05 171.024 1135.4 169.392 1135.79 167.632H1135.95C1136.36 169.392 1136.68 170.992 1137.13 172.624L1139.66 182H1143.18L1147.85 164.624H1145.1L1142.54 174.672C1142.15 176.336 1141.83 177.904 1141.45 179.536H1141.32C1140.91 177.904 1140.52 176.336 1140.11 174.672L1137.39 164.624H1134.54L1131.85 174.672C1131.4 176.304 1131.05 177.904 1130.67 179.536H1130.51C1130.19 177.904 1129.83 176.336 1129.48 174.672L1126.89 164.624H1123.91L1128.75 182ZM965 222.448C963.112 222.448 961.608 223.952 961.608 225.84C961.608 227.728 963.112 229.232 965 229.232C966.888 229.232 968.392 227.728 968.392 225.84C968.392 223.952 966.888 222.448 965 222.448ZM992.2 238H998.216C1005.29 238 1009.16 233.616 1009.16 226.192C1009.16 218.736 1005.29 214.512 998.088 214.512H992.2V238ZM995.176 235.568V216.944H997.832C1003.37 216.944 1006.09 220.24 1006.09 226.192C1006.09 232.112 1003.37 235.568 997.832 235.568H995.176ZM1022.52 238.416C1024.89 238.416 1026.74 237.616 1028.28 236.624L1027.22 234.704C1025.94 235.568 1024.57 236.08 1022.87 236.08C1019.58 236.08 1017.3 233.712 1017.11 230H1028.82C1028.89 229.584 1028.95 228.976 1028.95 228.336C1028.95 223.376 1026.46 220.176 1022.04 220.176C1018.01 220.176 1014.2 223.696 1014.2 229.328C1014.2 235.056 1017.91 238.416 1022.52 238.416ZM1017.08 227.888C1017.43 224.496 1019.61 222.512 1022.07 222.512C1024.79 222.512 1026.39 224.4 1026.39 227.888H1017.08ZM1039.38 238.416C1043.47 238.416 1045.71 236.08 1045.71 233.264C1045.71 229.968 1042.93 228.944 1040.4 227.984C1038.45 227.248 1036.66 226.64 1036.66 224.976C1036.66 223.632 1037.68 222.48 1039.89 222.48C1041.42 222.48 1042.64 223.12 1043.82 224.016L1045.23 222.128C1043.89 221.072 1042 220.176 1039.86 220.176C1036.08 220.176 1033.84 222.352 1033.84 225.104C1033.84 228.048 1036.5 229.232 1038.93 230.128C1040.85 230.864 1042.9 231.632 1042.9 233.424C1042.9 234.928 1041.78 236.144 1039.47 236.144C1037.39 236.144 1035.82 235.312 1034.32 234.096L1032.88 236.016C1034.54 237.392 1036.91 238.416 1039.38 238.416ZM1051.4 238H1054.31V220.624H1051.4V238ZM1052.87 217.04C1054.02 217.04 1054.82 216.272 1054.82 215.088C1054.82 213.968 1054.02 213.2 1052.87 213.2C1051.72 213.2 1050.92 213.968 1050.92 215.088C1050.92 216.272 1051.72 217.04 1052.87 217.04ZM1067.67 246C1073.04 246 1076.47 243.216 1076.47 239.984C1076.47 237.136 1074.42 235.856 1070.39 235.856H1067C1064.66 235.856 1063.96 235.088 1063.96 233.968C1063.96 233.008 1064.44 232.432 1065.08 231.888C1065.84 232.272 1066.8 232.496 1067.67 232.496C1071.19 232.496 1074 230.16 1074 226.448C1074 224.944 1073.43 223.664 1072.6 222.864H1076.15V220.624H1070.1C1069.49 220.4 1068.63 220.176 1067.67 220.176C1064.15 220.176 1061.14 222.576 1061.14 226.384C1061.14 228.464 1062.26 230.128 1063.41 231.056V231.184C1062.52 231.824 1061.46 232.976 1061.46 234.416C1061.46 235.792 1062.13 236.72 1063.06 237.264V237.392C1061.43 238.448 1060.5 239.856 1060.5 241.328C1060.5 244.336 1063.41 246 1067.67 246ZM1067.67 230.512C1065.65 230.512 1063.96 228.912 1063.96 226.384C1063.96 223.824 1065.62 222.32 1067.67 222.32C1069.72 222.32 1071.38 223.856 1071.38 226.384C1071.38 228.912 1069.65 230.512 1067.67 230.512ZM1068.08 244.016C1064.95 244.016 1063.06 242.8 1063.06 240.944C1063.06 239.92 1063.57 238.896 1064.82 238C1065.59 238.192 1066.42 238.288 1067.06 238.288H1070.07C1072.37 238.288 1073.62 238.832 1073.62 240.432C1073.62 242.256 1071.41 244.016 1068.08 244.016ZM1081.44 238H1084.36V225.392C1086.12 223.632 1087.33 222.736 1089.12 222.736C1091.43 222.736 1092.42 224.112 1092.42 227.376V238H1095.33V226.992C1095.33 222.544 1093.67 220.176 1090.02 220.176C1087.65 220.176 1085.86 221.488 1084.2 223.12H1084.1L1083.84 220.624H1081.44V238ZM1118.15 238.416C1123.04 238.416 1126.11 235.472 1126.11 231.76C1126.11 228.272 1124 226.672 1121.28 225.488L1117.92 224.048C1116.1 223.28 1114.05 222.416 1114.05 220.144C1114.05 218.032 1115.78 216.688 1118.43 216.688C1120.61 216.688 1122.34 217.552 1123.78 218.896L1125.35 217.008C1123.68 215.28 1121.22 214.096 1118.43 214.096C1114.18 214.096 1111.04 216.72 1111.04 220.336C1111.04 223.76 1113.63 225.424 1115.81 226.352L1119.2 227.824C1121.41 228.816 1123.11 229.584 1123.11 231.984C1123.11 234.288 1121.25 235.824 1118.18 235.824C1115.75 235.824 1113.38 234.672 1111.71 232.912L1109.92 234.928C1111.97 237.072 1114.82 238.416 1118.15 238.416ZM1132.34 245.488C1135.8 245.488 1137.62 242.864 1138.81 239.44L1145.37 220.624H1142.52L1139.42 230.288C1138.94 231.824 1138.42 233.584 1137.94 235.152H1137.78C1137.24 233.584 1136.63 231.792 1136.12 230.288L1132.57 220.624H1129.53L1136.5 238.032L1136.12 239.344C1135.42 241.488 1134.17 243.088 1132.18 243.088C1131.74 243.088 1131.22 242.928 1130.87 242.8L1130.3 245.136C1130.84 245.36 1131.51 245.488 1132.34 245.488ZM1154.89 238.416C1158.98 238.416 1161.22 236.08 1161.22 233.264C1161.22 229.968 1158.44 228.944 1155.91 227.984C1153.96 227.248 1152.17 226.64 1152.17 224.976C1152.17 223.632 1153.19 222.48 1155.4 222.48C1156.94 222.48 1158.15 223.12 1159.34 224.016L1160.74 222.128C1159.4 221.072 1157.51 220.176 1155.37 220.176C1151.59 220.176 1149.35 222.352 1149.35 225.104C1149.35 228.048 1152.01 229.232 1154.44 230.128C1156.36 230.864 1158.41 231.632 1158.41 233.424C1158.41 234.928 1157.29 236.144 1154.98 236.144C1152.9 236.144 1151.34 235.312 1149.83 234.096L1148.39 236.016C1150.06 237.392 1152.42 238.416 1154.89 238.416ZM1171.67 238.416C1172.72 238.416 1173.87 238.096 1174.87 237.776L1174.29 235.6C1173.71 235.824 1172.91 236.048 1172.31 236.048C1170.29 236.048 1169.62 234.832 1169.62 232.688V222.992H1174.32V220.624H1169.62V215.728H1167.19L1166.83 220.624L1164.11 220.784V222.992H1166.71V232.624C1166.71 236.08 1167.95 238.416 1171.67 238.416ZM1186.4 238.416C1188.76 238.416 1190.62 237.616 1192.16 236.624L1191.1 234.704C1189.82 235.568 1188.44 236.08 1186.75 236.08C1183.45 236.08 1181.18 233.712 1180.99 230H1192.7C1192.76 229.584 1192.83 228.976 1192.83 228.336C1192.83 223.376 1190.33 220.176 1185.92 220.176C1181.88 220.176 1178.08 223.696 1178.08 229.328C1178.08 235.056 1181.79 238.416 1186.4 238.416ZM1180.96 227.888C1181.31 224.496 1183.48 222.512 1185.95 222.512C1188.67 222.512 1190.27 224.4 1190.27 227.888H1180.96ZM1198.71 238H1201.62V225.392C1203.22 223.6 1204.69 222.736 1206 222.736C1208.21 222.736 1209.23 224.112 1209.23 227.376V238H1212.15V225.392C1213.78 223.6 1215.19 222.736 1216.53 222.736C1218.74 222.736 1219.76 224.112 1219.76 227.376V238H1222.67V226.992C1222.67 222.544 1220.98 220.176 1217.39 220.176C1215.28 220.176 1213.46 221.552 1211.67 223.504C1210.96 221.456 1209.52 220.176 1206.87 220.176C1204.79 220.176 1202.96 221.488 1201.46 223.152H1201.36L1201.11 220.624H1198.71V238ZM965 278.448C963.112 278.448 961.608 279.952 961.608 281.84C961.608 283.728 963.112 285.232 965 285.232C966.888 285.232 968.392 283.728 968.392 281.84C968.392 279.952 966.888 278.448 965 278.448ZM994.792 294H998.312L1001.8 279.856C1002.18 278 1002.6 276.304 1002.98 274.512H1003.11C1003.5 276.304 1003.85 278 1004.26 279.856L1007.82 294H1011.37L1016.23 270.512H1013.38L1010.92 283.312C1010.47 285.808 1010.02 288.336 1009.58 290.896H1009.42C1008.87 288.336 1008.33 285.808 1007.75 283.312L1004.49 270.512H1001.77L998.536 283.312C997.96 285.84 997.384 288.368 996.84 290.896H996.712C996.264 288.368 995.784 285.84 995.336 283.312L992.872 270.512H989.832L994.792 294ZM1021.64 294H1024.55V276.624H1021.64V294ZM1023.11 273.04C1024.26 273.04 1025.06 272.272 1025.06 271.088C1025.06 269.968 1024.26 269.2 1023.11 269.2C1021.96 269.2 1021.16 269.968 1021.16 271.088C1021.16 272.272 1021.96 273.04 1023.11 273.04ZM1032.05 294H1034.96V282.832C1036.11 279.856 1037.91 278.832 1039.35 278.832C1040.05 278.832 1040.47 278.896 1041.04 279.12L1041.59 276.56C1041.04 276.272 1040.5 276.176 1039.73 276.176C1037.78 276.176 1036.02 277.584 1034.8 279.792H1034.71L1034.45 276.624H1032.05V294ZM1052.72 294.416C1055.09 294.416 1056.94 293.616 1058.48 292.624L1057.42 290.704C1056.14 291.568 1054.77 292.08 1053.07 292.08C1049.78 292.08 1047.5 289.712 1047.31 286H1059.02C1059.09 285.584 1059.15 284.976 1059.15 284.336C1059.15 279.376 1056.66 276.176 1052.24 276.176C1048.21 276.176 1044.4 279.696 1044.4 285.328C1044.4 291.056 1048.11 294.416 1052.72 294.416ZM1047.28 283.888C1047.63 280.496 1049.81 278.512 1052.27 278.512C1054.99 278.512 1056.59 280.4 1056.59 283.888H1047.28ZM1065.51 294H1068.42V278.992H1072.1V276.624H1068.42V273.872C1068.42 271.632 1069.22 270.448 1070.89 270.448C1071.5 270.448 1072.2 270.608 1072.84 270.896L1073.48 268.688C1072.68 268.336 1071.62 268.112 1070.57 268.112C1067.11 268.112 1065.51 270.32 1065.51 273.84V276.624L1063.14 276.784V278.992H1065.51V294ZM1077.04 294H1079.95V282.832C1081.1 279.856 1082.89 278.832 1084.33 278.832C1085.04 278.832 1085.45 278.896 1086.03 279.12L1086.57 276.56C1086.03 276.272 1085.49 276.176 1084.72 276.176C1082.77 276.176 1081.01 277.584 1079.79 279.792H1079.69L1079.44 276.624H1077.04V294ZM1094.17 294.416C1096.31 294.416 1098.27 293.296 1099.93 291.92H1100.03L1100.28 294H1102.68V283.312C1102.68 279.024 1100.89 276.176 1096.67 276.176C1093.88 276.176 1091.42 277.424 1089.82 278.448L1090.97 280.464C1092.35 279.536 1094.17 278.608 1096.19 278.608C1099.03 278.608 1099.77 280.752 1099.77 282.992C1092.38 283.824 1089.08 285.712 1089.08 289.488C1089.08 292.624 1091.26 294.416 1094.17 294.416ZM1095 292.08C1093.27 292.08 1091.93 291.28 1091.93 289.296C1091.93 287.056 1093.91 285.616 1099.77 284.912V289.776C1098.07 291.28 1096.7 292.08 1095 292.08ZM1109.83 294H1112.74V281.392C1114.34 279.6 1115.82 278.736 1117.13 278.736C1119.34 278.736 1120.36 280.112 1120.36 283.376V294H1123.27V281.392C1124.9 279.6 1126.31 278.736 1127.66 278.736C1129.86 278.736 1130.89 280.112 1130.89 283.376V294H1133.8V282.992C1133.8 278.544 1132.1 276.176 1128.52 276.176C1126.41 276.176 1124.58 277.552 1122.79 279.504C1122.09 277.456 1120.65 276.176 1117.99 276.176C1115.91 276.176 1114.09 277.488 1112.58 279.152H1112.49L1112.23 276.624H1109.83V294ZM1148.06 294.416C1150.43 294.416 1152.29 293.616 1153.82 292.624L1152.77 290.704C1151.49 291.568 1150.11 292.08 1148.42 292.08C1145.12 292.08 1142.85 289.712 1142.66 286H1154.37C1154.43 285.584 1154.5 284.976 1154.5 284.336C1154.5 279.376 1152 276.176 1147.58 276.176C1143.55 276.176 1139.74 279.696 1139.74 285.328C1139.74 291.056 1143.46 294.416 1148.06 294.416ZM1142.62 283.888C1142.98 280.496 1145.15 278.512 1147.62 278.512C1150.34 278.512 1151.94 280.4 1151.94 283.888H1142.62ZM1157.78 299.728H1159.93L1169.5 268.592H1167.38L1157.78 299.728ZM1183.52 294H1186.21V281.008C1186.21 278.992 1185.98 276.144 1185.85 274.096H1185.98L1187.84 279.44L1192.29 291.632H1194.27L1198.72 279.44L1200.57 274.096H1200.7C1200.54 276.144 1200.32 278.992 1200.32 281.008V294H1203.1V270.512H1199.52L1195.04 283.088C1194.49 284.72 1193.98 286.352 1193.44 287.984H1193.28C1192.7 286.352 1192.16 284.72 1191.61 283.088L1187.1 270.512H1183.52V294ZM1217.58 294.416C1221.84 294.416 1225.65 291.088 1225.65 285.328C1225.65 279.536 1221.84 276.176 1217.58 276.176C1213.33 276.176 1209.52 279.536 1209.52 285.328C1209.52 291.088 1213.33 294.416 1217.58 294.416ZM1217.58 291.984C1214.58 291.984 1212.56 289.328 1212.56 285.328C1212.56 281.328 1214.58 278.608 1217.58 278.608C1220.59 278.608 1222.64 281.328 1222.64 285.328C1222.64 289.328 1220.59 291.984 1217.58 291.984ZM1238.69 294.416C1240.77 294.416 1242.75 293.616 1244.32 292.208L1243.04 290.256C1241.95 291.248 1240.54 291.984 1238.94 291.984C1235.74 291.984 1233.57 289.328 1233.57 285.328C1233.57 281.328 1235.87 278.608 1239.04 278.608C1240.41 278.608 1241.47 279.248 1242.49 280.144L1244 278.224C1242.75 277.136 1241.18 276.176 1238.91 276.176C1234.46 276.176 1230.53 279.536 1230.53 285.328C1230.53 291.088 1234.08 294.416 1238.69 294.416ZM1249.72 294H1252.6V289.424L1255.86 285.616L1260.95 294H1264.12L1257.56 283.632L1263.35 276.624H1260.09L1252.69 285.808H1252.6V268.528H1249.72V294ZM1273.56 294.416C1275.96 294.416 1277.69 293.168 1279.32 291.28H1279.42L1279.64 294H1282.07V276.624H1279.16V288.944C1277.5 291.024 1276.25 291.888 1274.46 291.888C1272.15 291.888 1271.19 290.512 1271.19 287.28V276.624H1268.28V287.632C1268.28 292.048 1269.91 294.416 1273.56 294.416ZM1289.54 301.328H1292.46V295.44L1292.39 292.4C1293.96 293.68 1295.62 294.416 1297.19 294.416C1301.19 294.416 1304.74 290.992 1304.74 285.04C1304.74 279.696 1302.31 276.176 1297.83 276.176C1295.82 276.176 1293.86 277.328 1292.3 278.608H1292.2L1291.94 276.624H1289.54V301.328ZM1296.71 291.984C1295.56 291.984 1294.02 291.504 1292.46 290.16V281.04C1294.15 279.472 1295.66 278.64 1297.13 278.64C1300.42 278.64 1301.7 281.232 1301.7 285.072C1301.7 289.392 1299.59 291.984 1296.71 291.984ZM1308.4 299.728H1310.54L1320.11 268.592H1318L1308.4 299.728ZM1334.13 294H1337.11V284.688H1340.98C1346.13 284.688 1349.62 282.384 1349.62 277.424C1349.62 272.304 1346.1 270.512 1340.85 270.512H1334.13V294ZM1337.11 282.288V272.944H1340.47C1344.6 272.944 1346.68 274.032 1346.68 277.424C1346.68 280.784 1344.72 282.288 1340.6 282.288H1337.11ZM1355.69 294H1358.61V282.832C1359.76 279.856 1361.55 278.832 1362.99 278.832C1363.69 278.832 1364.11 278.896 1364.69 279.12L1365.23 276.56C1364.69 276.272 1364.14 276.176 1363.37 276.176C1361.42 276.176 1359.66 277.584 1358.45 279.792H1358.35L1358.09 276.624H1355.69V294ZM1376.11 294.416C1380.36 294.416 1384.17 291.088 1384.17 285.328C1384.17 279.536 1380.36 276.176 1376.11 276.176C1371.85 276.176 1368.04 279.536 1368.04 285.328C1368.04 291.088 1371.85 294.416 1376.11 294.416ZM1376.11 291.984C1373.1 291.984 1371.08 289.328 1371.08 285.328C1371.08 281.328 1373.1 278.608 1376.11 278.608C1379.12 278.608 1381.16 281.328 1381.16 285.328C1381.16 289.328 1379.12 291.984 1376.11 291.984ZM1395.24 294.416C1396.3 294.416 1397.45 294.096 1398.44 293.776L1397.87 291.6C1397.29 291.824 1396.49 292.048 1395.88 292.048C1393.87 292.048 1393.19 290.832 1393.19 288.688V278.992H1397.9V276.624H1393.19V271.728H1390.76L1390.41 276.624L1387.69 276.784V278.992H1390.28V288.624C1390.28 292.08 1391.53 294.416 1395.24 294.416ZM1409.71 294.416C1413.97 294.416 1417.78 291.088 1417.78 285.328C1417.78 279.536 1413.97 276.176 1409.71 276.176C1405.46 276.176 1401.65 279.536 1401.65 285.328C1401.65 291.088 1405.46 294.416 1409.71 294.416ZM1409.71 291.984C1406.71 291.984 1404.69 289.328 1404.69 285.328C1404.69 281.328 1406.71 278.608 1409.71 278.608C1412.72 278.608 1414.77 281.328 1414.77 285.328C1414.77 289.328 1412.72 291.984 1409.71 291.984ZM1428.85 294.416C1429.9 294.416 1431.06 294.096 1432.05 293.776L1431.47 291.6C1430.9 291.824 1430.1 292.048 1429.49 292.048C1427.47 292.048 1426.8 290.832 1426.8 288.688V278.992H1431.5V276.624H1426.8V271.728H1424.37L1424.02 276.624L1421.3 276.784V278.992H1423.89V288.624C1423.89 292.08 1425.14 294.416 1428.85 294.416ZM1437.33 301.488C1440.78 301.488 1442.61 298.864 1443.79 295.44L1450.35 276.624H1447.5L1444.4 286.288C1443.92 287.824 1443.41 289.584 1442.93 291.152H1442.77C1442.22 289.584 1441.61 287.792 1441.1 286.288L1437.55 276.624H1434.51L1441.49 294.032L1441.1 295.344C1440.4 297.488 1439.15 299.088 1437.17 299.088C1436.72 299.088 1436.21 298.928 1435.85 298.8L1435.28 301.136C1435.82 301.36 1436.49 301.488 1437.33 301.488ZM1455.33 301.328H1458.24V295.44L1458.17 292.4C1459.74 293.68 1461.41 294.416 1462.97 294.416C1466.97 294.416 1470.53 290.992 1470.53 285.04C1470.53 279.696 1468.09 276.176 1463.61 276.176C1461.6 276.176 1459.65 277.328 1458.08 278.608H1457.98L1457.73 276.624H1455.33V301.328ZM1462.49 291.984C1461.34 291.984 1459.81 291.504 1458.24 290.16V281.04C1459.93 279.472 1461.44 278.64 1462.91 278.64C1466.21 278.64 1467.49 281.232 1467.49 285.072C1467.49 289.392 1465.37 291.984 1462.49 291.984ZM1483.78 294.416C1486.15 294.416 1488 293.616 1489.54 292.624L1488.48 290.704C1487.2 291.568 1485.83 292.08 1484.13 292.08C1480.83 292.08 1478.56 289.712 1478.37 286H1490.08C1490.15 285.584 1490.21 284.976 1490.21 284.336C1490.21 279.376 1487.71 276.176 1483.3 276.176C1479.27 276.176 1475.46 279.696 1475.46 285.328C1475.46 291.056 1479.17 294.416 1483.78 294.416ZM1478.34 283.888C1478.69 280.496 1480.87 278.512 1483.33 278.512C1486.05 278.512 1487.65 280.4 1487.65 283.888H1478.34Z" fill="black"/>
<rect width="849" height="336" rx="8" fill="#F0EFEC"/>
<circle cx="40" cy="56" r="12" fill="#BAB4A3"/>
<path d="M85.056 48.176H79.488L81.536 47.024C81.056 45.84 80.096 44.08 79.232 42.768L76.416 44.144C77.12 45.36 77.92 46.96 78.432 48.176H73.056V51.184H85.056V48.176ZM83.904 52.624H74.432V55.504H83.904V52.624ZM74.432 59.792H83.904V56.912H74.432V59.792ZM80.96 67.952H77.44V64.368H80.96V67.952ZM87.392 55.44C87.392 60.752 87.072 66.128 84.096 70.512V61.328H74.336V72.368H77.44V71.024H83.744L83.616 71.184C84.64 71.568 86.272 72.464 87.104 73.04C90.592 68.048 90.976 61.584 90.976 55.472V44.272H87.392V55.44ZM92.928 69.616H96.352V45.84H92.928V69.616ZM98.368 43.984V72.72H102.112V43.984H98.368ZM107.872 63.92C107.68 66.672 107.296 69.648 106.528 71.6C107.296 71.792 108.704 72.208 109.312 72.56C109.984 70.544 110.496 67.344 110.752 64.368L107.872 63.92ZM111.392 64.336C111.744 66.704 112.032 69.744 112.064 71.76L114.752 71.248C114.656 69.232 114.336 66.224 113.984 63.888L111.392 64.336ZM122.208 54.928C122.784 56.144 123.296 57.776 123.392 58.864L125.344 58.288C125.184 57.232 124.64 55.6 124.064 54.416L122.208 54.928ZM121.76 53.968H125.504V59.216H121.76V53.968ZM132.256 54.864L130.176 54.288C129.92 55.472 129.344 57.232 128.896 58.352L130.656 58.928C131.136 57.904 131.712 56.464 132.256 55.056V59.216H128.544V53.968H132.256V54.864ZM135.392 62.192V50.992H128.832V49.232H135.968V45.968H128.832V42.928H125.216V45.968H118.176V49.168L115.232 47.408C114.592 48.848 113.856 50.352 113.056 51.696L110.976 51.856C112.544 49.552 114.048 46.8 115.168 44.144L111.84 42.768C110.816 46.16 108.832 49.712 108.192 50.608C107.584 51.568 107.072 52.176 106.464 52.368C106.848 53.232 107.392 54.864 107.584 55.536C108.032 55.312 108.736 55.152 111.072 54.864C110.272 56.144 109.536 57.072 109.12 57.52C108.128 58.736 107.456 59.472 106.688 59.632C107.072 60.56 107.648 62.256 107.808 62.896C108.512 62.608 109.632 62.32 115.616 61.424C115.712 61.968 115.776 62.48 115.84 62.896L118.624 62.032C118.432 60.336 117.696 57.52 116.96 55.376L114.304 56.08C114.528 56.816 114.784 57.68 114.976 58.544L111.84 58.928C114.208 56.08 116.544 52.624 118.304 49.232H125.216V50.992H118.816V62.192H123.584C122.272 64.464 120.288 66.672 118.24 68.016C117.952 66.448 117.44 64.56 116.992 63.024L114.592 63.728C115.168 65.712 115.744 68.336 115.936 70.064L118.4 69.296C118.976 70 119.488 70.768 119.808 71.376C121.76 69.968 123.744 67.76 125.312 65.424V72.784H128.928V64.272C130.496 66.928 132.416 69.456 134.144 71.056C134.72 70.224 135.872 69.04 136.64 68.4C134.656 66.96 132.352 64.56 130.688 62.192H135.392ZM147.616 66.736V62.96H162.432V66.736H147.616ZM162.432 55.6V59.376H147.616V55.6H162.432ZM162.432 48.336V52.016H147.616V48.336H162.432ZM143.776 44.624V72.432H147.616V70.448H162.432V72.432H166.464V44.624H143.776ZM194.784 48.528H193.088V47.088H194.784V48.528ZM199.328 51.216V53.616H197.504V51.216H199.328ZM193.088 51.216H194.784V53.616H193.088V51.216ZM188.672 51.216H190.4V53.616H188.672V51.216ZM190.4 48.528H185.6V56.304H202.624V48.528H197.504V47.088H203.2V44.08H184.992V47.088H190.4V48.528ZM201.312 60.304V57.424H186.944V60.304H201.312ZM185.568 59.504C185.024 58.576 182.624 54.864 181.792 53.776V52.368H184.896V48.848H181.792V42.896H178.336V48.848H174.336V52.368H177.856C176.992 55.984 175.296 60.432 173.536 62.896C174.08 63.888 174.912 65.648 175.296 66.768C176.448 64.944 177.472 62.288 178.336 59.408V72.752H181.792V58.512C182.432 59.824 183.008 61.168 183.36 62.096L185.568 59.504ZM187.712 65.232C186.848 67.024 185.312 68.912 183.68 70.16C184.48 70.64 185.888 71.6 186.528 72.176C188.128 70.704 189.92 68.4 191.008 66.16L187.712 65.232ZM203.264 64.56V61.584H185.024V64.56H192.288V72.752H195.68V64.56H203.264ZM196.864 66.672C198.304 68.272 199.968 70.512 200.672 71.952L203.616 70.224C202.784 68.848 201.12 66.768 199.616 65.264L196.864 66.672Z" fill="#8D887C"/>
<path d="M52 138.448C50.112 138.448 48.608 139.952 48.608 141.84C48.608 143.728 50.112 145.232 52 145.232C53.888 145.232 55.392 143.728 55.392 141.84C55.392 139.952 53.888 138.448 52 138.448ZM96.096 135.664C95.36 134.8 93.888 133.52 92.576 132.496C93.12 130.992 93.6 129.328 93.952 127.6L91.648 127.248C90.752 132.08 88.864 136.176 85.856 138.768C86.4 139.12 87.296 139.984 87.648 140.4C89.312 138.832 90.688 136.784 91.776 134.416C92.992 135.44 94.272 136.656 94.976 137.488L96.096 135.664ZM83.872 127.248C82.464 129.488 79.648 132.24 77.152 133.904C77.568 134.32 78.176 135.152 78.496 135.632C81.184 133.712 84.16 130.768 86.048 128.048L83.872 127.248ZM84.64 133.712C82.752 137.072 79.712 140.4 76.8 142.544C77.184 143.056 77.92 144.176 78.144 144.656C79.36 143.696 80.576 142.512 81.76 141.232V156.528H83.968V138.64C85.024 137.264 85.952 135.856 86.752 134.448L84.64 133.712ZM97.92 147.088H105.024V145.072H97.92V139.696H96.672C98.176 138.384 99.424 136.752 100.384 134.768C102.208 136.496 104.16 138.544 105.184 139.952L106.816 138.32C105.664 136.816 103.296 134.512 101.216 132.752C101.792 131.184 102.208 129.424 102.496 127.536L100.224 127.248C99.52 132.24 97.728 136.112 94.496 138.48C94.944 138.736 95.648 139.28 96.128 139.696H95.712V153.072C93.696 152.112 92.192 150.256 91.232 146.864C91.488 145.424 91.68 143.856 91.776 142.16L89.504 142C89.184 147.824 88.064 152.144 84.8 154.832C85.312 155.184 86.272 155.984 86.592 156.368C88.384 154.736 89.6 152.688 90.4 150.224C92.512 154.96 95.84 156.112 100.608 156.112H105.92C105.984 155.504 106.336 154.48 106.656 153.968H100.736C99.744 153.968 98.784 153.904 97.92 153.744V147.088ZM118.496 154.416C122.944 154.416 125.792 150.352 125.792 142.192C125.792 134.064 122.944 130.096 118.496 130.096C114.016 130.096 111.168 134.032 111.168 142.192C111.168 150.352 114.016 154.416 118.496 154.416ZM118.496 152.08C115.808 152.08 114.016 149.104 114.016 142.192C114.016 135.344 115.808 132.432 118.496 132.432C121.152 132.432 122.944 135.344 122.944 142.192C122.944 149.104 121.152 152.08 118.496 152.08ZM140.662 145.968H147.03V143.856H140.662V140.432H138.39V143.856H132.15V145.968H138.39V151.344C135.606 151.824 133.014 152.304 131.062 152.624L131.574 154.832C135.766 154.032 141.814 152.88 147.478 151.792L147.318 149.712C145.11 150.128 142.838 150.544 140.662 150.96V145.968ZM131.318 131.44H136.374C135.35 133.712 134.07 135.696 133.59 136.336C133.046 137.104 132.566 137.648 132.054 137.744C132.342 138.352 132.726 139.472 132.854 139.984C133.622 139.632 134.774 139.504 144.726 138.544C145.206 139.28 145.59 139.984 145.846 140.528L147.67 139.344C146.742 137.52 144.63 134.64 142.838 132.496L141.142 133.52C141.91 134.48 142.742 135.568 143.51 136.688L135.35 137.392C136.63 135.696 137.942 133.552 139.03 131.44H147.67V129.328H131.318V131.44ZM151.67 130H149.43V149.232H151.67V130ZM155.702 127.76V152.752C155.702 153.296 155.574 153.424 155.03 153.456C154.486 153.488 152.726 153.488 150.87 153.424C151.222 154.064 151.638 155.152 151.734 155.76C154.038 155.76 155.734 155.696 156.726 155.312C157.686 154.96 158.038 154.224 158.038 152.72V127.76H155.702ZM165.366 154H178.23V151.568H173.526V130.512H171.286C170.006 131.28 168.502 131.824 166.422 132.208V134.064H170.582V151.568H165.366V154ZM196.076 147.344V144.368H199.532V147.344H196.076ZM204.812 144.368V147.344H201.452V144.368H204.812ZM195.596 130.448H198.796V134.224H195.596V130.448ZM200.62 130.448H203.948V134.224H200.62V130.448ZM205.74 130.448H209.132V134.224H205.74V130.448ZM211.948 138.256H197.42C197.836 137.552 198.22 136.848 198.54 136.112H211.244V128.56H193.58V136.112H196.172C195.02 138.384 193.292 140.528 191.372 142C191.244 138.96 190.796 136.048 189.516 133.264C190.796 131.696 191.916 130.064 192.812 128.432L190.796 127.408C190.156 128.656 189.324 129.936 188.364 131.184C187.564 129.936 186.54 128.72 185.228 127.504L183.564 128.72C185.004 130.096 186.092 131.504 186.924 132.976C185.708 134.384 184.364 135.664 182.988 136.72C183.5 137.072 184.268 137.744 184.588 138.192C185.708 137.264 186.828 136.24 187.884 135.12C188.396 136.496 188.748 137.936 188.94 139.44C187.564 142.224 185.1 145.2 182.956 146.736C183.468 147.184 184.14 147.984 184.492 148.528C186.092 147.184 187.82 145.136 189.196 142.992C189.196 143.44 189.196 143.92 189.196 144.368C189.196 148.496 188.908 152.624 188.108 153.648C187.884 153.968 187.628 154.096 187.18 154.16C186.508 154.224 185.42 154.224 184.076 154.128C184.492 154.768 184.684 155.664 184.716 156.4C185.932 156.464 187.116 156.432 188.076 156.24C188.876 156.144 189.452 155.792 189.836 155.248C191.116 153.52 191.404 149.008 191.404 144.4C191.404 143.664 191.404 142.896 191.372 142.16C191.884 142.512 192.652 143.184 193.004 143.504C194.06 142.608 195.116 141.488 196.076 140.24H209.676C209.42 149.776 209.1 153.136 208.492 153.936C208.236 154.32 207.98 154.384 207.564 154.384C207.276 154.384 206.796 154.384 206.22 154.352L207.564 153.872C207.18 152.592 206.22 150.704 205.164 149.264L203.532 149.84C203.852 150.32 204.172 150.864 204.492 151.408L201.452 151.664V148.976H206.7V142.736H201.452V140.88H199.532V142.736H194.22V148.976H199.532V151.824C196.972 152.016 194.604 152.208 192.812 152.336L193.068 154.352C196.3 154.032 200.876 153.616 205.324 153.136C205.484 153.584 205.644 153.968 205.74 154.352C205.484 154.32 205.228 154.32 204.94 154.288C205.228 154.832 205.452 155.76 205.484 156.368C206.7 156.432 207.884 156.432 208.588 156.336C209.42 156.24 209.932 156.048 210.444 155.312C211.308 154.192 211.596 150.416 211.948 139.344V138.256ZM233.196 132.176C232.876 130.8 232.172 128.72 231.532 127.088L229.228 127.696C229.836 129.328 230.508 131.504 230.764 132.88L233.196 132.176ZM244.396 133.264H218.7V135.6H244.396V133.264ZM228.652 150.736C228.076 147.056 226.732 141.616 225.484 137.328L223.116 137.904C224.332 142.096 225.676 147.696 226.124 151.344L228.652 150.736ZM235.372 152.72C237.004 148.688 238.924 142.608 240.236 137.84L237.548 137.328C236.524 142 234.54 148.624 232.812 152.72H217.324V155.088H245.676V152.72H235.372ZM267.756 130.608H273.068V135.728C273.068 138.128 273.516 139.024 275.596 139.024H277.676C278.284 139.024 278.924 138.992 279.244 138.864C279.18 138.32 279.116 137.424 279.084 136.816C278.7 136.912 278.06 136.976 277.676 136.976H275.788C275.34 136.976 275.276 136.688 275.276 135.792V128.368H265.548V131.888C265.548 134.16 265.004 136.784 261.58 138.736C261.996 139.088 262.796 139.984 263.116 140.464C266.924 138.224 267.756 134.832 267.756 131.952V130.608ZM258.476 131.216C257.964 130.064 256.94 128.4 256.012 127.088L254.156 128.016C255.052 129.36 256.044 131.152 256.556 132.304L258.476 131.216ZM262.796 132.656H250.7V134.608H262.796V132.656ZM252.076 142.896H261.516V141.008H252.076V142.896ZM252.076 136.848V138.736H261.484V136.848H252.076ZM274.956 143.504C273.9 145.936 272.332 147.952 270.444 149.616C268.524 147.92 266.988 145.872 265.932 143.504H274.956ZM259.372 152.528H254.124V147.248H259.372V152.528ZM276.46 141.168L276.076 141.264H262.444V143.504H265.196L263.82 143.984C265.004 146.704 266.604 149.104 268.62 151.056C266.476 152.528 264.012 153.616 261.484 154.288V145.264H252.044V156.016H254.124V154.512H261.42C261.836 155.056 262.284 155.888 262.508 156.496C265.388 155.632 268.076 154.352 270.444 152.592C272.716 154.32 275.372 155.6 278.38 156.4C278.7 155.728 279.372 154.768 279.852 154.256C277.004 153.616 274.476 152.528 272.3 151.056C274.828 148.72 276.812 145.712 277.996 141.84L276.46 141.168ZM292.908 131.216C292.428 130.096 291.404 128.432 290.444 127.12L288.652 128.048C289.484 129.36 290.508 131.152 290.988 132.304L292.908 131.216ZM297.996 132.656H284.844V134.608H297.996V132.656ZM296.588 141.008H286.252V142.896H296.588V141.008ZM294.54 147.248V152.528H288.588V147.248H294.54ZM296.62 145.264H286.508V156.016H288.588V154.512H296.62V145.264ZM286.252 138.736H296.652V136.848H286.252V138.736ZM313.164 138.256H306.604V127.824H304.204V138.256H297.932V140.592H304.204V156.464H306.604V140.592H313.164V138.256ZM342.284 143.12V152.24H333.516V141.104H343.596V130.128H341.036V138.768H333.516V127.248H330.956V138.768H323.628V130.16H321.164V141.104H330.956V152.24H322.316V143.12H319.756V154.576H342.284V156.4H344.844V143.12H342.284ZM354.988 133.168H376.652V137.904H379.084V130.896H367.82C367.372 129.744 366.54 128.176 365.804 126.96L363.404 127.632C363.98 128.592 364.556 129.84 365.004 130.896H352.652V137.904H354.988V133.168ZM374.508 138.768V136.56H357.228V138.768H374.508ZM372.3 153.744C370.988 153.744 370.764 153.584 370.764 152.656V144.72H379.98V142.448H351.852V144.72H360.364C359.98 150.384 358.636 153.104 351.436 154.512C351.884 154.96 352.492 155.888 352.684 156.496C360.62 154.8 362.284 151.344 362.764 144.72H368.396V152.688C368.396 155.216 369.132 155.952 372.044 155.952H376.94C379.468 155.952 380.14 154.864 380.428 150.448C379.756 150.288 378.796 149.936 378.252 149.52C378.124 153.168 377.932 153.744 376.716 153.744H372.3ZM388.3 134.256H391.756V136.592H388.3V134.256ZM397.036 134.256V136.592H393.868V134.256H397.036ZM391.756 143.696H393.868V139.6C395.372 140.4 397.132 141.552 398.06 142.384L399.116 140.976C398.124 140.144 396.3 138.992 394.764 138.288L393.868 139.376V138.192H399.084V132.688H393.868V131.056H399.884V129.232H393.868V127.216H391.756V129.232H385.42V131.056H391.756V132.688H386.348V138.192H390.988C389.484 139.92 387.052 141.584 384.876 142.384C385.324 142.768 385.932 143.504 386.252 143.952C388.14 143.088 390.22 141.52 391.756 139.856V143.696ZM400.652 150.928H409.804V149.072H400.652V146.576H411.916V144.592H387.244V146.576H398.316V153.552H392.652V148.272H390.38V153.552H385.132V155.6H413.964V153.552H400.652V150.928ZM404.012 132.816L409.548 132.784C409.004 134.672 408.108 136.304 406.988 137.648C405.644 136.112 404.652 134.448 404.012 132.816ZM413.868 132.784V130.8H404.972C405.42 129.808 405.772 128.784 406.092 127.728L403.916 127.248C403.052 130.448 401.452 133.456 399.372 135.344C399.82 135.728 400.652 136.528 400.972 136.944C401.612 136.304 402.252 135.536 402.86 134.736C403.5 136.176 404.428 137.648 405.612 139.024C403.948 140.464 401.868 141.552 399.404 142.352C399.82 142.736 400.524 143.632 400.78 144.048C403.18 143.152 405.292 142.032 407.02 140.528C408.588 142 410.54 143.28 412.844 144.144C413.1 143.632 413.74 142.736 414.188 142.32C411.916 141.552 409.996 140.432 408.46 139.088C409.932 137.392 411.052 135.312 411.82 132.784H413.868ZM426.38 138.192C429.1 137.584 432.14 136.848 435.02 135.92C437.612 136.72 439.948 137.488 441.804 138.192H426.38ZM440.492 132.112C439.052 132.88 437.196 133.584 435.148 134.256C432.428 133.456 429.612 132.72 427.116 132.112H440.492ZM447.212 140.176V138.192H442.572L443.852 137.008C442.252 136.432 440.076 135.728 437.74 135.024C439.564 134.384 441.228 133.648 442.636 132.88L441.356 132.112H446.252V130.16H435.5C434.892 129.168 433.9 127.888 433.068 126.928L431.372 127.792C431.948 128.496 432.556 129.36 433.1 130.16H421.292V132.112H426.412L425.004 133.264C427.276 133.776 429.772 134.416 432.204 135.12C429.452 135.888 426.54 136.528 424.012 137.008C424.332 137.296 424.844 137.776 425.164 138.192H421.132V144.912C421.132 148.112 420.812 152.24 418.22 155.216C418.732 155.504 419.66 156.304 420.012 156.752C422.892 153.456 423.436 148.56 423.436 144.944V140.176H447.212ZM436.812 153.392V150.192H444.716V148.272H436.812V145.424H445.42V143.472H436.812V140.752H434.476V143.472H428.876C429.196 142.736 429.484 142.032 429.772 141.296L427.724 140.72C426.796 143.28 425.26 145.744 423.5 147.408C423.916 147.824 424.524 148.944 424.748 149.36C425.836 148.336 426.892 146.96 427.788 145.424H434.476V148.272H427.02V150.192H434.476V153.392H424.012V155.408H447.724V153.392H436.812ZM473.1 136.912H460.396V130.864H473.1V136.912ZM475.5 128.592H458.092V139.184H475.5V128.592ZM462.412 144.848V152.432H455.724V144.848H462.412ZM453.452 156.464H455.724V154.736H462.412V156.176H464.748V142.544H453.452V156.464ZM470.54 152.432V144.848H477.804V152.432H470.54ZM468.236 142.544V156.464H470.54V154.736H477.804V156.24H480.14V142.544H468.236ZM52 194.448C50.112 194.448 48.608 195.952 48.608 197.84C48.608 199.728 50.112 201.232 52 201.232C53.888 201.232 55.392 199.728 55.392 197.84C55.392 195.952 53.888 194.448 52 194.448ZM87.52 210.416C92.32 210.416 95.968 207.856 95.968 200.304V186.512H93.12V200.4C93.12 206.064 90.656 207.824 87.52 207.824C84.48 207.824 82.08 206.064 82.08 200.4V186.512H79.104V200.304C79.104 207.856 82.752 210.416 87.52 210.416ZM108.025 210.416C112.121 210.416 114.361 208.08 114.361 205.264C114.361 201.968 111.577 200.944 109.049 199.984C107.097 199.248 105.305 198.64 105.305 196.976C105.305 195.632 106.329 194.48 108.537 194.48C110.073 194.48 111.289 195.12 112.473 196.016L113.881 194.128C112.537 193.072 110.649 192.176 108.505 192.176C104.729 192.176 102.489 194.352 102.489 197.104C102.489 200.048 105.145 201.232 107.577 202.128C109.497 202.864 111.545 203.632 111.545 205.424C111.545 206.928 110.425 208.144 108.121 208.144C106.041 208.144 104.473 207.312 102.969 206.096L101.529 208.016C103.193 209.392 105.561 210.416 108.025 210.416ZM127.058 210.416C129.426 210.416 131.282 209.616 132.818 208.624L131.762 206.704C130.482 207.568 129.106 208.08 127.41 208.08C124.114 208.08 121.842 205.712 121.65 202H133.362C133.426 201.584 133.49 200.976 133.49 200.336C133.49 195.376 130.994 192.176 126.578 192.176C122.546 192.176 118.738 195.696 118.738 201.328C118.738 207.056 122.45 210.416 127.058 210.416ZM121.618 199.888C121.97 196.496 124.146 194.512 126.61 194.512C129.33 194.512 130.93 196.4 130.93 199.888H121.618ZM139.369 210H142.281V198.832C143.433 195.856 145.225 194.832 146.665 194.832C147.369 194.832 147.785 194.896 148.361 195.12L148.905 192.56C148.361 192.272 147.817 192.176 147.049 192.176C145.097 192.176 143.337 193.584 142.121 195.792H142.025L141.769 192.624H139.369V210ZM175.635 210.416C176.404 210.416 176.884 210.32 177.3 210.16L176.916 207.92C176.596 207.984 176.436 207.984 176.276 207.984C175.86 207.984 175.476 207.632 175.476 206.736V184.528H172.532V206.544C172.532 209.008 173.46 210.416 175.635 210.416ZM162.612 210H165.524V194.992H169.204V192.624H165.524V189.872C165.524 187.632 166.324 186.448 167.988 186.448C168.595 186.448 169.3 186.608 169.94 186.896L170.58 184.688C169.78 184.336 168.724 184.112 167.668 184.112C164.212 184.112 162.612 186.32 162.612 189.84V192.624L160.243 192.784V194.992H162.612V210ZM190.015 210.416C194.271 210.416 198.079 207.088 198.079 201.328C198.079 195.536 194.271 192.176 190.015 192.176C185.759 192.176 181.951 195.536 181.951 201.328C181.951 207.088 185.759 210.416 190.015 210.416ZM190.015 207.984C187.007 207.984 184.991 205.328 184.991 201.328C184.991 197.328 187.007 194.608 190.015 194.608C193.023 194.608 195.071 197.328 195.071 201.328C195.071 205.328 193.023 207.984 190.015 207.984ZM206.896 210H210.32L212.752 200.688C213.2 199.024 213.552 197.392 213.936 195.632H214.096C214.512 197.392 214.832 198.992 215.28 200.624L217.808 210H221.328L226 192.624H223.248L220.688 202.672C220.304 204.336 219.984 205.904 219.6 207.536H219.472C219.056 205.904 218.672 204.336 218.256 202.672L215.536 192.624H212.688L210 202.672C209.552 204.304 209.2 205.904 208.816 207.536H208.656C208.336 205.904 207.984 204.336 207.632 202.672L205.04 192.624H202.064L206.896 210ZM240.232 197.168H233.512V190.48H240.232V197.168ZM233.512 206.96V199.28H240.232V206.96H233.512ZM236.2 183.152C235.976 184.656 235.4 186.8 234.92 188.336H231.336V211.632H233.512V209.104H242.408V188.336H237.096C237.64 186.96 238.216 185.2 238.76 183.632L236.2 183.152ZM258.056 188.24H248.488C249.032 186.736 249.48 185.2 249.864 183.632L247.592 183.088C246.568 187.472 244.84 191.888 242.696 194.704C243.208 195.024 244.232 195.664 244.648 196.048C245.768 194.544 246.76 192.592 247.656 190.448H255.784C255.368 203.184 254.888 208.048 253.832 209.168C253.512 209.584 253.16 209.648 252.52 209.648C251.784 209.648 249.864 209.648 247.784 209.456C248.232 210.128 248.52 211.088 248.584 211.792C250.376 211.888 252.2 211.952 253.32 211.824C254.408 211.728 255.144 211.44 255.848 210.544C257.128 208.976 257.544 204.048 258.056 189.456V188.24ZM253 202.64C251.976 200.752 249.768 197.68 247.976 195.408L246.12 196.496C247.88 198.8 250.024 201.968 250.984 203.888L253 202.64ZM264.84 203.664C264.52 206.448 264.04 209.424 263.24 211.504C263.784 211.632 264.68 211.952 265.096 212.176C265.8 210.096 266.408 206.896 266.76 203.984L264.84 203.664ZM268.136 203.856C268.552 206.288 268.904 209.392 268.968 211.504L270.728 211.184C270.632 209.104 270.248 206 269.832 203.568L268.136 203.856ZM271.208 203.248C271.88 205.296 272.68 207.984 272.968 209.712L274.632 209.2C274.28 207.472 273.48 204.848 272.744 202.832L271.208 203.248ZM288.04 203.984V206.096H278.536V203.984H288.04ZM278.536 209.808V207.632H288.04V209.808H278.536ZM276.424 212.496H278.536V211.504H288.04V212.368H290.216V202.32H276.424V212.496ZM286.376 198.768C286.888 197.968 287.496 196.848 288.136 195.728L286.76 195.152C286.44 196.016 285.8 197.392 285.288 198.288L286.376 198.768ZM278.376 195.6C278.984 196.56 279.56 197.808 279.752 198.672L281 198.128C280.808 197.328 280.2 196.08 279.592 195.184L278.376 195.6ZM277.384 194.608H282.28V199.184H277.384V194.608ZM289.256 199.184H284.104V194.608H289.256V199.184ZM275.4 200.848H291.272V192.944H275.4V200.848ZM278.792 189.488V191.184H287.624V189.488H278.792ZM282.632 182.864C280.712 185.552 277.256 188.112 273.896 189.648L272.232 188.624C271.592 189.872 270.888 191.12 270.12 192.272L266.568 192.624C268.36 190.192 270.216 187.12 271.656 184.08L269.576 183.184C268.2 186.672 265.864 190.32 265.16 191.28C264.456 192.24 263.912 192.912 263.368 193.04C263.624 193.616 263.944 194.64 264.072 195.12C264.52 194.896 265.224 194.736 268.776 194.32C267.528 196.144 266.408 197.584 265.864 198.16C264.936 199.248 264.2 200.016 263.592 200.144C263.784 200.752 264.168 201.808 264.264 202.288C264.84 201.968 265.768 201.744 272.232 200.816C272.392 201.552 272.52 202.224 272.584 202.768L274.408 202.224C274.184 200.56 273.416 197.712 272.648 195.504L270.92 195.92C271.24 196.848 271.528 197.936 271.784 198.96L267.112 199.6C269.512 196.944 271.848 193.648 273.832 190.352C274.216 190.736 274.568 191.216 274.824 191.568C277.672 190.256 280.552 188.208 282.76 185.872C285.448 188.336 288.456 189.968 291.72 191.376C292.04 190.736 292.648 190.032 293.192 189.552C289.768 188.368 286.6 186.896 283.976 184.496C284.168 184.208 284.392 183.984 284.584 183.696L282.632 182.864ZM324.104 183.536H321.928V196.688C321.928 197.104 321.8 197.232 321.32 197.232C320.872 197.264 319.336 197.296 317.576 197.232C317.896 197.808 318.248 198.576 318.344 199.184C320.584 199.184 322.024 199.184 322.952 198.832C323.816 198.48 324.104 197.968 324.104 196.72V183.536ZM318.056 184.848H315.912V195.28H318.056V184.848ZM304.616 192.56H299.048V198.512H300.968V194.16H304.616V199.344H306.696V194.16H310.632V196.464C310.632 196.72 310.568 196.816 310.28 196.816C309.992 196.848 309.192 196.848 308.136 196.816C308.36 197.264 308.68 197.84 308.776 198.352C310.184 198.352 311.176 198.352 311.784 198.064C312.488 197.776 312.648 197.36 312.648 196.464V192.56H306.696V190.864H313.448V189.136H306.696V187.184H312.328V185.52H306.696V183.216H304.616V185.52H301.608C301.864 184.944 302.12 184.368 302.312 183.792L300.424 183.344C299.88 185.104 298.984 186.896 297.896 188.176C298.344 188.4 299.208 188.816 299.592 189.104C300.008 188.56 300.424 187.888 300.808 187.184H304.616V189.136H297.416V190.864H304.616V192.56ZM322.504 202.832C321.096 203.856 318.76 205.2 316.84 206.16C315.592 205.104 314.632 203.92 313.864 202.544H325.8V200.56H313.608C313.256 199.76 312.776 198.768 312.264 197.968L310.056 198.608C310.376 199.184 310.76 199.92 311.048 200.56H297.544V202.544H308.68C305.576 204.432 301.032 205.936 297 206.672C297.448 207.12 298.056 207.92 298.312 208.432C300.104 208.048 301.992 207.504 303.848 206.832V208.272C303.848 209.712 303.016 210.384 302.504 210.704C302.792 211.056 303.176 211.792 303.336 212.336V212.496C303.944 212.08 304.936 211.824 313.352 209.84C313.32 209.424 313.352 208.592 313.416 208.016L306.088 209.584V205.936C308.232 204.976 310.152 203.888 311.688 202.704C314.152 207.664 318.536 210.768 324.904 212.048C325.16 211.44 325.768 210.576 326.216 210.128C323.144 209.616 320.52 208.688 318.44 207.344C320.328 206.448 322.536 205.232 324.232 204.048L322.504 202.832ZM346.888 200.304C346.888 200.592 346.824 200.72 346.472 200.72C346.152 200.752 345.192 200.752 344.072 200.688C344.328 201.168 344.584 201.808 344.68 202.32C346.216 202.32 347.336 202.32 348.04 202.032C348.744 201.712 348.936 201.296 348.936 200.304V191.888H348.072V191.856H343.88V188.432H349.16V186.416H343.88V183.44H341.8V193.776H346.888V200.304ZM342.824 195.152C342.536 197.104 342.056 199.024 341.064 200.432C341.544 200.656 342.376 201.168 342.728 201.456C343.688 199.92 344.36 197.712 344.68 195.472L342.824 195.152ZM340.168 205.456C338.152 207.216 334.312 209.328 331.272 210.576C331.72 211.088 332.36 211.888 332.68 212.368C335.784 211.024 339.592 208.88 342.216 206.896L340.168 205.456ZM348.328 206.992C351.656 208.624 355.208 210.736 357.384 212.272L358.952 210.48C356.68 208.944 353.032 206.96 349.64 205.36L348.328 206.992ZM356.616 202.736C356.904 198.032 357.064 190.48 357.096 184.848H350.312V186.928H354.92C354.92 188.208 354.888 189.552 354.856 190.928H350.6V192.976H354.824C354.76 194.32 354.728 195.632 354.664 196.912H350.44V198.928H354.6C354.536 200.304 354.44 201.616 354.376 202.736H336.232L336.104 198.832H340.232V196.784H336.008L335.88 192.88H340.104V190.832H335.816L335.688 187.088C337.32 186.576 339.08 185.968 340.552 185.36L339.4 183.408C337.864 184.208 335.464 185.168 333.48 185.872L334.088 202.736H330.856V204.944H359.688V202.736H356.616ZM377.064 205.904C376.264 204.976 372.936 201.232 371.592 199.888C371.656 199.28 371.72 198.64 371.752 198.032H376.936V195.888H371.848C371.848 195.44 371.848 194.992 371.848 194.544V190.64H376.36V188.528H371.848V183.568H369.64V188.528H365.032V190.64H369.64V194.544C369.64 194.992 369.64 195.44 369.64 195.888H364.36V198.032H369.544C369.288 202.384 368.232 207.312 364.168 210.352C364.712 210.736 365.48 211.568 365.768 212.08C368.968 209.456 370.504 205.936 371.24 202.32C372.712 204.048 374.632 206.448 375.432 207.664L377.064 205.904ZM380.328 196.816H389.448V200.016H380.328V196.816ZM380.328 191.728H389.448V194.864H380.328V191.728ZM380.328 186.64H389.448V189.744H380.328V186.64ZM388.744 209.776C388.072 209.776 387.944 209.68 387.944 208.944V202.16H391.752V184.464H378.12V202.16H380.68C380.168 206.096 378.792 209.04 373.928 210.608C374.408 211.024 375.048 211.888 375.272 212.4C380.712 210.48 382.344 206.992 382.92 202.16H385.768V208.944C385.768 211.184 386.216 211.888 388.424 211.888H391.016C392.904 211.888 393.48 210.8 393.672 206.448C393.064 206.288 392.136 205.936 391.688 205.552C391.592 209.296 391.464 209.776 390.76 209.776H388.744ZM398.056 211.664C402.568 211.472 409.544 211.088 416.136 210.736L416.2 208.912C409.416 209.232 402.312 209.552 397.864 209.744L398.056 211.664ZM412.232 203.536H408.136V202H412.232V203.536ZM412.232 206.384H408.136V204.848H412.232V206.384ZM401.96 204.848H406.088V206.384H401.96V204.848ZM401.96 202H406.088V203.536H401.96V202ZM400.008 200.688V207.728H414.248V200.688H400.008ZM412.2 191.728H408.008V190H412.2V191.728ZM408.008 186.8H412.2V188.368H408.008V186.8ZM414.28 185.296H408.008V183.248H405.832V185.296H399.944V186.8H405.832V188.368H397.896V190H405.832V191.728H399.816V193.232H405.832V194.672H399.592V196.176H405.832V197.648H398.088V199.312H416.072V197.648H408.008V196.176H414.728V194.672H408.008V193.232H414.28V190H416.264V188.368H414.28V185.296ZM419.624 187.056H417.448V204.656H419.624V187.056ZM423.496 183.856V209.456C423.496 209.968 423.272 210.128 422.728 210.16C422.28 210.192 420.616 210.192 418.76 210.128C419.08 210.768 419.432 211.824 419.496 212.432C422.056 212.432 423.56 212.368 424.456 212.016C425.384 211.6 425.736 210.928 425.736 209.456V183.856H423.496ZM52 250.448C50.112 250.448 48.608 251.952 48.608 253.84C48.608 255.728 50.112 257.232 52 257.232C53.888 257.232 55.392 255.728 55.392 253.84C55.392 251.952 53.888 250.448 52 250.448ZM95.744 249.2C95.168 248.624 94.336 248.016 93.44 247.44C94.144 246.768 94.752 246.096 95.296 245.392L93.632 244.848C93.184 245.456 92.608 246.032 92.032 246.544C91.2 246.096 90.368 245.616 89.568 245.264L88.384 246.32C89.12 246.672 89.92 247.088 90.688 247.568C89.728 248.24 88.704 248.848 87.648 249.328C88.064 249.648 88.736 250.256 88.96 250.576C90.016 250 91.104 249.328 92.16 248.496C93.088 249.168 93.92 249.776 94.464 250.352L95.744 249.2ZM95.648 243.472C95.072 243.024 94.304 242.512 93.44 241.968C94.112 241.328 94.688 240.688 95.2 240.016L93.536 239.568C93.12 240.08 92.608 240.624 92.032 241.136C91.2 240.688 90.4 240.272 89.632 239.952L88.48 241.008C89.184 241.328 89.984 241.712 90.72 242.16C89.824 242.768 88.864 243.344 87.872 243.792C88.288 244.08 88.96 244.656 89.216 244.944C90.208 244.432 91.2 243.76 92.192 243.024C93.056 243.568 93.888 244.176 94.4 244.656L95.648 243.472ZM80.768 252.432H103.264V256.4H105.6V250.608H103.104C103.36 247.76 103.648 243.632 103.808 240.464H96.416V242.096H101.504L101.408 243.824H96.576V245.456H101.312L101.152 247.184H96.384V248.816H101.024C100.96 249.456 100.896 250.032 100.832 250.608H83.296L83.168 248.816H87.616V247.184H83.072L82.944 245.456H87.488V243.824H82.848L82.72 242.256C84.384 241.936 86.272 241.52 87.648 241.008L86.592 239.536C85.024 240.016 82.272 240.784 80.416 241.104L81.056 250.608H78.496V256.4H80.768V252.432ZM106.24 260.208H93.44V259.632C95.968 258.608 98.688 257.168 100.672 255.664L99.232 254.48L98.752 254.608H83.712V256.4H96.224C94.688 257.328 92.832 258.224 91.136 258.832V260.208H77.792V262.224H91.136V265.84C91.136 266.288 91.008 266.384 90.464 266.416C89.984 266.416 88.192 266.416 86.208 266.352C86.528 266.96 86.912 267.76 87.04 268.368C89.568 268.368 91.168 268.4 92.192 268.048C93.184 267.696 93.44 267.152 93.44 265.904V262.224H106.24V260.208ZM126.304 252.08C128.736 251.184 131.84 250.032 134.784 248.912L134.432 247.152C131.104 248.336 127.744 249.52 125.44 250.256L126.304 252.08ZM132.576 246C131.648 245.04 129.792 243.824 128.288 243.088L127.04 244.528C128.576 245.296 130.432 246.576 131.264 247.568L132.576 246ZM121.952 251.344C121.952 251.696 121.856 251.824 121.472 251.824C121.088 251.856 119.808 251.856 118.4 251.824C118.624 252.336 118.912 253.04 119.008 253.584C121.024 253.584 122.304 253.616 123.136 253.296C123.904 252.976 124.16 252.432 124.16 251.376V240.848H112.032V242.8H121.952V251.344ZM113.376 244.496C114.912 245.328 116.704 246.64 117.536 247.632L118.816 246.096C117.952 245.136 116.128 243.888 114.624 243.088L113.376 244.496ZM119.84 247.76C116.672 249.008 113.44 250.192 111.264 250.864L112.192 252.816C114.496 251.92 117.376 250.736 120.192 249.52L119.84 247.76ZM133.472 260.272H117.952V257.168H133.472V260.272ZM117.952 265.392V262.16H133.472V265.392H117.952ZM124.352 252.304C124.064 253.168 123.584 254.32 123.104 255.312H115.616V268.528H117.952V267.28H133.472V268.528H135.872V255.312H125.44C125.888 254.544 126.368 253.648 126.816 252.784L124.352 252.304ZM138.4 240.848H126.176V242.8H136.16V251.376C136.16 251.76 136.032 251.856 135.648 251.888C135.2 251.888 133.824 251.888 132.32 251.824C132.608 252.368 132.896 253.136 132.992 253.712C135.104 253.712 136.448 253.712 137.312 253.392C138.144 253.04 138.4 252.496 138.4 251.376V240.848ZM163.2 253.392V259.632H155.168V253.392H163.2ZM165.408 261.776V251.248H152.992V264.048H155.168V261.776H165.408ZM172.096 244.72H157.824C158.624 243.184 159.456 241.36 160.16 239.664L157.248 239.152C156.832 240.784 156 242.992 155.2 244.72H146.464V268.432H148.8V247.024H169.728V265.264C169.728 265.872 169.536 266.032 168.96 266.064C168.288 266.096 166.08 266.096 163.776 266C164.128 266.64 164.512 267.76 164.64 268.432C167.52 268.432 169.472 268.4 170.624 268.016C171.744 267.632 172.096 266.832 172.096 265.264V244.72ZM194.016 263.632V245.264H205.504V242.832H180.224V245.264H191.424V263.632H178.56V266H207.104V263.632H194.016ZM236.864 248.88H227.104V242.896H236.864V248.88ZM239.168 240.848H224.864V250.928H239.168V240.848ZM223.936 256.752C223.296 256.016 220.576 253.2 219.584 252.368V250.416H223.584V248.176H219.584V242.8C221.12 242.416 222.56 242 223.744 241.488L222.112 239.696C219.712 240.752 215.488 241.68 211.872 242.256C212.16 242.8 212.48 243.568 212.608 244.112C214.08 243.888 215.712 243.632 217.28 243.312V248.176H212.064V250.416H216.96C215.68 254.064 213.472 258.192 211.456 260.432C211.84 261.008 212.416 261.936 212.64 262.608C214.272 260.656 215.968 257.456 217.28 254.224V268.368H219.584V254.672C220.672 255.984 221.984 257.744 222.496 258.64L223.936 256.752ZM233.088 265.52V261.232H239.552V259.152H233.088V255.12C235.584 254.8 237.888 254.416 239.712 253.904L238.144 252.144C234.912 253.072 228.832 253.712 223.872 254C224.096 254.512 224.384 255.312 224.448 255.824C226.432 255.728 228.576 255.568 230.72 255.376V259.152H224.544V261.232H230.72V265.52H222.752V267.632H240.864V265.52H233.088ZM254.4 257.808V263.28H248.832V257.808H254.4ZM254.112 246.064V250.768H248.832V246.064H254.112ZM248.832 252.784H256.224V244.016H251.52C252.096 242.704 252.768 241.04 253.28 239.6L250.72 239.216C250.432 240.624 249.888 242.544 249.344 244.016H246.656V267.472H248.832V265.328H256.544V255.76H248.832V252.784ZM274.464 243.056V240.912H257.504V243.056H264.8V246.992H258.688V263.664H260.864V249.168H264.8V268.4H267.04V249.168H271.296V261.136C271.296 261.456 271.2 261.584 270.848 261.584C270.528 261.584 269.536 261.584 268.384 261.552C268.64 262.128 268.96 263.024 269.024 263.632C270.752 263.632 271.84 263.6 272.576 263.248C273.312 262.896 273.504 262.224 273.504 261.168V246.992H267.04V243.056H274.464ZM307.296 243.632H294.144L295.584 243.056C295.136 241.968 294.112 240.208 293.216 238.928L291.008 239.696C291.776 240.944 292.672 242.512 293.12 243.632H279.84V245.968H307.296V243.632ZM297.376 248.272C300.32 250.288 303.872 253.328 305.472 255.344L307.424 253.808C305.696 251.76 302.112 248.88 299.2 246.896L297.376 248.272ZM287.84 246.96C285.92 249.392 282.784 251.856 279.968 253.456C280.48 253.872 281.376 254.768 281.792 255.248C284.608 253.424 287.968 250.576 290.112 247.856L287.84 246.96ZM298.4 252.336C297.344 255.248 295.744 257.648 293.696 259.6C291.616 257.648 289.984 255.248 288.896 252.528L286.784 253.168C288.064 256.272 289.76 258.928 291.968 261.072C288.64 263.632 284.32 265.328 279.2 266.384C279.68 266.896 280.384 267.952 280.64 268.528C285.792 267.216 290.176 265.424 293.696 262.64C297.088 265.392 301.376 267.216 306.656 268.24C306.976 267.568 307.616 266.608 308.128 266.096C303.008 265.296 298.784 263.6 295.488 261.104C297.728 258.96 299.52 256.272 300.832 253.008L298.4 252.336ZM320.672 239.44C318.848 244.4 315.808 249.264 312.544 252.368C312.992 252.912 313.728 254.16 314.016 254.704C315.104 253.584 316.224 252.272 317.248 250.832V268.368H319.616V247.152C320.928 244.944 322.048 242.576 323.008 240.176L320.672 239.44ZM341.632 246.32H337.568V239.6H335.168V246.32H322.272V248.688H335.168V265.2C335.168 265.936 334.88 266.128 334.176 266.192C333.408 266.224 330.784 266.224 328.096 266.128C328.448 266.768 328.896 267.856 329.024 268.464C332.48 268.496 334.624 268.464 335.872 268.08C337.056 267.728 337.568 266.992 337.568 265.2V248.688H341.632V246.32ZM331.136 259.792C330.112 257.84 328 254.512 326.336 252.048L324.288 253.008C325.92 255.568 327.968 258.992 328.928 260.976L331.136 259.792ZM363.456 242.608H368.768V247.728C368.768 250.128 369.216 251.024 371.296 251.024H373.376C373.984 251.024 374.624 250.992 374.944 250.864C374.88 250.32 374.816 249.424 374.784 248.816C374.4 248.912 373.76 248.976 373.376 248.976H371.488C371.04 248.976 370.976 248.688 370.976 247.792V240.368H361.248V243.888C361.248 246.16 360.704 248.784 357.28 250.736C357.696 251.088 358.496 251.984 358.816 252.464C362.624 250.224 363.456 246.832 363.456 243.952V242.608ZM354.176 243.216C353.664 242.064 352.64 240.4 351.712 239.088L349.856 240.016C350.752 241.36 351.744 243.152 352.256 244.304L354.176 243.216ZM358.496 244.656H346.4V246.608H358.496V244.656ZM347.776 254.896H357.216V253.008H347.776V254.896ZM347.776 248.848V250.736H357.184V248.848H347.776ZM370.656 255.504C369.6 257.936 368.032 259.952 366.144 261.616C364.224 259.92 362.688 257.872 361.632 255.504H370.656ZM355.072 264.528H349.824V259.248H355.072V264.528ZM372.16 253.168L371.776 253.264H358.144V255.504H360.896L359.52 255.984C360.704 258.704 362.304 261.104 364.32 263.056C362.176 264.528 359.712 265.616 357.184 266.288V257.264H347.744V268.016H349.824V266.512H357.12C357.536 267.056 357.984 267.888 358.208 268.496C361.088 267.632 363.776 266.352 366.144 264.592C368.416 266.32 371.072 267.6 374.08 268.4C374.4 267.728 375.072 266.768 375.552 266.256C372.704 265.616 370.176 264.528 368 263.056C370.528 260.72 372.512 257.712 373.696 253.84L372.16 253.168ZM388.608 243.216C388.128 242.096 387.104 240.432 386.144 239.12L384.352 240.048C385.184 241.36 386.208 243.152 386.688 244.304L388.608 243.216ZM393.696 244.656H380.544V246.608H393.696V244.656ZM392.288 253.008H381.952V254.896H392.288V253.008ZM390.24 259.248V264.528H384.288V259.248H390.24ZM392.32 257.264H382.208V268.016H384.288V266.512H392.32V257.264ZM381.952 250.736H392.352V248.848H381.952V250.736ZM408.864 250.256H402.304V239.824H399.904V250.256H393.632V252.592H399.904V268.464H402.304V252.592H408.864V250.256Z" fill="black"/>
</svg>
