<svg width="1586" height="834" viewBox="0 0 1586 834" fill="none" xmlns="http://www.w3.org/2000/svg">
<path d="M646.5 529V631.5M606 760H642.5C644.709 760 646.5 758.209 646.5 756V631.5M646.5 631.5H597" stroke="#BAB4A3" stroke-width="4" stroke-linecap="round" stroke-linejoin="round"/>
<path d="M973 546V630.5M973 763.5H929.5M973 763.5H1016.5M973 763.5V630.5M973 630.5H929.5M973 630.5H1016.5" stroke="#BAB4A3" stroke-width="4" stroke-linecap="round" stroke-linejoin="round"/>
<rect x="883" y="442" width="172" height="96" rx="8" fill="#E7E4DE"/>
<path d="M929.304 480.928C927.96 480.032 925.272 478.56 923.32 477.632L922.008 479.328C923.96 480.384 926.616 481.92 927.928 482.848L929.304 480.928ZM927.672 489.568C926.264 488.672 923.608 487.264 921.752 486.336L920.44 488.064C922.392 489.088 925.016 490.624 926.328 491.52L927.672 489.568ZM923.192 506.016C925.08 503.072 927.32 499.104 928.984 495.744L927.256 494.176C925.4 497.792 922.936 502.016 921.208 504.416L923.192 506.016ZM945.144 502.88H933.784V496.288H945.144V502.88ZM949.496 488.832V486.528H940.728V480.992C943.48 480.512 946.04 479.904 948.12 479.2L946.264 477.344C942.712 478.624 936.28 479.616 930.776 480.192C931 480.736 931.32 481.632 931.448 482.208C933.72 481.984 936.12 481.696 938.456 481.344V486.528H929.24V488.832H938.456V494.08H931.576V506.432H933.784V505.088H945.144V506.272H947.416V494.08H940.728V488.832H949.496ZM956.952 494.368V492.032H960.984V494.368H956.952ZM956.952 488.16H960.984V490.464H956.952V488.16ZM967.32 488.16V490.464H963.128V488.16H967.32ZM967.32 494.368H963.128V492.032H967.32V494.368ZM975.736 484.64C975.8 482.4 975.8 480.032 975.8 477.632H973.56C973.56 480.064 973.56 482.4 973.496 484.64H969.688V486.88H973.432C973.144 492.864 972.28 498.016 969.528 501.792V501.664C967.384 501.92 965.208 502.144 963.128 502.336V499.808H969.4V497.984H963.128V496.032H969.336V486.528H963.128V484.512H969.912V482.656H963.128V480.32C965.464 480.064 967.64 479.776 969.368 479.392L968.184 477.568C964.888 478.304 959.128 478.88 954.392 479.136C954.648 479.616 954.872 480.384 954.968 480.896C956.856 480.832 958.936 480.704 960.984 480.544V482.656H954.072V484.512H960.984V486.528H955V496.032H960.984V497.984H954.936V499.808H960.984V502.56C958.36 502.816 955.96 503.04 954.04 503.2L954.392 505.28C957.976 504.896 962.936 504.352 967.768 503.776C967.352 504.16 966.904 504.544 966.392 504.896C966.968 505.28 967.8 506.08 968.152 506.592C973.784 502.368 975.256 495.392 975.64 486.88H980.216C979.896 498.496 979.512 502.72 978.776 503.648C978.456 504.064 978.168 504.16 977.624 504.16C977.016 504.16 975.608 504.128 974.072 504C974.424 504.608 974.68 505.6 974.744 506.24C976.216 506.336 977.72 506.368 978.616 506.24C979.576 506.144 980.216 505.888 980.76 505.056C981.848 503.712 982.136 499.264 982.488 485.856C982.488 485.536 982.52 484.64 982.52 484.64H975.736ZM1010.46 488.768H994.392V485.856H1010.46V488.768ZM1010.46 493.504H994.392V490.56H1010.46V493.504ZM1010.46 498.272H994.392V495.328H1010.46V498.272ZM991.96 483.968V500.192H1012.98V483.968H1002.58C1002.9 483.072 1003.22 482.048 1003.51 481.056H1015.42V478.88H988.888V481.056H1000.79C1000.63 482.016 1000.38 483.072 1000.12 483.968H991.96ZM997.752 500.544C995.544 502.016 991.192 503.68 987.768 504.576C988.312 505.088 989.016 505.92 989.4 506.432C992.824 505.472 997.112 503.776 999.896 502.112L997.752 500.544ZM1004.54 502.272C1008.28 503.552 1012.06 505.216 1014.33 506.464L1016.54 504.832C1014.04 503.584 1009.98 501.952 1006.23 500.704L1004.54 502.272Z" fill="black"/>
<rect x="733" y="710" width="205" height="96" rx="8" fill="#E7E4DE"/>
<path d="M779.304 748.928C777.96 748.032 775.272 746.56 773.32 745.632L772.008 747.328C773.96 748.384 776.616 749.92 777.928 750.848L779.304 748.928ZM777.672 757.568C776.264 756.672 773.608 755.264 771.752 754.336L770.44 756.064C772.392 757.088 775.016 758.624 776.328 759.52L777.672 757.568ZM773.192 774.016C775.08 771.072 777.32 767.104 778.984 763.744L777.256 762.176C775.4 765.792 772.936 770.016 771.208 772.416L773.192 774.016ZM795.144 770.88H783.784V764.288H795.144V770.88ZM799.496 756.832V754.528H790.728V748.992C793.48 748.512 796.04 747.904 798.12 747.2L796.264 745.344C792.712 746.624 786.28 747.616 780.776 748.192C781 748.736 781.32 749.632 781.448 750.208C783.72 749.984 786.12 749.696 788.456 749.344V754.528H779.24V756.832H788.456V762.08H781.576V774.432H783.784V773.088H795.144V774.272H797.416V762.08H790.728V756.832H799.496ZM806.952 762.368V760.032H810.984V762.368H806.952ZM806.952 756.16H810.984V758.464H806.952V756.16ZM817.32 756.16V758.464H813.128V756.16H817.32ZM817.32 762.368H813.128V760.032H817.32V762.368ZM825.736 752.64C825.8 750.4 825.8 748.032 825.8 745.632H823.56C823.56 748.064 823.56 750.4 823.496 752.64H819.688V754.88H823.432C823.144 760.864 822.28 766.016 819.528 769.792V769.664C817.384 769.92 815.208 770.144 813.128 770.336V767.808H819.4V765.984H813.128V764.032H819.336V754.528H813.128V752.512H819.912V750.656H813.128V748.32C815.464 748.064 817.64 747.776 819.368 747.392L818.184 745.568C814.888 746.304 809.128 746.88 804.392 747.136C804.648 747.616 804.872 748.384 804.968 748.896C806.856 748.832 808.936 748.704 810.984 748.544V750.656H804.072V752.512H810.984V754.528H805V764.032H810.984V765.984H804.936V767.808H810.984V770.56C808.36 770.816 805.96 771.04 804.04 771.2L804.392 773.28C807.976 772.896 812.936 772.352 817.768 771.776C817.352 772.16 816.904 772.544 816.392 772.896C816.968 773.28 817.8 774.08 818.152 774.592C823.784 770.368 825.256 763.392 825.64 754.88H830.216C829.896 766.496 829.512 770.72 828.776 771.648C828.456 772.064 828.168 772.16 827.624 772.16C827.016 772.16 825.608 772.128 824.072 772C824.424 772.608 824.68 773.6 824.744 774.24C826.216 774.336 827.72 774.368 828.616 774.24C829.576 774.144 830.216 773.888 830.76 773.056C831.848 771.712 832.136 767.264 832.488 753.856C832.488 753.536 832.52 752.64 832.52 752.64H825.736ZM855.336 749.248V749.568C855.336 751.232 854.568 753.408 846.28 754.528C846.696 754.912 847.304 755.776 847.56 756.288C853.192 755.424 855.72 753.952 856.776 752.384C858.76 754.336 861.832 755.616 865.48 756.128C865.768 755.552 866.376 754.688 866.824 754.24C862.632 753.888 859.144 752.64 857.448 750.72C857.512 750.336 857.544 749.984 857.544 749.664V749.248H862.632C862.184 750.176 861.608 751.104 861.128 751.776L863.016 752.448C863.88 751.328 864.904 749.472 865.704 747.84L864.104 747.296L863.72 747.392H853C853.224 746.816 853.48 746.24 853.672 745.632L851.528 745.152C850.824 747.488 849.512 749.728 847.848 751.232C848.36 751.488 849.256 752.096 849.64 752.448C850.504 751.584 851.336 750.464 852.04 749.248H855.336ZM844.36 765.536H860.392V767.776H844.36V765.536ZM844.36 761.824H860.392V764H844.36V761.824ZM844.36 758.112H860.392V760.288H844.36V758.112ZM842.056 769.344H862.76V756.512H842.056V769.344ZM846.216 747.136H838.568V748.992H846.216V747.136ZM847.016 752.096H837.864V754.016H847.016V752.096ZM847.4 769.568C845.128 770.816 841.288 771.968 838.024 772.64C838.568 773.056 839.368 773.952 839.784 774.432C842.952 773.568 846.984 772.064 849.544 770.528L847.4 769.568ZM855.208 770.816C858.664 771.968 862.12 773.344 864.168 774.368L866.248 772.992C864.008 771.968 860.264 770.592 856.84 769.536L855.208 770.816ZM878.856 749.216C878.344 748.096 877.384 746.4 876.52 745.088L874.824 746.048C875.624 747.36 876.616 749.152 877.064 750.304L878.856 749.216ZM882.92 750.656H871.432V752.608H882.92V750.656ZM881.704 756.736V754.848H872.712V756.736H881.704ZM879.784 765.248V770.528H874.568V765.248H879.784ZM881.736 763.264H872.68V774.016H874.568V772.512H881.736V763.264ZM872.712 760.896H881.768V759.008H872.712V760.896ZM883.24 747.04V749.312H887.208V758.752H882.888V760.96H887.208V774.4H889.448V760.96H893.672V758.752H889.448V749.312H894.76C894.728 762.432 894.632 772.896 897.768 773.856C899.24 774.464 900.264 773.44 900.616 768.96C900.264 768.64 899.624 767.84 899.24 767.232C899.112 769.536 898.888 771.584 898.696 771.52C896.904 771.072 896.968 759.968 897.16 747.04H883.24Z" fill="black"/>
<rect x="1010" y="582" width="205" height="96" rx="8" fill="#E7E4DE"/>
<path d="M1056.3 620.928C1054.96 620.032 1052.27 618.56 1050.32 617.632L1049.01 619.328C1050.96 620.384 1053.62 621.92 1054.93 622.848L1056.3 620.928ZM1054.67 629.568C1053.26 628.672 1050.61 627.264 1048.75 626.336L1047.44 628.064C1049.39 629.088 1052.02 630.624 1053.33 631.52L1054.67 629.568ZM1050.19 646.016C1052.08 643.072 1054.32 639.104 1055.98 635.744L1054.26 634.176C1052.4 637.792 1049.94 642.016 1048.21 644.416L1050.19 646.016ZM1072.14 642.88H1060.78V636.288H1072.14V642.88ZM1076.5 628.832V626.528H1067.73V620.992C1070.48 620.512 1073.04 619.904 1075.12 619.2L1073.26 617.344C1069.71 618.624 1063.28 619.616 1057.78 620.192C1058 620.736 1058.32 621.632 1058.45 622.208C1060.72 621.984 1063.12 621.696 1065.46 621.344V626.528H1056.24V628.832H1065.46V634.08H1058.58V646.432H1060.78V645.088H1072.14V646.272H1074.42V634.08H1067.73V628.832H1076.5ZM1083.95 634.368V632.032H1087.98V634.368H1083.95ZM1083.95 628.16H1087.98V630.464H1083.95V628.16ZM1094.32 628.16V630.464H1090.13V628.16H1094.32ZM1094.32 634.368H1090.13V632.032H1094.32V634.368ZM1102.74 624.64C1102.8 622.4 1102.8 620.032 1102.8 617.632H1100.56C1100.56 620.064 1100.56 622.4 1100.5 624.64H1096.69V626.88H1100.43C1100.14 632.864 1099.28 638.016 1096.53 641.792V641.664C1094.38 641.92 1092.21 642.144 1090.13 642.336V639.808H1096.4V637.984H1090.13V636.032H1096.34V626.528H1090.13V624.512H1096.91V622.656H1090.13V620.32C1092.46 620.064 1094.64 619.776 1096.37 619.392L1095.18 617.568C1091.89 618.304 1086.13 618.88 1081.39 619.136C1081.65 619.616 1081.87 620.384 1081.97 620.896C1083.86 620.832 1085.94 620.704 1087.98 620.544V622.656H1081.07V624.512H1087.98V626.528H1082V636.032H1087.98V637.984H1081.94V639.808H1087.98V642.56C1085.36 642.816 1082.96 643.04 1081.04 643.2L1081.39 645.28C1084.98 644.896 1089.94 644.352 1094.77 643.776C1094.35 644.16 1093.9 644.544 1093.39 644.896C1093.97 645.28 1094.8 646.08 1095.15 646.592C1100.78 642.368 1102.26 635.392 1102.64 626.88H1107.22C1106.9 638.496 1106.51 642.72 1105.78 643.648C1105.46 644.064 1105.17 644.16 1104.62 644.16C1104.02 644.16 1102.61 644.128 1101.07 644C1101.42 644.608 1101.68 645.6 1101.74 646.24C1103.22 646.336 1104.72 646.368 1105.62 646.24C1106.58 646.144 1107.22 645.888 1107.76 645.056C1108.85 643.712 1109.14 639.264 1109.49 625.856C1109.49 625.536 1109.52 624.64 1109.52 624.64H1102.74ZM1122.16 633.856C1122.16 637.472 1121.52 641.664 1115.57 644.768C1116.18 645.152 1117.1 645.952 1117.49 646.496C1123.89 643.04 1124.59 638.144 1124.59 633.888V629.792H1122.16V633.856ZM1134.06 646.528H1136.5V629.76H1134.06V646.528ZM1129.17 617.056C1126.29 622.016 1120.27 626.816 1114.29 628.8C1114.83 629.408 1115.41 630.368 1115.73 631.04C1120.75 629.056 1125.81 625.28 1129.2 620.96C1132.5 625.216 1137.55 628.896 1142.64 630.656C1143.06 629.984 1143.76 628.96 1144.34 628.48C1138.96 626.912 1133.46 623.104 1130.54 619.168C1130.7 618.88 1130.9 618.624 1131.06 618.336L1129.17 617.056ZM1149.58 637.696C1149.26 640.256 1148.78 643.072 1148.05 645.056C1148.59 645.216 1149.55 645.536 1150 645.792C1150.64 643.808 1151.28 640.768 1151.6 638.016L1149.58 637.696ZM1153.2 637.92C1153.55 640.096 1153.9 642.976 1154 644.864L1155.95 644.448C1155.86 642.592 1155.47 639.776 1155.06 637.6L1153.2 637.92ZM1156.59 637.344C1157.26 639.2 1158 641.632 1158.26 643.2L1160.14 642.56C1159.86 640.992 1159.09 638.624 1158.38 636.768L1156.59 637.344ZM1156.37 629.792C1156.72 630.72 1157.1 631.776 1157.42 632.832L1151.95 633.536C1154.58 630.656 1157.17 626.976 1159.34 623.36L1157.26 622.08C1156.53 623.488 1155.7 624.928 1154.83 626.24L1151.31 626.56C1153.14 624.128 1154.96 621.056 1156.4 618.048L1154.22 617.088C1152.88 620.576 1150.54 624.256 1149.84 625.184C1149.17 626.144 1148.56 626.816 1148.05 626.944C1148.3 627.52 1148.66 628.64 1148.78 629.12C1149.23 628.896 1149.94 628.736 1153.39 628.352C1152.21 630.048 1151.15 631.392 1150.64 631.936C1149.68 633.088 1148.91 633.92 1148.24 634.048C1148.5 634.688 1148.85 635.808 1148.98 636.32C1149.62 635.968 1150.64 635.744 1157.94 634.688C1158.13 635.36 1158.29 636 1158.38 636.512L1160.37 635.872C1160.02 634.176 1159.09 631.36 1158.19 629.216L1156.37 629.792ZM1173.04 635.744V642.912H1164.02V635.744H1173.04ZM1161.68 646.464H1164.02V645.024H1173.04V646.336H1175.44V633.6H1161.68V646.464ZM1160.88 618.88V620.992H1166.32C1165.84 624.928 1164.59 628.448 1160.56 630.368C1161.07 630.784 1161.74 631.584 1162.06 632.128C1166.61 629.76 1168.05 625.728 1168.62 620.992H1174C1173.74 626.176 1173.42 628.224 1172.94 628.736C1172.69 629.024 1172.4 629.088 1171.92 629.088C1171.41 629.088 1170.1 629.056 1168.69 628.928C1169.07 629.536 1169.3 630.464 1169.36 631.104C1170.77 631.2 1172.14 631.232 1172.91 631.136C1173.78 631.04 1174.32 630.848 1174.83 630.208C1175.63 629.344 1175.95 626.72 1176.3 619.904C1176.34 619.552 1176.34 618.88 1176.34 618.88H1160.88Z" fill="black"/>
<rect x="1010" y="710" width="205" height="96" rx="8" fill="#E7E4DE"/>
<path d="M1072.1 752.48H1067.33V748.416H1072.1V752.48ZM1072.1 758.432H1067.33V754.336H1072.1V758.432ZM1072.1 764.48H1067.33V760.32H1072.1V764.48ZM1074.24 746.432H1065.25V766.432H1074.24V746.432ZM1066.82 767.104C1066.21 769.408 1065.09 771.68 1063.62 773.184C1064.13 773.504 1065.03 774.112 1065.41 774.464C1066.85 772.768 1068.23 770.208 1068.96 767.584L1066.82 767.104ZM1070.82 767.872C1071.81 769.408 1072.93 771.552 1073.38 772.896L1075.27 772C1074.76 770.656 1073.67 768.608 1072.61 767.072L1070.82 767.872ZM1084.93 767.36V764.96H1089.03V767.36H1084.93ZM1078.92 764.96H1082.82V767.36H1078.92V764.96ZM1082.82 761.024V763.296H1078.92V761.024H1082.82ZM1089.03 761.024V763.296H1084.93V761.024H1089.03ZM1081.54 753.472H1086.28V755.584H1081.54V753.472ZM1081.54 749.792H1086.28V751.712H1081.54V749.792ZM1093.12 767.36H1091.2V759.232H1084.93V757.376H1093V755.584H1088.42V753.472H1091.81V751.712H1088.42V749.792H1092.32V748H1088.42V745.248H1086.28V748H1081.54V745.248H1079.43V748H1075.56V749.792H1079.43V751.712H1076.39V753.472H1079.43V755.584H1074.82V757.376H1082.82V759.232H1076.77V767.36H1074.69V769.184H1076.77V774.464H1078.92V769.184H1089.03V771.968C1089.03 772.384 1088.87 772.48 1088.48 772.512C1088.04 772.512 1086.5 772.512 1084.84 772.48C1085.12 773.024 1085.41 773.856 1085.51 774.4C1087.81 774.4 1089.25 774.4 1090.15 774.08C1090.95 773.728 1091.2 773.12 1091.2 771.968V769.184H1093.12V767.36ZM1114.47 750.944H1109.44V748.48H1114.47V750.944ZM1121.86 752.736V756.416H1116.74V752.736H1121.86ZM1109.44 752.736H1114.47V756.416H1109.44V752.736ZM1102.37 752.736H1107.24V756.416H1102.37V752.736ZM1107.24 750.944H1100.16V758.24H1124.2V750.944H1116.74V748.48H1125.76V746.496H1098.24V748.48H1107.24V750.944ZM1122.5 762.24V760.352H1101.8V762.24H1122.5ZM1104.84 767.2C1103.17 769.184 1100.36 771.04 1097.64 772.224C1098.15 772.576 1099.08 773.408 1099.43 773.792C1102.08 772.416 1105.12 770.272 1107.01 767.968L1104.84 767.2ZM1116.74 768.544C1119.36 770.048 1122.72 772.224 1124.36 773.664L1126.18 772.288C1124.42 770.816 1121.03 768.704 1118.44 767.296L1116.74 768.544ZM1097.89 764.448V766.4H1110.92V774.528H1113.25V766.4H1126.37V764.448H1097.89ZM1153.96 756.768H1137.89V753.856H1153.96V756.768ZM1153.96 761.504H1137.89V758.56H1153.96V761.504ZM1153.96 766.272H1137.89V763.328H1153.96V766.272ZM1135.46 751.968V768.192H1156.48V751.968H1146.08C1146.4 751.072 1146.72 750.048 1147.01 749.056H1158.92V746.88H1132.39V749.056H1144.29C1144.13 750.016 1143.88 751.072 1143.62 751.968H1135.46ZM1141.25 768.544C1139.04 770.016 1134.69 771.68 1131.27 772.576C1131.81 773.088 1132.52 773.92 1132.9 774.432C1136.32 773.472 1140.61 771.776 1143.4 770.112L1141.25 768.544ZM1148.04 770.272C1151.78 771.552 1155.56 773.216 1157.83 774.464L1160.04 772.832C1157.54 771.584 1153.48 769.952 1149.73 768.704L1148.04 770.272Z" fill="black"/>
<rect x="733" y="582" width="205" height="96" rx="8" fill="#E7E4DE"/>
<path d="M798.824 625.056V622.752H785.448L787.688 621.792C787.208 620.48 786.248 618.56 785.352 617.056L783.112 617.952C783.912 619.424 784.872 621.472 785.256 622.752H771.304V625.056H779.944C779.592 632.352 778.792 640.576 770.6 644.64C771.208 645.088 771.944 645.92 772.328 646.528C778.344 643.328 780.712 638.08 781.736 632.448H793.16C792.616 639.648 792.008 642.72 791.048 643.552C790.664 643.84 790.28 643.904 789.544 643.904C788.68 643.904 786.472 643.872 784.168 643.68C784.648 644.32 784.968 645.28 785.032 646.016C787.144 646.144 789.256 646.176 790.376 646.112C791.624 646.016 792.36 645.792 793.128 644.992C794.376 643.744 795.016 640.288 795.624 631.296C795.688 630.944 795.72 630.144 795.72 630.144H782.088C782.312 628.448 782.44 626.752 782.536 625.056H798.824ZM807.496 621.664H829.8V624.224H832.104V619.648H820.392C819.944 618.848 819.272 617.888 818.792 617.184L816.424 617.76C816.776 618.336 817.192 618.976 817.576 619.648H805.256V624.224H807.496V621.664ZM823.016 627.232C821.96 628.48 820.584 629.504 818.92 630.304C816.872 629.888 814.792 629.536 812.68 629.184C813.288 628.576 813.96 627.936 814.632 627.232H823.016ZM832.168 633.632C829.512 632.736 825.992 631.808 822.088 630.976C823.624 629.952 824.872 628.736 825.864 627.232H832.584V625.28H826.92C827.176 624.736 827.368 624.224 827.56 623.616L825.256 623.072C825 623.872 824.68 624.608 824.296 625.28H816.424C817.16 624.416 817.864 623.52 818.44 622.688L816.136 621.984C815.464 623.008 814.6 624.16 813.64 625.28H804.712V627.232H811.912C810.824 628.416 809.736 629.472 808.744 630.368C811.08 630.688 813.32 631.104 815.496 631.52C812.616 632.256 809.064 632.672 804.68 632.864C805.064 633.44 805.384 634.208 805.608 634.912C811.464 634.528 816.008 633.792 819.464 632.32C823.624 633.28 827.24 634.24 829.864 635.232L832.168 633.632ZM812.392 639.328C810.696 641.152 807.656 642.816 804.808 643.872C805.384 644.224 806.312 645.056 806.76 645.504C809.544 644.256 812.776 642.272 814.728 640.096L812.392 639.328ZM822.184 640.512C825.128 641.888 828.744 644.096 830.536 645.664L832.264 643.936C830.376 642.4 826.696 640.288 823.784 639.008L822.184 640.512ZM819.688 636.608V633.984H817.352V636.608H804.392V638.624H817.352V646.432H819.688V638.624H832.872V636.608H819.688ZM863.464 620.128V622.272H858.856V620.128H863.464ZM864.104 627.936C864.936 627.936 865.832 627.904 866.312 627.776C866.216 627.328 866.152 626.592 866.12 626.08C865.576 626.176 864.584 626.208 864.04 626.208H859.688C858.984 626.208 858.856 625.92 858.856 625.024V623.904H865.544V618.528H856.872V624.992C856.872 627.136 857.416 627.936 859.624 627.936H864.104ZM853.192 620.096V622.24H848.68V620.096H853.192ZM848.68 626.304V623.872H855.24V618.496H846.76V625.024C846.76 626.24 846.28 626.624 845.928 626.816C846.184 627.296 846.632 628.192 846.76 628.736C847.304 628.416 848.232 628.224 855.336 626.944C855.336 626.528 855.432 625.792 855.528 625.248L848.68 626.304ZM853.576 632.64H858.568V635.584H853.576V632.64ZM866.44 635.584H860.776V632.64H865.416V630.784H860.776V628.48H858.568V630.784H853.576V628.48H851.368V630.784H846.952V632.64H851.368V635.584H845.64V637.44H866.44V635.584ZM865.928 641.472C864.392 640.288 861.704 638.816 859.336 637.696L857.736 638.784C860.072 639.904 862.472 641.376 863.816 642.56L865.928 641.472ZM852.424 637.728C850.92 639.04 848.52 640.32 846.248 641.216C846.792 641.504 847.656 642.24 848.072 642.688C850.248 641.664 852.84 640.032 854.536 638.464L852.424 637.728ZM844.296 622.304C843.4 621.024 841.672 619.008 840.2 617.44L838.44 618.528C839.848 620.096 841.608 622.272 842.472 623.616L844.296 622.304ZM844.264 632.416L843.848 632.48H840.744C842.216 630.304 844.2 626.88 845.288 625.056L843.72 624.416L843.336 624.576H837.832V626.56H842.088C841 628.544 839.464 631.136 838.888 631.808C838.376 632.416 837.928 632.608 837.48 632.736C837.736 633.216 838.184 634.304 838.312 634.88C838.568 634.656 839.432 634.432 840.136 634.432H843.016C842.056 639.36 840.04 642.912 837.256 644.896C837.736 645.216 838.504 646.016 838.824 646.528C840.328 645.376 841.64 643.776 842.76 641.728C845.256 645.344 849.32 645.984 855.816 645.984C859.336 645.984 863.368 645.888 866.376 645.728C866.504 645.056 866.76 643.968 867.144 643.424C863.848 643.712 859.208 643.872 855.816 643.872C849.768 643.872 845.736 643.36 843.624 639.808C844.392 637.824 845.032 635.488 845.416 632.864L844.264 632.416ZM880.36 630.72L877.48 631.68V625.856H880.712V623.648H877.48V617.28H875.24V623.648H871.4V625.856H875.24V632.384C873.672 632.896 872.232 633.344 871.08 633.664L871.656 635.936C872.776 635.584 873.992 635.2 875.24 634.752V643.552C875.24 643.968 875.08 644.096 874.696 644.096C874.344 644.128 873.064 644.128 871.688 644.064C872.008 644.736 872.296 645.696 872.392 646.304C874.408 646.304 875.624 646.24 876.36 645.856C877.16 645.472 877.48 644.832 877.48 643.52V633.984C878.536 633.664 879.592 633.28 880.68 632.896L880.36 630.72ZM894.312 633.024C893.992 633.92 893.416 635.136 892.968 636.064H887.816L888.136 635.968C887.976 635.168 887.368 633.952 886.888 633.024H894.312ZM889.032 620.16H892.232V623.488H889.032V620.16ZM887.144 623.488H884.104V620.16H887.144V623.488ZM894.12 620.16H897.352V623.488H894.12V620.16ZM900.168 640.224H891.624V637.92H899.048V636.064H895.112C895.56 635.296 896.072 634.4 896.552 633.536L894.664 633.024H899.72V631.136H891.624V628.896H898.696V627.072H891.624V625.184H899.368V618.432H882.152V625.184H889.352V627.072H882.504V628.896H889.352V631.136H881.128V633.024H886.728L884.904 633.472C885.32 634.272 885.736 635.296 885.992 636.064H881.768V637.92H889.352V640.224H880.68V642.08H889.352V646.464H891.624V642.08H900.2L900.168 640.224Z" fill="black"/>
<rect x="745" y="268" width="138" height="96" rx="8" fill="#E7E4DE"/>
<path d="M805.128 318.064H788.808V314.896H805.128V318.064ZM788.808 328.528V325.136H805.128V328.528H788.808ZM805.128 323.248H788.808V319.984H805.128V323.248ZM811.24 309.84V307.632H803.176C804.136 306.544 805.16 305.2 806.024 303.856L803.432 303.184C802.728 304.496 801.544 306.32 800.52 307.632H792.072L793.448 306.896C792.872 305.808 791.592 304.24 790.44 303.12L788.36 304.016C789.352 305.104 790.44 306.544 791.08 307.632H782.824V309.84H795.624C795.432 310.768 795.144 311.856 794.856 312.784H786.472V332.464H788.808V330.64H805.128V332.464H807.56V312.784H797.384C797.768 311.888 798.088 310.864 798.44 309.84H811.24ZM838.856 314.768H822.792V311.856H838.856V314.768ZM838.856 319.504H822.792V316.56H838.856V319.504ZM838.856 324.272H822.792V321.328H838.856V324.272ZM820.36 309.968V326.192H841.384V309.968H830.984C831.304 309.072 831.624 308.048 831.912 307.056H843.816V304.88H817.288V307.056H829.192C829.032 308.016 828.776 309.072 828.52 309.968H820.36ZM826.152 326.544C823.944 328.016 819.592 329.68 816.168 330.576C816.712 331.088 817.416 331.92 817.8 332.432C821.224 331.472 825.512 329.776 828.296 328.112L826.152 326.544ZM832.936 328.272C836.68 329.552 840.456 331.216 842.728 332.464L844.936 330.832C842.44 329.584 838.376 327.952 834.632 326.704L832.936 328.272Z" fill="black"/>
<rect x="540" y="442" width="205" height="96" rx="8" fill="#E7E4DE"/>
<path d="M588.416 483.264H584.256V477.28H582.208V483.264H578.24V499.904H580.096V485.408H582.208V506.464H584.256V485.408H586.592V497.216C586.592 497.504 586.528 497.568 586.304 497.6C586.048 497.6 585.472 497.6 584.736 497.568C584.992 498.144 585.312 499.04 585.344 499.616C586.432 499.616 587.168 499.584 587.712 499.2C588.288 498.816 588.416 498.176 588.416 497.28V483.264ZM603.584 494.688C602.624 495.776 601.056 497.184 599.68 498.304C598.688 496.96 597.792 495.488 597.152 493.984H606.176V491.904H593.696V489.28H604.224V487.456H593.696V484.96H604.032V483.168H593.696V480.672H605.344V478.72H591.392V491.904H589.152V493.984H590.624V502.208C590.624 503.488 589.984 504.16 589.504 504.48C589.92 504.992 590.528 506.08 590.72 506.656C591.264 506.208 592.16 505.792 598.304 503.616C598.208 503.136 598.112 502.272 598.112 501.664L592.864 503.392V493.984H595.072C597.088 499.168 600.704 503.776 605.056 505.984C605.44 505.376 606.144 504.512 606.656 504.096C604.544 503.136 602.56 501.6 600.864 499.712C602.304 498.72 603.968 497.408 605.408 496.192L603.584 494.688ZM617.568 494.08C617.696 492.736 617.728 491.488 617.728 490.304V487.712H633.952V494.08H617.568ZM617.728 485.504V482.368C623.904 481.6 630.72 480.512 635.36 479.104L633.408 477.312C629.28 478.656 621.792 479.904 615.36 480.608V490.304C615.36 494.848 614.944 500.8 610.88 504.928C611.424 505.216 612.32 506.08 612.704 506.528C615.488 503.744 616.736 499.968 617.312 496.32H633.952V498.016H636.32V485.504H617.728ZM652.416 481.44L651.2 482.368C652.224 483.36 653.536 484.704 654.176 485.536L655.744 484.224C655.136 483.488 653.952 482.304 652.96 481.44H659.008V479.52H650.752C651.104 478.88 651.392 478.24 651.68 477.6L649.568 477.024C648.48 479.68 646.656 482.24 644.672 484C645.184 484.384 646.016 485.184 646.336 485.568C647.488 484.48 648.64 483.04 649.664 481.44H652.416ZM667.808 500.448V503.52H652.416V500.448H667.808ZM666.144 491.84V494.56H652.416V491.84H666.144ZM652.416 496.384H668.48V490.016H650.048V506.464H652.416V505.376H667.808V506.4H670.144V498.592H652.416V496.384ZM657.312 484.16C657.664 484.768 657.984 485.504 658.272 486.176H646.528V491.392H648.832V488.064H669.984V491.392H672.352V486.176H660.704C660.416 485.376 659.872 484.448 659.424 483.712L657.312 484.16ZM663.904 479.552C664.256 478.912 664.544 478.24 664.8 477.568L662.624 477.024C661.824 479.2 660.384 481.28 658.656 482.656C659.2 482.976 660.064 483.712 660.448 484.064C661.28 483.36 662.048 482.432 662.784 481.44H666.432L665.056 482.56C666.24 483.552 667.712 484.928 668.448 485.824L670.048 484.416C669.312 483.584 667.904 482.368 666.752 481.44H673.632V479.552H663.904ZM688.096 497.568L684.608 498.72V490.784H687.808V488.576H684.608V481.632H688.288V479.392H678.368V481.632H682.336V488.576H678.72V490.784H682.336V499.424C680.704 499.968 679.232 500.416 678.048 500.768L678.592 503.168C681.44 502.24 685.088 500.992 688.512 499.84L688.096 497.568ZM692.032 486.784H696.896V490.848H692.032V486.784ZM692.032 480.768H696.896V484.8H692.032V480.768ZM703.84 484.8H698.944V480.768H703.84V484.8ZM703.84 490.848H698.944V486.784H703.84V490.848ZM699.136 503.232V498.848H706.592V496.672H699.136V492.928H706.112V478.688H689.856V492.928H696.736V496.672H689.472V498.848H696.736V503.232H687.008V505.408H707.616V503.232H699.136Z" fill="black"/>
<rect x="406" y="582" width="205" height="96" rx="8" fill="#E7E4DE"/>
<path d="M451.216 621.44L450 622.368C451.024 623.36 452.336 624.704 452.976 625.536L454.544 624.224C453.936 623.488 452.752 622.304 451.76 621.44H457.808V619.52H449.552C449.904 618.88 450.192 618.24 450.48 617.6L448.368 617.024C447.28 619.68 445.456 622.24 443.472 624C443.984 624.384 444.816 625.184 445.136 625.568C446.288 624.48 447.44 623.04 448.464 621.44H451.216ZM466.608 640.448V643.52H451.216V640.448H466.608ZM464.944 631.84V634.56H451.216V631.84H464.944ZM451.216 636.384H467.28V630.016H448.848V646.464H451.216V645.376H466.608V646.4H468.944V638.592H451.216V636.384ZM456.112 624.16C456.464 624.768 456.784 625.504 457.072 626.176H445.328V631.392H447.632V628.064H468.784V631.392H471.152V626.176H459.504C459.216 625.376 458.672 624.448 458.224 623.712L456.112 624.16ZM462.704 619.552C463.056 618.912 463.344 618.24 463.6 617.568L461.424 617.024C460.624 619.2 459.184 621.28 457.456 622.656C458 622.976 458.864 623.712 459.248 624.064C460.08 623.36 460.848 622.432 461.584 621.44H465.232L463.856 622.56C465.04 623.552 466.512 624.928 467.248 625.824L468.848 624.416C468.112 623.584 466.704 622.368 465.552 621.44H472.432V619.552H462.704ZM486.896 637.568L483.408 638.72V630.784H486.608V628.576H483.408V621.632H487.088V619.392H477.168V621.632H481.136V628.576H477.52V630.784H481.136V639.424C479.504 639.968 478.032 640.416 476.848 640.768L477.392 643.168C480.24 642.24 483.888 640.992 487.312 639.84L486.896 637.568ZM490.832 626.784H495.696V630.848H490.832V626.784ZM490.832 620.768H495.696V624.8H490.832V620.768ZM502.64 624.8H497.744V620.768H502.64V624.8ZM502.64 630.848H497.744V626.784H502.64V630.848ZM497.936 643.232V638.848H505.392V636.672H497.936V632.928H504.912V618.688H488.656V632.928H495.536V636.672H488.272V638.848H495.536V643.232H485.808V645.408H506.416V643.232H497.936ZM519.504 620.928C518.16 620.032 515.472 618.56 513.52 617.632L512.208 619.328C514.16 620.384 516.816 621.92 518.128 622.848L519.504 620.928ZM517.872 629.568C516.464 628.672 513.808 627.264 511.952 626.336L510.64 628.064C512.592 629.088 515.216 630.624 516.528 631.52L517.872 629.568ZM513.392 646.016C515.28 643.072 517.52 639.104 519.184 635.744L517.456 634.176C515.6 637.792 513.136 642.016 511.408 644.416L513.392 646.016ZM535.344 642.88H523.984V636.288H535.344V642.88ZM539.696 628.832V626.528H530.928V620.992C533.68 620.512 536.24 619.904 538.32 619.2L536.464 617.344C532.912 618.624 526.48 619.616 520.976 620.192C521.2 620.736 521.52 621.632 521.648 622.208C523.92 621.984 526.32 621.696 528.656 621.344V626.528H519.44V628.832H528.656V634.08H521.776V646.432H523.984V645.088H535.344V646.272H537.616V634.08H530.928V628.832H539.696ZM547.152 634.368V632.032H551.184V634.368H547.152ZM547.152 628.16H551.184V630.464H547.152V628.16ZM557.52 628.16V630.464H553.328V628.16H557.52ZM557.52 634.368H553.328V632.032H557.52V634.368ZM565.936 624.64C566 622.4 566 620.032 566 617.632H563.76C563.76 620.064 563.76 622.4 563.696 624.64H559.888V626.88H563.632C563.344 632.864 562.48 638.016 559.728 641.792V641.664C557.584 641.92 555.408 642.144 553.328 642.336V639.808H559.6V637.984H553.328V636.032H559.536V626.528H553.328V624.512H560.112V622.656H553.328V620.32C555.664 620.064 557.84 619.776 559.568 619.392L558.384 617.568C555.088 618.304 549.328 618.88 544.592 619.136C544.848 619.616 545.072 620.384 545.168 620.896C547.056 620.832 549.136 620.704 551.184 620.544V622.656H544.272V624.512H551.184V626.528H545.2V636.032H551.184V637.984H545.136V639.808H551.184V642.56C548.56 642.816 546.16 643.04 544.24 643.2L544.592 645.28C548.176 644.896 553.136 644.352 557.968 643.776C557.552 644.16 557.104 644.544 556.592 644.896C557.168 645.28 558 646.08 558.352 646.592C563.984 642.368 565.456 635.392 565.84 626.88H570.416C570.096 638.496 569.712 642.72 568.976 643.648C568.656 644.064 568.368 644.16 567.824 644.16C567.216 644.16 565.808 644.128 564.272 644C564.624 644.608 564.88 645.6 564.944 646.24C566.416 646.336 567.92 646.368 568.816 646.24C569.776 646.144 570.416 645.888 570.96 645.056C572.048 643.712 572.336 639.264 572.688 625.856C572.688 625.536 572.72 624.64 572.72 624.64H565.936Z" fill="black"/>
<rect x="372" y="710" width="239" height="96" rx="8" fill="#E7E4DE"/>
<path d="M417.6 752.48H412.832V748.416H417.6V752.48ZM417.6 758.432H412.832V754.336H417.6V758.432ZM417.6 764.48H412.832V760.32H417.6V764.48ZM419.744 746.432H410.752V766.432H419.744V746.432ZM412.32 767.104C411.712 769.408 410.592 771.68 409.12 773.184C409.632 773.504 410.528 774.112 410.912 774.464C412.352 772.768 413.728 770.208 414.464 767.584L412.32 767.104ZM416.32 767.872C417.312 769.408 418.432 771.552 418.88 772.896L420.768 772C420.256 770.656 419.168 768.608 418.112 767.072L416.32 767.872ZM430.432 767.36V764.96H434.528V767.36H430.432ZM424.416 764.96H428.32V767.36H424.416V764.96ZM428.32 761.024V763.296H424.416V761.024H428.32ZM434.528 761.024V763.296H430.432V761.024H434.528ZM427.04 753.472H431.776V755.584H427.04V753.472ZM427.04 749.792H431.776V751.712H427.04V749.792ZM438.624 767.36H436.704V759.232H430.432V757.376H438.496V755.584H433.92V753.472H437.312V751.712H433.92V749.792H437.824V748H433.92V745.248H431.776V748H427.04V745.248H424.928V748H421.056V749.792H424.928V751.712H421.888V753.472H424.928V755.584H420.32V757.376H428.32V759.232H422.272V767.36H420.192V769.184H422.272V774.464H424.416V769.184H434.528V771.968C434.528 772.384 434.368 772.48 433.984 772.512C433.536 772.512 432 772.512 430.336 772.48C430.624 773.024 430.912 773.856 431.008 774.4C433.312 774.4 434.752 774.4 435.648 774.08C436.448 773.728 436.704 773.12 436.704 771.968V769.184H438.624V767.36ZM459.968 750.944H454.944V748.48H459.968V750.944ZM467.36 752.736V756.416H462.24V752.736H467.36ZM454.944 752.736H459.968V756.416H454.944V752.736ZM447.872 752.736H452.736V756.416H447.872V752.736ZM452.736 750.944H445.664V758.24H469.696V750.944H462.24V748.48H471.264V746.496H443.744V748.48H452.736V750.944ZM468 762.24V760.352H447.296V762.24H468ZM450.336 767.2C448.672 769.184 445.856 771.04 443.136 772.224C443.648 772.576 444.576 773.408 444.928 773.792C447.584 772.416 450.624 770.272 452.512 767.968L450.336 767.2ZM462.24 768.544C464.864 770.048 468.224 772.224 469.856 773.664L471.68 772.288C469.92 770.816 466.528 768.704 463.936 767.296L462.24 768.544ZM443.392 764.448V766.4H456.416V774.528H458.752V766.4H471.872V764.448H443.392ZM483.04 752.832C482.048 757.28 480 761.088 476.992 763.424C477.504 763.808 478.4 764.576 478.752 764.96C480.48 763.456 481.952 761.536 483.136 759.2C484.576 760.512 486.112 762.016 486.944 763.072L488.32 761.344C487.392 760.224 485.568 758.624 484 757.312C484.512 756.032 484.928 754.688 485.28 753.248L483.04 752.832ZM505.12 762.752C503.84 761.312 501.312 759.104 499.232 757.376C499.712 756.096 500.064 754.688 500.352 753.216L498.112 752.896C497.408 756.864 495.808 760.224 493.28 762.368C492.608 760.8 492.384 759.392 492.384 758.432V751.968H505.344V749.664H492.384V745.376H489.856V749.664H477.088V751.968H489.856V758.432C489.856 761.536 487.456 769.152 476.576 772.512C477.12 773.024 477.824 773.952 478.144 774.464C487.232 771.456 490.4 765.184 491.104 762.336C491.872 765.152 495.072 771.52 504.256 774.464C504.576 773.824 505.248 772.8 505.76 772.288C498.4 770.08 494.88 765.984 493.376 762.592C493.952 762.912 494.784 763.392 495.136 763.712C496.416 762.56 497.504 761.056 498.368 759.328C500.32 761.024 502.464 763.072 503.552 764.416L505.12 762.752ZM518.016 749.44L516.8 750.368C517.824 751.36 519.136 752.704 519.776 753.536L521.344 752.224C520.736 751.488 519.552 750.304 518.56 749.44H524.608V747.52H516.352C516.704 746.88 516.992 746.24 517.28 745.6L515.168 745.024C514.08 747.68 512.256 750.24 510.272 752C510.784 752.384 511.616 753.184 511.936 753.568C513.088 752.48 514.24 751.04 515.264 749.44H518.016ZM533.408 768.448V771.52H518.016V768.448H533.408ZM531.744 759.84V762.56H518.016V759.84H531.744ZM518.016 764.384H534.08V758.016H515.648V774.464H518.016V773.376H533.408V774.4H535.744V766.592H518.016V764.384ZM522.912 752.16C523.264 752.768 523.584 753.504 523.872 754.176H512.128V759.392H514.432V756.064H535.584V759.392H537.952V754.176H526.304C526.016 753.376 525.472 752.448 525.024 751.712L522.912 752.16ZM529.504 747.552C529.856 746.912 530.144 746.24 530.4 745.568L528.224 745.024C527.424 747.2 525.984 749.28 524.256 750.656C524.8 750.976 525.664 751.712 526.048 752.064C526.88 751.36 527.648 750.432 528.384 749.44H532.032L530.656 750.56C531.84 751.552 533.312 752.928 534.048 753.824L535.648 752.416C534.912 751.584 533.504 750.368 532.352 749.44H539.232V747.552H529.504ZM553.696 765.568L550.208 766.72V758.784H553.408V756.576H550.208V749.632H553.888V747.392H543.968V749.632H547.936V756.576H544.32V758.784H547.936V767.424C546.304 767.968 544.832 768.416 543.648 768.768L544.192 771.168C547.04 770.24 550.688 768.992 554.112 767.84L553.696 765.568ZM557.632 754.784H562.496V758.848H557.632V754.784ZM557.632 748.768H562.496V752.8H557.632V748.768ZM569.44 752.8H564.544V748.768H569.44V752.8ZM569.44 758.848H564.544V754.784H569.44V758.848ZM564.736 771.232V766.848H572.192V764.672H564.736V760.928H571.712V746.688H555.456V760.928H562.336V764.672H555.072V766.848H562.336V771.232H552.608V773.408H573.216V771.232H564.736Z" fill="black"/>
<path d="M814 87L814 123" stroke="#BAB4A3" stroke-width="4" stroke-linecap="round"/>
<path d="M816 224C816 222.895 815.105 222 814 222C812.895 222 812 222.895 812 224L816 224ZM812.586 261.414C813.367 262.195 814.633 262.195 815.414 261.414L828.142 248.686C828.923 247.905 828.923 246.639 828.142 245.858C827.361 245.077 826.095 245.077 825.314 245.858L814 257.172L802.686 245.858C801.905 245.077 800.639 245.077 799.858 245.858C799.077 246.639 799.077 247.905 799.858 248.686L812.586 261.414ZM812 224L812 260L816 260L816 224L812 224Z" fill="#BAB4A3"/>
<rect x="667" y="120" width="287" height="96" rx="8" fill="#E7E4DE"/>
<path d="M723.832 176.912C723.32 178.32 722.328 180.272 721.496 181.616H714.104L716.088 180.944C715.768 179.824 714.936 178.192 714.136 176.976L711.992 177.648C712.76 178.864 713.496 180.528 713.784 181.616H705.016V183.696H733.016V181.616H723.928C724.6 180.4 725.4 178.896 726.072 177.52L723.832 176.912ZM725.368 174.736H712.088V170.736H725.368V174.736ZM727.864 168.752H709.752V176.72H727.864V168.752ZM731.032 159.28C729.944 160.432 728.152 161.968 726.584 163.152C725.816 162.384 725.08 161.552 724.44 160.72C726.008 159.632 727.832 158.16 729.304 156.784L727.48 155.504C726.456 156.624 724.792 158.128 723.352 159.28C722.488 158 721.72 156.656 721.144 155.312L719.064 155.952C720.376 158.96 722.168 161.712 724.376 164.112H713.816C715.64 162.096 717.176 159.76 718.168 157.136L716.6 156.336L716.152 156.432H706.328V158.448H715.032C714.232 160.016 713.08 161.52 711.832 162.928C710.808 161.84 709.112 160.592 707.64 159.728L706.36 161.072C707.8 161.968 709.432 163.216 710.424 164.304C708.44 166.128 706.136 167.632 703.96 168.528C704.44 168.976 705.112 169.776 705.432 170.32C708.152 169.04 710.936 167.088 713.304 164.656V166.16H724.76V164.528C727 166.864 729.56 168.784 732.344 170.032C732.76 169.424 733.432 168.496 733.976 168.048C731.832 167.216 729.784 165.936 727.96 164.368C729.528 163.28 731.384 161.84 732.824 160.496L731.032 159.28ZM743.96 157.168V159.536H751.832C751.896 160.752 752.024 162.16 752.248 163.632L750.84 163.408C748.888 172.368 744.952 178.8 737.88 182.48C738.52 182.896 739.576 183.888 740.024 184.368C746.392 180.624 750.424 174.8 752.792 166.512C754.232 172.56 757.624 179.568 765.496 184.336C765.912 183.76 766.872 182.736 767.416 182.352C754.872 174.896 754.136 162.832 754.136 157.168H743.96ZM770.552 187.728H772.696L782.264 156.592H780.152L770.552 187.728ZM807.915 160.176C807.275 158.832 805.835 156.752 804.555 155.248L802.699 156.24C804.011 157.808 805.387 159.952 805.931 161.328L807.915 160.176ZM793.803 159.216C793.451 158.16 792.523 156.528 791.595 155.344L789.803 156.208C790.667 157.456 791.595 159.088 791.883 160.208L793.803 159.216ZM794.667 175.472V180.56H789.835V175.472H794.667ZM796.875 173.584H787.659V183.984H789.835V182.416H796.875V173.584ZM787.051 171.216H796.971V169.296H787.051V171.216ZM787.531 164.88V166.8H796.939V164.88H787.531ZM785.899 162.288H797.643L797.675 160.304H785.899V162.288ZM807.307 180.848V172.56H813.547V170.352H807.307V163.664H814.283V161.392H798.507V163.664H804.971V170.352H799.051V172.56H804.971V180.848H797.931V183.088H814.891V180.848H807.307ZM838.571 168.688V159.536H843.435V168.688H838.571ZM831.563 168.688V159.536H836.331V168.688H831.563ZM824.779 168.688V159.536H829.355V168.688H824.779ZM848.619 168.688H845.739V157.232H822.443V168.688H819.339V170.992H822.443V184.528H824.779V170.992H829.355V184.08H831.563V170.992H836.331V184.08H838.571V170.992H843.435V181.584C843.435 182 843.307 182.16 842.923 182.16C842.539 182.16 841.323 182.192 840.043 182.128C840.395 182.736 840.747 183.824 840.811 184.432C842.667 184.432 843.947 184.4 844.715 184.016C845.515 183.568 845.739 182.864 845.739 181.616V170.992H848.619V168.688ZM881.803 168.912C880.555 167.152 878.059 164.176 876.171 162.064L874.379 163.088C875.115 163.92 875.915 164.912 876.683 165.904L865.739 166.544C867.115 165.072 868.459 163.344 869.771 161.52H881.579V159.376H871.243C871.947 158.352 872.619 157.296 873.227 156.24L870.891 155.312C870.155 156.688 869.355 158.096 868.491 159.376H861.643V161.52H867.083C865.931 163.12 864.971 164.368 864.459 164.912C863.531 166 862.763 166.8 862.123 166.928C862.347 167.536 862.731 168.688 862.859 169.168C863.787 168.784 865.291 168.688 878.187 167.824C878.827 168.688 879.435 169.52 879.851 170.16L881.803 168.912ZM861.163 159.536C860.043 158.32 857.675 156.656 855.755 155.632L854.347 157.296C856.299 158.416 858.667 160.176 859.723 161.392L861.163 159.536ZM860.043 167.6C858.795 166.544 856.203 165.136 854.219 164.272L852.939 166.064C854.987 166.992 857.483 168.496 858.731 169.584L860.043 167.6ZM859.787 172.176C857.931 175.792 855.435 179.984 853.739 182.416L855.723 184.016C857.579 181.072 859.819 177.104 861.515 173.744L859.787 172.176ZM864.523 173.552C864.523 176.464 864.107 180.016 860.427 182.768C860.971 183.088 861.771 183.824 862.123 184.336C866.187 181.232 866.699 177.104 866.699 173.616V170.256H864.523V173.552ZM870.123 183.056H872.267V170.448H870.123V183.056ZM878.571 181.904C878.123 181.904 878.027 181.648 878.027 180.72V170.256H875.819V180.688C875.819 182.896 876.235 183.728 878.347 183.728H880.427C881.035 183.728 881.643 183.728 881.963 183.6C881.931 183.088 881.867 182.32 881.835 181.744C881.451 181.872 880.811 181.904 880.395 181.904H878.571ZM911.595 164.88H901.835V158.896H911.595V164.88ZM913.899 156.848H899.595V166.928H913.899V156.848ZM898.667 172.752C898.027 172.016 895.307 169.2 894.315 168.368V166.416H898.315V164.176H894.315V158.8C895.851 158.416 897.291 158 898.475 157.488L896.843 155.696C894.443 156.752 890.219 157.68 886.603 158.256C886.891 158.8 887.211 159.568 887.339 160.112C888.811 159.888 890.443 159.632 892.011 159.312V164.176H886.795V166.416H891.691C890.411 170.064 888.203 174.192 886.187 176.432C886.571 177.008 887.147 177.936 887.371 178.608C889.003 176.656 890.699 173.456 892.011 170.224V184.368H894.315V170.672C895.403 171.984 896.715 173.744 897.227 174.64L898.667 172.752ZM907.819 181.52V177.232H914.283V175.152H907.819V171.12C910.315 170.8 912.619 170.416 914.443 169.904L912.875 168.144C909.643 169.072 903.563 169.712 898.603 170C898.827 170.512 899.115 171.312 899.179 171.824C901.163 171.728 903.307 171.568 905.451 171.376V175.152H899.275V177.232H905.451V181.52H897.483V183.632H915.595V181.52H907.819Z" fill="black"/>
<rect x="697" width="233" height="96" rx="8" fill="#5B5B5B"/>
<path d="M742.728 62.416C747.624 62.416 750.696 59.472 750.696 55.76C750.696 52.272 748.584 50.672 745.864 49.488L742.504 48.048C740.68 47.28 738.632 46.416 738.632 44.144C738.632 42.032 740.36 40.688 743.016 40.688C745.192 40.688 746.92 41.552 748.36 42.896L749.928 41.008C748.264 39.28 745.8 38.096 743.016 38.096C738.76 38.096 735.624 40.72 735.624 44.336C735.624 47.76 738.216 49.424 740.392 50.352L743.784 51.824C745.992 52.816 747.688 53.584 747.688 55.984C747.688 58.288 745.832 59.824 742.76 59.824C740.328 59.824 737.96 58.672 736.296 56.912L734.504 58.928C736.552 61.072 739.4 62.416 742.728 62.416ZM761.235 62.416C762.291 62.416 763.443 62.096 764.435 61.776L763.859 59.6C763.283 59.824 762.483 60.048 761.875 60.048C759.859 60.048 759.187 58.832 759.187 56.688V46.992H763.891V44.624H759.187V39.728H756.755L756.403 44.624L753.683 44.784V46.992H756.275V56.624C756.275 60.08 757.523 62.416 761.235 62.416ZM769.425 62H772.337V44.624H769.425V62ZM770.897 41.04C772.049 41.04 772.849 40.272 772.849 39.088C772.849 37.968 772.049 37.2 770.897 37.2C769.745 37.2 768.945 37.968 768.945 39.088C768.945 40.272 769.745 41.04 770.897 41.04ZM777.374 62H780.446L782.782 57.936C783.39 56.88 783.966 55.824 784.574 54.832H784.734C785.374 55.824 786.014 56.88 786.59 57.936L789.15 62H792.35L786.622 53.232L791.902 44.624H788.862L786.718 48.432C786.206 49.424 785.694 50.384 785.15 51.344H785.022C784.446 50.384 783.838 49.424 783.294 48.432L780.958 44.624H777.822L783.102 52.944L777.374 62ZM804.031 42.48H799.263V38.416H804.031V42.48ZM804.031 48.432H799.263V44.336H804.031V48.432ZM804.031 54.48H799.263V50.32H804.031V54.48ZM806.175 36.432H797.183V56.432H806.175V36.432ZM798.751 57.104C798.143 59.408 797.023 61.68 795.551 63.184C796.063 63.504 796.959 64.112 797.343 64.464C798.783 62.768 800.159 60.208 800.895 57.584L798.751 57.104ZM802.751 57.872C803.743 59.408 804.863 61.552 805.311 62.896L807.199 62C806.687 60.656 805.599 58.608 804.543 57.072L802.751 57.872ZM816.863 57.36V54.96H820.959V57.36H816.863ZM810.847 54.96H814.751V57.36H810.847V54.96ZM814.751 51.024V53.296H810.847V51.024H814.751ZM820.959 51.024V53.296H816.863V51.024H820.959ZM813.471 43.472H818.207V45.584H813.471V43.472ZM813.471 39.792H818.207V41.712H813.471V39.792ZM825.055 57.36H823.135V49.232H816.863V47.376H824.927V45.584H820.351V43.472H823.743V41.712H820.351V39.792H824.255V38H820.351V35.248H818.207V38H813.471V35.248H811.359V38H807.487V39.792H811.359V41.712H808.319V43.472H811.359V45.584H806.751V47.376H814.751V49.232H808.703V57.36H806.623V59.184H808.703V64.464H810.847V59.184H820.959V61.968C820.959 62.384 820.799 62.48 820.415 62.512C819.967 62.512 818.431 62.512 816.767 62.48C817.055 63.024 817.343 63.856 817.439 64.4C819.743 64.4 821.183 64.4 822.079 64.08C822.879 63.728 823.135 63.12 823.135 61.968V59.184H825.055V57.36ZM846.399 40.944H841.375V38.48H846.399V40.944ZM853.791 42.736V46.416H848.671V42.736H853.791ZM841.375 42.736H846.399V46.416H841.375V42.736ZM834.303 42.736H839.167V46.416H834.303V42.736ZM839.167 40.944H832.095V48.24H856.127V40.944H848.671V38.48H857.695V36.496H830.175V38.48H839.167V40.944ZM854.431 52.24V50.352H833.727V52.24H854.431ZM836.767 57.2C835.103 59.184 832.287 61.04 829.567 62.224C830.079 62.576 831.007 63.408 831.359 63.792C834.015 62.416 837.055 60.272 838.943 57.968L836.767 57.2ZM848.671 58.544C851.295 60.048 854.655 62.224 856.287 63.664L858.111 62.288C856.351 60.816 852.959 58.704 850.367 57.296L848.671 58.544ZM829.823 54.448V56.4H842.847V64.528H845.183V56.4H858.303V54.448H829.823ZM864.479 55.696C864.159 58.256 863.679 61.072 862.975 63.056C863.423 63.184 864.319 63.472 864.703 63.696C865.375 61.712 865.983 58.768 866.303 55.984L864.479 55.696ZM867.775 55.888C868.127 58.064 868.511 60.848 868.575 62.736L870.367 62.288C870.239 60.432 869.887 57.68 869.471 55.568L867.775 55.888ZM871.231 55.28C871.935 57.232 872.703 59.792 873.023 61.488L874.655 60.88C874.335 59.248 873.535 56.72 872.799 54.736L871.231 55.28ZM870.943 47.952C871.295 48.88 871.711 49.904 872.063 50.928L866.527 51.696C869.087 48.656 871.583 44.848 873.567 41.072L871.711 39.952C871.039 41.456 870.175 42.992 869.375 44.368L866.015 44.688C867.775 42.256 869.503 39.12 870.847 36.112L868.831 35.248C867.583 38.704 865.407 42.352 864.735 43.312C864.095 44.272 863.519 44.944 863.039 45.072C863.263 45.616 863.615 46.672 863.711 47.12C864.127 46.896 864.799 46.736 868.127 46.352C867.007 48.112 866.015 49.488 865.503 50.096C864.575 51.312 863.871 52.112 863.231 52.24C863.487 52.816 863.839 53.84 863.903 54.32C864.479 54 865.471 53.776 872.607 52.656C872.735 53.2 872.895 53.744 872.991 54.192L874.783 53.488C874.399 51.952 873.471 49.392 872.639 47.376L870.943 47.952ZM882.431 56.496C881.759 56.496 881.663 56.24 881.663 55.408V52.272H888.255V50.384H883.519L884.671 49.872C884.383 49.168 883.807 47.92 883.263 46.992H888.639V45.104H885.919C886.431 43.728 887.039 41.904 887.519 40.336L885.759 39.824C885.471 41.36 884.831 43.6 884.255 45.104H878.175V46.992H883.071L881.599 47.568C882.047 48.4 882.559 49.52 882.847 50.384H878.495V52.272H879.679V55.376C879.679 57.488 880.159 58.256 882.271 58.256H886.367C887.167 58.256 887.999 58.224 888.415 58.096C888.351 57.616 888.287 56.88 888.223 56.336C887.743 56.464 886.847 56.496 886.335 56.496H882.431ZM879.263 40.272C880.031 41.68 880.703 43.6 880.927 44.848L882.463 44.304C882.271 43.056 881.535 41.168 880.735 39.76L879.263 40.272ZM891.487 36.752H875.199V64.496H877.343V38.864H889.311V61.776C889.311 62.224 889.183 62.352 888.767 62.384C888.383 62.384 887.103 62.416 885.759 62.352C886.047 62.928 886.303 63.888 886.367 64.464C888.319 64.464 889.631 64.432 890.399 64.048C891.231 63.664 891.487 63.088 891.487 61.776V36.752Z" fill="white"/>
<path d="M816 366.5C816 365.395 815.105 364.5 814 364.5C812.895 364.5 812 365.395 812 366.5H816ZM645.586 431.414C646.367 432.195 647.633 432.195 648.414 431.414L661.142 418.686C661.923 417.905 661.923 416.639 661.142 415.858C660.361 415.077 659.095 415.077 658.314 415.858L647 427.172L635.686 415.858C634.905 415.077 633.639 415.077 632.858 415.858C632.077 416.639 632.077 417.905 632.858 418.686L645.586 431.414ZM969.086 431.414C969.867 432.195 971.133 432.195 971.914 431.414L984.642 418.686C985.423 417.905 985.423 416.639 984.642 415.858C983.861 415.077 982.595 415.077 981.814 415.858L970.5 427.172L959.186 415.858C958.405 415.077 957.139 415.077 956.358 415.858C955.577 416.639 955.577 417.905 956.358 418.686L969.086 431.414ZM812 366.5V387.5H816V366.5H812ZM814 385.5H651V389.5H814V385.5ZM645 391.5V430H649V391.5H645ZM814 389.5H966.5V385.5H814V389.5ZM968.5 391.5V430H972.5V391.5H968.5ZM966.5 389.5C967.605 389.5 968.5 390.395 968.5 391.5H972.5C972.5 388.186 969.814 385.5 966.5 385.5V389.5ZM651 385.5C647.686 385.5 645 388.186 645 391.5H649C649 390.395 649.895 389.5 651 389.5V385.5Z" fill="#BAB4A3"/>
</svg>
