<svg width="1605" height="383" viewBox="0 0 1605 383" fill="none" xmlns="http://www.w3.org/2000/svg">
<circle cx="306.814" cy="25" r="25" fill="#8D887C"/>
<path d="M220.818 103.68H225.586V107.04H220.818V103.68ZM225.586 96.576H220.818V93.344H225.586V96.576ZM225.586 101.824H220.818V98.432H225.586V101.824ZM212.946 104.192H209.394V94.848H212.946V104.192ZM233.714 107.04H227.794V103.68H232.37V101.824H227.794V98.432H232.37V96.576H227.794V93.344H232.786V91.328H228.402C228.018 90.24 227.25 88.768 226.61 87.584L224.626 88.384C225.074 89.28 225.586 90.368 226.002 91.328H221.842C222.866 89.856 223.762 88.256 224.562 86.528H230.898V89.888H233.042V84.48H225.394C225.778 83.584 226.098 82.592 226.386 81.632L224.146 81.184C223.826 82.304 223.442 83.424 223.026 84.48H216.242V89.952H218.322V86.528H222.066C220.338 90.016 217.97 92.96 215.026 95.008V92.768H209.554C210.226 90.56 210.738 88.128 211.154 85.664H215.57V83.488H205.074V85.664H208.85C208.018 90.944 206.61 95.84 204.306 99.104C204.754 99.584 205.426 100.672 205.682 101.152C206.29 100.352 206.834 99.392 207.346 98.432V108.896H209.394V106.304H215.026V95.136C215.506 95.648 216.146 96.544 216.402 97.024C217.138 96.448 217.906 95.84 218.578 95.168V110.464H220.818V109.088H233.746L233.714 107.04ZM263.986 84.544C263.73 91.008 263.41 93.504 262.898 94.08C262.61 94.4 262.354 94.464 261.842 94.464C261.33 94.464 259.986 94.432 258.514 94.304C258.898 94.912 259.122 95.776 259.186 96.416C260.594 96.48 262.002 96.48 262.802 96.416C263.666 96.352 264.274 96.128 264.818 95.488C265.586 94.496 265.938 91.616 266.29 83.52C266.29 83.2 266.322 82.496 266.322 82.496H250.738V84.544H257.33C257.17 86.112 256.946 87.584 256.53 88.96C255.314 87.904 253.65 86.528 252.306 85.472L251.058 86.816C252.562 88.064 254.514 89.76 255.698 90.976C254.642 93.12 252.914 94.848 250.066 96.032C250.546 96.416 251.186 97.184 251.442 97.728C257.33 95.104 258.93 90.304 259.506 84.544H263.986ZM256.05 97.76C257.362 99.232 258.802 101.28 259.474 102.528L261.042 101.44C260.338 100.192 258.866 98.272 257.522 96.832L256.05 97.76ZM245.682 85.504C245.234 84.352 244.402 82.592 243.57 81.28L241.554 81.984C242.322 83.36 243.186 85.184 243.538 86.336L245.682 85.504ZM249.554 86.528H238.29V88.512H249.554V86.528ZM248.786 90.848H239.122V92.736H248.786V90.848ZM239.122 97.024H248.786V95.104H239.122V97.024ZM246.578 101.344V106.688H241.138V101.344H246.578ZM248.626 99.392H239.122V110.112H241.138V108.64H248.626V99.392ZM250.418 107.36C251.506 105.6 252.21 102.688 252.626 100.384L250.93 99.872C250.546 102.048 249.778 104.864 248.69 106.592L250.418 107.36ZM256.85 107.84C255.762 107.84 255.538 107.68 255.538 106.912V99.136H253.458V106.912C253.458 109.12 254.098 109.76 256.626 109.76H260.786C262.994 109.76 263.57 108.736 263.794 104.384C263.218 104.256 262.354 103.936 261.906 103.584C261.81 107.296 261.618 107.84 260.562 107.84H256.85ZM263.25 99.168C264.37 101.312 265.49 104.16 265.938 105.888L267.762 105.184C267.314 103.488 266.098 100.704 264.946 98.592L263.25 99.168ZM357.64 98.88C355.944 99.328 354.184 99.808 352.52 100.256V87.264H357.16V84.992H345.512V87.264H350.184V100.896C348.232 101.376 346.472 101.824 345.064 102.144L345.672 104.576C349.032 103.648 353.608 102.368 357.928 101.088L357.64 98.88ZM365.096 88.48C365.16 86.304 365.192 84.064 365.192 81.76H362.824C362.824 84.096 362.792 86.336 362.728 88.48H357.384V90.784H362.632C362.152 98.528 360.392 104.992 353.608 108.608C354.184 109.024 354.984 109.888 355.304 110.496C362.6 106.4 364.456 99.264 364.968 90.784H371.368C370.888 102.112 370.376 106.4 369.48 107.424C369.128 107.808 368.744 107.904 368.136 107.904C367.432 107.904 365.608 107.904 363.656 107.712C364.072 108.384 364.36 109.376 364.392 110.048C366.184 110.176 368.072 110.208 369.096 110.112C370.216 109.984 370.856 109.728 371.56 108.864C372.776 107.392 373.192 102.816 373.704 89.696C373.736 89.376 373.736 88.48 373.736 88.48H365.096ZM404.552 95.008C405.704 95.008 406.856 94.944 407.4 94.816C407.304 94.272 407.208 93.376 407.144 92.736C406.536 92.896 405.256 92.928 404.488 92.928H398.6C397.576 92.928 397.32 92.544 397.32 91.392V87.776H405.928V85.664H397.32V81.248H394.984V91.328C394.984 94.016 395.752 95.008 398.568 95.008H404.552ZM383.432 97.6C385.16 98.656 387.368 100.128 388.488 101.056L389.768 99.744C388.616 98.848 386.376 97.408 384.68 96.416L383.432 97.6ZM383.176 94.592H389.8V101.056C387.24 102.336 384.712 103.616 382.92 104.416C383.112 103.008 383.176 101.6 383.176 100.384V94.592ZM392.072 92.544H380.968V100.352C380.968 103.072 380.776 106.432 378.952 108.864C379.432 109.184 380.264 110.016 380.584 110.528C381.928 108.864 382.568 106.656 382.888 104.544L383.72 106.464C385.512 105.44 387.688 104.192 389.8 102.944V107.872C389.8 108.288 389.704 108.416 389.256 108.416C388.84 108.416 387.528 108.448 385.992 108.384C386.312 108.96 386.632 109.76 386.76 110.368C388.744 110.368 390.152 110.336 390.952 109.984C391.816 109.632 392.072 109.088 392.072 107.872V92.544ZM388.104 84.288C388.776 85.28 389.448 86.368 390.088 87.456L383.528 87.904C385.096 86.24 386.632 84.096 387.976 82.016L385.608 81.216C384.264 83.808 382.152 86.4 381.544 87.072C380.904 87.744 380.36 88.224 379.848 88.32C380.136 88.896 380.488 90.08 380.616 90.56C381.352 90.208 382.472 90.08 391.144 89.376C391.56 90.176 391.912 90.912 392.168 91.552L394.216 90.624C393.416 88.736 391.592 85.728 390.024 83.552L388.104 84.288ZM399.112 108.064C397.608 108.064 397.32 107.872 397.32 106.816V102.016H406.28V99.872H397.32V96.064H394.984V106.816C394.984 109.44 395.784 110.176 398.888 110.176H404.552C407.208 110.176 407.912 109.088 408.2 104.928C407.56 104.768 406.632 104.416 406.088 104.032C405.928 107.456 405.704 108.064 404.36 108.064H399.112Z" fill="black"/>
<path d="M273.426 108H277.682V98.112C277.682 95.872 277.298 92.576 277.074 90.336H277.202L279.09 95.904L282.77 105.856H285.49L289.138 95.904L291.058 90.336H291.218C290.962 92.576 290.61 95.872 290.61 98.112V108H294.93V84.288H289.682L285.746 95.392C285.234 96.864 284.818 98.432 284.306 99.936H284.146C283.666 98.432 283.218 96.864 282.706 95.392L278.674 84.288H273.426V108ZM306.499 108H312.163L319.395 84.288H314.595L311.523 95.84C310.787 98.464 310.275 100.832 309.507 103.488H309.347C308.611 100.832 308.099 98.464 307.363 95.84L304.227 84.288H299.267L306.499 108ZM323.72 108H328.456V99.584H331.624C336.712 99.584 340.776 97.152 340.776 91.744C340.776 86.144 336.744 84.288 331.496 84.288H323.72V108ZM328.456 95.84V88.064H331.144C334.408 88.064 336.136 88.992 336.136 91.744C336.136 94.464 334.568 95.84 331.304 95.84H328.456Z" fill="#932F2F"/>
<circle cx="1281" cy="286" r="25" fill="#8D887C"/>
<path d="M1005.45 342.536H1003.27V355.688C1003.27 356.104 1003.14 356.232 1002.66 356.232C1002.22 356.264 1000.68 356.296 998.92 356.232C999.24 356.808 999.592 357.576 999.688 358.184C1001.93 358.184 1003.37 358.184 1004.3 357.832C1005.16 357.48 1005.45 356.968 1005.45 355.72V342.536ZM999.4 343.848H997.256V354.28H999.4V343.848ZM985.96 351.56H980.392V357.512H982.312V353.16H985.96V358.344H988.04V353.16H991.976V355.464C991.976 355.72 991.912 355.816 991.624 355.816C991.336 355.848 990.536 355.848 989.48 355.816C989.704 356.264 990.024 356.84 990.12 357.352C991.528 357.352 992.52 357.352 993.128 357.064C993.832 356.776 993.992 356.36 993.992 355.464V351.56H988.04V349.864H994.792V348.136H988.04V346.184H993.672V344.52H988.04V342.216H985.96V344.52H982.952C983.208 343.944 983.464 343.368 983.656 342.792L981.768 342.344C981.224 344.104 980.328 345.896 979.24 347.176C979.688 347.4 980.552 347.816 980.936 348.104C981.352 347.56 981.768 346.888 982.152 346.184H985.96V348.136H978.76V349.864H985.96V351.56ZM1003.85 361.832C1002.44 362.856 1000.1 364.2 998.184 365.16C996.936 364.104 995.976 362.92 995.208 361.544H1007.14V359.56H994.952C994.6 358.76 994.12 357.768 993.608 356.968L991.4 357.608C991.72 358.184 992.104 358.92 992.392 359.56H978.888V361.544H990.024C986.92 363.432 982.376 364.936 978.344 365.672C978.792 366.12 979.4 366.92 979.656 367.432C981.448 367.048 983.336 366.504 985.192 365.832V367.272C985.192 368.712 984.36 369.384 983.848 369.704C984.136 370.056 984.52 370.792 984.68 371.336V371.496C985.288 371.08 986.28 370.824 994.696 368.84C994.664 368.424 994.696 367.592 994.76 367.016L987.432 368.584V364.936C989.576 363.976 991.496 362.888 993.032 361.704C995.496 366.664 999.88 369.768 1006.25 371.048C1006.5 370.44 1007.11 369.576 1007.56 369.128C1004.49 368.616 1001.86 367.688 999.784 366.344C1001.67 365.448 1003.88 364.232 1005.58 363.048L1003.85 361.832ZM1019.78 342.344C1017.99 347.208 1015.05 351.976 1011.88 355.048C1012.33 355.56 1013.03 356.872 1013.26 357.416C1014.34 356.296 1015.43 355.016 1016.42 353.608V371.4H1018.79V349.928C1020.04 347.72 1021.19 345.384 1022.06 343.08L1019.78 342.344ZM1041.26 349.832V347.56H1027.94C1028.58 346.152 1029.19 344.712 1029.7 343.24L1027.43 342.632C1025.86 347.304 1023.27 351.912 1020.39 354.888C1020.94 355.272 1021.86 356.072 1022.25 356.488C1023.85 354.696 1025.42 352.392 1026.79 349.832H1029V371.432H1031.4V363.688H1040.97V361.448H1031.4V356.616H1040.52V354.408H1031.4V349.832H1041.26ZM1050.22 369.416C1051.02 369.416 1051.5 369.32 1051.91 369.16L1051.5 366.92C1051.18 366.984 1051.05 366.984 1050.89 366.984C1050.44 366.984 1050.06 366.632 1050.06 365.736V343.528H1047.14V365.544C1047.14 368.008 1048.04 369.416 1050.22 369.416ZM1064.62 369.416C1068.88 369.416 1072.69 366.088 1072.69 360.328C1072.69 354.536 1068.88 351.176 1064.62 351.176C1060.37 351.176 1056.56 354.536 1056.56 360.328C1056.56 366.088 1060.37 369.416 1064.62 369.416ZM1064.62 366.984C1061.61 366.984 1059.6 364.328 1059.6 360.328C1059.6 356.328 1061.61 353.608 1064.62 353.608C1067.63 353.608 1069.68 356.328 1069.68 360.328C1069.68 364.328 1067.63 366.984 1064.62 366.984ZM1084.73 377C1090.11 377 1093.53 374.216 1093.53 370.984C1093.53 368.136 1091.48 366.856 1087.45 366.856H1084.06C1081.72 366.856 1081.02 366.088 1081.02 364.968C1081.02 364.008 1081.5 363.432 1082.14 362.888C1082.91 363.272 1083.87 363.496 1084.73 363.496C1088.25 363.496 1091.07 361.16 1091.07 357.448C1091.07 355.944 1090.49 354.664 1089.66 353.864H1093.21V351.624H1087.16C1086.56 351.4 1085.69 351.176 1084.73 351.176C1081.21 351.176 1078.2 353.576 1078.2 357.384C1078.2 359.464 1079.32 361.128 1080.48 362.056V362.184C1079.58 362.824 1078.52 363.976 1078.52 365.416C1078.52 366.792 1079.2 367.72 1080.12 368.264V368.392C1078.49 369.448 1077.56 370.856 1077.56 372.328C1077.56 375.336 1080.48 377 1084.73 377ZM1084.73 361.512C1082.72 361.512 1081.02 359.912 1081.02 357.384C1081.02 354.824 1082.68 353.32 1084.73 353.32C1086.78 353.32 1088.44 354.856 1088.44 357.384C1088.44 359.912 1086.72 361.512 1084.73 361.512ZM1085.15 375.016C1082.01 375.016 1080.12 373.8 1080.12 371.944C1080.12 370.92 1080.64 369.896 1081.88 369C1082.65 369.192 1083.48 369.288 1084.12 369.288H1087.13C1089.44 369.288 1090.68 369.832 1090.68 371.432C1090.68 373.256 1088.48 375.016 1085.15 375.016ZM1104.79 369.416C1109.05 369.416 1112.85 366.088 1112.85 360.328C1112.85 354.536 1109.05 351.176 1104.79 351.176C1100.53 351.176 1096.73 354.536 1096.73 360.328C1096.73 366.088 1100.53 369.416 1104.79 369.416ZM1104.79 366.984C1101.78 366.984 1099.77 364.328 1099.77 360.328C1099.77 356.328 1101.78 353.608 1104.79 353.608C1107.8 353.608 1109.85 356.328 1109.85 360.328C1109.85 364.328 1107.8 366.984 1104.79 366.984ZM1134.56 361.48L1136.74 359.656C1134.76 357.288 1131.84 354.408 1129.57 352.552L1127.49 354.376C1129.76 356.232 1132.48 358.952 1134.56 361.48ZM1159.2 346.184C1158.69 345.064 1157.67 343.4 1156.74 342.088L1154.88 343.016C1155.75 344.328 1156.8 346.12 1157.25 347.304L1159.2 346.184ZM1160.23 362.248V367.528H1154.79V362.248H1160.23ZM1162.34 360.264H1152.74V371.016H1154.79V369.512H1162.34V360.264ZM1152.71 357.896H1162.44V356.008H1152.71V357.896ZM1152.71 353.736H1162.47V351.848H1152.71V353.736ZM1151.36 349.608H1163.46V347.656H1151.36V349.608ZM1180.36 344.904H1164.13V347.208H1173.09V367.88C1173.09 368.488 1172.84 368.68 1172.2 368.712C1171.49 368.776 1169.16 368.776 1166.69 368.68C1167.11 369.32 1167.56 370.472 1167.65 371.112C1170.76 371.112 1172.74 371.08 1173.89 370.664C1175.04 370.312 1175.43 369.48 1175.43 367.88V347.208H1180.36V344.904ZM1209.28 358.12V367.24H1200.52V356.104H1210.6V345.128H1208.04V353.768H1200.52V342.248H1197.96V353.768H1190.63V345.16H1188.16V356.104H1197.96V367.24H1189.32V358.12H1186.76V369.576H1209.28V371.4H1211.84V358.12H1209.28ZM1373.54 356.84C1373.54 363.08 1376.07 368.168 1379.91 372.072L1381.83 371.08C1378.15 367.272 1375.88 362.536 1375.88 356.84C1375.88 351.144 1378.15 346.408 1381.83 342.6L1379.91 341.608C1376.07 345.512 1373.54 350.6 1373.54 356.84ZM1389.89 347.848H1411.78V352.104H1414.21V345.576H1402.92C1402.47 344.488 1401.6 343.08 1400.77 341.992L1398.5 342.76C1399.11 343.592 1399.72 344.648 1400.16 345.576H1387.56V352.104H1389.89V347.848ZM1414.53 359.368H1402.12V358.184C1404.9 356.712 1407.75 354.568 1409.76 352.488L1408.13 351.272L1407.62 351.4H1392.42V353.64H1405.22C1403.62 355.048 1401.51 356.488 1399.65 357.384V359.368H1387.17V361.64H1399.65V368.488C1399.65 368.936 1399.49 369.064 1398.88 369.096C1398.34 369.128 1396.29 369.128 1394.12 369.064C1394.53 369.672 1395.01 370.728 1395.2 371.4C1397.86 371.4 1399.52 371.368 1400.64 370.984C1401.76 370.632 1402.12 369.928 1402.12 368.52V361.64H1414.53V359.368ZM1446.08 348.68H1443.49V346.408H1446.08V348.68ZM1446.08 352.648H1443.49V350.28H1446.08V352.648ZM1435.43 350.28H1437.89V352.648H1435.43V350.28ZM1435.43 346.408H1437.89V348.68H1435.43V346.408ZM1441.89 350.28V352.648H1439.49V350.28H1441.89ZM1439.49 348.68V346.408H1441.89V348.68H1439.49ZM1448 344.712H1443.75V342.28H1441.8V344.712H1439.49V342.28H1437.54V344.712H1433.57V354.344H1448V344.712ZM1448.8 356.008H1432.87V357.8H1448.8V356.008ZM1436.55 360.968H1445.03V363.656H1436.55V360.968ZM1447.24 365.256V359.336H1434.44V365.256H1447.24ZM1430.5 356.04H1422.12V353.928H1430.5V356.04ZM1423.56 345.192H1429.03V347.24H1425.54V352.2H1423.56V345.192ZM1426.95 352.2V348.744H1429.03V352.2H1426.95ZM1431.01 343.368H1421.6V352.2H1420.29V356.776H1421.86V362.024C1421.86 364.552 1421.67 367.848 1420 370.28C1420.48 370.504 1421.32 371.176 1421.67 371.56C1423.56 368.84 1423.88 364.936 1423.88 362.024V357.736H1428.9V363.144C1426.95 364.168 1425.09 365.128 1423.72 365.704L1424.61 367.4C1425.96 366.632 1427.4 365.736 1428.9 364.808V369C1428.9 369.32 1428.8 369.448 1428.45 369.448C1428.13 369.448 1427.01 369.448 1425.76 369.416C1426.02 369.96 1426.34 370.728 1426.44 371.24C1428.23 371.24 1429.32 371.208 1430.02 370.92C1430.72 370.568 1430.92 370.056 1430.92 369.032V356.776H1432.39V352.2H1431.01V343.368ZM1428.64 361.544C1427.91 360.808 1426.44 359.752 1425.16 358.952L1424.07 360.04C1425.25 360.84 1426.69 362.088 1427.46 362.856L1428.64 361.544ZM1444.26 368.968C1444.74 368.072 1445.32 366.952 1445.86 365.96L1443.68 365.32C1443.36 366.344 1442.79 367.848 1442.31 368.968H1439.24C1438.92 367.944 1438.34 366.504 1437.86 365.416L1436 365.96C1436.42 366.856 1436.84 368.008 1437.12 368.968H1432.55V370.824H1449.09V368.968H1444.26ZM1470.56 361.48L1472.74 359.656C1470.76 357.288 1467.84 354.408 1465.57 352.552L1463.49 354.376C1465.76 356.232 1468.48 358.952 1470.56 361.48ZM1491.14 363.944H1498.44V362.056H1491.14V363.944ZM1495.91 349.736H1493.7V345.64H1495.91V349.736ZM1499.75 357.16C1499.68 357.192 1499.56 357.192 1499.27 357.192H1498.02C1497.6 357.192 1497.54 357.16 1497.54 356.712V351.784H1499.75V357.16ZM1489.83 367.144V359.368C1490.21 359.56 1490.69 360.04 1490.98 360.328C1493.22 358.6 1493.73 356.168 1493.73 354.184V351.784H1496V356.744C1496 358.408 1496.42 358.792 1497.86 358.792H1499.52H1499.75V367.144H1489.83ZM1492.23 351.784V354.152C1492.23 355.784 1491.88 357.736 1489.83 359.304V351.784H1492.23ZM1487.3 345.64H1491.78V349.736H1487.91V371.368H1489.83V369.096H1499.75V370.92H1501.73V349.736H1497.86V345.64H1502.37V343.592H1487.3V345.64ZM1507.75 368.904C1506.34 368.904 1506.05 368.68 1506.05 367.528V356.328H1515.36V343.688H1503.59V345.96H1513.06V354.056H1503.72V367.496C1503.72 370.376 1504.61 371.144 1507.49 371.144H1512.74C1515.56 371.144 1516.26 369.672 1516.55 364.488C1515.88 364.328 1514.92 363.912 1514.37 363.496C1514.21 368.104 1513.96 368.904 1512.55 368.904H1507.75ZM1538.44 347.144C1537.51 348.488 1536.26 349.96 1535.08 351.048H1526.63C1527.84 349.832 1529.06 348.52 1530.08 347.144H1538.44ZM1544.42 358.824H1536.77V353.256H1544.42V358.824ZM1527.11 353.256H1534.47V358.824H1527.11V353.256ZM1531.24 368.744C1527.78 368.744 1527.11 368.264 1527.11 366.376V361.096H1544.42V362.504H1546.76V351.048H1537.96C1539.46 349.512 1540.93 347.688 1542.05 345.992L1540.48 344.872L1540 345H1531.59C1532 344.296 1532.39 343.624 1532.77 342.92L1530.66 342.12C1528.45 346.408 1524.55 350.312 1520.68 352.68C1521.06 353.224 1521.76 354.376 1521.96 354.92C1522.92 354.248 1523.88 353.544 1524.8 352.712V366.344C1524.8 370.024 1526.37 370.92 1531.4 370.92H1543.68C1548.48 370.92 1549.44 369.48 1549.99 364.52C1549.28 364.392 1548.32 364.04 1547.72 363.656C1547.33 367.848 1546.85 368.744 1543.68 368.744H1531.24ZM1562.66 356.84C1562.66 350.6 1560.13 345.512 1556.29 341.608L1554.37 342.6C1558.05 346.408 1560.32 351.144 1560.32 356.84C1560.32 362.536 1558.05 367.272 1554.37 371.08L1556.29 372.072C1560.13 368.168 1562.66 363.08 1562.66 356.84Z" fill="black"/>
<path d="M1229.35 351.624H1219.56V354.504H1229.35V352.904C1230.05 353.576 1231.04 354.696 1231.43 355.336C1235.46 353.192 1236.32 349.576 1236.32 346.472V346.44H1240.16V349.864C1240.16 353.032 1240.74 354.376 1243.75 354.376H1245.41C1246.05 354.376 1246.76 354.344 1247.2 354.12C1247.08 353.256 1247.01 351.944 1246.95 350.984C1246.53 351.112 1245.8 351.208 1245.38 351.208H1244.1C1243.72 351.208 1243.65 350.824 1243.65 349.896V342.92H1232.87V346.344C1232.87 348.424 1232.48 350.664 1229.35 352.392V351.624ZM1230.69 347.176H1224.61L1226.72 346.024C1226.21 344.84 1225.25 343.08 1224.39 341.768L1221.41 343.144C1222.12 344.36 1222.98 345.96 1223.49 347.176H1218.18V350.184H1230.69V347.176ZM1229.41 355.912H1219.56V358.792H1229.41V355.912ZM1241.7 359.272C1240.84 361.032 1239.68 362.536 1238.28 363.816C1236.71 362.504 1235.43 361 1234.5 359.272H1241.7ZM1226.08 366.952H1222.82V363.368H1226.08V366.952ZM1244.13 355.56L1243.52 355.72H1230.18V359.272H1233.12L1231.04 360.008C1232.2 362.28 1233.6 364.296 1235.27 365.96C1233.51 366.984 1231.52 367.72 1229.38 368.232V360.328H1219.59V371.368H1222.82V370.024H1229.38V368.872C1229.96 369.768 1230.53 370.92 1230.85 371.72C1233.6 370.984 1236.1 369.896 1238.31 368.488C1240.42 369.896 1242.88 370.952 1245.7 371.624C1246.21 370.6 1247.2 368.968 1248.04 368.2C1245.57 367.72 1243.36 366.92 1241.41 365.896C1243.72 363.56 1245.48 360.52 1246.53 356.584L1244.13 355.56ZM1265.86 347.176H1259.14L1261.22 346.024C1260.71 344.84 1259.75 343.08 1258.88 341.768L1255.91 343.144C1256.61 344.36 1257.48 345.96 1257.99 347.176H1252.39V350.184H1265.86V347.176ZM1264.52 354.504V351.624H1253.8V354.504H1264.52ZM1264.48 355.912H1253.8V358.792H1264.48V355.912ZM1261.28 363.368V366.952H1257.12V363.368H1261.28ZM1264.58 360.328H1253.92V371.368H1257.12V370.024H1264.58V360.328ZM1281.22 352.52H1275.3V342.472H1271.33V352.52H1265.73V356.264H1271.33V371.784H1275.3V356.264H1281.22V352.52ZM1291.91 362.536C1290.37 364.552 1287.81 366.728 1285.41 368.04C1286.37 368.616 1287.94 369.864 1288.74 370.536C1291.04 368.968 1293.89 366.344 1295.78 363.912L1291.91 362.536ZM1309.12 360.808C1309.8 361.64 1310.34 362.408 1310.76 363.048L1313.99 361.096C1312.64 359.144 1310.02 356.168 1307.75 353.896L1304.58 355.496C1305.25 356.2 1305.96 356.968 1306.63 357.768L1297.6 358.376C1301.32 356.552 1305.03 354.344 1308.42 351.784L1305.6 349.256C1304.52 350.152 1303.4 350.984 1302.21 351.816L1296.68 352.104C1298.56 351.016 1300.39 349.8 1302.12 348.52L1300.39 347.4C1303.75 346.664 1306.92 345.768 1309.57 344.712L1306.76 341.704C1301.86 343.784 1293.8 345.448 1286.44 346.44C1286.85 347.24 1287.36 348.712 1287.49 349.672C1290.44 349.288 1293.54 348.808 1296.61 348.2C1294.5 349.8 1292.36 351.016 1291.49 351.432C1290.4 352.008 1289.67 352.36 1288.8 352.488C1289.19 353.48 1289.73 355.272 1289.92 356.008C1290.66 355.688 1291.75 355.528 1296.87 355.176C1294.66 356.488 1292.8 357.416 1291.81 357.832C1289.86 358.792 1288.64 359.272 1287.36 359.464C1287.78 360.392 1288.32 362.216 1288.48 362.888C1289.6 362.472 1291.04 362.248 1298.31 361.672V367.592C1298.31 367.976 1298.15 368.072 1297.6 368.104C1297.06 368.104 1295.11 368.104 1293.48 368.04C1294.02 369.032 1294.66 370.632 1294.85 371.752C1297.22 371.752 1299.04 371.72 1300.39 371.144C1301.8 370.536 1302.18 369.576 1302.18 367.688V361.352L1309.12 360.808ZM1303.88 364.136C1306.34 365.928 1309.41 368.52 1310.79 370.216L1314.15 367.976C1312.61 366.216 1309.44 363.752 1306.98 362.12L1303.88 364.136ZM1331.04 360.392C1330.76 358.664 1329.8 356.04 1328.8 353.992L1326.24 354.984C1326.6 355.688 1326.92 356.52 1327.2 357.352L1323.97 357.864C1326.44 354.984 1328.8 351.496 1330.6 348.04L1327.49 346.088C1326.79 347.688 1325.89 349.384 1325.03 350.888L1322.92 351.048C1324.55 348.68 1326.15 345.8 1327.36 343.08L1323.97 341.608C1322.82 345 1320.9 348.552 1320.23 349.448C1319.59 350.408 1319.04 351.016 1318.44 351.176C1318.82 352.136 1319.4 353.8 1319.59 354.536C1320.04 354.312 1320.71 354.152 1323.11 353.864C1322.28 355.08 1321.57 355.944 1321.16 356.392C1320.2 357.608 1319.52 358.28 1318.66 358.504C1319.11 359.464 1319.68 361.192 1319.84 361.896C1320.58 361.544 1321.64 361.192 1328.04 360.072C1328.16 360.616 1328.26 361.064 1328.32 361.512L1331.04 360.392ZM1319.68 362.92C1319.49 365.48 1319.14 368.328 1318.4 370.184C1319.17 370.376 1320.61 370.824 1321.22 371.208C1321.86 369.288 1322.4 366.248 1322.63 363.4L1319.68 362.92ZM1323.3 363.336C1323.62 365.416 1323.91 368.136 1323.97 369.928L1326.82 369.224C1326.72 367.4 1326.34 364.744 1325.96 362.632L1323.3 363.336ZM1326.79 362.568C1327.36 364.232 1328 366.44 1328.26 367.88L1330.95 366.888C1330.63 365.512 1329.96 363.368 1329.35 361.704L1326.79 362.568ZM1343.46 367.848C1342.92 367.848 1342.85 367.72 1342.85 366.728V356.808L1344.1 356.648C1344.52 357.576 1344.87 358.408 1345.09 359.144L1348.42 357.608C1347.65 355.4 1345.73 352.136 1344.1 349.672L1341.03 351.048C1341.48 351.848 1341.99 352.68 1342.5 353.544L1335.75 354.184C1336.77 352.648 1337.83 350.952 1338.79 349.128H1348.1V345.576H1340.58C1341 344.648 1341.38 343.752 1341.76 342.824L1337.64 341.736C1337.22 343.048 1336.71 344.328 1336.2 345.576H1330.76V349.128H1334.56C1333.76 350.728 1333.03 351.944 1332.64 352.456C1331.84 353.768 1331.2 354.536 1330.44 354.76C1330.88 355.784 1331.52 357.672 1331.72 358.408C1332.16 358.216 1332.68 358.056 1333.89 357.896C1333.7 363.24 1333.06 366.76 1328.84 368.936C1329.64 369.576 1330.72 370.984 1331.14 371.912C1336.36 369.064 1337.22 364.264 1337.48 357.416L1339.3 357.192V366.728C1339.3 370.088 1339.94 371.208 1342.85 371.208H1345.16C1347.56 371.208 1348.42 369.832 1348.74 364.904C1347.78 364.68 1346.28 364.072 1345.54 363.496C1345.44 367.24 1345.35 367.848 1344.77 367.848H1343.46Z" fill="#932F2F"/>
<circle cx="1051" cy="25" r="25" fill="#8D887C"/>
<path d="M963.72 92.544H957.16V85.92H963.72V92.544ZM966.056 83.808H954.92V94.624H966.056V83.808ZM950.248 86.688C949.928 90.784 949.608 92.448 949.192 92.928C948.936 93.216 948.68 93.248 948.264 93.248C947.784 93.248 946.696 93.216 945.448 93.12C945.8 93.696 946.024 94.56 946.088 95.232C947.368 95.296 948.584 95.296 949.256 95.232C950.024 95.168 950.568 94.976 951.08 94.4C951.848 93.568 952.168 91.296 952.52 85.568C952.552 85.28 952.584 84.608 952.584 84.608H946.024C946.152 83.552 946.216 82.432 946.28 81.28H943.944C943.912 82.432 943.848 83.584 943.752 84.608H938.888V86.688H943.464C942.856 90.208 941.512 92.864 938.28 94.528C938.792 94.88 939.464 95.744 939.752 96.256C943.528 94.24 945.096 90.976 945.768 86.688H950.248ZM946.856 101.696C945.096 104.064 941.992 106.208 939.016 107.584C939.592 107.936 940.552 108.736 941 109.184C943.88 107.616 947.176 105.152 949.192 102.464L946.856 101.696ZM966.536 100.608V98.464H954.152V95.392H951.72V98.464H939.048V100.608H951.72V110.496H954.152V100.608H966.536ZM956.488 103.072C959.624 104.8 963.464 107.52 965.288 109.312L967.08 107.68C965.16 105.888 961.224 103.296 958.12 101.632L956.488 103.072ZM982.824 98.144C982.28 97.28 979.912 93.728 979.016 92.544V90.336H982.664V88.128H979.016V81.216H976.84V88.128H972.36V90.336H976.584C975.656 94.688 973.704 99.68 971.72 102.336C972.104 102.88 972.68 103.776 972.936 104.384C974.408 102.304 975.784 98.944 976.84 95.456V110.4H979.016V95.36C979.944 96.928 981.064 98.88 981.512 99.904L982.824 98.144ZM992.776 103.36V101.024H997.288V103.36H992.776ZM986.376 101.024H990.6V103.36H986.376V101.024ZM990.6 97.12V99.328H986.376V97.12H990.6ZM997.288 97.12V99.328H992.776V97.12H997.288ZM989.192 89.472H994.344V91.616H989.192V89.472ZM989.192 85.632H994.344V87.712H989.192V85.632ZM1001.54 103.36H999.496V95.328H992.776V93.44H1001.19V91.616H996.584V89.472H1000.07V87.712H996.584V85.632H1000.55V83.84H996.584V81.216H994.344V83.84H989.192V81.216H987.016V83.84H983.336V85.632H987.016V87.712H983.976V89.472H987.016V91.616H982.6V93.44H990.6V95.328H984.2V103.36H982.024V105.216H984.2V110.336H986.376V105.216H997.288V107.904C997.288 108.288 997.16 108.416 996.776 108.448C996.328 108.448 994.952 108.48 993.416 108.416C993.672 108.96 993.992 109.792 994.088 110.336C996.2 110.336 997.576 110.336 998.408 110.016C999.272 109.664 999.496 109.056 999.496 107.936V105.216H1001.54V103.36Z" fill="black"/>
<path d="M1016.2 108.448C1021.99 108.448 1025.35 105.216 1025.35 97.344V84.288H1020.81V97.76C1020.81 102.688 1019.02 104.352 1016.2 104.352C1013.45 104.352 1011.72 102.688 1011.72 97.76V84.288H1006.98V97.344C1006.98 105.216 1010.44 108.448 1016.2 108.448ZM1037.14 108.448C1041.81 108.448 1044.27 105.92 1044.27 102.784C1044.27 99.456 1041.65 98.272 1039.28 97.376C1037.39 96.672 1035.73 96.192 1035.73 94.88C1035.73 93.856 1036.5 93.152 1038.13 93.152C1039.44 93.152 1040.69 93.76 1041.97 94.688L1044.08 91.84C1042.61 90.72 1040.59 89.632 1038 89.632C1033.9 89.632 1031.31 91.904 1031.31 95.104C1031.31 98.112 1033.84 99.488 1036.11 100.352C1038 101.088 1039.86 101.696 1039.86 103.04C1039.86 104.16 1039.06 104.928 1037.26 104.928C1035.6 104.928 1034.06 104.224 1032.46 102.976L1030.32 105.92C1032.11 107.392 1034.74 108.448 1037.14 108.448ZM1057.27 108.448C1059.48 108.448 1061.75 107.68 1063.51 106.464L1061.91 103.584C1060.63 104.384 1059.35 104.832 1057.88 104.832C1055.22 104.832 1053.3 103.296 1052.92 100.352H1063.96C1064.08 99.936 1064.18 99.072 1064.18 98.176C1064.18 93.248 1061.62 89.632 1056.69 89.632C1052.44 89.632 1048.34 93.248 1048.34 99.04C1048.34 104.96 1052.24 108.448 1057.27 108.448ZM1052.85 97.216C1053.2 94.624 1054.87 93.28 1056.76 93.28C1059.06 93.28 1060.15 94.816 1060.15 97.216H1052.85ZM1069.65 108H1074.36V97.312C1075.35 94.72 1077.05 93.792 1078.45 93.792C1079.19 93.792 1079.7 93.888 1080.34 94.08L1081.14 90.016C1080.6 89.792 1080.02 89.632 1079.03 89.632C1077.17 89.632 1075.25 90.912 1073.94 93.248H1073.85L1073.49 90.08H1069.65V108ZM1110.36 108.448C1111.48 108.448 1112.25 108.256 1112.76 108.032L1112.18 104.544C1111.9 104.608 1111.74 104.608 1111.54 104.608C1111.13 104.608 1110.62 104.256 1110.62 103.168V82.464H1105.94V102.976C1105.94 106.304 1107.06 108.448 1110.36 108.448ZM1094.84 108H1099.54V93.792H1102.9V90.08H1099.54V88.544C1099.54 86.56 1100.31 85.728 1101.72 85.728C1102.3 85.728 1103 85.856 1103.61 86.112L1104.47 82.624C1103.67 82.336 1102.46 82.016 1101.08 82.016C1096.57 82.016 1094.84 84.896 1094.84 88.64V90.112L1092.44 90.304V93.792H1094.84V108ZM1125.1 108.448C1129.58 108.448 1133.71 104.992 1133.71 99.04C1133.71 93.088 1129.58 89.632 1125.1 89.632C1120.62 89.632 1116.49 93.088 1116.49 99.04C1116.49 104.992 1120.62 108.448 1125.1 108.448ZM1125.1 104.608C1122.67 104.608 1121.29 102.432 1121.29 99.04C1121.29 95.68 1122.67 93.472 1125.1 93.472C1127.53 93.472 1128.91 95.68 1128.91 99.04C1128.91 102.432 1127.53 104.608 1125.1 104.608ZM1141.97 108H1147.34L1149.17 100.192C1149.55 98.528 1149.81 96.864 1150.16 94.976H1150.32C1150.67 96.864 1150.96 98.496 1151.34 100.192L1153.23 108H1158.77L1163.18 90.08H1158.83L1156.88 98.912C1156.56 100.672 1156.3 102.368 1155.98 104.16H1155.82C1155.44 102.368 1155.12 100.672 1154.7 98.912L1152.46 90.08H1148.3L1146.13 98.912C1145.68 100.64 1145.36 102.368 1145.01 104.16H1144.88C1144.56 102.368 1144.33 100.672 1143.98 98.912L1142.03 90.08H1137.33L1141.97 108Z" fill="#932F2F"/>
<circle cx="694.5" cy="25" r="25" fill="#8D887C"/>
<path d="M555.72 92.544H549.16V85.92H555.72V92.544ZM558.056 83.808H546.92V94.624H558.056V83.808ZM542.248 86.688C541.928 90.784 541.608 92.448 541.192 92.928C540.936 93.216 540.68 93.248 540.264 93.248C539.784 93.248 538.696 93.216 537.448 93.12C537.8 93.696 538.024 94.56 538.088 95.232C539.368 95.296 540.584 95.296 541.256 95.232C542.024 95.168 542.568 94.976 543.08 94.4C543.848 93.568 544.168 91.296 544.52 85.568C544.552 85.28 544.584 84.608 544.584 84.608H538.024C538.152 83.552 538.216 82.432 538.28 81.28H535.944C535.912 82.432 535.848 83.584 535.752 84.608H530.888V86.688H535.464C534.856 90.208 533.512 92.864 530.28 94.528C530.792 94.88 531.464 95.744 531.752 96.256C535.528 94.24 537.096 90.976 537.768 86.688H542.248ZM538.856 101.696C537.096 104.064 533.992 106.208 531.016 107.584C531.592 107.936 532.552 108.736 533 109.184C535.88 107.616 539.176 105.152 541.192 102.464L538.856 101.696ZM558.536 100.608V98.464H546.152V95.392H543.72V98.464H531.048V100.608H543.72V110.496H546.152V100.608H558.536ZM548.488 103.072C551.624 104.8 555.464 107.52 557.288 109.312L559.08 107.68C557.16 105.888 553.224 103.296 550.12 101.632L548.488 103.072ZM574.824 98.144C574.28 97.28 571.912 93.728 571.016 92.544V90.336H574.664V88.128H571.016V81.216H568.84V88.128H564.36V90.336H568.584C567.656 94.688 565.704 99.68 563.72 102.336C564.104 102.88 564.68 103.776 564.936 104.384C566.408 102.304 567.784 98.944 568.84 95.456V110.4H571.016V95.36C571.944 96.928 573.064 98.88 573.512 99.904L574.824 98.144ZM584.776 103.36V101.024H589.288V103.36H584.776ZM578.376 101.024H582.6V103.36H578.376V101.024ZM582.6 97.12V99.328H578.376V97.12H582.6ZM589.288 97.12V99.328H584.776V97.12H589.288ZM581.192 89.472H586.344V91.616H581.192V89.472ZM581.192 85.632H586.344V87.712H581.192V85.632ZM593.544 103.36H591.496V95.328H584.776V93.44H593.192V91.616H588.584V89.472H592.072V87.712H588.584V85.632H592.552V83.84H588.584V81.216H586.344V83.84H581.192V81.216H579.016V83.84H575.336V85.632H579.016V87.712H575.976V89.472H579.016V91.616H574.6V93.44H582.6V95.328H576.2V103.36H574.024V105.216H576.2V110.336H578.376V105.216H589.288V107.904C589.288 108.288 589.16 108.416 588.776 108.448C588.328 108.448 586.952 108.48 585.416 108.416C585.672 108.96 585.992 109.792 586.088 110.336C588.2 110.336 589.576 110.336 590.408 110.016C591.272 109.664 591.496 109.056 591.496 107.936V105.216H593.544V103.36Z" fill="black"/>
<path d="M599.112 108H603.848V98.4H612.264V94.432H603.848V88.256H613.704V84.288H599.112V108ZM623.703 108.448C626.135 108.448 627.863 107.264 629.399 105.44H629.527L629.879 108H633.719V90.08H629.015V102.176C627.799 103.776 626.839 104.416 625.367 104.416C623.639 104.416 622.871 103.424 622.871 100.672V90.08H618.167V101.28C618.167 105.76 619.831 108.448 623.703 108.448ZM640.334 108H645.038V95.68C646.35 94.368 647.278 93.664 648.75 93.664C650.51 93.664 651.278 94.624 651.278 97.408V108H655.982V96.832C655.982 92.32 654.318 89.632 650.446 89.632C648.014 89.632 646.19 90.912 644.622 92.448H644.526L644.174 90.08H640.334V108ZM670.05 108.448C672.034 108.448 674.21 107.776 675.938 106.272L674.05 103.168C673.058 104 671.842 104.608 670.562 104.608C668.002 104.608 666.114 102.432 666.114 99.04C666.114 95.68 667.97 93.472 670.722 93.472C671.714 93.472 672.546 93.888 673.442 94.656L675.682 91.616C674.37 90.496 672.674 89.632 670.466 89.632C665.602 89.632 661.314 93.088 661.314 99.04C661.314 104.992 665.09 108.448 670.05 108.448ZM687.094 108.448C688.662 108.448 689.91 108.096 690.87 107.776L690.102 104.352C689.622 104.544 688.918 104.736 688.342 104.736C686.742 104.736 685.91 103.776 685.91 101.728V93.792H690.326V90.08H685.91V85.248H682.006L681.462 90.08L678.678 90.304V93.792H681.206V101.728C681.206 105.728 682.838 108.448 687.094 108.448ZM695.572 108H700.276V90.08H695.572V108ZM697.94 87.2C699.54 87.2 700.66 86.176 700.66 84.608C700.66 83.072 699.54 82.048 697.94 82.048C696.308 82.048 695.188 83.072 695.188 84.608C695.188 86.176 696.308 87.2 697.94 87.2ZM714.379 108.448C718.859 108.448 722.987 104.992 722.987 99.04C722.987 93.088 718.859 89.632 714.379 89.632C709.899 89.632 705.771 93.088 705.771 99.04C705.771 104.992 709.899 108.448 714.379 108.448ZM714.379 104.608C711.947 104.608 710.571 102.432 710.571 99.04C710.571 95.68 711.947 93.472 714.379 93.472C716.811 93.472 718.187 95.68 718.187 99.04C718.187 102.432 716.811 104.608 714.379 104.608ZM728.522 108H733.226V95.68C734.538 94.368 735.466 93.664 736.938 93.664C738.698 93.664 739.466 94.624 739.466 97.408V108H744.17V96.832C744.17 92.32 742.506 89.632 738.634 89.632C736.202 89.632 734.378 90.912 732.81 92.448H732.714L732.362 90.08H728.522V108ZM755.038 108.448C757.086 108.448 758.878 107.424 760.446 106.08H760.574L760.894 108H764.734V97.536C764.734 92.352 762.398 89.632 757.854 89.632C755.038 89.632 752.478 90.688 750.366 92L752.062 95.104C753.726 94.144 755.326 93.408 756.99 93.408C759.198 93.408 759.966 94.752 760.062 96.512C752.83 97.28 749.726 99.296 749.726 103.136C749.726 106.176 751.838 108.448 755.038 108.448ZM756.574 104.768C755.198 104.768 754.206 104.16 754.206 102.752C754.206 101.152 755.678 99.936 760.062 99.392V103.008C758.91 104.128 757.918 104.768 756.574 104.768ZM775.544 108.448C776.664 108.448 777.432 108.256 777.976 108.032L777.4 104.544C777.08 104.608 776.952 104.608 776.76 104.608C776.312 104.608 775.832 104.256 775.832 103.168V82.464H771.128V102.976C771.128 106.304 772.28 108.448 775.544 108.448ZM792.056 108H796.312V98.112C796.312 95.872 795.928 92.576 795.704 90.336H795.832L797.72 95.904L801.4 105.856H804.12L807.768 95.904L809.688 90.336H809.848C809.592 92.576 809.24 95.872 809.24 98.112V108H813.56V84.288H808.312L804.376 95.392C803.864 96.864 803.448 98.432 802.936 99.936H802.776C802.296 98.432 801.848 96.864 801.336 95.392L797.304 84.288H792.056V108ZM825 108.448C827.048 108.448 828.84 107.424 830.408 106.08H830.536L830.856 108H834.696V97.536C834.696 92.352 832.36 89.632 827.816 89.632C825 89.632 822.44 90.688 820.328 92L822.024 95.104C823.688 94.144 825.288 93.408 826.952 93.408C829.16 93.408 829.928 94.752 830.024 96.512C822.792 97.28 819.688 99.296 819.688 103.136C819.688 106.176 821.8 108.448 825 108.448ZM826.536 104.768C825.16 104.768 824.168 104.16 824.168 102.752C824.168 101.152 825.64 99.936 830.024 99.392V103.008C828.872 104.128 827.88 104.768 826.536 104.768ZM841.091 114.88H845.795V109.44L845.635 106.496C847.01 107.744 848.515 108.448 850.083 108.448C854.019 108.448 857.699 104.896 857.699 98.752C857.699 93.248 855.075 89.632 850.659 89.632C848.739 89.632 846.883 90.656 845.379 91.936H845.283L844.931 90.08H841.091V114.88ZM849.027 104.576C848.067 104.576 846.915 104.224 845.795 103.232V95.36C847.01 94.112 848.099 93.504 849.315 93.504C851.779 93.504 852.867 95.392 852.867 98.816C852.867 102.72 851.203 104.576 849.027 104.576Z" fill="#932F2F"/>
<circle cx="1428.5" cy="25" r="25" fill="#8D887C"/>
<path d="M1334.45 81.536H1332.27V94.688C1332.27 95.104 1332.14 95.232 1331.66 95.232C1331.22 95.264 1329.68 95.296 1327.92 95.232C1328.24 95.808 1328.59 96.576 1328.69 97.184C1330.93 97.184 1332.37 97.184 1333.3 96.832C1334.16 96.48 1334.45 95.968 1334.45 94.72V81.536ZM1328.4 82.848H1326.26V93.28H1328.4V82.848ZM1314.96 90.56H1309.39V96.512H1311.31V92.16H1314.96V97.344H1317.04V92.16H1320.98V94.464C1320.98 94.72 1320.91 94.816 1320.62 94.816C1320.34 94.848 1319.54 94.848 1318.48 94.816C1318.7 95.264 1319.02 95.84 1319.12 96.352C1320.53 96.352 1321.52 96.352 1322.13 96.064C1322.83 95.776 1322.99 95.36 1322.99 94.464V90.56H1317.04V88.864H1323.79V87.136H1317.04V85.184H1322.67V83.52H1317.04V81.216H1314.96V83.52H1311.95C1312.21 82.944 1312.46 82.368 1312.66 81.792L1310.77 81.344C1310.22 83.104 1309.33 84.896 1308.24 86.176C1308.69 86.4 1309.55 86.816 1309.94 87.104C1310.35 86.56 1310.77 85.888 1311.15 85.184H1314.96V87.136H1307.76V88.864H1314.96V90.56ZM1332.85 100.832C1331.44 101.856 1329.1 103.2 1327.18 104.16C1325.94 103.104 1324.98 101.92 1324.21 100.544H1336.14V98.56H1323.95C1323.6 97.76 1323.12 96.768 1322.61 95.968L1320.4 96.608C1320.72 97.184 1321.1 97.92 1321.39 98.56H1307.89V100.544H1319.02C1315.92 102.432 1311.38 103.936 1307.34 104.672C1307.79 105.12 1308.4 105.92 1308.66 106.432C1310.45 106.048 1312.34 105.504 1314.19 104.832V106.272C1314.19 107.712 1313.36 108.384 1312.85 108.704C1313.14 109.056 1313.52 109.792 1313.68 110.336V110.496C1314.29 110.08 1315.28 109.824 1323.7 107.84C1323.66 107.424 1323.7 106.592 1323.76 106.016L1316.43 107.584V103.936C1318.58 102.976 1320.5 101.888 1322.03 100.704C1324.5 105.664 1328.88 108.768 1335.25 110.048C1335.5 109.44 1336.11 108.576 1336.56 108.128C1333.49 107.616 1330.86 106.688 1328.78 105.344C1330.67 104.448 1332.88 103.232 1334.58 102.048L1332.85 100.832ZM1348.78 81.344C1346.99 86.208 1344.05 90.976 1340.88 94.048C1341.33 94.56 1342.03 95.872 1342.26 96.416C1343.34 95.296 1344.43 94.016 1345.42 92.608V110.4H1347.79V88.928C1349.04 86.72 1350.19 84.384 1351.06 82.08L1348.78 81.344ZM1370.26 88.832V86.56H1356.94C1357.58 85.152 1358.19 83.712 1358.7 82.24L1356.43 81.632C1354.86 86.304 1352.27 90.912 1349.39 93.888C1349.94 94.272 1350.86 95.072 1351.25 95.488C1352.85 93.696 1354.42 91.392 1355.79 88.832H1358V110.432H1360.4V102.688H1369.97V100.448H1360.4V95.616H1369.52V93.408H1360.4V88.832H1370.26Z" fill="black"/>
<path d="M1378.35 108H1384.14L1386.74 96.288C1387.12 94.432 1387.44 92.608 1387.76 90.784H1387.89C1388.18 92.608 1388.53 94.432 1388.91 96.288L1391.57 108H1397.46L1401.84 84.288H1397.36L1395.47 95.872C1395.12 98.336 1394.77 100.864 1394.42 103.424H1394.26C1393.74 100.864 1393.26 98.304 1392.75 95.872L1390.03 84.288H1385.97L1383.22 95.872C1382.7 98.336 1382.19 100.864 1381.71 103.424H1381.58C1381.23 100.864 1380.85 98.368 1380.5 95.872L1378.61 84.288H1373.81L1378.35 108ZM1406.61 108H1411.31V90.08H1406.61V108ZM1408.98 87.2C1410.58 87.2 1411.7 86.176 1411.7 84.608C1411.7 83.072 1410.58 82.048 1408.98 82.048C1407.35 82.048 1406.23 83.072 1406.23 84.608C1406.23 86.176 1407.35 87.2 1408.98 87.2ZM1417.93 108H1422.63V97.312C1423.62 94.72 1425.32 93.792 1426.73 93.792C1427.46 93.792 1427.98 93.888 1428.62 94.08L1429.42 90.016C1428.87 89.792 1428.3 89.632 1427.3 89.632C1425.45 89.632 1423.53 90.912 1422.22 93.248H1422.12L1421.77 90.08H1417.93V108ZM1440.9 108.448C1443.11 108.448 1445.38 107.68 1447.14 106.464L1445.54 103.584C1444.26 104.384 1442.98 104.832 1441.51 104.832C1438.85 104.832 1436.93 103.296 1436.55 100.352H1447.59C1447.71 99.936 1447.81 99.072 1447.81 98.176C1447.81 93.248 1445.25 89.632 1440.32 89.632C1436.07 89.632 1431.97 93.248 1431.97 99.04C1431.97 104.96 1435.87 108.448 1440.9 108.448ZM1436.48 97.216C1436.83 94.624 1438.5 93.28 1440.39 93.28C1442.69 93.28 1443.78 94.816 1443.78 97.216H1436.48ZM1453.93 108H1458.63V93.792H1461.99V90.08H1458.63V88.544C1458.63 86.56 1459.4 85.728 1460.81 85.728C1461.38 85.728 1462.09 85.856 1462.7 86.112L1463.56 82.624C1462.76 82.336 1461.54 82.016 1460.17 82.016C1455.66 82.016 1453.93 84.896 1453.93 88.64V90.112L1451.53 90.304V93.792H1453.93V108ZM1466.63 108H1471.34V97.312C1472.33 94.72 1474.03 93.792 1475.43 93.792C1476.17 93.792 1476.68 93.888 1477.32 94.08L1478.12 90.016C1477.58 89.792 1477 89.632 1476.01 89.632C1474.15 89.632 1472.23 90.912 1470.92 93.248H1470.83L1470.47 90.08H1466.63V108ZM1485.59 108.448C1487.64 108.448 1489.43 107.424 1491 106.08H1491.12L1491.44 108H1495.28V97.536C1495.28 92.352 1492.95 89.632 1488.4 89.632C1485.59 89.632 1483.03 90.688 1480.92 92L1482.61 95.104C1484.28 94.144 1485.88 93.408 1487.54 93.408C1489.75 93.408 1490.52 94.752 1490.61 96.512C1483.38 97.28 1480.28 99.296 1480.28 103.136C1480.28 106.176 1482.39 108.448 1485.59 108.448ZM1487.12 104.768C1485.75 104.768 1484.76 104.16 1484.76 102.752C1484.76 101.152 1486.23 99.936 1490.61 99.392V103.008C1489.46 104.128 1488.47 104.768 1487.12 104.768ZM1501.68 108H1506.38V95.68C1507.63 94.336 1508.78 93.664 1509.81 93.664C1511.5 93.664 1512.33 94.624 1512.33 97.408V108H1517.01V95.68C1518.29 94.336 1519.44 93.664 1520.46 93.664C1522.16 93.664 1522.96 94.624 1522.96 97.408V108H1527.66V96.832C1527.66 92.32 1525.9 89.632 1522.09 89.632C1519.76 89.632 1518.03 91.04 1516.4 92.768C1515.53 90.784 1514.03 89.632 1511.47 89.632C1509.13 89.632 1507.47 90.912 1505.97 92.48H1505.87L1505.52 90.08H1501.68V108ZM1541.93 108.448C1544.14 108.448 1546.41 107.68 1548.17 106.464L1546.57 103.584C1545.29 104.384 1544.01 104.832 1542.54 104.832C1539.88 104.832 1537.96 103.296 1537.58 100.352H1548.62C1548.75 99.936 1548.84 99.072 1548.84 98.176C1548.84 93.248 1546.28 89.632 1541.35 89.632C1537.1 89.632 1533 93.248 1533 99.04C1533 104.96 1536.91 108.448 1541.93 108.448ZM1537.51 97.216C1537.87 94.624 1539.53 93.28 1541.42 93.28C1543.72 93.28 1544.81 94.816 1544.81 97.216H1537.51Z" fill="#932F2F"/>
<circle cx="706" cy="286" r="25" fill="#8D887C"/>
<path d="M634.448 342.536H632.272V355.688C632.272 356.104 632.144 356.232 631.664 356.232C631.216 356.264 629.68 356.296 627.92 356.232C628.24 356.808 628.592 357.576 628.688 358.184C630.928 358.184 632.368 358.184 633.296 357.832C634.16 357.48 634.448 356.968 634.448 355.72V342.536ZM628.4 343.848H626.256V354.28H628.4V343.848ZM614.96 351.56H609.392V357.512H611.312V353.16H614.96V358.344H617.04V353.16H620.976V355.464C620.976 355.72 620.912 355.816 620.624 355.816C620.336 355.848 619.536 355.848 618.48 355.816C618.704 356.264 619.024 356.84 619.12 357.352C620.528 357.352 621.52 357.352 622.128 357.064C622.832 356.776 622.992 356.36 622.992 355.464V351.56H617.04V349.864H623.792V348.136H617.04V346.184H622.672V344.52H617.04V342.216H614.96V344.52H611.952C612.208 343.944 612.464 343.368 612.656 342.792L610.768 342.344C610.224 344.104 609.328 345.896 608.24 347.176C608.688 347.4 609.552 347.816 609.936 348.104C610.352 347.56 610.768 346.888 611.152 346.184H614.96V348.136H607.76V349.864H614.96V351.56ZM632.848 361.832C631.44 362.856 629.104 364.2 627.184 365.16C625.936 364.104 624.976 362.92 624.208 361.544H636.144V359.56H623.952C623.6 358.76 623.12 357.768 622.608 356.968L620.4 357.608C620.72 358.184 621.104 358.92 621.392 359.56H607.888V361.544H619.024C615.92 363.432 611.376 364.936 607.344 365.672C607.792 366.12 608.4 366.92 608.656 367.432C610.448 367.048 612.336 366.504 614.192 365.832V367.272C614.192 368.712 613.36 369.384 612.848 369.704C613.136 370.056 613.52 370.792 613.68 371.336V371.496C614.288 371.08 615.28 370.824 623.696 368.84C623.664 368.424 623.696 367.592 623.76 367.016L616.432 368.584V364.936C618.576 363.976 620.496 362.888 622.032 361.704C624.496 366.664 628.88 369.768 635.248 371.048C635.504 370.44 636.112 369.576 636.56 369.128C633.488 368.616 630.864 367.688 628.784 366.344C630.672 365.448 632.88 364.232 634.576 363.048L632.848 361.832ZM648.784 342.344C646.992 347.208 644.048 351.976 640.88 355.048C641.328 355.56 642.032 356.872 642.256 357.416C643.344 356.296 644.432 355.016 645.424 353.608V371.4H647.792V349.928C649.04 347.72 650.192 345.384 651.056 343.08L648.784 342.344ZM670.256 349.832V347.56H656.944C657.584 346.152 658.192 344.712 658.704 343.24L656.432 342.632C654.864 347.304 652.272 351.912 649.392 354.888C649.936 355.272 650.864 356.072 651.248 356.488C652.848 354.696 654.416 352.392 655.792 349.832H658V371.432H660.4V363.688H669.968V361.448H660.4V356.616H669.52V354.408H660.4V349.832H670.256Z" fill="black"/>
<path d="M676.112 369H680.368V359.112C680.368 356.872 679.984 353.576 679.76 351.336H679.888L681.776 356.904L685.456 366.856H688.176L691.824 356.904L693.744 351.336H693.904C693.648 353.576 693.296 356.872 693.296 359.112V369H697.616V345.288H692.368L688.432 356.392C687.92 357.864 687.504 359.432 686.992 360.936H686.832C686.352 359.432 685.904 357.864 685.392 356.392L681.36 345.288H676.112V369ZM712.129 369.448C716.609 369.448 720.737 365.992 720.737 360.04C720.737 354.088 716.609 350.632 712.129 350.632C707.649 350.632 703.521 354.088 703.521 360.04C703.521 365.992 707.649 369.448 712.129 369.448ZM712.129 365.608C709.697 365.608 708.321 363.432 708.321 360.04C708.321 356.68 709.697 354.472 712.129 354.472C714.561 354.472 715.937 356.68 715.937 360.04C715.937 363.432 714.561 365.608 712.129 365.608ZM733.888 369.448C735.872 369.448 738.048 368.776 739.776 367.272L737.888 364.168C736.896 365 735.68 365.608 734.4 365.608C731.84 365.608 729.952 363.432 729.952 360.04C729.952 356.68 731.808 354.472 734.56 354.472C735.552 354.472 736.384 354.888 737.28 355.656L739.52 352.616C738.208 351.496 736.512 350.632 734.304 350.632C729.44 350.632 725.152 354.088 725.152 360.04C725.152 365.992 728.928 369.448 733.888 369.448ZM744.747 369H749.387V364.456L751.915 361.576L756.267 369H761.355L754.635 358.472L760.779 351.08H755.627L749.515 358.792H749.387V343.464H744.747V369ZM770.472 369.448C772.904 369.448 774.632 368.264 776.168 366.44H776.296L776.648 369H780.488V351.08H775.784V363.176C774.568 364.776 773.608 365.416 772.136 365.416C770.408 365.416 769.64 364.424 769.64 361.672V351.08H764.936V362.28C764.936 366.76 766.6 369.448 770.472 369.448ZM787.103 375.88H791.807V370.44L791.647 367.496C793.023 368.744 794.527 369.448 796.095 369.448C800.031 369.448 803.711 365.896 803.711 359.752C803.711 354.248 801.087 350.632 796.671 350.632C794.751 350.632 792.895 351.656 791.391 352.936H791.295L790.943 351.08H787.103V375.88ZM795.039 365.576C794.079 365.576 792.927 365.224 791.807 364.232V356.36C793.023 355.112 794.111 354.504 795.327 354.504C797.791 354.504 798.879 356.392 798.879 359.816C798.879 363.72 797.215 365.576 795.039 365.576Z" fill="#932F2F"/>
<circle cx="304.5" cy="286" r="25" fill="#8D887C"/>
<path d="M250.448 351.624H240.656V354.504H250.448V352.904C251.152 353.576 252.144 354.696 252.528 355.336C256.56 353.192 257.424 349.576 257.424 346.472V346.44H261.264V349.864C261.264 353.032 261.84 354.376 264.848 354.376H266.512C267.152 354.376 267.856 354.344 268.304 354.12C268.176 353.256 268.112 351.944 268.048 350.984C267.632 351.112 266.896 351.208 266.48 351.208H265.2C264.816 351.208 264.752 350.824 264.752 349.896V342.92H253.968V346.344C253.968 348.424 253.584 350.664 250.448 352.392V351.624ZM251.792 347.176H245.712L247.824 346.024C247.312 344.84 246.352 343.08 245.488 341.768L242.512 343.144C243.216 344.36 244.08 345.96 244.592 347.176H239.28V350.184H251.792V347.176ZM250.512 355.912H240.656V358.792H250.512V355.912ZM262.8 359.272C261.936 361.032 260.784 362.536 259.376 363.816C257.808 362.504 256.528 361 255.6 359.272H262.8ZM247.184 366.952H243.92V363.368H247.184V366.952ZM265.232 355.56L264.624 355.72H251.28V359.272H254.224L252.144 360.008C253.296 362.28 254.704 364.296 256.368 365.96C254.608 366.984 252.624 367.72 250.48 368.232V360.328H240.688V371.368H243.92V370.024H250.48V368.872C251.056 369.768 251.632 370.92 251.952 371.72C254.704 370.984 257.2 369.896 259.408 368.488C261.52 369.896 263.984 370.952 266.8 371.624C267.312 370.6 268.304 368.968 269.136 368.2C266.672 367.72 264.464 366.92 262.512 365.896C264.816 363.56 266.576 360.52 267.632 356.584L265.232 355.56ZM286.96 347.176H280.24L282.32 346.024C281.808 344.84 280.848 343.08 279.984 341.768L277.008 343.144C277.712 344.36 278.576 345.96 279.088 347.176H273.488V350.184H286.96V347.176ZM285.616 354.504V351.624H274.896V354.504H285.616ZM285.584 355.912H274.896V358.792H285.584V355.912ZM282.384 363.368V366.952H278.224V363.368H282.384ZM285.68 360.328H275.024V371.368H278.224V370.024H285.68V360.328ZM302.32 352.52H296.4V342.472H292.432V352.52H286.832V356.264H292.432V371.784H296.4V356.264H302.32V352.52ZM335.216 345.928H323.888L323.984 345.896C323.568 344.68 322.512 342.856 321.648 341.48L318 342.76C318.576 343.72 319.184 344.872 319.632 345.928H307.152V349.64H335.216V345.928ZM324.24 351.88C327.088 353.96 330.64 356.968 332.208 358.952L335.472 356.488C333.712 354.44 330 351.624 327.248 349.736L324.24 351.88ZM314.736 349.928C312.88 352.232 309.776 354.568 306.928 356.008C307.792 356.648 309.232 358.024 309.936 358.792C312.784 357.064 316.24 354.152 318.416 351.336L314.736 349.928ZM325.392 355.432C324.464 357.928 323.056 360.008 321.232 361.736C319.472 360.008 318.096 357.928 317.136 355.592L313.712 356.648C314.928 359.496 316.496 361.96 318.384 364.008C315.248 366.088 311.312 367.464 306.672 368.36C307.408 369.192 308.528 370.888 308.976 371.752C313.68 370.6 317.808 368.968 321.2 366.568C324.432 369 328.432 370.632 333.488 371.592C333.968 370.568 334.96 369 335.792 368.168C331.088 367.464 327.248 366.088 324.176 364.072C326.256 362.024 327.952 359.528 329.232 356.552L325.392 355.432ZM347.344 342.056C345.648 346.76 342.736 351.368 339.696 354.28C340.368 355.208 341.52 357.32 341.936 358.248C342.672 357.48 343.44 356.616 344.176 355.688V371.72H348.08V349.736C349.264 347.592 350.256 345.416 351.12 343.272L347.344 342.056ZM369.712 348.776H366.192V342.248H362.224V348.776H350.032V352.616H362.224V367.144C362.224 367.848 361.936 368.104 361.136 368.104C360.4 368.136 357.584 368.136 355.12 368.04C355.696 369.032 356.368 370.728 356.592 371.816C360.112 371.848 362.512 371.784 364.08 371.176C365.616 370.6 366.192 369.608 366.192 367.144V352.616H369.712V348.776ZM359.248 362.312C358.288 360.392 356.304 357.256 354.864 354.92L351.472 356.488C352.912 358.92 354.8 362.216 355.632 364.168L359.248 362.312Z" fill="#932F2F"/>
<path d="M5.3125 21C2.55108 21 0.3125 23.2386 0.3125 26C0.3125 28.7614 2.55108 31 5.3125 31V21ZM84.9645 284.964C83.0118 286.917 83.0118 290.083 84.9645 292.036L116.784 323.855C118.737 325.808 121.903 325.808 123.855 323.855C125.808 321.903 125.808 318.737 123.855 316.784L95.5711 288.5L123.855 260.216C125.808 258.263 125.808 255.097 123.855 253.145C121.903 251.192 118.737 251.192 116.784 253.145L84.9645 284.964ZM5.3125 31H1475.31V21H5.3125V31ZM1475.31 31C1514.71 31 1544.29 46.7557 1564.17 70.2458C1584.14 93.843 1594.51 125.481 1594.81 157.298C1595.12 189.114 1585.35 220.712 1565.56 244.268C1545.87 267.71 1516.01 283.5 1475.31 283.5V293.5C1518.87 293.5 1551.57 276.477 1573.22 250.7C1594.78 225.038 1605.14 191.011 1604.81 157.202C1604.49 123.394 1593.49 89.407 1571.8 63.7855C1550.03 38.0568 1517.66 21 1475.31 21V31ZM1475.31 283.5C1474.76 283.5 1474.2 283.5 1473.64 283.5C1473.07 283.5 1472.51 283.5 1471.94 283.5C1471.38 283.5 1470.81 283.5 1470.24 283.5C1469.67 283.5 1469.1 283.5 1468.53 283.5C1467.96 283.5 1467.38 283.5 1466.8 283.5C1466.23 283.5 1465.65 283.5 1465.07 283.5C1464.49 283.5 1463.91 283.5 1463.32 283.5C1462.74 283.5 1462.15 283.5 1461.56 283.5C1460.97 283.5 1460.38 283.5 1459.79 283.5C1459.2 283.5 1458.61 283.5 1458.01 283.5C1457.42 283.5 1456.82 283.5 1456.22 283.5C1455.62 283.5 1455.02 283.5 1454.42 283.5C1453.81 283.5 1453.21 283.5 1452.6 283.5C1452 283.5 1451.39 283.5 1450.78 283.5C1450.17 283.5 1449.56 283.5 1448.94 283.5C1448.33 283.5 1447.71 283.5 1447.1 283.5C1446.48 283.5 1445.86 283.5 1445.24 283.5C1444.62 283.5 1444 283.5 1443.37 283.5C1442.75 283.5 1442.12 283.5 1441.49 283.5C1440.87 283.5 1440.24 283.5 1439.6 283.5C1438.97 283.5 1438.34 283.5 1437.7 283.5C1437.07 283.5 1436.43 283.5 1435.79 283.5C1435.15 283.5 1434.51 283.5 1433.87 283.5C1433.23 283.5 1432.59 283.5 1431.94 283.5C1431.29 283.5 1430.65 283.5 1430 283.5C1429.35 283.5 1428.7 283.5 1428.05 283.5C1427.39 283.5 1426.74 283.5 1426.08 283.5C1425.43 283.5 1424.77 283.5 1424.11 283.5C1423.45 283.5 1422.79 283.5 1422.13 283.5C1421.46 283.5 1420.8 283.5 1420.13 283.5C1419.47 283.5 1418.8 283.5 1418.13 283.5C1417.46 283.5 1416.79 283.5 1416.11 283.5C1415.44 283.5 1414.77 283.5 1414.09 283.5C1413.41 283.5 1412.74 283.5 1412.06 283.5C1411.38 283.5 1410.7 283.5 1410.01 283.5C1409.33 283.5 1408.64 283.5 1407.96 283.5C1407.27 283.5 1406.58 283.5 1405.89 283.5C1405.2 283.5 1404.51 283.5 1403.82 283.5C1403.13 283.5 1402.43 283.5 1401.74 283.5C1401.04 283.5 1400.34 283.5 1399.64 283.5C1398.94 283.5 1398.24 283.5 1397.54 283.5C1396.84 283.5 1396.13 283.5 1395.43 283.5C1394.72 283.5 1394.01 283.5 1393.3 283.5C1392.59 283.5 1391.88 283.5 1391.17 283.5C1390.46 283.5 1389.74 283.5 1389.03 283.5C1388.31 283.5 1387.6 283.5 1386.88 283.5C1386.16 283.5 1385.44 283.5 1384.72 283.5C1383.99 283.5 1383.27 283.5 1382.55 283.5C1381.82 283.5 1381.09 283.5 1380.37 283.5C1379.64 283.5 1378.91 283.5 1378.18 283.5C1377.45 283.5 1376.71 283.5 1375.98 283.5C1375.24 283.5 1374.51 283.5 1373.77 283.5C1373.03 283.5 1372.29 283.5 1371.55 283.5C1370.81 283.5 1370.07 283.5 1369.33 283.5C1368.58 283.5 1367.84 283.5 1367.09 283.5C1366.35 283.5 1365.6 283.5 1364.85 283.5C1364.1 283.5 1363.35 283.5 1362.59 283.5C1361.84 283.5 1361.09 283.5 1360.33 283.5C1359.58 283.5 1358.82 283.5 1358.06 283.5C1357.3 283.5 1356.54 283.5 1355.78 283.5C1355.02 283.5 1354.26 283.5 1353.49 283.5C1352.73 283.5 1351.96 283.5 1351.19 283.5C1350.43 283.5 1349.66 283.5 1348.89 283.5C1348.12 283.5 1347.34 283.5 1346.57 283.5C1345.8 283.5 1345.02 283.5 1344.25 283.5C1343.47 283.5 1342.69 283.5 1341.91 283.5C1341.13 283.5 1340.35 283.5 1339.57 283.5C1338.79 283.5 1338.01 283.5 1337.22 283.5C1336.44 283.5 1335.65 283.5 1334.86 283.5C1334.08 283.5 1333.29 283.5 1332.5 283.5C1331.71 283.5 1330.91 283.5 1330.12 283.5C1329.33 283.5 1328.53 283.5 1327.74 283.5C1326.94 283.5 1326.14 283.5 1325.34 283.5C1324.55 283.5 1323.74 283.5 1322.94 283.5C1322.14 283.5 1321.34 283.5 1320.53 283.5C1319.73 283.5 1318.92 283.5 1318.12 283.5C1317.31 283.5 1316.5 283.5 1315.69 283.5C1314.88 283.5 1314.07 283.5 1313.26 283.5C1312.45 283.5 1311.63 283.5 1310.82 283.5C1310 283.5 1309.18 283.5 1308.37 283.5C1307.55 283.5 1306.73 283.5 1305.91 283.5C1305.09 283.5 1304.27 283.5 1303.44 283.5C1302.62 283.5 1301.8 283.5 1300.97 283.5C1300.14 283.5 1299.32 283.5 1298.49 283.5C1297.66 283.5 1296.83 283.5 1296 283.5C1295.17 283.5 1294.34 283.5 1293.5 283.5C1292.67 283.5 1291.83 283.5 1291 283.5C1290.16 283.5 1289.32 283.5 1288.49 283.5C1287.65 283.5 1286.81 283.5 1285.97 283.5C1285.12 283.5 1284.28 283.5 1283.44 283.5C1282.59 283.5 1281.75 283.5 1280.9 283.5C1280.06 283.5 1279.21 283.5 1278.36 283.5C1277.51 283.5 1276.66 283.5 1275.81 283.5C1274.96 283.5 1274.11 283.5 1273.25 283.5C1272.4 283.5 1271.54 283.5 1270.69 283.5C1269.83 283.5 1268.97 283.5 1268.11 283.5C1267.26 283.5 1266.4 283.5 1265.53 283.5C1264.67 283.5 1263.81 283.5 1262.95 283.5C1262.08 283.5 1261.22 283.5 1260.35 283.5C1259.49 283.5 1258.62 283.5 1257.75 283.5C1256.88 283.5 1256.01 283.5 1255.14 283.5C1254.27 283.5 1253.4 283.5 1252.53 283.5C1251.65 283.5 1250.78 283.5 1249.9 283.5C1249.03 283.5 1248.15 283.5 1247.28 283.5C1246.4 283.5 1245.52 283.5 1244.64 283.5C1243.76 283.5 1242.88 283.5 1241.99 283.5C1241.11 283.5 1240.23 283.5 1239.34 283.5C1238.46 283.5 1237.57 283.5 1236.69 283.5C1235.8 283.5 1234.91 283.5 1234.02 283.5C1233.13 283.5 1232.24 283.5 1231.35 283.5C1230.46 283.5 1229.57 283.5 1228.67 283.5C1227.78 283.5 1226.89 283.5 1225.99 283.5C1225.09 283.5 1224.2 283.5 1223.3 283.5C1222.4 283.5 1221.5 283.5 1220.6 283.5C1219.7 283.5 1218.8 283.5 1217.9 283.5C1217 283.5 1216.09 283.5 1215.19 283.5C1214.28 283.5 1213.38 283.5 1212.47 283.5C1211.57 283.5 1210.66 283.5 1209.75 283.5C1208.84 283.5 1207.93 283.5 1207.02 283.5C1206.11 283.5 1205.2 283.5 1204.28 283.5C1203.37 283.5 1202.46 283.5 1201.54 283.5C1200.63 283.5 1199.71 283.5 1198.79 283.5C1197.88 283.5 1196.96 283.5 1196.04 283.5C1195.12 283.5 1194.2 283.5 1193.28 283.5C1192.36 283.5 1191.44 283.5 1190.51 283.5C1189.59 283.5 1188.66 283.5 1187.74 283.5C1186.81 283.5 1185.89 283.5 1184.96 283.5C1184.03 283.5 1183.11 283.5 1182.18 283.5C1181.25 283.5 1180.32 283.5 1179.39 283.5C1178.45 283.5 1177.52 283.5 1176.59 283.5C1175.66 283.5 1174.72 283.5 1173.79 283.5C1172.85 283.5 1171.92 283.5 1170.98 283.5C1170.04 283.5 1169.1 283.5 1168.17 283.5C1167.23 283.5 1166.29 283.5 1165.35 283.5C1164.41 283.5 1163.46 283.5 1162.52 283.5C1161.58 283.5 1160.63 283.5 1159.69 283.5C1158.75 283.5 1157.8 283.5 1156.85 283.5C1155.91 283.5 1154.96 283.5 1154.01 283.5C1153.06 283.5 1152.12 283.5 1151.17 283.5C1150.22 283.5 1149.26 283.5 1148.31 283.5C1147.36 283.5 1146.41 283.5 1145.45 283.5C1144.5 283.5 1143.55 283.5 1142.59 283.5C1141.64 283.5 1140.68 283.5 1139.72 283.5C1138.77 283.5 1137.81 283.5 1136.85 283.5C1135.89 283.5 1134.93 283.5 1133.97 283.5C1133.01 283.5 1132.05 283.5 1131.09 283.5C1130.12 283.5 1129.16 283.5 1128.2 283.5C1127.23 283.5 1126.27 283.5 1125.3 283.5C1124.34 283.5 1123.37 283.5 1122.4 283.5C1121.44 283.5 1120.47 283.5 1119.5 283.5C1118.53 283.5 1117.56 283.5 1116.59 283.5C1115.62 283.5 1114.65 283.5 1113.67 283.5C1112.7 283.5 1111.73 283.5 1110.76 283.5C1109.78 283.5 1108.81 283.5 1107.83 283.5C1106.86 283.5 1105.88 283.5 1104.9 283.5C1103.93 283.5 1102.95 283.5 1101.97 283.5C1100.99 283.5 1100.01 283.5 1099.03 283.5C1098.05 283.5 1097.07 283.5 1096.09 283.5C1095.11 283.5 1094.12 283.5 1093.14 283.5C1092.16 283.5 1091.17 283.5 1090.19 283.5C1089.2 283.5 1088.22 283.5 1087.23 283.5C1086.25 283.5 1085.26 283.5 1084.27 283.5C1083.28 283.5 1082.29 283.5 1081.31 283.5C1080.32 283.5 1079.33 283.5 1078.34 283.5C1077.35 283.5 1076.35 283.5 1075.36 283.5C1074.37 283.5 1073.38 283.5 1072.38 283.5C1071.39 283.5 1070.4 283.5 1069.4 283.5C1068.41 283.5 1067.41 283.5 1066.41 283.5C1065.42 283.5 1064.42 283.5 1063.42 283.5C1062.43 283.5 1061.43 283.5 1060.43 283.5C1059.43 283.5 1058.43 283.5 1057.43 283.5C1056.43 283.5 1055.43 283.5 1054.43 283.5C1053.42 283.5 1052.42 283.5 1051.42 283.5C1050.42 283.5 1049.41 283.5 1048.41 283.5C1047.4 283.5 1046.4 283.5 1045.39 283.5C1044.39 283.5 1043.38 283.5 1042.37 283.5C1041.37 283.5 1040.36 283.5 1039.35 283.5C1038.34 283.5 1037.33 283.5 1036.32 283.5C1035.31 283.5 1034.3 283.5 1033.29 283.5C1032.28 283.5 1031.27 283.5 1030.26 283.5C1029.25 283.5 1028.24 283.5 1027.22 283.5C1026.21 283.5 1025.2 283.5 1024.18 283.5C1023.17 283.5 1022.15 283.5 1021.14 283.5C1020.12 283.5 1019.11 283.5 1018.09 283.5C1017.07 283.5 1016.06 283.5 1015.04 283.5C1014.02 283.5 1013 283.5 1011.98 283.5C1010.96 283.5 1009.94 283.5 1008.92 283.5C1007.9 283.5 1006.88 283.5 1005.86 283.5C1004.84 283.5 1003.82 283.5 1002.8 283.5C1001.78 283.5 1000.75 283.5 999.729 283.5C998.706 283.5 997.682 283.5 996.658 283.5C995.633 283.5 994.608 283.5 993.583 283.5C992.558 283.5 991.532 283.5 990.505 283.5C989.479 283.5 988.452 283.5 987.424 283.5C986.397 283.5 985.369 283.5 984.341 283.5C983.312 283.5 982.283 283.5 981.254 283.5C980.224 283.5 979.195 283.5 978.164 283.5C977.134 283.5 976.103 283.5 975.072 283.5C974.04 283.5 973.008 283.5 971.976 283.5C970.944 283.5 969.911 283.5 968.878 283.5C967.845 283.5 966.811 283.5 965.777 283.5C964.743 283.5 963.708 283.5 962.673 283.5C961.638 283.5 960.603 283.5 959.567 283.5C958.531 283.5 957.494 283.5 956.458 283.5C955.421 283.5 954.384 283.5 953.346 283.5C952.308 283.5 951.27 283.5 950.232 283.5C949.193 283.5 948.154 283.5 947.115 283.5C946.076 283.5 945.036 283.5 943.996 283.5C942.956 283.5 941.915 283.5 940.874 283.5C939.833 283.5 938.792 283.5 937.75 283.5C936.709 283.5 935.667 283.5 934.624 283.5C933.582 283.5 932.539 283.5 931.496 283.5C930.452 283.5 929.409 283.5 928.365 283.5C927.321 283.5 926.277 283.5 925.232 283.5C924.187 283.5 923.142 283.5 922.097 283.5C921.051 283.5 920.006 283.5 918.96 283.5C917.913 283.5 916.867 283.5 915.82 283.5C914.773 283.5 913.726 283.5 912.679 283.5C911.632 283.5 910.584 283.5 909.536 283.5C908.488 283.5 907.439 283.5 906.39 283.5C905.342 283.5 904.293 283.5 903.243 283.5C902.194 283.5 901.144 283.5 900.094 283.5C899.044 283.5 897.994 283.5 896.944 283.5C895.893 283.5 894.842 283.5 893.791 283.5C892.74 283.5 891.689 283.5 890.637 283.5C889.585 283.5 888.533 283.5 887.481 283.5C886.429 283.5 885.376 283.5 884.324 283.5C883.271 283.5 882.218 283.5 881.164 283.5C880.111 283.5 879.058 283.5 878.004 283.5C876.95 283.5 875.896 283.5 874.842 283.5C873.787 283.5 872.733 283.5 871.678 283.5C870.623 283.5 869.568 283.5 868.513 283.5C867.458 283.5 866.402 283.5 865.347 283.5C864.291 283.5 863.235 283.5 862.179 283.5C861.123 283.5 860.067 283.5 859.01 283.5C857.954 283.5 856.897 283.5 855.84 283.5C854.783 283.5 853.726 283.5 852.669 283.5C851.611 283.5 850.554 283.5 849.496 283.5C848.438 283.5 847.38 283.5 846.322 283.5C845.264 283.5 844.206 283.5 843.148 283.5C842.089 283.5 841.031 283.5 839.972 283.5C838.913 283.5 837.854 283.5 836.795 283.5C835.736 283.5 834.677 283.5 833.618 283.5C832.558 283.5 831.499 283.5 830.439 283.5C829.38 283.5 828.32 283.5 827.26 283.5C826.2 283.5 825.14 283.5 824.08 283.5C823.02 283.5 821.959 283.5 820.899 283.5C819.839 283.5 818.778 283.5 817.718 283.5C816.657 283.5 815.596 283.5 814.535 283.5C813.474 283.5 812.413 283.5 811.352 283.5C810.291 283.5 809.23 283.5 808.169 283.5C807.108 283.5 806.046 283.5 804.985 283.5C803.924 283.5 802.862 283.5 801.801 283.5C800.739 283.5 799.677 283.5 798.616 283.5C797.554 283.5 796.492 283.5 795.43 283.5C794.369 283.5 793.307 283.5 792.245 283.5C791.183 283.5 790.121 283.5 789.059 283.5C787.997 283.5 786.935 283.5 785.872 283.5C784.81 283.5 783.748 283.5 782.686 283.5C781.624 283.5 780.562 283.5 779.499 283.5C778.437 283.5 777.375 283.5 776.312 283.5C775.25 283.5 774.188 283.5 773.126 283.5C772.063 283.5 771.001 283.5 769.939 283.5C768.876 283.5 767.814 283.5 766.752 283.5C765.689 283.5 764.627 283.5 763.565 283.5C762.502 283.5 761.44 283.5 760.378 283.5C759.316 283.5 758.253 283.5 757.191 283.5C756.129 283.5 755.067 283.5 754.005 283.5C752.942 283.5 751.88 283.5 750.818 283.5C749.756 283.5 748.694 283.5 747.632 283.5C746.57 283.5 745.508 283.5 744.446 283.5C743.384 283.5 742.323 283.5 741.261 283.5C740.199 283.5 739.137 283.5 738.076 283.5C737.014 283.5 735.953 283.5 734.891 283.5C733.83 283.5 732.768 283.5 731.707 283.5C730.646 283.5 729.584 283.5 728.523 283.5C727.462 283.5 726.401 283.5 725.34 283.5C724.279 283.5 723.218 283.5 722.158 283.5C721.097 283.5 720.036 283.5 718.976 283.5C717.915 283.5 716.855 283.5 715.794 283.5C714.734 283.5 713.674 283.5 712.614 283.5C711.554 283.5 710.494 283.5 709.434 283.5C708.375 283.5 707.315 283.5 706.256 283.5C705.196 283.5 704.137 283.5 703.078 283.5C702.018 283.5 700.959 283.5 699.9 283.5C698.842 283.5 697.783 283.5 696.724 283.5C695.666 283.5 694.607 283.5 693.549 283.5C692.491 283.5 691.433 283.5 690.375 283.5C689.317 283.5 688.26 283.5 687.202 283.5C686.145 283.5 685.087 283.5 684.03 283.5C682.973 283.5 681.916 283.5 680.859 283.5C679.803 283.5 678.746 283.5 677.69 283.5C676.634 283.5 675.578 283.5 674.522 283.5C673.466 283.5 672.41 283.5 671.355 283.5C670.299 283.5 669.244 283.5 668.189 283.5C667.134 283.5 666.08 283.5 665.025 283.5C663.971 283.5 662.916 283.5 661.862 283.5C660.808 283.5 659.754 283.5 658.701 283.5C657.647 283.5 656.594 283.5 655.541 283.5C654.488 283.5 653.435 283.5 652.383 283.5C651.331 283.5 650.278 283.5 649.226 283.5C648.174 283.5 647.123 283.5 646.071 283.5C645.02 283.5 643.969 283.5 642.918 283.5C641.867 283.5 640.817 283.5 639.767 283.5C638.716 283.5 637.666 283.5 636.617 283.5C635.567 283.5 634.518 283.5 633.469 283.5C632.42 283.5 631.371 283.5 630.323 283.5C629.274 283.5 628.226 283.5 627.179 283.5C626.131 283.5 625.084 283.5 624.037 283.5C622.99 283.5 621.943 283.5 620.896 283.5C619.85 283.5 618.804 283.5 617.758 283.5C616.713 283.5 615.667 283.5 614.622 283.5C613.577 283.5 612.533 283.5 611.488 283.5C610.444 283.5 609.4 283.5 608.357 283.5C607.313 283.5 606.27 283.5 605.227 283.5C604.184 283.5 603.142 283.5 602.1 283.5C601.058 283.5 600.016 283.5 598.975 283.5C597.933 283.5 596.893 283.5 595.852 283.5C594.812 283.5 593.772 283.5 592.732 283.5C591.692 283.5 590.653 283.5 589.614 283.5C588.575 283.5 587.537 283.5 586.499 283.5C585.461 283.5 584.423 283.5 583.386 283.5C582.349 283.5 581.312 283.5 580.276 283.5C579.24 283.5 578.204 283.5 577.168 283.5C576.133 283.5 575.098 283.5 574.063 283.5C573.029 283.5 571.995 283.5 570.961 283.5C569.927 283.5 568.894 283.5 567.862 283.5C566.829 283.5 565.797 283.5 564.765 283.5C563.733 283.5 562.702 283.5 561.671 283.5C560.64 283.5 559.61 283.5 558.58 283.5C557.55 283.5 556.521 283.5 555.492 283.5C554.463 283.5 553.435 283.5 552.407 283.5C551.379 283.5 550.352 283.5 549.325 283.5C548.298 283.5 547.271 283.5 546.246 283.5C545.22 283.5 544.194 283.5 543.17 283.5C542.145 283.5 541.121 283.5 540.097 283.5C539.073 283.5 538.05 283.5 537.027 283.5C536.004 283.5 534.982 283.5 533.961 283.5C532.939 283.5 531.918 283.5 530.898 283.5C529.877 283.5 528.857 283.5 527.838 283.5C526.818 283.5 525.799 283.5 524.781 283.5C523.763 283.5 522.745 283.5 521.728 283.5C520.711 283.5 519.694 283.5 518.678 283.5C517.662 283.5 516.647 283.5 515.632 283.5C514.617 283.5 513.603 283.5 512.59 283.5C511.576 283.5 510.563 283.5 509.55 283.5C508.538 283.5 507.526 283.5 506.515 283.5C505.504 283.5 504.493 283.5 503.483 283.5C502.473 283.5 501.464 283.5 500.455 283.5C499.446 283.5 498.438 283.5 497.431 283.5C496.423 283.5 495.416 283.5 494.41 283.5C493.404 283.5 492.398 283.5 491.393 283.5C490.388 283.5 489.384 283.5 488.381 283.5C487.377 283.5 486.374 283.5 485.372 283.5C484.369 283.5 483.368 283.5 482.367 283.5C481.366 283.5 480.365 283.5 479.366 283.5C478.366 283.5 477.367 283.5 476.369 283.5C475.371 283.5 474.373 283.5 473.376 283.5C472.379 283.5 471.383 283.5 470.387 283.5C469.392 283.5 468.397 283.5 467.403 283.5C466.409 283.5 465.415 283.5 464.423 283.5C463.43 283.5 462.438 283.5 461.447 283.5C460.455 283.5 459.465 283.5 458.475 283.5C457.485 283.5 456.496 283.5 455.508 283.5C454.519 283.5 453.532 283.5 452.545 283.5C451.558 283.5 450.572 283.5 449.586 283.5C448.601 283.5 447.616 283.5 446.632 283.5C445.649 283.5 444.665 283.5 443.683 283.5C442.701 283.5 441.719 283.5 440.738 283.5C439.757 283.5 438.777 283.5 437.798 283.5C436.819 283.5 435.84 283.5 434.862 283.5C433.885 283.5 432.908 283.5 431.932 283.5C430.955 283.5 429.98 283.5 429.005 283.5C428.031 283.5 427.057 283.5 426.084 283.5C425.111 283.5 424.139 283.5 423.168 283.5C422.196 283.5 421.226 283.5 420.256 283.5C419.286 283.5 418.317 283.5 417.349 283.5C416.381 283.5 415.414 283.5 414.448 283.5C413.481 283.5 412.516 283.5 411.551 283.5C410.586 283.5 409.622 283.5 408.659 283.5C407.696 283.5 406.734 283.5 405.773 283.5C404.812 283.5 403.851 283.5 402.892 283.5C401.932 283.5 400.973 283.5 400.015 283.5C399.058 283.5 398.101 283.5 397.145 283.5C396.188 283.5 395.233 283.5 394.279 283.5C393.324 283.5 392.371 283.5 391.419 283.5C390.466 283.5 389.514 283.5 388.564 283.5C387.613 283.5 386.663 283.5 385.714 283.5C384.765 283.5 383.817 283.5 382.87 283.5C381.923 283.5 380.977 283.5 380.031 283.5C379.086 283.5 378.142 283.5 377.198 283.5C376.255 283.5 375.312 283.5 374.371 283.5C373.429 283.5 372.488 283.5 371.549 283.5C370.609 283.5 369.67 283.5 368.733 283.5C367.795 283.5 366.858 283.5 365.922 283.5C364.986 283.5 364.051 283.5 363.117 283.5C362.183 283.5 361.25 283.5 360.318 283.5C359.386 283.5 358.455 283.5 357.525 283.5C356.595 283.5 355.666 283.5 354.738 283.5C353.81 283.5 352.883 283.5 351.957 283.5C351.031 283.5 350.106 283.5 349.182 283.5C348.258 283.5 347.334 283.5 346.412 283.5C345.49 283.5 344.569 283.5 343.649 283.5C342.729 283.5 341.81 283.5 340.892 283.5C339.974 283.5 339.057 283.5 338.141 283.5C337.225 283.5 336.31 283.5 335.396 283.5C334.482 283.5 333.57 283.5 332.658 283.5C331.746 283.5 330.835 283.5 329.926 283.5C329.016 283.5 328.107 283.5 327.2 283.5C326.292 283.5 325.386 283.5 324.48 283.5C323.575 283.5 322.67 283.5 321.767 283.5C320.864 283.5 319.961 283.5 319.06 283.5C318.159 283.5 317.259 283.5 316.36 283.5C315.461 283.5 314.563 283.5 313.667 283.5C312.77 283.5 311.874 283.5 310.979 283.5C310.085 283.5 309.191 283.5 308.299 283.5C307.407 283.5 306.515 283.5 305.625 283.5C304.735 283.5 303.846 283.5 302.958 283.5C302.07 283.5 301.184 283.5 300.298 283.5C299.412 283.5 298.528 283.5 297.645 283.5C296.761 283.5 295.879 283.5 294.998 283.5C294.117 283.5 293.237 283.5 292.358 283.5C291.48 283.5 290.602 283.5 289.726 283.5C288.849 283.5 287.974 283.5 287.1 283.5C286.226 283.5 285.353 283.5 284.481 283.5C283.609 283.5 282.739 283.5 281.869 283.5C281 283.5 280.132 283.5 279.265 283.5C278.398 283.5 277.532 283.5 276.667 283.5C275.803 283.5 274.939 283.5 274.077 283.5C273.215 283.5 272.354 283.5 271.494 283.5C270.634 283.5 269.776 283.5 268.918 283.5C268.061 283.5 267.205 283.5 266.35 283.5C265.495 283.5 264.642 283.5 263.789 283.5C262.937 283.5 262.085 283.5 261.235 283.5C260.386 283.5 259.537 283.5 258.689 283.5C257.842 283.5 256.996 283.5 256.151 283.5C255.306 283.5 254.462 283.5 253.62 283.5C252.777 283.5 251.936 283.5 251.096 283.5C250.256 283.5 249.418 283.5 248.58 283.5C247.743 283.5 246.907 283.5 246.072 283.5C245.238 283.5 244.404 283.5 243.572 283.5C242.74 283.5 241.909 283.5 241.079 283.5C240.25 283.5 239.421 283.5 238.594 283.5C237.767 283.5 236.942 283.5 236.117 283.5C235.293 283.5 234.47 283.5 233.648 283.5C232.827 283.5 232.006 283.5 231.187 283.5C230.368 283.5 229.55 283.5 228.734 283.5C227.918 283.5 227.102 283.5 226.289 283.5C225.475 283.5 224.663 283.5 223.852 283.5C223.041 283.5 222.231 283.5 221.423 283.5C220.614 283.5 219.808 283.5 219.002 283.5C218.196 283.5 217.392 283.5 216.589 283.5C215.787 283.5 214.985 283.5 214.185 283.5C213.385 283.5 212.586 283.5 211.789 283.5C210.992 283.5 210.196 283.5 209.401 283.5C208.607 283.5 207.814 283.5 207.022 283.5C206.23 283.5 205.44 283.5 204.651 283.5C203.862 283.5 203.075 283.5 202.289 283.5C201.503 283.5 200.718 283.5 199.935 283.5C199.151 283.5 198.37 283.5 197.589 283.5C196.809 283.5 196.03 283.5 195.252 283.5C194.475 283.5 193.699 283.5 192.924 283.5C192.15 283.5 191.377 283.5 190.605 283.5C189.833 283.5 189.063 283.5 188.294 283.5C187.525 283.5 186.758 283.5 185.992 283.5C185.226 283.5 184.462 283.5 183.699 283.5C182.936 283.5 182.175 283.5 181.415 283.5C180.655 283.5 179.896 283.5 179.139 283.5C178.382 283.5 177.627 283.5 176.873 283.5C176.119 283.5 175.367 283.5 174.616 283.5C173.865 283.5 173.115 283.5 172.367 283.5C171.619 283.5 170.873 283.5 170.128 283.5C169.383 283.5 168.639 283.5 167.898 283.5C167.156 283.5 166.415 283.5 165.677 283.5C164.938 283.5 164.2 283.5 163.465 283.5C162.729 283.5 161.995 283.5 161.262 283.5C160.529 283.5 159.798 283.5 159.069 283.5C158.339 283.5 157.611 283.5 156.885 283.5C156.158 283.5 155.434 283.5 154.71 283.5C153.987 283.5 153.265 283.5 152.545 283.5C151.825 283.5 151.107 283.5 150.39 283.5C149.673 283.5 148.957 283.5 148.243 283.5C147.53 283.5 146.817 283.5 146.107 283.5C145.396 283.5 144.687 283.5 143.98 283.5C143.272 283.5 142.567 283.5 141.862 283.5C141.158 283.5 140.456 283.5 139.755 283.5C139.054 283.5 138.355 283.5 137.657 283.5C136.959 283.5 136.263 283.5 135.569 283.5C134.874 283.5 134.182 283.5 133.49 283.5C132.799 283.5 132.11 283.5 131.422 283.5C130.734 283.5 130.048 283.5 129.363 283.5C128.679 283.5 127.996 283.5 127.315 283.5C126.634 283.5 125.954 283.5 125.276 283.5C124.598 283.5 123.922 283.5 123.248 283.5C122.573 283.5 121.9 283.5 121.229 283.5C120.558 283.5 119.889 283.5 119.221 283.5C118.553 283.5 117.887 283.5 117.223 283.5C116.558 283.5 115.896 283.5 115.235 283.5C114.574 283.5 113.914 283.5 113.257 283.5C112.599 283.5 111.944 283.5 111.29 283.5C110.635 283.5 109.983 283.5 109.332 283.5C108.682 283.5 108.033 283.5 107.386 283.5C106.739 283.5 106.093 283.5 105.45 283.5C104.806 283.5 104.164 283.5 103.524 283.5C102.884 283.5 102.245 283.5 101.609 283.5C100.972 283.5 100.337 283.5 99.7038 283.5C99.0707 283.5 98.4394 283.5 97.8098 283.5C97.1802 283.5 96.5524 283.5 95.9263 283.5C95.3003 283.5 94.6761 283.5 94.0536 283.5C93.4311 283.5 92.8105 283.5 92.1916 283.5C91.5727 283.5 90.9557 283.5 90.3404 283.5C89.7251 283.5 89.1117 283.5 88.5 283.5V293.5C89.1117 293.5 89.7251 293.5 90.3404 293.5C90.9557 293.5 91.5727 293.5 92.1916 293.5C92.8105 293.5 93.4311 293.5 94.0536 293.5C94.6761 293.5 95.3003 293.5 95.9263 293.5C96.5524 293.5 97.1802 293.5 97.8098 293.5C98.4394 293.5 99.0707 293.5 99.7038 293.5C100.337 293.5 100.972 293.5 101.609 293.5C102.245 293.5 102.884 293.5 103.524 293.5C104.164 293.5 104.806 293.5 105.45 293.5C106.093 293.5 106.739 293.5 107.386 293.5C108.033 293.5 108.682 293.5 109.332 293.5C109.983 293.5 110.635 293.5 111.29 293.5C111.944 293.5 112.599 293.5 113.257 293.5C113.914 293.5 114.574 293.5 115.235 293.5C115.896 293.5 116.558 293.5 117.223 293.5C117.887 293.5 118.553 293.5 119.221 293.5C119.889 293.5 120.558 293.5 121.229 293.5C121.9 293.5 122.573 293.5 123.248 293.5C123.922 293.5 124.598 293.5 125.276 293.5C125.954 293.5 126.634 293.5 127.315 293.5C127.996 293.5 128.679 293.5 129.363 293.5C130.048 293.5 130.734 293.5 131.422 293.5C132.11 293.5 132.799 293.5 133.49 293.5C134.182 293.5 134.874 293.5 135.569 293.5C136.263 293.5 136.959 293.5 137.657 293.5C138.355 293.5 139.054 293.5 139.755 293.5C140.456 293.5 141.158 293.5 141.862 293.5C142.567 293.5 143.272 293.5 143.98 293.5C144.687 293.5 145.396 293.5 146.107 293.5C146.817 293.5 147.53 293.5 148.243 293.5C148.957 293.5 149.673 293.5 150.39 293.5C151.107 293.5 151.825 293.5 152.545 293.5C153.265 293.5 153.987 293.5 154.71 293.5C155.434 293.5 156.158 293.5 156.885 293.5C157.611 293.5 158.339 293.5 159.069 293.5C159.798 293.5 160.529 293.5 161.262 293.5C161.995 293.5 162.729 293.5 163.465 293.5C164.2 293.5 164.938 293.5 165.677 293.5C166.415 293.5 167.156 293.5 167.898 293.5C168.639 293.5 169.383 293.5 170.128 293.5C170.873 293.5 171.619 293.5 172.367 293.5C173.115 293.5 173.865 293.5 174.616 293.5C175.367 293.5 176.119 293.5 176.873 293.5C177.627 293.5 178.382 293.5 179.139 293.5C179.896 293.5 180.655 293.5 181.415 293.5C182.175 293.5 182.936 293.5 183.699 293.5C184.462 293.5 185.226 293.5 185.992 293.5C186.758 293.5 187.525 293.5 188.294 293.5C189.063 293.5 189.833 293.5 190.605 293.5C191.377 293.5 192.15 293.5 192.924 293.5C193.699 293.5 194.475 293.5 195.252 293.5C196.03 293.5 196.809 293.5 197.589 293.5C198.37 293.5 199.151 293.5 199.935 293.5C200.718 293.5 201.503 293.5 202.289 293.5C203.075 293.5 203.862 293.5 204.651 293.5C205.44 293.5 206.23 293.5 207.022 293.5C207.814 293.5 208.607 293.5 209.401 293.5C210.196 293.5 210.992 293.5 211.789 293.5C212.586 293.5 213.385 293.5 214.185 293.5C214.985 293.5 215.787 293.5 216.589 293.5C217.392 293.5 218.196 293.5 219.002 293.5C219.808 293.5 220.614 293.5 221.423 293.5C222.231 293.5 223.041 293.5 223.852 293.5C224.663 293.5 225.475 293.5 226.289 293.5C227.102 293.5 227.918 293.5 228.734 293.5C229.55 293.5 230.368 293.5 231.187 293.5C232.006 293.5 232.827 293.5 233.648 293.5C234.47 293.5 235.293 293.5 236.117 293.5C236.942 293.5 237.767 293.5 238.594 293.5C239.421 293.5 240.25 293.5 241.079 293.5C241.909 293.5 242.74 293.5 243.572 293.5C244.404 293.5 245.238 293.5 246.072 293.5C246.907 293.5 247.743 293.5 248.58 293.5C249.418 293.5 250.256 293.5 251.096 293.5C251.936 293.5 252.777 293.5 253.62 293.5C254.462 293.5 255.306 293.5 256.151 293.5C256.996 293.5 257.842 293.5 258.689 293.5C259.537 293.5 260.386 293.5 261.235 293.5C262.085 293.5 262.937 293.5 263.789 293.5C264.642 293.5 265.495 293.5 266.35 293.5C267.205 293.5 268.061 293.5 268.918 293.5C269.776 293.5 270.634 293.5 271.494 293.5C272.354 293.5 273.215 293.5 274.077 293.5C274.939 293.5 275.803 293.5 276.667 293.5C277.532 293.5 278.398 293.5 279.265 293.5C280.132 293.5 281 293.5 281.869 293.5C282.739 293.5 283.609 293.5 284.481 293.5C285.353 293.5 286.226 293.5 287.1 293.5C287.974 293.5 288.849 293.5 289.726 293.5C290.602 293.5 291.48 293.5 292.358 293.5C293.237 293.5 294.117 293.5 294.998 293.5C295.879 293.5 296.761 293.5 297.645 293.5C298.528 293.5 299.412 293.5 300.298 293.5C301.184 293.5 302.07 293.5 302.958 293.5C303.846 293.5 304.735 293.5 305.625 293.5C306.515 293.5 307.407 293.5 308.299 293.5C309.191 293.5 310.085 293.5 310.979 293.5C311.874 293.5 312.77 293.5 313.667 293.5C314.563 293.5 315.461 293.5 316.36 293.5C317.259 293.5 318.159 293.5 319.06 293.5C319.961 293.5 320.864 293.5 321.767 293.5C322.67 293.5 323.575 293.5 324.48 293.5C325.386 293.5 326.292 293.5 327.2 293.5C328.107 293.5 329.016 293.5 329.926 293.5C330.835 293.5 331.746 293.5 332.658 293.5C333.57 293.5 334.482 293.5 335.396 293.5C336.31 293.5 337.225 293.5 338.141 293.5C339.057 293.5 339.974 293.5 340.892 293.5C341.81 293.5 342.729 293.5 343.649 293.5C344.569 293.5 345.49 293.5 346.412 293.5C347.334 293.5 348.258 293.5 349.182 293.5C350.106 293.5 351.031 293.5 351.957 293.5C352.883 293.5 353.81 293.5 354.738 293.5C355.666 293.5 356.595 293.5 357.525 293.5C358.455 293.5 359.386 293.5 360.318 293.5C361.25 293.5 362.183 293.5 363.117 293.5C364.051 293.5 364.986 293.5 365.922 293.5C366.858 293.5 367.795 293.5 368.733 293.5C369.67 293.5 370.609 293.5 371.549 293.5C372.488 293.5 373.429 293.5 374.371 293.5C375.312 293.5 376.255 293.5 377.198 293.5C378.142 293.5 379.086 293.5 380.031 293.5C380.977 293.5 381.923 293.5 382.87 293.5C383.817 293.5 384.765 293.5 385.714 293.5C386.663 293.5 387.613 293.5 388.564 293.5C389.514 293.5 390.466 293.5 391.419 293.5C392.371 293.5 393.324 293.5 394.279 293.5C395.233 293.5 396.188 293.5 397.145 293.5C398.101 293.5 399.058 293.5 400.015 293.5C400.973 293.5 401.932 293.5 402.892 293.5C403.851 293.5 404.812 293.5 405.773 293.5C406.734 293.5 407.696 293.5 408.659 293.5C409.622 293.5 410.586 293.5 411.551 293.5C412.516 293.5 413.481 293.5 414.448 293.5C415.414 293.5 416.381 293.5 417.349 293.5C418.317 293.5 419.286 293.5 420.256 293.5C421.226 293.5 422.196 293.5 423.168 293.5C424.139 293.5 425.111 293.5 426.084 293.5C427.057 293.5 428.031 293.5 429.005 293.5C429.98 293.5 430.955 293.5 431.932 293.5C432.908 293.5 433.885 293.5 434.862 293.5C435.84 293.5 436.819 293.5 437.798 293.5C438.777 293.5 439.757 293.5 440.738 293.5C441.719 293.5 442.701 293.5 443.683 293.5C444.665 293.5 445.649 293.5 446.632 293.5C447.616 293.5 448.601 293.5 449.586 293.5C450.572 293.5 451.558 293.5 452.545 293.5C453.532 293.5 454.519 293.5 455.508 293.5C456.496 293.5 457.485 293.5 458.475 293.5C459.465 293.5 460.455 293.5 461.447 293.5C462.438 293.5 463.43 293.5 464.423 293.5C465.415 293.5 466.409 293.5 467.403 293.5C468.397 293.5 469.392 293.5 470.387 293.5C471.383 293.5 472.379 293.5 473.376 293.5C474.373 293.5 475.371 293.5 476.369 293.5C477.367 293.5 478.366 293.5 479.366 293.5C480.365 293.5 481.366 293.5 482.367 293.5C483.368 293.5 484.369 293.5 485.372 293.5C486.374 293.5 487.377 293.5 488.381 293.5C489.384 293.5 490.388 293.5 491.393 293.5C492.398 293.5 493.404 293.5 494.41 293.5C495.416 293.5 496.423 293.5 497.431 293.5C498.438 293.5 499.446 293.5 500.455 293.5C501.464 293.5 502.473 293.5 503.483 293.5C504.493 293.5 505.504 293.5 506.515 293.5C507.526 293.5 508.538 293.5 509.55 293.5C510.563 293.5 511.576 293.5 512.59 293.5C513.603 293.5 514.617 293.5 515.632 293.5C516.647 293.5 517.662 293.5 518.678 293.5C519.694 293.5 520.711 293.5 521.728 293.5C522.745 293.5 523.763 293.5 524.781 293.5C525.799 293.5 526.818 293.5 527.838 293.5C528.857 293.5 529.877 293.5 530.898 293.5C531.918 293.5 532.939 293.5 533.961 293.5C534.982 293.5 536.004 293.5 537.027 293.5C538.05 293.5 539.073 293.5 540.097 293.5C541.121 293.5 542.145 293.5 543.17 293.5C544.194 293.5 545.22 293.5 546.246 293.5C547.271 293.5 548.298 293.5 549.325 293.5C550.352 293.5 551.379 293.5 552.407 293.5C553.435 293.5 554.463 293.5 555.492 293.5C556.521 293.5 557.55 293.5 558.58 293.5C559.61 293.5 560.64 293.5 561.671 293.5C562.702 293.5 563.733 293.5 564.765 293.5C565.797 293.5 566.829 293.5 567.862 293.5C568.894 293.5 569.927 293.5 570.961 293.5C571.995 293.5 573.029 293.5 574.063 293.5C575.098 293.5 576.133 293.5 577.168 293.5C578.204 293.5 579.24 293.5 580.276 293.5C581.312 293.5 582.349 293.5 583.386 293.5C584.423 293.5 585.461 293.5 586.499 293.5C587.537 293.5 588.575 293.5 589.614 293.5C590.653 293.5 591.692 293.5 592.732 293.5C593.772 293.5 594.812 293.5 595.852 293.5C596.893 293.5 597.933 293.5 598.975 293.5C600.016 293.5 601.058 293.5 602.1 293.5C603.142 293.5 604.184 293.5 605.227 293.5C606.27 293.5 607.313 293.5 608.357 293.5C609.4 293.5 610.444 293.5 611.488 293.5C612.533 293.5 613.577 293.5 614.622 293.5C615.667 293.5 616.713 293.5 617.758 293.5C618.804 293.5 619.85 293.5 620.896 293.5C621.943 293.5 622.99 293.5 624.037 293.5C625.084 293.5 626.131 293.5 627.179 293.5C628.226 293.5 629.274 293.5 630.323 293.5C631.371 293.5 632.42 293.5 633.469 293.5C634.518 293.5 635.567 293.5 636.617 293.5C637.666 293.5 638.716 293.5 639.767 293.5C640.817 293.5 641.867 293.5 642.918 293.5C643.969 293.5 645.02 293.5 646.071 293.5C647.123 293.5 648.174 293.5 649.226 293.5C650.278 293.5 651.331 293.5 652.383 293.5C653.435 293.5 654.488 293.5 655.541 293.5C656.594 293.5 657.647 293.5 658.701 293.5C659.754 293.5 660.808 293.5 661.862 293.5C662.916 293.5 663.971 293.5 665.025 293.5C666.08 293.5 667.134 293.5 668.189 293.5C669.244 293.5 670.299 293.5 671.355 293.5C672.41 293.5 673.466 293.5 674.522 293.5C675.578 293.5 676.634 293.5 677.69 293.5C678.746 293.5 679.803 293.5 680.859 293.5C681.916 293.5 682.973 293.5 684.03 293.5C685.087 293.5 686.145 293.5 687.202 293.5C688.26 293.5 689.317 293.5 690.375 293.5C691.433 293.5 692.491 293.5 693.549 293.5C694.607 293.5 695.666 293.5 696.724 293.5C697.783 293.5 698.842 293.5 699.9 293.5C700.959 293.5 702.018 293.5 703.078 293.5C704.137 293.5 705.196 293.5 706.256 293.5C707.315 293.5 708.375 293.5 709.434 293.5C710.494 293.5 711.554 293.5 712.614 293.5C713.674 293.5 714.734 293.5 715.794 293.5C716.855 293.5 717.915 293.5 718.976 293.5C720.036 293.5 721.097 293.5 722.158 293.5C723.218 293.5 724.279 293.5 725.34 293.5C726.401 293.5 727.462 293.5 728.523 293.5C729.584 293.5 730.646 293.5 731.707 293.5C732.768 293.5 733.83 293.5 734.891 293.5C735.953 293.5 737.014 293.5 738.076 293.5C739.137 293.5 740.199 293.5 741.261 293.5C742.323 293.5 743.384 293.5 744.446 293.5C745.508 293.5 746.57 293.5 747.632 293.5C748.694 293.5 749.756 293.5 750.818 293.5C751.88 293.5 752.942 293.5 754.005 293.5C755.067 293.5 756.129 293.5 757.191 293.5C758.253 293.5 759.316 293.5 760.378 293.5C761.44 293.5 762.502 293.5 763.565 293.5C764.627 293.5 765.689 293.5 766.752 293.5C767.814 293.5 768.876 293.5 769.939 293.5C771.001 293.5 772.063 293.5 773.126 293.5C774.188 293.5 775.25 293.5 776.312 293.5C777.375 293.5 778.437 293.5 779.499 293.5C780.562 293.5 781.624 293.5 782.686 293.5C783.748 293.5 784.81 293.5 785.872 293.5C786.935 293.5 787.997 293.5 789.059 293.5C790.121 293.5 791.183 293.5 792.245 293.5C793.307 293.5 794.369 293.5 795.43 293.5C796.492 293.5 797.554 293.5 798.616 293.5C799.677 293.5 800.739 293.5 801.801 293.5C802.862 293.5 803.924 293.5 804.985 293.5C806.046 293.5 807.108 293.5 808.169 293.5C809.23 293.5 810.291 293.5 811.352 293.5C812.413 293.5 813.474 293.5 814.535 293.5C815.596 293.5 816.657 293.5 817.718 293.5C818.778 293.5 819.839 293.5 820.899 293.5C821.959 293.5 823.02 293.5 824.08 293.5C825.14 293.5 826.2 293.5 827.26 293.5C828.32 293.5 829.38 293.5 830.439 293.5C831.499 293.5 832.558 293.5 833.618 293.5C834.677 293.5 835.736 293.5 836.795 293.5C837.854 293.5 838.913 293.5 839.972 293.5C841.031 293.5 842.089 293.5 843.148 293.5C844.206 293.5 845.264 293.5 846.322 293.5C847.38 293.5 848.438 293.5 849.496 293.5C850.554 293.5 851.611 293.5 852.669 293.5C853.726 293.5 854.783 293.5 855.84 293.5C856.897 293.5 857.954 293.5 859.01 293.5C860.067 293.5 861.123 293.5 862.179 293.5C863.235 293.5 864.291 293.5 865.347 293.5C866.402 293.5 867.458 293.5 868.513 293.5C869.568 293.5 870.623 293.5 871.678 293.5C872.733 293.5 873.787 293.5 874.842 293.5C875.896 293.5 876.95 293.5 878.004 293.5C879.058 293.5 880.111 293.5 881.164 293.5C882.218 293.5 883.271 293.5 884.324 293.5C885.376 293.5 886.429 293.5 887.481 293.5C888.533 293.5 889.585 293.5 890.637 293.5C891.689 293.5 892.74 293.5 893.791 293.5C894.842 293.5 895.893 293.5 896.944 293.5C897.994 293.5 899.044 293.5 900.094 293.5C901.144 293.5 902.194 293.5 903.243 293.5C904.293 293.5 905.342 293.5 906.39 293.5C907.439 293.5 908.488 293.5 909.536 293.5C910.584 293.5 911.632 293.5 912.679 293.5C913.726 293.5 914.773 293.5 915.82 293.5C916.867 293.5 917.913 293.5 918.96 293.5C920.006 293.5 921.051 293.5 922.097 293.5C923.142 293.5 924.187 293.5 925.232 293.5C926.277 293.5 927.321 293.5 928.365 293.5C929.409 293.5 930.452 293.5 931.496 293.5C932.539 293.5 933.582 293.5 934.624 293.5C935.667 293.5 936.709 293.5 937.75 293.5C938.792 293.5 939.833 293.5 940.874 293.5C941.915 293.5 942.956 293.5 943.996 293.5C945.036 293.5 946.076 293.5 947.115 293.5C948.154 293.5 949.193 293.5 950.232 293.5C951.27 293.5 952.308 293.5 953.346 293.5C954.384 293.5 955.421 293.5 956.458 293.5C957.494 293.5 958.531 293.5 959.567 293.5C960.603 293.5 961.638 293.5 962.673 293.5C963.708 293.5 964.743 293.5 965.777 293.5C966.811 293.5 967.845 293.5 968.878 293.5C969.911 293.5 970.944 293.5 971.976 293.5C973.008 293.5 974.04 293.5 975.072 293.5C976.103 293.5 977.134 293.5 978.164 293.5C979.195 293.5 980.224 293.5 981.254 293.5C982.283 293.5 983.312 293.5 984.341 293.5C985.369 293.5 986.397 293.5 987.424 293.5C988.452 293.5 989.479 293.5 990.505 293.5C991.532 293.5 992.558 293.5 993.583 293.5C994.608 293.5 995.633 293.5 996.658 293.5C997.682 293.5 998.706 293.5 999.729 293.5C1000.75 293.5 1001.78 293.5 1002.8 293.5C1003.82 293.5 1004.84 293.5 1005.86 293.5C1006.88 293.5 1007.9 293.5 1008.92 293.5C1009.94 293.5 1010.96 293.5 1011.98 293.5C1013 293.5 1014.02 293.5 1015.04 293.5C1016.06 293.5 1017.07 293.5 1018.09 293.5C1019.11 293.5 1020.12 293.5 1021.14 293.5C1022.15 293.5 1023.17 293.5 1024.18 293.5C1025.2 293.5 1026.21 293.5 1027.22 293.5C1028.24 293.5 1029.25 293.5 1030.26 293.5C1031.27 293.5 1032.28 293.5 1033.29 293.5C1034.3 293.5 1035.31 293.5 1036.32 293.5C1037.33 293.5 1038.34 293.5 1039.35 293.5C1040.36 293.5 1041.37 293.5 1042.37 293.5C1043.38 293.5 1044.39 293.5 1045.39 293.5C1046.4 293.5 1047.4 293.5 1048.41 293.5C1049.41 293.5 1050.42 293.5 1051.42 293.5C1052.42 293.5 1053.42 293.5 1054.43 293.5C1055.43 293.5 1056.43 293.5 1057.43 293.5C1058.43 293.5 1059.43 293.5 1060.43 293.5C1061.43 293.5 1062.43 293.5 1063.42 293.5C1064.42 293.5 1065.42 293.5 1066.41 293.5C1067.41 293.5 1068.41 293.5 1069.4 293.5C1070.4 293.5 1071.39 293.5 1072.38 293.5C1073.38 293.5 1074.37 293.5 1075.36 293.5C1076.35 293.5 1077.35 293.5 1078.34 293.5C1079.33 293.5 1080.32 293.5 1081.31 293.5C1082.29 293.5 1083.28 293.5 1084.27 293.5C1085.26 293.5 1086.25 293.5 1087.23 293.5C1088.22 293.5 1089.2 293.5 1090.19 293.5C1091.17 293.5 1092.16 293.5 1093.14 293.5C1094.12 293.5 1095.11 293.5 1096.09 293.5C1097.07 293.5 1098.05 293.5 1099.03 293.5C1100.01 293.5 1100.99 293.5 1101.97 293.5C1102.95 293.5 1103.93 293.5 1104.9 293.5C1105.88 293.5 1106.86 293.5 1107.83 293.5C1108.81 293.5 1109.78 293.5 1110.76 293.5C1111.73 293.5 1112.7 293.5 1113.67 293.5C1114.65 293.5 1115.62 293.5 1116.59 293.5C1117.56 293.5 1118.53 293.5 1119.5 293.5C1120.47 293.5 1121.44 293.5 1122.4 293.5C1123.37 293.5 1124.34 293.5 1125.3 293.5C1126.27 293.5 1127.23 293.5 1128.2 293.5C1129.16 293.5 1130.12 293.5 1131.09 293.5C1132.05 293.5 1133.01 293.5 1133.97 293.5C1134.93 293.5 1135.89 293.5 1136.85 293.5C1137.81 293.5 1138.77 293.5 1139.72 293.5C1140.68 293.5 1141.64 293.5 1142.59 293.5C1143.55 293.5 1144.5 293.5 1145.45 293.5C1146.41 293.5 1147.36 293.5 1148.31 293.5C1149.26 293.5 1150.22 293.5 1151.17 293.5C1152.12 293.5 1153.06 293.5 1154.01 293.5C1154.96 293.5 1155.91 293.5 1156.85 293.5C1157.8 293.5 1158.75 293.5 1159.69 293.5C1160.63 293.5 1161.58 293.5 1162.52 293.5C1163.46 293.5 1164.41 293.5 1165.35 293.5C1166.29 293.5 1167.23 293.5 1168.17 293.5C1169.1 293.5 1170.04 293.5 1170.98 293.5C1171.92 293.5 1172.85 293.5 1173.79 293.5C1174.72 293.5 1175.66 293.5 1176.59 293.5C1177.52 293.5 1178.45 293.5 1179.39 293.5C1180.32 293.5 1181.25 293.5 1182.18 293.5C1183.11 293.5 1184.03 293.5 1184.96 293.5C1185.89 293.5 1186.81 293.5 1187.74 293.5C1188.66 293.5 1189.59 293.5 1190.51 293.5C1191.44 293.5 1192.36 293.5 1193.28 293.5C1194.2 293.5 1195.12 293.5 1196.04 293.5C1196.96 293.5 1197.88 293.5 1198.79 293.5C1199.71 293.5 1200.63 293.5 1201.54 293.5C1202.46 293.5 1203.37 293.5 1204.28 293.5C1205.2 293.5 1206.11 293.5 1207.02 293.5C1207.93 293.5 1208.84 293.5 1209.75 293.5C1210.66 293.5 1211.57 293.5 1212.47 293.5C1213.38 293.5 1214.28 293.5 1215.19 293.5C1216.09 293.5 1217 293.5 1217.9 293.5C1218.8 293.5 1219.7 293.5 1220.6 293.5C1221.5 293.5 1222.4 293.5 1223.3 293.5C1224.2 293.5 1225.09 293.5 1225.99 293.5C1226.89 293.5 1227.78 293.5 1228.67 293.5C1229.57 293.5 1230.46 293.5 1231.35 293.5C1232.24 293.5 1233.13 293.5 1234.02 293.5C1234.91 293.5 1235.8 293.5 1236.69 293.5C1237.57 293.5 1238.46 293.5 1239.34 293.5C1240.23 293.5 1241.11 293.5 1241.99 293.5C1242.88 293.5 1243.76 293.5 1244.64 293.5C1245.52 293.5 1246.4 293.5 1247.28 293.5C1248.15 293.5 1249.03 293.5 1249.9 293.5C1250.78 293.5 1251.65 293.5 1252.53 293.5C1253.4 293.5 1254.27 293.5 1255.14 293.5C1256.01 293.5 1256.88 293.5 1257.75 293.5C1258.62 293.5 1259.49 293.5 1260.35 293.5C1261.22 293.5 1262.08 293.5 1262.95 293.5C1263.81 293.5 1264.67 293.5 1265.53 293.5C1266.4 293.5 1267.26 293.5 1268.11 293.5C1268.97 293.5 1269.83 293.5 1270.69 293.5C1271.54 293.5 1272.4 293.5 1273.25 293.5C1274.11 293.5 1274.96 293.5 1275.81 293.5C1276.66 293.5 1277.51 293.5 1278.36 293.5C1279.21 293.5 1280.06 293.5 1280.9 293.5C1281.75 293.5 1282.59 293.5 1283.44 293.5C1284.28 293.5 1285.12 293.5 1285.97 293.5C1286.81 293.5 1287.65 293.5 1288.49 293.5C1289.32 293.5 1290.16 293.5 1291 293.5C1291.83 293.5 1292.67 293.5 1293.5 293.5C1294.34 293.5 1295.17 293.5 1296 293.5C1296.83 293.5 1297.66 293.5 1298.49 293.5C1299.32 293.5 1300.14 293.5 1300.97 293.5C1301.8 293.5 1302.62 293.5 1303.44 293.5C1304.27 293.5 1305.09 293.5 1305.91 293.5C1306.73 293.5 1307.55 293.5 1308.37 293.5C1309.18 293.5 1310 293.5 1310.82 293.5C1311.63 293.5 1312.45 293.5 1313.26 293.5C1314.07 293.5 1314.88 293.5 1315.69 293.5C1316.5 293.5 1317.31 293.5 1318.12 293.5C1318.92 293.5 1319.73 293.5 1320.53 293.5C1321.34 293.5 1322.14 293.5 1322.94 293.5C1323.74 293.5 1324.55 293.5 1325.34 293.5C1326.14 293.5 1326.94 293.5 1327.74 293.5C1328.53 293.5 1329.33 293.5 1330.12 293.5C1330.91 293.5 1331.71 293.5 1332.5 293.5C1333.29 293.5 1334.08 293.5 1334.86 293.5C1335.65 293.5 1336.44 293.5 1337.22 293.5C1338.01 293.5 1338.79 293.5 1339.57 293.5C1340.35 293.5 1341.13 293.5 1341.91 293.5C1342.69 293.5 1343.47 293.5 1344.25 293.5C1345.02 293.5 1345.8 293.5 1346.57 293.5C1347.34 293.5 1348.12 293.5 1348.89 293.5C1349.66 293.5 1350.43 293.5 1351.19 293.5C1351.96 293.5 1352.73 293.5 1353.49 293.5C1354.26 293.5 1355.02 293.5 1355.78 293.5C1356.54 293.5 1357.3 293.5 1358.06 293.5C1358.82 293.5 1359.58 293.5 1360.33 293.5C1361.09 293.5 1361.84 293.5 1362.59 293.5C1363.35 293.5 1364.1 293.5 1364.85 293.5C1365.6 293.5 1366.35 293.5 1367.09 293.5C1367.84 293.5 1368.58 293.5 1369.33 293.5C1370.07 293.5 1370.81 293.5 1371.55 293.5C1372.29 293.5 1373.03 293.5 1373.77 293.5C1374.51 293.5 1375.24 293.5 1375.98 293.5C1376.71 293.5 1377.45 293.5 1378.18 293.5C1378.91 293.5 1379.64 293.5 1380.37 293.5C1381.09 293.5 1381.82 293.5 1382.55 293.5C1383.27 293.5 1383.99 293.5 1384.72 293.5C1385.44 293.5 1386.16 293.5 1386.88 293.5C1387.6 293.5 1388.31 293.5 1389.03 293.5C1389.74 293.5 1390.46 293.5 1391.17 293.5C1391.88 293.5 1392.59 293.5 1393.3 293.5C1394.01 293.5 1394.72 293.5 1395.43 293.5C1396.13 293.5 1396.84 293.5 1397.54 293.5C1398.24 293.5 1398.94 293.5 1399.64 293.5C1400.34 293.5 1401.04 293.5 1401.74 293.5C1402.43 293.5 1403.13 293.5 1403.82 293.5C1404.51 293.5 1405.2 293.5 1405.89 293.5C1406.58 293.5 1407.27 293.5 1407.96 293.5C1408.64 293.5 1409.33 293.5 1410.01 293.5C1410.7 293.5 1411.38 293.5 1412.06 293.5C1412.74 293.5 1413.41 293.5 1414.09 293.5C1414.77 293.5 1415.44 293.5 1416.11 293.5C1416.79 293.5 1417.46 293.5 1418.13 293.5C1418.8 293.5 1419.47 293.5 1420.13 293.5C1420.8 293.5 1421.46 293.5 1422.13 293.5C1422.79 293.5 1423.45 293.5 1424.11 293.5C1424.77 293.5 1425.43 293.5 1426.08 293.5C1426.74 293.5 1427.39 293.5 1428.05 293.5C1428.7 293.5 1429.35 293.5 1430 293.5C1430.65 293.5 1431.29 293.5 1431.94 293.5C1432.59 293.5 1433.23 293.5 1433.87 293.5C1434.51 293.5 1435.15 293.5 1435.79 293.5C1436.43 293.5 1437.07 293.5 1437.7 293.5C1438.34 293.5 1438.97 293.5 1439.6 293.5C1440.24 293.5 1440.87 293.5 1441.49 293.5C1442.12 293.5 1442.75 293.5 1443.37 293.5C1444 293.5 1444.62 293.5 1445.24 293.5C1445.86 293.5 1446.48 293.5 1447.1 293.5C1447.71 293.5 1448.33 293.5 1448.94 293.5C1449.56 293.5 1450.17 293.5 1450.78 293.5C1451.39 293.5 1452 293.5 1452.6 293.5C1453.21 293.5 1453.81 293.5 1454.42 293.5C1455.02 293.5 1455.62 293.5 1456.22 293.5C1456.82 293.5 1457.42 293.5 1458.01 293.5C1458.61 293.5 1459.2 293.5 1459.79 293.5C1460.38 293.5 1460.97 293.5 1461.56 293.5C1462.15 293.5 1462.74 293.5 1463.32 293.5C1463.91 293.5 1464.49 293.5 1465.07 293.5C1465.65 293.5 1466.23 293.5 1466.8 293.5C1467.38 293.5 1467.96 293.5 1468.53 293.5C1469.1 293.5 1469.67 293.5 1470.24 293.5C1470.81 293.5 1471.38 293.5 1471.94 293.5C1472.51 293.5 1473.07 293.5 1473.64 293.5C1474.2 293.5 1474.76 293.5 1475.31 293.5V283.5Z" fill="#8D887C"/>
</svg>
