<svg width="1735" height="136" viewBox="0 0 1735 136" fill="none" xmlns="http://www.w3.org/2000/svg">
<rect y="28" width="226" height="80" rx="10" fill="#8D887C"/>
<path d="M90.272 56.496L89.92 56.592H82.688V84.464H84.8V58.768H89.024C88.384 60.88 87.424 63.632 86.496 65.936C88.8 68.496 89.376 70.672 89.376 72.4C89.376 73.392 89.184 74.288 88.704 74.64C88.448 74.832 88.096 74.896 87.712 74.928C87.2 74.992 86.592 74.96 85.856 74.896C86.208 75.504 86.432 76.4 86.464 77.008C87.136 77.04 87.968 77.04 88.608 76.944C89.216 76.88 89.824 76.688 90.24 76.336C91.136 75.728 91.52 74.32 91.52 72.624C91.52 70.64 90.944 68.336 88.64 65.68C89.728 63.152 90.88 60.048 91.808 57.424L90.272 56.496ZM100.16 66.192V73.584H95.36V66.192H100.16ZM102.304 75.664V64.112H93.312V78.096H95.36V75.664H102.304ZM110.72 57.424H92.224V59.632H105.728V81.456C105.728 82.096 105.472 82.288 104.8 82.32C104.128 82.352 101.728 82.352 99.232 82.288C99.552 82.928 99.904 83.824 100.032 84.432C103.296 84.464 105.248 84.464 106.4 84.08C107.52 83.728 107.968 83.12 107.968 81.456V59.632H110.72V57.424ZM129.76 77.936C134.176 79.696 139.904 82.576 142.72 84.56L143.84 82.512C140.928 80.592 135.168 77.84 130.784 76.176L129.76 77.936ZM130.72 69.168V66.48H140.96V64.4H130.72V61.808H142.496V59.664H135.68C136.512 58.544 137.472 57.168 138.24 55.856L135.808 55.12C135.136 56.464 134.016 58.352 133.056 59.664H124.64L125.792 59.152C125.28 58 124.16 56.336 122.976 55.12L120.928 55.952C121.888 57.072 122.88 58.544 123.392 59.664H116.64V61.808H128.352V64.4H118.4V66.48H128.352V69.168H115.52V71.28H128.064C127.968 72.144 127.84 72.976 127.648 73.744H116.224V75.824H126.976C125.536 79.12 122.4 81.168 115.008 82.224C115.456 82.768 116.064 83.76 116.256 84.368C124.64 82.928 128.064 80.208 129.568 75.824H143.36V73.744H130.144C130.304 72.976 130.432 72.144 130.528 71.28H143.872V69.168H130.72Z" fill="white"/>
<path d="M270.8 62.64H280.752V69.648H283.056V62.64H293.168V67.632H295.504V60.784H283.056V58.416H294.032V56.592H269.904V58.416H280.752V60.784H268.528V67.632H270.8V62.64ZM292.368 68.4C290.64 67.824 287.408 67.12 284.944 66.864L284.4 68.304C286.864 68.656 290.128 69.392 291.856 70.032L292.368 68.4ZM290.832 63.056C289.264 63.6 286.608 64.592 284.784 65.008L285.648 66.224C287.472 65.84 290.064 65.168 291.888 64.432L290.832 63.056ZM272.176 64.496C274.256 64.912 276.912 65.712 278.352 66.352L279.024 64.912C277.584 64.272 274.896 63.536 272.88 63.216L272.176 64.496ZM272.048 69.936C274.16 69.52 276.528 69.072 279.024 68.528L278.96 67.024C276.08 67.472 273.36 67.888 271.376 68.112L272.048 69.936ZM295.92 72.528V70.576H268.144V72.528H280.528C280.336 73.296 280.08 74.096 279.856 74.832H270.64V84.4H272.912V76.784H277.648V84.208H279.824V76.784H284.656V84.208H286.832V76.784H291.824V82.064C291.824 82.352 291.728 82.448 291.376 82.48C291.024 82.512 289.936 82.512 288.656 82.48C288.944 83.056 289.296 83.856 289.424 84.464C291.12 84.464 292.336 84.464 293.104 84.08C293.936 83.728 294.128 83.184 294.128 82.096V74.832H282.096C282.384 74.128 282.672 73.328 282.96 72.528H295.92ZM318 61.424H312.848V58.736H318V61.424ZM325.584 63.376V67.696H320.272V63.376H325.584ZM312.848 63.376H318V67.696H312.848V63.376ZM305.776 63.376H310.576V67.696H305.776V63.376ZM310.576 61.424H303.504V69.648H327.92V61.424H320.272V58.736H329.264V56.624H301.936V58.736H310.576V61.424ZM320.432 75.44C319.28 77.008 317.808 78.224 316.016 79.184C313.776 78.768 311.504 78.32 309.2 77.936C309.776 77.2 310.384 76.336 310.992 75.44H320.432ZM329.776 75.44V73.392H324.272C324.464 73.008 324.592 72.592 324.72 72.208L322.448 71.536C322.224 72.208 321.968 72.784 321.648 73.392H312.336C312.944 72.464 313.488 71.504 313.904 70.576L311.6 70.032C311.056 71.088 310.416 72.24 309.68 73.392H301.424V75.44H308.336C307.376 76.816 306.384 78.128 305.456 79.152C307.984 79.568 310.48 80.048 312.88 80.528C309.808 81.552 306.032 82.096 301.328 82.384C301.712 82.928 302.128 83.792 302.288 84.464C308.304 83.984 313.008 83.056 316.56 81.36C320.784 82.32 324.432 83.408 327.088 84.4L329.232 82.704C326.576 81.744 323.024 80.784 319.12 79.888C320.816 78.704 322.192 77.232 323.248 75.44H329.776ZM334.736 68.24V70.832H363.792V68.24H334.736ZM374.48 55.376C372.88 60.208 370.32 65.008 367.472 68.112C367.888 68.688 368.528 70 368.72 70.512C369.808 69.296 370.832 67.856 371.824 66.288V84.464H374.096V62.192C375.088 60.208 375.952 58.096 376.656 55.984L374.48 55.376ZM389.84 75.984H384.432V71.024H389.84V75.984ZM392.976 65.712V63.888H388.048V60.272H386.096V63.888H381.296V65.712H386.096V69.232H382.608V77.744H391.728V69.232H388.048V65.712H392.976ZM379.984 80.4V59.248H394.064V80.4H379.984ZM377.776 57.168V84.4H379.984V82.512H394.064V84.144H396.336V57.168H377.776ZM430.224 63.056V60.752H416.848L419.088 59.792C418.608 58.48 417.648 56.56 416.752 55.056L414.512 55.952C415.312 57.424 416.272 59.472 416.656 60.752H402.704V63.056H411.344C410.992 70.352 410.192 78.576 402 82.64C402.608 83.088 403.344 83.92 403.728 84.528C409.744 81.328 412.112 76.08 413.136 70.448H424.56C424.016 77.648 423.408 80.72 422.448 81.552C422.064 81.84 421.68 81.904 420.944 81.904C420.08 81.904 417.872 81.872 415.568 81.68C416.048 82.32 416.368 83.28 416.432 84.016C418.544 84.144 420.656 84.176 421.776 84.112C423.024 84.016 423.76 83.792 424.528 82.992C425.776 81.744 426.416 78.288 427.024 69.296C427.088 68.944 427.12 68.144 427.12 68.144H413.488C413.712 66.448 413.84 64.752 413.936 63.056H430.224ZM442.672 67.376C441.36 66.352 438.736 64.976 436.72 64.176L435.44 65.904C437.52 66.832 440.048 68.272 441.36 69.36L442.672 67.376ZM438.512 84.016C440.4 81.072 442.64 77.104 444.304 73.744L442.576 72.176C440.752 75.792 438.224 79.984 436.528 82.416L438.512 84.016ZM437.168 57.296C439.28 58.256 441.872 59.792 443.152 60.88L444.528 58.896C443.184 57.872 440.56 56.432 438.448 55.568L437.168 57.296ZM464.016 83.344C463.024 80.88 460.624 77.072 458.352 74.288L456.464 75.184C457.456 76.432 458.416 77.872 459.312 79.312L449.2 80.432C451.184 77.744 453.168 74.352 454.832 70.96H463.888V68.688H455.472V62.992H462.544V60.72H455.472V55.216H453.104V60.72H446.288V62.992H453.104V68.688H444.88V70.96H452.016C450.416 74.544 448.304 77.936 447.6 78.896C446.8 80.048 446.16 80.816 445.552 80.976C445.84 81.616 446.224 82.8 446.352 83.344C447.216 82.928 448.56 82.704 460.432 81.232C461.04 82.416 461.584 83.504 461.904 84.4L464.016 83.344Z" fill="black"/>
<rect x="506" width="485" height="136" rx="10" fill="#8D887C"/>
<path d="M573.588 32.624H562.996V30.096H573.588V32.624ZM573.588 36.848H562.996V34.288H573.588V36.848ZM575.86 28.304H560.82V38.672H575.86V28.304ZM558.484 41.168L555.252 42.16V35.856H558.772V33.648H555.252V27.28H553.044V33.648H549.108V35.856H553.044V42.864C551.412 43.376 549.94 43.824 548.756 44.112L549.332 46.416C550.484 46.064 551.732 45.68 553.044 45.232V53.456C553.044 53.936 552.884 54.064 552.5 54.064C552.148 54.064 550.868 54.064 549.492 54.032C549.812 54.704 550.1 55.664 550.196 56.24C552.212 56.272 553.428 56.176 554.164 55.792C554.964 55.408 555.252 54.8 555.252 53.488V44.528C556.436 44.112 557.62 43.76 558.772 43.344L558.484 41.168ZM569.428 48.656H576.052V46.704H569.428V42.96H577.652V40.944H559.38V42.96H567.188V53.072C565.364 52.304 563.924 50.832 563.028 48.112C563.284 47.056 563.476 45.904 563.636 44.72L561.46 44.464C560.948 49.2 559.54 52.784 556.692 55.024C557.204 55.344 558.1 56.08 558.484 56.464C560.148 54.96 561.428 53.008 562.292 50.608C564.372 55.088 567.732 55.952 572.34 55.952H577.908C578.004 55.344 578.292 54.352 578.612 53.84C577.524 53.872 573.204 53.872 572.436 53.872C571.38 53.872 570.356 53.808 569.428 53.68V48.656ZM587.316 47.536C587.38 46.608 587.412 45.744 587.412 44.88V44.336H594.452V47.536H587.316ZM594.452 39.248V42.48H587.412V39.248H594.452ZM596.756 37.296H585.236V44.88C585.236 48.08 585.012 52.176 582.868 55.184C583.412 55.408 584.34 56.144 584.66 56.56C586.132 54.576 586.804 51.952 587.156 49.424H594.452V53.68C594.452 54.096 594.324 54.224 593.844 54.256C593.428 54.288 591.988 54.288 590.388 54.224C590.676 54.8 591.028 55.696 591.156 56.304C593.332 56.304 594.708 56.304 595.604 55.92C596.468 55.536 596.756 54.928 596.756 53.712V37.296ZM607.06 53.456C607.06 53.936 606.9 54.064 606.356 54.096C605.876 54.128 604.148 54.128 602.196 54.064C602.548 54.704 602.932 55.696 603.06 56.336C605.492 56.368 607.092 56.304 608.116 55.92C609.076 55.536 609.396 54.896 609.396 53.456V36.656H607.06V53.456ZM602.836 37.616H600.628V50.608H602.836V37.616ZM604.052 32.272C604.98 30.96 606.036 29.392 606.9 27.92L604.404 27.088C603.7 28.624 602.484 30.736 601.396 32.272H591.86L593.428 31.664C592.82 30.416 591.476 28.528 590.228 27.184L588.052 28.016C589.14 29.296 590.388 31.024 590.964 32.272H583.124V34.448H611.508V32.272H604.052ZM632.404 49.68H637.172V53.04H632.404V49.68ZM637.172 42.576H632.404V39.344H637.172V42.576ZM637.172 47.824H632.404V44.432H637.172V47.824ZM624.532 50.192H620.98V40.848H624.532V50.192ZM645.3 53.04H639.38V49.68H643.956V47.824H639.38V44.432H643.956V42.576H639.38V39.344H644.372V37.328H639.988C639.604 36.24 638.836 34.768 638.196 33.584L636.212 34.384C636.66 35.28 637.172 36.368 637.588 37.328H633.428C634.452 35.856 635.348 34.256 636.148 32.528H642.484V35.888H644.628V30.48H636.98C637.364 29.584 637.684 28.592 637.972 27.632L635.732 27.184C635.412 28.304 635.028 29.424 634.612 30.48H627.828V35.952H629.908V32.528H633.652C631.924 36.016 629.556 38.96 626.612 41.008V38.768H621.14C621.812 36.56 622.324 34.128 622.74 31.664H627.156V29.488H616.66V31.664H620.436C619.604 36.944 618.196 41.84 615.892 45.104C616.34 45.584 617.012 46.672 617.268 47.152C617.876 46.352 618.42 45.392 618.932 44.432V54.896H620.98V52.304H626.612V41.136C627.092 41.648 627.732 42.544 627.988 43.024C628.724 42.448 629.492 41.84 630.164 41.168V56.464H632.404V55.088H645.332L645.3 53.04ZM675.572 30.544C675.316 37.008 674.996 39.504 674.484 40.08C674.196 40.4 673.94 40.464 673.428 40.464C672.916 40.464 671.572 40.432 670.1 40.304C670.484 40.912 670.708 41.776 670.772 42.416C672.18 42.48 673.588 42.48 674.388 42.416C675.252 42.352 675.86 42.128 676.404 41.488C677.172 40.496 677.524 37.616 677.876 29.52C677.876 29.2 677.908 28.496 677.908 28.496H662.324V30.544H668.916C668.756 32.112 668.532 33.584 668.116 34.96C666.9 33.904 665.236 32.528 663.892 31.472L662.644 32.816C664.148 34.064 666.1 35.76 667.284 36.976C666.228 39.12 664.5 40.848 661.652 42.032C662.132 42.416 662.772 43.184 663.028 43.728C668.916 41.104 670.516 36.304 671.092 30.544H675.572ZM667.636 43.76C668.948 45.232 670.388 47.28 671.06 48.528L672.628 47.44C671.924 46.192 670.452 44.272 669.108 42.832L667.636 43.76ZM657.268 31.504C656.82 30.352 655.988 28.592 655.156 27.28L653.14 27.984C653.908 29.36 654.772 31.184 655.124 32.336L657.268 31.504ZM661.14 32.528H649.876V34.512H661.14V32.528ZM660.372 36.848H650.708V38.736H660.372V36.848ZM650.708 43.024H660.372V41.104H650.708V43.024ZM658.164 47.344V52.688H652.724V47.344H658.164ZM660.212 45.392H650.708V56.112H652.724V54.64H660.212V45.392ZM662.004 53.36C663.092 51.6 663.796 48.688 664.212 46.384L662.516 45.872C662.132 48.048 661.364 50.864 660.276 52.592L662.004 53.36ZM668.436 53.84C667.348 53.84 667.124 53.68 667.124 52.912V45.136H665.044V52.912C665.044 55.12 665.684 55.76 668.212 55.76H672.372C674.58 55.76 675.156 54.736 675.38 50.384C674.804 50.256 673.94 49.936 673.492 49.584C673.396 53.296 673.204 53.84 672.148 53.84H668.436ZM674.836 45.168C675.956 47.312 677.076 50.16 677.524 51.888L679.348 51.184C678.9 49.488 677.684 46.704 676.532 44.592L674.836 45.168ZM700.564 46.48L702.74 44.656C700.756 42.288 697.844 39.408 695.572 37.552L693.492 39.376C695.764 41.232 698.484 43.952 700.564 46.48ZM736.532 48.912C736.02 50.32 735.028 52.272 734.196 53.616H726.804L728.788 52.944C728.468 51.824 727.636 50.192 726.836 48.976L724.692 49.648C725.46 50.864 726.196 52.528 726.484 53.616H717.716V55.696H745.716V53.616H736.628C737.3 52.4 738.1 50.896 738.772 49.52L736.532 48.912ZM738.068 46.736H724.788V42.736H738.068V46.736ZM740.564 40.752H722.452V48.72H740.564V40.752ZM743.732 31.28C742.644 32.432 740.852 33.968 739.284 35.152C738.516 34.384 737.78 33.552 737.14 32.72C738.708 31.632 740.532 30.16 742.004 28.784L740.18 27.504C739.156 28.624 737.492 30.128 736.052 31.28C735.188 30 734.42 28.656 733.844 27.312L731.764 27.952C733.076 30.96 734.868 33.712 737.076 36.112H726.516C728.34 34.096 729.876 31.76 730.868 29.136L729.3 28.336L728.852 28.432H719.028V30.448H727.732C726.932 32.016 725.78 33.52 724.532 34.928C723.508 33.84 721.812 32.592 720.34 31.728L719.06 33.072C720.5 33.968 722.132 35.216 723.124 36.304C721.14 38.128 718.836 39.632 716.66 40.528C717.14 40.976 717.812 41.776 718.132 42.32C720.852 41.04 723.636 39.088 726.004 36.656V38.16H737.46V36.528C739.7 38.864 742.26 40.784 745.044 42.032C745.46 41.424 746.132 40.496 746.676 40.048C744.532 39.216 742.484 37.936 740.66 36.368C742.228 35.28 744.084 33.84 745.524 32.496L743.732 31.28ZM759.06 30.896C758.548 29.84 757.428 28.208 756.308 27.056L754.484 28.048C755.508 29.232 756.628 30.928 757.108 32.016L759.06 30.896ZM759.828 47.408V52.752H754.228V47.408H759.828ZM761.972 45.456H752.116V56.208H754.228V54.736H761.972V45.456ZM751.7 43.024H762.484V41.104H751.7V43.024ZM752.308 36.656V38.512H761.876V36.656H752.308ZM750.772 34.16H763.508V32.208H750.772V34.16ZM769.652 53.552C767.924 53.552 767.572 53.296 767.572 52.048V41.648H775.604V43.344H777.94V28.976H764.82V31.248H775.604V39.376H765.236V52.048C765.236 55.056 766.196 55.792 769.46 55.792H775.732C778.868 55.792 779.604 54.416 779.956 49.232C779.252 49.104 778.292 48.688 777.716 48.272C777.524 52.72 777.236 53.552 775.572 53.552H769.652ZM790.58 52.464V47.728H807.636V52.464H790.58ZM807.636 40.848V45.488H790.58V40.848H807.636ZM807.636 33.84V38.608H790.58V33.84H807.636ZM798.612 31.568C799.156 30.352 799.732 28.912 800.212 27.536L797.492 27.184C797.236 28.432 796.724 30.16 796.244 31.568H788.212V56.496H790.58V54.704H807.636V56.336H810.1V31.568H798.612ZM824.02 27.408C822.484 32.368 819.956 37.232 817.172 40.4C817.588 40.976 818.228 42.256 818.42 42.832C819.476 41.584 820.5 40.112 821.46 38.544V56.432H823.764V34.192C824.692 32.208 825.524 30.128 826.228 28.016L824.02 27.408ZM834.164 32.656H841.716C840.788 34.32 839.54 35.728 838.036 36.912C836.308 35.632 834.996 34.224 834.1 32.752L834.164 32.656ZM846.772 32.656V30.704H835.316C835.86 29.744 836.308 28.752 836.724 27.76L834.58 27.216C833.3 30.544 831.06 33.776 828.564 35.888V31.024H826.484V51.152H828.564V36.176C829.076 36.528 829.844 37.136 830.164 37.456C831.124 36.592 832.052 35.568 832.948 34.416C833.812 35.664 834.932 36.944 836.372 38.096C834.132 39.504 831.508 40.56 828.628 41.296C829.076 41.744 829.78 42.672 830.068 43.152C833.044 42.224 835.796 41.04 838.164 39.408C840.404 40.912 843.188 42.128 846.484 42.864C846.772 42.288 847.38 41.424 847.796 40.944C844.692 40.368 842.036 39.376 839.86 38.096C841.652 36.592 843.124 34.8 844.212 32.656H846.772ZM841.812 44.72C839.668 46.96 835.476 48.752 831.444 49.712C831.892 50.096 832.404 50.8 832.692 51.28C836.948 50.096 841.172 48.112 843.636 45.456L841.812 44.72ZM838.772 41.648C837.076 43.344 833.876 44.816 831.028 45.648C831.508 46.032 832.02 46.64 832.372 47.056C835.38 46.064 838.644 44.4 840.596 42.384L838.772 41.648ZM844.788 48.208C841.94 51.44 836.148 53.456 829.716 54.416C830.164 54.896 830.708 55.728 830.964 56.304C837.716 55.12 843.668 52.848 846.836 49.072L844.788 48.208ZM854.74 32.24H877.396V35.664H879.796V30.032H867.956C867.572 29.104 866.9 27.856 866.324 26.896L864.052 27.568C864.468 28.304 864.948 29.232 865.3 30.032H852.436V35.664H854.74V32.24ZM877.588 43.344C876.244 41.68 873.492 39.248 871.316 37.552L869.556 38.672C870.388 39.344 871.284 40.112 872.148 40.912L859.796 41.776C861.652 40.432 863.508 38.832 865.204 37.136H876.756V35.056H855.668V37.136H862.132C860.34 38.96 858.42 40.496 857.716 40.976C856.884 41.616 856.148 42.032 855.54 42.128C855.796 42.736 856.116 43.824 856.244 44.304C857.236 43.888 858.74 43.792 873.908 42.608C874.676 43.344 875.284 44.08 875.732 44.656L877.588 43.344ZM867.284 53.392V49.168H877.428V47.056H867.284V43.696H864.884V47.056H854.964V49.168H864.884V53.392H852.052V55.536H880.244V53.392H867.284ZM894.132 41.328C893.14 41.648 892.148 41.968 891.188 42.288V35.856H894.068V33.648H891.188V27.248H889.012V33.648H885.428V35.856H889.012V42.928C887.476 43.408 886.1 43.792 884.98 44.112L885.556 46.416C886.644 46.064 887.796 45.68 889.012 45.296V53.52C889.012 53.936 888.852 54.064 888.5 54.064C888.148 54.064 887.028 54.064 885.78 54.032C886.1 54.672 886.388 55.664 886.484 56.24C888.276 56.272 889.46 56.176 890.164 55.792C890.932 55.408 891.188 54.8 891.188 53.52V44.592L894.42 43.536L894.132 41.328ZM906.036 52.784V36.112H914.164V33.968H906.036V30.576H912.66V28.432H896.948V30.576H903.764V33.968H895.444V36.112H903.764V52.784H898.484V47.984H902.42V45.968H898.484V41.616C900.084 41.2 901.748 40.624 903.06 39.984L901.3 38.448C900.116 39.12 898.036 39.888 896.212 40.368V56.528H898.484V54.896H911.284V56.4H913.524V39.504H907.028V41.584H911.284V45.936H907.252V47.952H911.284V52.784H906.036ZM947.572 32.848V30.608H937.076C936.532 29.488 935.668 28.112 934.868 27.024L932.66 27.76C933.268 28.592 933.876 29.648 934.356 30.608H921.012V39.44C921.012 44.048 920.756 50.48 918.324 55.024C918.868 55.248 919.892 55.952 920.308 56.368C922.932 51.536 923.316 44.336 923.316 39.472V32.848H947.572ZM928.532 34.672C927.924 38.64 926.388 41.904 923.764 43.984C924.244 44.272 925.172 44.944 925.524 45.328C926.932 44.112 928.084 42.576 928.948 40.752C930.292 42 931.636 43.472 932.34 44.464L933.78 42.928C932.916 41.808 931.22 40.144 929.716 38.8C930.132 37.616 930.484 36.304 930.708 34.928L928.532 34.672ZM936.66 48.784H945.716V46.704H936.66V43.536C937.172 43.888 937.972 44.528 938.324 44.88C939.668 43.792 940.788 42.416 941.684 40.752C943.412 42.256 945.236 43.984 946.228 45.168L947.668 43.632C946.548 42.384 944.372 40.464 942.484 38.928C942.964 37.712 943.348 36.4 943.604 34.992L941.46 34.672C940.788 38.448 939.252 41.52 936.66 43.472V34.128H934.356V46.704H925.524V48.784H934.356V53.52H923.476V55.632H947.668V53.52H936.66V48.784ZM569.748 87.952C569.46 86.64 568.724 84.592 568.148 82.992L565.908 83.568C566.516 85.168 567.156 87.312 567.412 88.656L569.748 87.952ZM576.788 89.008H559.54V91.312H576.788V89.008ZM566.132 106.704C565.78 103.44 564.82 97.712 563.764 93.264L561.62 93.744C562.612 98.192 563.54 104.048 563.796 107.376L566.132 106.704ZM556.916 83.344C555.156 88.208 552.18 92.976 549.044 96.048C549.492 96.592 550.164 97.808 550.388 98.384C551.476 97.232 552.564 95.952 553.556 94.512V112.4H555.924V90.8C557.172 88.624 558.292 86.352 559.156 84.016L556.916 83.344ZM571.572 108.848C572.724 104.592 574.036 98.352 574.868 93.456L572.404 93.008C571.796 97.776 570.516 104.56 569.364 108.848H558.196V111.152H578.1V108.848H571.572ZM594.676 103.984C598.036 102.8 600.212 100.176 600.212 96.72C600.212 94.48 599.252 93.04 597.492 93.04C596.18 93.04 595.06 93.84 595.06 95.344C595.06 96.848 596.148 97.616 597.46 97.616C597.652 97.616 597.812 97.616 598.004 97.584C597.844 99.76 596.436 101.264 593.972 102.288L594.676 103.984ZM624.084 103.12H638.004V108.752H624.084V103.12ZM638.004 87.408V92.912H624.084V87.408H638.004ZM638.004 100.816H624.084V95.152H638.004V100.816ZM640.436 108.752V85.104H621.748V108.752H616.724V111.088H645.108V108.752H640.436ZM675.7 97.008C676.852 97.008 678.004 96.944 678.548 96.816C678.452 96.272 678.356 95.376 678.292 94.736C677.684 94.896 676.404 94.928 675.636 94.928H669.748C668.724 94.928 668.468 94.544 668.468 93.392V89.776H677.076V87.664H668.468V83.248H666.132V93.328C666.132 96.016 666.9 97.008 669.716 97.008H675.7ZM654.58 99.6C656.308 100.656 658.516 102.128 659.636 103.056L660.916 101.744C659.764 100.848 657.524 99.408 655.828 98.416L654.58 99.6ZM654.324 96.592H660.948V103.056C658.388 104.336 655.86 105.616 654.068 106.416C654.26 105.008 654.324 103.6 654.324 102.384V96.592ZM663.22 94.544H652.116V102.352C652.116 105.072 651.924 108.432 650.1 110.864C650.58 111.184 651.412 112.016 651.732 112.528C653.076 110.864 653.716 108.656 654.036 106.544L654.868 108.464C656.66 107.44 658.836 106.192 660.948 104.944V109.872C660.948 110.288 660.852 110.416 660.404 110.416C659.988 110.416 658.676 110.448 657.14 110.384C657.46 110.96 657.78 111.76 657.908 112.368C659.892 112.368 661.3 112.336 662.1 111.984C662.964 111.632 663.22 111.088 663.22 109.872V94.544ZM659.252 86.288C659.924 87.28 660.596 88.368 661.236 89.456L654.676 89.904C656.244 88.24 657.78 86.096 659.124 84.016L656.756 83.216C655.412 85.808 653.3 88.4 652.692 89.072C652.052 89.744 651.508 90.224 650.996 90.32C651.284 90.896 651.636 92.08 651.764 92.56C652.5 92.208 653.62 92.08 662.292 91.376C662.708 92.176 663.06 92.912 663.316 93.552L665.364 92.624C664.564 90.736 662.74 87.728 661.172 85.552L659.252 86.288ZM670.26 110.064C668.756 110.064 668.468 109.872 668.468 108.816V104.016H677.428V101.872H668.468V98.064H666.132V108.816C666.132 111.44 666.932 112.176 670.036 112.176H675.7C678.356 112.176 679.06 111.088 679.348 106.928C678.708 106.768 677.78 106.416 677.236 106.032C677.076 109.456 676.852 110.064 675.508 110.064H670.26ZM695.188 99.824C694.516 101.68 693.556 103.344 692.372 104.752C691.38 103.728 690.068 102.544 688.788 101.616C689.428 101.04 690.036 100.464 690.58 99.824H695.188ZM694.004 88.272C693.3 89.68 692.404 90.992 691.316 92.176C690.388 91.312 689.108 90.32 687.86 89.488C688.244 89.104 688.628 88.688 688.98 88.272H694.004ZM696.148 97.744H692.212C692.724 96.976 693.204 96.176 693.62 95.408L691.412 95.024C693.78 92.912 695.7 90.224 696.852 86.864L695.444 86.192L695.028 86.288H690.42C690.996 85.392 691.54 84.464 691.988 83.568L689.844 83.184C688.756 85.616 686.548 88.592 683.38 90.736C683.892 90.992 684.596 91.632 684.884 92.112C685.46 91.696 686.004 91.248 686.484 90.832C687.732 91.728 689.012 92.784 689.844 93.648C688.052 95.216 686.036 96.4 683.956 97.2C684.404 97.584 684.98 98.352 685.236 98.832C687.444 97.936 689.524 96.688 691.412 95.024C690.1 97.68 687.476 100.784 683.508 102.992C683.988 103.28 684.66 103.984 684.916 104.464C685.78 103.952 686.516 103.472 687.252 102.896C688.596 103.952 689.972 105.296 690.868 106.352C688.756 108.304 686.228 109.712 683.54 110.544C683.988 110.96 684.564 111.824 684.788 112.336C690.804 110.256 695.956 105.904 698.004 98.288L696.564 97.648L696.148 97.744ZM705.076 95.6V102.896H701.524V95.6H705.076ZM707.06 104.848V93.616H699.54V107.28H701.524V104.848H707.06ZM702.036 87.952C702.548 86.608 703.06 85.232 703.476 83.824L701.204 83.312C700.116 87.44 698.196 91.504 695.796 94.096C696.308 94.448 697.236 95.216 697.652 95.568C698.9 94.064 700.052 92.208 701.076 90.064H709.556C709.3 103.568 708.98 108.432 708.212 109.424C707.924 109.872 707.636 110 707.124 109.968C706.484 109.968 705.108 109.968 703.508 109.84C703.924 110.48 704.18 111.472 704.212 112.176C705.652 112.24 707.156 112.272 708.084 112.144C709.044 112.048 709.684 111.76 710.324 110.864C711.348 109.392 711.604 104.496 711.86 89.2C711.892 88.88 711.892 87.952 711.892 87.952H702.036ZM745.524 91.056V88.752H732.148L734.388 87.792C733.908 86.48 732.948 84.56 732.052 83.056L729.812 83.952C730.612 85.424 731.572 87.472 731.956 88.752H718.004V91.056H726.644C726.292 98.352 725.492 106.576 717.3 110.64C717.908 111.088 718.644 111.92 719.028 112.528C725.044 109.328 727.412 104.08 728.436 98.448H739.86C739.316 105.648 738.708 108.72 737.748 109.552C737.364 109.84 736.98 109.904 736.244 109.904C735.38 109.904 733.172 109.872 730.868 109.68C731.348 110.32 731.668 111.28 731.732 112.016C733.844 112.144 735.956 112.176 737.076 112.112C738.324 112.016 739.06 111.792 739.828 110.992C741.076 109.744 741.716 106.288 742.324 97.296C742.388 96.944 742.42 96.144 742.42 96.144H728.788C729.012 94.448 729.14 92.752 729.236 91.056H745.524ZM757.588 83.344C756.02 88.176 753.396 92.944 750.58 96.048C750.996 96.592 751.7 97.808 751.956 98.384C752.82 97.36 753.716 96.208 754.516 94.96V112.4H756.788V91.088C757.972 88.848 758.996 86.416 759.828 84.016L757.588 83.344ZM762.932 100.08V96.784H768.532V98.384C768.532 98.928 768.532 99.536 768.5 100.08H762.932ZM762.932 91.728H768.532V95.024H762.932V91.728ZM776.052 91.728V95.024H770.868V91.728H776.052ZM776.052 100.08H770.804C770.868 99.536 770.868 98.928 770.868 98.384V96.784H776.052V100.08ZM778.388 101.936V89.872H770.868V87.216H779.476V85.072H759.86V87.216H768.532V89.872H760.692V101.936H768.308C768.02 103.6 767.412 105.168 766.132 106.576C764.34 105.552 762.9 104.304 761.844 102.736L759.828 103.504C760.98 105.328 762.548 106.832 764.404 108.016C762.9 109.072 760.788 109.936 757.94 110.608C758.42 111.088 759.06 112.016 759.38 112.56C762.516 111.664 764.82 110.544 766.484 109.232C769.844 110.864 774.036 111.824 778.804 112.272C779.124 111.568 779.7 110.608 780.212 110.064C775.54 109.744 771.476 108.976 768.18 107.6C769.62 105.872 770.292 103.952 770.612 101.936H778.388ZM788.564 87.152H798.996V91.248H788.564V87.152ZM801.364 96.656H796.084V93.36H801.236V85.04H786.42V95.792C786.42 100.208 786.228 106.224 783.988 110.48C784.468 110.704 785.396 111.408 785.748 111.856C788.212 107.312 788.564 100.496 788.564 95.792V93.36H794.036V96.656H789.108V108.976H790.932V98.672H794.036V112.368H796.084V98.672H799.412V106.384C799.412 106.672 799.348 106.768 799.028 106.768C798.708 106.8 797.876 106.8 796.692 106.768C796.98 107.344 797.268 108.144 797.332 108.72C798.868 108.72 799.86 108.688 800.564 108.336C801.236 107.984 801.364 107.376 801.364 106.416V96.656ZM805.812 86.576H803.572V104.4H805.812V86.576ZM809.94 83.856V109.264C809.94 109.808 809.78 109.968 809.268 109.968C808.692 110 806.932 110.032 805.012 109.968C805.364 110.64 805.716 111.728 805.844 112.4C808.18 112.4 809.94 112.336 810.868 111.952C811.86 111.536 812.212 110.832 812.212 109.264V83.856H809.94ZM834.292 98.96C837.78 101.52 842.004 105.296 843.924 107.728L845.716 106.352C844.628 105.04 842.868 103.344 840.948 101.712C842.676 100.72 844.724 99.376 846.356 98.064L844.532 96.624C843.284 97.808 841.172 99.376 839.444 100.464C838.26 99.472 837.044 98.544 835.924 97.744L834.292 98.96ZM840.884 86.672V89.68H831.7V86.672H840.884ZM831.7 94.608V91.472H840.884V94.608H831.7ZM831.7 104.784V96.592H843.124V84.688H829.46V104.208C829.46 105.456 828.82 106 828.372 106.224C828.692 106.672 829.172 107.568 829.3 108.08C829.94 107.632 830.9 107.28 837.62 105.2C837.556 104.688 837.46 103.792 837.46 103.152L831.7 104.784ZM825.3 88.112C824.404 86.832 822.644 84.784 821.204 83.248L819.412 84.304C820.852 85.872 822.58 88.08 823.476 89.392L825.3 88.112ZM825.524 98.416L825.108 98.48H821.268C823.124 96.336 825.556 93.04 826.964 91.184L825.332 90.384L824.788 90.608H818.132V92.56H823.348C821.972 94.48 820.084 96.976 819.316 97.712C818.772 98.288 818.228 98.512 817.748 98.64C818.004 99.152 818.516 100.304 818.676 100.88C818.9 100.624 819.732 100.432 820.564 100.432H824.244C823.156 105.488 820.756 108.976 817.524 110.896C818.004 111.216 818.772 112.048 819.092 112.56C820.788 111.44 822.292 109.936 823.508 107.952C825.972 111.344 829.94 111.984 836.212 111.984C839.668 111.984 843.636 111.888 846.58 111.728C846.708 111.056 847.028 109.968 847.38 109.456C844.148 109.712 839.54 109.872 836.244 109.872C830.548 109.872 826.612 109.392 824.468 106.192C825.492 104.176 826.228 101.744 826.708 98.896L825.524 98.416ZM861.876 97.168H855.156V90.48H861.876V97.168ZM855.156 106.96V99.28H861.876V106.96H855.156ZM857.844 83.152C857.62 84.656 857.044 86.8 856.564 88.336H852.98V111.632H855.156V109.104H864.052V88.336H858.74C859.284 86.96 859.86 85.2 860.404 83.632L857.844 83.152ZM879.7 88.24H870.132C870.676 86.736 871.124 85.2 871.508 83.632L869.236 83.088C868.212 87.472 866.484 91.888 864.34 94.704C864.852 95.024 865.876 95.664 866.292 96.048C867.412 94.544 868.404 92.592 869.3 90.448H877.428C877.012 103.184 876.532 108.048 875.476 109.168C875.156 109.584 874.804 109.648 874.164 109.648C873.428 109.648 871.508 109.648 869.428 109.456C869.876 110.128 870.164 111.088 870.228 111.792C872.02 111.888 873.844 111.952 874.964 111.824C876.052 111.728 876.788 111.44 877.492 110.544C878.772 108.976 879.188 104.048 879.7 89.456V88.24ZM874.644 102.64C873.62 100.752 871.412 97.68 869.62 95.408L867.764 96.496C869.524 98.8 871.668 101.968 872.628 103.888L874.644 102.64ZM913.524 91.056V88.752H900.148L902.388 87.792C901.908 86.48 900.948 84.56 900.052 83.056L897.812 83.952C898.612 85.424 899.572 87.472 899.956 88.752H886.004V91.056H894.644C894.292 98.352 893.492 106.576 885.3 110.64C885.908 111.088 886.644 111.92 887.028 112.528C893.044 109.328 895.412 104.08 896.436 98.448H907.86C907.316 105.648 906.708 108.72 905.748 109.552C905.364 109.84 904.98 109.904 904.244 109.904C903.38 109.904 901.172 109.872 898.868 109.68C899.348 110.32 899.668 111.28 899.732 112.016C901.844 112.144 903.956 112.176 905.076 112.112C906.324 112.016 907.06 111.792 907.828 110.992C909.076 109.744 909.716 106.288 910.324 97.296C910.388 96.944 910.42 96.144 910.42 96.144H896.788C897.012 94.448 897.14 92.752 897.236 91.056H913.524ZM925.972 95.376C924.66 94.352 922.036 92.976 920.02 92.176L918.74 93.904C920.82 94.832 923.348 96.272 924.66 97.36L925.972 95.376ZM921.812 112.016C923.7 109.072 925.94 105.104 927.604 101.744L925.876 100.176C924.052 103.792 921.524 107.984 919.828 110.416L921.812 112.016ZM920.468 85.296C922.58 86.256 925.172 87.792 926.452 88.88L927.828 86.896C926.484 85.872 923.86 84.432 921.748 83.568L920.468 85.296ZM947.316 111.344C946.324 108.88 943.924 105.072 941.652 102.288L939.764 103.184C940.756 104.432 941.716 105.872 942.612 107.312L932.5 108.432C934.484 105.744 936.468 102.352 938.132 98.96H947.188V96.688H938.772V90.992H945.844V88.72H938.772V83.216H936.404V88.72H929.588V90.992H936.404V96.688H928.18V98.96H935.316C933.716 102.544 931.604 105.936 930.9 106.896C930.1 108.048 929.46 108.816 928.852 108.976C929.14 109.616 929.524 110.8 929.652 111.344C930.516 110.928 931.86 110.704 943.732 109.232C944.34 110.416 944.884 111.504 945.204 112.4L947.316 111.344Z" fill="white"/>
<path d="M1044.38 75.984C1047.74 74.8 1049.91 72.176 1049.91 68.72C1049.91 66.48 1048.95 65.04 1047.19 65.04C1045.88 65.04 1044.76 65.84 1044.76 67.344C1044.76 68.848 1045.85 69.616 1047.16 69.616C1047.35 69.616 1047.51 69.616 1047.7 69.584C1047.54 71.76 1046.14 73.264 1043.67 74.288L1044.38 75.984ZM1089.75 67.44V65.264H1081.75C1081.91 63.6 1082.01 61.872 1082.07 60.048H1079.74C1079.67 61.872 1079.58 63.632 1079.42 65.264H1071.45V67.44H1079.13C1078.36 72.112 1076.44 75.76 1071.48 77.936C1071.96 78.384 1072.66 79.248 1072.95 79.824C1077.21 77.872 1079.38 74.896 1080.6 71.184C1083.48 73.904 1086.52 77.264 1088.06 79.504L1089.75 78.096C1087.99 75.632 1084.44 71.856 1081.14 69.072C1081.27 68.528 1081.37 68.016 1081.46 67.44H1089.75ZM1069.56 80.816V58.704H1091.64V80.816H1069.56ZM1067.35 56.528V84.432H1069.56V82.864H1091.64V84.432H1093.94V56.528H1067.35ZM1110.17 59.568C1109.53 58.384 1108.15 56.56 1106.9 55.312L1104.86 56.176C1106.07 57.488 1107.42 59.376 1107.99 60.592L1110.17 59.568ZM1103.35 84.24C1105.27 82.352 1106.36 79.312 1107.1 76.656L1105.11 76.016C1104.47 78.48 1103.29 81.296 1101.5 82.96L1103.35 84.24ZM1109.14 76.72C1109.75 78.8 1110.07 81.392 1110.01 83.12L1112.09 82.832C1112.09 81.104 1111.74 78.512 1111.13 76.464L1109.14 76.72ZM1113.85 76.432C1114.65 78.192 1115.38 80.528 1115.61 82.032L1117.59 81.488C1117.34 80.016 1116.54 77.744 1115.7 76.016L1113.85 76.432ZM1120.76 62.832C1120.5 64.112 1120.22 65.392 1119.93 66.416H1112.09C1112.79 65.264 1113.46 64.048 1114.04 62.832H1120.76ZM1107.83 72.144C1108.89 70.992 1109.85 69.776 1110.74 68.496H1123.16C1122.9 69.776 1122.62 71.088 1122.36 72.144H1107.83ZM1124.57 72.144C1124.95 70.48 1125.4 68.272 1125.78 66.416H1122.14C1122.55 64.752 1123 62.544 1123.35 60.656H1115.03C1115.74 59.088 1116.31 57.456 1116.86 55.824L1114.49 55.216C1113.94 57.04 1113.27 58.864 1112.5 60.656H1100.92V62.832H1111.45C1108.7 68.176 1104.7 72.976 1099.29 76.08C1099.7 76.56 1100.31 77.52 1100.6 78.064C1102.49 76.944 1104.22 75.664 1105.75 74.224H1125.5C1124.98 79.312 1124.44 81.424 1123.8 82.096C1123.48 82.352 1123.16 82.416 1122.58 82.416C1121.98 82.416 1120.44 82.416 1118.84 82.224C1119.22 82.832 1119.48 83.76 1119.54 84.4C1121.18 84.496 1122.74 84.496 1123.54 84.432C1124.5 84.368 1125.11 84.176 1125.72 83.568C1126.71 82.512 1127.32 79.856 1127.9 73.168C1127.96 72.848 1127.99 72.144 1127.99 72.144H1124.57ZM1122.68 79.536C1122.26 78.384 1121.24 76.592 1120.25 75.312L1118.58 75.952C1119.54 77.264 1120.54 79.12 1120.92 80.272L1122.68 79.536Z" fill="black"/>
<rect x="1171" width="564" height="136" rx="10" fill="#8D887C"/>
<path d="M1227.94 36.112C1227.91 39.28 1227.66 43.088 1226.09 46.864C1225 45.84 1223.88 44.912 1222.79 44.016C1223.37 41.808 1223.94 39.12 1224.42 36.336L1227.94 36.112ZM1231.72 35.856L1231.75 33.776L1230.02 33.872V31.696H1227.94V34L1224.81 34.16C1225.22 31.824 1225.54 29.52 1225.77 27.44L1223.62 27.344C1223.43 29.456 1223.11 31.856 1222.76 34.256L1219.85 34.384L1220.1 36.592L1222.38 36.464C1221.8 39.6 1221.13 42.608 1220.49 44.752C1221.93 45.968 1223.56 47.408 1225.1 48.88C1223.91 50.96 1222.22 53.008 1219.85 54.832C1220.33 55.12 1221.1 55.856 1221.42 56.304C1223.72 54.48 1225.42 52.496 1226.66 50.416C1227.98 51.76 1229.16 53.072 1229.96 54.128L1231.37 52.176C1230.54 51.088 1229.19 49.744 1227.72 48.368C1229.67 44.08 1229.99 39.632 1230.02 35.984L1231.72 35.856ZM1238.25 53.808C1236.42 53.808 1236.1 53.456 1236.1 51.824V39.76L1239.82 38.384V48.752H1241.93V37.616L1245.93 36.144C1245.86 40.048 1245.67 44.656 1245.38 47.472L1247.34 48.016C1247.85 44.464 1248.14 38.704 1248.23 34.32L1248.33 33.904L1246.57 33.328L1246.12 33.712L1241.93 35.248V27.408H1239.82V36.048L1236.1 37.424V30.16H1233.9V38.224L1230.89 39.344L1231.53 41.456L1233.9 40.592V51.792C1233.9 55.152 1234.89 56.016 1238.15 56.016H1245.1C1248.2 56.016 1248.9 54.512 1249.26 50.064C1248.62 49.936 1247.72 49.552 1247.18 49.136C1246.95 52.912 1246.66 53.808 1245.03 53.808H1238.25ZM1257 34.64H1266.95V41.648H1269.26V34.64H1279.37V39.632H1281.7V32.784H1269.26V30.416H1280.23V28.592H1256.1V30.416H1266.95V32.784H1254.73V39.632H1257V34.64ZM1278.57 40.4C1276.84 39.824 1273.61 39.12 1271.14 38.864L1270.6 40.304C1273.06 40.656 1276.33 41.392 1278.06 42.032L1278.57 40.4ZM1277.03 35.056C1275.46 35.6 1272.81 36.592 1270.98 37.008L1271.85 38.224C1273.67 37.84 1276.26 37.168 1278.09 36.432L1277.03 35.056ZM1258.38 36.496C1260.46 36.912 1263.11 37.712 1264.55 38.352L1265.22 36.912C1263.78 36.272 1261.1 35.536 1259.08 35.216L1258.38 36.496ZM1258.25 41.936C1260.36 41.52 1262.73 41.072 1265.22 40.528L1265.16 39.024C1262.28 39.472 1259.56 39.888 1257.58 40.112L1258.25 41.936ZM1282.12 44.528V42.576H1254.34V44.528H1266.73C1266.54 45.296 1266.28 46.096 1266.06 46.832H1256.84V56.4H1259.11V48.784H1263.85V56.208H1266.02V48.784H1270.86V56.208H1273.03V48.784H1278.02V54.064C1278.02 54.352 1277.93 54.448 1277.58 54.48C1277.22 54.512 1276.14 54.512 1274.86 54.48C1275.14 55.056 1275.5 55.856 1275.62 56.464C1277.32 56.464 1278.54 56.464 1279.3 56.08C1280.14 55.728 1280.33 55.184 1280.33 54.096V46.832H1268.3C1268.58 46.128 1268.87 45.328 1269.16 44.528H1282.12ZM1304.2 33.424H1299.05V30.736H1304.2V33.424ZM1311.78 35.376V39.696H1306.47V35.376H1311.78ZM1299.05 35.376H1304.2V39.696H1299.05V35.376ZM1291.98 35.376H1296.78V39.696H1291.98V35.376ZM1296.78 33.424H1289.7V41.648H1314.12V33.424H1306.47V30.736H1315.46V28.624H1288.14V30.736H1296.78V33.424ZM1306.63 47.44C1305.48 49.008 1304.01 50.224 1302.22 51.184C1299.98 50.768 1297.7 50.32 1295.4 49.936C1295.98 49.2 1296.58 48.336 1297.19 47.44H1306.63ZM1315.98 47.44V45.392H1310.47C1310.66 45.008 1310.79 44.592 1310.92 44.208L1308.65 43.536C1308.42 44.208 1308.17 44.784 1307.85 45.392H1298.54C1299.14 44.464 1299.69 43.504 1300.1 42.576L1297.8 42.032C1297.26 43.088 1296.62 44.24 1295.88 45.392H1287.62V47.44H1294.54C1293.58 48.816 1292.58 50.128 1291.66 51.152C1294.18 51.568 1296.68 52.048 1299.08 52.528C1296.01 53.552 1292.23 54.096 1287.53 54.384C1287.91 54.928 1288.33 55.792 1288.49 56.464C1294.5 55.984 1299.21 55.056 1302.76 53.36C1306.98 54.32 1310.63 55.408 1313.29 56.4L1315.43 54.704C1312.78 53.744 1309.22 52.784 1305.32 51.888C1307.02 50.704 1308.39 49.232 1309.45 47.44H1315.98ZM1345.29 32.624H1334.7V30.096H1345.29V32.624ZM1345.29 36.848H1334.7V34.288H1345.29V36.848ZM1347.56 28.304H1332.52V38.672H1347.56V28.304ZM1330.18 41.168L1326.95 42.16V35.856H1330.47V33.648H1326.95V27.28H1324.74V33.648H1320.81V35.856H1324.74V42.864C1323.11 43.376 1321.64 43.824 1320.46 44.112L1321.03 46.416C1322.18 46.064 1323.43 45.68 1324.74 45.232V53.456C1324.74 53.936 1324.58 54.064 1324.2 54.064C1323.85 54.064 1322.57 54.064 1321.19 54.032C1321.51 54.704 1321.8 55.664 1321.9 56.24C1323.91 56.272 1325.13 56.176 1325.86 55.792C1326.66 55.408 1326.95 54.8 1326.95 53.488V44.528C1328.14 44.112 1329.32 43.76 1330.47 43.344L1330.18 41.168ZM1341.13 48.656H1347.75V46.704H1341.13V42.96H1349.35V40.944H1331.08V42.96H1338.89V53.072C1337.06 52.304 1335.62 50.832 1334.73 48.112C1334.98 47.056 1335.18 45.904 1335.34 44.72L1333.16 44.464C1332.65 49.2 1331.24 52.784 1328.39 55.024C1328.9 55.344 1329.8 56.08 1330.18 56.464C1331.85 54.96 1333.13 53.008 1333.99 50.608C1336.07 55.088 1339.43 55.952 1344.04 55.952H1349.61C1349.7 55.344 1349.99 54.352 1350.31 53.84C1349.22 53.872 1344.9 53.872 1344.14 53.872C1343.08 53.872 1342.06 53.808 1341.13 53.68V48.656ZM1359.02 47.536C1359.08 46.608 1359.11 45.744 1359.11 44.88V44.336H1366.15V47.536H1359.02ZM1366.15 39.248V42.48H1359.11V39.248H1366.15ZM1368.46 37.296H1356.94V44.88C1356.94 48.08 1356.71 52.176 1354.57 55.184C1355.11 55.408 1356.04 56.144 1356.36 56.56C1357.83 54.576 1358.5 51.952 1358.86 49.424H1366.15V53.68C1366.15 54.096 1366.02 54.224 1365.54 54.256C1365.13 54.288 1363.69 54.288 1362.09 54.224C1362.38 54.8 1362.73 55.696 1362.86 56.304C1365.03 56.304 1366.41 56.304 1367.3 55.92C1368.17 55.536 1368.46 54.928 1368.46 53.712V37.296ZM1378.76 53.456C1378.76 53.936 1378.6 54.064 1378.06 54.096C1377.58 54.128 1375.85 54.128 1373.9 54.064C1374.25 54.704 1374.63 55.696 1374.76 56.336C1377.19 56.368 1378.79 56.304 1379.82 55.92C1380.78 55.536 1381.1 54.896 1381.1 53.456V36.656H1378.76V53.456ZM1374.54 37.616H1372.33V50.608H1374.54V37.616ZM1375.75 32.272C1376.68 30.96 1377.74 29.392 1378.6 27.92L1376.1 27.088C1375.4 28.624 1374.18 30.736 1373.1 32.272H1363.56L1365.13 31.664C1364.52 30.416 1363.18 28.528 1361.93 27.184L1359.75 28.016C1360.84 29.296 1362.09 31.024 1362.66 32.272H1354.82V34.448H1383.21V32.272H1375.75ZM1404.1 49.68H1408.87V53.04H1404.1V49.68ZM1408.87 42.576H1404.1V39.344H1408.87V42.576ZM1408.87 47.824H1404.1V44.432H1408.87V47.824ZM1396.23 50.192H1392.68V40.848H1396.23V50.192ZM1417 53.04H1411.08V49.68H1415.66V47.824H1411.08V44.432H1415.66V42.576H1411.08V39.344H1416.07V37.328H1411.69C1411.3 36.24 1410.54 34.768 1409.9 33.584L1407.91 34.384C1408.36 35.28 1408.87 36.368 1409.29 37.328H1405.13C1406.15 35.856 1407.05 34.256 1407.85 32.528H1414.18V35.888H1416.33V30.48H1408.68C1409.06 29.584 1409.38 28.592 1409.67 27.632L1407.43 27.184C1407.11 28.304 1406.73 29.424 1406.31 30.48H1399.53V35.952H1401.61V32.528H1405.35C1403.62 36.016 1401.26 38.96 1398.31 41.008V38.768H1392.84C1393.51 36.56 1394.02 34.128 1394.44 31.664H1398.86V29.488H1388.36V31.664H1392.14C1391.3 36.944 1389.9 41.84 1387.59 45.104C1388.04 45.584 1388.71 46.672 1388.97 47.152C1389.58 46.352 1390.12 45.392 1390.63 44.432V54.896H1392.68V52.304H1398.31V41.136C1398.79 41.648 1399.43 42.544 1399.69 43.024C1400.42 42.448 1401.19 41.84 1401.86 41.168V56.464H1404.1V55.088H1417.03L1417 53.04ZM1429.1 27.312C1427.27 32.144 1424.2 36.88 1421.03 39.92C1421.45 40.464 1422.12 41.712 1422.38 42.224C1423.5 41.072 1424.65 39.728 1425.7 38.256V56.368H1427.98V34.8C1429.26 32.656 1430.41 30.32 1431.34 27.984L1429.1 27.312ZM1434.95 46.384C1433.61 48.848 1431.62 51.664 1429.8 53.52C1430.31 53.84 1431.24 54.512 1431.66 54.896C1433.45 52.848 1435.56 49.744 1437.06 47.056L1434.95 46.384ZM1434.63 30.864H1446.5V36.72H1434.63V30.864ZM1450.73 44.816V42.64H1441.67V38.832H1448.87V28.72H1432.39V38.832H1439.3V42.64H1430.06V44.816H1439.3V56.464H1441.67V44.816H1450.73ZM1443.46 47.344C1445.48 49.616 1447.82 52.752 1448.9 54.704L1450.82 53.52C1449.67 51.6 1447.34 48.624 1445.29 46.352L1443.46 47.344ZM1477.7 42.672H1464.36V39.44H1477.7V42.672ZM1464.26 48.08C1464.33 47.248 1464.36 46.48 1464.36 45.712V44.72H1477.7V48.08H1464.26ZM1483.78 33.584V31.344H1467.46C1467.94 30.192 1468.36 28.976 1468.71 27.792L1466.34 27.216C1465.96 28.592 1465.48 29.968 1464.94 31.344H1455.94V33.584H1463.91C1461.93 37.712 1459.05 41.488 1455.3 44.016C1455.75 44.496 1456.49 45.36 1456.81 45.872C1458.76 44.496 1460.49 42.8 1461.99 40.976V45.648C1461.99 48.688 1461.7 52.208 1459.05 54.768C1459.56 55.12 1460.42 56.112 1460.71 56.624C1462.6 54.864 1463.56 52.464 1463.98 50.128H1477.7V53.456C1477.7 53.936 1477.51 54.096 1476.97 54.128C1476.39 54.128 1474.47 54.16 1472.33 54.064C1472.68 54.736 1473.03 55.696 1473.13 56.4C1475.85 56.4 1477.64 56.368 1478.7 55.984C1479.72 55.6 1480.04 54.896 1480.04 53.456V37.296H1464.55C1465.26 36.112 1465.9 34.832 1466.5 33.584H1483.78ZM1498.09 36.336C1498.02 39.44 1497.61 43.152 1495.85 46.8C1494.63 45.744 1493.35 44.752 1492.14 43.824C1492.68 41.744 1493.29 39.184 1493.8 36.592L1498.09 36.336ZM1502.18 36.08L1502.22 33.904L1500.36 34V31.792H1498.12V34.128L1494.22 34.352C1494.63 31.984 1495.02 29.584 1495.27 27.44L1492.94 27.312C1492.71 29.488 1492.36 32.016 1491.91 34.448C1490.73 34.48 1489.64 34.544 1488.71 34.576L1488.97 36.848L1491.5 36.72C1490.86 39.696 1490.18 42.544 1489.54 44.624C1491.18 45.872 1493 47.344 1494.7 48.848C1493.35 50.96 1491.46 53.04 1488.84 54.896C1489.32 55.248 1490.15 56.016 1490.5 56.528C1493.1 54.64 1495.05 52.56 1496.46 50.416C1497.93 51.792 1499.24 53.104 1500.14 54.192L1501.7 52.208C1500.74 51.088 1499.27 49.744 1497.67 48.336C1499.78 44.112 1500.26 39.792 1500.36 36.208L1502.18 36.08ZM1517.99 40.72H1510.95V37.648C1513.19 35.696 1515.46 33.008 1517.03 30.64L1515.4 29.456L1514.86 29.584H1502.57V31.792H1513.22C1511.91 33.648 1510.18 35.728 1508.55 37.072V40.72H1501.16V42.992H1508.55V53.616C1508.55 54.064 1508.36 54.224 1507.85 54.224C1507.37 54.256 1505.61 54.256 1503.72 54.192C1504.07 54.864 1504.46 55.792 1504.58 56.464C1507.08 56.496 1508.62 56.432 1509.61 56.08C1510.6 55.696 1510.95 55.024 1510.95 53.616V42.992H1517.99V40.72ZM1532.78 41.168H1526.06V34.48H1532.78V41.168ZM1526.06 50.96V43.28H1532.78V50.96H1526.06ZM1528.74 27.152C1528.52 28.656 1527.94 30.8 1527.46 32.336H1523.88V55.632H1526.06V53.104H1534.95V32.336H1529.64C1530.18 30.96 1530.76 29.2 1531.3 27.632L1528.74 27.152ZM1550.6 32.24H1541.03C1541.58 30.736 1542.02 29.2 1542.41 27.632L1540.14 27.088C1539.11 31.472 1537.38 35.888 1535.24 38.704C1535.75 39.024 1536.78 39.664 1537.19 40.048C1538.31 38.544 1539.3 36.592 1540.2 34.448H1548.33C1547.91 47.184 1547.43 52.048 1546.38 53.168C1546.06 53.584 1545.7 53.648 1545.06 53.648C1544.33 53.648 1542.41 53.648 1540.33 53.456C1540.78 54.128 1541.06 55.088 1541.13 55.792C1542.92 55.888 1544.74 55.952 1545.86 55.824C1546.95 55.728 1547.69 55.44 1548.39 54.544C1549.67 52.976 1550.09 48.048 1550.6 33.456V32.24ZM1545.54 46.64C1544.52 44.752 1542.31 41.68 1540.52 39.408L1538.66 40.496C1540.42 42.8 1542.57 45.968 1543.53 47.888L1545.54 46.64ZM1584.87 32.848V30.608H1574.38C1573.83 29.488 1572.97 28.112 1572.17 27.024L1569.96 27.76C1570.57 28.592 1571.18 29.648 1571.66 30.608H1558.31V39.44C1558.31 44.048 1558.06 50.48 1555.62 55.024C1556.17 55.248 1557.19 55.952 1557.61 56.368C1560.23 51.536 1560.62 44.336 1560.62 39.472V32.848H1584.87ZM1565.83 34.672C1565.22 38.64 1563.69 41.904 1561.06 43.984C1561.54 44.272 1562.47 44.944 1562.82 45.328C1564.23 44.112 1565.38 42.576 1566.25 40.752C1567.59 42 1568.94 43.472 1569.64 44.464L1571.08 42.928C1570.22 41.808 1568.52 40.144 1567.02 38.8C1567.43 37.616 1567.78 36.304 1568.01 34.928L1565.83 34.672ZM1573.96 48.784H1583.02V46.704H1573.96V43.536C1574.47 43.888 1575.27 44.528 1575.62 44.88C1576.97 43.792 1578.09 42.416 1578.98 40.752C1580.71 42.256 1582.54 43.984 1583.53 45.168L1584.97 43.632C1583.85 42.384 1581.67 40.464 1579.78 38.928C1580.26 37.712 1580.65 36.4 1580.9 34.992L1578.76 34.672C1578.09 38.448 1576.55 41.52 1573.96 43.472V34.128H1571.66V46.704H1562.82V48.784H1571.66V53.52H1560.78V55.632H1584.97V53.52H1573.96V48.784ZM1610.25 31.952C1609.96 30.64 1609.22 28.592 1608.65 26.992L1606.41 27.568C1607.02 29.168 1607.66 31.312 1607.91 32.656L1610.25 31.952ZM1617.29 33.008H1600.04V35.312H1617.29V33.008ZM1606.63 50.704C1606.28 47.44 1605.32 41.712 1604.26 37.264L1602.12 37.744C1603.11 42.192 1604.04 48.048 1604.3 51.376L1606.63 50.704ZM1597.42 27.344C1595.66 32.208 1592.68 36.976 1589.54 40.048C1589.99 40.592 1590.66 41.808 1590.89 42.384C1591.98 41.232 1593.06 39.952 1594.06 38.512V56.4H1596.42V34.8C1597.67 32.624 1598.79 30.352 1599.66 28.016L1597.42 27.344ZM1612.07 52.848C1613.22 48.592 1614.54 42.352 1615.37 37.456L1612.9 37.008C1612.3 41.776 1611.02 48.56 1609.86 52.848H1598.7V55.152H1618.6V52.848H1612.07ZM1635.18 47.984C1638.54 46.8 1640.71 44.176 1640.71 40.72C1640.71 38.48 1639.75 37.04 1637.99 37.04C1636.68 37.04 1635.56 37.84 1635.56 39.344C1635.56 40.848 1636.65 41.616 1637.96 41.616C1638.15 41.616 1638.31 41.616 1638.5 41.584C1638.34 43.76 1636.94 45.264 1634.47 46.288L1635.18 47.984ZM1685.67 29.616H1677.96C1677.64 28.816 1677.13 27.76 1676.58 26.992L1674.63 27.568C1674.98 28.176 1675.34 28.912 1675.62 29.616H1667.43V31.472H1685.67V29.616ZM1663.43 31.664C1663.21 30.544 1662.41 28.784 1661.61 27.44L1659.88 28.048C1660.65 29.392 1661.38 31.216 1661.64 32.336L1663.43 31.664ZM1666.79 32.656H1656.78V34.608H1666.79V32.656ZM1664.14 47.312V52.688H1659.69V47.312H1664.14ZM1665.93 45.392H1657.93V56.112H1659.69V54.608H1665.93V45.392ZM1658.09 42.992H1665.93V41.072H1658.09V42.992ZM1658.09 38.736H1665.93V36.848H1658.09V38.736ZM1674.02 44.752H1678.82V46.48H1674.02V44.752ZM1674.02 41.456H1678.82V43.152H1674.02V41.456ZM1670.47 34.192H1673.83V36.688H1670.47V34.192ZM1679.27 34.192H1682.73V36.688H1679.27V34.192ZM1684.1 48.656C1683.14 49.328 1681.64 50.256 1680.3 50.896C1679.62 50.096 1679.02 49.168 1678.54 48.208H1685.99V46.48H1681V44.752H1684.68V43.152H1681V41.456H1685.29V39.856H1681V38.128H1684.65V32.752H1677.42V38.128H1678.82V39.856H1674.02V38.128H1675.72V32.752H1668.65V38.128H1671.88V39.856H1667.98V41.456H1671.88V43.152H1668.55V44.752H1671.88V46.48H1666.98V48.208H1673.45C1671.59 49.52 1668.97 50.576 1666.47 51.216C1666.86 51.6 1667.46 52.4 1667.72 52.784C1668.9 52.4 1670.12 51.92 1671.3 51.344V52.336C1671.3 53.744 1670.54 54.544 1670.06 54.896C1670.41 55.248 1670.92 55.984 1671.11 56.432C1671.62 56.112 1672.49 55.824 1678.06 54.576C1677.99 54.128 1677.96 53.328 1677.99 52.752L1673.22 53.68V50.352C1674.31 49.68 1675.3 49.008 1676.1 48.208H1676.52C1678.09 52.112 1680.94 55.024 1685 56.304C1685.29 55.76 1685.9 55.024 1686.34 54.576C1684.49 54.096 1682.86 53.232 1681.51 52.112C1682.79 51.472 1684.26 50.704 1685.38 49.872L1684.1 48.656ZM1277.61 83.344C1275.82 88.208 1272.84 92.976 1269.7 96.048C1270.15 96.592 1270.82 97.808 1271.05 98.352C1272.14 97.232 1273.22 95.952 1274.22 94.512V112.4H1276.49V91.024C1277.77 88.816 1278.92 86.416 1279.82 84.048L1277.61 83.344ZM1286.73 110C1284.49 110 1284.07 109.584 1284.07 107.728V96.336L1288.74 94.512V105.36H1290.92V93.648L1296.04 91.664C1295.98 95.824 1295.78 100.72 1295.46 103.728L1297.42 104.304C1297.93 100.528 1298.25 94.416 1298.34 89.808L1298.44 89.36L1296.68 88.816L1296.23 89.168L1290.92 91.216V83.28H1288.74V92.048L1284.07 93.872V86.448H1281.8V94.768L1277.74 96.368L1278.63 98.448L1281.8 97.232V107.728C1281.8 111.248 1282.92 112.144 1286.7 112.144H1295.11C1298.6 112.144 1299.34 110.736 1299.75 106.288C1299.08 106.16 1298.15 105.776 1297.58 105.392C1297.32 109.136 1296.97 110 1295.05 110H1286.73ZM1318.41 94.832V102.128H1310.06V94.832H1318.41ZM1320.74 104.4V92.528H1307.75V106.96H1310.06V104.4H1320.74ZM1332.81 85.488H1304.49V87.856H1326.44V109.008C1326.44 109.68 1326.22 109.904 1325.51 109.936C1324.78 109.968 1322.15 110 1319.59 109.872C1319.98 110.544 1320.46 111.728 1320.62 112.4C1323.75 112.4 1325.96 112.4 1327.24 111.952C1328.46 111.6 1328.87 110.736 1328.87 109.04V87.856H1332.81V85.488ZM1355.08 94.832C1354.18 92.656 1352.14 89.52 1350.02 87.184L1347.91 88.24C1349.93 90.576 1351.98 93.84 1352.84 96.048L1355.08 94.832ZM1350.54 101.04C1348.42 101.936 1346.28 102.864 1344.23 103.728L1343.75 84.848L1341.32 84.944L1341.86 104.72C1340.2 105.424 1338.7 106.032 1337.45 106.512L1338.31 108.976C1341.83 107.44 1346.66 105.328 1351.08 103.312L1350.54 101.04ZM1367.14 110.512C1365.51 108.144 1362.12 104.592 1359.27 101.712C1361.51 97.424 1362.73 91.984 1363.5 85.136L1360.9 84.88C1359.5 98.704 1356.1 106.448 1345.13 110.48C1345.7 110.96 1346.7 112.048 1347.02 112.528C1352.01 110.448 1355.5 107.664 1357.99 103.888C1360.71 106.768 1363.69 110.128 1365.16 112.336L1367.14 110.512ZM1384.33 89.456H1397.64V93.488H1399.94V87.312H1392.46C1392.17 86.064 1391.59 84.432 1391.05 83.152L1388.74 83.568C1389.16 84.72 1389.61 86.128 1389.93 87.312H1382.09V93.52H1384.33V89.456ZM1394.12 98.32C1393.51 101.04 1392.55 103.248 1391.14 104.976C1389.51 104.08 1387.88 103.216 1386.28 102.448C1386.92 101.232 1387.59 99.824 1388.23 98.32H1394.12ZM1400.49 98.32V96.176H1397C1397.13 95.376 1397.22 94.512 1397.32 93.648L1394.79 93.52C1394.73 94.448 1394.63 95.344 1394.5 96.176H1389.16C1389.83 94.416 1390.5 92.656 1390.98 91.024L1388.55 90.704C1388.07 92.4 1387.4 94.288 1386.6 96.176H1381.19V98.096L1377.83 99.088V91.856H1381.22V89.648H1377.83V83.248H1375.53V89.648H1371.24V91.856H1375.53V99.792C1373.77 100.336 1372.17 100.784 1370.89 101.136L1371.46 103.44C1372.68 103.056 1374.06 102.608 1375.53 102.128V109.712C1375.53 110.16 1375.34 110.32 1374.92 110.32C1374.54 110.32 1373.19 110.32 1371.75 110.288C1372.04 110.928 1372.39 111.856 1372.49 112.464C1374.6 112.464 1375.88 112.4 1376.68 112.048C1377.51 111.664 1377.83 111.024 1377.83 109.712V101.424L1381.86 100.112L1381.64 98.32H1385.7C1384.87 100.176 1383.98 101.936 1383.21 103.28C1385.16 104.208 1387.4 105.36 1389.54 106.576C1387.37 108.336 1384.42 109.52 1380.49 110.288C1380.94 110.864 1381.54 111.92 1381.7 112.496C1386.06 111.44 1389.29 109.968 1391.66 107.824C1394.38 109.424 1396.84 111.056 1398.5 112.368L1400.07 110.448C1398.41 109.168 1395.91 107.632 1393.22 106.128C1394.82 104.08 1395.88 101.552 1396.62 98.32H1400.49ZM1413.51 86.736V92.304H1408.71V86.736H1413.51ZM1408.71 100.656V94.416H1413.51V100.656H1408.71ZM1408.71 102.8H1415.72V84.592H1406.47V104.432H1408.71V102.8ZM1407.14 112.624C1408.62 110.8 1410.22 108.048 1411.3 105.68L1409.06 105.04C1407.98 107.376 1406.31 109.968 1404.87 111.6L1407.14 112.624ZM1414.31 105.968C1414.73 108.048 1414.98 110.736 1414.98 112.336L1417.32 111.984C1417.29 110.416 1416.94 107.76 1416.52 105.712L1414.31 105.968ZM1430.47 86.672C1430.25 89.68 1429.99 90.928 1429.61 91.344C1429.42 91.568 1429.1 91.632 1428.62 91.632C1428.14 91.632 1426.82 91.6 1425.42 91.472C1425.77 92.016 1425.99 92.848 1426.06 93.424C1427.5 93.52 1428.9 93.52 1429.64 93.456C1430.47 93.424 1431.02 93.232 1431.5 92.72C1432.2 91.984 1432.49 90.096 1432.78 85.488C1432.81 85.168 1432.84 84.56 1432.84 84.56H1417.13V86.672H1422.44C1421.8 89.648 1420.3 91.664 1416.14 92.784C1416.58 93.2 1417.19 94.064 1417.42 94.576C1422.31 93.104 1424.04 90.544 1424.78 86.672H1430.47ZM1429.61 101.84H1420.3V96.976H1429.61V101.84ZM1431.94 95.024H1418.06V103.824H1431.94V95.024ZM1421.13 105.872C1421.96 107.888 1422.76 110.64 1423.08 112.272L1425.42 111.728C1425.1 110.064 1424.2 107.44 1423.34 105.424L1421.13 105.872ZM1427.62 105.68C1429.13 107.792 1430.89 110.736 1431.62 112.496L1433.9 111.472C1433.06 109.68 1431.27 106.864 1429.74 104.784L1427.62 105.68ZM1451.21 105.904C1450.41 104.976 1447.08 101.232 1445.74 99.888C1445.8 99.28 1445.86 98.64 1445.9 98.032H1451.08V95.888H1445.99C1445.99 95.44 1445.99 94.992 1445.99 94.544V90.64H1450.5V88.528H1445.99V83.568H1443.78V88.528H1439.18V90.64H1443.78V94.544C1443.78 94.992 1443.78 95.44 1443.78 95.888H1438.5V98.032H1443.69C1443.43 102.384 1442.38 107.312 1438.31 110.352C1438.86 110.736 1439.62 111.568 1439.91 112.08C1443.11 109.456 1444.65 105.936 1445.38 102.32C1446.86 104.048 1448.78 106.448 1449.58 107.664L1451.21 105.904ZM1454.47 96.816H1463.59V100.016H1454.47V96.816ZM1454.47 91.728H1463.59V94.864H1454.47V91.728ZM1454.47 86.64H1463.59V89.744H1454.47V86.64ZM1462.89 109.776C1462.22 109.776 1462.09 109.68 1462.09 108.944V102.16H1465.9V84.464H1452.26V102.16H1454.82C1454.31 106.096 1452.94 109.04 1448.07 110.608C1448.55 111.024 1449.19 111.888 1449.42 112.4C1454.86 110.48 1456.49 106.992 1457.06 102.16H1459.91V108.944C1459.91 111.184 1460.36 111.888 1462.57 111.888H1465.16C1467.05 111.888 1467.62 110.8 1467.82 106.448C1467.21 106.288 1466.28 105.936 1465.83 105.552C1465.74 109.296 1465.61 109.776 1464.9 109.776H1462.89ZM1472.2 111.664C1476.71 111.472 1483.69 111.088 1490.28 110.736L1490.34 108.912C1483.56 109.232 1476.46 109.552 1472.01 109.744L1472.2 111.664ZM1486.38 103.536H1482.28V102H1486.38V103.536ZM1486.38 106.384H1482.28V104.848H1486.38V106.384ZM1476.1 104.848H1480.23V106.384H1476.1V104.848ZM1476.1 102H1480.23V103.536H1476.1V102ZM1474.15 100.688V107.728H1488.39V100.688H1474.15ZM1486.34 91.728H1482.15V90H1486.34V91.728ZM1482.15 86.8H1486.34V88.368H1482.15V86.8ZM1488.42 85.296H1482.15V83.248H1479.98V85.296H1474.09V86.8H1479.98V88.368H1472.04V90H1479.98V91.728H1473.96V93.232H1479.98V94.672H1473.74V96.176H1479.98V97.648H1472.23V99.312H1490.22V97.648H1482.15V96.176H1488.87V94.672H1482.15V93.232H1488.42V90H1490.41V88.368H1488.42V85.296ZM1493.77 87.056H1491.59V104.656H1493.77V87.056ZM1497.64 83.856V109.456C1497.64 109.968 1497.42 110.128 1496.87 110.16C1496.42 110.192 1494.76 110.192 1492.9 110.128C1493.22 110.768 1493.58 111.824 1493.64 112.432C1496.2 112.432 1497.7 112.368 1498.6 112.016C1499.53 111.6 1499.88 110.928 1499.88 109.456V83.856H1497.64ZM1514.89 92.336C1514.82 95.44 1514.41 99.152 1512.65 102.8C1511.43 101.744 1510.15 100.752 1508.94 99.824C1509.48 97.744 1510.09 95.184 1510.6 92.592L1514.89 92.336ZM1518.98 92.08L1519.02 89.904L1517.16 90V87.792H1514.92V90.128L1511.02 90.352C1511.43 87.984 1511.82 85.584 1512.07 83.44L1509.74 83.312C1509.51 85.488 1509.16 88.016 1508.71 90.448C1507.53 90.48 1506.44 90.544 1505.51 90.576L1505.77 92.848L1508.3 92.72C1507.66 95.696 1506.98 98.544 1506.34 100.624C1507.98 101.872 1509.8 103.344 1511.5 104.848C1510.15 106.96 1508.26 109.04 1505.64 110.896C1506.12 111.248 1506.95 112.016 1507.3 112.528C1509.9 110.64 1511.85 108.56 1513.26 106.416C1514.73 107.792 1516.04 109.104 1516.94 110.192L1518.5 108.208C1517.54 107.088 1516.07 105.744 1514.47 104.336C1516.58 100.112 1517.06 95.792 1517.16 92.208L1518.98 92.08ZM1534.79 96.72H1527.75V93.648C1529.99 91.696 1532.26 89.008 1533.83 86.64L1532.2 85.456L1531.66 85.584H1519.37V87.792H1530.02C1528.71 89.648 1526.98 91.728 1525.35 93.072V96.72H1517.96V98.992H1525.35V109.616C1525.35 110.064 1525.16 110.224 1524.65 110.224C1524.17 110.256 1522.41 110.256 1520.52 110.192C1520.87 110.864 1521.26 111.792 1521.38 112.464C1523.88 112.496 1525.42 112.432 1526.41 112.08C1527.4 111.696 1527.75 111.024 1527.75 109.616V98.992H1534.79V96.72ZM1548.49 92.336C1548.42 95.44 1548.01 99.152 1546.25 102.8C1545.03 101.744 1543.75 100.752 1542.54 99.824C1543.08 97.744 1543.69 95.184 1544.2 92.592L1548.49 92.336ZM1552.58 92.08L1552.62 89.904L1550.76 90V87.792H1548.52V90.128L1544.62 90.352C1545.03 87.984 1545.42 85.584 1545.67 83.44L1543.34 83.312C1543.11 85.488 1542.76 88.016 1542.31 90.448C1541.13 90.48 1540.04 90.544 1539.11 90.576L1539.37 92.848L1541.9 92.72C1541.26 95.696 1540.58 98.544 1539.94 100.624C1541.58 101.872 1543.4 103.344 1545.1 104.848C1543.75 106.96 1541.86 109.04 1539.24 110.896C1539.72 111.248 1540.55 112.016 1540.9 112.528C1543.5 110.64 1545.45 108.56 1546.86 106.416C1548.33 107.792 1549.64 109.104 1550.54 110.192L1552.1 108.208C1551.14 107.088 1549.67 105.744 1548.07 104.336C1550.18 100.112 1550.66 95.792 1550.76 92.208L1552.58 92.08ZM1568.39 96.72H1561.35V93.648C1563.59 91.696 1565.86 89.008 1567.43 86.64L1565.8 85.456L1565.26 85.584H1552.97V87.792H1563.62C1562.31 89.648 1560.58 91.728 1558.95 93.072V96.72H1551.56V98.992H1558.95V109.616C1558.95 110.064 1558.76 110.224 1558.25 110.224C1557.77 110.256 1556.01 110.256 1554.12 110.192C1554.47 110.864 1554.86 111.792 1554.98 112.464C1557.48 112.496 1559.02 112.432 1560.01 112.08C1561 111.696 1561.35 111.024 1561.35 109.616V98.992H1568.39V96.72ZM1591.34 88.176H1585.1V89.744H1600.62V88.176H1593.67V86.64H1601.48V85.008H1593.67V83.248H1591.34V85.008H1583.98V86.64H1591.34V88.176ZM1586.15 92.432H1589.22V95.984H1586.15V92.432ZM1599.24 95.984H1596.04V92.432H1599.24V95.984ZM1590.86 95.984V92.432H1594.44V95.984H1590.86ZM1584.2 97.36H1601.29V91.024H1584.2V97.36ZM1580.3 87.472C1579.72 86.352 1578.54 84.688 1577.38 83.44L1575.43 84.208C1576.52 85.52 1577.67 87.248 1578.18 88.432L1580.3 87.472ZM1582.98 88.528H1572.74V90.512H1582.98V88.528ZM1582.18 94.736V92.848H1574.02V94.736H1582.18ZM1582.38 97.072H1573.77V98.992H1582.38V97.072ZM1580.17 103.344V108.656H1575.94V103.344H1580.17ZM1582.18 101.392H1573.99V112.112H1575.94V110.608H1582.18V101.392ZM1587.27 105.008H1598.22V106.48H1587.27V105.008ZM1587.27 102.48H1598.22V103.856H1587.27V102.48ZM1587.27 99.984H1598.22V101.328H1587.27V99.984ZM1600.42 107.92V98.544H1585.13V107.92H1589.06C1587.66 109.04 1584.74 110.288 1582.34 110.992C1582.79 111.376 1583.5 112.048 1583.85 112.496C1586.25 111.76 1589.22 110.384 1591.08 109.04L1589.16 107.92H1595.27L1594.25 109.264C1596.62 110.352 1599.24 111.664 1600.84 112.56L1602.18 110.992C1600.55 110.128 1597.93 108.912 1595.56 107.92H1600.42ZM1629 104.272V106.224H1613.26V104.272H1629ZM1613.26 109.808V107.76H1629V109.808H1613.26ZM1610.95 112.528H1613.26V111.472H1629V112.464H1631.37V102.64H1610.95V112.528ZM1622.06 90.608H1628.87V92.496H1622.06V90.608ZM1622.06 87.024H1628.87V88.816H1622.06V87.024ZM1622.06 99.376V97.488H1632.97V95.856H1622.06V94.096H1631.21V90.608H1635.11V88.816H1631.21V85.424H1622.06V83.184H1619.72V85.424H1610.28V87.024H1619.72V88.816H1606.92V90.608H1619.72V92.496H1609.93V94.096H1619.72V95.856H1609.03V97.488H1619.72V99.376H1606.86V101.136H1635.14V99.376H1622.06Z" fill="white"/>
</svg>
