<svg width="1845" height="296" viewBox="0 0 1845 296" fill="none" xmlns="http://www.w3.org/2000/svg">
<rect x="788" width="1057" height="296" rx="8" fill="#F0EFEC"/>
<circle cx="828" cy="56" r="12" fill="#BAB4A3"/>
<path d="M872.448 52.624H862.656V55.504H872.448V53.904C873.152 54.576 874.144 55.696 874.528 56.336C878.56 54.192 879.424 50.576 879.424 47.472V47.44H883.264V50.864C883.264 54.032 883.84 55.376 886.848 55.376H888.512C889.152 55.376 889.856 55.344 890.304 55.12C890.176 54.256 890.112 52.944 890.048 51.984C889.632 52.112 888.896 52.208 888.48 52.208H887.2C886.816 52.208 886.752 51.824 886.752 50.896V43.92H875.968V47.344C875.968 49.424 875.584 51.664 872.448 53.392V52.624ZM873.792 48.176H867.712L869.824 47.024C869.312 45.84 868.352 44.08 867.488 42.768L864.512 44.144C865.216 45.36 866.08 46.96 866.592 48.176H861.28V51.184H873.792V48.176ZM872.512 56.912H862.656V59.792H872.512V56.912ZM884.8 60.272C883.936 62.032 882.784 63.536 881.376 64.816C879.808 63.504 878.528 62 877.6 60.272H884.8ZM869.184 67.952H865.92V64.368H869.184V67.952ZM887.232 56.56L886.624 56.72H873.28V60.272H876.224L874.144 61.008C875.296 63.28 876.704 65.296 878.368 66.96C876.608 67.984 874.624 68.72 872.48 69.232V61.328H862.688V72.368H865.92V71.024H872.48V69.872C873.056 70.768 873.632 71.92 873.952 72.72C876.704 71.984 879.2 70.896 881.408 69.488C883.52 70.896 885.984 71.952 888.8 72.624C889.312 71.6 890.304 69.968 891.136 69.2C888.672 68.72 886.464 67.92 884.512 66.896C886.816 64.56 888.576 61.52 889.632 57.584L887.232 56.56ZM908.96 48.176H902.24L904.32 47.024C903.808 45.84 902.848 44.08 901.984 42.768L899.008 44.144C899.712 45.36 900.576 46.96 901.088 48.176H895.488V51.184H908.96V48.176ZM907.616 55.504V52.624H896.896V55.504H907.616ZM907.584 56.912H896.896V59.792H907.584V56.912ZM904.384 64.368V67.952H900.224V64.368H904.384ZM907.68 61.328H897.024V72.368H900.224V71.024H907.68V61.328ZM924.32 53.52H918.4V43.472H914.432V53.52H908.832V57.264H914.432V72.784H918.4V57.264H924.32V53.52ZM952.192 50.128L949.952 51.44C950.432 52.016 950.944 52.688 951.488 53.36L943.2 53.808C944.192 52.656 945.184 51.44 946.144 50.128H952.192ZM958.208 56.464C957.056 54.8 954.816 52.144 953.152 50.128H957.568V46.736H948.48C949.024 45.872 949.536 45.04 949.984 44.176L946.304 42.736C945.664 44.112 944.896 45.456 944.16 46.736H937.728V50.128H941.92C941.184 51.152 940.576 51.92 940.192 52.304C939.232 53.424 938.56 54.096 937.76 54.32C938.176 55.248 938.752 57.072 938.944 57.808C940.128 57.36 941.856 57.2 953.728 56.368C954.272 57.136 954.752 57.872 955.104 58.416L958.208 56.464ZM937.536 46.736C936.288 45.52 933.664 44.112 931.712 43.248L929.6 46.032C931.616 46.992 934.144 48.592 935.296 49.776L937.536 46.736ZM936.32 55.152C935.008 54.064 932.288 52.72 930.272 51.952L928.288 54.864C930.336 55.728 932.96 57.232 934.208 58.32L936.32 55.152ZM934.912 59.76C932.992 63.472 930.56 67.44 928.864 69.84L932.096 72.4C933.984 69.296 936 65.648 937.696 62.32L934.912 59.76ZM940.192 61.264C940.192 64.048 939.776 67.536 936.192 70.16C937.056 70.672 938.336 71.888 938.88 72.656C943.104 69.424 943.616 64.944 943.616 61.392V58.288H940.192V61.264ZM945.568 71.376H948.896V58.576H945.568V71.376ZM954.944 69.136C954.528 69.136 954.496 68.784 954.496 67.76V58.288H951.008V67.728C951.008 70.768 951.584 72.048 954.592 72.048H956.192C956.832 72.048 957.504 72.016 957.984 71.824C957.856 71.024 957.76 69.84 957.696 68.944C957.28 69.072 956.608 69.136 956.16 69.136H954.944ZM986.368 52.08H978.752V47.472H986.368V52.08ZM990.08 44.272H975.232V55.28H990.08V44.272ZM974.56 60.528C973.952 59.824 971.328 57.04 970.464 56.336V55.408H973.888V51.856H970.464V47.408C971.904 47.024 973.28 46.608 974.496 46.128L971.936 43.216C969.408 44.336 965.44 45.264 961.824 45.872C962.24 46.64 962.688 47.952 962.88 48.784C964.128 48.624 965.44 48.432 966.784 48.176V51.856H962.208V55.408H966.272C965.088 58.512 963.328 61.904 961.536 63.984C962.144 64.944 962.944 66.512 963.296 67.6C964.544 66 965.76 63.728 966.784 61.264V72.752H970.464V60.272C971.232 61.424 972 62.672 972.384 63.504L974.56 60.528ZM984.512 68.752V65.808H990.176V62.608H984.512V59.632C986.784 59.344 988.928 58.992 990.784 58.544L988.48 55.664C984.96 56.592 979.2 57.168 974.208 57.456C974.56 58.224 974.976 59.504 975.104 60.336C976.896 60.272 978.784 60.176 980.704 60.016V62.608H975.04V65.808H980.704V68.752H973.44V72.08H991.424V68.752H984.512ZM1003.07 72.24C1004.83 70.704 1005.82 68.304 1006.5 66.032L1003.42 64.912C1002.85 66.96 1001.73 69.104 1000.16 70.416L1003.07 72.24ZM1006.53 48.24H1010.75C1009.86 50.32 1008.48 52.368 1006.94 53.968V52.048C1007.65 51.056 1008.22 49.968 1008.77 48.944L1006.53 48.24ZM1001.12 48.24H1005.57C1004.54 50.352 1002.88 52.432 1001.12 54.064V48.24ZM1013.02 50.8C1013.38 50.096 1013.73 49.456 1014.02 48.752L1012.16 48.24H1017.22L1015.36 48.912C1015.78 49.488 1016.22 50.16 1016.54 50.8H1013.02ZM1016.13 54.128H1012.32V53.008H1016.13V54.128ZM1016.13 57.2H1012.32V55.984H1016.13V57.2ZM1016.13 60.304H1012.32V59.024H1016.13V60.304ZM1009.18 63.536H1011.36L1010.4 64.464C1012.16 65.296 1014.3 66.736 1015.33 67.792L1017.66 65.552C1016.58 64.56 1014.59 63.408 1012.9 62.608H1024.51V60.304H1019.3V59.024H1023.33V57.2H1019.3V55.984H1023.3V54.128H1019.3V53.008H1024.13V50.8H1018.88L1019.71 50.448C1019.42 49.808 1018.88 48.976 1018.3 48.24H1024.96V45.136H1013.86C1013.41 44.208 1012.83 43.184 1012.22 42.384L1008.83 43.344C1009.18 43.856 1009.54 44.496 1009.82 45.136H997.632V54.512C997.632 59.248 997.472 65.968 995.136 70.576C995.904 70.96 997.408 72.144 998.016 72.816C1000.42 68.208 1001.02 61.2 1001.12 56.048C1001.6 56.56 1002.08 57.072 1002.34 57.392C1002.78 56.976 1003.3 56.496 1003.78 56.016V63.536H1006.94V55.44C1007.58 55.888 1008.22 56.496 1008.58 56.912C1008.77 56.72 1008.99 56.496 1009.18 56.272V63.536ZM1012.32 69.616C1011.23 69.616 1011.04 69.52 1011.04 68.72V65.296H1007.58V68.784C1007.58 71.664 1008.38 72.592 1011.84 72.592H1015.9C1018.43 72.592 1019.36 71.76 1019.71 68.496C1018.82 68.272 1017.38 67.76 1016.7 67.28C1016.58 69.328 1016.42 69.616 1015.55 69.616H1012.32ZM1018.3 65.936C1019.9 67.792 1021.66 70.416 1022.27 72.144L1025.31 70.672C1024.58 68.88 1022.75 66.416 1021.09 64.56L1018.3 65.936ZM1046.24 59.856V55.92H1052.99V59.856H1046.24ZM1036.29 59.856C1036.35 58.672 1036.38 57.52 1036.38 56.496V55.92H1042.4V59.856H1036.29ZM1042.4 48.656V52.368H1036.38V48.656H1042.4ZM1052.99 52.368H1046.24V48.656H1052.99V52.368ZM1056.77 45.04H1032.61V56.464C1032.61 60.944 1032.32 66.64 1028.83 70.48C1029.7 70.928 1031.23 72.24 1031.84 72.944C1034.14 70.448 1035.3 66.928 1035.87 63.44H1042.4V72.368H1046.24V63.44H1052.99V68.24C1052.99 68.816 1052.77 69.008 1052.16 69.008C1051.58 69.008 1049.47 69.04 1047.68 68.944C1048.16 69.936 1048.77 71.568 1048.9 72.592C1051.78 72.624 1053.73 72.56 1055.04 71.92C1056.32 71.344 1056.77 70.32 1056.77 68.272V45.04Z" fill="#8D887C"/>
<path d="M840 126.448C838.112 126.448 836.608 127.952 836.608 129.84C836.608 131.728 838.112 133.232 840 133.232C841.888 133.232 843.392 131.728 843.392 129.84C843.392 127.952 841.888 126.448 840 126.448ZM867.2 142H870.176V132.688H874.048C879.2 132.688 882.688 130.384 882.688 125.424C882.688 120.304 879.168 118.512 873.92 118.512H867.2V142ZM870.176 130.288V120.944H873.536C877.664 120.944 879.744 122.032 879.744 125.424C879.744 128.784 877.792 130.288 873.664 130.288H870.176ZM894.896 142.416C897.264 142.416 899.12 141.616 900.656 140.624L899.6 138.704C898.32 139.568 896.944 140.08 895.248 140.08C891.952 140.08 889.68 137.712 889.488 134H901.2C901.264 133.584 901.328 132.976 901.328 132.336C901.328 127.376 898.832 124.176 894.416 124.176C890.384 124.176 886.576 127.696 886.576 133.328C886.576 139.056 890.288 142.416 894.896 142.416ZM889.456 131.888C889.808 128.496 891.984 126.512 894.448 126.512C897.168 126.512 898.768 128.4 898.768 131.888H889.456ZM907.206 142H910.118V130.832C911.27 127.856 913.062 126.832 914.502 126.832C915.206 126.832 915.622 126.896 916.198 127.12L916.742 124.56C916.198 124.272 915.654 124.176 914.886 124.176C912.934 124.176 911.174 125.584 909.958 127.792H909.862L909.606 124.624H907.206V142ZM925.632 142.416C929.728 142.416 931.968 140.08 931.968 137.264C931.968 133.968 929.184 132.944 926.656 131.984C924.704 131.248 922.912 130.64 922.912 128.976C922.912 127.632 923.936 126.48 926.144 126.48C927.68 126.48 928.896 127.12 930.08 128.016L931.488 126.128C930.144 125.072 928.256 124.176 926.112 124.176C922.336 124.176 920.096 126.352 920.096 129.104C920.096 132.048 922.752 133.232 925.184 134.128C927.104 134.864 929.152 135.632 929.152 137.424C929.152 138.928 928.032 140.144 925.728 140.144C923.648 140.144 922.08 139.312 920.576 138.096L919.136 140.016C920.8 141.392 923.168 142.416 925.632 142.416ZM944.409 142.416C948.665 142.416 952.473 139.088 952.473 133.328C952.473 127.536 948.665 124.176 944.409 124.176C940.153 124.176 936.345 127.536 936.345 133.328C936.345 139.088 940.153 142.416 944.409 142.416ZM944.409 139.984C941.401 139.984 939.385 137.328 939.385 133.328C939.385 129.328 941.401 126.608 944.409 126.608C947.417 126.608 949.465 129.328 949.465 133.328C949.465 137.328 947.417 139.984 944.409 139.984ZM958.663 142H961.575V129.392C963.335 127.632 964.551 126.736 966.343 126.736C968.647 126.736 969.639 128.112 969.639 131.376V142H972.551V130.992C972.551 126.544 970.887 124.176 967.239 124.176C964.871 124.176 963.079 125.488 961.415 127.12H961.319L961.063 124.624H958.663V142ZM983.825 142.416C985.969 142.416 987.921 141.296 989.585 139.92H989.681L989.937 142H992.337V131.312C992.337 127.024 990.545 124.176 986.321 124.176C983.537 124.176 981.073 125.424 979.473 126.448L980.625 128.464C982.001 127.536 983.825 126.608 985.841 126.608C988.689 126.608 989.425 128.752 989.425 130.992C982.033 131.824 978.737 133.712 978.737 137.488C978.737 140.624 980.913 142.416 983.825 142.416ZM984.657 140.08C982.929 140.08 981.585 139.28 981.585 137.296C981.585 135.056 983.569 133.616 989.425 132.912V137.776C987.729 139.28 986.353 140.08 984.657 140.08ZM1015.01 134.48L1017.18 132.656C1015.2 130.288 1012.29 127.408 1010.02 125.552L1007.94 127.376C1010.21 129.232 1012.93 131.952 1015.01 134.48ZM1041.66 142.416C1046.46 142.416 1050.11 139.856 1050.11 132.304V118.512H1047.26V132.4C1047.26 138.064 1044.8 139.824 1041.66 139.824C1038.62 139.824 1036.22 138.064 1036.22 132.4V118.512H1033.25V132.304C1033.25 139.856 1036.9 142.416 1041.66 142.416ZM1062.17 142.416C1066.27 142.416 1068.51 140.08 1068.51 137.264C1068.51 133.968 1065.72 132.944 1063.19 131.984C1061.24 131.248 1059.45 130.64 1059.45 128.976C1059.45 127.632 1060.47 126.48 1062.68 126.48C1064.22 126.48 1065.43 127.12 1066.62 128.016L1068.03 126.128C1066.68 125.072 1064.79 124.176 1062.65 124.176C1058.87 124.176 1056.63 126.352 1056.63 129.104C1056.63 132.048 1059.29 133.232 1061.72 134.128C1063.64 134.864 1065.69 135.632 1065.69 137.424C1065.69 138.928 1064.57 140.144 1062.27 140.144C1060.19 140.144 1058.62 139.312 1057.11 138.096L1055.67 140.016C1057.34 141.392 1059.71 142.416 1062.17 142.416ZM1081.2 142.416C1083.57 142.416 1085.43 141.616 1086.96 140.624L1085.91 138.704C1084.63 139.568 1083.25 140.08 1081.55 140.08C1078.26 140.08 1075.99 137.712 1075.79 134H1087.51C1087.57 133.584 1087.63 132.976 1087.63 132.336C1087.63 127.376 1085.14 124.176 1080.72 124.176C1076.69 124.176 1072.88 127.696 1072.88 133.328C1072.88 139.056 1076.59 142.416 1081.2 142.416ZM1075.76 131.888C1076.11 128.496 1078.29 126.512 1080.75 126.512C1083.47 126.512 1085.07 128.4 1085.07 131.888H1075.76ZM1093.51 142H1096.42V130.832C1097.58 127.856 1099.37 126.832 1100.81 126.832C1101.51 126.832 1101.93 126.896 1102.5 127.12L1103.05 124.56C1102.5 124.272 1101.96 124.176 1101.19 124.176C1099.24 124.176 1097.48 125.584 1096.26 127.792H1096.17L1095.91 124.624H1093.51V142ZM1114.48 149.776C1117.91 149.776 1119.22 147.536 1119.22 143.984V124.624H1116.31V143.984C1116.31 146.096 1115.89 147.408 1114.16 147.408C1113.52 147.408 1112.95 147.248 1112.5 147.088L1111.92 149.328C1112.53 149.552 1113.43 149.776 1114.48 149.776ZM1117.75 121.04C1118.87 121.04 1119.67 120.272 1119.67 119.088C1119.67 117.968 1118.87 117.2 1117.75 117.2C1116.6 117.2 1115.8 117.968 1115.8 119.088C1115.8 120.272 1116.6 121.04 1117.75 121.04ZM1133.47 142.416C1137.73 142.416 1141.53 139.088 1141.53 133.328C1141.53 127.536 1137.73 124.176 1133.47 124.176C1129.21 124.176 1125.41 127.536 1125.41 133.328C1125.41 139.088 1129.21 142.416 1133.47 142.416ZM1133.47 139.984C1130.46 139.984 1128.45 137.328 1128.45 133.328C1128.45 129.328 1130.46 126.608 1133.47 126.608C1136.48 126.608 1138.53 129.328 1138.53 133.328C1138.53 137.328 1136.48 139.984 1133.47 139.984ZM1152.78 142.416C1155.18 142.416 1156.91 141.168 1158.54 139.28H1158.64L1158.86 142H1161.29V124.624H1158.38V136.944C1156.72 139.024 1155.47 139.888 1153.68 139.888C1151.37 139.888 1150.41 138.512 1150.41 135.28V124.624H1147.5V135.632C1147.5 140.048 1149.13 142.416 1152.78 142.416ZM1168.76 142H1171.67V130.832C1172.83 127.856 1174.62 126.832 1176.06 126.832C1176.76 126.832 1177.18 126.896 1177.75 127.12L1178.3 124.56C1177.75 124.272 1177.21 124.176 1176.44 124.176C1174.49 124.176 1172.73 125.584 1171.51 127.792H1171.42L1171.16 124.624H1168.76V142ZM1182.77 142H1185.68V129.392C1187.44 127.632 1188.66 126.736 1190.45 126.736C1192.75 126.736 1193.75 128.112 1193.75 131.376V142H1196.66V130.992C1196.66 126.544 1194.99 124.176 1191.35 124.176C1188.98 124.176 1187.19 125.488 1185.52 127.12H1185.43L1185.17 124.624H1182.77V142ZM1207.93 142.416C1210.08 142.416 1212.03 141.296 1213.69 139.92H1213.79L1214.04 142H1216.44V131.312C1216.44 127.024 1214.65 124.176 1210.43 124.176C1207.64 124.176 1205.18 125.424 1203.58 126.448L1204.73 128.464C1206.11 127.536 1207.93 126.608 1209.95 126.608C1212.8 126.608 1213.53 128.752 1213.53 130.992C1206.14 131.824 1202.84 133.712 1202.84 137.488C1202.84 140.624 1205.02 142.416 1207.93 142.416ZM1208.76 140.08C1207.04 140.08 1205.69 139.28 1205.69 137.296C1205.69 135.056 1207.68 133.616 1213.53 132.912V137.776C1211.84 139.28 1210.46 140.08 1208.76 140.08ZM1226.67 142.416C1227.47 142.416 1227.95 142.32 1228.36 142.16L1227.95 139.92C1227.63 139.984 1227.5 139.984 1227.34 139.984C1226.89 139.984 1226.51 139.632 1226.51 138.736V116.528H1223.59V138.544C1223.59 141.008 1224.49 142.416 1226.67 142.416ZM1243.08 142H1245.99V129.392C1247.59 127.6 1249.06 126.736 1250.37 126.736C1252.58 126.736 1253.6 128.112 1253.6 131.376V142H1256.52V129.392C1258.15 127.6 1259.56 126.736 1260.9 126.736C1263.11 126.736 1264.13 128.112 1264.13 131.376V142H1267.04V130.992C1267.04 126.544 1265.35 124.176 1261.76 124.176C1259.65 124.176 1257.83 125.552 1256.04 127.504C1255.33 125.456 1253.89 124.176 1251.24 124.176C1249.16 124.176 1247.33 125.488 1245.83 127.152H1245.73L1245.48 124.624H1243.08V142ZM1278.3 142.416C1280.44 142.416 1282.4 141.296 1284.06 139.92H1284.16L1284.41 142H1286.81V131.312C1286.81 127.024 1285.02 124.176 1280.8 124.176C1278.01 124.176 1275.55 125.424 1273.95 126.448L1275.1 128.464C1276.48 127.536 1278.3 126.608 1280.32 126.608C1283.16 126.608 1283.9 128.752 1283.9 130.992C1276.51 131.824 1273.21 133.712 1273.21 137.488C1273.21 140.624 1275.39 142.416 1278.3 142.416ZM1279.13 140.08C1277.4 140.08 1276.06 139.28 1276.06 137.296C1276.06 135.056 1278.04 133.616 1283.9 132.912V137.776C1282.2 139.28 1280.83 140.08 1279.13 140.08ZM1293.96 149.328H1296.87V143.44L1296.81 140.4C1298.38 141.68 1300.04 142.416 1301.61 142.416C1305.61 142.416 1309.16 138.992 1309.16 133.04C1309.16 127.696 1306.73 124.176 1302.25 124.176C1300.23 124.176 1298.28 125.328 1296.71 126.608H1296.62L1296.36 124.624H1293.96V149.328ZM1301.13 139.984C1299.98 139.984 1298.44 139.504 1296.87 138.16V129.04C1298.57 127.472 1300.07 126.64 1301.55 126.64C1304.84 126.64 1306.12 129.232 1306.12 133.072C1306.12 137.392 1304.01 139.984 1301.13 139.984ZM840 182.448C838.112 182.448 836.608 183.952 836.608 185.84C836.608 187.728 838.112 189.232 840 189.232C841.888 189.232 843.392 187.728 843.392 185.84C843.392 183.952 841.888 182.448 840 182.448ZM867.2 198H870.176V188.688H874.048C879.2 188.688 882.688 186.384 882.688 181.424C882.688 176.304 879.168 174.512 873.92 174.512H867.2V198ZM870.176 186.288V176.944H873.536C877.664 176.944 879.744 178.032 879.744 181.424C879.744 184.784 877.792 186.288 873.664 186.288H870.176ZM897.691 198.416C903.579 198.416 907.707 193.712 907.707 186.192C907.707 178.672 903.579 174.096 897.691 174.096C891.803 174.096 887.675 178.672 887.675 186.192C887.675 193.712 891.803 198.416 897.691 198.416ZM897.691 195.824C893.467 195.824 890.715 192.048 890.715 186.192C890.715 180.304 893.467 176.688 897.691 176.688C901.883 176.688 904.667 180.304 904.667 186.192C904.667 192.048 901.883 195.824 897.691 195.824ZM918.345 198H921.769L929.225 174.512H926.217L922.441 187.248C921.609 190 921.033 192.24 920.169 194.992H920.041C919.145 192.24 918.601 190 917.769 187.248L913.961 174.512H910.857L918.345 198ZM947.236 204.304L949.06 203.44C946.276 198.896 944.964 193.488 944.964 188.048C944.964 182.608 946.276 177.232 949.06 172.656L947.236 171.824C944.292 176.592 942.532 181.776 942.532 188.048C942.532 194.352 944.292 199.504 947.236 204.304ZM955.2 198H958.176V188.688H962.048C967.2 188.688 970.688 186.384 970.688 181.424C970.688 176.304 967.168 174.512 961.92 174.512H955.2V198ZM958.176 186.288V176.944H961.536C965.664 176.944 967.744 178.032 967.744 181.424C967.744 184.784 965.792 186.288 961.664 186.288H958.176ZM982.64 198.416C986.896 198.416 990.704 195.088 990.704 189.328C990.704 183.536 986.896 180.176 982.64 180.176C978.384 180.176 974.576 183.536 974.576 189.328C974.576 195.088 978.384 198.416 982.64 198.416ZM982.64 195.984C979.632 195.984 977.616 193.328 977.616 189.328C977.616 185.328 979.632 182.608 982.64 182.608C985.648 182.608 987.696 185.328 987.696 189.328C987.696 193.328 985.648 195.984 982.64 195.984ZM996.894 198H999.806V180.624H996.894V198ZM998.366 177.04C999.518 177.04 1000.32 176.272 1000.32 175.088C1000.32 173.968 999.518 173.2 998.366 173.2C997.214 173.2 996.414 173.968 996.414 175.088C996.414 176.272 997.214 177.04 998.366 177.04ZM1007.31 198H1010.22V185.392C1011.98 183.632 1013.19 182.736 1014.99 182.736C1017.29 182.736 1018.28 184.112 1018.28 187.376V198H1021.19V186.992C1021.19 182.544 1019.53 180.176 1015.88 180.176C1013.51 180.176 1011.72 181.488 1010.06 183.12H1009.96L1009.71 180.624H1007.31V198ZM1033.94 198.416C1035 198.416 1036.15 198.096 1037.14 197.776L1036.56 195.6C1035.99 195.824 1035.19 196.048 1034.58 196.048C1032.56 196.048 1031.89 194.832 1031.89 192.688V182.992H1036.6V180.624H1031.89V175.728H1029.46L1029.11 180.624L1026.39 180.784V182.992H1028.98V192.624C1028.98 196.08 1030.23 198.416 1033.94 198.416ZM1057.64 198.416C1061.9 198.416 1065.7 195.088 1065.7 189.328C1065.7 183.536 1061.9 180.176 1057.64 180.176C1053.38 180.176 1049.58 183.536 1049.58 189.328C1049.58 195.088 1053.38 198.416 1057.64 198.416ZM1057.64 195.984C1054.63 195.984 1052.62 193.328 1052.62 189.328C1052.62 185.328 1054.63 182.608 1057.64 182.608C1060.65 182.608 1062.7 185.328 1062.7 189.328C1062.7 193.328 1060.65 195.984 1057.64 195.984ZM1072.37 198H1075.29V182.992H1078.97V180.624H1075.29V177.872C1075.29 175.632 1076.09 174.448 1077.75 174.448C1078.36 174.448 1079.06 174.608 1079.7 174.896L1080.34 172.688C1079.54 172.336 1078.49 172.112 1077.43 172.112C1073.97 172.112 1072.37 174.32 1072.37 177.84V180.624L1070.01 180.784V182.992H1072.37V198ZM1097.23 198H1100.66L1108.11 174.512H1105.1L1101.33 187.248C1100.5 190 1099.92 192.24 1099.06 194.992H1098.93C1098.03 192.24 1097.49 190 1096.66 187.248L1092.85 174.512H1089.74L1097.23 198ZM1112.66 198H1115.57V180.624H1112.66V198ZM1114.13 177.04C1115.29 177.04 1116.09 176.272 1116.09 175.088C1116.09 173.968 1115.29 173.2 1114.13 173.2C1112.98 173.2 1112.18 173.968 1112.18 175.088C1112.18 176.272 1112.98 177.04 1114.13 177.04ZM1130.08 198.416C1132.45 198.416 1134.31 197.616 1135.84 196.624L1134.79 194.704C1133.51 195.568 1132.13 196.08 1130.44 196.08C1127.14 196.08 1124.87 193.712 1124.68 190H1136.39C1136.45 189.584 1136.52 188.976 1136.52 188.336C1136.52 183.376 1134.02 180.176 1129.6 180.176C1125.57 180.176 1121.76 183.696 1121.76 189.328C1121.76 195.056 1125.48 198.416 1130.08 198.416ZM1124.64 187.888C1125 184.496 1127.17 182.512 1129.64 182.512C1132.36 182.512 1133.96 184.4 1133.96 187.888H1124.64ZM1145.3 198H1148.73L1151.16 188.688C1151.61 187.024 1151.96 185.392 1152.34 183.632H1152.5C1152.92 185.392 1153.24 186.992 1153.69 188.624L1156.21 198H1159.73L1164.41 180.624H1161.65L1159.09 190.672C1158.71 192.336 1158.39 193.904 1158.01 195.536H1157.88C1157.46 193.904 1157.08 192.336 1156.66 190.672L1153.94 180.624H1151.09L1148.41 190.672C1147.96 192.304 1147.61 193.904 1147.22 195.536H1147.06C1146.74 193.904 1146.39 192.336 1146.04 190.672L1143.45 180.624H1140.47L1145.3 198ZM1170.03 204.304C1173.01 199.504 1174.77 194.352 1174.77 188.048C1174.77 181.776 1173.01 176.592 1170.03 171.824L1168.24 172.656C1170.99 177.232 1172.33 182.608 1172.33 188.048C1172.33 193.488 1170.99 198.896 1168.24 203.44L1170.03 204.304ZM840 238.448C838.112 238.448 836.608 239.952 836.608 241.84C836.608 243.728 838.112 245.232 840 245.232C841.888 245.232 843.392 243.728 843.392 241.84C843.392 239.952 841.888 238.448 840 238.448ZM869.792 254H873.312L876.8 239.856C877.184 238 877.6 236.304 877.984 234.512H878.112C878.496 236.304 878.848 238 879.264 239.856L882.816 254H886.368L891.232 230.512H888.384L885.92 243.312C885.472 245.808 885.024 248.336 884.576 250.896H884.416C883.872 248.336 883.328 245.808 882.752 243.312L879.488 230.512H876.768L873.536 243.312C872.96 245.84 872.384 248.368 871.84 250.896H871.712C871.264 248.368 870.784 245.84 870.336 243.312L867.872 230.512H864.832L869.792 254ZM896.638 254H899.55V236.624H896.638V254ZM898.11 233.04C899.262 233.04 900.062 232.272 900.062 231.088C900.062 229.968 899.262 229.2 898.11 229.2C896.958 229.2 896.158 229.968 896.158 231.088C896.158 232.272 896.958 233.04 898.11 233.04ZM907.05 254H909.962V242.832C911.114 239.856 912.906 238.832 914.346 238.832C915.05 238.832 915.466 238.896 916.042 239.12L916.586 236.56C916.042 236.272 915.498 236.176 914.73 236.176C912.778 236.176 911.018 237.584 909.802 239.792H909.706L909.45 236.624H907.05V254ZM927.721 254.416C930.089 254.416 931.945 253.616 933.481 252.624L932.425 250.704C931.145 251.568 929.769 252.08 928.073 252.08C924.777 252.08 922.505 249.712 922.313 246H934.025C934.089 245.584 934.153 244.976 934.153 244.336C934.153 239.376 931.657 236.176 927.241 236.176C923.209 236.176 919.401 239.696 919.401 245.328C919.401 251.056 923.113 254.416 927.721 254.416ZM922.281 243.888C922.633 240.496 924.809 238.512 927.273 238.512C929.993 238.512 931.593 240.4 931.593 243.888H922.281ZM940.512 254H943.424V238.992H947.104V236.624H943.424V233.872C943.424 231.632 944.224 230.448 945.888 230.448C946.496 230.448 947.2 230.608 947.84 230.896L948.48 228.688C947.68 228.336 946.624 228.112 945.568 228.112C942.112 228.112 940.512 230.32 940.512 233.84V236.624L938.144 236.784V238.992H940.512V254ZM952.038 254H954.95V242.832C956.102 239.856 957.894 238.832 959.334 238.832C960.038 238.832 960.454 238.896 961.03 239.12L961.574 236.56C961.03 236.272 960.486 236.176 959.718 236.176C957.766 236.176 956.006 237.584 954.79 239.792H954.694L954.438 236.624H952.038V254ZM969.169 254.416C971.313 254.416 973.265 253.296 974.929 251.92H975.025L975.281 254H977.681V243.312C977.681 239.024 975.889 236.176 971.665 236.176C968.881 236.176 966.417 237.424 964.817 238.448L965.969 240.464C967.345 239.536 969.169 238.608 971.185 238.608C974.033 238.608 974.769 240.752 974.769 242.992C967.377 243.824 964.081 245.712 964.081 249.488C964.081 252.624 966.257 254.416 969.169 254.416ZM970.001 252.08C968.273 252.08 966.929 251.28 966.929 249.296C966.929 247.056 968.913 245.616 974.769 244.912V249.776C973.073 251.28 971.697 252.08 970.001 252.08ZM984.831 254H987.743V241.392C989.343 239.6 990.815 238.736 992.127 238.736C994.335 238.736 995.359 240.112 995.359 243.376V254H998.271V241.392C999.903 239.6 1001.31 238.736 1002.66 238.736C1004.86 238.736 1005.89 240.112 1005.89 243.376V254H1008.8V242.992C1008.8 238.544 1007.1 236.176 1003.52 236.176C1001.41 236.176 999.583 237.552 997.791 239.504C997.087 237.456 995.647 236.176 992.991 236.176C990.911 236.176 989.087 237.488 987.583 239.152H987.487L987.231 236.624H984.831V254ZM1023.06 254.416C1025.43 254.416 1027.29 253.616 1028.82 252.624L1027.77 250.704C1026.49 251.568 1025.11 252.08 1023.42 252.08C1020.12 252.08 1017.85 249.712 1017.66 246H1029.37C1029.43 245.584 1029.5 244.976 1029.5 244.336C1029.5 239.376 1027 236.176 1022.58 236.176C1018.55 236.176 1014.74 239.696 1014.74 245.328C1014.74 251.056 1018.46 254.416 1023.06 254.416ZM1017.62 243.888C1017.98 240.496 1020.15 238.512 1022.62 238.512C1025.34 238.512 1026.94 240.4 1026.94 243.888H1017.62ZM1032.78 259.728H1034.93L1044.5 228.592H1042.38L1032.78 259.728ZM1058.52 254H1061.21V241.008C1061.21 238.992 1060.98 236.144 1060.85 234.096H1060.98L1062.84 239.44L1067.29 251.632H1069.27L1073.72 239.44L1075.57 234.096H1075.7C1075.54 236.144 1075.32 238.992 1075.32 241.008V254H1078.1V230.512H1074.52L1070.04 243.088C1069.49 244.72 1068.98 246.352 1068.44 247.984H1068.28C1067.7 246.352 1067.16 244.72 1066.61 243.088L1062.1 230.512H1058.52V254ZM1092.58 254.416C1096.84 254.416 1100.65 251.088 1100.65 245.328C1100.65 239.536 1096.84 236.176 1092.58 236.176C1088.33 236.176 1084.52 239.536 1084.52 245.328C1084.52 251.088 1088.33 254.416 1092.58 254.416ZM1092.58 251.984C1089.58 251.984 1087.56 249.328 1087.56 245.328C1087.56 241.328 1089.58 238.608 1092.58 238.608C1095.59 238.608 1097.64 241.328 1097.64 245.328C1097.64 249.328 1095.59 251.984 1092.58 251.984ZM1113.69 254.416C1115.77 254.416 1117.75 253.616 1119.32 252.208L1118.04 250.256C1116.95 251.248 1115.54 251.984 1113.94 251.984C1110.74 251.984 1108.57 249.328 1108.57 245.328C1108.57 241.328 1110.87 238.608 1114.04 238.608C1115.41 238.608 1116.47 239.248 1117.49 240.144L1119 238.224C1117.75 237.136 1116.18 236.176 1113.91 236.176C1109.46 236.176 1105.53 239.536 1105.53 245.328C1105.53 251.088 1109.08 254.416 1113.69 254.416ZM1124.72 254H1127.6V249.424L1130.86 245.616L1135.95 254H1139.12L1132.56 243.632L1138.35 236.624H1135.09L1127.69 245.808H1127.6V228.528H1124.72V254ZM1148.56 254.416C1150.96 254.416 1152.69 253.168 1154.32 251.28H1154.42L1154.64 254H1157.07V236.624H1154.16V248.944C1152.5 251.024 1151.25 251.888 1149.46 251.888C1147.15 251.888 1146.19 250.512 1146.19 247.28V236.624H1143.28V247.632C1143.28 252.048 1144.91 254.416 1148.56 254.416ZM1164.54 261.328H1167.46V255.44L1167.39 252.4C1168.96 253.68 1170.62 254.416 1172.19 254.416C1176.19 254.416 1179.74 250.992 1179.74 245.04C1179.74 239.696 1177.31 236.176 1172.83 236.176C1170.82 236.176 1168.86 237.328 1167.3 238.608H1167.2L1166.94 236.624H1164.54V261.328ZM1171.71 251.984C1170.56 251.984 1169.02 251.504 1167.46 250.16V241.04C1169.15 239.472 1170.66 238.64 1172.13 238.64C1175.42 238.64 1176.7 241.232 1176.7 245.072C1176.7 249.392 1174.59 251.984 1171.71 251.984ZM1192.15 259.728H1194.3L1203.86 228.592H1201.75L1192.15 259.728ZM1209.13 254H1212.11V244.688H1215.98C1221.13 244.688 1224.62 242.384 1224.62 237.424C1224.62 232.304 1221.1 230.512 1215.85 230.512H1209.13V254ZM1212.11 242.288V232.944H1215.47C1219.6 232.944 1221.68 234.032 1221.68 237.424C1221.68 240.784 1219.72 242.288 1215.6 242.288H1212.11ZM1230.69 254H1233.61V242.832C1234.76 239.856 1236.55 238.832 1237.99 238.832C1238.69 238.832 1239.11 238.896 1239.69 239.12L1240.23 236.56C1239.69 236.272 1239.14 236.176 1238.37 236.176C1236.42 236.176 1234.66 237.584 1233.45 239.792H1233.35L1233.09 236.624H1230.69V254ZM1251.11 254.416C1255.36 254.416 1259.17 251.088 1259.17 245.328C1259.17 239.536 1255.36 236.176 1251.11 236.176C1246.85 236.176 1243.04 239.536 1243.04 245.328C1243.04 251.088 1246.85 254.416 1251.11 254.416ZM1251.11 251.984C1248.1 251.984 1246.08 249.328 1246.08 245.328C1246.08 241.328 1248.1 238.608 1251.11 238.608C1254.12 238.608 1256.16 241.328 1256.16 245.328C1256.16 249.328 1254.12 251.984 1251.11 251.984ZM1270.24 254.416C1271.3 254.416 1272.45 254.096 1273.44 253.776L1272.87 251.6C1272.29 251.824 1271.49 252.048 1270.88 252.048C1268.87 252.048 1268.19 250.832 1268.19 248.688V238.992H1272.9V236.624H1268.19V231.728H1265.76L1265.41 236.624L1262.69 236.784V238.992H1265.28V248.624C1265.28 252.08 1266.53 254.416 1270.24 254.416ZM1284.71 254.416C1288.97 254.416 1292.78 251.088 1292.78 245.328C1292.78 239.536 1288.97 236.176 1284.71 236.176C1280.46 236.176 1276.65 239.536 1276.65 245.328C1276.65 251.088 1280.46 254.416 1284.71 254.416ZM1284.71 251.984C1281.71 251.984 1279.69 249.328 1279.69 245.328C1279.69 241.328 1281.71 238.608 1284.71 238.608C1287.72 238.608 1289.77 241.328 1289.77 245.328C1289.77 249.328 1287.72 251.984 1284.71 251.984ZM1303.85 254.416C1304.9 254.416 1306.06 254.096 1307.05 253.776L1306.47 251.6C1305.9 251.824 1305.1 252.048 1304.49 252.048C1302.47 252.048 1301.8 250.832 1301.8 248.688V238.992H1306.5V236.624H1301.8V231.728H1299.37L1299.02 236.624L1296.3 236.784V238.992H1298.89V248.624C1298.89 252.08 1300.14 254.416 1303.85 254.416ZM1312.33 261.488C1315.78 261.488 1317.61 258.864 1318.79 255.44L1325.35 236.624H1322.5L1319.4 246.288C1318.92 247.824 1318.41 249.584 1317.93 251.152H1317.77C1317.22 249.584 1316.61 247.792 1316.1 246.288L1312.55 236.624H1309.51L1316.49 254.032L1316.1 255.344C1315.4 257.488 1314.15 259.088 1312.17 259.088C1311.72 259.088 1311.21 258.928 1310.85 258.8L1310.28 261.136C1310.82 261.36 1311.49 261.488 1312.33 261.488ZM1330.33 261.328H1333.24V255.44L1333.17 252.4C1334.74 253.68 1336.41 254.416 1337.97 254.416C1341.97 254.416 1345.53 250.992 1345.53 245.04C1345.53 239.696 1343.09 236.176 1338.61 236.176C1336.6 236.176 1334.65 237.328 1333.08 238.608H1332.98L1332.73 236.624H1330.33V261.328ZM1337.49 251.984C1336.34 251.984 1334.81 251.504 1333.24 250.16V241.04C1334.93 239.472 1336.44 238.64 1337.91 238.64C1341.21 238.64 1342.49 241.232 1342.49 245.072C1342.49 249.392 1340.37 251.984 1337.49 251.984ZM1358.78 254.416C1361.15 254.416 1363 253.616 1364.54 252.624L1363.48 250.704C1362.2 251.568 1360.83 252.08 1359.13 252.08C1355.83 252.08 1353.56 249.712 1353.37 246H1365.08C1365.15 245.584 1365.21 244.976 1365.21 244.336C1365.21 239.376 1362.71 236.176 1358.3 236.176C1354.27 236.176 1350.46 239.696 1350.46 245.328C1350.46 251.056 1354.17 254.416 1358.78 254.416ZM1353.34 243.888C1353.69 240.496 1355.87 238.512 1358.33 238.512C1361.05 238.512 1362.65 240.4 1362.65 243.888H1353.34Z" fill="black"/>
<path d="M1415 126.448C1413.11 126.448 1411.61 127.952 1411.61 129.84C1411.61 131.728 1413.11 133.232 1415 133.232C1416.89 133.232 1418.39 131.728 1418.39 129.84C1418.39 127.952 1416.89 126.448 1415 126.448ZM1448.82 122.384H1445.21V120.528H1448.82V122.384ZM1448.82 125.84H1445.21V123.952H1448.82V125.84ZM1448.82 129.264H1445.21V127.408H1448.82V129.264ZM1462.3 122.384H1458.87V120.528H1462.3V122.384ZM1462.3 125.84H1458.87V123.984H1462.3V125.84ZM1462.3 129.296H1458.87V127.44H1462.3V129.296ZM1443.16 130.928H1455V129.264H1450.81V127.408H1453.94V125.84H1450.81V123.952H1453.94V123.6C1454.36 124.048 1454.84 124.656 1455.06 124.944C1455.67 124.336 1456.25 123.6 1456.82 122.8V130.96H1469.14V129.296H1464.28V127.44H1467.99V125.84H1464.28V123.984H1467.99V122.384H1464.28V120.528H1468.66V118.896H1465.08C1464.73 117.904 1464.02 116.56 1463.42 115.504L1461.5 116.08C1461.98 116.912 1462.49 118 1462.84 118.896H1459.16C1459.64 117.904 1460.12 116.816 1460.5 115.792L1458.55 115.248C1457.56 118.128 1455.86 121.072 1453.94 123.088V122.384H1450.81V120.528H1454.62V118.864H1451.54C1451.19 117.872 1450.49 116.496 1449.85 115.408L1447.9 115.952C1448.41 116.816 1448.95 117.936 1449.27 118.864H1445.56C1446.04 117.872 1446.49 116.784 1446.87 115.76L1444.95 115.248C1443.93 118.224 1442.2 121.168 1440.22 123.088C1440.63 123.472 1441.27 124.336 1441.53 124.72C1442.1 124.176 1442.62 123.504 1443.16 122.8V130.928ZM1461.94 134.8C1460.34 136.464 1458.2 137.808 1455.64 138.896C1452.95 137.808 1450.68 136.464 1448.98 134.8H1461.94ZM1464.25 132.688L1463.8 132.816H1442.36V134.8H1446.58L1446.1 135.024C1447.8 137.04 1450.04 138.704 1452.63 140.048C1448.92 141.264 1444.66 141.968 1440.6 142.32C1440.98 142.896 1441.4 143.856 1441.59 144.496C1446.33 143.952 1451.19 142.992 1455.45 141.328C1459.1 142.768 1463.29 143.696 1467.74 144.208C1468.02 143.504 1468.66 142.48 1469.21 141.904C1465.4 141.584 1461.75 140.912 1458.52 139.952C1461.59 138.352 1464.15 136.304 1465.85 133.712L1464.25 132.688ZM1489.02 119.152V121.104H1485.5V122.736H1487.16C1486.94 124.56 1486.33 126.032 1484.66 126.896C1485.05 127.152 1485.56 127.792 1485.78 128.208C1487.86 126.992 1488.63 125.136 1488.92 122.736H1490.23V124.688C1490.23 125.904 1489.72 126.416 1489.37 126.64C1489.62 126.96 1490.01 127.728 1490.1 128.144C1490.42 127.792 1491.06 127.408 1493.82 126.032C1493.69 125.712 1493.53 125.136 1493.43 124.752L1491.86 125.424V122.736H1493.4V121.104H1490.71V119.152H1493.05V117.552H1490.71V115.216H1489.02V117.552H1487.86C1488.02 116.976 1488.15 116.432 1488.28 115.856L1486.71 115.536C1486.39 117.2 1485.91 118.864 1485.02 120.08C1485.43 120.272 1486.1 120.688 1486.39 120.912C1486.74 120.4 1487.03 119.824 1487.32 119.152H1489.02ZM1489.27 136.208H1498.97V138.032H1489.27V136.208ZM1489.27 132.912H1498.97V134.736H1489.27V132.912ZM1489.27 129.68H1498.97V131.44H1489.27V129.68ZM1487.06 139.568H1501.27V128.144H1487.06V139.568ZM1484.73 138.864L1480.76 139.792V130.928H1484.6V128.88H1480.76V125.392H1483.58V123.344H1476.7C1477.85 122.032 1478.94 120.528 1479.86 118.96C1481.53 120.24 1483.29 121.808 1484.38 123.024L1485.34 121.104C1484.28 119.92 1482.55 118.48 1480.79 117.264C1481.05 116.784 1481.27 116.336 1481.46 115.888L1479.77 115.056C1478.39 118.192 1476.02 121.168 1473.72 123.056C1474.04 123.664 1474.55 124.944 1474.71 125.456C1475.13 125.04 1475.61 124.592 1476.06 124.112V125.392H1478.84V128.88H1474.49V130.928H1478.84V140.208C1477.02 140.592 1475.38 140.976 1474.14 141.2L1474.58 143.344C1477.4 142.672 1481.27 141.712 1484.86 140.784L1484.73 138.864ZM1475.03 133.04C1475.54 134.896 1476.02 137.36 1476.15 138.96L1477.69 138.448C1477.56 136.88 1477.05 134.48 1476.5 132.592L1475.03 133.04ZM1482.9 138.608C1483.42 137.136 1483.99 134.8 1484.5 132.816L1482.84 132.24C1482.58 133.968 1482.04 136.496 1481.56 138.064L1482.9 138.608ZM1490.23 139.6C1488.63 140.624 1485.69 141.936 1483.7 142.736C1484.06 143.248 1484.5 144.016 1484.76 144.496C1486.84 143.6 1489.78 142.32 1492.06 141.136L1490.23 139.6ZM1495.48 141.104C1497.66 142.192 1500.12 143.568 1501.62 144.496L1502.84 142.864C1501.27 141.968 1498.78 140.656 1496.54 139.6L1495.48 141.104ZM1500.82 126.128C1500.7 126.128 1500.57 126.096 1500.5 126C1500.41 125.904 1500.41 125.712 1500.41 125.328V122.736H1503.1V121.104H1499.45V119.12H1502.49V117.552H1499.45V115.216H1497.72V117.552H1496.38C1496.54 116.976 1496.66 116.432 1496.76 115.856L1495.22 115.536C1494.94 117.2 1494.52 118.864 1493.66 120.112C1494.07 120.272 1494.71 120.688 1495 120.912C1495.32 120.4 1495.64 119.792 1495.86 119.12H1497.72V121.104H1494.01V122.736H1495.83C1495.67 124.624 1495.06 125.904 1493.27 126.672C1493.66 126.928 1494.14 127.568 1494.36 127.984C1496.54 126.864 1497.3 125.2 1497.53 122.736H1498.74V125.136C1498.74 126.384 1498.84 126.768 1499.13 127.088C1499.45 127.408 1499.96 127.536 1500.44 127.536H1501.5C1501.85 127.536 1502.23 127.472 1502.49 127.344C1502.78 127.216 1502.97 126.992 1503.13 126.704C1503.26 126.416 1503.35 125.552 1503.42 124.784C1503 124.656 1502.55 124.432 1502.23 124.208C1502.2 124.88 1502.17 125.424 1502.1 125.648C1502.01 125.872 1501.98 126 1501.85 126.032C1501.78 126.096 1501.59 126.128 1501.4 126.128H1500.82ZM1531.64 130.608V139.92H1516.44V130.608H1531.64ZM1536.06 120.016V117.68H1508.41V120.016H1517.53C1515.64 125.68 1512.09 131.696 1507.1 135.376C1507.61 135.824 1508.41 136.656 1508.76 137.2C1510.74 135.664 1512.54 133.84 1514.07 131.792V144.464H1516.44V142.224H1531.64V144.432H1534.1V128.336H1516.38C1517.94 125.68 1519.22 122.832 1520.22 120.016H1536.06ZM1558.46 118.608H1563.77V123.728C1563.77 126.128 1564.22 127.024 1566.3 127.024H1568.38C1568.98 127.024 1569.62 126.992 1569.94 126.864C1569.88 126.32 1569.82 125.424 1569.78 124.816C1569.4 124.912 1568.76 124.976 1568.38 124.976H1566.49C1566.04 124.976 1565.98 124.688 1565.98 123.792V116.368H1556.25V119.888C1556.25 122.16 1555.7 124.784 1552.28 126.736C1552.7 127.088 1553.5 127.984 1553.82 128.464C1557.62 126.224 1558.46 122.832 1558.46 119.952V118.608ZM1549.18 119.216C1548.66 118.064 1547.64 116.4 1546.71 115.088L1544.86 116.016C1545.75 117.36 1546.74 119.152 1547.26 120.304L1549.18 119.216ZM1553.5 120.656H1541.4V122.608H1553.5V120.656ZM1542.78 130.896H1552.22V129.008H1542.78V130.896ZM1542.78 124.848V126.736H1552.18V124.848H1542.78ZM1565.66 131.504C1564.6 133.936 1563.03 135.952 1561.14 137.616C1559.22 135.92 1557.69 133.872 1556.63 131.504H1565.66ZM1550.07 140.528H1544.82V135.248H1550.07V140.528ZM1567.16 129.168L1566.78 129.264H1553.14V131.504H1555.9L1554.52 131.984C1555.7 134.704 1557.3 137.104 1559.32 139.056C1557.18 140.528 1554.71 141.616 1552.18 142.288V133.264H1542.74V144.016H1544.82V142.512H1552.12C1552.54 143.056 1552.98 143.888 1553.21 144.496C1556.09 143.632 1558.78 142.352 1561.14 140.592C1563.42 142.32 1566.07 143.6 1569.08 144.4C1569.4 143.728 1570.07 142.768 1570.55 142.256C1567.7 141.616 1565.18 140.528 1563 139.056C1565.53 136.72 1567.51 133.712 1568.7 129.84L1567.16 129.168ZM1583.61 119.216C1583.13 118.096 1582.1 116.432 1581.14 115.12L1579.35 116.048C1580.18 117.36 1581.21 119.152 1581.69 120.304L1583.61 119.216ZM1588.7 120.656H1575.54V122.608H1588.7V120.656ZM1587.29 129.008H1576.95V130.896H1587.29V129.008ZM1585.24 135.248V140.528H1579.29V135.248H1585.24ZM1587.32 133.264H1577.21V144.016H1579.29V142.512H1587.32V133.264ZM1576.95 126.736H1587.35V124.848H1576.95V126.736ZM1603.86 126.256H1597.3V115.824H1594.9V126.256H1588.63V128.592H1594.9V144.464H1597.3V128.592H1603.86V126.256ZM1631 122.16H1633.14V119.856H1637.46V117.84H1633.14V115.28H1631V117.84H1628.31V119.856H1631V122.16ZM1622.46 122.128H1624.63V119.888H1627.19V117.872H1624.63V115.28H1622.46V117.872H1618.52V119.888H1622.46V122.128ZM1618.84 131.024C1618.3 130.064 1616.06 126.16 1615.22 124.88V123.6H1618.81V121.36H1615.22V115.216H1613.02V121.36H1608.95V123.6H1612.86C1611.93 127.792 1610.04 132.88 1608.18 135.504C1608.6 136.08 1609.14 137.104 1609.4 137.808C1610.71 135.76 1612.02 132.464 1613.02 129.104V144.432H1615.22V128.112C1616.06 129.744 1616.95 131.696 1617.37 132.752L1618.84 131.024ZM1622.2 128.656H1633.24V130.928H1622.2V128.656ZM1622.2 124.688H1633.24V126.96H1622.2V124.688ZM1637.08 137.392V135.376H1628.34C1628.5 134.544 1628.66 133.648 1628.76 132.72H1635.54V122.896H1619.96V132.72H1626.42C1626.33 133.648 1626.17 134.576 1625.98 135.376H1617.88V137.392H1625.27C1624.09 139.824 1621.78 141.52 1617.11 142.576C1617.59 143.024 1618.14 143.92 1618.36 144.464C1623.96 143.088 1626.52 140.816 1627.77 137.392H1637.08ZM1627.74 139.088C1630.55 140.656 1634.3 142.928 1636.18 144.336L1637.66 142.576C1635.7 141.264 1631.93 139.056 1629.14 137.584L1627.74 139.088ZM1669.08 115.44H1666.81V129.616C1666.81 130.064 1666.68 130.192 1666.2 130.192C1665.72 130.256 1664.12 130.256 1662.3 130.192C1662.65 130.832 1663 131.728 1663.1 132.368C1665.37 132.368 1666.9 132.336 1667.86 131.984C1668.82 131.6 1669.08 130.992 1669.08 129.68V115.44ZM1663.1 117.04H1660.89V127.696H1663.1V117.04ZM1649.11 122.832V118.64H1653.05V123.024H1649.11V122.832ZM1653.05 125.136V131.984H1655.29V125.136H1658.9V123.024H1655.29V118.64H1658.26V116.528H1643.93V118.64H1646.9V122.768V123.024H1642.87V125.136H1646.74C1646.36 127.28 1645.37 129.424 1642.58 131.12C1643.03 131.472 1643.83 132.336 1644.15 132.784C1647.38 130.736 1648.57 127.888 1648.95 125.136H1653.05ZM1657.98 141.136V137.104H1667.64V134.928H1657.98V131.344H1655.58V134.928H1645.53V137.104H1655.58V141.136H1642.23V143.376H1670.97V141.136H1657.98ZM1690.2 124.592C1691.48 124.592 1692.63 123.664 1692.63 122.192C1692.63 120.72 1691.48 119.792 1690.2 119.792C1688.92 119.792 1687.8 120.72 1687.8 122.192C1687.8 123.664 1688.92 124.592 1690.2 124.592ZM1690.2 140.272C1691.48 140.272 1692.63 139.312 1692.63 137.872C1692.63 136.4 1691.48 135.44 1690.2 135.44C1688.92 135.44 1687.8 136.4 1687.8 137.872C1687.8 139.312 1688.92 140.272 1690.2 140.272ZM1445.08 191.28C1445.24 190.256 1445.4 189.104 1445.56 187.984H1452.31V180.88H1447.35C1450.2 178.96 1452.66 176.432 1454.07 173.232L1452.6 172.464L1452.18 172.56H1443.51V174.512H1450.94C1450.14 175.728 1449.08 176.88 1447.86 177.904C1446.94 176.944 1445.37 175.824 1444.06 175.056L1442.68 176.368C1443.9 177.104 1445.34 178.224 1446.3 179.12C1444.34 180.432 1442.14 181.488 1439.99 182.128C1440.44 182.544 1441.02 183.376 1441.27 183.888C1442.49 183.504 1443.67 182.992 1444.82 182.384V182.768H1450.17V186.128H1443.83C1443.54 188.4 1443.1 191.248 1442.71 193.136H1450.04C1449.75 196.176 1449.4 197.488 1448.92 197.904C1448.66 198.16 1448.34 198.192 1447.77 198.192C1447.16 198.192 1445.4 198.16 1443.67 198C1444.02 198.576 1444.34 199.408 1444.38 200.048C1446.1 200.144 1447.8 200.176 1448.6 200.112C1449.53 200.048 1450.17 199.856 1450.71 199.312C1451.48 198.576 1451.9 196.688 1452.28 192.208C1452.34 191.952 1452.38 191.28 1452.38 191.28H1445.08ZM1465.14 189.872L1464.76 189.968H1453.85V191.696H1463.64C1462.84 193.008 1461.78 194.128 1460.57 195.12C1458.68 194.032 1456.7 192.88 1455 191.984L1453.85 193.296C1455.42 194.16 1457.18 195.216 1458.9 196.24C1456.95 197.392 1454.68 198.224 1452.34 198.736C1452.76 199.152 1453.21 199.952 1453.43 200.496C1456.09 199.824 1458.58 198.832 1460.76 197.392C1462.62 198.544 1464.31 199.664 1465.46 200.528L1466.65 198.992C1465.56 198.192 1464.02 197.232 1462.33 196.176C1464.12 194.672 1465.56 192.752 1466.46 190.416L1465.14 189.872ZM1467.06 174.64C1466.01 175.76 1464.18 177.296 1462.74 178.352C1461.88 177.744 1461.08 177.104 1460.41 176.4C1461.85 175.376 1463.64 174 1465.02 172.688L1463.26 171.44C1462.3 172.528 1460.6 174.032 1459.22 175.152C1458.2 173.936 1457.37 172.656 1456.73 171.28L1454.84 171.856C1456.5 175.504 1459.16 178.544 1462.46 180.752H1455.35V183.248C1455.35 184.784 1454.9 186.512 1452.38 187.888C1452.82 188.176 1453.59 188.944 1453.91 189.36C1456.73 187.728 1457.4 185.36 1457.4 183.312V182.672H1461.75V185.776C1461.75 187.664 1462.14 188.432 1464.09 188.432H1466.71C1467.35 188.432 1467.99 188.432 1468.34 188.304C1468.28 187.824 1468.22 187.12 1468.22 186.608C1467.8 186.704 1467.1 186.736 1466.68 186.736H1464.31C1463.83 186.736 1463.77 186.512 1463.77 185.808V181.552C1465.18 182.352 1466.71 182.992 1468.34 183.504C1468.7 182.928 1469.27 182.096 1469.78 181.648C1467.83 181.136 1466.01 180.368 1464.31 179.376C1465.78 178.416 1467.51 177.104 1468.82 175.856L1467.06 174.64ZM1485.4 189.968L1480.98 191.216V184.08H1484.92V181.872H1480.98V175.056H1485.21V172.88H1474.3V175.056H1478.71V181.872H1474.68V184.08H1478.71V191.824C1476.82 192.368 1475.1 192.816 1473.69 193.168L1474.33 195.44C1477.43 194.512 1481.69 193.264 1485.69 192.08L1485.4 189.968ZM1488.92 184.848H1499.29V188.112H1488.92V184.848ZM1488.92 179.728H1499.29V182.928H1488.92V179.728ZM1488.92 174.64H1499.29V177.84H1488.92V174.64ZM1498.2 198.16C1497.4 198.16 1497.27 198.032 1497.27 197.232V190.128H1501.62V172.624H1486.68V190.128H1489.53C1489.02 194.256 1487.58 197.136 1481.94 198.672C1482.42 199.12 1483.06 200.08 1483.29 200.624C1489.5 198.704 1491.22 195.216 1491.86 190.128H1495V197.232C1495 199.536 1495.58 200.208 1497.85 200.208H1500.95C1502.87 200.208 1503.48 199.216 1503.64 195.312C1503.06 195.152 1502.1 194.8 1501.66 194.384C1501.56 197.68 1501.43 198.16 1500.7 198.16H1498.2ZM1516.17 193.328L1531.5 187.312V184.944L1516.17 178.928V181.488L1523.72 184.272L1528.52 186.064V186.192L1523.72 187.984L1516.17 190.768V193.328ZM1548.12 177.104H1569.91V181.776H1572.31V174.832H1560.92C1560.53 173.776 1559.73 172.208 1559.03 171.024L1556.73 171.696C1557.24 172.624 1557.85 173.84 1558.23 174.832H1545.78V181.776H1548.12V177.104ZM1560.25 190.768H1569.72V188.528H1560.25V183.312H1568.41V181.04H1549.88V183.312H1557.81V196.528C1555.22 195.536 1553.17 193.68 1551.96 190.288C1552.25 189.008 1552.5 187.632 1552.69 186.16L1550.33 185.904C1549.62 191.664 1547.89 196.208 1544.34 198.928C1544.92 199.28 1545.88 200.112 1546.26 200.56C1548.37 198.736 1549.94 196.304 1551.03 193.328C1553.94 198.768 1558.71 199.92 1565.37 199.92H1572.76C1572.89 199.216 1573.27 198.128 1573.65 197.52C1572.12 197.584 1566.65 197.584 1565.49 197.584C1563.61 197.584 1561.85 197.488 1560.25 197.168V190.768ZM1606.81 182.256H1593.81V180.208H1603.77V178.416H1593.81V176.464H1605.46V174.608H1598.87C1599.45 173.808 1600.15 172.784 1600.79 171.824L1598.26 171.152C1597.85 172.144 1597.05 173.616 1596.44 174.608H1588.79L1589.01 174.512C1588.63 173.552 1587.7 172.208 1586.77 171.248L1584.73 171.952C1585.37 172.752 1586.04 173.744 1586.49 174.608H1579.93V176.464H1591.41V178.416H1581.62V180.208H1591.41V182.256H1578.55V184.144H1606.81V182.256ZM1605.08 187.408C1603.96 186.448 1601.72 185.264 1599.89 184.592L1598.61 186C1600.44 186.768 1602.65 188.016 1603.7 188.976L1605.08 187.408ZM1602.36 191.568C1601.49 192.688 1600.31 193.712 1598.97 194.608C1598.36 193.616 1597.81 192.464 1597.37 191.152H1606.9V189.296H1596.85C1596.53 187.856 1596.31 186.288 1596.25 184.624H1593.94C1594.04 186.256 1594.23 187.824 1594.55 189.296H1587.57V186.832C1589.49 186.608 1591.29 186.288 1592.76 185.936L1591.32 184.432C1588.47 185.168 1583.25 185.744 1578.9 186C1579.13 186.416 1579.38 187.088 1579.45 187.568C1581.3 187.472 1583.32 187.312 1585.3 187.12V189.296H1578.52V191.152H1585.3V193.488C1582.68 193.68 1580.28 193.84 1578.39 193.968L1578.61 195.888L1585.3 195.28V198.032C1585.3 198.48 1585.14 198.576 1584.66 198.576C1584.18 198.608 1582.52 198.608 1580.79 198.544C1581.05 199.088 1581.4 199.888 1581.53 200.432C1583.93 200.432 1585.43 200.432 1586.36 200.112C1587.25 199.856 1587.57 199.312 1587.57 198.096V195.088C1589.46 194.896 1591.38 194.736 1593.3 194.544V192.848L1587.57 193.296V191.152H1595.03C1595.54 192.88 1596.21 194.416 1597.01 195.728C1594.81 196.88 1592.28 197.808 1589.78 198.448C1590.17 198.896 1590.77 199.888 1591.03 200.336C1593.46 199.568 1595.93 198.576 1598.17 197.36C1599.83 199.312 1601.85 200.432 1604.12 200.432C1606.13 200.4 1606.97 199.536 1607.32 196.144C1606.71 195.984 1605.97 195.6 1605.49 195.216C1605.33 197.488 1605.08 198.224 1604.21 198.256C1602.77 198.288 1601.37 197.52 1600.12 196.176C1601.81 195.056 1603.29 193.744 1604.41 192.272L1602.36 191.568ZM1620.23 193.328L1635.56 187.312V184.944L1620.23 178.928V181.488L1627.79 184.272L1632.59 186.064V186.192L1627.79 187.984L1620.23 190.768V193.328ZM1653.21 191.28C1653.37 190.256 1653.53 189.104 1653.69 187.984H1660.44V180.88H1655.48C1658.33 178.96 1660.79 176.432 1662.2 173.232L1660.73 172.464L1660.31 172.56H1651.64V174.512H1659.06C1658.26 175.728 1657.21 176.88 1655.99 177.904C1655.06 176.944 1653.49 175.824 1652.18 175.056L1650.81 176.368C1652.02 177.104 1653.46 178.224 1654.42 179.12C1652.47 180.432 1650.26 181.488 1648.12 182.128C1648.57 182.544 1649.14 183.376 1649.4 183.888C1650.61 183.504 1651.8 182.992 1652.95 182.384V182.768H1658.29V186.128H1651.96C1651.67 188.4 1651.22 191.248 1650.84 193.136H1658.17C1657.88 196.176 1657.53 197.488 1657.05 197.904C1656.79 198.16 1656.47 198.192 1655.89 198.192C1655.29 198.192 1653.53 198.16 1651.8 198C1652.15 198.576 1652.47 199.408 1652.5 200.048C1654.23 200.144 1655.93 200.176 1656.73 200.112C1657.65 200.048 1658.29 199.856 1658.84 199.312C1659.61 198.576 1660.02 196.688 1660.41 192.208C1660.47 191.952 1660.5 191.28 1660.5 191.28H1653.21ZM1673.27 189.872L1672.89 189.968H1661.97V191.696H1671.77C1670.97 193.008 1669.91 194.128 1668.69 195.12C1666.81 194.032 1664.82 192.88 1663.12 191.984L1661.97 193.296C1663.54 194.16 1665.3 195.216 1667.03 196.24C1665.08 197.392 1662.81 198.224 1660.47 198.736C1660.89 199.152 1661.33 199.952 1661.56 200.496C1664.21 199.824 1666.71 198.832 1668.89 197.392C1670.74 198.544 1672.44 199.664 1673.59 200.528L1674.77 198.992C1673.69 198.192 1672.15 197.232 1670.45 196.176C1672.25 194.672 1673.69 192.752 1674.58 190.416L1673.27 189.872ZM1675.19 174.64C1674.13 175.76 1672.31 177.296 1670.87 178.352C1670.01 177.744 1669.21 177.104 1668.53 176.4C1669.97 175.376 1671.77 174 1673.14 172.688L1671.38 171.44C1670.42 172.528 1668.73 174.032 1667.35 175.152C1666.33 173.936 1665.49 172.656 1664.85 171.28L1662.97 171.856C1664.63 175.504 1667.29 178.544 1670.58 180.752H1663.48V183.248C1663.48 184.784 1663.03 186.512 1660.5 187.888C1660.95 188.176 1661.72 188.944 1662.04 189.36C1664.85 187.728 1665.53 185.36 1665.53 183.312V182.672H1669.88V185.776C1669.88 187.664 1670.26 188.432 1672.21 188.432H1674.84C1675.48 188.432 1676.12 188.432 1676.47 188.304C1676.41 187.824 1676.34 187.12 1676.34 186.608C1675.93 186.704 1675.22 186.736 1674.81 186.736H1672.44C1671.96 186.736 1671.89 186.512 1671.89 185.808V181.552C1673.3 182.352 1674.84 182.992 1676.47 183.504C1676.82 182.928 1677.4 182.096 1677.91 181.648C1675.96 181.136 1674.13 180.368 1672.44 179.376C1673.91 178.416 1675.64 177.104 1676.95 175.856L1675.19 174.64ZM1706.74 174.832V178.096H1687.7V174.832H1706.74ZM1709.11 180.176V172.752H1685.33V182.064C1685.33 187.184 1685.08 194.256 1681.88 199.28C1682.45 199.472 1683.51 200.112 1683.96 200.496C1687.22 195.28 1687.7 187.504 1687.7 182.064V180.176H1709.11ZM1695.77 185.424H1702.13V188.784H1695.77V185.424ZM1707.54 191.056C1706.36 192.016 1704.37 193.296 1702.77 194.256C1701.72 193.264 1700.89 192.112 1700.21 190.864H1711.03V188.784H1704.37V185.424H1709.75V183.376H1704.37V180.496H1702.13V183.376H1695.77V180.496H1693.53V183.376H1688.76V185.424H1693.53V188.784H1687.89V190.864H1691.35V196.048C1691.35 197.456 1690.39 198.16 1689.81 198.48C1690.17 198.96 1690.65 199.92 1690.74 200.496C1691.38 200.08 1692.37 199.792 1700.37 197.84C1700.31 197.36 1700.37 196.432 1700.47 195.856L1693.59 197.392V190.864H1698.01C1700.18 195.792 1704.25 199.056 1709.91 200.496C1710.23 199.856 1710.84 198.992 1711.38 198.512C1708.57 197.936 1706.2 196.944 1704.25 195.504C1705.88 194.64 1707.83 193.424 1709.33 192.272L1707.54 191.056ZM1724.3 193.328L1739.63 187.312V184.944L1724.3 178.928V181.488L1731.85 184.272L1736.65 186.064V186.192L1731.85 187.984L1724.3 190.768V193.328ZM1780.88 175.632H1767.73L1769.17 175.056C1768.72 173.968 1767.7 172.208 1766.8 170.928L1764.6 171.696C1765.36 172.944 1766.26 174.512 1766.71 175.632H1753.43V177.968H1780.88V175.632ZM1770.96 180.272C1773.91 182.288 1777.46 185.328 1779.06 187.344L1781.01 185.808C1779.28 183.76 1775.7 180.88 1772.79 178.896L1770.96 180.272ZM1761.43 178.96C1759.51 181.392 1756.37 183.856 1753.56 185.456C1754.07 185.872 1754.96 186.768 1755.38 187.248C1758.2 185.424 1761.56 182.576 1763.7 179.856L1761.43 178.96ZM1771.99 184.336C1770.93 187.248 1769.33 189.648 1767.28 191.6C1765.2 189.648 1763.57 187.248 1762.48 184.528L1760.37 185.168C1761.65 188.272 1763.35 190.928 1765.56 193.072C1762.23 195.632 1757.91 197.328 1752.79 198.384C1753.27 198.896 1753.97 199.952 1754.23 200.528C1759.38 199.216 1763.76 197.424 1767.28 194.64C1770.68 197.392 1774.96 199.216 1780.24 200.24C1780.56 199.568 1781.2 198.608 1781.72 198.096C1776.6 197.296 1772.37 195.6 1769.08 193.104C1771.32 190.96 1773.11 188.272 1774.42 185.008L1771.99 184.336ZM1794.26 171.44C1792.44 176.4 1789.4 181.264 1786.13 184.368C1786.58 184.912 1787.32 186.16 1787.6 186.704C1788.69 185.584 1789.81 184.272 1790.84 182.832V200.368H1793.2V179.152C1794.52 176.944 1795.64 174.576 1796.6 172.176L1794.26 171.44ZM1815.22 178.32H1811.16V171.6H1808.76V178.32H1795.86V180.688H1808.76V197.2C1808.76 197.936 1808.47 198.128 1807.76 198.192C1807 198.224 1804.37 198.224 1801.68 198.128C1802.04 198.768 1802.48 199.856 1802.61 200.464C1806.07 200.496 1808.21 200.464 1809.46 200.08C1810.64 199.728 1811.16 198.992 1811.16 197.2V180.688H1815.22V178.32ZM1804.72 191.792C1803.7 189.84 1801.59 186.512 1799.92 184.048L1797.88 185.008C1799.51 187.568 1801.56 190.992 1802.52 192.976L1804.72 191.792ZM1415 238.448C1413.11 238.448 1411.61 239.952 1411.61 241.84C1411.61 243.728 1413.11 245.232 1415 245.232C1416.89 245.232 1418.39 243.728 1418.39 241.84C1418.39 239.952 1416.89 238.448 1415 238.448ZM1468.18 229.68H1462.78C1462.49 228.88 1462.07 227.92 1461.69 227.184L1459.61 227.6C1459.9 228.24 1460.22 228.976 1460.44 229.68H1455.38V231.6H1468.18V229.68ZM1468.95 235.76H1465.08C1465.46 234.864 1465.88 233.808 1466.3 232.848L1464.15 232.336C1463.9 233.328 1463.48 234.704 1463.06 235.76H1460.22C1459.93 234.8 1459.42 233.552 1458.94 232.496L1457.05 232.912C1457.4 233.776 1457.82 234.864 1458.1 235.76H1455.06V237.712H1468.95V235.76ZM1454.17 229.68H1449.05C1448.73 228.88 1448.31 227.92 1447.9 227.152L1445.82 227.568C1446.1 228.208 1446.46 228.976 1446.71 229.68H1441.56V231.6H1454.17V229.68ZM1454.3 235.888H1451.32C1451.7 234.992 1452.12 233.904 1452.5 232.912L1450.36 232.4C1450.14 233.392 1449.66 234.8 1449.24 235.888H1446.52C1446.14 234.896 1445.56 233.552 1445.05 232.496L1443.13 232.976C1443.51 233.84 1443.99 234.96 1444.31 235.888H1441.02V237.84H1454.3V235.888ZM1444.54 241.104H1451.16V244.368H1444.54V241.104ZM1451.26 251.408V246.064H1453.27V239.44H1442.49V246.064H1444.7C1444.41 249.84 1443.67 252.976 1440.6 254.736C1441.05 255.088 1441.72 255.92 1442.01 256.4C1445.53 254.224 1446.46 250.608 1446.84 246.064H1449.18V250.992C1449.18 252.176 1448.66 252.656 1448.22 252.88C1448.57 253.424 1448.98 254.512 1449.11 255.088C1449.5 254.64 1450.23 254.16 1455.1 251.472C1454.94 251.024 1454.71 250.192 1454.62 249.648L1451.26 251.408ZM1458.01 241.136H1465.4V244.336H1458.01V241.136ZM1465.46 254.224C1465.18 254.224 1464.95 254.16 1464.79 254.064C1464.63 253.936 1464.6 253.584 1464.6 253.04V246.032H1467.51V239.44H1455.99V246.032H1458.33C1457.94 250.128 1456.82 253.168 1452.6 254.864C1453.08 255.248 1453.69 256.048 1453.94 256.56C1458.62 254.512 1459.96 250.928 1460.44 246.032H1462.42V252.816C1462.42 254.608 1462.62 255.12 1463.13 255.472C1463.54 255.888 1464.38 256.016 1465.02 256.016H1466.84C1467.35 256.016 1468.09 255.952 1468.5 255.76C1468.98 255.568 1469.3 255.216 1469.5 254.736C1469.69 254.224 1469.78 252.848 1469.85 251.6C1469.27 251.408 1468.54 251.024 1468.09 250.672C1468.06 251.952 1468.06 252.944 1467.96 253.392C1467.86 253.776 1467.7 254 1467.51 254.064C1467.35 254.192 1467 254.224 1466.68 254.224H1465.46ZM1495 236.912H1482.3V230.864H1495V236.912ZM1497.4 228.592H1479.99V239.184H1497.4V228.592ZM1484.31 244.848V252.432H1477.62V244.848H1484.31ZM1475.35 256.464H1477.62V254.736H1484.31V256.176H1486.65V242.544H1475.35V256.464ZM1492.44 252.432V244.848H1499.7V252.432H1492.44ZM1490.14 242.544V256.464H1492.44V254.736H1499.7V256.24H1502.04V242.544H1490.14ZM1515.67 228.304C1514.14 233.296 1511.22 237.52 1507.45 240.144C1508.02 240.528 1509.02 241.424 1509.43 241.904C1513.18 238.896 1516.34 234.352 1518.14 228.912L1515.67 228.304ZM1512.25 239.248V241.552H1518.78C1518.01 246.96 1516.25 252.016 1508.73 254.544C1509.3 255.056 1509.98 255.984 1510.26 256.624C1518.39 253.648 1520.47 247.888 1521.3 241.552H1529.56C1529.18 249.616 1528.73 252.816 1527.9 253.616C1527.58 253.968 1527.22 254.032 1526.55 254.032C1525.78 254.032 1523.83 254 1521.75 253.808C1522.2 254.512 1522.49 255.472 1522.52 256.208C1524.5 256.304 1526.52 256.368 1527.54 256.272C1528.7 256.144 1529.37 255.92 1530.04 255.12C1531.13 253.904 1531.58 250.224 1532.02 240.4C1532.06 240.08 1532.09 239.248 1532.09 239.248H1512.25ZM1520.66 227.792V230.032H1526.33C1528.15 234.8 1531.45 239.28 1535.42 241.84C1535.83 241.168 1536.6 240.208 1537.11 239.696C1533.05 237.392 1529.62 232.816 1528.02 227.792H1520.66ZM1553.3 243.856C1552.66 242.896 1550.01 239.312 1548.89 237.968V236.336H1553.56V234.064H1548.89V227.216H1546.58V234.064H1541.82V236.336H1546.33C1545.27 240.72 1543.06 245.712 1540.95 248.368C1541.34 248.944 1541.94 249.872 1542.2 250.512C1543.83 248.368 1545.4 244.912 1546.58 241.328V256.432H1548.89V240.912C1549.98 242.608 1551.22 244.624 1551.77 245.744L1553.3 243.856ZM1570.26 238.096H1557.46V232.4C1561.3 231.696 1565.46 230.672 1568.44 229.456L1566.42 227.6C1563.83 228.784 1559.26 230 1555.22 230.736V240.528C1555.22 244.976 1554.94 250.928 1552.06 255.184C1552.6 255.376 1553.59 256.016 1554.01 256.4C1557.02 251.984 1557.46 245.296 1557.46 240.528V240.368H1563.29V256.464H1565.62V240.368H1570.26V238.096ZM1591.86 246.48L1594.04 244.656C1592.06 242.288 1589.14 239.408 1586.87 237.552L1584.79 239.376C1587.06 241.232 1589.78 243.952 1591.86 246.48ZM1637.37 239.12H1624.31V227.28H1621.78V239.12H1608.89V241.552H1621.78V256.432H1624.31V241.552H1637.37V239.12ZM1645.59 232.848H1667.48V237.104H1669.91V230.576H1658.62C1658.17 229.488 1657.3 228.08 1656.47 226.992L1654.2 227.76C1654.81 228.592 1655.42 229.648 1655.86 230.576H1643.26V237.104H1645.59V232.848ZM1670.23 244.368H1657.82V243.184C1660.6 241.712 1663.45 239.568 1665.46 237.488L1663.83 236.272L1663.32 236.4H1648.12V238.64H1660.92C1659.32 240.048 1657.21 241.488 1655.35 242.384V244.368H1642.87V246.64H1655.35V253.488C1655.35 253.936 1655.19 254.064 1654.58 254.096C1654.04 254.128 1651.99 254.128 1649.82 254.064C1650.23 254.672 1650.71 255.728 1650.9 256.4C1653.56 256.4 1655.22 256.368 1656.34 255.984C1657.46 255.632 1657.82 254.928 1657.82 253.52V246.64H1670.23V244.368ZM1683.67 228.304C1682.14 233.296 1679.22 237.52 1675.45 240.144C1676.02 240.528 1677.02 241.424 1677.43 241.904C1681.18 238.896 1684.34 234.352 1686.14 228.912L1683.67 228.304ZM1680.25 239.248V241.552H1686.78C1686.01 246.96 1684.25 252.016 1676.73 254.544C1677.3 255.056 1677.98 255.984 1678.26 256.624C1686.39 253.648 1688.47 247.888 1689.3 241.552H1697.56C1697.18 249.616 1696.73 252.816 1695.9 253.616C1695.58 253.968 1695.22 254.032 1694.55 254.032C1693.78 254.032 1691.83 254 1689.75 253.808C1690.2 254.512 1690.49 255.472 1690.52 256.208C1692.5 256.304 1694.52 256.368 1695.54 256.272C1696.7 256.144 1697.37 255.92 1698.04 255.12C1699.13 253.904 1699.58 250.224 1700.02 240.4C1700.06 240.08 1700.09 239.248 1700.09 239.248H1680.25ZM1688.66 227.792V230.032H1694.33C1696.15 234.8 1699.45 239.28 1703.42 241.84C1703.83 241.168 1704.6 240.208 1705.11 239.696C1701.05 237.392 1697.62 232.816 1696.02 227.792H1688.66ZM1721.3 243.856C1720.66 242.896 1718.01 239.312 1716.89 237.968V236.336H1721.56V234.064H1716.89V227.216H1714.58V234.064H1709.82V236.336H1714.33C1713.27 240.72 1711.06 245.712 1708.95 248.368C1709.34 248.944 1709.94 249.872 1710.2 250.512C1711.83 248.368 1713.4 244.912 1714.58 241.328V256.432H1716.89V240.912C1717.98 242.608 1719.22 244.624 1719.77 245.744L1721.3 243.856ZM1738.26 238.096H1725.46V232.4C1729.3 231.696 1733.46 230.672 1736.44 229.456L1734.42 227.6C1731.83 228.784 1727.26 230 1723.22 230.736V240.528C1723.22 244.976 1722.94 250.928 1720.06 255.184C1720.6 255.376 1721.59 256.016 1722.01 256.4C1725.02 251.984 1725.46 245.296 1725.46 240.528V240.368H1731.29V256.464H1733.62V240.368H1738.26V238.096Z" fill="black"/>
<rect width="748" height="296" rx="8" fill="#F0EFEC"/>
<circle cx="40" cy="56" r="12" fill="#BAB4A3"/>
<path d="M85.056 48.176H79.488L81.536 47.024C81.056 45.84 80.096 44.08 79.232 42.768L76.416 44.144C77.12 45.36 77.92 46.96 78.432 48.176H73.056V51.184H85.056V48.176ZM83.904 52.624H74.432V55.504H83.904V52.624ZM74.432 59.792H83.904V56.912H74.432V59.792ZM80.96 67.952H77.44V64.368H80.96V67.952ZM87.392 55.44C87.392 60.752 87.072 66.128 84.096 70.512V61.328H74.336V72.368H77.44V71.024H83.744L83.616 71.184C84.64 71.568 86.272 72.464 87.104 73.04C90.592 68.048 90.976 61.584 90.976 55.472V44.272H87.392V55.44ZM92.928 69.616H96.352V45.84H92.928V69.616ZM98.368 43.984V72.72H102.112V43.984H98.368ZM107.872 63.92C107.68 66.672 107.296 69.648 106.528 71.6C107.296 71.792 108.704 72.208 109.312 72.56C109.984 70.544 110.496 67.344 110.752 64.368L107.872 63.92ZM111.392 64.336C111.744 66.704 112.032 69.744 112.064 71.76L114.752 71.248C114.656 69.232 114.336 66.224 113.984 63.888L111.392 64.336ZM122.208 54.928C122.784 56.144 123.296 57.776 123.392 58.864L125.344 58.288C125.184 57.232 124.64 55.6 124.064 54.416L122.208 54.928ZM121.76 53.968H125.504V59.216H121.76V53.968ZM132.256 54.864L130.176 54.288C129.92 55.472 129.344 57.232 128.896 58.352L130.656 58.928C131.136 57.904 131.712 56.464 132.256 55.056V59.216H128.544V53.968H132.256V54.864ZM135.392 62.192V50.992H128.832V49.232H135.968V45.968H128.832V42.928H125.216V45.968H118.176V49.168L115.232 47.408C114.592 48.848 113.856 50.352 113.056 51.696L110.976 51.856C112.544 49.552 114.048 46.8 115.168 44.144L111.84 42.768C110.816 46.16 108.832 49.712 108.192 50.608C107.584 51.568 107.072 52.176 106.464 52.368C106.848 53.232 107.392 54.864 107.584 55.536C108.032 55.312 108.736 55.152 111.072 54.864C110.272 56.144 109.536 57.072 109.12 57.52C108.128 58.736 107.456 59.472 106.688 59.632C107.072 60.56 107.648 62.256 107.808 62.896C108.512 62.608 109.632 62.32 115.616 61.424C115.712 61.968 115.776 62.48 115.84 62.896L118.624 62.032C118.432 60.336 117.696 57.52 116.96 55.376L114.304 56.08C114.528 56.816 114.784 57.68 114.976 58.544L111.84 58.928C114.208 56.08 116.544 52.624 118.304 49.232H125.216V50.992H118.816V62.192H123.584C122.272 64.464 120.288 66.672 118.24 68.016C117.952 66.448 117.44 64.56 116.992 63.024L114.592 63.728C115.168 65.712 115.744 68.336 115.936 70.064L118.4 69.296C118.976 70 119.488 70.768 119.808 71.376C121.76 69.968 123.744 67.76 125.312 65.424V72.784H128.928V64.272C130.496 66.928 132.416 69.456 134.144 71.056C134.72 70.224 135.872 69.04 136.64 68.4C134.656 66.96 132.352 64.56 130.688 62.192H135.392ZM147.616 66.736V62.96H162.432V66.736H147.616ZM162.432 55.6V59.376H147.616V55.6H162.432ZM162.432 48.336V52.016H147.616V48.336H162.432ZM143.776 44.624V72.432H147.616V70.448H162.432V72.432H166.464V44.624H143.776ZM194.784 48.528H193.088V47.088H194.784V48.528ZM199.328 51.216V53.616H197.504V51.216H199.328ZM193.088 51.216H194.784V53.616H193.088V51.216ZM188.672 51.216H190.4V53.616H188.672V51.216ZM190.4 48.528H185.6V56.304H202.624V48.528H197.504V47.088H203.2V44.08H184.992V47.088H190.4V48.528ZM201.312 60.304V57.424H186.944V60.304H201.312ZM185.568 59.504C185.024 58.576 182.624 54.864 181.792 53.776V52.368H184.896V48.848H181.792V42.896H178.336V48.848H174.336V52.368H177.856C176.992 55.984 175.296 60.432 173.536 62.896C174.08 63.888 174.912 65.648 175.296 66.768C176.448 64.944 177.472 62.288 178.336 59.408V72.752H181.792V58.512C182.432 59.824 183.008 61.168 183.36 62.096L185.568 59.504ZM187.712 65.232C186.848 67.024 185.312 68.912 183.68 70.16C184.48 70.64 185.888 71.6 186.528 72.176C188.128 70.704 189.92 68.4 191.008 66.16L187.712 65.232ZM203.264 64.56V61.584H185.024V64.56H192.288V72.752H195.68V64.56H203.264ZM196.864 66.672C198.304 68.272 199.968 70.512 200.672 71.952L203.616 70.224C202.784 68.848 201.12 66.768 199.616 65.264L196.864 66.672Z" fill="#8D887C"/>
<path d="M52 126.448C50.112 126.448 48.608 127.952 48.608 129.84C48.608 131.728 50.112 133.232 52 133.232C53.888 133.232 55.392 131.728 55.392 129.84C55.392 127.952 53.888 126.448 52 126.448ZM88.864 134.128C88.608 132.432 87.808 129.552 87.04 127.376L85.248 127.824C85.6 128.752 85.888 129.808 86.176 130.896L81.056 131.568C83.584 128.624 86.112 124.88 88.16 121.2L86.144 120.016C85.472 121.488 84.608 122.96 83.808 124.336L80.448 124.624C82.208 122.16 83.968 119.088 85.376 116.08L83.232 115.184C81.92 118.64 79.68 122.32 79.008 123.248C78.336 124.24 77.792 124.88 77.248 125.008C77.536 125.584 77.888 126.64 78.016 127.12C78.432 126.896 79.136 126.768 82.464 126.352C81.312 128.112 80.288 129.456 79.776 130C78.848 131.184 78.112 131.984 77.472 132.144C77.728 132.72 78.08 133.84 78.176 134.32C78.816 134 79.744 133.776 86.624 132.72C86.784 133.456 86.912 134.128 86.976 134.672L88.864 134.128ZM78.816 135.696C78.496 138.384 77.984 141.392 77.216 143.44C77.728 143.6 78.656 143.856 79.04 144.08C79.744 142.064 80.352 138.896 80.704 136.016L78.816 135.696ZM82.176 135.888C82.528 138.192 82.88 141.2 82.976 143.184L84.768 142.864C84.672 140.848 84.288 137.872 83.872 135.6L82.176 135.888ZM85.28 135.28C85.888 137.232 86.56 139.76 86.816 141.392L88.512 140.88C88.224 139.248 87.52 136.752 86.848 134.832L85.28 135.28ZM100.896 130.992C101.504 129.84 102.272 128.048 102.912 126.48L101.376 126.032C101.024 127.312 100.256 129.36 99.648 130.576L100.896 130.992ZM92.8 126.512C93.472 127.856 94.144 129.712 94.336 130.928L95.744 130.48C95.52 129.296 94.848 127.536 94.112 126.192L92.8 126.512ZM91.68 125.264H96.544V131.728H91.68V125.264ZM103.328 131.728H98.528V125.264H103.328V131.728ZM105.376 133.68V123.312H98.688V120.72H106.24V118.608H98.688V115.248H96.384V118.608H88.896V120.72H96.384V123.312H89.76V133.68H95.136C93.568 136.656 90.944 139.568 88.448 141.04C88.96 141.52 89.536 142.32 89.888 142.864C92.288 141.232 94.752 138.384 96.416 135.504V144.464H98.72V134.736C100.448 137.712 102.944 140.816 105.088 142.576C105.472 142.032 106.144 141.296 106.688 140.88C104.448 139.344 101.792 136.432 100.032 133.68H105.376ZM126.304 128.08C128.736 127.184 131.84 126.032 134.784 124.912L134.432 123.152C131.104 124.336 127.744 125.52 125.44 126.256L126.304 128.08ZM132.576 122C131.648 121.04 129.792 119.824 128.288 119.088L127.04 120.528C128.576 121.296 130.432 122.576 131.264 123.568L132.576 122ZM121.952 127.344C121.952 127.696 121.856 127.824 121.472 127.824C121.088 127.856 119.808 127.856 118.4 127.824C118.624 128.336 118.912 129.04 119.008 129.584C121.024 129.584 122.304 129.616 123.136 129.296C123.904 128.976 124.16 128.432 124.16 127.376V116.848H112.032V118.8H121.952V127.344ZM113.376 120.496C114.912 121.328 116.704 122.64 117.536 123.632L118.816 122.096C117.952 121.136 116.128 119.888 114.624 119.088L113.376 120.496ZM119.84 123.76C116.672 125.008 113.44 126.192 111.264 126.864L112.192 128.816C114.496 127.92 117.376 126.736 120.192 125.52L119.84 123.76ZM133.472 136.272H117.952V133.168H133.472V136.272ZM117.952 141.392V138.16H133.472V141.392H117.952ZM124.352 128.304C124.064 129.168 123.584 130.32 123.104 131.312H115.616V144.528H117.952V143.28H133.472V144.528H135.872V131.312H125.44C125.888 130.544 126.368 129.648 126.816 128.784L124.352 128.304ZM138.4 116.848H126.176V118.8H136.16V127.376C136.16 127.76 136.032 127.856 135.648 127.888C135.2 127.888 133.824 127.888 132.32 127.824C132.608 128.368 132.896 129.136 132.992 129.712C135.104 129.712 136.448 129.712 137.312 129.392C138.144 129.04 138.4 128.496 138.4 127.376V116.848ZM152.128 115.152C150.272 119.984 147.168 124.752 143.936 127.792C144.384 128.304 145.056 129.552 145.28 130.096C146.464 128.912 147.68 127.504 148.8 125.936V144.592H151.072V122.512C152.32 120.368 153.472 118.096 154.368 115.856L152.128 115.152ZM156.64 130.832V126.096H162.336V129.392C162.336 129.872 162.336 130.352 162.304 130.832H156.64ZM170.56 126.096V130.832H164.64C164.672 130.352 164.672 129.872 164.672 129.392V126.096H170.56ZM172.832 132.848V124.08H164.672V120.944H173.888V118.768H164.672V115.376H162.336V118.768H153.504V120.944H162.336V124.08H154.432V132.848H162.176C161.952 134.608 161.472 136.304 160.448 137.776C158.752 136.592 157.376 135.184 156.416 133.52L154.432 134.16C155.616 136.208 157.184 137.936 159.072 139.344C157.568 140.688 155.456 141.776 152.32 142.576C152.832 143.056 153.504 144.048 153.76 144.56C157.088 143.568 159.392 142.224 160.992 140.656C164.256 142.608 168.256 143.856 172.768 144.528C173.088 143.824 173.664 142.896 174.176 142.384C169.632 141.84 165.6 140.752 162.4 138.992C163.68 137.136 164.256 135.056 164.512 132.848H172.832ZM194.144 132.432V127.12H202.752V132.432H194.144ZM184 132.432C184.096 131.248 184.128 130.064 184.128 129.008V127.12H191.776V132.432H184ZM191.776 119.76V124.88H184.128V119.76H191.776ZM202.752 124.88H194.144V119.76H202.752V124.88ZM205.088 117.488H181.792V129.008C181.792 133.456 181.472 139.088 177.952 143.056C178.464 143.344 179.424 144.144 179.776 144.624C182.208 141.904 183.296 138.256 183.776 134.704H191.776V144.144H194.144V134.704H202.752V141.2C202.752 141.808 202.528 142 201.888 142.032C201.312 142.032 199.136 142.064 196.896 141.968C197.216 142.608 197.6 143.632 197.696 144.272C200.704 144.304 202.56 144.272 203.648 143.888C204.672 143.472 205.088 142.768 205.088 141.232V117.488ZM225.536 125.456V121.36H232.64C231.136 122.8 229.504 124.176 227.776 125.456H225.536ZM234.208 136.112H221.248V132.944H234.208V136.112ZM221.248 141.328V138H234.208V141.328H221.248ZM240.544 127.6V125.456H231.328C234.24 123.056 236.864 120.368 239.104 117.424L237.088 116.336C236 117.808 234.784 119.216 233.44 120.56V119.248H225.536V115.248H223.2V119.248H215.04V121.36H223.2V125.456H212.256V127.6H224.704C220.672 130.192 216.192 132.304 211.552 133.936C212 134.416 212.768 135.376 213.056 135.888C215.008 135.152 216.992 134.288 218.912 133.36V144.432H221.248V143.408H234.208V144.304H236.64V130.928H223.424C225.184 129.904 226.912 128.784 228.576 127.6H240.544ZM261.152 131.728V123.248H270.336V131.728H261.152ZM249.536 131.728V123.248H258.688V131.728H249.536ZM261.152 120.912V115.216H258.688V120.912H247.2V136.048H249.536V134.064H258.688V144.432H261.152V134.064H270.336V135.888H272.768V120.912H261.152ZM288.608 117.904C291.616 120.048 295.328 123.184 297.088 125.168L298.784 123.408C296.96 121.392 293.152 118.384 290.176 116.336L288.608 117.904ZM301.888 126.512C303.68 130.256 305.408 135.28 306.048 138.576L308.384 137.648C307.712 134.352 305.952 129.456 304.096 125.648L301.888 126.512ZM282.016 126.48C281.568 130.224 280.512 135.216 279.136 138.48L281.504 139.472C282.816 136.08 283.808 130.672 284.32 126.928L282.016 126.48ZM287.104 124.08V139.824C287.104 142.992 288.064 143.856 291.52 143.856H297.952C301.504 143.856 302.24 142.096 302.592 136.048C301.92 135.856 300.928 135.44 300.352 134.992C300.096 140.496 299.808 141.616 297.824 141.616H291.712C289.888 141.616 289.504 141.328 289.504 139.856V124.08H287.104ZM329.856 118.608H335.168V123.728C335.168 126.128 335.616 127.024 337.696 127.024H339.776C340.384 127.024 341.024 126.992 341.344 126.864C341.28 126.32 341.216 125.424 341.184 124.816C340.8 124.912 340.16 124.976 339.776 124.976H337.888C337.44 124.976 337.376 124.688 337.376 123.792V116.368H327.648V119.888C327.648 122.16 327.104 124.784 323.68 126.736C324.096 127.088 324.896 127.984 325.216 128.464C329.024 126.224 329.856 122.832 329.856 119.952V118.608ZM320.576 119.216C320.064 118.064 319.04 116.4 318.112 115.088L316.256 116.016C317.152 117.36 318.144 119.152 318.656 120.304L320.576 119.216ZM324.896 120.656H312.8V122.608H324.896V120.656ZM314.176 130.896H323.616V129.008H314.176V130.896ZM314.176 124.848V126.736H323.584V124.848H314.176ZM337.056 131.504C336 133.936 334.432 135.952 332.544 137.616C330.624 135.92 329.088 133.872 328.032 131.504H337.056ZM321.472 140.528H316.224V135.248H321.472V140.528ZM338.56 129.168L338.176 129.264H324.544V131.504H327.296L325.92 131.984C327.104 134.704 328.704 137.104 330.72 139.056C328.576 140.528 326.112 141.616 323.584 142.288V133.264H314.144V144.016H316.224V142.512H323.52C323.936 143.056 324.384 143.888 324.608 144.496C327.488 143.632 330.176 142.352 332.544 140.592C334.816 142.32 337.472 143.6 340.48 144.4C340.8 143.728 341.472 142.768 341.952 142.256C339.104 141.616 336.576 140.528 334.4 139.056C336.928 136.72 338.912 133.712 340.096 129.84L338.56 129.168ZM355.008 119.216C354.528 118.096 353.504 116.432 352.544 115.12L350.752 116.048C351.584 117.36 352.608 119.152 353.088 120.304L355.008 119.216ZM360.096 120.656H346.944V122.608H360.096V120.656ZM358.688 129.008H348.352V130.896H358.688V129.008ZM356.64 135.248V140.528H350.688V135.248H356.64ZM358.72 133.264H348.608V144.016H350.688V142.512H358.72V133.264ZM348.352 126.736H358.752V124.848H348.352V126.736ZM375.264 126.256H368.704V115.824H366.304V126.256H360.032V128.592H366.304V144.464H368.704V128.592H375.264V126.256ZM52 182.448C50.112 182.448 48.608 183.952 48.608 185.84C48.608 187.728 50.112 189.232 52 189.232C53.888 189.232 55.392 187.728 55.392 185.84C55.392 183.952 53.888 182.448 52 182.448ZM81.088 177.168H102.752V181.904H105.184V174.896H93.92C93.472 173.744 92.64 172.176 91.904 170.96L89.504 171.632C90.08 172.592 90.656 173.84 91.104 174.896H78.752V181.904H81.088V177.168ZM100.608 182.768V180.56H83.328V182.768H100.608ZM98.4 197.744C97.088 197.744 96.864 197.584 96.864 196.656V188.72H106.08V186.448H77.952V188.72H86.464C86.08 194.384 84.736 197.104 77.536 198.512C77.984 198.96 78.592 199.888 78.784 200.496C86.72 198.8 88.384 195.344 88.864 188.72H94.496V196.688C94.496 199.216 95.232 199.952 98.144 199.952H103.04C105.568 199.952 106.24 198.864 106.528 194.448C105.856 194.288 104.896 193.936 104.352 193.52C104.224 197.168 104.032 197.744 102.816 197.744H98.4ZM114.4 178.256H117.856V180.592H114.4V178.256ZM123.136 178.256V180.592H119.968V178.256H123.136ZM117.856 187.696H119.968V183.6C121.472 184.4 123.232 185.552 124.16 186.384L125.216 184.976C124.224 184.144 122.4 182.992 120.864 182.288L119.968 183.376V182.192H125.184V176.688H119.968V175.056H125.984V173.232H119.968V171.216H117.856V173.232H111.52V175.056H117.856V176.688H112.448V182.192H117.088C115.584 183.92 113.152 185.584 110.976 186.384C111.424 186.768 112.032 187.504 112.352 187.952C114.24 187.088 116.32 185.52 117.856 183.856V187.696ZM126.752 194.928H135.904V193.072H126.752V190.576H138.016V188.592H113.344V190.576H124.416V197.552H118.752V192.272H116.48V197.552H111.232V199.6H140.064V197.552H126.752V194.928ZM130.112 176.816L135.648 176.784C135.104 178.672 134.208 180.304 133.088 181.648C131.744 180.112 130.752 178.448 130.112 176.816ZM139.968 176.784V174.8H131.072C131.52 173.808 131.872 172.784 132.192 171.728L130.016 171.248C129.152 174.448 127.552 177.456 125.472 179.344C125.92 179.728 126.752 180.528 127.072 180.944C127.712 180.304 128.352 179.536 128.96 178.736C129.6 180.176 130.528 181.648 131.712 183.024C130.048 184.464 127.968 185.552 125.504 186.352C125.92 186.736 126.624 187.632 126.88 188.048C129.28 187.152 131.392 186.032 133.12 184.528C134.688 186 136.64 187.28 138.944 188.144C139.2 187.632 139.84 186.736 140.288 186.32C138.016 185.552 136.096 184.432 134.56 183.088C136.032 181.392 137.152 179.312 137.92 176.784H139.968ZM156.064 190.128C155.808 188.432 155.008 185.552 154.24 183.376L152.448 183.824C152.8 184.752 153.088 185.808 153.376 186.896L148.256 187.568C150.784 184.624 153.312 180.88 155.36 177.2L153.344 176.016C152.672 177.488 151.808 178.96 151.008 180.336L147.648 180.624C149.408 178.16 151.168 175.088 152.576 172.08L150.432 171.184C149.12 174.64 146.88 178.32 146.208 179.248C145.536 180.24 144.992 180.88 144.448 181.008C144.736 181.584 145.088 182.64 145.216 183.12C145.632 182.896 146.336 182.768 149.664 182.352C148.512 184.112 147.488 185.456 146.976 186C146.048 187.184 145.312 187.984 144.672 188.144C144.928 188.72 145.28 189.84 145.376 190.32C146.016 190 146.944 189.776 153.824 188.72C153.984 189.456 154.112 190.128 154.176 190.672L156.064 190.128ZM146.016 191.696C145.696 194.384 145.184 197.392 144.416 199.44C144.928 199.6 145.856 199.856 146.24 200.08C146.944 198.064 147.552 194.896 147.904 192.016L146.016 191.696ZM149.376 191.888C149.728 194.192 150.08 197.2 150.176 199.184L151.968 198.864C151.872 196.848 151.488 193.872 151.072 191.6L149.376 191.888ZM152.48 191.28C153.088 193.232 153.76 195.76 154.016 197.392L155.712 196.88C155.424 195.248 154.72 192.752 154.048 190.832L152.48 191.28ZM168.096 186.992C168.704 185.84 169.472 184.048 170.112 182.48L168.576 182.032C168.224 183.312 167.456 185.36 166.848 186.576L168.096 186.992ZM160 182.512C160.672 183.856 161.344 185.712 161.536 186.928L162.944 186.48C162.72 185.296 162.048 183.536 161.312 182.192L160 182.512ZM158.88 181.264H163.744V187.728H158.88V181.264ZM170.528 187.728H165.728V181.264H170.528V187.728ZM172.576 189.68V179.312H165.888V176.72H173.44V174.608H165.888V171.248H163.584V174.608H156.096V176.72H163.584V179.312H156.96V189.68H162.336C160.768 192.656 158.144 195.568 155.648 197.04C156.16 197.52 156.736 198.32 157.088 198.864C159.488 197.232 161.952 194.384 163.616 191.504V200.464H165.92V190.736C167.648 193.712 170.144 196.816 172.288 198.576C172.672 198.032 173.344 197.296 173.888 196.88C171.648 195.344 168.992 192.432 167.232 189.68H172.576ZM193.504 184.08C195.936 183.184 199.04 182.032 201.984 180.912L201.632 179.152C198.304 180.336 194.944 181.52 192.64 182.256L193.504 184.08ZM199.776 178C198.848 177.04 196.992 175.824 195.488 175.088L194.24 176.528C195.776 177.296 197.632 178.576 198.464 179.568L199.776 178ZM189.152 183.344C189.152 183.696 189.056 183.824 188.672 183.824C188.288 183.856 187.008 183.856 185.6 183.824C185.824 184.336 186.112 185.04 186.208 185.584C188.224 185.584 189.504 185.616 190.336 185.296C191.104 184.976 191.36 184.432 191.36 183.376V172.848H179.232V174.8H189.152V183.344ZM180.576 176.496C182.112 177.328 183.904 178.64 184.736 179.632L186.016 178.096C185.152 177.136 183.328 175.888 181.824 175.088L180.576 176.496ZM187.04 179.76C183.872 181.008 180.64 182.192 178.464 182.864L179.392 184.816C181.696 183.92 184.576 182.736 187.392 181.52L187.04 179.76ZM200.672 192.272H185.152V189.168H200.672V192.272ZM185.152 197.392V194.16H200.672V197.392H185.152ZM191.552 184.304C191.264 185.168 190.784 186.32 190.304 187.312H182.816V200.528H185.152V199.28H200.672V200.528H203.072V187.312H192.64C193.088 186.544 193.568 185.648 194.016 184.784L191.552 184.304ZM205.6 172.848H193.376V174.8H203.36V183.376C203.36 183.76 203.232 183.856 202.848 183.888C202.4 183.888 201.024 183.888 199.52 183.824C199.808 184.368 200.096 185.136 200.192 185.712C202.304 185.712 203.648 185.712 204.512 185.392C205.344 185.04 205.6 184.496 205.6 183.376V172.848ZM221.92 198.416C226.72 198.416 230.368 195.856 230.368 188.304V174.512H227.52V188.4C227.52 194.064 225.056 195.824 221.92 195.824C218.88 195.824 216.48 194.064 216.48 188.4V174.512H213.504V188.304C213.504 195.856 217.152 198.416 221.92 198.416ZM235.263 198H238.367L241.759 191.664C242.367 190.48 242.975 189.296 243.647 187.888H243.775C244.543 189.296 245.183 190.48 245.791 191.664L249.247 198H252.511L245.663 186.032L252.063 174.512H248.959L245.823 180.528C245.247 181.616 244.799 182.608 244.159 183.952H244.031C243.263 182.608 242.783 181.616 242.175 180.528L238.975 174.512H235.711L242.111 185.872L235.263 198ZM284.935 184.912C283.687 183.152 281.191 180.176 279.303 178.064L277.511 179.088C278.247 179.92 279.047 180.912 279.815 181.904L268.871 182.544C270.247 181.072 271.591 179.344 272.903 177.52H284.711V175.376H274.375C275.079 174.352 275.751 173.296 276.359 172.24L274.023 171.312C273.287 172.688 272.487 174.096 271.623 175.376H264.775V177.52H270.215C269.063 179.12 268.103 180.368 267.591 180.912C266.663 182 265.895 182.8 265.255 182.928C265.479 183.536 265.863 184.688 265.991 185.168C266.919 184.784 268.423 184.688 281.319 183.824C281.959 184.688 282.567 185.52 282.983 186.16L284.935 184.912ZM264.295 175.536C263.175 174.32 260.807 172.656 258.887 171.632L257.479 173.296C259.431 174.416 261.799 176.176 262.855 177.392L264.295 175.536ZM263.175 183.6C261.927 182.544 259.335 181.136 257.351 180.272L256.071 182.064C258.119 182.992 260.615 184.496 261.863 185.584L263.175 183.6ZM262.919 188.176C261.063 191.792 258.567 195.984 256.871 198.416L258.855 200.016C260.711 197.072 262.951 193.104 264.647 189.744L262.919 188.176ZM267.655 189.552C267.655 192.464 267.239 196.016 263.559 198.768C264.103 199.088 264.903 199.824 265.255 200.336C269.319 197.232 269.831 193.104 269.831 189.616V186.256H267.655V189.552ZM273.255 199.056H275.399V186.448H273.255V199.056ZM281.703 197.904C281.255 197.904 281.159 197.648 281.159 196.72V186.256H278.951V196.688C278.951 198.896 279.367 199.728 281.479 199.728H283.559C284.167 199.728 284.775 199.728 285.095 199.6C285.063 199.088 284.999 198.32 284.967 197.744C284.583 197.872 283.943 197.904 283.527 197.904H281.703ZM314.727 180.88H304.967V174.896H314.727V180.88ZM317.031 172.848H302.727V182.928H317.031V172.848ZM301.799 188.752C301.159 188.016 298.439 185.2 297.447 184.368V182.416H301.447V180.176H297.447V174.8C298.983 174.416 300.423 174 301.607 173.488L299.975 171.696C297.575 172.752 293.351 173.68 289.735 174.256C290.023 174.8 290.343 175.568 290.471 176.112C291.943 175.888 293.575 175.632 295.143 175.312V180.176H289.927V182.416H294.823C293.543 186.064 291.335 190.192 289.319 192.432C289.703 193.008 290.279 193.936 290.503 194.608C292.135 192.656 293.831 189.456 295.143 186.224V200.368H297.447V186.672C298.535 187.984 299.847 189.744 300.359 190.64L301.799 188.752ZM310.951 197.52V193.232H317.415V191.152H310.951V187.12C313.447 186.8 315.751 186.416 317.575 185.904L316.007 184.144C312.775 185.072 306.695 185.712 301.735 186C301.959 186.512 302.247 187.312 302.311 187.824C304.295 187.728 306.439 187.568 308.583 187.376V191.152H302.407V193.232H308.583V197.52H300.615V199.632H318.727V197.52H310.951ZM337.862 180.592C339.142 180.592 340.294 179.664 340.294 178.192C340.294 176.72 339.142 175.792 337.862 175.792C336.582 175.792 335.462 176.72 335.462 178.192C335.462 179.664 336.582 180.592 337.862 180.592ZM337.862 196.272C339.142 196.272 340.294 195.312 340.294 193.872C340.294 192.4 339.142 191.44 337.862 191.44C336.582 191.44 335.462 192.4 335.462 193.872C335.462 195.312 336.582 196.272 337.862 196.272ZM88.736 231.056H92.96V229.232H88.736V227.248H86.784V233.008H88.736V231.056ZM90.4 237.776H87.616V235.024H90.4V237.776ZM91.968 233.584H86.112V239.216H91.968V233.584ZM81.888 232.976H83.84V227.248H81.888V229.232H77.312V231.056H81.888V232.976ZM80.096 235.024H82.816V237.808H80.096V235.024ZM78.592 239.248H84.384V233.584H78.592V239.248ZM95.584 240.784H103.232V243.952H95.584V240.784ZM95.584 235.664H103.232V238.832H95.584V235.664ZM95.584 230.576H103.232V233.68H95.584V230.576ZM81.824 250.8H85.824V253.04H81.824V250.8ZM85.824 245.52H81.824V243.6H85.824V245.52ZM85.824 249.136H81.824V247.152H85.824V249.136ZM102.88 254.128C102.432 254.128 102.368 254.032 102.368 253.36V246.096H105.376V228.4H93.536V246.096H96.352C96 249.616 95.104 252.464 92.192 254.256V253.04H87.712V250.8H91.744V249.136H87.712V247.152H91.616V245.52H87.712V243.6H92.224V241.872H88.032C87.744 241.136 87.232 240.208 86.688 239.504L85.152 240.176C85.504 240.688 85.856 241.296 86.112 241.872H82.272C82.56 241.2 82.848 240.592 83.104 239.92L81.44 239.408C80.512 241.968 78.88 244.464 77.152 246.192C77.504 246.576 78.08 247.44 78.272 247.792C78.848 247.152 79.424 246.416 80 245.648V256.464H81.824V254.768H91.36C91.808 255.152 92.448 255.952 92.736 256.528C96.736 254.384 97.984 250.736 98.432 246.096H100.416V253.36C100.416 255.504 100.832 256.144 102.624 256.144H104.32C105.92 256.144 106.464 255.12 106.592 250.64C106.048 250.48 105.184 250.16 104.8 249.808C104.736 253.68 104.64 254.128 104.064 254.128H102.88ZM119.584 249.296C117.984 251.056 115.136 252.688 112.448 253.744C112.96 254.128 113.728 255.024 114.08 255.472C116.768 254.192 119.904 252.24 121.76 250.064L119.584 249.296ZM136.416 248.464V246.384H114.88V248.464H124.384V256.464H126.752V248.464H136.416ZM129.408 250.672C132.032 252.112 135.424 254.224 137.088 255.568L138.688 253.904C136.928 252.528 133.504 250.544 130.944 249.2L129.408 250.672ZM134.72 235.888C133.824 237.36 132.608 238.96 131.424 240.112C130.144 238.864 129.12 237.424 128.32 235.888H134.72ZM118.112 236.272H122.784C122.144 237.552 121.344 238.736 120.352 239.824C119.648 238.8 118.656 237.616 117.728 236.656L118.112 236.272ZM137.408 234.512H139.264V229.872H127.36C127.04 229.008 126.464 227.92 125.92 227.088L123.648 227.632C124.032 228.304 124.416 229.104 124.736 229.872H111.904V234.736H114.176V231.888H136.928V234.224L136.384 233.872L136 234H127.584V235.824L126.368 236.208C127.328 238.32 128.736 240.272 130.432 241.936H121.024C122.912 240.08 124.48 237.84 125.44 235.216L124.096 234.544L123.744 234.64H119.488C119.872 234.096 120.256 233.552 120.576 232.976L118.432 232.592C117.216 234.768 114.784 237.2 111.136 238.928C111.584 239.248 112.192 239.888 112.48 240.368C114.016 239.6 115.36 238.672 116.512 237.712C117.472 238.768 118.464 240.048 119.072 241.072C116.736 243.184 113.856 244.752 111.008 245.616C111.424 246.032 111.936 246.8 112.192 247.344C115.072 246.32 117.952 244.752 120.352 242.576V243.984H131.232L131.264 242.704C133.344 244.56 135.872 246 138.624 246.864C138.944 246.288 139.584 245.424 140.064 245.008C137.344 244.272 134.88 243.024 132.864 241.392C134.656 239.664 136.576 237.104 137.792 234.768L137.408 234.512ZM117.248 240.368C114.976 240.816 112.928 241.2 111.296 241.424L111.776 243.088C113.536 242.704 115.392 242.288 117.376 241.808L117.248 240.368ZM153.172 249.328L168.5 243.312V240.944L153.172 234.928V237.488L160.724 240.272L165.524 242.064V242.192L160.724 243.984L153.172 246.768V249.328ZM190.911 240.72L187.743 241.712V235.856H191.135V233.648H187.743V227.248H185.503V233.648H181.535V235.856H185.503V242.416C183.807 242.928 182.303 243.376 181.087 243.728L181.695 246.032L185.503 244.784V253.68C185.503 254.16 185.343 254.256 184.959 254.256C184.607 254.288 183.327 254.288 181.951 254.256C182.271 254.928 182.559 255.888 182.655 256.464C184.671 256.496 185.887 256.4 186.623 256.016C187.423 255.632 187.743 254.992 187.743 253.68V244.048L191.199 242.928L190.911 240.72ZM202.399 232.88V237.68C202.399 239.728 202.847 240.528 205.023 240.528H208.415C209.151 240.528 209.919 240.496 210.303 240.368C210.239 239.856 210.175 239.12 210.143 238.544C209.695 238.672 208.831 238.704 208.319 238.704H205.215C204.671 238.704 204.575 238.448 204.575 237.712V232.88H208.063V236.272H210.271V230.896H202.207C201.887 229.84 201.311 228.272 200.767 227.056L198.431 227.536C198.847 228.56 199.295 229.872 199.615 230.896H191.743V236.272H193.855V232.88H197.567C197.215 236.4 195.967 238.352 191.263 239.408C191.743 239.76 192.319 240.592 192.511 241.136C197.823 239.76 199.359 237.264 199.839 232.88H202.399ZM197.215 253.616C195.903 253.616 195.135 253.328 195.135 252.624C195.135 251.728 195.935 250.416 206.847 243.504C207.039 243.376 207.167 243.248 207.263 243.088L205.759 242.224L205.215 242.288H192.831V244.336H201.727C193.215 250.032 192.831 251.568 192.831 252.912C192.831 254.704 194.175 255.76 197.311 255.76H206.751C209.439 255.76 210.367 255.024 210.623 250.192C209.951 250.064 209.183 249.776 208.575 249.424C208.479 253.168 208.063 253.616 206.879 253.616H197.215ZM224.383 243.44L224.031 241.296L221.151 242.224V235.856H224.223V233.648H221.151V227.248H218.943V233.648H215.103V235.856H218.943V242.896C217.343 243.376 215.871 243.824 214.687 244.144L215.295 246.448C216.415 246.096 217.631 245.68 218.943 245.264V253.456C218.943 253.936 218.783 254.064 218.367 254.064C218.015 254.064 216.767 254.064 215.391 254.032C215.711 254.704 215.999 255.664 216.063 256.24C218.111 256.272 219.327 256.176 220.063 255.792C220.863 255.408 221.151 254.8 221.151 253.488V244.56L224.383 243.44ZM240.863 230.64V234.576H227.679V230.64H240.863ZM243.103 236.592V228.592H225.471V238.352C225.471 243.312 225.247 250.256 222.719 255.216C223.231 255.44 224.159 256.112 224.575 256.496C227.263 251.28 227.679 243.6 227.679 238.352V236.592H243.103ZM241.247 247.664V253.232H236.895V245.872H242.751V238.8H240.735V243.92H236.895V237.584H234.879V243.92H231.199V238.8H229.279V245.872H234.879V253.232H230.751V247.696H228.735V255.184H241.247V256.304H243.263V247.664H241.247ZM252.062 234.64H262.014V241.648H264.318V234.64H274.43V239.632H276.766V232.784H264.318V230.416H275.294V228.592H251.166V230.416H262.014V232.784H249.79V239.632H252.062V234.64ZM273.63 240.4C271.902 239.824 268.67 239.12 266.206 238.864L265.662 240.304C268.126 240.656 271.39 241.392 273.118 242.032L273.63 240.4ZM272.094 235.056C270.526 235.6 267.87 236.592 266.046 237.008L266.91 238.224C268.734 237.84 271.326 237.168 273.15 236.432L272.094 235.056ZM253.438 236.496C255.518 236.912 258.174 237.712 259.614 238.352L260.286 236.912C258.846 236.272 256.158 235.536 254.142 235.216L253.438 236.496ZM253.31 241.936C255.422 241.52 257.79 241.072 260.286 240.528L260.222 239.024C257.342 239.472 254.622 239.888 252.638 240.112L253.31 241.936ZM277.182 244.528V242.576H249.406V244.528H261.79C261.598 245.296 261.342 246.096 261.118 246.832H251.902V256.4H254.174V248.784H258.91V256.208H261.086V248.784H265.918V256.208H268.094V248.784H273.086V254.064C273.086 254.352 272.99 254.448 272.638 254.48C272.286 254.512 271.198 254.512 269.918 254.48C270.206 255.056 270.558 255.856 270.686 256.464C272.382 256.464 273.598 256.464 274.366 256.08C275.198 255.728 275.39 255.184 275.39 254.096V246.832H263.358C263.646 246.128 263.934 245.328 264.222 244.528H277.182ZM307.391 236.336C305.951 238.32 303.551 240.816 301.567 242.672C300.095 240.368 298.879 237.84 298.015 235.216V234.896H310.815V232.592H306.879L308.223 231.056C306.943 229.968 304.383 228.464 302.367 227.44L300.959 228.944C302.879 229.968 305.279 231.472 306.591 232.592H298.015V227.312H295.615V232.592H283.039V234.896H295.615V243.76C290.783 246.512 285.567 249.424 282.335 251.088L283.871 253.232C287.135 251.344 291.487 248.752 295.615 246.192V253.232C295.615 253.84 295.391 254 294.815 254.032C294.175 254.064 292.095 254.064 289.919 254C290.239 254.704 290.623 255.824 290.751 256.496C293.567 256.496 295.455 256.432 296.511 256.016C297.567 255.632 298.015 254.896 298.015 253.232V240.528C300.767 246.416 304.767 251.28 309.919 253.776C310.335 253.136 311.103 252.208 311.647 251.76C308.191 250.256 305.151 247.632 302.751 244.432C304.927 242.608 307.487 240.048 309.439 237.776L307.391 236.336ZM291.903 242.704C290.879 240.976 288.543 238.512 286.527 236.784L284.735 238.032C286.751 239.824 288.991 242.384 289.983 244.112L291.903 242.704ZM324.435 249.328L339.763 243.312V240.944L324.435 234.928V237.488L331.987 240.272L336.787 242.064V242.192L331.987 243.984L324.435 246.768V249.328ZM377.213 232.624H366.621V230.096H377.213V232.624ZM377.213 236.848H366.621V234.288H377.213V236.848ZM379.485 228.304H364.445V238.672H379.485V228.304ZM362.109 241.168L358.877 242.16V235.856H362.397V233.648H358.877V227.28H356.669V233.648H352.733V235.856H356.669V242.864C355.037 243.376 353.565 243.824 352.381 244.112L352.957 246.416C354.109 246.064 355.357 245.68 356.669 245.232V253.456C356.669 253.936 356.509 254.064 356.125 254.064C355.773 254.064 354.493 254.064 353.117 254.032C353.437 254.704 353.725 255.664 353.821 256.24C355.837 256.272 357.053 256.176 357.789 255.792C358.589 255.408 358.877 254.8 358.877 253.488V244.528C360.061 244.112 361.245 243.76 362.397 243.344L362.109 241.168ZM373.053 248.656H379.677V246.704H373.053V242.96H381.277V240.944H363.005V242.96H370.813V253.072C368.989 252.304 367.549 250.832 366.653 248.112C366.909 247.056 367.101 245.904 367.261 244.72L365.085 244.464C364.573 249.2 363.165 252.784 360.317 255.024C360.829 255.344 361.725 256.08 362.109 256.464C363.773 254.96 365.053 253.008 365.917 250.608C367.997 255.088 371.357 255.952 375.965 255.952H381.533C381.629 255.344 381.917 254.352 382.237 253.84C381.149 253.872 376.829 253.872 376.061 253.872C375.005 253.872 373.981 253.808 373.053 253.68V248.656ZM410.909 243.12V252.24H402.141V241.104H412.221V230.128H409.661V238.768H402.141V227.248H399.581V238.768H392.253V230.16H389.789V241.104H399.581V252.24H390.941V243.12H388.381V254.576H410.909V256.4H413.469V243.12H410.909ZM428.701 246.224V242.48H431.581V246.224H428.701ZM424.093 242.48H426.973V246.224H424.029C424.093 245.36 424.093 244.496 424.093 243.728V242.48ZM428.893 231.952C428.509 233.072 427.965 234.32 427.485 235.28H423.805C424.381 234.256 424.893 233.136 425.405 231.952H428.893ZM428.701 237.168H431.581V240.688H428.701V237.168ZM424.093 237.168H426.973V240.688H424.093V237.168ZM446.141 230.864C445.949 234.576 445.661 236.048 445.309 236.464C445.085 236.752 444.829 236.784 444.413 236.752C443.965 236.752 442.781 236.752 441.533 236.624C441.821 237.168 442.013 238 442.077 238.608C443.389 238.672 444.701 238.704 445.373 238.64C446.205 238.576 446.685 238.352 447.101 237.84C447.805 237.072 448.061 235.024 448.317 229.744C448.349 229.456 448.349 228.848 448.349 228.848H434.525V230.864H438.845C438.237 233.872 436.957 236.4 433.597 237.872V235.28H429.597C430.333 233.904 431.069 232.272 431.613 230.864L430.205 229.968L429.853 230.064H426.109C426.365 229.296 426.621 228.496 426.845 227.696L424.637 227.216C423.677 231.12 421.917 234.896 419.645 237.328C420.157 237.648 421.085 238.384 421.437 238.768C421.661 238.512 421.885 238.224 422.109 237.904V243.728C422.109 247.312 421.885 252.048 419.741 255.408C420.221 255.632 421.117 256.144 421.437 256.496C422.941 254.192 423.613 251.056 423.901 248.08H431.581V253.84C431.581 254.256 431.421 254.384 430.973 254.416C430.557 254.448 429.117 254.448 427.453 254.384C427.773 254.928 428.125 255.856 428.221 256.4C430.429 256.4 431.709 256.368 432.509 256.016C433.341 255.664 433.597 254.992 433.597 253.84V237.904C434.045 238.288 434.621 238.992 434.877 239.504C438.813 237.712 440.349 234.64 441.021 230.864H446.141ZM449.213 248.24H443.133V244.304H448.669V242.256H443.133V238.992H440.861V242.256H438.077C438.333 241.424 438.557 240.56 438.749 239.696L436.733 239.28C436.157 242 435.197 244.624 433.789 246.448C434.333 246.704 435.261 247.152 435.645 247.44C436.253 246.576 436.829 245.488 437.309 244.304H440.861V248.24H434.141V250.288H440.861V256.272H443.133V250.288H449.213V248.24ZM462.653 230.928C461.341 229.808 458.685 228.4 456.573 227.568L455.293 229.328C457.405 230.224 459.997 231.728 461.277 232.912L462.653 230.928ZM460.765 239.568C459.453 238.448 456.861 237.104 454.845 236.304L453.565 238.096C455.645 238.96 458.173 240.432 459.453 241.52L460.765 239.568ZM460.669 244.208C458.845 247.824 456.349 252.016 454.621 254.416L456.637 256.016C458.493 253.072 460.733 249.136 462.397 245.776L460.669 244.208ZM472.509 234.576H477.789V241.776H472.381C472.477 240.592 472.509 239.376 472.509 238.16V234.576ZM482.749 244.048V241.776H480.125V232.336H472.509V227.28H470.173V232.336H463.709V234.576H470.173V238.16C470.173 239.376 470.141 240.592 470.013 241.776H461.981V244.048H469.693C468.861 248.112 466.653 251.856 461.053 254.768C461.629 255.152 462.525 255.952 462.941 256.496C469.085 253.2 471.325 248.784 472.093 244.048H482.749ZM473.821 245.904C476.253 249.264 479.325 253.808 480.797 256.432L482.877 255.248C481.341 252.656 478.205 248.144 475.773 244.88L473.821 245.904ZM515.549 235.056V232.752H502.173L504.413 231.792C503.933 230.48 502.973 228.56 502.077 227.056L499.837 227.952C500.637 229.424 501.597 231.472 501.981 232.752H488.029V235.056H496.669C496.317 242.352 495.517 250.576 487.325 254.64C487.933 255.088 488.669 255.92 489.053 256.528C495.069 253.328 497.437 248.08 498.461 242.448H509.885C509.341 249.648 508.733 252.72 507.773 253.552C507.389 253.84 507.005 253.904 506.269 253.904C505.405 253.904 503.197 253.872 500.893 253.68C501.373 254.32 501.693 255.28 501.757 256.016C503.869 256.144 505.981 256.176 507.101 256.112C508.349 256.016 509.085 255.792 509.853 254.992C511.101 253.744 511.741 250.288 512.349 241.296C512.413 240.944 512.445 240.144 512.445 240.144H498.813C499.037 238.448 499.165 236.752 499.261 235.056H515.549ZM524.221 231.664H546.525V234.224H548.829V229.648H537.117C536.669 228.848 535.997 227.888 535.517 227.184L533.149 227.76C533.501 228.336 533.917 228.976 534.301 229.648H521.981V234.224H524.221V231.664ZM539.741 237.232C538.685 238.48 537.309 239.504 535.645 240.304C533.597 239.888 531.517 239.536 529.405 239.184C530.013 238.576 530.685 237.936 531.357 237.232H539.741ZM548.893 243.632C546.237 242.736 542.717 241.808 538.813 240.976C540.349 239.952 541.597 238.736 542.589 237.232H549.309V235.28H543.645C543.901 234.736 544.093 234.224 544.285 233.616L541.981 233.072C541.725 233.872 541.405 234.608 541.021 235.28H533.149C533.885 234.416 534.589 233.52 535.165 232.688L532.861 231.984C532.189 233.008 531.325 234.16 530.365 235.28H521.437V237.232H528.637C527.549 238.416 526.461 239.472 525.469 240.368C527.805 240.688 530.045 241.104 532.221 241.52C529.341 242.256 525.789 242.672 521.405 242.864C521.789 243.44 522.109 244.208 522.333 244.912C528.189 244.528 532.733 243.792 536.189 242.32C540.349 243.28 543.965 244.24 546.589 245.232L548.893 243.632ZM529.117 249.328C527.421 251.152 524.381 252.816 521.533 253.872C522.109 254.224 523.037 255.056 523.485 255.504C526.269 254.256 529.501 252.272 531.453 250.096L529.117 249.328ZM538.909 250.512C541.853 251.888 545.469 254.096 547.261 255.664L548.989 253.936C547.101 252.4 543.421 250.288 540.509 249.008L538.909 250.512ZM536.413 246.608V243.984H534.077V246.608H521.117V248.624H534.077V256.432H536.413V248.624H549.597V246.608H536.413Z" fill="black"/>
</svg>
