<svg width="1567" height="687" viewBox="0 0 1567 687" fill="none" xmlns="http://www.w3.org/2000/svg">
<path d="M1438.12 455.121C1439.29 453.95 1439.29 452.05 1438.12 450.879L1419.03 431.787C1417.86 430.615 1415.96 430.615 1414.79 431.787C1413.62 432.958 1413.62 434.858 1414.79 436.029L1431.76 453L1414.79 469.971C1413.62 471.142 1413.62 473.042 1414.79 474.213C1415.96 475.385 1417.86 475.385 1419.03 474.213L1438.12 455.121ZM0 456H1436V450H0V456Z" fill="#8D887C"/>
<path d="M720.121 74.8787C718.95 73.7071 717.05 73.7071 715.879 74.8787L696.787 93.9706C695.615 95.1421 695.615 97.0416 696.787 98.2132C697.958 99.3848 699.858 99.3848 701.029 98.2132L718 81.2426L734.971 98.2132C736.142 99.3848 738.042 99.3848 739.213 98.2132C740.385 97.0416 740.385 95.1422 739.213 93.9706L720.121 74.8787ZM721 687L721 77L715 77L715 687L721 687Z" fill="#8D887C"/>
<circle cx="545.5" cy="144" r="22" fill="#BAB4A3"/>
<path d="M485.68 199.328V206.4H470.224V199.328H485.68ZM467.824 210.432H470.224V208.704H485.68V210.368H488.176V197.056H467.824V210.432ZM481.136 186.08C482.672 187.456 484.304 189.12 485.776 190.784L469.456 191.584C472.272 188.928 475.12 185.632 477.648 182.176L475.312 181.12C472.816 185.088 469.104 189.12 467.952 190.144C466.896 191.2 466.064 191.904 465.36 192.032C465.616 192.672 466.032 193.856 466.128 194.368C467.376 193.92 469.232 193.856 487.504 192.832C488.304 193.824 488.976 194.752 489.456 195.584L491.472 194.144C489.808 191.488 486.128 187.584 483.024 184.864L481.136 186.08ZM525.648 192.8V190.368H512.432C512.88 187.008 512.912 183.84 512.944 181.28H510.384C510.352 183.808 510.384 187.008 509.904 190.368H497.712V192.8H509.52C508.208 198.848 505.008 204.992 497.072 208.448C497.744 208.928 498.512 209.76 498.864 210.4C506.64 206.848 510.096 200.704 511.632 194.56C514.16 201.824 518.224 207.488 524.368 210.4C524.784 209.696 525.584 208.704 526.16 208.16C519.984 205.632 515.824 199.84 513.584 192.8H525.648ZM543.216 199.424H546.992V201.28H543.216V199.424ZM541.744 202.528H548.528V198.176H541.744V202.528ZM539.696 196.8H550.576V203.904H539.696V196.8ZM537.84 205.408H552.528V195.328H537.84V205.408ZM540.848 187.456H549.456V189.568H540.848V187.456ZM546.096 192.448V191.008H551.504V186.048H538.864V191.008H544.08V192.448H535.664V193.952H554.8V192.448H546.096ZM534.16 207.104V184.544H556.24V207.104H534.16ZM531.952 182.528V210.4H534.16V209.152H556.24V210.4H558.512V182.528H531.952ZM586.8 202.272V204.224H571.056V202.272H586.8ZM571.056 207.808V205.76H586.8V207.808H571.056ZM568.752 210.528H571.056V209.472H586.8V210.464H589.168V200.64H568.752V210.528ZM579.856 188.608H586.672V190.496H579.856V188.608ZM579.856 185.024H586.672V186.816H579.856V185.024ZM579.856 197.376V195.488H590.768V193.856H579.856V192.096H589.008V188.608H592.912V186.816H589.008V183.424H579.856V181.184H577.52V183.424H568.08V185.024H577.52V186.816H564.72V188.608H577.52V190.496H567.728V192.096H577.52V193.856H566.832V195.488H577.52V197.376H564.656V199.136H592.944V197.376H579.856ZM606.672 192.672V195.2H601.744V192.672H606.672ZM601.744 199.744V196.992H606.672V199.744H601.744ZM604.944 202.88C605.36 203.648 605.808 204.448 606.192 205.312L601.744 207.04V201.568H608.784V190.848H599.632V206.592C599.632 207.744 598.96 208.192 598.48 208.384C598.832 208.864 599.184 209.888 599.312 210.4C599.888 209.984 600.752 209.504 607.024 206.944C607.504 207.904 607.888 208.768 608.144 209.472L609.904 208.576C609.264 207.008 607.76 204.224 606.608 202.208L604.944 202.88ZM601.872 187.2V188.928H607.28V187.2H601.872ZM604.144 180.992C602.704 183.712 600.048 186.208 597.552 187.808C597.904 188.256 598.448 189.408 598.608 189.856C600.656 188.48 602.704 186.496 604.336 184.352C606 185.408 607.92 186.72 608.912 187.584L610 185.76C608.976 184.992 607.056 183.744 605.456 182.752C605.68 182.4 605.904 182.048 606.096 181.664L604.144 180.992ZM623.152 202.464V206.944H614.32V202.464H623.152ZM621.808 191.712V195.776H614.32V191.712H621.808ZM614.32 197.76H623.856V189.76H612.208V210.4H614.32V208.992H623.152V210.24H625.264V200.416H614.32V197.76ZM619.088 184.928L620.016 184.448C619.696 183.552 618.992 182.144 618.384 181.056L616.368 181.92C616.816 182.816 617.392 184 617.776 184.928H610.16V190.112H612.112V186.88H624.464V190.112H626.512V184.928H619.088Z" fill="black"/>
<circle cx="1311" cy="144" r="22" fill="#BAB4A3"/>
<path d="M1208.75 186.432H1198.42V188H1221.62V186.432H1211.09V184.768H1223.98V183.104H1211.09V181.216H1208.75V183.104H1196.08V184.768H1208.75V186.432ZM1223.34 199.872V195.328H1196.69V199.872H1198.83V196.992H1221.1V199.872H1223.34ZM1217.94 192.576H1202.06V190.752H1217.94V192.576ZM1199.86 189.344V193.984H1220.27V189.344H1199.86ZM1213.74 199.84L1213.46 200.096C1214.22 200.512 1215.09 200.992 1215.92 201.536L1204.75 201.696C1205.87 201.184 1206.99 200.576 1208.11 199.84H1213.74ZM1211.09 207.968V206.272H1221.1V204.704H1211.09V203.072L1217.94 202.912C1218.54 203.392 1219.12 203.84 1219.5 204.224L1220.98 202.976C1219.92 202.08 1218.16 200.832 1216.43 199.84H1220.08V198.368H1199.79V199.84H1205.3C1203.95 200.64 1202.67 201.216 1202.16 201.408C1201.52 201.664 1200.91 201.792 1200.43 201.824C1200.62 202.304 1200.88 203.168 1200.98 203.552C1201.62 203.36 1202.51 203.296 1208.75 203.136V204.704H1199.15V206.272H1208.75V207.968H1196.08V209.728H1223.98V207.968H1211.09ZM1240.3 203.488V181.824H1237.87V189.312H1229.78V191.648H1237.87V204.416C1234.42 205.76 1231.12 206.976 1228.82 207.776L1229.9 210.112C1233.58 208.672 1238.54 206.592 1243.12 204.608L1242.7 202.56L1240.3 203.488ZM1249.55 206.848C1248.34 206.848 1248.11 206.56 1248.11 204.96V191.616H1257.04V189.28H1248.11V181.856H1245.71V204.928C1245.71 208.256 1246.51 209.184 1249.26 209.184H1253.55C1256.62 209.184 1257.2 206.912 1257.46 200.352C1256.78 200.192 1255.82 199.712 1255.18 199.2C1254.99 205.312 1254.8 206.848 1253.36 206.848H1249.55ZM1291.25 192.8V190.368H1278.03C1278.48 187.008 1278.51 183.84 1278.54 181.28H1275.98C1275.95 183.808 1275.98 187.008 1275.5 190.368H1263.31V192.8H1275.12C1273.81 198.848 1270.61 204.992 1262.67 208.448C1263.34 208.928 1264.11 209.76 1264.46 210.4C1272.24 206.848 1275.7 200.704 1277.23 194.56C1279.76 201.824 1283.82 207.488 1289.97 210.4C1290.38 209.696 1291.18 208.704 1291.76 208.16C1285.58 205.632 1281.42 199.84 1279.18 192.8H1291.25ZM1314.54 191.2C1313.97 190.624 1313.14 190.016 1312.24 189.44C1312.94 188.768 1313.55 188.096 1314.1 187.392L1312.43 186.848C1311.98 187.456 1311.41 188.032 1310.83 188.544C1310 188.096 1309.17 187.616 1308.37 187.264L1307.18 188.32C1307.92 188.672 1308.72 189.088 1309.49 189.568C1308.53 190.24 1307.5 190.848 1306.45 191.328C1306.86 191.648 1307.54 192.256 1307.76 192.576C1308.82 192 1309.9 191.328 1310.96 190.496C1311.89 191.168 1312.72 191.776 1313.26 192.352L1314.54 191.2ZM1314.45 185.472C1313.87 185.024 1313.1 184.512 1312.24 183.968C1312.91 183.328 1313.49 182.688 1314 182.016L1312.34 181.568C1311.92 182.08 1311.41 182.624 1310.83 183.136C1310 182.688 1309.2 182.272 1308.43 181.952L1307.28 183.008C1307.98 183.328 1308.78 183.712 1309.52 184.16C1308.62 184.768 1307.66 185.344 1306.67 185.792C1307.09 186.08 1307.76 186.656 1308.02 186.944C1309.01 186.432 1310 185.76 1310.99 185.024C1311.86 185.568 1312.69 186.176 1313.2 186.656L1314.45 185.472ZM1299.57 194.432H1322.06V198.4H1324.4V192.608H1321.9C1322.16 189.76 1322.45 185.632 1322.61 182.464H1315.22V184.096H1320.3L1320.21 185.824H1315.38V187.456H1320.11L1319.95 189.184H1315.18V190.816H1319.82C1319.76 191.456 1319.7 192.032 1319.63 192.608H1302.1L1301.97 190.816H1306.42V189.184H1301.87L1301.74 187.456H1306.29V185.824H1301.65L1301.52 184.256C1303.18 183.936 1305.07 183.52 1306.45 183.008L1305.39 181.536C1303.82 182.016 1301.07 182.784 1299.22 183.104L1299.86 192.608H1297.3V198.4H1299.57V194.432ZM1325.04 202.208H1312.24V201.632C1314.77 200.608 1317.49 199.168 1319.47 197.664L1318.03 196.48L1317.55 196.608H1302.51V198.4H1315.02C1313.49 199.328 1311.63 200.224 1309.94 200.832V202.208H1296.59V204.224H1309.94V207.84C1309.94 208.288 1309.81 208.384 1309.26 208.416C1308.78 208.416 1306.99 208.416 1305.01 208.352C1305.33 208.96 1305.71 209.76 1305.84 210.368C1308.37 210.368 1309.97 210.4 1310.99 210.048C1311.98 209.696 1312.24 209.152 1312.24 207.904V204.224H1325.04V202.208ZM1342.42 199.424H1346.19V201.28H1342.42V199.424ZM1340.94 202.528H1347.73V198.176H1340.94V202.528ZM1338.9 196.8H1349.78V203.904H1338.9V196.8ZM1337.04 205.408H1351.73V195.328H1337.04V205.408ZM1340.05 187.456H1348.66V189.568H1340.05V187.456ZM1345.3 192.448V191.008H1350.7V186.048H1338.06V191.008H1343.28V192.448H1334.86V193.952H1354V192.448H1345.3ZM1333.36 207.104V184.544H1355.44V207.104H1333.36ZM1331.15 182.528V210.4H1333.36V209.152H1355.44V210.4H1357.71V182.528H1331.15ZM1386 202.272V204.224H1370.26V202.272H1386ZM1370.26 207.808V205.76H1386V207.808H1370.26ZM1367.95 210.528H1370.26V209.472H1386V210.464H1388.37V200.64H1367.95V210.528ZM1379.06 188.608H1385.87V190.496H1379.06V188.608ZM1379.06 185.024H1385.87V186.816H1379.06V185.024ZM1379.06 197.376V195.488H1389.97V193.856H1379.06V192.096H1388.21V188.608H1392.11V186.816H1388.21V183.424H1379.06V181.184H1376.72V183.424H1367.28V185.024H1376.72V186.816H1363.92V188.608H1376.72V190.496H1366.93V192.096H1376.72V193.856H1366.03V195.488H1376.72V197.376H1363.86V199.136H1392.14V197.376H1379.06ZM1405.87 192.672V195.2H1400.94V192.672H1405.87ZM1400.94 199.744V196.992H1405.87V199.744H1400.94ZM1404.14 202.88C1404.56 203.648 1405.01 204.448 1405.39 205.312L1400.94 207.04V201.568H1407.98V190.848H1398.83V206.592C1398.83 207.744 1398.16 208.192 1397.68 208.384C1398.03 208.864 1398.38 209.888 1398.51 210.4C1399.09 209.984 1399.95 209.504 1406.22 206.944C1406.7 207.904 1407.09 208.768 1407.34 209.472L1409.1 208.576C1408.46 207.008 1406.96 204.224 1405.81 202.208L1404.14 202.88ZM1401.07 187.2V188.928H1406.48V187.2H1401.07ZM1403.34 180.992C1401.9 183.712 1399.25 186.208 1396.75 187.808C1397.1 188.256 1397.65 189.408 1397.81 189.856C1399.86 188.48 1401.9 186.496 1403.54 184.352C1405.2 185.408 1407.12 186.72 1408.11 187.584L1409.2 185.76C1408.18 184.992 1406.26 183.744 1404.66 182.752C1404.88 182.4 1405.1 182.048 1405.3 181.664L1403.34 180.992ZM1422.35 202.464V206.944H1413.52V202.464H1422.35ZM1421.01 191.712V195.776H1413.52V191.712H1421.01ZM1413.52 197.76H1423.06V189.76H1411.41V210.4H1413.52V208.992H1422.35V210.24H1424.46V200.416H1413.52V197.76ZM1418.29 184.928L1419.22 184.448C1418.9 183.552 1418.19 182.144 1417.58 181.056L1415.57 181.92C1416.02 182.816 1416.59 184 1416.98 184.928H1409.36V190.112H1411.31V186.88H1423.66V190.112H1425.71V184.928H1418.29Z" fill="black"/>
<circle cx="1009" cy="352" r="22" fill="#BAB4A3"/>
<path d="M932.68 407.328V414.4H917.224V407.328H932.68ZM914.824 418.432H917.224V416.704H932.68V418.368H935.176V405.056H914.824V418.432ZM928.136 394.08C929.672 395.456 931.304 397.12 932.776 398.784L916.456 399.584C919.272 396.928 922.12 393.632 924.648 390.176L922.312 389.12C919.816 393.088 916.104 397.12 914.952 398.144C913.896 399.2 913.064 399.904 912.36 400.032C912.616 400.672 913.032 401.856 913.128 402.368C914.376 401.92 916.232 401.856 934.504 400.832C935.304 401.824 935.976 402.752 936.456 403.584L938.472 402.144C936.808 399.488 933.128 395.584 930.024 392.864L928.136 394.08ZM965.416 395.808C964.36 394.464 962.12 392.64 960.2 391.424L958.696 392.8C960.584 394.112 962.792 396 963.784 397.344L965.416 395.808ZM964.648 404.224C963.464 402.848 960.968 400.96 958.92 399.712L957.448 401.12C959.464 402.4 961.928 404.384 963.08 405.792L964.648 404.224ZM956.232 406.496C955.56 405.632 952.808 402.112 951.816 400.992V400.416H956.52V398.176H951.816V392.832C953.352 392.48 954.824 392.032 956.008 391.552L954.568 389.664C952.168 390.72 947.976 391.648 944.392 392.224C944.648 392.736 944.968 393.568 945.096 394.08C946.504 393.888 948.008 393.632 949.48 393.344V398.176H944.104V400.416H949.16C947.912 404.096 945.672 408.192 943.656 410.464C944.04 411.008 944.616 411.968 944.84 412.608C946.504 410.624 948.168 407.456 949.48 404.256V418.4H951.816V403.584C952.904 405.216 954.248 407.296 954.792 408.352L956.232 406.496ZM973.352 409.376L973 407.2L969.256 407.776V389.216H966.92V408.16L956.104 409.888L956.488 412.16L966.92 410.432V418.4H969.256V410.048L973.352 409.376ZM1006.25 400.8V398.368H993.032C993.48 395.008 993.512 391.84 993.544 389.28H990.984C990.952 391.808 990.984 395.008 990.504 398.368H978.312V400.8H990.12C988.808 406.848 985.608 412.992 977.672 416.448C978.344 416.928 979.112 417.76 979.464 418.4C987.24 414.848 990.696 408.704 992.232 402.56C994.76 409.824 998.824 415.488 1004.97 418.4C1005.38 417.696 1006.18 416.704 1006.76 416.16C1000.58 413.632 996.424 407.84 994.184 400.8H1006.25ZM1023.82 407.424H1027.59V409.28H1023.82V407.424ZM1022.34 410.528H1029.13V406.176H1022.34V410.528ZM1020.3 404.8H1031.18V411.904H1020.3V404.8ZM1018.44 413.408H1033.13V403.328H1018.44V413.408ZM1021.45 395.456H1030.06V397.568H1021.45V395.456ZM1026.7 400.448V399.008H1032.1V394.048H1019.46V399.008H1024.68V400.448H1016.26V401.952H1035.4V400.448H1026.7ZM1014.76 415.104V392.544H1036.84V415.104H1014.76ZM1012.55 390.528V418.4H1014.76V417.152H1036.84V418.4H1039.11V390.528H1012.55ZM1067.4 410.272V412.224H1051.66V410.272H1067.4ZM1051.66 415.808V413.76H1067.4V415.808H1051.66ZM1049.35 418.528H1051.66V417.472H1067.4V418.464H1069.77V408.64H1049.35V418.528ZM1060.46 396.608H1067.27V398.496H1060.46V396.608ZM1060.46 393.024H1067.27V394.816H1060.46V393.024ZM1060.46 405.376V403.488H1071.37V401.856H1060.46V400.096H1069.61V396.608H1073.51V394.816H1069.61V391.424H1060.46V389.184H1058.12V391.424H1048.68V393.024H1058.12V394.816H1045.32V396.608H1058.12V398.496H1048.33V400.096H1058.12V401.856H1047.43V403.488H1058.12V405.376H1045.26V407.136H1073.54V405.376H1060.46ZM1087.27 400.672V403.2H1082.34V400.672H1087.27ZM1082.34 407.744V404.992H1087.27V407.744H1082.34ZM1085.54 410.88C1085.96 411.648 1086.41 412.448 1086.79 413.312L1082.34 415.04V409.568H1089.38V398.848H1080.23V414.592C1080.23 415.744 1079.56 416.192 1079.08 416.384C1079.43 416.864 1079.78 417.888 1079.91 418.4C1080.49 417.984 1081.35 417.504 1087.62 414.944C1088.1 415.904 1088.49 416.768 1088.74 417.472L1090.5 416.576C1089.86 415.008 1088.36 412.224 1087.21 410.208L1085.54 410.88ZM1082.47 395.2V396.928H1087.88V395.2H1082.47ZM1084.74 388.992C1083.3 391.712 1080.65 394.208 1078.15 395.808C1078.5 396.256 1079.05 397.408 1079.21 397.856C1081.26 396.48 1083.3 394.496 1084.94 392.352C1086.6 393.408 1088.52 394.72 1089.51 395.584L1090.6 393.76C1089.58 392.992 1087.66 391.744 1086.06 390.752C1086.28 390.4 1086.5 390.048 1086.7 389.664L1084.74 388.992ZM1103.75 410.464V414.944H1094.92V410.464H1103.75ZM1102.41 399.712V403.776H1094.92V399.712H1102.41ZM1094.92 405.76H1104.46V397.76H1092.81V418.4H1094.92V416.992H1103.75V418.24H1105.86V408.416H1094.92V405.76ZM1099.69 392.928L1100.62 392.448C1100.3 391.552 1099.59 390.144 1098.98 389.056L1096.97 389.92C1097.42 390.816 1097.99 392 1098.38 392.928H1090.76V398.112H1092.71V394.88H1105.06V398.112H1107.11V392.928H1099.69Z" fill="black"/>
<circle cx="366" cy="338" r="22" fill="#BAB4A3"/>
<path d="M278.704 397.488V375.824H276.272V383.312H268.176V385.648H276.272V398.416C272.816 399.76 269.52 400.976 267.216 401.776L268.304 404.112C271.984 402.672 276.944 400.592 281.52 398.608L281.104 396.56L278.704 397.488ZM287.952 400.848C286.736 400.848 286.512 400.56 286.512 398.96V385.616H295.44V383.28H286.512V375.856H284.112V398.928C284.112 402.256 284.912 403.184 287.664 403.184H291.952C295.024 403.184 295.6 400.912 295.856 394.352C295.184 394.192 294.224 393.712 293.584 393.2C293.392 399.312 293.2 400.848 291.76 400.848H287.952ZM322.416 381.808C321.36 380.464 319.12 378.64 317.2 377.424L315.696 378.8C317.584 380.112 319.792 382 320.784 383.344L322.416 381.808ZM321.648 390.224C320.464 388.848 317.968 386.96 315.92 385.712L314.448 387.12C316.464 388.4 318.928 390.384 320.08 391.792L321.648 390.224ZM313.232 392.496C312.56 391.632 309.808 388.112 308.816 386.992V386.416H313.52V384.176H308.816V378.832C310.352 378.48 311.824 378.032 313.008 377.552L311.568 375.664C309.168 376.72 304.976 377.648 301.392 378.224C301.648 378.736 301.968 379.568 302.096 380.08C303.504 379.888 305.008 379.632 306.48 379.344V384.176H301.104V386.416H306.16C304.912 390.096 302.672 394.192 300.656 396.464C301.04 397.008 301.616 397.968 301.84 398.608C303.504 396.624 305.168 393.456 306.48 390.256V404.4H308.816V389.584C309.904 391.216 311.248 393.296 311.792 394.352L313.232 392.496ZM330.352 395.376L330 393.2L326.256 393.776V375.216H323.92V394.16L313.104 395.888L313.488 398.16L323.92 396.432V404.4H326.256V396.048L330.352 395.376ZM363.248 386.8V384.368H350.032C350.48 381.008 350.512 377.84 350.544 375.28H347.984C347.952 377.808 347.984 381.008 347.504 384.368H335.312V386.8H347.12C345.808 392.848 342.608 398.992 334.672 402.448C335.344 402.928 336.112 403.76 336.464 404.4C344.24 400.848 347.696 394.704 349.232 388.56C351.76 395.824 355.824 401.488 361.968 404.4C362.384 403.696 363.184 402.704 363.76 402.16C357.584 399.632 353.424 393.84 351.184 386.8H363.248ZM380.816 393.424H384.592V395.28H380.816V393.424ZM379.344 396.528H386.128V392.176H379.344V396.528ZM377.296 390.8H388.176V397.904H377.296V390.8ZM375.44 399.408H390.128V389.328H375.44V399.408ZM378.448 381.456H387.056V383.568H378.448V381.456ZM383.696 386.448V385.008H389.104V380.048H376.464V385.008H381.68V386.448H373.264V387.952H392.4V386.448H383.696ZM371.76 401.104V378.544H393.84V401.104H371.76ZM369.552 376.528V404.4H371.76V403.152H393.84V404.4H396.112V376.528H369.552ZM424.4 396.272V398.224H408.656V396.272H424.4ZM408.656 401.808V399.76H424.4V401.808H408.656ZM406.352 404.528H408.656V403.472H424.4V404.464H426.768V394.64H406.352V404.528ZM417.456 382.608H424.272V384.496H417.456V382.608ZM417.456 379.024H424.272V380.816H417.456V379.024ZM417.456 391.376V389.488H428.368V387.856H417.456V386.096H426.608V382.608H430.512V380.816H426.608V377.424H417.456V375.184H415.12V377.424H405.68V379.024H415.12V380.816H402.32V382.608H415.12V384.496H405.328V386.096H415.12V387.856H404.432V389.488H415.12V391.376H402.256V393.136H430.544V391.376H417.456ZM444.272 386.672V389.2H439.344V386.672H444.272ZM439.344 393.744V390.992H444.272V393.744H439.344ZM442.544 396.88C442.96 397.648 443.408 398.448 443.792 399.312L439.344 401.04V395.568H446.384V384.848H437.232V400.592C437.232 401.744 436.56 402.192 436.08 402.384C436.432 402.864 436.784 403.888 436.912 404.4C437.488 403.984 438.352 403.504 444.624 400.944C445.104 401.904 445.488 402.768 445.744 403.472L447.504 402.576C446.864 401.008 445.36 398.224 444.208 396.208L442.544 396.88ZM439.472 381.2V382.928H444.88V381.2H439.472ZM441.744 374.992C440.304 377.712 437.648 380.208 435.152 381.808C435.504 382.256 436.048 383.408 436.208 383.856C438.256 382.48 440.304 380.496 441.936 378.352C443.6 379.408 445.52 380.72 446.512 381.584L447.6 379.76C446.576 378.992 444.656 377.744 443.056 376.752C443.28 376.4 443.504 376.048 443.696 375.664L441.744 374.992ZM460.752 396.464V400.944H451.92V396.464H460.752ZM459.408 385.712V389.776H451.92V385.712H459.408ZM451.92 391.76H461.456V383.76H449.808V404.4H451.92V402.992H460.752V404.24H462.864V394.416H451.92V391.76ZM456.688 378.928L457.616 378.448C457.296 377.552 456.592 376.144 455.984 375.056L453.968 375.92C454.416 376.816 454.992 378 455.376 378.928H447.76V384.112H449.712V380.88H462.064V384.112H464.112V378.928H456.688Z" fill="black"/>
<path d="M625.768 16.864V25.248H619.016V15.2H628.744V3.584H624.52V11.52H619.016V0.895998H614.792V11.52H609.512V3.584H605.48V15.2H614.792V25.248H608.072V16.896H603.784V29.024H625.768V30.752H630.056V16.864H625.768ZM641.992 2.688V6.56H649.288C649.384 7.648 649.512 8.8 649.736 10.016L647.784 9.664C646.024 18.08 642.216 24.256 635.56 27.616C636.552 28.352 638.344 29.92 639.048 30.72C644.616 27.392 648.456 22.08 650.856 14.912C652.616 20.64 656.008 26.688 662.632 30.688C663.304 29.696 664.872 28.032 665.704 27.36C653.928 20.416 653.064 8.736 653.064 2.688H641.992ZM691.848 25.344V27.136H678.344V25.344H691.848ZM690.248 16.672V18.368H678.344V16.672H690.248ZM678.344 21.088H693.96V13.952H674.472V30.816H678.344V29.952H691.848V30.816H695.656V22.56H678.344V21.088ZM686.376 9.792C686.088 9.056 685.64 8.16 685.192 7.488C685.512 7.744 685.832 8 686.056 8.224C686.824 7.584 687.624 6.688 688.296 5.728H691.144L689.768 6.912C690.792 7.744 692.136 8.896 692.936 9.792H686.376ZM671.976 9.792C673.032 8.704 674.184 7.328 675.176 5.76H677.064L675.848 6.816C676.872 7.68 678.152 8.928 678.76 9.792H671.976ZM681.704 7.968C681.992 8.512 682.28 9.184 682.536 9.792H678.856L681.192 7.68C680.744 7.136 680.008 6.4 679.272 5.76H683.528L683.24 5.984C683.72 6.272 684.424 6.816 685 7.328L681.704 7.968ZM698.92 2.848H690.024C690.248 2.4 690.44 1.952 690.632 1.504L687.176 0.607998C686.472 2.432 685.256 4.224 683.816 5.504V2.848H676.776C677 2.432 677.192 1.984 677.352 1.568L673.992 0.607998C673 3.136 671.24 5.664 669.32 7.328C670.024 7.872 671.208 9.12 671.784 9.792H670.632V15.36H674.312V12.64H694.056V15.36H697.96V9.792H693.704L695.816 7.904C695.272 7.296 694.312 6.464 693.352 5.728H698.92V2.848ZM705.992 10.976C706.344 10.272 706.728 9.472 707.08 8.576H710.312V10.976H705.992ZM713.928 8.576H719.656V5.12H713.928V1.088H710.312V5.12H708.264C708.552 4.16 708.808 3.2 709 2.208L705.512 1.472C704.936 4.512 703.88 7.744 702.568 9.76C703.304 10.016 704.616 10.56 705.448 10.976H703.048V14.4H710.312V16.736H704.296V28.224H707.688V20.128H710.312V30.752H713.928V20.128H716.744V24.8C716.744 25.12 716.648 25.184 716.36 25.184C716.072 25.216 715.272 25.216 714.376 25.152C714.792 26.08 715.208 27.424 715.304 28.384C716.904 28.416 718.12 28.352 719.016 27.808C719.944 27.264 720.168 26.368 720.168 24.896V16.736H713.928V14.4H720.936V10.976H713.928V8.576ZM725.928 3.52H722.376V21.536H725.928V3.52ZM728.104 1.44V26.24C728.104 26.784 727.912 26.912 727.4 26.944C726.856 26.944 725.192 26.944 723.56 26.88C724.04 28 724.552 29.664 724.68 30.72C727.144 30.72 729 30.592 730.184 29.984C731.336 29.344 731.752 28.32 731.752 26.272V1.44H728.104ZM760.008 5.344H756.296V3.968H760.008V5.344ZM763.56 2.016H753V7.296H763.56V2.016ZM747.272 5.344H743.656V3.968H747.272V5.344ZM750.792 2.016H740.328V7.296H750.792V2.016ZM742.12 11.392H765.672V8.288H738.632V15.648C738.632 19.552 738.44 24.928 736.104 28.736C736.904 29.088 738.408 30.24 738.984 30.88C741.64 26.688 742.12 20.128 742.12 15.68V11.392ZM753 20.224C753.704 20.704 754.92 21.824 755.432 22.4C755.752 22.016 756.072 21.6 756.36 21.152C756.84 22.368 757.384 23.488 757.992 24.576C756.712 26.112 755.048 27.296 753 28.224V20.224ZM746.536 26.304V24.64H749.896V25.984L746.536 26.304ZM749.896 18.272V19.584H746.536V18.272H749.896ZM746.536 21.408H749.896V22.784H746.536V21.408ZM761.224 17.184C760.904 18.848 760.456 20.32 759.816 21.632C759.112 20.416 758.568 19.04 758.12 17.632L758.312 17.184H761.224ZM765.704 17.184V14.272H759.176C759.368 13.632 759.496 12.96 759.624 12.288L756.424 11.712C755.912 14.976 754.76 18.144 753 20.16V18.272H754.056V15.872H749.864V14.688H753.672V12.384H743.144V14.688H746.664V15.872H742.472V18.272H743.496V26.56L741.352 26.72L741.768 29.472C744.072 29.248 746.952 28.896 749.896 28.544V30.784H753V28.256C753.672 28.864 754.792 30.176 755.176 30.848C757.032 29.888 758.6 28.736 759.912 27.328C761.16 28.8 762.664 30.016 764.392 30.912C764.904 29.984 765.928 28.672 766.696 27.968C764.872 27.2 763.272 26.048 761.96 24.576C763.176 22.528 764.072 20.064 764.648 17.184H765.704ZM777.48 22.368V25.952H774.248V22.368H777.48ZM780.552 19.328H771.272V30.368H774.248V29.024H780.552V19.328ZM771.368 17.792H780.36V14.912H771.368V17.792ZM771.368 10.624V13.504H780.328V10.624H771.368ZM778.152 5.024C777.704 3.84 776.744 2.08 775.912 0.768L773.224 2.144C773.896 3.36 774.696 4.96 775.144 6.176H770.056V9.184H781.416V6.176H776.168L778.152 5.024ZM786.28 15.008V13.312H788.968V15.008H786.28ZM795.496 13.312V15.008H792.616V13.312H795.496ZM788.712 6.048H792.712V7.488H788.712V6.048ZM792.616 26.816V25.376H798.76V22.624H792.616V21.376H799.176V18.56H792.616V17.408H798.888V10.912H792.616V9.952H796.296V6.048H799.656V3.072H796.296V0.927999H792.712V3.072H788.712V0.927999H785.288V3.072H781.896V6.048H785.288V9.952H788.968V10.912H783.08V17.408H788.968V18.56H782.76V21.376H788.968V22.624H783.24V25.376H788.968V26.816H781.704V29.792H800.008V26.816H792.616ZM810.024 7.2H833.064V3.648H822.504C822.184 2.656 821.736 1.568 821.288 0.671999L817.416 1.536C817.704 2.144 817.96 2.912 818.184 3.648H806.248V12.16C806.248 17.024 806.024 24.16 803.464 29.088C804.456 29.376 806.184 30.176 806.952 30.72C809.608 25.504 810.024 17.504 810.024 12.128V7.2ZM824.392 13.024V15.136H818.568V13.024H824.392ZM828.168 18.016V13.024H832.776V10.048H828.168V7.936H824.392V10.048H818.568V7.936H814.984V10.048H810.664V13.024H814.984V18.016H828.168ZM825.448 22.272C824.264 23.328 822.856 24.16 821.224 24.864C819.56 24.16 818.12 23.296 817 22.272H825.448ZM828.808 19.168L828.136 19.296H810.92V22.272H814.312L813.032 22.784C814.12 24.096 815.432 25.28 816.904 26.272C814.568 26.848 812.008 27.168 809.352 27.392C809.928 28.224 810.632 29.664 810.92 30.56C814.536 30.176 817.992 29.504 821.032 28.416C824.04 29.632 827.496 30.368 831.4 30.752C831.88 29.792 832.84 28.256 833.576 27.456C830.664 27.232 827.976 26.88 825.544 26.304C827.912 24.8 829.832 22.88 831.176 20.384L828.808 19.168Z" fill="#5B5B5B"/>
<path d="M1506.54 431.224H1495.41V428.408H1506.54V431.224ZM1497.2 437.912L1498.8 437.368C1498.54 436.504 1497.97 435.256 1497.3 434.232H1505.07C1504.69 435.32 1504.02 436.792 1503.41 437.912H1497.2ZM1495.79 423.576H1506.9V422.456C1507.95 423.544 1509.04 424.504 1510.26 425.4H1492.27C1493.52 424.504 1494.7 423.512 1495.79 422.36V423.576ZM1510.64 425.656C1511.73 426.424 1512.88 427.096 1514.13 427.672C1514.7 426.68 1515.82 425.144 1516.72 424.44C1514.74 423.672 1512.91 422.584 1511.28 421.272C1512.66 420.28 1514.26 419.064 1515.6 417.88L1512.82 415.896C1511.89 416.952 1510.45 418.264 1509.1 419.288C1508.59 418.744 1508.11 418.232 1507.66 417.656C1509.04 416.664 1510.7 415.416 1512.11 414.232L1509.23 412.184C1508.43 413.144 1507.18 414.296 1505.97 415.256C1505.36 414.232 1504.78 413.112 1504.34 411.992L1500.94 413.016C1502.06 415.704 1503.44 418.232 1505.17 420.408H1497.49C1498.93 418.552 1500.11 416.472 1500.94 414.168L1498.42 412.888L1497.78 413.048H1488.3V416.12H1495.95C1495.31 417.272 1494.48 418.36 1493.52 419.416C1492.66 418.52 1491.15 417.528 1489.94 416.824L1487.89 418.936C1489.04 419.672 1490.38 420.728 1491.28 421.624C1489.62 423.064 1487.7 424.28 1485.84 425.048C1486.61 425.752 1487.66 427.064 1488.18 427.896C1489.33 427.32 1490.45 426.68 1491.54 425.912V434.232H1496.21L1493.68 435.032C1494.19 435.896 1494.7 437.016 1494.99 437.912H1487.15V441.144H1515.34V437.912H1507.22C1507.7 437.016 1508.24 435.992 1508.75 434.904L1505.58 434.232H1510.64V425.656ZM1528.24 433.528V437.272H1524.59V433.528H1528.24ZM1531.57 430.52H1521.3V441.56H1524.59V440.312H1531.57V430.52ZM1520.82 428.856H1532.14V425.976H1520.82V428.856ZM1521.46 421.432V424.248H1531.6V421.432H1521.46ZM1528.85 415.576C1528.4 414.456 1527.38 412.824 1526.38 411.672L1523.31 413.144C1524.11 414.168 1524.94 415.544 1525.42 416.664H1519.86V419.672H1533.17V416.664H1526.83L1528.85 415.576ZM1539.95 437.784C1538.45 437.784 1538.16 437.592 1538.16 436.248V427.416H1544.21V428.984H1548.05V413.496H1534.22V417.112H1544.21V423.8H1534.32V436.248C1534.32 440.28 1535.54 441.4 1539.5 441.4H1544.72C1548.34 441.4 1549.39 439.832 1549.84 434.552C1548.82 434.296 1547.18 433.656 1546.35 433.048C1546.13 437.048 1545.9 437.784 1544.46 437.784H1539.95ZM1498.7 476.728V473.016H1485.58L1487.79 472.056C1487.31 470.84 1486.35 468.92 1485.49 467.48L1481.74 468.888C1482.38 470.168 1483.15 471.768 1483.66 473.016H1470.16V476.728H1478.22C1477.9 483.48 1477.3 490.68 1469.62 494.776C1470.64 495.576 1471.82 496.888 1472.4 497.912C1478.16 494.616 1480.53 489.624 1481.62 484.28H1491.7C1491.25 490.008 1490.67 492.728 1489.84 493.464C1489.39 493.816 1488.98 493.88 1488.27 493.88C1487.31 493.88 1485.07 493.848 1482.9 493.656C1483.63 494.68 1484.18 496.28 1484.24 497.4C1486.42 497.496 1488.53 497.496 1489.78 497.368C1491.22 497.24 1492.24 496.92 1493.2 495.864C1494.51 494.488 1495.18 490.936 1495.76 482.264C1495.86 481.752 1495.89 480.6 1495.89 480.6H1482.16C1482.32 479.288 1482.38 478.008 1482.48 476.728H1498.7ZM1516.78 484.856V482.488H1520.62V483.608C1520.62 483.992 1520.62 484.44 1520.59 484.856H1516.78ZM1516.78 477.56H1520.62V479.896H1516.78V477.56ZM1527.95 477.56V479.896H1524.4V477.56H1527.95ZM1527.95 484.856H1524.37C1524.4 484.44 1524.4 484.024 1524.4 483.64V482.488H1527.95V484.856ZM1531.63 487.64V474.776H1524.4V472.856H1532.43V469.528H1513.01L1513.17 469.112L1509.58 467.992C1508.11 472.536 1505.55 477.08 1502.86 479.992C1503.5 480.952 1504.59 483 1504.94 483.928C1505.49 483.32 1506.03 482.648 1506.58 481.88V497.72H1510.22V475.96C1511.22 474.008 1512.11 471.992 1512.85 470.008V472.856H1520.62V474.776H1513.26V487.64H1520.24C1519.95 488.76 1519.5 489.784 1518.7 490.744C1517.39 489.976 1516.3 489.112 1515.44 488.056L1512.14 489.208C1513.2 490.648 1514.51 491.896 1515.95 492.92C1514.64 493.656 1512.91 494.232 1510.77 494.68C1511.5 495.448 1512.62 496.952 1513.07 497.816C1515.7 497.016 1517.78 496.024 1519.34 494.872C1522.61 496.312 1526.51 497.176 1531.15 497.56C1531.63 496.504 1532.62 494.872 1533.46 494.008C1529.07 493.784 1525.2 493.208 1522.06 492.184C1523.02 490.776 1523.66 489.24 1524.02 487.64H1531.63ZM1558.83 493.144V486.744H1564.69V483.192H1558.83V477.944H1565.36V474.36H1558.83V468.088H1555.02V474.36H1552.46C1552.78 472.92 1553.04 471.416 1553.26 469.912L1549.55 469.4C1549.23 472.12 1548.66 474.872 1547.86 477.208C1547.41 475.96 1546.74 474.424 1546.1 473.176L1544.24 473.944V467.896H1540.43V474.424L1537.74 474.04C1537.52 476.664 1536.94 480.248 1536.18 482.36L1538.99 483.384C1539.73 481.112 1540.24 477.592 1540.43 474.904V497.784H1544.24V475.928C1544.78 477.24 1545.26 478.648 1545.46 479.608L1547.28 478.776C1546.96 479.448 1546.64 480.056 1546.32 480.632C1547.22 481.016 1548.94 481.88 1549.71 482.36C1550.38 481.144 1551.02 479.608 1551.5 477.944H1555.02V483.192H1548.85V486.744H1555.02V493.144H1546.48V496.76H1566.38V493.144H1558.83Z" fill="#5B5B5B"/>
</svg>
