<svg width="1976" height="456" viewBox="0 0 1976 456" fill="none" xmlns="http://www.w3.org/2000/svg">
<g clip-path="url(#clip0_133_715)">
<rect width="1976" height="456" fill="white"/>
<circle cx="1059" cy="236" r="14" fill="#BAB4A3"/>
<path d="M1101.22 240.144C1100.68 239.28 1098.31 235.728 1097.42 234.544V232.336H1101.06V230.128H1097.42V223.216H1095.24V230.128H1090.76V232.336H1094.98C1094.06 236.688 1092.1 241.68 1090.12 244.336C1090.5 244.88 1091.08 245.776 1091.34 246.384C1092.81 244.304 1094.18 240.944 1095.24 237.456V252.4H1097.42V237.36C1098.34 238.928 1099.46 240.88 1099.91 241.904L1101.22 240.144ZM1111.18 245.36V243.024H1115.69V245.36H1111.18ZM1104.78 243.024H1109V245.36H1104.78V243.024ZM1109 239.12V241.328H1104.78V239.12H1109ZM1115.69 239.12V241.328H1111.18V239.12H1115.69ZM1107.59 231.472H1112.74V233.616H1107.59V231.472ZM1107.59 227.632H1112.74V229.712H1107.59V227.632ZM1119.94 245.36H1117.9V237.328H1111.18V235.44H1119.59V233.616H1114.98V231.472H1118.47V229.712H1114.98V227.632H1118.95V225.84H1114.98V223.216H1112.74V225.84H1107.59V223.216H1105.42V225.84H1101.74V227.632H1105.42V229.712H1102.38V231.472H1105.42V233.616H1101V235.44H1109V237.328H1102.6V245.36H1100.42V247.216H1102.6V252.336H1104.78V247.216H1115.69V249.904C1115.69 250.288 1115.56 250.416 1115.18 250.448C1114.73 250.448 1113.35 250.48 1111.82 250.416C1112.07 250.96 1112.39 251.792 1112.49 252.336C1114.6 252.336 1115.98 252.336 1116.81 252.016C1117.67 251.664 1117.9 251.056 1117.9 249.936V247.216H1119.94V245.36ZM1149.13 229.84H1141.19V226.864H1149.13V229.84ZM1149.13 234.672H1141.19V231.696H1149.13V234.672ZM1149.13 239.568H1141.19V236.528H1149.13V239.568ZM1151.4 224.912H1138.98V241.52H1151.4V224.912ZM1135.88 242.48C1137.35 243.92 1139.3 245.968 1140.23 247.184L1141.96 245.776C1141 244.592 1139.02 242.608 1137.54 241.264L1135.88 242.48ZM1126.28 250.768C1127.56 249.008 1128.58 246.16 1129.29 244.016L1127.21 243.216C1126.57 245.296 1125.48 248.016 1124.2 249.712L1126.28 250.768ZM1132.55 241.84V234.064C1133.96 235.248 1135.75 236.816 1136.58 237.616L1137.86 235.696C1137.03 235.056 1133.77 232.624 1132.55 231.856V230.064H1137.61V227.984H1132.55V223.312H1130.28V227.984H1124.46V230.064H1129.86C1128.46 233.328 1126.09 236.624 1123.75 238.288C1124.23 238.672 1124.9 239.408 1125.29 239.952C1127.08 238.48 1128.87 236.048 1130.28 233.424V241.84H1132.55ZM1136.23 249.616C1134.38 249.616 1134.06 249.456 1134.06 248.624V243.568H1131.72V248.656C1131.72 251.12 1132.62 251.76 1136.07 251.76H1142.7C1145.58 251.76 1146.31 250.8 1146.63 246.8C1145.96 246.672 1145 246.32 1144.46 245.904C1144.33 249.168 1144.07 249.616 1142.54 249.616H1136.23ZM1147.08 243.504C1148.36 245.616 1150.02 248.4 1150.76 250.064L1152.97 248.976C1152.17 247.344 1150.44 244.592 1149.13 242.576L1147.08 243.504ZM1182.22 226.832V230.096H1163.18V226.832H1182.22ZM1184.58 232.176V224.752H1160.81V234.064C1160.81 239.184 1160.55 246.256 1157.35 251.28C1157.93 251.472 1158.98 252.112 1159.43 252.496C1162.7 247.28 1163.18 239.504 1163.18 234.064V232.176H1184.58ZM1171.24 237.424H1177.61V240.784H1171.24V237.424ZM1183.02 243.056C1181.83 244.016 1179.85 245.296 1178.25 246.256C1177.19 245.264 1176.36 244.112 1175.69 242.864H1186.5V240.784H1179.85V237.424H1185.22V235.376H1179.85V232.496H1177.61V235.376H1171.24V232.496H1169V235.376H1164.23V237.424H1169V240.784H1163.37V242.864H1166.82V248.048C1166.82 249.456 1165.86 250.16 1165.29 250.48C1165.64 250.96 1166.12 251.92 1166.22 252.496C1166.86 252.08 1167.85 251.792 1175.85 249.84C1175.78 249.36 1175.85 248.432 1175.94 247.856L1169.06 249.392V242.864H1173.48C1175.66 247.792 1179.72 251.056 1185.38 252.496C1185.7 251.856 1186.31 250.992 1186.86 250.512C1184.04 249.936 1181.67 248.944 1179.72 247.504C1181.35 246.64 1183.3 245.424 1184.81 244.272L1183.02 243.056ZM1202.09 226.416V229.008H1195.08V226.416H1202.09ZM1195.08 233.456V230.704H1202.09V233.456H1195.08ZM1204.33 235.28V224.592H1192.74V252.464H1195.08V235.28H1204.33ZM1203.43 242.704V239.248H1207.91V242.704H1203.43ZM1214.38 244.72V242.704H1210.02V239.248H1213.67V237.296H1197.9V239.248H1201.35V242.704H1197.29V244.72H1201.29C1201.1 246.576 1200.2 249.232 1197.51 250.864C1198.02 251.184 1198.73 251.856 1199.08 252.272C1202.15 250.192 1203.18 246.864 1203.37 244.72H1207.91V251.856H1210.02V244.72H1214.38ZM1209.42 233.488V230.704H1216.68V233.488H1209.42ZM1216.68 226.416V229.008H1209.42V226.416H1216.68ZM1219.02 224.592H1207.14V235.312H1216.68V249.328C1216.68 249.84 1216.52 250.032 1216.01 250.032C1215.53 250.064 1213.8 250.064 1212.04 250C1212.39 250.64 1212.74 251.76 1212.81 252.368C1215.21 252.4 1216.81 252.336 1217.77 251.952C1218.7 251.536 1219.02 250.768 1219.02 249.36V224.592ZM1234.41 225.904C1237.42 228.048 1241.13 231.184 1242.89 233.168L1244.58 231.408C1242.76 229.392 1238.95 226.384 1235.98 224.336L1234.41 225.904ZM1247.69 234.512C1249.48 238.256 1251.21 243.28 1251.85 246.576L1254.18 245.648C1253.51 242.352 1251.75 237.456 1249.9 233.648L1247.69 234.512ZM1227.82 234.48C1227.37 238.224 1226.31 243.216 1224.94 246.48L1227.3 247.472C1228.62 244.08 1229.61 238.672 1230.12 234.928L1227.82 234.48ZM1232.9 232.08V247.824C1232.9 250.992 1233.86 251.856 1237.32 251.856H1243.75C1247.3 251.856 1248.04 250.096 1248.39 244.048C1247.72 243.856 1246.73 243.44 1246.15 242.992C1245.9 248.496 1245.61 249.616 1243.62 249.616H1237.51C1235.69 249.616 1235.3 249.328 1235.3 247.856V232.08H1232.9ZM1272.84 236.88C1271.94 236.24 1268.26 234 1267.02 233.328C1267.08 233.136 1267.14 232.976 1267.18 232.784H1273.1V230.832H1267.53C1267.59 230.416 1267.59 230.064 1267.59 229.68V227.824H1272.3V225.904H1263.59C1263.91 225.136 1264.23 224.368 1264.46 223.568L1262.31 223.152C1261.58 225.552 1260.33 227.952 1258.7 229.52C1259.24 229.776 1260.17 230.352 1260.62 230.672C1261.32 229.904 1262.02 228.912 1262.63 227.824H1265.32V229.68C1265.32 230.064 1265.32 230.416 1265.26 230.832H1258.7V232.784H1264.84C1264.17 234.736 1262.47 236.848 1258.41 238.448C1258.95 238.8 1259.62 239.568 1259.91 240.08C1263.27 238.544 1265.19 236.752 1266.28 234.928C1267.88 236.016 1270.25 237.712 1271.18 238.512L1272.84 236.88ZM1280.46 241.296V244.304H1265.67V241.296H1280.46ZM1265.67 249.328V246.16H1280.46V249.328H1265.67ZM1263.34 252.464H1265.67V251.28H1280.46V252.4H1282.86V239.344H1263.34V252.464ZM1283.24 234.736H1276.65V227.952H1283.24V234.736ZM1274.41 225.808V236.912H1285.58V225.808H1274.41ZM1304.62 241.424H1308.39V243.28H1304.62V241.424ZM1303.14 244.528H1309.93V240.176H1303.14V244.528ZM1301.1 238.8H1311.98V245.904H1301.1V238.8ZM1299.24 247.408H1313.93V237.328H1299.24V247.408ZM1302.25 229.456H1310.86V231.568H1302.25V229.456ZM1307.5 234.448V233.008H1312.9V228.048H1300.26V233.008H1305.48V234.448H1297.06V235.952H1316.2V234.448H1307.5ZM1295.56 249.104V226.544H1317.64V249.104H1295.56ZM1293.35 224.528V252.4H1295.56V251.152H1317.64V252.4H1319.91V224.528H1293.35Z" fill="black"/>
<circle cx="1059" cy="332" r="14" fill="#BAB4A3"/>
<path d="M1099.18 338.224V334.48H1102.06V338.224H1099.18ZM1094.57 334.48H1097.45V338.224H1094.5C1094.57 337.36 1094.57 336.496 1094.57 335.728V334.48ZM1099.37 323.952C1098.98 325.072 1098.44 326.32 1097.96 327.28H1094.28C1094.86 326.256 1095.37 325.136 1095.88 323.952H1099.37ZM1099.18 329.168H1102.06V332.688H1099.18V329.168ZM1094.57 329.168H1097.45V332.688H1094.57V329.168ZM1116.62 322.864C1116.42 326.576 1116.14 328.048 1115.78 328.464C1115.56 328.752 1115.3 328.784 1114.89 328.752C1114.44 328.752 1113.26 328.752 1112.01 328.624C1112.3 329.168 1112.49 330 1112.55 330.608C1113.86 330.672 1115.18 330.704 1115.85 330.64C1116.68 330.576 1117.16 330.352 1117.58 329.84C1118.28 329.072 1118.54 327.024 1118.79 321.744C1118.82 321.456 1118.82 320.848 1118.82 320.848H1105V322.864H1109.32C1108.71 325.872 1107.43 328.4 1104.07 329.872V327.28H1100.07C1100.81 325.904 1101.54 324.272 1102.09 322.864L1100.68 321.968L1100.33 322.064H1096.58C1096.84 321.296 1097.1 320.496 1097.32 319.696L1095.11 319.216C1094.15 323.12 1092.39 326.896 1090.12 329.328C1090.63 329.648 1091.56 330.384 1091.91 330.768C1092.14 330.512 1092.36 330.224 1092.58 329.904V335.728C1092.58 339.312 1092.36 344.048 1090.22 347.408C1090.7 347.632 1091.59 348.144 1091.91 348.496C1093.42 346.192 1094.09 343.056 1094.38 340.08H1102.06V345.84C1102.06 346.256 1101.9 346.384 1101.45 346.416C1101.03 346.448 1099.59 346.448 1097.93 346.384C1098.25 346.928 1098.6 347.856 1098.7 348.4C1100.9 348.4 1102.18 348.368 1102.98 348.016C1103.82 347.664 1104.07 346.992 1104.07 345.84V329.904C1104.52 330.288 1105.1 330.992 1105.35 331.504C1109.29 329.712 1110.82 326.64 1111.5 322.864H1116.62ZM1119.69 340.24H1113.61V336.304H1119.14V334.256H1113.61V330.992H1111.34V334.256H1108.55C1108.81 333.424 1109.03 332.56 1109.22 331.696L1107.21 331.28C1106.63 334 1105.67 336.624 1104.26 338.448C1104.81 338.704 1105.74 339.152 1106.12 339.44C1106.73 338.576 1107.3 337.488 1107.78 336.304H1111.34V340.24H1104.62V342.288H1111.34V348.272H1113.61V342.288H1119.69V340.24ZM1133.13 322.928C1131.82 321.808 1129.16 320.4 1127.05 319.568L1125.77 321.328C1127.88 322.224 1130.47 323.728 1131.75 324.912L1133.13 322.928ZM1131.24 331.568C1129.93 330.448 1127.34 329.104 1125.32 328.304L1124.04 330.096C1126.12 330.96 1128.65 332.432 1129.93 333.52L1131.24 331.568ZM1131.14 336.208C1129.32 339.824 1126.82 344.016 1125.1 346.416L1127.11 348.016C1128.97 345.072 1131.21 341.136 1132.87 337.776L1131.14 336.208ZM1142.98 326.576H1148.26V333.776H1142.86C1142.95 332.592 1142.98 331.376 1142.98 330.16V326.576ZM1153.22 336.048V333.776H1150.6V324.336H1142.98V319.28H1140.65V324.336H1134.18V326.576H1140.65V330.16C1140.65 331.376 1140.62 332.592 1140.49 333.776H1132.46V336.048H1140.17C1139.34 340.112 1137.13 343.856 1131.53 346.768C1132.1 347.152 1133 347.952 1133.42 348.496C1139.56 345.2 1141.8 340.784 1142.57 336.048H1153.22ZM1144.3 337.904C1146.73 341.264 1149.8 345.808 1151.27 348.432L1153.35 347.248C1151.82 344.656 1148.68 340.144 1146.25 336.88L1144.3 337.904ZM1186.02 327.056V324.752H1172.65L1174.89 323.792C1174.41 322.48 1173.45 320.56 1172.55 319.056L1170.31 319.952C1171.11 321.424 1172.07 323.472 1172.46 324.752H1158.5V327.056H1167.14C1166.79 334.352 1165.99 342.576 1157.8 346.64C1158.41 347.088 1159.14 347.92 1159.53 348.528C1165.54 345.328 1167.91 340.08 1168.94 334.448H1180.36C1179.82 341.648 1179.21 344.72 1178.25 345.552C1177.86 345.84 1177.48 345.904 1176.74 345.904C1175.88 345.904 1173.67 345.872 1171.37 345.68C1171.85 346.32 1172.17 347.28 1172.23 348.016C1174.34 348.144 1176.46 348.176 1177.58 348.112C1178.82 348.016 1179.56 347.792 1180.33 346.992C1181.58 345.744 1182.22 342.288 1182.82 333.296C1182.89 332.944 1182.92 332.144 1182.92 332.144H1169.29C1169.51 330.448 1169.64 328.752 1169.74 327.056H1186.02ZM1194.7 323.664H1217V326.224H1219.3V321.648H1207.59C1207.14 320.848 1206.47 319.888 1205.99 319.184L1203.62 319.76C1203.98 320.336 1204.39 320.976 1204.78 321.648H1192.46V326.224H1194.7V323.664ZM1210.22 329.232C1209.16 330.48 1207.78 331.504 1206.12 332.304C1204.07 331.888 1201.99 331.536 1199.88 331.184C1200.49 330.576 1201.16 329.936 1201.83 329.232H1210.22ZM1219.37 335.632C1216.71 334.736 1213.19 333.808 1209.29 332.976C1210.82 331.952 1212.07 330.736 1213.06 329.232H1219.78V327.28H1214.12C1214.38 326.736 1214.57 326.224 1214.76 325.616L1212.46 325.072C1212.2 325.872 1211.88 326.608 1211.5 327.28H1203.62C1204.36 326.416 1205.06 325.52 1205.64 324.688L1203.34 323.984C1202.66 325.008 1201.8 326.16 1200.84 327.28H1191.91V329.232H1199.11C1198.02 330.416 1196.94 331.472 1195.94 332.368C1198.28 332.688 1200.52 333.104 1202.7 333.52C1199.82 334.256 1196.26 334.672 1191.88 334.864C1192.26 335.44 1192.58 336.208 1192.81 336.912C1198.66 336.528 1203.21 335.792 1206.66 334.32C1210.82 335.28 1214.44 336.24 1217.06 337.232L1219.37 335.632ZM1199.59 341.328C1197.9 343.152 1194.86 344.816 1192.01 345.872C1192.58 346.224 1193.51 347.056 1193.96 347.504C1196.74 346.256 1199.98 344.272 1201.93 342.096L1199.59 341.328ZM1209.38 342.512C1212.33 343.888 1215.94 346.096 1217.74 347.664L1219.46 345.936C1217.58 344.4 1213.9 342.288 1210.98 341.008L1209.38 342.512ZM1206.89 338.608V335.984H1204.55V338.608H1191.59V340.624H1204.55V348.432H1206.89V340.624H1220.07V338.608H1206.89Z" fill="black"/>
<circle cx="1526.5" cy="236" r="14" fill="#BAB4A3"/>
<path d="M1564.18 248.464V243.728H1581.24V248.464H1564.18ZM1581.24 236.848V241.488H1564.18V236.848H1581.24ZM1581.24 229.84V234.608H1564.18V229.84H1581.24ZM1572.21 227.568C1572.76 226.352 1573.33 224.912 1573.81 223.536L1571.09 223.184C1570.84 224.432 1570.32 226.16 1569.84 227.568H1561.81V252.496H1564.18V250.704H1581.24V252.336H1583.7V227.568H1572.21ZM1597.62 223.408C1596.08 228.368 1593.56 233.232 1590.77 236.4C1591.19 236.976 1591.83 238.256 1592.02 238.832C1593.08 237.584 1594.1 236.112 1595.06 234.544V252.432H1597.36V230.192C1598.29 228.208 1599.12 226.128 1599.83 224.016L1597.62 223.408ZM1607.76 228.656H1615.32C1614.39 230.32 1613.14 231.728 1611.64 232.912C1609.91 231.632 1608.6 230.224 1607.7 228.752L1607.76 228.656ZM1620.37 228.656V226.704H1608.92C1609.46 225.744 1609.91 224.752 1610.32 223.76L1608.18 223.216C1606.9 226.544 1604.66 229.776 1602.16 231.888V227.024H1600.08V247.152H1602.16V232.176C1602.68 232.528 1603.44 233.136 1603.76 233.456C1604.72 232.592 1605.65 231.568 1606.55 230.416C1607.41 231.664 1608.53 232.944 1609.97 234.096C1607.73 235.504 1605.11 236.56 1602.23 237.296C1602.68 237.744 1603.38 238.672 1603.67 239.152C1606.64 238.224 1609.4 237.04 1611.76 235.408C1614 236.912 1616.79 238.128 1620.08 238.864C1620.37 238.288 1620.98 237.424 1621.4 236.944C1618.29 236.368 1615.64 235.376 1613.46 234.096C1615.25 232.592 1616.72 230.8 1617.81 228.656H1620.37ZM1615.41 240.72C1613.27 242.96 1609.08 244.752 1605.04 245.712C1605.49 246.096 1606 246.8 1606.29 247.28C1610.55 246.096 1614.77 244.112 1617.24 241.456L1615.41 240.72ZM1612.37 237.648C1610.68 239.344 1607.48 240.816 1604.63 241.648C1605.11 242.032 1605.62 242.64 1605.97 243.056C1608.98 242.064 1612.24 240.4 1614.2 238.384L1612.37 237.648ZM1618.39 244.208C1615.54 247.44 1609.75 249.456 1603.32 250.416C1603.76 250.896 1604.31 251.728 1604.56 252.304C1611.32 251.12 1617.27 248.848 1620.44 245.072L1618.39 244.208ZM1628.34 228.24H1651V231.664H1653.4V226.032H1641.56C1641.17 225.104 1640.5 223.856 1639.92 222.896L1637.65 223.568C1638.07 224.304 1638.55 225.232 1638.9 226.032H1626.04V231.664H1628.34V228.24ZM1651.19 239.344C1649.84 237.68 1647.09 235.248 1644.92 233.552L1643.16 234.672C1643.99 235.344 1644.88 236.112 1645.75 236.912L1633.4 237.776C1635.25 236.432 1637.11 234.832 1638.8 233.136H1650.36V231.056H1629.27V233.136H1635.73C1633.94 234.96 1632.02 236.496 1631.32 236.976C1630.48 237.616 1629.75 238.032 1629.14 238.128C1629.4 238.736 1629.72 239.824 1629.84 240.304C1630.84 239.888 1632.34 239.792 1647.51 238.608C1648.28 239.344 1648.88 240.08 1649.33 240.656L1651.19 239.344ZM1640.88 249.392V245.168H1651.03V243.056H1640.88V239.696H1638.48V243.056H1628.56V245.168H1638.48V249.392H1625.65V251.536H1653.84V249.392H1640.88ZM1678.13 244.912C1677.62 246.32 1676.63 248.272 1675.8 249.616H1668.4L1670.39 248.944C1670.07 247.824 1669.24 246.192 1668.44 244.976L1666.29 245.648C1667.06 246.864 1667.8 248.528 1668.08 249.616H1659.32V251.696H1687.32V249.616H1678.23C1678.9 248.4 1679.7 246.896 1680.37 245.52L1678.13 244.912ZM1679.67 242.736H1666.39V238.736H1679.67V242.736ZM1682.16 236.752H1664.05V244.72H1682.16V236.752ZM1685.33 227.28C1684.24 228.432 1682.45 229.968 1680.88 231.152C1680.12 230.384 1679.38 229.552 1678.74 228.72C1680.31 227.632 1682.13 226.16 1683.6 224.784L1681.78 223.504C1680.76 224.624 1679.09 226.128 1677.65 227.28C1676.79 226 1676.02 224.656 1675.44 223.312L1673.36 223.952C1674.68 226.96 1676.47 229.712 1678.68 232.112H1668.12C1669.94 230.096 1671.48 227.76 1672.47 225.136L1670.9 224.336L1670.45 224.432H1660.63V226.448H1669.33C1668.53 228.016 1667.38 229.52 1666.13 230.928C1665.11 229.84 1663.41 228.592 1661.94 227.728L1660.66 229.072C1662.1 229.968 1663.73 231.216 1664.72 232.304C1662.74 234.128 1660.44 235.632 1658.26 236.528C1658.74 236.976 1659.41 237.776 1659.73 238.32C1662.45 237.04 1665.24 235.088 1667.6 232.656V234.16H1679.06V232.528C1681.3 234.864 1683.86 236.784 1686.64 238.032C1687.06 237.424 1687.73 236.496 1688.28 236.048C1686.13 235.216 1684.08 233.936 1682.26 232.368C1683.83 231.28 1685.68 229.84 1687.12 228.496L1685.33 227.28ZM1700.66 226.896C1700.15 225.84 1699.03 224.208 1697.91 223.056L1696.08 224.048C1697.11 225.232 1698.23 226.928 1698.71 228.016L1700.66 226.896ZM1701.43 243.408V248.752H1695.83V243.408H1701.43ZM1703.57 241.456H1693.72V252.208H1695.83V250.736H1703.57V241.456ZM1693.3 239.024H1704.08V237.104H1693.3V239.024ZM1693.91 232.656V234.512H1703.48V232.656H1693.91ZM1692.37 230.16H1705.11V228.208H1692.37V230.16ZM1711.25 249.552C1709.52 249.552 1709.17 249.296 1709.17 248.048V237.648H1717.2V239.344H1719.54V224.976H1706.42V227.248H1717.2V235.376H1706.84V248.048C1706.84 251.056 1707.8 251.792 1711.06 251.792H1717.33C1720.47 251.792 1721.2 250.416 1721.56 245.232C1720.85 245.104 1719.89 244.688 1719.32 244.272C1719.12 248.72 1718.84 249.552 1717.17 249.552H1711.25ZM1733.75 243.536C1732.12 245.776 1729.43 248.08 1726.93 249.616C1727.54 249.968 1728.53 250.736 1728.98 251.152C1731.38 249.488 1734.2 246.896 1736.12 244.368L1733.75 243.536ZM1750.45 241.136C1751.09 241.968 1751.7 242.736 1752.15 243.376L1754.16 242.128C1752.82 240.24 1750.07 237.296 1747.64 235.12L1745.72 236.112C1746.68 237.04 1747.73 238.128 1748.76 239.248L1735.12 240.144C1739.57 238.128 1744.08 235.632 1748.44 232.56L1746.58 230.992C1745.43 231.856 1744.21 232.72 1742.93 233.488L1735.09 233.904C1737.36 232.688 1739.7 231.152 1741.84 229.488L1739.83 228.208C1743.28 227.28 1746.48 226.288 1749.04 225.136L1747.28 223.28C1742.74 225.424 1734.55 227.408 1727.38 228.72C1727.67 229.264 1727.96 230.096 1728.08 230.704C1731.89 230.032 1735.92 229.2 1739.73 228.208C1737.04 230.576 1733.49 232.688 1732.34 233.232C1731.28 233.808 1730.48 234.16 1729.75 234.224C1730.04 234.832 1730.36 236.016 1730.48 236.464C1731.16 236.24 1732.24 236.08 1739.44 235.664C1736.34 237.456 1733.62 238.832 1732.4 239.344C1730.48 240.24 1729.08 240.752 1728.02 240.88C1728.28 241.52 1728.63 242.64 1728.72 243.152C1729.62 242.8 1730.9 242.608 1739.6 241.968V249.52C1739.6 249.904 1739.51 250 1738.96 250.032C1738.45 250.096 1736.72 250.096 1734.8 250C1735.19 250.64 1735.6 251.664 1735.7 252.336C1738.04 252.336 1739.67 252.304 1740.66 251.92C1741.72 251.568 1742 250.896 1742 249.552V241.776L1750.45 241.136ZM1744.88 244.464C1747.44 246.416 1750.55 249.2 1752.08 250.896L1754.07 249.488C1752.44 247.792 1749.27 245.104 1746.74 243.248L1744.88 244.464ZM1771.06 241.456C1770.71 239.824 1769.78 237.168 1768.79 235.12L1767.06 235.76C1767.51 236.688 1767.89 237.744 1768.28 238.8L1763.06 239.536C1765.72 236.56 1768.24 232.784 1770.32 229.04L1768.34 227.824C1767.57 229.392 1766.68 230.96 1765.78 232.4L1762.42 232.72C1764.24 230.256 1766.07 227.12 1767.54 224.048L1765.36 223.12C1764.02 226.576 1761.75 230.256 1761.01 231.184C1760.37 232.144 1759.8 232.784 1759.28 232.912C1759.51 233.52 1759.89 234.64 1760.02 235.12C1760.44 234.896 1761.11 234.768 1764.47 234.352C1763.35 236.048 1762.36 237.36 1761.84 237.936C1760.88 239.12 1760.15 239.92 1759.48 240.08C1759.73 240.688 1760.12 241.808 1760.21 242.288C1760.82 241.936 1761.78 241.68 1768.82 240.528C1768.98 241.136 1769.11 241.68 1769.2 242.16L1771.06 241.456ZM1760.79 243.664C1760.47 246.224 1759.99 249.04 1759.25 251.024C1759.73 251.184 1760.69 251.504 1761.08 251.728C1761.75 249.744 1762.36 246.736 1762.68 244.016L1760.79 243.664ZM1764.18 243.888C1764.56 246.032 1764.88 248.848 1764.95 250.672L1766.84 250.224C1766.74 248.4 1766.36 245.648 1765.97 243.504L1764.18 243.888ZM1771.19 248.464C1770.87 246.896 1770.1 244.56 1769.36 242.704L1767.7 243.248C1768.37 245.072 1769.11 247.504 1769.4 249.04L1771.19 248.464ZM1783.57 249.776C1782.87 249.776 1782.77 249.616 1782.77 248.784V237.328L1785.2 237.072C1785.68 237.968 1786.07 238.8 1786.36 239.504L1788.47 238.48C1787.6 236.464 1785.62 233.2 1783.99 230.8L1782.04 231.632C1782.74 232.72 1783.48 233.968 1784.18 235.184L1774.77 236.08C1776.18 234.192 1777.56 231.92 1778.87 229.52H1788.28V227.28H1780.02C1780.56 226.224 1781.11 225.104 1781.59 224.016L1779.03 223.248C1778.52 224.592 1777.91 225.968 1777.27 227.28H1771.44V229.52H1776.18C1775 231.728 1773.94 233.488 1773.43 234.192C1772.56 235.504 1771.86 236.368 1771.22 236.528C1771.54 237.2 1771.89 238.384 1772.05 238.896C1772.5 238.704 1773.11 238.544 1775.19 238.256C1775 244.848 1774.23 248.592 1769.2 250.736C1769.75 251.152 1770.39 251.984 1770.64 252.592C1776.28 249.968 1777.24 245.52 1777.49 237.968L1780.5 237.616V248.816C1780.5 251.184 1781.04 251.888 1783.28 251.888H1786C1787.96 251.888 1788.53 250.768 1788.76 246.48C1788.08 246.288 1787.19 245.968 1786.64 245.552C1786.58 249.168 1786.45 249.776 1785.78 249.776H1783.57Z" fill="black"/>
<circle cx="1526.5" cy="332" r="14" fill="#BAB4A3"/>
<path d="M1586.77 332.912C1585.52 331.152 1583.03 328.176 1581.14 326.064L1579.35 327.088C1580.08 327.92 1580.88 328.912 1581.65 329.904L1570.71 330.544C1572.08 329.072 1573.43 327.344 1574.74 325.52H1586.55V323.376H1576.21C1576.92 322.352 1577.59 321.296 1578.2 320.24L1575.86 319.312C1575.12 320.688 1574.32 322.096 1573.46 323.376H1566.61V325.52H1572.05C1570.9 327.12 1569.94 328.368 1569.43 328.912C1568.5 330 1567.73 330.8 1567.09 330.928C1567.32 331.536 1567.7 332.688 1567.83 333.168C1568.76 332.784 1570.26 332.688 1583.16 331.824C1583.8 332.688 1584.4 333.52 1584.82 334.16L1586.77 332.912ZM1566.13 323.536C1565.01 322.32 1562.64 320.656 1560.72 319.632L1559.32 321.296C1561.27 322.416 1563.64 324.176 1564.69 325.392L1566.13 323.536ZM1565.01 331.6C1563.76 330.544 1561.17 329.136 1559.19 328.272L1557.91 330.064C1559.96 330.992 1562.45 332.496 1563.7 333.584L1565.01 331.6ZM1564.76 336.176C1562.9 339.792 1560.4 343.984 1558.71 346.416L1560.69 348.016C1562.55 345.072 1564.79 341.104 1566.48 337.744L1564.76 336.176ZM1569.49 337.552C1569.49 340.464 1569.08 344.016 1565.4 346.768C1565.94 347.088 1566.74 347.824 1567.09 348.336C1571.16 345.232 1571.67 341.104 1571.67 337.616V334.256H1569.49V337.552ZM1575.09 347.056H1577.24V334.448H1575.09V347.056ZM1583.54 345.904C1583.09 345.904 1583 345.648 1583 344.72V334.256H1580.79V344.688C1580.79 346.896 1581.2 347.728 1583.32 347.728H1585.4C1586 347.728 1586.61 347.728 1586.93 347.6C1586.9 347.088 1586.84 346.32 1586.8 345.744C1586.42 345.872 1585.78 345.904 1585.36 345.904H1583.54ZM1616.56 328.88H1606.8V322.896H1616.56V328.88ZM1618.87 320.848H1604.56V330.928H1618.87V320.848ZM1603.64 336.752C1603 336.016 1600.28 333.2 1599.28 332.368V330.416H1603.28V328.176H1599.28V322.8C1600.82 322.416 1602.26 322 1603.44 321.488L1601.81 319.696C1599.41 320.752 1595.19 321.68 1591.57 322.256C1591.86 322.8 1592.18 323.568 1592.31 324.112C1593.78 323.888 1595.41 323.632 1596.98 323.312V328.176H1591.76V330.416H1596.66C1595.38 334.064 1593.17 338.192 1591.16 340.432C1591.54 341.008 1592.12 341.936 1592.34 342.608C1593.97 340.656 1595.67 337.456 1596.98 334.224V348.368H1599.28V334.672C1600.37 335.984 1601.68 337.744 1602.2 338.64L1603.64 336.752ZM1612.79 345.52V341.232H1619.25V339.152H1612.79V335.12C1615.28 334.8 1617.59 334.416 1619.41 333.904L1617.84 332.144C1614.61 333.072 1608.53 333.712 1603.57 334C1603.8 334.512 1604.08 335.312 1604.15 335.824C1606.13 335.728 1608.28 335.568 1610.42 335.376V339.152H1604.24V341.232H1610.42V345.52H1602.45V347.632H1620.56V345.52H1612.79ZM1631.12 319.408C1629.72 324.304 1627.35 329.2 1624.76 332.4C1625.14 332.976 1625.78 334.256 1626 334.8C1626.96 333.616 1627.89 332.208 1628.76 330.672V348.464H1631.03V326.16C1631.89 324.176 1632.66 322.096 1633.3 320.016L1631.12 319.408ZM1639.54 341.648H1647.92C1646.8 342.608 1645.27 343.536 1643.35 344.272C1641.72 343.664 1640.28 342.896 1639.09 342.032L1639.54 341.648ZM1649.88 339.952L1649.46 340.048H1641.4C1641.88 339.6 1642.29 339.152 1642.68 338.672H1646.52C1648.18 338.672 1648.72 338.192 1648.92 336.368C1648.4 336.272 1647.67 336.08 1647.28 335.824C1647.19 337.072 1647.03 337.232 1646.29 337.232H1642.32C1641.27 337.232 1641.08 337.136 1641.08 336.528V334.672H1639.09V336.528C1639.09 337.744 1639.38 338.288 1640.31 338.512C1639.6 339.312 1638.68 340.08 1637.62 340.848C1637.27 340.496 1636.92 340.144 1636.66 339.76L1634.8 340.464C1635.19 340.944 1635.57 341.424 1636.02 341.872C1635.06 342.448 1633.94 342.992 1632.76 343.504C1633.24 343.792 1633.84 344.432 1634.16 344.912C1635.35 344.336 1636.47 343.76 1637.46 343.12C1638.42 343.888 1639.51 344.56 1640.69 345.168C1638.32 345.84 1635.51 346.384 1632.34 346.736C1632.79 347.216 1633.3 347.984 1633.56 348.528C1637.3 348.016 1640.6 347.28 1643.35 346.288C1646.2 347.344 1649.46 348.08 1652.88 348.496C1653.17 347.888 1653.72 347.088 1654.13 346.608C1651.25 346.352 1648.47 345.872 1646 345.168C1648.37 343.984 1650.2 342.512 1651.35 340.816L1649.88 339.952ZM1637.46 334.672C1636.76 335.792 1635.51 337.168 1634.2 337.904L1635.6 339.024C1637.01 338.128 1638.16 336.688 1638.96 335.472L1637.46 334.672ZM1653.2 338.192C1652.44 337.168 1650.87 335.632 1649.52 334.576L1648.18 335.376C1649.52 336.496 1651.09 338.064 1651.8 339.152L1653.2 338.192ZM1638.42 330.768H1649.08V332.144H1638.42V330.768ZM1649.08 325.52V326.896H1638.42V325.52H1649.08ZM1649.08 329.52H1638.42V328.144H1649.08V329.52ZM1651.32 332.144V324.144H1644.05C1644.28 323.632 1644.5 323.056 1644.72 322.48H1653.78V320.656H1633.94V322.48H1642.23C1642.1 323.024 1641.97 323.6 1641.81 324.144H1636.24V332.144H1633.11V336.432H1635.19V333.68H1642.8L1641.75 334.384C1642.84 334.992 1644.15 336.016 1644.85 336.688L1646.2 335.728C1645.56 335.088 1644.37 334.256 1643.35 333.68H1652.15V336.432H1654.29V332.144H1651.32ZM1667.32 319.344C1665.27 324.24 1661.84 329.008 1658.36 332.016C1658.77 332.592 1659.44 333.808 1659.7 334.384C1661.17 333.008 1662.64 331.344 1664.02 329.52V348.464H1666.32V326.128C1667.54 324.208 1668.6 322.16 1669.52 320.08L1667.32 319.344ZM1677.24 345.2C1675.57 345.2 1675.22 344.816 1675.22 343.12V330.736H1686.58V328.432H1675.22V319.728H1672.92V343.056C1672.92 346.448 1673.91 347.376 1677.08 347.376H1683.16C1686.52 347.376 1687.16 345.328 1687.54 339.408C1686.87 339.248 1685.94 338.8 1685.33 338.32C1685.08 343.792 1684.82 345.2 1683.03 345.2H1677.24Z" fill="black"/>
<circle cx="587" cy="236" r="14" fill="#BAB4A3"/>
<path d="M631.656 223.344C631.56 228.208 631.752 243.76 618.472 250.48C619.208 250.96 619.976 251.696 620.392 252.336C628.2 248.176 631.592 241.008 633.064 234.608C634.6 240.56 638.024 248.464 646.024 252.208C646.376 251.536 647.08 250.736 647.752 250.192C636.456 245.168 634.536 231.792 634.056 227.984C634.216 226.096 634.248 224.496 634.28 223.344H631.656ZM664.008 239.536L663.688 237.424L659.976 238.576V232.048H663.24V229.744H659.976V223.248H657.768V229.744H655.304C655.528 228.336 655.752 226.864 655.912 225.424L653.832 225.072C653.448 228.976 652.84 233.008 651.624 235.728C652.136 235.92 653.032 236.496 653.448 236.784C654.024 235.472 654.472 233.84 654.856 232.048H657.768V239.184C655.528 239.888 653.48 240.432 651.848 240.88L652.488 243.152C654.056 242.672 655.88 242.096 657.768 241.52V252.464H659.976V240.816L664.008 239.536ZM668.456 228.56C669 226.992 669.48 225.36 669.864 223.664L667.688 223.216C666.632 228.048 664.712 232.656 662.088 235.504C662.568 235.824 663.528 236.496 663.912 236.88C665.288 235.248 666.504 233.136 667.56 230.8H670.312C668.84 235.92 665.992 241.264 662.6 243.92C663.272 244.272 664.04 244.816 664.488 245.296C667.976 242.256 670.92 236.272 672.36 230.8H674.984C673.32 238.832 669.864 246.704 664.616 250.48C665.32 250.832 666.152 251.408 666.6 251.92C671.912 247.696 675.432 239.184 677.032 230.8H678.568C677.928 243.472 677.224 248.208 676.2 249.328C675.848 249.744 675.528 249.872 675.016 249.872C674.376 249.872 673.096 249.84 671.656 249.712C672.072 250.352 672.296 251.344 672.328 252.048C673.736 252.144 675.112 252.176 675.976 252.048C676.936 251.952 677.576 251.664 678.184 250.832C679.464 249.232 680.168 244.272 680.872 229.776C680.904 229.488 680.904 228.56 680.904 228.56H668.456ZM709.16 241.232C708.168 239.952 706.056 238.224 704.328 237.104L702.76 238.384C704.52 239.6 706.568 241.424 707.528 242.672L709.16 241.232ZM704.104 234.896H697.64V237.104H713.8V234.896H706.44V230.064H714.376V227.888H706.44V223.28H704.104V227.888H697.096V230.064H704.104V234.896ZM693.416 227.12C692.808 225.968 691.624 224.304 690.568 223.024L688.744 224.048C689.736 225.392 690.952 227.152 691.496 228.368L693.416 227.12ZM696.136 228.656H685.672V230.608H696.136V228.656ZM695.304 234.736V232.848H686.824V234.736H695.304ZM695.304 237.008H686.824V238.896H695.304V237.008ZM693.448 243.248V248.528H688.808V243.248H693.448ZM695.4 241.264H686.92V252.016H688.808V250.512H695.4V241.264ZM697.864 249.744C699.08 247.824 699.656 244.624 699.976 242.064L698.056 241.488C697.768 243.92 697.192 246.8 696.072 248.496L697.864 249.744ZM704.488 249.328C703.656 249.328 703.496 249.2 703.496 248.4V240.336H701.288V248.432C701.288 250.704 701.864 251.408 704.232 251.408H707.56C709.64 251.408 710.216 250.32 710.44 245.872C709.832 245.744 708.936 245.392 708.456 245.008C708.36 248.784 708.2 249.328 707.368 249.328H704.488ZM709.8 242.128C711.24 244.4 712.488 247.472 712.84 249.52L714.856 248.624C714.44 246.608 713.192 243.568 711.656 241.296L709.8 242.128Z" fill="black"/>
<circle cx="587" cy="332" r="14" fill="#BAB4A3"/>
<path d="M625.928 319.152C624.072 323.984 620.968 328.752 617.736 331.792C618.184 332.304 618.856 333.552 619.08 334.096C620.264 332.912 621.48 331.504 622.6 329.936V348.592H624.872V326.512C626.12 324.368 627.272 322.096 628.168 319.856L625.928 319.152ZM630.44 334.832V330.096H636.136V333.392C636.136 333.872 636.136 334.352 636.104 334.832H630.44ZM644.36 330.096V334.832H638.44C638.472 334.352 638.472 333.872 638.472 333.392V330.096H644.36ZM646.632 336.848V328.08H638.472V324.944H647.688V322.768H638.472V319.376H636.136V322.768H627.304V324.944H636.136V328.08H628.232V336.848H635.976C635.752 338.608 635.272 340.304 634.248 341.776C632.552 340.592 631.176 339.184 630.216 337.52L628.232 338.16C629.416 340.208 630.984 341.936 632.872 343.344C631.368 344.688 629.256 345.776 626.12 346.576C626.632 347.056 627.304 348.048 627.56 348.56C630.888 347.568 633.192 346.224 634.792 344.656C638.056 346.608 642.056 347.856 646.568 348.528C646.888 347.824 647.464 346.896 647.976 346.384C643.432 345.84 639.4 344.752 636.2 342.992C637.48 341.136 638.056 339.056 638.312 336.848H646.632ZM667.944 336.432V331.12H676.552V336.432H667.944ZM657.8 336.432C657.896 335.248 657.928 334.064 657.928 333.008V331.12H665.576V336.432H657.8ZM665.576 323.76V328.88H657.928V323.76H665.576ZM676.552 328.88H667.944V323.76H676.552V328.88ZM678.888 321.488H655.592V333.008C655.592 337.456 655.272 343.088 651.752 347.056C652.264 347.344 653.224 348.144 653.576 348.624C656.008 345.904 657.096 342.256 657.576 338.704H665.576V348.144H667.944V338.704H676.552V345.2C676.552 345.808 676.328 346 675.688 346.032C675.112 346.032 672.936 346.064 670.696 345.968C671.016 346.608 671.4 347.632 671.496 348.272C674.504 348.304 676.36 348.272 677.448 347.888C678.472 347.472 678.888 346.768 678.888 345.232V321.488ZM699.336 329.456V325.36H706.44C704.936 326.8 703.304 328.176 701.576 329.456H699.336ZM708.008 340.112H695.048V336.944H708.008V340.112ZM695.048 345.328V342H708.008V345.328H695.048ZM714.344 331.6V329.456H705.128C708.04 327.056 710.664 324.368 712.904 321.424L710.888 320.336C709.8 321.808 708.584 323.216 707.24 324.56V323.248H699.336V319.248H697V323.248H688.84V325.36H697V329.456H686.056V331.6H698.504C694.472 334.192 689.992 336.304 685.352 337.936C685.8 338.416 686.568 339.376 686.856 339.888C688.808 339.152 690.792 338.288 692.712 337.36V348.432H695.048V347.408H708.008V348.304H710.44V334.928H697.224C698.984 333.904 700.712 332.784 702.376 331.6H714.344ZM727.784 323.536C727.464 322.352 726.696 320.592 725.96 319.216L723.944 319.92C724.584 321.296 725.352 323.12 725.672 324.304L727.784 323.536ZM725.16 330.896V326.768H731.912V324.528H719.56V326.768H722.984V331.632C722.984 336.272 722.568 342.096 718.92 347.024C719.464 347.344 720.264 347.92 720.616 348.368C724.232 343.568 725.032 338.032 725.16 333.072H728.776C728.552 341.808 728.264 344.912 727.784 345.616C727.528 346 727.304 346.064 726.888 346.064C726.44 346.064 725.448 346.032 724.264 345.936C724.616 346.512 724.84 347.408 724.872 348.048C726.024 348.112 727.144 348.112 727.848 348.016C728.616 347.952 729.192 347.696 729.672 347.024C730.44 345.936 730.696 342.448 730.952 331.984C730.984 331.632 730.984 330.896 730.984 330.896H725.16ZM747.976 325.648V323.472H736.936C737.416 322.256 737.864 320.976 738.216 319.632L735.912 319.216C734.984 322.992 733.256 326.608 730.984 328.944C731.528 329.296 732.456 330.032 732.872 330.384C733.992 329.104 735.08 327.472 735.976 325.648H747.976ZM746.28 332.112C745.288 333.232 743.784 334.576 742.408 335.696C741.928 333.968 741.608 332.144 741.32 330.288C743.528 329.68 745.64 328.976 747.368 328.24L745.448 326.576C742.856 327.856 738.216 329.168 734.12 330.032V343.824C734.12 345.296 733.48 346.064 733.032 346.448C733.384 346.832 734.024 347.728 734.248 348.24C734.792 347.696 735.688 347.28 741.544 344.56C741.384 344.048 741.224 343.088 741.192 342.448L736.392 344.56V331.504C737.352 331.28 738.344 331.056 739.304 330.8C740.392 338.384 742.536 344.752 746.792 347.952C747.144 347.312 747.88 346.448 748.424 346.032C745.992 344.336 744.232 341.36 743.016 337.712C744.616 336.592 746.536 335.024 748.008 333.584L746.28 332.112ZM777.864 328.88H768.104V322.896H777.864V328.88ZM780.168 320.848H765.864V330.928H780.168V320.848ZM764.936 336.752C764.296 336.016 761.576 333.2 760.584 332.368V330.416H764.584V328.176H760.584V322.8C762.12 322.416 763.56 322 764.744 321.488L763.112 319.696C760.712 320.752 756.488 321.68 752.872 322.256C753.16 322.8 753.48 323.568 753.608 324.112C755.08 323.888 756.712 323.632 758.28 323.312V328.176H753.064V330.416H757.96C756.68 334.064 754.472 338.192 752.456 340.432C752.84 341.008 753.416 341.936 753.64 342.608C755.272 340.656 756.968 337.456 758.28 334.224V348.368H760.584V334.672C761.672 335.984 762.984 337.744 763.496 338.64L764.936 336.752ZM774.088 345.52V341.232H780.552V339.152H774.088V335.12C776.584 334.8 778.888 334.416 780.712 333.904L779.144 332.144C775.912 333.072 769.832 333.712 764.872 334C765.096 334.512 765.384 335.312 765.448 335.824C767.432 335.728 769.576 335.568 771.72 335.376V339.152H765.544V341.232H771.72V345.52H763.752V347.632H781.864V345.52H774.088ZM792.84 329.136H796.264V326.864H792.84V319.6H790.6V326.864H786.792V329.136H790.6V338.992C788.936 339.696 787.4 340.336 786.184 340.752L787.112 343.12C789.896 341.872 793.48 340.272 796.84 338.704L796.36 336.592C795.176 337.104 793.992 337.584 792.84 338.096V329.136ZM803.496 345.584C801.416 345.584 801 345.168 801 343.44V332.4L805.288 330.576V341.36H807.56V329.616L811.72 327.856C811.464 331.888 811.048 336.624 810.504 339.536L812.456 340.112C813.256 336.496 813.8 330.608 814.12 326.096L814.248 325.712L812.424 325.104L807.56 327.152V319.216H805.288V328.112L801 329.904V322.192H798.728V330.896L795.272 332.336L796.2 334.416L798.728 333.36V343.408C798.728 346.864 799.816 347.728 803.432 347.728H811.304C814.632 347.728 815.368 346.32 815.752 341.936C815.08 341.84 814.184 341.456 813.608 341.04C813.384 344.72 813.064 345.584 811.208 345.584H803.496ZM832.616 337.424H836.392V339.28H832.616V337.424ZM831.144 340.528H837.928V336.176H831.144V340.528ZM829.096 334.8H839.976V341.904H829.096V334.8ZM827.24 343.408H841.928V333.328H827.24V343.408ZM830.248 325.456H838.856V327.568H830.248V325.456ZM835.496 330.448V329.008H840.904V324.048H828.264V329.008H833.48V330.448H825.064V331.952H844.2V330.448H835.496ZM823.56 345.104V322.544H845.64V345.104H823.56ZM821.352 320.528V348.4H823.56V347.152H845.64V348.4H847.912V320.528H821.352Z" fill="black"/>
<circle cx="587" cy="428" r="14" fill="#BAB4A3"/>
<path d="M635.656 418.608H640.968V423.728C640.968 426.128 641.416 427.024 643.496 427.024H645.576C646.184 427.024 646.824 426.992 647.144 426.864C647.08 426.32 647.016 425.424 646.984 424.816C646.6 424.912 645.96 424.976 645.576 424.976H643.688C643.24 424.976 643.176 424.688 643.176 423.792V416.368H633.448V419.888C633.448 422.16 632.904 424.784 629.48 426.736C629.896 427.088 630.696 427.984 631.016 428.464C634.824 426.224 635.656 422.832 635.656 419.952V418.608ZM626.376 419.216C625.864 418.064 624.84 416.4 623.912 415.088L622.056 416.016C622.952 417.36 623.944 419.152 624.456 420.304L626.376 419.216ZM630.696 420.656H618.6V422.608H630.696V420.656ZM619.976 430.896H629.416V429.008H619.976V430.896ZM619.976 424.848V426.736H629.384V424.848H619.976ZM642.856 431.504C641.8 433.936 640.232 435.952 638.344 437.616C636.424 435.92 634.888 433.872 633.832 431.504H642.856ZM627.272 440.528H622.024V435.248H627.272V440.528ZM644.36 429.168L643.976 429.264H630.344V431.504H633.096L631.72 431.984C632.904 434.704 634.504 437.104 636.52 439.056C634.376 440.528 631.912 441.616 629.384 442.288V433.264H619.944V444.016H622.024V442.512H629.32C629.736 443.056 630.184 443.888 630.408 444.496C633.288 443.632 635.976 442.352 638.344 440.592C640.616 442.32 643.272 443.6 646.28 444.4C646.6 443.728 647.272 442.768 647.752 442.256C644.904 441.616 642.376 440.528 640.2 439.056C642.728 436.72 644.712 433.712 645.896 429.84L644.36 429.168ZM660.808 419.216C660.328 418.096 659.304 416.432 658.344 415.12L656.552 416.048C657.384 417.36 658.408 419.152 658.888 420.304L660.808 419.216ZM665.896 420.656H652.744V422.608H665.896V420.656ZM664.488 429.008H654.152V430.896H664.488V429.008ZM662.44 435.248V440.528H656.488V435.248H662.44ZM664.52 433.264H654.408V444.016H656.488V442.512H664.52V433.264ZM654.152 426.736H664.552V424.848H654.152V426.736ZM681.064 426.256H674.504V415.824H672.104V426.256H665.832V428.592H672.104V444.464H674.504V428.592H681.064V426.256ZM696.936 419.056H701.16V417.232H696.936V415.248H694.984V421.008H696.936V419.056ZM698.6 425.776H695.816V423.024H698.6V425.776ZM700.168 421.584H694.312V427.216H700.168V421.584ZM690.088 420.976H692.04V415.248H690.088V417.232H685.512V419.056H690.088V420.976ZM688.296 423.024H691.016V425.808H688.296V423.024ZM686.792 427.248H692.584V421.584H686.792V427.248ZM703.784 428.784H711.432V431.952H703.784V428.784ZM703.784 423.664H711.432V426.832H703.784V423.664ZM703.784 418.576H711.432V421.68H703.784V418.576ZM690.024 438.8H694.024V441.04H690.024V438.8ZM694.024 433.52H690.024V431.6H694.024V433.52ZM694.024 437.136H690.024V435.152H694.024V437.136ZM711.08 442.128C710.632 442.128 710.568 442.032 710.568 441.36V434.096H713.576V416.4H701.736V434.096H704.552C704.2 437.616 703.304 440.464 700.392 442.256V441.04H695.912V438.8H699.944V437.136H695.912V435.152H699.816V433.52H695.912V431.6H700.424V429.872H696.232C695.944 429.136 695.432 428.208 694.888 427.504L693.352 428.176C693.704 428.688 694.056 429.296 694.312 429.872H690.472C690.76 429.2 691.048 428.592 691.304 427.92L689.64 427.408C688.712 429.968 687.08 432.464 685.352 434.192C685.704 434.576 686.28 435.44 686.472 435.792C687.048 435.152 687.624 434.416 688.2 433.648V444.464H690.024V442.768H699.56C700.008 443.152 700.648 443.952 700.936 444.528C704.936 442.384 706.184 438.736 706.632 434.096H708.616V441.36C708.616 443.504 709.032 444.144 710.824 444.144H712.52C714.12 444.144 714.664 443.12 714.792 438.64C714.248 438.48 713.384 438.16 713 437.808C712.936 441.68 712.84 442.128 712.264 442.128H711.08ZM728.872 424.816C729.416 423.504 730.056 421.488 730.6 419.824L729.192 419.312C728.904 420.784 728.264 423.024 727.816 424.4L728.872 424.816ZM722.696 419.728C723.24 421.264 723.656 423.28 723.72 424.592L724.968 424.24C724.872 422.96 724.456 420.944 723.912 419.408L722.696 419.728ZM722.248 418.16H725.704V425.84H722.248V418.16ZM731.016 425.84H727.336V418.16H731.016V425.84ZM733.576 434.16H727.592V431.664H733.16V429.744H727.592V427.568H732.936V416.432H720.36V427.568H725.448V429.744H720.136V431.664H725.448V434.16H719.56V436.08H733.576V434.16ZM720.712 444.08C721.672 442.544 722.312 440.016 722.696 438.032L721.032 437.424C720.68 439.376 719.976 441.84 718.984 443.312L720.712 444.08ZM723.88 438.032C724.2 439.824 724.392 442.096 724.296 443.6L725.992 443.408C726.024 441.904 725.832 439.632 725.448 437.872L723.88 438.032ZM727.144 438.032C727.816 439.664 728.36 441.808 728.52 443.216L730.12 442.864C729.928 441.488 729.32 439.344 728.648 437.744L727.144 438.032ZM730.408 437.968C731.272 439.536 732.136 441.648 732.424 443.024L734.056 442.384C733.736 441.04 732.84 438.96 731.912 437.424L730.408 437.968ZM744.936 440.752H736.872V432.528H744.936V440.752ZM748.456 424.432V422.192H741.64V415.28H739.304V430.32H734.696V444.432H736.872V442.928H744.936V444.304H747.208V430.32H741.64V424.432H748.456Z" fill="black"/>
<circle cx="118.5" cy="236" r="14" fill="#BAB4A3"/>
<path d="M154.164 239.44C154.196 238.16 154.228 236.912 154.228 235.824V234.064H159.06V239.44H154.164ZM159.06 226.608V231.856H154.228V226.608H159.06ZM161.268 224.4H152.052V235.824C152.052 240.528 151.892 246.864 149.684 251.344C150.26 251.568 151.22 252.112 151.636 252.496C153.076 249.488 153.748 245.488 154.036 241.712H159.06V249.584C159.06 250.032 158.9 250.16 158.452 250.192C158.068 250.224 156.724 250.224 155.252 250.192C155.572 250.8 155.892 251.856 155.924 252.464C158.1 252.464 159.38 252.432 160.18 252.016C161.012 251.6 161.268 250.896 161.268 249.616V224.4ZM175.892 237.488C175.156 240.208 174.068 242.608 172.692 244.656C171.22 242.544 170.068 240.112 169.204 237.488H175.892ZM177.108 235.216L176.692 235.28H166.324V226.704H175.284V230.608C175.284 230.992 175.156 231.12 174.644 231.12C174.164 231.152 172.5 231.152 170.548 231.12C170.868 231.696 171.22 232.496 171.316 233.136C173.716 233.136 175.316 233.136 176.34 232.816C177.3 232.464 177.588 231.856 177.588 230.64V224.496H164.084V252.464H166.324V237.488H167.124C168.18 240.784 169.588 243.856 171.38 246.448C169.908 248.176 168.244 249.552 166.484 250.512C166.964 250.928 167.572 251.728 167.892 252.272C169.652 251.248 171.284 249.872 172.724 248.176C174.26 249.968 175.988 251.408 177.908 252.496C178.26 251.92 178.9 251.12 179.444 250.672C177.428 249.68 175.636 248.24 174.1 246.48C176.116 243.632 177.652 240.048 178.484 235.696L177.108 235.216ZM207.316 228.592C206.58 230.224 205.524 231.568 204.212 232.72C202.708 231.536 201.46 230.128 200.596 228.592H207.316ZM194.516 242.48C195.22 241.168 195.86 239.344 196.404 237.488C196.756 237.936 197.108 238.416 197.268 238.736C199.86 237.936 202.228 236.88 204.244 235.472C206.356 236.976 208.82 238.128 211.508 238.864C211.828 238.224 212.532 237.328 213.012 236.816C210.452 236.272 208.084 235.312 206.068 234.032C207.7 232.56 209.012 230.768 209.908 228.592H212.372V226.576H201.748C202.292 225.68 202.804 224.752 203.22 223.824L200.948 223.216C199.668 226.256 197.364 229.168 194.868 231.024C195.444 231.344 196.372 232.016 196.82 232.4C197.588 231.76 198.356 230.96 199.124 230.128C200.02 231.568 201.14 232.88 202.42 234.032C200.788 235.088 198.836 235.888 196.692 236.496C196.852 235.92 197.012 235.344 197.172 234.8L195.732 234.288L195.38 234.416H193.012L194.228 233.04C193.556 232.432 192.596 231.76 191.54 231.12C193.46 229.648 195.508 227.6 196.756 225.68L195.22 224.72L194.804 224.816H184.052V226.896H193.108C192.148 228.016 190.932 229.168 189.748 230.064C188.724 229.52 187.636 229.008 186.644 228.592L185.172 230.128C187.668 231.216 190.612 233.008 192.276 234.416H183.7V236.496H188.532C187.348 239.76 185.364 243.184 183.38 245.072C183.796 245.68 184.372 246.608 184.628 247.28C186.388 245.488 188.052 242.48 189.3 239.408V249.68C189.3 250.032 189.172 250.128 188.788 250.16C188.372 250.16 187.124 250.16 185.748 250.128C186.068 250.736 186.388 251.728 186.484 252.304C188.404 252.304 189.652 252.272 190.484 251.952C191.284 251.536 191.54 250.896 191.54 249.68V236.496H194.612C194.132 238.352 193.492 240.336 192.884 241.648L194.516 242.48ZM204.18 241.072C204.372 240.048 204.532 238.992 204.628 237.904H202.228C202.132 238.992 202.004 240.048 201.812 241.072H196.308V243.056H201.3C200.308 246.32 198.292 249.008 193.876 250.608C194.356 251.024 194.996 251.888 195.284 252.432C200.404 250.448 202.644 247.12 203.764 243.056H209.14C208.66 247.44 208.18 249.232 207.572 249.84C207.252 250.128 206.996 250.16 206.484 250.16C205.972 250.16 204.692 250.128 203.316 250C203.668 250.608 203.892 251.568 203.956 252.208C205.396 252.304 206.74 252.272 207.508 252.24C208.34 252.144 208.948 251.984 209.492 251.408C210.42 250.48 211.028 248.048 211.604 242.096C211.636 241.712 211.668 241.072 211.668 241.072H204.18ZM240.308 233.424C239.732 233.424 239.604 233.2 239.604 232.368V227.92H237.46V232.336C237.46 234.672 238.004 235.44 240.34 235.44H243.892C244.628 235.44 245.428 235.408 245.876 235.28C245.78 234.736 245.716 233.84 245.652 233.264C245.204 233.392 244.34 233.424 243.828 233.424H240.308ZM229.332 227.056H242.9V230.576H245.236V224.976H227.124V230.704H229.332V227.056ZM232.532 227.952C232.244 231.664 231.252 233.488 226.484 234.512C226.964 234.928 227.54 235.792 227.732 236.304C233.076 235.024 234.388 232.528 234.74 227.952H232.532ZM226.228 239.152L225.812 237.008L223.284 237.968V231.856H225.908V229.648H223.284V223.248H221.076V229.648H217.588V231.856H221.076V238.768C219.636 239.28 218.324 239.76 217.236 240.08L217.908 242.384L221.076 241.168V249.456C221.076 249.872 220.916 249.968 220.532 249.968C220.212 250 219.06 250 217.812 249.968C218.1 250.608 218.388 251.6 218.484 252.176C220.308 252.208 221.492 252.112 222.228 251.728C222.996 251.344 223.284 250.704 223.284 249.456V240.304L226.228 239.152ZM245.876 241.136V238.992H237.044V235.536H234.708V238.992H226.9V241.136H233.268C231.444 244.368 228.404 247.184 225.204 248.624C225.684 249.072 226.388 249.872 226.708 250.448C229.876 248.816 232.724 245.968 234.708 242.608V252.464H237.044V242.448C239.06 245.648 242.004 248.624 244.884 250.288C245.268 249.68 246.004 248.88 246.516 248.432C243.508 246.992 240.468 244.176 238.58 241.136H245.876ZM258.612 245.584C256.852 247.312 254.004 249.104 251.38 250.256C251.924 250.64 252.82 251.408 253.204 251.824C255.732 250.544 258.74 248.432 260.82 246.416L258.612 245.584ZM274.772 243.408C275.636 244.336 276.372 245.2 276.884 245.904L278.676 244.624C277.332 242.928 274.484 240.24 272.244 238.416L270.548 239.472C271.38 240.144 272.276 240.976 273.14 241.808L259.22 242.544C263.668 240.88 268.18 238.704 272.5 236.112L270.836 234.672C269.428 235.568 267.892 236.464 266.356 237.264L259.22 237.68C261.428 236.624 263.636 235.312 265.62 233.872L264.66 233.136H276.82V237.04H279.156V231.088H266.516V228.112H278.74V226.032H266.516V223.216H264.084V226.032H251.86V228.112H264.084V231.088H251.54V237.04H253.78V233.136H263.22C260.98 234.896 258.132 236.432 257.236 236.848C256.34 237.328 255.604 237.616 254.964 237.712C255.188 238.256 255.508 239.344 255.604 239.76C256.116 239.568 256.98 239.44 262.868 239.056C260.244 240.304 258.004 241.296 256.98 241.648C255.124 242.416 253.716 242.864 252.66 242.992C252.916 243.536 253.204 244.624 253.3 245.04C254.164 244.784 255.38 244.656 264.628 244.048V249.616C264.628 250 264.5 250.096 263.956 250.128C263.476 250.16 261.78 250.16 259.828 250.096C260.18 250.736 260.564 251.6 260.692 252.304C263.028 252.304 264.596 252.272 265.62 251.92C266.644 251.536 266.932 250.928 266.932 249.68V243.92L274.772 243.408ZM269.524 246.608C272.244 248.08 275.668 250.288 277.3 251.728L279.188 250.384C277.396 248.912 273.972 246.8 271.316 245.424L269.524 246.608ZM310.516 239.088V236.88H299.988V226.352H297.812V236.88H287.284V239.088H297.812V249.616H299.988V239.088H310.516ZM321.812 231.76C322.868 232.912 324.148 234.512 324.756 235.504L325.94 234.672V238.288C324.34 239.312 322.804 240.208 321.652 240.88C321.78 239.024 321.812 237.232 321.812 235.696V231.76ZM325.94 226.576V234.096C325.236 233.136 324.084 231.824 323.06 230.768L321.812 231.6V226.576H325.94ZM327.892 224.4H319.796V235.696C319.796 240.304 319.636 246.576 317.62 251.12C318.068 251.312 318.932 252.08 319.252 252.528C320.756 249.264 321.396 244.976 321.652 241.04L322.484 242.8C323.636 241.968 324.788 241.136 325.94 240.208V249.584C325.94 250.032 325.78 250.192 325.364 250.192C325.012 250.192 323.732 250.224 322.324 250.16C322.58 250.736 322.868 251.664 322.932 252.208C324.98 252.208 326.164 252.176 326.9 251.824C327.636 251.44 327.892 250.8 327.892 249.616V224.4ZM344.66 223.312C341.236 224.528 335.412 225.616 330.388 226.288V234.704C330.388 239.568 330.164 246.448 327.668 251.376C328.212 251.568 329.204 252.144 329.62 252.496C332.18 247.376 332.564 239.824 332.564 234.704V228.144C337.3 227.536 342.548 226.608 346.196 225.424L344.66 223.312ZM345.524 235.728C344.788 236.72 343.604 238.032 342.484 239.088C342.164 237.2 341.876 235.216 341.652 233.2C343.316 232.816 344.916 232.368 346.228 231.888L344.5 229.968C342.26 230.896 338.26 231.824 334.836 232.336V247.888C334.836 249.36 333.78 250.32 333.14 250.704C333.556 251.088 334.132 251.888 334.292 252.368C334.804 251.856 335.668 251.376 340.98 248.816C340.82 248.336 340.628 247.504 340.5 246.896L336.852 248.496V234.096C337.812 233.936 338.804 233.776 339.796 233.616C340.628 241.456 342.132 248.336 345.46 252.016C345.812 251.408 346.58 250.608 347.06 250.192C345.172 248.272 343.86 245.008 342.932 241.136C344.212 240.112 345.716 238.736 347.124 237.52L345.524 235.728ZM362.772 241.968C362.452 240.304 361.588 237.488 360.756 235.376L358.964 235.792C359.316 236.784 359.7 237.84 359.988 238.896L355.188 239.6C357.812 236.688 360.372 232.944 362.452 229.296L360.404 228.08C359.732 229.52 358.836 230.992 358.004 232.4L354.548 232.656C356.404 230.256 358.228 227.152 359.732 224.112L357.556 223.184C356.18 226.672 353.876 230.32 353.172 231.248C352.5 232.208 351.892 232.848 351.38 232.976C351.636 233.584 351.988 234.64 352.116 235.12C352.564 234.896 353.268 234.736 356.692 234.32C355.508 236.08 354.452 237.424 353.94 238C352.98 239.152 352.244 239.952 351.572 240.048C351.828 240.688 352.18 241.84 352.308 242.288C352.916 241.968 353.844 241.776 360.468 240.688C360.66 241.424 360.788 242.032 360.884 242.576L362.772 241.968ZM352.916 243.696C352.596 246.256 352.116 249.072 351.38 251.056C351.892 251.216 352.884 251.536 353.3 251.792C353.972 249.808 354.58 246.8 354.9 244.016L352.916 243.696ZM356.436 243.92C356.82 246.096 357.172 248.976 357.236 250.864L359.156 250.48C359.06 248.592 358.676 245.776 358.26 243.6L356.436 243.92ZM359.668 243.376C360.308 245.264 361.076 247.76 361.364 249.392L363.156 248.784C362.836 247.152 362.068 244.752 361.332 242.864L359.668 243.376ZM366.932 240.816C368.82 239.792 370.708 238.48 372.436 236.976C374.004 238.416 375.796 239.76 377.78 240.816H366.932ZM367.764 249.104V242.96H376.628V249.104H367.764ZM369.204 228.656H376.212C375.284 230.544 373.94 232.336 372.404 233.904C370.9 232.368 369.716 230.736 368.852 229.168L369.204 228.656ZM377.78 226.512L377.364 226.64H370.42C370.964 225.712 371.444 224.72 371.86 223.728L369.62 223.12C368.148 226.8 365.556 230.224 362.612 232.4C363.156 232.784 364.02 233.616 364.404 234.032C365.46 233.168 366.548 232.112 367.508 230.928C368.404 232.4 369.524 233.904 370.868 235.376C368.468 237.488 365.684 239.152 363.028 240.144C363.508 240.592 364.148 241.488 364.436 242.064C364.788 241.904 365.14 241.744 365.524 241.552V252.304H367.764V251.216H376.628V252.24H378.932V241.392C379.156 241.52 379.412 241.616 379.636 241.712C379.956 241.104 380.66 240.144 381.14 239.728C378.42 238.704 376.02 237.168 374.004 235.44C376.212 233.136 378.1 230.416 379.316 227.312L377.78 226.512ZM392.756 227.152C392.276 226.032 391.22 224.336 390.26 223.056L388.596 224.048C389.46 225.36 390.516 227.152 390.996 228.304L392.756 227.152ZM396.788 228.656H385.332V230.608H396.788V228.656ZM395.476 234.736V232.848H386.58V234.736H395.476ZM393.556 243.248V248.528H388.468V243.248H393.556ZM395.508 241.264H386.548V252.016H388.468V250.512H395.508V241.264ZM386.58 238.896H395.508V237.008H386.58V238.896ZM405.588 235.28V238.704H400.66V235.28H405.588ZM400.66 244.08V240.624H405.588V244.08H400.66ZM413.78 227.984H402.1C402.644 226.64 403.188 225.2 403.604 223.76L401.268 223.216C400.18 227.28 398.26 231.152 395.828 233.616C396.404 234 397.396 234.704 397.844 235.088C398.132 234.736 398.452 234.384 398.74 233.968V247.696H400.66V246.064H407.572V233.328H399.156C399.828 232.4 400.436 231.312 401.044 230.192H411.476C411.092 243.568 410.644 248.496 409.652 249.584C409.364 250.032 409.044 250.128 408.436 250.128C407.764 250.128 406.1 250.096 404.244 249.968C404.692 250.608 404.948 251.632 404.98 252.304C406.644 252.4 408.34 252.432 409.364 252.336C410.388 252.24 411.06 251.92 411.732 251.024C412.916 249.456 413.332 244.4 413.78 229.232V227.984ZM426.164 227.216C425.684 226.096 424.756 224.432 423.892 223.12L422.196 224.048C422.996 225.36 423.956 227.152 424.404 228.304L426.164 227.216ZM430.26 228.656H418.932V230.608H430.26V228.656ZM420.18 238.896H429.012V237.008H420.18V238.896ZM420.18 232.848V234.736H428.98V232.848H420.18ZM427.028 243.248V248.528H422.036V243.248H427.028ZM429.012 250.512V241.264H420.116V252.016H422.036V250.512H429.012ZM447.604 231.024V228.752H439.924L440.948 228.432C440.692 227.152 439.988 225.072 439.284 223.472L437.268 224.016C437.876 225.52 438.484 227.44 438.708 228.752H431.092V231.024H435.412C435.22 238.96 434.644 246.768 428.82 250.864C429.364 251.216 430.036 251.984 430.388 252.528C434.836 249.232 436.564 243.984 437.204 238.096H443.86C443.54 245.904 443.092 248.944 442.452 249.648C442.164 250 441.876 250.064 441.332 250.032C440.724 250.032 439.188 250.032 437.556 249.872C437.94 250.512 438.196 251.44 438.26 252.144C439.828 252.24 441.428 252.272 442.26 252.176C443.188 252.08 443.796 251.856 444.372 251.12C445.332 249.968 445.748 246.544 446.164 236.976C446.164 236.656 446.196 235.856 446.196 235.856H437.428C437.556 234.256 437.62 232.656 437.684 231.024H447.604Z" fill="black"/>
<circle cx="118.5" cy="332" r="14" fill="#BAB4A3"/>
<path d="M177.684 321.68H172.276C171.988 320.88 171.572 319.92 171.188 319.184L169.108 319.6C169.396 320.24 169.716 320.976 169.94 321.68H164.884V323.6H177.684V321.68ZM178.452 327.76H174.58C174.964 326.864 175.38 325.808 175.796 324.848L173.652 324.336C173.396 325.328 172.98 326.704 172.564 327.76H169.716C169.428 326.8 168.916 325.552 168.436 324.496L166.548 324.912C166.9 325.776 167.316 326.864 167.604 327.76H164.564V329.712H178.452V327.76ZM163.668 321.68H158.548C158.228 320.88 157.812 319.92 157.396 319.152L155.316 319.568C155.604 320.208 155.956 320.976 156.212 321.68H151.06V323.6H163.668V321.68ZM163.796 327.888H160.82C161.204 326.992 161.62 325.904 162.004 324.912L159.86 324.4C159.636 325.392 159.156 326.8 158.74 327.888H156.02C155.636 326.896 155.06 325.552 154.548 324.496L152.628 324.976C153.012 325.84 153.492 326.96 153.812 327.888H150.516V329.84H163.796V327.888ZM154.036 333.104H160.66V336.368H154.036V333.104ZM160.756 343.408V338.064H162.772V331.44H151.988V338.064H154.196C153.908 341.84 153.172 344.976 150.1 346.736C150.548 347.088 151.22 347.92 151.508 348.4C155.028 346.224 155.956 342.608 156.34 338.064H158.676V342.992C158.676 344.176 158.164 344.656 157.716 344.88C158.068 345.424 158.484 346.512 158.612 347.088C158.996 346.64 159.732 346.16 164.596 343.472C164.436 343.024 164.212 342.192 164.116 341.648L160.756 343.408ZM167.508 333.136H174.9V336.336H167.508V333.136ZM174.964 346.224C174.676 346.224 174.452 346.16 174.292 346.064C174.132 345.936 174.1 345.584 174.1 345.04V338.032H177.012V331.44H165.492V338.032H167.828C167.444 342.128 166.324 345.168 162.1 346.864C162.58 347.248 163.188 348.048 163.444 348.56C168.116 346.512 169.46 342.928 169.94 338.032H171.924V344.816C171.924 346.608 172.116 347.12 172.628 347.472C173.044 347.888 173.876 348.016 174.516 348.016H176.34C176.852 348.016 177.588 347.952 178.004 347.76C178.484 347.568 178.804 347.216 178.996 346.736C179.188 346.224 179.284 344.848 179.348 343.6C178.772 343.408 178.036 343.024 177.588 342.672C177.556 343.952 177.556 344.944 177.46 345.392C177.364 345.776 177.204 346 177.012 346.064C176.852 346.192 176.5 346.224 176.18 346.224H174.964ZM204.5 328.912H191.796V322.864H204.5V328.912ZM206.9 320.592H189.492V331.184H206.9V320.592ZM193.812 336.848V344.432H187.124V336.848H193.812ZM184.852 348.464H187.124V346.736H193.812V348.176H196.148V334.544H184.852V348.464ZM201.94 344.432V336.848H209.204V344.432H201.94ZM199.636 334.544V348.464H201.94V346.736H209.204V348.24H211.54V334.544H199.636ZM225.172 320.304C223.636 325.296 220.724 329.52 216.948 332.144C217.524 332.528 218.516 333.424 218.932 333.904C222.676 330.896 225.844 326.352 227.636 320.912L225.172 320.304ZM221.748 331.248V333.552H228.276C227.508 338.96 225.748 344.016 218.228 346.544C218.804 347.056 219.476 347.984 219.764 348.624C227.892 345.648 229.972 339.888 230.804 333.552H239.06C238.676 341.616 238.228 344.816 237.396 345.616C237.076 345.968 236.724 346.032 236.052 346.032C235.284 346.032 233.332 346 231.252 345.808C231.7 346.512 231.988 347.472 232.02 348.208C234.004 348.304 236.02 348.368 237.044 348.272C238.196 348.144 238.868 347.92 239.54 347.12C240.628 345.904 241.076 342.224 241.524 332.4C241.556 332.08 241.588 331.248 241.588 331.248H221.748ZM230.164 319.792V322.032H235.828C237.652 326.8 240.948 331.28 244.916 333.84C245.332 333.168 246.1 332.208 246.612 331.696C242.548 329.392 239.124 324.816 237.524 319.792H230.164ZM262.804 335.856C262.164 334.896 259.508 331.312 258.388 329.968V328.336H263.06V326.064H258.388V319.216H256.084V326.064H251.316V328.336H255.828C254.772 332.72 252.564 337.712 250.452 340.368C250.836 340.944 251.444 341.872 251.7 342.512C253.332 340.368 254.9 336.912 256.084 333.328V348.432H258.388V332.912C259.476 334.608 260.724 336.624 261.268 337.744L262.804 335.856ZM279.764 330.096H266.964V324.4C270.804 323.696 274.964 322.672 277.94 321.456L275.924 319.6C273.332 320.784 268.756 322 264.724 322.736V332.528C264.724 336.976 264.436 342.928 261.556 347.184C262.1 347.376 263.092 348.016 263.508 348.4C266.516 343.984 266.964 337.296 266.964 332.528V332.368H272.788V348.464H275.124V332.368H279.764V330.096Z" fill="black"/>
<circle cx="118.5" cy="428" r="14" fill="#BAB4A3"/>
<path d="M178.868 427.12H165.812V415.28H163.284V427.12H150.388V429.552H163.284V444.432H165.812V429.552H178.868V427.12ZM187.092 420.848H208.98V425.104H211.412V418.576H200.116C199.668 417.488 198.804 416.08 197.972 414.992L195.7 415.76C196.308 416.592 196.916 417.648 197.364 418.576H184.756V425.104H187.092V420.848ZM211.732 432.368H199.316V431.184C202.1 429.712 204.948 427.568 206.964 425.488L205.332 424.272L204.82 424.4H189.62V426.64H202.42C200.82 428.048 198.708 429.488 196.852 430.384V432.368H184.372V434.64H196.852V441.488C196.852 441.936 196.692 442.064 196.084 442.096C195.54 442.128 193.492 442.128 191.316 442.064C191.732 442.672 192.212 443.728 192.404 444.4C195.06 444.4 196.724 444.368 197.844 443.984C198.964 443.632 199.316 442.928 199.316 441.52V434.64H211.732V432.368ZM225.172 416.304C223.636 421.296 220.724 425.52 216.948 428.144C217.524 428.528 218.516 429.424 218.932 429.904C222.676 426.896 225.844 422.352 227.636 416.912L225.172 416.304ZM221.748 427.248V429.552H228.276C227.508 434.96 225.748 440.016 218.228 442.544C218.804 443.056 219.476 443.984 219.764 444.624C227.892 441.648 229.972 435.888 230.804 429.552H239.06C238.676 437.616 238.228 440.816 237.396 441.616C237.076 441.968 236.724 442.032 236.052 442.032C235.284 442.032 233.332 442 231.252 441.808C231.7 442.512 231.988 443.472 232.02 444.208C234.004 444.304 236.02 444.368 237.044 444.272C238.196 444.144 238.868 443.92 239.54 443.12C240.628 441.904 241.076 438.224 241.524 428.4C241.556 428.08 241.588 427.248 241.588 427.248H221.748ZM230.164 415.792V418.032H235.828C237.652 422.8 240.948 427.28 244.916 429.84C245.332 429.168 246.1 428.208 246.612 427.696C242.548 425.392 239.124 420.816 237.524 415.792H230.164ZM262.804 431.856C262.164 430.896 259.508 427.312 258.388 425.968V424.336H263.06V422.064H258.388V415.216H256.084V422.064H251.316V424.336H255.828C254.772 428.72 252.564 433.712 250.452 436.368C250.836 436.944 251.444 437.872 251.7 438.512C253.332 436.368 254.9 432.912 256.084 429.328V444.432H258.388V428.912C259.476 430.608 260.724 432.624 261.268 433.744L262.804 431.856ZM279.764 426.096H266.964V420.4C270.804 419.696 274.964 418.672 277.94 417.456L275.924 415.6C273.332 416.784 268.756 418 264.724 418.736V428.528C264.724 432.976 264.436 438.928 261.556 443.184C262.1 443.376 263.092 444.016 263.508 444.4C266.516 439.984 266.964 433.296 266.964 428.528V428.368H272.788V444.464H275.124V428.368H279.764V426.096Z" fill="black"/>
<path d="M1444.77 18.044H1432.02L1432.13 18.008C1431.66 16.64 1430.48 14.588 1429.5 13.04L1425.4 14.48C1426.05 15.56 1426.73 16.856 1427.24 18.044H1413.2V22.22H1444.77V18.044ZM1432.42 24.74C1435.62 27.08 1439.62 30.464 1441.38 32.696L1445.06 29.924C1443.08 27.62 1438.9 24.452 1435.8 22.328L1432.42 24.74ZM1421.73 22.544C1419.64 25.136 1416.15 27.764 1412.94 29.384C1413.92 30.104 1415.54 31.652 1416.33 32.516C1419.53 30.572 1423.42 27.296 1425.87 24.128L1421.73 22.544ZM1433.72 28.736C1432.67 31.544 1431.09 33.884 1429.04 35.828C1427.06 33.884 1425.51 31.544 1424.43 28.916L1420.58 30.104C1421.94 33.308 1423.71 36.08 1425.83 38.384C1422.3 40.724 1417.88 42.272 1412.66 43.28C1413.48 44.216 1414.74 46.124 1415.25 47.096C1420.54 45.8 1425.18 43.964 1429 41.264C1432.64 44 1437.14 45.836 1442.82 46.916C1443.36 45.764 1444.48 44 1445.42 43.064C1440.12 42.272 1435.8 40.724 1432.35 38.456C1434.69 36.152 1436.6 33.344 1438.04 29.996L1433.72 28.736ZM1458.41 13.688C1456.5 18.98 1453.23 24.164 1449.81 27.44C1450.56 28.484 1451.86 30.86 1452.33 31.904C1453.16 31.04 1454.02 30.068 1454.85 29.024V47.06H1459.24V22.328C1460.57 19.916 1461.69 17.468 1462.66 15.056L1458.41 13.688ZM1483.58 21.248H1479.62V13.904H1475.15V21.248H1461.44V25.568H1475.15V41.912C1475.15 42.704 1474.83 42.992 1473.93 42.992C1473.1 43.028 1469.93 43.028 1467.16 42.92C1467.81 44.036 1468.56 45.944 1468.82 47.168C1472.78 47.204 1475.48 47.132 1477.24 46.448C1478.97 45.8 1479.62 44.684 1479.62 41.912V25.568H1483.58V21.248ZM1471.8 36.476C1470.72 34.316 1468.49 30.788 1466.87 28.16L1463.06 29.924C1464.68 32.66 1466.8 36.368 1467.74 38.564L1471.8 36.476ZM1499.83 44H1507.43C1515.28 44 1520.32 39.536 1520.32 30.572C1520.32 21.572 1515.28 17.324 1507.14 17.324H1499.83V44ZM1505.16 39.716V21.608H1506.82C1511.78 21.608 1514.88 24.056 1514.88 30.572C1514.88 37.052 1511.78 39.716 1506.82 39.716H1505.16ZM1535.68 44.504C1538.17 44.504 1540.72 43.64 1542.7 42.272L1540.9 39.032C1539.46 39.932 1538.02 40.436 1536.37 40.436C1533.38 40.436 1531.22 38.708 1530.79 35.396H1543.21C1543.35 34.928 1543.46 33.956 1543.46 32.948C1543.46 27.404 1540.58 23.336 1535.04 23.336C1530.25 23.336 1525.64 27.404 1525.64 33.92C1525.64 40.58 1530.03 44.504 1535.68 44.504ZM1530.72 31.868C1531.11 28.952 1532.98 27.44 1535.11 27.44C1537.7 27.44 1538.92 29.168 1538.92 31.868H1530.72ZM1554.59 44.504C1555.85 44.504 1556.71 44.288 1557.32 44.036L1556.67 40.112C1556.31 40.184 1556.17 40.184 1555.95 40.184C1555.45 40.184 1554.91 39.788 1554.91 38.564V15.272H1549.62V38.348C1549.62 42.092 1550.91 44.504 1554.59 44.504ZM1562.77 44H1568.06V23.84H1562.77V44ZM1565.44 20.6C1567.24 20.6 1568.5 19.448 1568.5 17.684C1568.5 15.956 1567.24 14.804 1565.44 14.804C1563.6 14.804 1562.34 15.956 1562.34 17.684C1562.34 19.448 1563.6 20.6 1565.44 20.6ZM1580.04 44H1586.16L1592.89 23.84H1587.82L1584.87 33.884C1584.33 35.864 1583.79 37.952 1583.25 40.004H1583.07C1582.53 37.952 1581.99 35.864 1581.45 33.884L1578.49 23.84H1573.17L1580.04 44ZM1606.55 44.504C1609.04 44.504 1611.59 43.64 1613.57 42.272L1611.77 39.032C1610.33 39.932 1608.89 40.436 1607.24 40.436C1604.25 40.436 1602.09 38.708 1601.66 35.396H1614.08C1614.22 34.928 1614.33 33.956 1614.33 32.948C1614.33 27.404 1611.45 23.336 1605.9 23.336C1601.12 23.336 1596.51 27.404 1596.51 33.92C1596.51 40.58 1600.9 44.504 1606.55 44.504ZM1601.58 31.868C1601.98 28.952 1603.85 27.44 1605.98 27.44C1608.57 27.44 1609.79 29.168 1609.79 31.868H1601.58ZM1620.49 44H1625.78V31.976C1626.89 29.06 1628.8 28.016 1630.39 28.016C1631.21 28.016 1631.79 28.124 1632.51 28.34L1633.41 23.768C1632.8 23.516 1632.15 23.336 1631.03 23.336C1628.95 23.336 1626.79 24.776 1625.31 27.404H1625.2L1624.81 23.84H1620.49V44Z" fill="black"/>
<path d="M978.64 37.52C977.992 38.456 977.236 39.284 976.372 40.04C974.752 39.14 973.096 38.312 971.584 37.52H978.64ZM981.196 34.568L980.548 34.676H968.848V37.52H969.712L968.272 39.248C969.82 40.076 971.512 41.048 973.276 42.02C971.404 42.956 969.208 43.64 966.868 44.036C967.552 44.828 968.308 46.196 968.668 47.132C971.656 46.448 974.428 45.44 976.696 44.036C978.64 45.188 980.368 46.304 981.592 47.168L983.752 44.324C982.672 43.604 981.196 42.704 979.576 41.804C981.304 40.112 982.636 38.024 983.536 35.396L981.196 34.568ZM983.068 17.288C982.096 18.44 980.44 19.952 979.072 21.032C978.424 20.528 977.776 19.988 977.164 19.412C978.532 18.44 980.08 17.144 981.556 15.92L978.496 13.724C977.632 14.732 976.3 16.028 975.112 17.036C974.284 16.028 973.6 14.876 973.06 13.652L969.64 14.66C971.368 18.512 973.78 21.716 976.912 24.2H970.036V26.756C970.036 28.376 969.712 30.104 967.48 31.58V24.416H962.764C965.68 22.22 968.092 19.412 969.532 15.884L966.904 14.588L966.184 14.768H956.788V18.116H963.88C963.268 18.944 962.548 19.7 961.792 20.42C960.748 19.628 959.236 18.764 958.012 18.152L955.564 20.42C956.644 21.032 957.94 21.86 958.912 22.58C957.04 23.768 954.988 24.74 952.864 25.352C953.62 26.108 954.664 27.548 955.168 28.484C956.284 28.088 957.364 27.62 958.444 27.08V27.656H963.664V30.176H957.292C956.968 33.02 956.392 36.584 955.888 38.924H963.448C963.196 41.372 962.872 42.524 962.44 42.92C962.116 43.244 961.72 43.28 961.144 43.28C960.352 43.28 958.588 43.244 956.788 43.1C957.436 44.072 957.94 45.548 958.012 46.664C959.92 46.736 961.792 46.736 962.764 46.628C964.024 46.556 964.888 46.268 965.644 45.44C966.58 44.504 967.012 42.2 967.408 37.34C967.444 36.836 967.48 35.828 967.48 35.828H959.992C960.1 35.036 960.208 34.172 960.352 33.344H967.48V32.264C968.2 32.912 969.244 33.956 969.64 34.568C972.628 32.66 973.492 29.96 973.6 27.44H976.912V29.528C976.912 32.444 977.488 33.668 980.512 33.668H982.744C983.5 33.668 984.328 33.632 984.832 33.452C984.688 32.624 984.616 31.4 984.544 30.536C984.076 30.68 983.212 30.716 982.708 30.716H980.944C980.476 30.716 980.404 30.428 980.404 29.564V26.468C981.7 27.152 983.032 27.728 984.508 28.196C985.084 27.152 986.164 25.64 987.064 24.812C985.228 24.308 983.5 23.624 981.916 22.796C983.248 21.86 984.796 20.708 986.164 19.484L983.068 17.288ZM1019.1 36.8C1018.06 37.592 1016.73 38.492 1015.5 39.212C1014.75 38.492 1014.06 37.7 1013.52 36.8H1019.1ZM1008.05 30.716H1013.42V33.2H1008.05V30.716ZM1008.05 24.668H1013.42V27.152H1008.05V24.668ZM998.872 18.656H1017.92V21.032H998.872V18.656ZM1020.33 36.8H1024.11V33.2H1017.38V30.716H1022.56V27.152H1017.38V24.668H1022.24V15.056H994.552V25.712C994.552 31.436 994.264 39.5 990.7 45.044C991.78 45.44 993.652 46.556 994.516 47.24C998.296 41.336 998.872 31.976 998.872 25.712V24.668H1004.13V27.152H999.628V30.716H1004.13V33.2H998.872V36.8H1001.86V40.544C1001.86 42.38 1000.78 43.424 1000.02 43.892C1000.56 44.684 1001.36 46.34 1001.57 47.348V47.312C1002.36 46.808 1003.59 46.52 1011.51 44.792C1011.51 43.928 1011.65 42.308 1011.87 41.264L1005.82 42.416V36.8H1009.49C1011.9 42.092 1015.83 45.548 1022.09 47.096C1022.63 45.98 1023.75 44.396 1024.58 43.532C1022.16 43.1 1020.08 42.344 1018.31 41.336C1019.82 40.544 1021.48 39.572 1022.92 38.564L1020.33 36.8ZM1040.83 44H1048.43C1056.28 44 1061.32 39.536 1061.32 30.572C1061.32 21.572 1056.28 17.324 1048.14 17.324H1040.83V44ZM1046.16 39.716V21.608H1047.82C1052.78 21.608 1055.88 24.056 1055.88 30.572C1055.88 37.052 1052.78 39.716 1047.82 39.716H1046.16ZM1076.68 44.504C1079.17 44.504 1081.72 43.64 1083.7 42.272L1081.9 39.032C1080.46 39.932 1079.02 40.436 1077.37 40.436C1074.38 40.436 1072.22 38.708 1071.79 35.396H1084.21C1084.35 34.928 1084.46 33.956 1084.46 32.948C1084.46 27.404 1081.58 23.336 1076.04 23.336C1071.25 23.336 1066.64 27.404 1066.64 33.92C1066.64 40.58 1071.03 44.504 1076.68 44.504ZM1071.72 31.868C1072.11 28.952 1073.98 27.44 1076.11 27.44C1078.7 27.44 1079.92 29.168 1079.92 31.868H1071.72ZM1095.01 44H1101.13L1107.86 23.84H1102.79L1099.84 33.884C1099.3 35.864 1098.76 37.952 1098.22 40.004H1098.04C1097.5 37.952 1096.96 35.864 1096.42 33.884L1093.46 23.84H1088.14L1095.01 44ZM1121.52 44.504C1124.01 44.504 1126.56 43.64 1128.54 42.272L1126.74 39.032C1125.3 39.932 1123.86 40.436 1122.21 40.436C1119.22 40.436 1117.06 38.708 1116.63 35.396H1129.05C1129.19 34.928 1129.3 33.956 1129.3 32.948C1129.3 27.404 1126.42 23.336 1120.87 23.336C1116.09 23.336 1111.48 27.404 1111.48 33.92C1111.48 40.58 1115.87 44.504 1121.52 44.504ZM1116.55 31.868C1116.95 28.952 1118.82 27.44 1120.95 27.44C1123.54 27.44 1124.76 29.168 1124.76 31.868H1116.55ZM1140.42 44.504C1141.68 44.504 1142.55 44.288 1143.16 44.036L1142.51 40.112C1142.15 40.184 1142.01 40.184 1141.79 40.184C1141.29 40.184 1140.75 39.788 1140.75 38.564V15.272H1135.46V38.348C1135.46 42.092 1136.75 44.504 1140.42 44.504ZM1157.04 44.504C1162.08 44.504 1166.72 40.616 1166.72 33.92C1166.72 27.224 1162.08 23.336 1157.04 23.336C1152 23.336 1147.35 27.224 1147.35 33.92C1147.35 40.616 1152 44.504 1157.04 44.504ZM1157.04 40.184C1154.3 40.184 1152.75 37.736 1152.75 33.92C1152.75 30.14 1154.3 27.656 1157.04 27.656C1159.77 27.656 1161.32 30.14 1161.32 33.92C1161.32 37.736 1159.77 40.184 1157.04 40.184ZM1172.95 51.74H1178.24V45.62L1178.06 42.308C1179.61 43.712 1181.3 44.504 1183.06 44.504C1187.49 44.504 1191.63 40.508 1191.63 33.596C1191.63 27.404 1188.68 23.336 1183.71 23.336C1181.55 23.336 1179.46 24.488 1177.77 25.928H1177.66L1177.27 23.84H1172.95V51.74ZM1181.87 40.148C1180.79 40.148 1179.5 39.752 1178.24 38.636V29.78C1179.61 28.376 1180.83 27.692 1182.2 27.692C1184.97 27.692 1186.19 29.816 1186.19 33.668C1186.19 38.06 1184.32 40.148 1181.87 40.148Z" fill="black"/>
<path d="M495.087 21.356H517.227V26.324H521.655V17.324H509.163C508.767 16.028 508.011 14.408 507.291 13.148L502.971 14.336C503.439 15.272 503.871 16.316 504.231 17.324H490.875V26.324H495.087V21.356ZM508.479 36.908H518.343V32.876H508.479V28.628H516.147V24.524H496.347V28.628H504.015V40.832C501.927 39.752 500.271 38.024 499.191 35.072C499.479 33.704 499.767 32.228 499.947 30.716L495.591 30.32C494.943 36.44 493.143 41.444 489.255 44.36C490.227 44.936 492.063 46.448 492.747 47.204C494.799 45.44 496.383 43.1 497.571 40.292C500.847 45.512 505.779 46.628 512.511 46.628H521.475C521.691 45.332 522.375 43.28 523.023 42.272C520.575 42.344 514.635 42.344 512.727 42.344C511.215 42.344 509.811 42.272 508.479 42.092V36.908ZM554.235 37.16C553.515 37.988 552.615 38.78 551.607 39.464C551.175 38.78 550.815 37.988 550.491 37.16H554.235ZM539.151 34.028V32.156C540.951 31.904 542.643 31.616 544.119 31.292L541.779 28.88H552.435L550.203 31.22C552.003 31.868 554.055 33.02 555.459 34.028H549.519C549.195 32.552 548.979 31.004 548.907 29.348H544.803C544.911 30.968 545.091 32.552 545.379 34.028H539.151ZM554.883 37.16H560.283V34.028H556.755L558.663 31.904C557.367 30.896 554.955 29.636 552.975 28.88H560.103V25.64H546.171V24.308H556.611V21.356H546.171V20.06H558.519V16.892H552.291C552.867 16.172 553.515 15.272 554.163 14.336L549.411 13.436C549.087 14.444 548.439 15.812 547.827 16.892H540.591C540.195 15.884 539.295 14.48 538.395 13.544L534.651 14.732C535.155 15.38 535.623 16.136 536.019 16.892H529.647V20.06H541.779V21.356H531.555V24.308H541.779V25.64H528.027V28.88H541.239C538.071 29.6 532.959 30.104 528.567 30.356C528.927 31.076 529.323 32.192 529.467 32.912C531.231 32.876 533.175 32.768 535.083 32.588V34.028H527.955V37.16H535.083V38.744C532.347 38.888 529.827 38.996 527.847 39.068L528.171 42.344C530.187 42.2 532.563 42.056 535.083 41.84V43.28C535.083 43.748 534.903 43.892 534.363 43.892C533.823 43.928 531.843 43.964 530.295 43.856C530.799 44.792 531.303 46.124 531.519 47.132C534.183 47.132 536.019 47.096 537.423 46.592C538.755 46.124 539.151 45.296 539.151 43.388V41.552L544.515 41.12L544.551 38.24L539.151 38.528V37.16H546.171C546.639 38.744 547.251 40.184 547.971 41.444C545.739 42.416 543.219 43.172 540.735 43.712C541.419 44.54 542.427 46.232 542.823 47.096C545.307 46.412 547.827 45.476 550.131 44.324C551.859 46.088 553.911 47.096 556.287 47.096C559.131 47.096 560.319 46.232 560.895 42.2C559.923 41.912 558.591 41.3 557.763 40.544C557.583 42.56 557.367 43.208 556.503 43.208C555.567 43.208 554.667 42.848 553.803 42.164C555.423 41.012 556.899 39.716 558.015 38.24L554.883 37.16ZM577.079 44H584.675C592.523 44 597.563 39.536 597.563 30.572C597.563 21.572 592.523 17.324 584.387 17.324H577.079V44ZM582.407 39.716V21.608H584.063C589.031 21.608 592.127 24.056 592.127 30.572C592.127 37.052 589.031 39.716 584.063 39.716H582.407ZM612.93 44.504C615.414 44.504 617.97 43.64 619.95 42.272L618.15 39.032C616.71 39.932 615.27 40.436 613.614 40.436C610.626 40.436 608.466 38.708 608.034 35.396H620.454C620.598 34.928 620.706 33.956 620.706 32.948C620.706 27.404 617.826 23.336 612.282 23.336C607.494 23.336 602.886 27.404 602.886 33.92C602.886 40.58 607.278 44.504 612.93 44.504ZM607.962 31.868C608.358 28.952 610.23 27.44 612.354 27.44C614.946 27.44 616.17 29.168 616.17 31.868H607.962ZM627.589 44H632.881V28.016H636.661V23.84H632.881V22.112C632.881 19.88 633.745 18.944 635.329 18.944C635.977 18.944 636.769 19.088 637.453 19.376L638.425 15.452C637.525 15.128 636.157 14.768 634.609 14.768C629.533 14.768 627.589 18.008 627.589 22.22V23.876L624.889 24.092V28.016H627.589V44ZM640.081 44H645.337V23.84H640.081V44ZM642.709 20.6C644.545 20.6 645.805 19.448 645.805 17.684C645.805 15.956 644.545 14.804 642.709 14.804C640.873 14.804 639.649 15.956 639.649 17.684C639.649 19.448 640.873 20.6 642.709 20.6ZM652.817 44H658.109V30.14C659.585 28.664 660.629 27.872 662.285 27.872C664.265 27.872 665.129 28.952 665.129 32.084V44H670.421V31.436C670.421 26.36 668.549 23.336 664.193 23.336C661.457 23.336 659.405 24.776 657.641 26.504H657.533L657.137 23.84H652.817V44ZM686.463 44.504C688.947 44.504 691.503 43.64 693.483 42.272L691.683 39.032C690.243 39.932 688.803 40.436 687.147 40.436C684.159 40.436 681.999 38.708 681.567 35.396H693.987C694.131 34.928 694.239 33.956 694.239 32.948C694.239 27.404 691.359 23.336 685.815 23.336C681.027 23.336 676.419 27.404 676.419 33.92C676.419 40.58 680.811 44.504 686.463 44.504ZM681.495 31.868C681.891 28.952 683.763 27.44 685.887 27.44C688.479 27.44 689.703 29.168 689.703 31.868H681.495Z" fill="black"/>
<path d="M26.64 37.52C25.992 38.456 25.236 39.284 24.372 40.04C22.752 39.14 21.096 38.312 19.584 37.52H26.64ZM29.196 34.568L28.548 34.676H16.848V37.52H17.712L16.272 39.248C17.82 40.076 19.512 41.048 21.276 42.02C19.404 42.956 17.208 43.64 14.868 44.036C15.552 44.828 16.308 46.196 16.668 47.132C19.656 46.448 22.428 45.44 24.696 44.036C26.64 45.188 28.368 46.304 29.592 47.168L31.752 44.324C30.672 43.604 29.196 42.704 27.576 41.804C29.304 40.112 30.636 38.024 31.536 35.396L29.196 34.568ZM31.068 17.288C30.096 18.44 28.44 19.952 27.072 21.032C26.424 20.528 25.776 19.988 25.164 19.412C26.532 18.44 28.08 17.144 29.556 15.92L26.496 13.724C25.632 14.732 24.3 16.028 23.112 17.036C22.284 16.028 21.6 14.876 21.06 13.652L17.64 14.66C19.368 18.512 21.78 21.716 24.912 24.2H18.036V26.756C18.036 28.376 17.712 30.104 15.48 31.58V24.416H10.764C13.68 22.22 16.092 19.412 17.532 15.884L14.904 14.588L14.184 14.768H4.788V18.116H11.88C11.268 18.944 10.548 19.7 9.792 20.42C8.748 19.628 7.236 18.764 6.012 18.152L3.564 20.42C4.644 21.032 5.94 21.86 6.912 22.58C5.04 23.768 2.988 24.74 0.864 25.352C1.62 26.108 2.664 27.548 3.168 28.484C4.284 28.088 5.364 27.62 6.444 27.08V27.656H11.664V30.176H5.292C4.968 33.02 4.392 36.584 3.888 38.924H11.448C11.196 41.372 10.872 42.524 10.44 42.92C10.116 43.244 9.72 43.28 9.144 43.28C8.352 43.28 6.588 43.244 4.788 43.1C5.436 44.072 5.94 45.548 6.012 46.664C7.92 46.736 9.792 46.736 10.764 46.628C12.024 46.556 12.888 46.268 13.644 45.44C14.58 44.504 15.012 42.2 15.408 37.34C15.444 36.836 15.48 35.828 15.48 35.828H7.992C8.1 35.036 8.208 34.172 8.352 33.344H15.48V32.264C16.2 32.912 17.244 33.956 17.64 34.568C20.628 32.66 21.492 29.96 21.6 27.44H24.912V29.528C24.912 32.444 25.488 33.668 28.512 33.668H30.744C31.5 33.668 32.328 33.632 32.832 33.452C32.688 32.624 32.616 31.4 32.544 30.536C32.076 30.68 31.212 30.716 30.708 30.716H28.944C28.476 30.716 28.404 30.428 28.404 29.564V26.468C29.7 27.152 31.032 27.728 32.508 28.196C33.084 27.152 34.164 25.64 35.064 24.812C33.228 24.308 31.5 23.624 29.916 22.796C31.248 21.86 32.796 20.708 34.164 19.484L31.068 17.288ZM52.128 34.496C50.724 34.892 49.248 35.288 47.844 35.684V29.528H51.588V25.604H47.844V19.34H51.984V15.38H39.384V19.34H43.704V25.604H39.708V29.528H43.704V36.764C41.76 37.268 39.996 37.736 38.52 38.06L39.636 42.092C43.344 41.012 48.168 39.608 52.704 38.276L52.128 34.496ZM57.384 29.312H66.78V31.544H57.384V29.312ZM57.384 23.84H66.78V26.072H57.384V23.84ZM57.384 18.368H66.78V20.6H57.384V18.368ZM67.212 43.28C66.6 43.28 66.528 43.136 66.528 42.092V35.036H70.956V14.876H53.388V35.036H56.016C55.548 39.248 54.396 42.2 47.88 43.82C48.744 44.648 49.824 46.304 50.256 47.348C57.924 45.08 59.58 40.904 60.228 35.036H62.424V42.092C62.424 45.728 63.144 46.952 66.456 46.952H69.156C71.82 46.952 72.756 45.62 73.116 40.688C72.036 40.436 70.38 39.752 69.552 39.104C69.48 42.704 69.3 43.28 68.688 43.28H67.212ZM88.8323 44H96.4283C104.276 44 109.316 39.536 109.316 30.572C109.316 21.572 104.276 17.324 96.1403 17.324H88.8323V44ZM94.1603 39.716V21.608H95.8163C100.784 21.608 103.88 24.056 103.88 30.572C103.88 37.052 100.784 39.716 95.8163 39.716H94.1603ZM115.899 44H121.191V23.84H115.899V44ZM118.563 20.6C120.363 20.6 121.623 19.448 121.623 17.684C121.623 15.956 120.363 14.804 118.563 14.804C116.727 14.804 115.467 15.956 115.467 17.684C115.467 19.448 116.727 20.6 118.563 20.6ZM134.393 44.504C139.649 44.504 142.421 41.66 142.421 38.132C142.421 34.388 139.469 33.056 136.805 32.048C134.681 31.256 132.809 30.716 132.809 29.24C132.809 28.088 133.673 27.296 135.509 27.296C136.985 27.296 138.389 27.98 139.829 29.024L142.205 25.82C140.549 24.56 138.281 23.336 135.365 23.336C130.757 23.336 127.841 25.892 127.841 29.492C127.841 32.876 130.685 34.424 133.241 35.396C135.365 36.224 137.453 36.908 137.453 38.42C137.453 39.68 136.553 40.544 134.537 40.544C132.665 40.544 130.937 39.752 129.137 38.348L126.725 41.66C128.741 43.316 131.693 44.504 134.393 44.504ZM156.825 44.504C159.057 44.504 161.505 43.748 163.449 42.056L161.325 38.564C160.209 39.5 158.841 40.184 157.401 40.184C154.521 40.184 152.397 37.736 152.397 33.92C152.397 30.14 154.485 27.656 157.581 27.656C158.697 27.656 159.633 28.124 160.641 28.988L163.161 25.568C161.685 24.308 159.777 23.336 157.293 23.336C151.821 23.336 146.997 27.224 146.997 33.92C146.997 40.616 151.245 44.504 156.825 44.504ZM176.376 44.504C181.416 44.504 186.06 40.616 186.06 33.92C186.06 27.224 181.416 23.336 176.376 23.336C171.336 23.336 166.692 27.224 166.692 33.92C166.692 40.616 171.336 44.504 176.376 44.504ZM176.376 40.184C173.64 40.184 172.092 37.736 172.092 33.92C172.092 30.14 173.64 27.656 176.376 27.656C179.112 27.656 180.66 30.14 180.66 33.92C180.66 37.736 179.112 40.184 176.376 40.184ZM196.542 44H202.662L209.394 23.84H204.318L201.366 33.884C200.826 35.864 200.286 37.952 199.746 40.004H199.566C199.026 37.952 198.486 35.864 197.946 33.884L194.994 23.84H189.666L196.542 44ZM223.051 44.504C225.535 44.504 228.091 43.64 230.071 42.272L228.271 39.032C226.831 39.932 225.391 40.436 223.735 40.436C220.747 40.436 218.587 38.708 218.155 35.396H230.575C230.719 34.928 230.827 33.956 230.827 32.948C230.827 27.404 227.947 23.336 222.403 23.336C217.615 23.336 213.007 27.404 213.007 33.92C213.007 40.58 217.399 44.504 223.051 44.504ZM218.083 31.868C218.479 28.952 220.351 27.44 222.475 27.44C225.067 27.44 226.291 29.168 226.291 31.868H218.083ZM236.985 44H242.277V31.976C243.393 29.06 245.301 28.016 246.885 28.016C247.713 28.016 248.289 28.124 249.009 28.34L249.909 23.768C249.297 23.516 248.649 23.336 247.533 23.336C245.445 23.336 243.285 24.776 241.809 27.404H241.701L241.305 23.84H236.985V44Z" fill="black"/>
<rect x="93" y="88" width="1940" height="57" rx="28.5" fill="#F0EFEC"/>
<circle cx="121.5" cy="116.5" r="28.5" fill="#8D887C"/>
<circle cx="588.5" cy="116.5" r="28.5" fill="#8D887C"/>
<circle cx="1055.5" cy="116.5" r="28.5" fill="#8D887C"/>
<circle cx="1522.5" cy="116.5" r="28.5" fill="#8D887C"/>
</g>
<defs>
<clipPath id="clip0_133_715">
<rect width="1976" height="456" fill="white"/>
</clipPath>
</defs>
</svg>
