<svg width="1605" height="644" viewBox="0 0 1605 644" fill="none" xmlns="http://www.w3.org/2000/svg">
<circle cx="353.814" cy="25" r="25" fill="#8D887C"/>
<path d="M230.678 84.128V86.272H226.07V84.128H230.678ZM231.318 91.936C232.15 91.936 233.046 91.904 233.526 91.776C233.43 91.328 233.366 90.592 233.334 90.08C232.79 90.176 231.798 90.208 231.254 90.208H226.902C226.198 90.208 226.07 89.92 226.07 89.024V87.904H232.758V82.528H224.086V88.992C224.086 91.136 224.63 91.936 226.838 91.936H231.318ZM220.406 84.096V86.24H215.894V84.096H220.406ZM215.894 90.304V87.872H222.454V82.496H213.974V89.024C213.974 90.24 213.494 90.624 213.142 90.816C213.398 91.296 213.846 92.192 213.974 92.736C214.518 92.416 215.446 92.224 222.55 90.944C222.55 90.528 222.646 89.792 222.742 89.248L215.894 90.304ZM220.79 96.64H225.782V99.584H220.79V96.64ZM233.654 99.584H227.99V96.64H232.63V94.784H227.99V92.48H225.782V94.784H220.79V92.48H218.582V94.784H214.166V96.64H218.582V99.584H212.854V101.44H233.654V99.584ZM233.142 105.472C231.606 104.288 228.918 102.816 226.55 101.696L224.95 102.784C227.286 103.904 229.686 105.376 231.03 106.56L233.142 105.472ZM219.638 101.728C218.134 103.04 215.734 104.32 213.462 105.216C214.006 105.504 214.87 106.24 215.286 106.688C217.462 105.664 220.054 104.032 221.75 102.464L219.638 101.728ZM211.51 86.304C210.614 85.024 208.886 83.008 207.414 81.44L205.654 82.528C207.062 84.096 208.822 86.272 209.686 87.616L211.51 86.304ZM211.478 96.416L211.062 96.48H207.958C209.43 94.304 211.414 90.88 212.502 89.056L210.934 88.416L210.55 88.576H205.046V90.56H209.302C208.214 92.544 206.678 95.136 206.102 95.808C205.59 96.416 205.142 96.608 204.694 96.736C204.95 97.216 205.398 98.304 205.526 98.88C205.782 98.656 206.646 98.432 207.35 98.432H210.23C209.27 103.36 207.254 106.912 204.47 108.896C204.95 109.216 205.718 110.016 206.038 110.528C207.542 109.376 208.854 107.776 209.974 105.728C212.47 109.344 216.534 109.984 223.03 109.984C226.55 109.984 230.582 109.888 233.59 109.728C233.718 109.056 233.974 107.968 234.358 107.424C231.062 107.712 226.422 107.872 223.03 107.872C216.982 107.872 212.95 107.36 210.838 103.808C211.606 101.824 212.246 99.488 212.63 96.864L211.478 96.416ZM262.998 97.12V106.24H254.23V95.104H264.31V84.128H261.75V92.768H254.23V81.248H251.67V92.768H244.342V84.16H241.878V95.104H251.67V106.24H243.03V97.12H240.47V108.576H262.998V110.4H265.558V97.12H262.998Z" fill="black"/>
<path d="M279.606 84.8C278.518 83.808 276.374 82.272 274.902 81.28L272.502 83.744C274.006 84.896 276.118 86.56 277.078 87.648L279.606 84.8ZM278.838 93.312C277.75 92.352 275.542 90.848 273.974 89.92L271.638 92.48C273.206 93.536 275.382 95.136 276.406 96.16L278.838 93.312ZM275.734 110.4C277.014 107.296 278.39 103.552 279.51 100.16L276.438 98.208C275.158 101.92 273.462 105.952 272.278 108.448L275.734 110.4ZM295.446 100.416V102.144H284.918V100.416H295.446ZM284.918 106.56V104.704H295.446V106.56H284.918ZM281.366 110.752H284.918V109.408H295.446V110.656H299.158V97.536H281.366V110.752ZM282.806 87.872C282.966 86.816 283.094 85.696 283.19 84.672H284.534V85.664C284.534 86.336 284.502 87.072 284.406 87.872H282.806ZM293.398 87.936C293.526 86.848 293.686 85.728 293.782 84.672H295.126V86.048C295.126 86.624 295.126 87.264 295.03 87.936H293.398ZM298.454 94.208C298.166 94.208 298.166 94.176 298.166 93.6V91.68H296.886C296.982 91.392 297.078 91.136 297.206 90.848H300.982V87.936H297.91C298.006 87.264 298.038 86.656 298.038 86.08V84.672H300.662V82.048H290.326V84.672H291.318C291.19 86.752 290.966 89.216 290.678 90.848H294.262C293.654 92.128 292.662 93.408 291.062 94.56C290.774 93.984 290.454 93.184 290.262 92.544L288.598 93.248V90.784H290.166V87.872H287.318C287.446 87.104 287.478 86.368 287.478 85.696V84.672H289.654V82.048H279.798V84.672H280.598C280.47 86.752 280.246 89.184 279.99 90.784H283.446C282.646 92.32 281.27 93.824 278.87 95.168C279.51 95.648 280.438 96.544 280.854 97.184C283.606 95.424 285.238 93.408 286.198 91.392V92.512C286.198 94.112 285.494 95.104 284.982 95.488C285.43 95.904 286.102 96.832 286.358 97.344C286.71 96.992 287.35 96.576 289.846 95.392C290.486 95.904 291.318 96.768 291.766 97.376C293.462 96.288 294.71 95.072 295.638 93.76C295.67 95.904 296.086 96.576 298.038 96.576H299.382C300.822 96.576 301.494 95.872 301.75 92.992C301.046 92.8 299.99 92.448 299.51 92.064C299.446 94.048 299.35 94.208 298.998 94.208H298.454ZM326.774 99.168H333.11V95.648H326.774V90.336H322.934V95.648H316.438V99.168H322.934V106.464H315.19V109.984H334.358V106.464H326.774V99.168ZM318.87 85.312C319.318 84.16 319.734 83.008 320.086 81.824L316.086 80.864C315.702 82.336 315.222 83.808 314.678 85.312H306.038V88.96H312.982C311.062 92.64 308.374 96 305.014 98.176C305.622 99.104 306.486 100.832 306.902 101.856C307.926 101.152 308.822 100.448 309.718 99.616V110.752H313.59V95.264C315.062 93.312 316.278 91.168 317.334 88.96H334.454V85.312H318.87ZM347.222 90.144H360.662V92.16H347.222V90.144ZM347.222 85.312H360.662V87.296H347.222V85.312ZM349.398 97.152C349.878 96.512 350.326 95.872 350.742 95.2H364.534V82.24H343.478V95.2H346.294C344.342 97.824 341.526 100.128 338.614 101.664C339.414 102.24 340.854 103.648 341.494 104.352C343.158 103.328 344.886 101.984 346.454 100.48H349.238C347.222 103.328 344.31 105.792 341.174 107.36C341.974 107.968 343.382 109.312 343.99 110.08C347.574 107.872 351.158 104.448 353.526 100.48H356.278C354.838 103.84 352.566 106.752 349.878 108.672C350.742 109.184 352.246 110.368 352.886 111.008C355.83 108.576 358.55 104.768 360.214 100.48H362.966C362.518 104.8 361.878 106.752 361.27 107.328C360.95 107.648 360.662 107.712 360.086 107.712C359.51 107.712 358.262 107.712 356.918 107.584C357.494 108.48 357.878 109.856 357.91 110.816C359.51 110.848 361.014 110.848 361.91 110.752C362.902 110.656 363.734 110.368 364.502 109.536C365.558 108.48 366.294 105.568 366.966 98.656C367.03 98.176 367.094 97.152 367.094 97.152H349.398ZM389.654 97.856V93.92H396.406V97.856H389.654ZM379.702 97.856C379.766 96.672 379.798 95.52 379.798 94.496V93.92H385.814V97.856H379.702ZM385.814 86.656V90.368H379.798V86.656H385.814ZM396.406 90.368H389.654V86.656H396.406V90.368ZM400.182 83.04H376.022V94.464C376.022 98.944 375.734 104.64 372.246 108.48C373.11 108.928 374.646 110.24 375.254 110.944C377.558 108.448 378.71 104.928 379.286 101.44H385.814V110.368H389.654V101.44H396.406V106.24C396.406 106.816 396.182 107.008 395.574 107.008C394.998 107.008 392.886 107.04 391.094 106.944C391.574 107.936 392.182 109.568 392.31 110.592C395.19 110.624 397.142 110.56 398.454 109.92C399.734 109.344 400.182 108.32 400.182 106.272V83.04ZM428.246 106.144V99.744H434.102V96.192H428.246V90.944H434.774V87.36H428.246V81.088H424.438V87.36H421.878C422.198 85.92 422.454 84.416 422.678 82.912L418.966 82.4C418.646 85.12 418.07 87.872 417.27 90.208C416.822 88.96 416.15 87.424 415.51 86.176L413.654 86.944V80.896H409.846V87.424L407.158 87.04C406.934 89.664 406.358 93.248 405.59 95.36L408.406 96.384C409.142 94.112 409.654 90.592 409.846 87.904V110.784H413.654V88.928C414.198 90.24 414.678 91.648 414.87 92.608L416.694 91.776C416.374 92.448 416.054 93.056 415.734 93.632C416.63 94.016 418.358 94.88 419.126 95.36C419.798 94.144 420.438 92.608 420.918 90.944H424.438V96.192H418.262V99.744H424.438V106.144H415.894V109.76H435.798V106.144H428.246ZM449.91 85.024V86.752H445.014V85.024H449.91ZM445.014 91.136V89.312H449.91V91.136H445.014ZM453.462 94.016V82.112H441.238V110.784H445.014V94.016H453.462ZM457.142 99.36V103.136H451.862V99.36H457.142ZM460.694 106.272V96.224H448.31V108.064H451.862V106.272H460.694ZM459.286 91.168V89.312H464.342V91.168H459.286ZM464.342 84.992V86.752H459.286V84.992H464.342ZM468.182 82.112H455.67V94.048H464.342V106.176C464.342 106.752 464.118 106.944 463.51 106.944C462.902 106.976 460.726 107.008 458.87 106.88C459.414 107.904 460.022 109.696 460.15 110.784C463.094 110.784 465.11 110.688 466.422 110.048C467.766 109.44 468.182 108.352 468.182 106.24V82.112ZM498.07 90.656H492.246V89.184H498.07V90.656ZM498.07 94.592H492.246V93.12H498.07V94.592ZM498.07 98.56H492.246V97.024H498.07V98.56ZM488.886 86.624V101.152H501.622V86.624H496.182L496.95 84.896H502.55V82.24H487.894V84.896H493.526C493.334 85.472 493.174 86.08 492.982 86.624H488.886ZM495.958 102.56C497.558 103.68 499.542 105.568 500.534 106.816L503.254 105.216C502.262 104 500.278 102.304 498.582 101.184L495.958 102.56ZM491.478 101.376C490.358 102.72 488.438 103.968 486.55 104.832C487.222 105.344 488.438 106.432 488.982 107.04C490.966 105.984 493.206 104.16 494.582 102.368L491.478 101.376ZM483.094 86.176H478.518V84.672H483.094V86.176ZM483.094 90.144H478.518V88.576H483.094V90.144ZM486.614 82.144H475.126V92.704H486.614V82.144ZM482.806 102.656H487.414V99.904H482.806V97.28H488.022V94.528H473.686V97.28H479.606V104.576C478.966 103.904 478.422 103.072 477.974 102.048C478.07 100.896 478.134 99.744 478.166 98.56H475.126C475.03 102.4 474.71 106.176 472.918 108.384C473.686 108.96 474.646 110.176 475.126 110.976C476.214 109.664 476.918 107.968 477.366 106.048C479.926 109.536 483.894 110.144 489.91 110.144H502.23C502.422 109.216 502.934 107.744 503.446 107.008C500.822 107.136 492.086 107.136 489.91 107.136C487.062 107.136 484.726 107.008 482.806 106.432V102.656Z" fill="#932F2F"/>
<circle cx="849.814" cy="292" r="25" fill="#8D887C"/>
<path d="M792.37 352.28L791.186 353.208C792.21 354.136 793.458 355.416 794.034 356.216L795.602 354.872C794.994 354.168 793.906 353.08 792.978 352.28H799.122V350.36H790.898C791.218 349.784 791.538 349.208 791.794 348.6L789.682 347.992C788.594 350.488 786.738 352.888 784.754 354.456C785.234 354.84 786.034 355.64 786.386 356.024C787.538 355.032 788.69 353.72 789.682 352.28H792.37ZM795.602 357.88V359.64H788.818V357.88H795.602ZM788.818 362.936V361.144H795.602V362.936H788.818ZM797.778 364.504V356.312H786.61V377.432H788.818V364.504H797.778ZM803.122 367.64V369.72H795.634V367.64H803.122ZM795.634 373.304V371.192H803.122V373.304H795.634ZM805.234 374.808V366.136H793.458V375.96H795.634V374.808H805.234ZM809.778 359.64H802.642V357.88H809.778V359.64ZM802.642 362.936V361.144H809.778V362.936H802.642ZM813.778 350.392H804.178C804.466 349.784 804.722 349.176 804.914 348.536L802.738 347.992C801.874 350.52 800.306 352.952 798.45 354.488C798.994 354.808 799.89 355.544 800.274 355.896C801.33 354.936 802.322 353.688 803.186 352.28H806.418L805.042 353.4C806.162 354.296 807.442 355.48 808.082 356.312H800.466V364.504H809.778V374.712C809.778 375.16 809.618 375.32 809.106 375.352C808.626 375.352 806.962 375.384 805.138 375.288C805.458 375.928 805.81 376.824 805.874 377.432C808.274 377.464 809.842 377.432 810.802 377.048C811.698 376.696 811.986 376.056 811.986 374.712V356.312H808.146L809.682 354.904C809.074 354.168 807.762 353.08 806.738 352.28H813.778V350.392ZM847.154 349.624H831.154V351.832H847.154V349.624ZM843.602 363.16H834.386V357.368H843.602V363.16ZM845.906 355.256H832.178V365.272H845.906V355.256ZM837.362 373.144C837.01 371.352 836.05 368.632 835.058 366.584L833.074 367.096C834.002 369.176 834.962 371.96 835.25 373.72L837.362 373.144ZM830.322 371.704C829.65 370.744 826.802 366.904 825.65 365.496C825.81 364.664 825.906 363.832 825.97 363.032H830.482V360.888H826.098C826.13 360.44 826.13 360.056 826.13 359.64V354.68H830.066V352.536H822.738C823.026 351.288 823.25 349.976 823.442 348.632L821.266 348.248C820.754 352.056 819.826 355.864 818.322 358.392C818.834 358.648 819.794 359.288 820.146 359.64C820.946 358.296 821.586 356.568 822.162 354.68H823.922V359.608C823.922 360.024 823.922 360.44 823.89 360.888H818.418V363.032H823.794C823.41 367.16 822.162 371.8 818.258 375.32C818.674 375.608 819.538 376.472 819.858 376.92C822.642 374.424 824.242 371.256 825.106 368.056C826.386 369.848 828.05 372.344 828.754 373.624L830.322 371.704ZM842.066 374.264C843.09 372.12 844.178 369.272 845.074 366.904L842.674 366.36C842.066 368.728 840.85 372.024 839.794 374.264H829.874V376.504H847.506V374.264H842.066ZM859.378 352.216C858.898 351.096 857.97 349.432 857.106 348.12L855.41 349.048C856.21 350.36 857.17 352.152 857.618 353.304L859.378 352.216ZM863.474 353.656H852.146V355.608H863.474V353.656ZM853.394 363.896H862.226V362.008H853.394V363.896ZM853.394 357.848V359.736H862.194V357.848H853.394ZM860.242 368.248V373.528H855.25V368.248H860.242ZM862.226 375.512V366.264H853.33V377.016H855.25V375.512H862.226ZM880.818 356.024V353.752H873.138L874.162 353.432C873.906 352.152 873.202 350.072 872.498 348.472L870.482 349.016C871.09 350.52 871.698 352.44 871.922 353.752H864.306V356.024H868.626C868.434 363.96 867.858 371.768 862.034 375.864C862.578 376.216 863.25 376.984 863.602 377.528C868.05 374.232 869.778 368.984 870.418 363.096H877.074C876.754 370.904 876.306 373.944 875.666 374.648C875.378 375 875.09 375.064 874.546 375.032C873.938 375.032 872.402 375.032 870.77 374.872C871.154 375.512 871.41 376.44 871.474 377.144C873.042 377.24 874.642 377.272 875.474 377.176C876.402 377.08 877.01 376.856 877.586 376.12C878.546 374.968 878.962 371.544 879.378 361.976C879.378 361.656 879.41 360.856 879.41 360.856H870.642C870.77 359.256 870.834 357.656 870.898 356.024H880.818ZM911.474 350.296C910.738 351.832 909.426 354.104 908.402 355.48L910.13 356.248C911.186 354.968 912.53 352.952 913.65 351.192L911.474 350.296ZM913.97 360.952C912.21 359.288 908.882 357.016 906.002 355.32C906.418 353.4 906.578 351.096 906.642 348.248H904.434C904.274 356.184 903.57 359.224 896.69 360.952C897.17 361.4 897.778 362.264 898.002 362.872C902.066 361.688 904.178 360.056 905.362 357.336C908.05 359.064 911.026 361.272 912.594 362.808L913.97 360.952ZM910.002 370.232C911.09 368.888 912.498 366.712 913.65 364.824L911.474 363.96C910.738 365.624 909.362 368.056 908.306 369.528L910.002 370.232ZM902.322 369.72C901.586 368.28 899.986 365.784 898.706 363.896L897.01 364.92C898.258 366.84 899.794 369.4 900.594 370.936L902.322 369.72ZM902.642 355.8C901.938 354.424 900.37 352.056 899.122 350.264L897.426 351.288C898.674 353.112 900.178 355.608 900.914 357.048L902.642 355.8ZM893.01 352.344C892.594 351.256 891.698 349.528 890.898 348.216L888.946 348.952C889.746 350.264 890.578 352.056 890.962 353.176L893.01 352.344ZM897.106 353.656H885.522V355.608H897.106V353.656ZM895.858 359.736V357.848H886.77V359.736H895.858ZM895.858 362.008H886.77V363.896H895.858V362.008ZM893.874 368.248V373.528H888.978V368.248H893.874ZM895.986 375.512V366.264H886.866V377.016H888.978V375.512H895.986ZM906.386 361.432H904.146V364.824C904.146 367.864 903.538 372.536 895.858 375.8C896.434 376.216 897.106 376.984 897.426 377.432C902.322 375.224 904.594 372.472 905.586 369.816C907.154 373.432 909.554 376.024 913.266 377.336C913.586 376.728 914.226 375.832 914.738 375.384C910.162 374.008 907.538 370.584 906.354 365.816C906.386 365.464 906.386 365.144 906.386 364.824V361.432Z" fill="black"/>
<circle cx="853.314" cy="25" r="25" fill="#8D887C"/>
<path d="M728.994 92.192C731.714 91.584 734.754 90.848 737.634 89.92C740.226 90.72 742.562 91.488 744.418 92.192H728.994ZM743.106 86.112C741.666 86.88 739.81 87.584 737.762 88.256C735.042 87.456 732.226 86.72 729.73 86.112H743.106ZM749.826 94.176V92.192H745.186L746.466 91.008C744.866 90.432 742.69 89.728 740.354 89.024C742.178 88.384 743.842 87.648 745.25 86.88L743.97 86.112H748.866V84.16H738.114C737.506 83.168 736.514 81.888 735.682 80.928L733.986 81.792C734.562 82.496 735.17 83.36 735.714 84.16H723.906V86.112H729.026L727.618 87.264C729.89 87.776 732.386 88.416 734.818 89.12C732.066 89.888 729.154 90.528 726.626 91.008C726.946 91.296 727.458 91.776 727.778 92.192H723.746V98.912C723.746 102.112 723.426 106.24 720.834 109.216C721.346 109.504 722.274 110.304 722.626 110.752C725.506 107.456 726.05 102.56 726.05 98.944V94.176H749.826ZM739.426 107.392V104.192H747.33V102.272H739.426V99.424H748.034V97.472H739.426V94.752H737.09V97.472H731.49C731.81 96.736 732.098 96.032 732.386 95.296L730.338 94.72C729.41 97.28 727.874 99.744 726.114 101.408C726.53 101.824 727.138 102.944 727.362 103.36C728.45 102.336 729.506 100.96 730.402 99.424H737.09V102.272H729.634V104.192H737.09V107.392H726.626V109.408H750.338V107.392H739.426ZM779.298 97.12V106.24H770.53V95.104H780.61V84.128H778.05V92.768H770.53V81.248H767.97V92.768H760.642V84.16H758.178V95.104H767.97V106.24H759.33V97.12H756.77V108.576H779.298V110.4H781.858V97.12H779.298ZM799.01 90.656H804.066V94.592H799.01V90.656ZM799.01 96.576H804.066V100.576H799.01V96.576ZM799.01 84.768H804.066V88.672H799.01V84.768ZM796.962 82.656V102.656H806.21V82.656H796.962ZM802.594 104.224C803.874 105.792 805.442 107.968 806.146 109.312L808.034 108.128C807.298 106.848 805.698 104.736 804.386 103.232L802.594 104.224ZM798.274 103.328C797.346 105.504 795.714 107.744 794.018 109.216C794.53 109.536 795.49 110.176 795.874 110.528C797.57 108.928 799.394 106.368 800.482 103.904L798.274 103.328ZM814.178 81.248V107.488C814.178 108.032 813.954 108.192 813.41 108.192C812.93 108.224 811.234 108.256 809.346 108.192C809.666 108.8 809.954 109.824 810.05 110.432C812.674 110.432 814.178 110.368 815.074 109.984C815.97 109.6 816.322 108.928 816.322 107.456V81.248H814.178ZM808.61 84.512V102.688H810.722V84.512H808.61ZM789.602 83.264C791.394 84.16 793.602 85.632 794.626 86.688L796.034 84.8C794.946 83.744 792.77 82.4 790.978 81.568L789.602 83.264ZM788.226 91.808C790.114 92.64 792.386 93.984 793.474 94.976L794.818 93.024C793.698 92.032 791.426 90.816 789.57 90.08L788.226 91.808ZM788.898 108.768L791.042 110.048C792.418 107.104 794.018 103.2 795.202 99.872L793.282 98.624C792.002 102.208 790.178 106.304 788.898 108.768ZM850.274 85.856C849.73 84.768 848.514 83.104 847.394 81.92L845.73 82.848C846.85 84.128 848.034 85.888 848.546 86.976L850.274 85.856ZM829.378 85.184C828.93 84.064 827.874 82.4 826.946 81.088L825.122 82.016C825.986 83.36 827.01 85.12 827.49 86.304L829.378 85.184ZM829.954 101.248V106.528H825.506V101.248H829.954ZM832.034 99.264H823.458V110.016H825.506V108.512H832.034V99.264ZM823.49 96.896H832.002V95.008H823.49V96.896ZM832.002 90.848H823.49V92.736H832.002V90.848ZM822.146 88.608H832.578V86.656H822.146V88.608ZM838.626 96.384H842.05V94.24H833.09V96.384H836.45V104.832C835.01 105.184 833.698 105.504 832.578 105.76L833.25 108.064C836.098 107.232 839.81 106.208 843.33 105.12L843.106 103.104C841.602 103.488 840.066 103.904 838.626 104.288V96.384ZM851.202 89.728V87.488H844.994C844.93 85.504 844.898 83.456 844.93 81.312H842.594C842.626 83.424 842.658 85.472 842.722 87.488H833.378V89.728H842.818C843.33 101.344 844.802 110.496 848.386 110.496C850.37 110.496 851.01 108.992 851.362 104.224C850.818 104 850.082 103.456 849.57 102.944C849.474 106.528 849.186 108.16 848.706 108.16C847.01 108.16 845.506 100.416 845.058 89.728H851.202ZM863.586 81.44C861.634 86.464 858.338 91.328 854.882 94.4C855.362 94.976 856.098 96.192 856.354 96.768C857.698 95.52 858.946 94.048 860.162 92.416V110.4H862.498V88.896C863.81 86.752 864.962 84.448 865.922 82.144L863.586 81.44ZM884.802 97.248V94.944H875.874V86.528H883.49V84.256H866.466V86.528H873.506V94.944H864.354V97.248H873.506V106.944H865.346V109.248H884.098V106.944H875.874V97.248H884.802ZM912.93 86.592C912.194 88.224 911.138 89.568 909.826 90.72C908.322 89.536 907.074 88.128 906.21 86.592H912.93ZM900.13 100.48C900.834 99.168 901.474 97.344 902.018 95.488C902.37 95.936 902.722 96.416 902.882 96.736C905.474 95.936 907.842 94.88 909.858 93.472C911.97 94.976 914.434 96.128 917.122 96.864C917.442 96.224 918.146 95.328 918.626 94.816C916.066 94.272 913.698 93.312 911.682 92.032C913.314 90.56 914.626 88.768 915.522 86.592H917.986V84.576H907.362C907.906 83.68 908.418 82.752 908.834 81.824L906.562 81.216C905.282 84.256 902.978 87.168 900.482 89.024C901.058 89.344 901.986 90.016 902.434 90.4C903.202 89.76 903.97 88.96 904.738 88.128C905.634 89.568 906.754 90.88 908.034 92.032C906.402 93.088 904.45 93.888 902.306 94.496C902.466 93.92 902.626 93.344 902.786 92.8L901.346 92.288L900.994 92.416H898.626L899.842 91.04C899.17 90.432 898.21 89.76 897.154 89.12C899.074 87.648 901.122 85.6 902.37 83.68L900.834 82.72L900.418 82.816H889.666V84.896H898.722C897.762 86.016 896.546 87.168 895.362 88.064C894.338 87.52 893.25 87.008 892.258 86.592L890.786 88.128C893.282 89.216 896.226 91.008 897.89 92.416H889.314V94.496H894.146C892.962 97.76 890.978 101.184 888.994 103.072C889.41 103.68 889.986 104.608 890.242 105.28C892.002 103.488 893.666 100.48 894.914 97.408V107.68C894.914 108.032 894.786 108.128 894.402 108.16C893.986 108.16 892.738 108.16 891.362 108.128C891.682 108.736 892.002 109.728 892.098 110.304C894.018 110.304 895.266 110.272 896.098 109.952C896.898 109.536 897.154 108.896 897.154 107.68V94.496H900.226C899.746 96.352 899.106 98.336 898.498 99.648L900.13 100.48ZM909.794 99.072C909.986 98.048 910.146 96.992 910.242 95.904H907.842C907.746 96.992 907.618 98.048 907.426 99.072H901.922V101.056H906.914C905.922 104.32 903.906 107.008 899.49 108.608C899.97 109.024 900.61 109.888 900.898 110.432C906.018 108.448 908.258 105.12 909.378 101.056H914.754C914.274 105.44 913.794 107.232 913.186 107.84C912.866 108.128 912.61 108.16 912.098 108.16C911.586 108.16 910.306 108.128 908.93 108C909.282 108.608 909.506 109.568 909.57 110.208C911.01 110.304 912.354 110.272 913.122 110.24C913.954 110.144 914.562 109.984 915.106 109.408C916.034 108.48 916.642 106.048 917.218 100.096C917.25 99.712 917.282 99.072 917.282 99.072H909.794ZM948.002 91.2H940.386V88.8H948.002V91.2ZM948.002 95.232H940.386V92.864H948.002V95.232ZM948.002 99.328H940.386V96.928H948.002V99.328ZM938.242 87.04V101.088H950.21V87.04H944.29C944.578 86.304 944.898 85.44 945.186 84.608H951.49V82.784H937.026V84.608H942.978C942.786 85.408 942.53 86.272 942.274 87.04H938.242ZM945.314 102.528C947.074 103.712 949.154 105.536 950.21 106.816L951.938 105.696C950.882 104.48 948.802 102.72 946.946 101.6L945.314 102.528ZM940.898 101.632C939.682 103.104 937.634 104.544 935.618 105.472C936.098 105.792 936.866 106.592 937.218 106.976C939.234 105.824 941.506 104.032 942.882 102.272L940.898 101.632ZM933.154 86.688H926.914V84.32H933.154V86.688ZM933.154 90.784H926.914V88.352H933.154V90.784ZM935.33 82.56H924.77V92.544H935.33V82.56ZM931.266 101.984H936.674V100.16H931.266V96.736H937.218V94.88H922.882V96.736H929.218V105.248C928.258 104.48 927.458 103.456 926.85 102.144C926.978 100.96 927.042 99.712 927.106 98.496H925.122C924.962 102.4 924.418 106.688 922.498 108.992C923.01 109.344 923.714 110.08 924.002 110.528C925.218 109.056 925.986 107.008 926.434 104.704C929.314 108.992 934.082 109.76 940.994 109.76H951.266C951.394 109.12 951.778 108.224 952.13 107.712C950.274 107.776 942.402 107.776 940.994 107.776C937.058 107.744 933.794 107.552 931.266 106.464V101.984ZM962.402 105.76V100.512H979.138V105.76H962.402ZM979.138 92.992V98.24H962.402V92.992H979.138ZM979.138 85.536V90.72H962.402V85.536H979.138ZM960.066 83.232V110.272H962.402V108.096H979.138V110.272H981.602V83.232H960.066Z" fill="black"/>
<circle cx="1320.31" cy="25" r="25" fill="#8D887C"/>
<path d="M1223.93 91.744H1218.33V88.48H1223.93V91.744ZM1223.93 96.928H1218.33V93.632H1223.93V96.928ZM1223.93 102.24H1218.33V98.816H1223.93V102.24ZM1216.15 104.288H1233.63V102.24H1226.04V98.816H1232.06V96.928H1226.04V93.632H1232.03V91.744H1226.04V88.48H1232.92V86.496H1227.42C1226.94 85.184 1225.95 83.2 1224.99 81.696L1223.03 82.304C1223.77 83.584 1224.6 85.216 1225.08 86.496H1218.84C1219.51 85.024 1220.19 83.52 1220.7 82.016L1218.71 81.44C1217.24 85.632 1214.94 89.792 1212.35 92.544C1212.79 92.96 1213.47 93.952 1213.72 94.368C1214.55 93.44 1215.35 92.384 1216.15 91.168V104.288ZM1212.15 86.144C1211.26 84.864 1209.5 82.816 1208.06 81.28L1206.3 82.368C1207.71 83.936 1209.47 86.112 1210.33 87.456L1212.15 86.144ZM1212.22 96.416L1211.8 96.48H1208.15C1209.98 94.336 1212.38 91.04 1213.75 89.184L1212.19 88.448L1211.77 88.608H1205.15V90.56H1210.27C1208.89 92.512 1207 95.04 1206.23 95.776C1205.69 96.384 1205.18 96.576 1204.7 96.704C1204.95 97.216 1205.43 98.304 1205.59 98.88C1205.82 98.624 1206.65 98.432 1207.48 98.432H1210.94C1209.91 103.424 1207.58 106.944 1204.54 108.896C1204.99 109.216 1205.79 110.048 1206.11 110.528C1207.74 109.408 1209.15 107.872 1210.36 105.856C1212.86 109.312 1216.83 109.984 1223.23 109.984C1226.71 109.984 1230.68 109.888 1233.66 109.728C1233.79 109.056 1234.11 107.968 1234.46 107.456C1231.19 107.712 1226.55 107.872 1223.23 107.872C1217.4 107.872 1213.43 107.392 1211.29 104.064C1212.25 102.048 1212.95 99.648 1213.4 96.864L1212.22 96.416ZM1266.65 83.168H1251.03V85.408H1266.65V83.168ZM1245.69 81.216C1244.09 83.488 1241.02 86.368 1238.36 88.16C1238.78 88.608 1239.42 89.536 1239.77 90.048C1242.62 88.032 1245.88 84.928 1247.96 82.112L1245.69 81.216ZM1247 88.032C1244.79 91.648 1241.34 95.328 1238.04 97.664C1238.52 98.144 1239.35 99.168 1239.71 99.648C1240.89 98.72 1242.11 97.568 1243.32 96.32V110.528H1245.69V93.696C1247 92.128 1248.22 90.496 1249.21 88.864L1247 88.032ZM1267.58 91.904H1249.66V94.176H1260.35V107.36C1260.35 107.904 1260.15 108.032 1259.55 108.064C1258.94 108.096 1256.83 108.096 1254.55 108.032C1254.91 108.704 1255.23 109.696 1255.32 110.336C1258.46 110.336 1260.25 110.336 1261.34 109.984C1262.39 109.6 1262.75 108.864 1262.75 107.392V94.176H1267.58V91.904Z" fill="black"/>
<path d="M1280.12 90.144H1293.56V92.16H1280.12V90.144ZM1280.12 85.312H1293.56V87.296H1280.12V85.312ZM1282.3 97.152C1282.78 96.512 1283.23 95.872 1283.64 95.2H1297.43V82.24H1276.38V95.2H1279.19C1277.24 97.824 1274.43 100.128 1271.51 101.664C1272.31 102.24 1273.75 103.648 1274.39 104.352C1276.06 103.328 1277.79 101.984 1279.35 100.48H1282.14C1280.12 103.328 1277.21 105.792 1274.07 107.36C1274.87 107.968 1276.28 109.312 1276.89 110.08C1280.47 107.872 1284.06 104.448 1286.43 100.48H1289.18C1287.74 103.84 1285.47 106.752 1282.78 108.672C1283.64 109.184 1285.15 110.368 1285.79 111.008C1288.73 108.576 1291.45 104.768 1293.11 100.48H1295.87C1295.42 104.8 1294.78 106.752 1294.17 107.328C1293.85 107.648 1293.56 107.712 1292.99 107.712C1292.41 107.712 1291.16 107.712 1289.82 107.584C1290.39 108.48 1290.78 109.856 1290.81 110.816C1292.41 110.848 1293.91 110.848 1294.81 110.752C1295.8 110.656 1296.63 110.368 1297.4 109.536C1298.46 108.48 1299.19 105.568 1299.87 98.656C1299.93 98.176 1299.99 97.152 1299.99 97.152H1282.3ZM1322.55 97.856V93.92H1329.31V97.856H1322.55ZM1312.6 97.856C1312.67 96.672 1312.7 95.52 1312.7 94.496V93.92H1318.71V97.856H1312.6ZM1318.71 86.656V90.368H1312.7V86.656H1318.71ZM1329.31 90.368H1322.55V86.656H1329.31V90.368ZM1333.08 83.04H1308.92V94.464C1308.92 98.944 1308.63 104.64 1305.15 108.48C1306.01 108.928 1307.55 110.24 1308.15 110.944C1310.46 108.448 1311.61 104.928 1312.19 101.44H1318.71V110.368H1322.55V101.44H1329.31V106.24C1329.31 106.816 1329.08 107.008 1328.47 107.008C1327.9 107.008 1325.79 107.04 1323.99 106.944C1324.47 107.936 1325.08 109.568 1325.21 110.592C1328.09 110.624 1330.04 110.56 1331.35 109.92C1332.63 109.344 1333.08 108.32 1333.08 106.272V83.04ZM1361.15 106.144V99.744H1367V96.192H1361.15V90.944H1367.67V87.36H1361.15V81.088H1357.34V87.36H1354.78C1355.1 85.92 1355.35 84.416 1355.58 82.912L1351.87 82.4C1351.55 85.12 1350.97 87.872 1350.17 90.208C1349.72 88.96 1349.05 87.424 1348.41 86.176L1346.55 86.944V80.896H1342.75V87.424L1340.06 87.04C1339.83 89.664 1339.26 93.248 1338.49 95.36L1341.31 96.384C1342.04 94.112 1342.55 90.592 1342.75 87.904V110.784H1346.55V88.928C1347.1 90.24 1347.58 91.648 1347.77 92.608L1349.59 91.776C1349.27 92.448 1348.95 93.056 1348.63 93.632C1349.53 94.016 1351.26 94.88 1352.03 95.36C1352.7 94.144 1353.34 92.608 1353.82 90.944H1357.34V96.192H1351.16V99.744H1357.34V106.144H1348.79V109.76H1368.7V106.144H1361.15ZM1395.93 84.128H1392.63V102.624H1395.93V84.128ZM1380.92 84.128C1379.83 83.168 1377.59 81.888 1375.87 81.152L1373.72 83.968C1375.48 84.768 1377.66 86.176 1378.68 87.2L1380.92 84.128ZM1379.71 92.448C1378.62 91.456 1376.35 90.336 1374.59 89.664L1372.51 92.448C1374.27 93.248 1376.44 94.528 1377.5 95.52L1379.71 92.448ZM1377.18 98.208C1375.93 101.952 1374.23 106.016 1373.05 108.48L1376.47 110.432C1377.79 107.296 1379.19 103.616 1380.25 100.192L1377.18 98.208ZM1382.27 103.264C1381.4 105.344 1379.93 107.488 1378.43 108.928C1379.26 109.376 1380.7 110.304 1381.4 110.88C1382.94 109.28 1384.67 106.656 1385.72 104.224L1382.27 103.264ZM1386.75 104.608C1387.93 106.208 1389.37 108.352 1389.98 109.696L1392.99 107.904C1392.31 106.56 1390.81 104.48 1389.63 103.008L1386.75 104.608ZM1387.71 88.128H1384.57V85.44H1387.71V88.128ZM1387.71 93.888H1384.57V91.168H1387.71V93.888ZM1387.71 99.712H1384.57V96.96H1387.71V99.712ZM1391.03 82.144H1381.37V103.008H1391.03V82.144ZM1397.91 80.928V106.496C1397.91 106.976 1397.75 107.136 1397.21 107.168C1396.7 107.168 1395.16 107.168 1393.53 107.104C1394.01 108.16 1394.49 109.76 1394.62 110.752C1397.11 110.752 1398.78 110.624 1399.9 110.016C1401.02 109.472 1401.37 108.448 1401.37 106.496V80.928H1397.91ZM1417.08 86.176H1412.28L1414.39 85.024C1413.91 83.84 1412.92 82.08 1412.06 80.768L1409.15 82.144C1409.82 83.36 1410.68 84.96 1411.16 86.176H1406.39V89.184H1417.08V86.176ZM1416.6 93.504V90.624H1407.77V93.504H1416.6ZM1416.63 94.912H1407.77V97.792H1416.63V94.912ZM1413.5 102.368V105.952H1410.97V102.368H1413.5ZM1416.73 99.328H1407.8V110.368H1410.97V109.024H1416.73V99.328ZM1423.77 97.248H1426.49V93.888H1417.66V97.248H1420.28V104.16C1419.03 104.352 1417.91 104.576 1416.92 104.736L1417.85 108.448C1420.67 107.744 1424.25 106.88 1427.61 105.984L1427.29 102.688C1426.11 102.944 1424.92 103.2 1423.77 103.456V97.248ZM1436.09 90.24V86.72H1433.47L1435.83 85.184C1435.32 84.128 1434.2 82.528 1433.18 81.408L1430.62 82.912C1431.55 84.096 1432.57 85.632 1433.08 86.72H1430.49C1430.49 84.832 1430.49 82.848 1430.55 80.928H1426.81C1426.81 82.848 1426.81 84.8 1426.84 86.72H1417.85V90.24H1426.94C1427.23 101.184 1428.35 110.752 1432.38 110.752C1434.87 110.752 1435.83 109.376 1436.28 104.384C1435.45 103.968 1434.33 103.104 1433.56 102.272C1433.5 105.504 1433.27 107.072 1432.92 107.072C1431.74 107.072 1430.78 99.456 1430.55 90.24H1436.09Z" fill="#932F2F"/>
<circle cx="1322.31" cy="282" r="25" fill="#8D887C"/>
<path d="M1183.29 357.096L1179.96 358.376V348.136H1183.54V345.864H1179.96V338.6H1177.65V345.864H1174.1V348.136H1177.65V359.272C1176.21 359.816 1174.93 360.296 1173.85 360.616L1174.74 362.984C1177.3 361.96 1180.57 360.552 1183.67 359.208L1183.29 357.096ZM1189.78 361.544C1188.28 362.984 1185.27 364.744 1182.9 365.8C1183.38 366.28 1184.09 366.984 1184.37 367.464C1186.77 366.344 1189.81 364.552 1191.83 362.888L1189.78 361.544ZM1195 362.952C1197.17 364.264 1199.89 366.216 1201.24 367.464L1202.81 365.8C1201.43 364.552 1198.61 362.728 1196.47 361.512L1195 362.952ZM1188.37 357.256H1198.2V359.4H1188.37V357.256ZM1198.2 346.952V349H1188.37V346.952H1198.2ZM1198.2 352.328H1188.37V350.44H1198.2V352.328ZM1188.37 353.8H1198.2V355.784H1188.37V353.8ZM1200.37 359.4V345.288H1193.08C1193.27 344.616 1193.46 343.912 1193.65 343.144H1202.42V341.192H1194.1C1194.33 340.264 1194.52 339.304 1194.71 338.44L1192.18 338.28C1192.09 339.144 1191.96 340.168 1191.77 341.192H1184.63V343.144H1191.41C1191.29 343.912 1191.13 344.616 1190.97 345.288H1186.26V359.4H1183.41V361.48H1203.29V359.4H1200.37ZM1213.75 366.632C1215.03 365.096 1216.02 362.696 1216.69 360.808L1214.81 360.04C1214.2 361.864 1213.11 364.264 1211.83 365.704L1213.75 366.632ZM1218.07 360.52C1218.68 362.312 1219.16 364.648 1219.13 366.12L1221.08 365.832C1221.08 364.392 1220.57 362.056 1219.93 360.296L1218.07 360.52ZM1222.07 360.52C1223.03 362.056 1223.86 364.136 1224.15 365.448L1225.97 364.872C1225.69 363.56 1224.79 361.544 1223.8 360.04L1222.07 360.52ZM1217.3 357.096C1217.94 356.456 1218.49 355.752 1218.97 355.048H1231.93V345.544H1223.13V347.304H1229.75V349.416H1223.67V351.112H1229.75V353.288H1214.71V351.112H1220.92V349.416H1214.71V347.272C1217.05 346.792 1219.57 346.184 1221.49 345.448L1220.02 343.944C1218.23 344.68 1215.19 345.48 1212.57 346.024V355.048H1216.34C1214.33 357.544 1211.03 359.592 1207.77 360.872C1208.18 361.32 1208.89 362.28 1209.17 362.76C1211.29 361.8 1213.4 360.552 1215.22 359.048H1232.44C1232.15 363.016 1231.83 364.616 1231.38 365.128C1231.13 365.384 1230.84 365.416 1230.29 365.384C1229.75 365.416 1228.31 365.384 1226.74 365.256C1227.13 365.832 1227.35 366.696 1227.41 367.336C1228.98 367.432 1230.52 367.464 1231.32 367.368C1232.18 367.336 1232.79 367.144 1233.3 366.536C1234.1 365.736 1234.45 363.528 1234.81 358.088C1234.84 357.768 1234.87 357.096 1234.87 357.096H1217.3ZM1230.45 363.208C1229.97 362.184 1228.76 360.712 1227.67 359.72L1226.1 360.456C1227.16 361.512 1228.31 363.016 1228.79 364.072L1230.45 363.208ZM1223.73 340.84C1223.35 339.976 1222.81 338.92 1222.29 338.088L1219.93 338.76C1220.28 339.4 1220.66 340.104 1220.98 340.84H1208.76V346.44H1210.97V342.92H1233.53V346.44H1235.8V340.84H1223.73ZM1248.21 346.728H1263.93V349.896H1248.21V346.728ZM1248.21 341.672H1263.93V344.84H1248.21V341.672ZM1250.23 354.6C1250.9 353.736 1251.61 352.84 1252.15 351.912H1266.33V339.688H1245.88V351.912H1249.4C1247.38 354.856 1244.31 357.48 1241.21 359.24C1241.78 359.624 1242.68 360.456 1243.06 360.904C1244.82 359.816 1246.61 358.376 1248.25 356.744H1252.69C1250.58 360.168 1247.32 363.176 1243.89 365.096C1244.44 365.512 1245.33 366.376 1245.72 366.792C1249.37 364.456 1252.98 360.872 1255.32 356.744H1259.64C1258.1 360.552 1255.67 363.944 1252.73 366.152C1253.3 366.472 1254.23 367.24 1254.65 367.624C1257.69 365.096 1260.37 361.224 1262.07 356.744H1265.97C1265.46 362.248 1264.92 364.52 1264.21 365.16C1263.93 365.48 1263.61 365.512 1263.06 365.512C1262.49 365.512 1261.01 365.512 1259.48 365.352C1259.83 365.928 1260.09 366.792 1260.12 367.432C1261.72 367.528 1263.25 367.528 1264.05 367.464C1264.98 367.432 1265.59 367.208 1266.2 366.568C1267.16 365.576 1267.8 362.824 1268.41 355.688C1268.47 355.336 1268.5 354.6 1268.5 354.6H1250.23ZM1290.81 355.432V350.12H1299.41V355.432H1290.81ZM1280.66 355.432C1280.76 354.248 1280.79 353.064 1280.79 352.008V350.12H1288.44V355.432H1280.66ZM1288.44 342.76V347.88H1280.79V342.76H1288.44ZM1299.41 347.88H1290.81V342.76H1299.41V347.88ZM1301.75 340.488H1278.45V352.008C1278.45 356.456 1278.13 362.088 1274.61 366.056C1275.13 366.344 1276.09 367.144 1276.44 367.624C1278.87 364.904 1279.96 361.256 1280.44 357.704H1288.44V367.144H1290.81V357.704H1299.41V364.2C1299.41 364.808 1299.19 365 1298.55 365.032C1297.97 365.032 1295.8 365.064 1293.56 364.968C1293.88 365.608 1294.26 366.632 1294.36 367.272C1297.37 367.304 1299.22 367.272 1300.31 366.888C1301.33 366.472 1301.75 365.768 1301.75 364.232V340.488ZM1309.91 353.096C1310.74 350.76 1311.35 347.144 1311.51 344.52L1309.72 344.264C1309.49 346.856 1308.92 350.344 1308.05 352.456L1309.91 353.096ZM1312.66 367.432H1315.03V338.216H1312.66V367.432ZM1315.25 344.104C1316.15 345.864 1317.11 348.168 1317.46 349.544L1319.25 348.68C1318.87 347.336 1317.88 345.064 1316.92 343.336L1315.25 344.104ZM1329.3 364.072V356.072H1335.83V353.864H1329.3V347.24H1336.53V344.968H1329.3V338.344H1326.93V344.968H1322.93C1323.38 343.4 1323.77 341.736 1324.09 340.072L1321.78 339.688C1321.05 344.04 1319.77 348.328 1317.91 351.112C1318.49 351.368 1319.54 351.88 1320.02 352.2C1320.89 350.824 1321.62 349.16 1322.26 347.24H1326.93V353.864H1320.15V356.072H1326.93V364.072H1317.78V366.344H1337.3V364.072H1329.3ZM1350.39 365.416C1355.29 365.416 1358.36 362.472 1358.36 358.76C1358.36 355.272 1356.25 353.672 1353.53 352.488L1350.17 351.048C1348.34 350.28 1346.29 349.416 1346.29 347.144C1346.29 345.032 1348.02 343.688 1350.68 343.688C1352.85 343.688 1354.58 344.552 1356.02 345.896L1357.59 344.008C1355.93 342.28 1353.46 341.096 1350.68 341.096C1346.42 341.096 1343.29 343.72 1343.29 347.336C1343.29 350.76 1345.88 352.424 1348.05 353.352L1351.45 354.824C1353.65 355.816 1355.35 356.584 1355.35 358.984C1355.35 361.288 1353.49 362.824 1350.42 362.824C1347.99 362.824 1345.62 361.672 1343.96 359.912L1342.17 361.928C1344.21 364.072 1347.06 365.416 1350.39 365.416ZM1372.88 365.416C1377.68 365.416 1381.32 362.856 1381.32 355.304V341.512H1378.48V355.4C1378.48 361.064 1376.01 362.824 1372.88 362.824C1369.84 362.824 1367.44 361.064 1367.44 355.4V341.512H1364.46V355.304C1364.46 362.856 1368.11 365.416 1372.88 365.416ZM1395.4 365.416C1400.3 365.416 1403.37 362.472 1403.37 358.76C1403.37 355.272 1401.26 353.672 1398.54 352.488L1395.18 351.048C1393.35 350.28 1391.31 349.416 1391.31 347.144C1391.31 345.032 1393.03 343.688 1395.69 343.688C1397.87 343.688 1399.59 344.552 1401.03 345.896L1402.6 344.008C1400.94 342.28 1398.47 341.096 1395.69 341.096C1391.43 341.096 1388.3 343.72 1388.3 347.336C1388.3 350.76 1390.89 352.424 1393.07 353.352L1396.46 354.824C1398.67 355.816 1400.36 356.584 1400.36 358.984C1400.36 361.288 1398.51 362.824 1395.43 362.824C1393 362.824 1390.63 361.672 1388.97 359.912L1387.18 361.928C1389.23 364.072 1392.07 365.416 1395.4 365.416ZM1418.62 341.512V344.2H1411.74V341.512H1418.62ZM1411.74 348.872V345.96H1418.62V348.872H1411.74ZM1420.9 350.792V339.592H1409.41V367.464H1411.74V350.792H1420.9ZM1425.98 355.656V360.936H1418.46V355.656H1425.98ZM1428.19 362.952V353.64H1416.29V364.872H1418.46V362.952H1428.19ZM1426.02 348.904V345.96H1433.12V348.904H1426.02ZM1433.12 341.48V344.2H1426.02V341.48H1433.12ZM1435.52 339.592H1423.74V350.792H1433.12V364.232C1433.12 364.84 1432.93 365.032 1432.35 365.032C1431.71 365.064 1429.63 365.096 1427.55 365C1427.87 365.64 1428.26 366.76 1428.38 367.432C1431.17 367.432 1432.99 367.4 1434.11 367.016C1435.14 366.6 1435.52 365.8 1435.52 364.232V339.592ZM1448.99 354.632C1450.18 353.64 1451.26 352.52 1452.19 351.368H1459.42C1460.26 352.552 1461.28 353.672 1462.37 354.632H1448.99ZM1469.98 351.368V349.224H1453.73C1454.46 348.104 1455.1 346.952 1455.65 345.768H1467.81V343.688H1462.78C1463.71 342.536 1464.7 341.128 1465.54 339.752L1463.36 339.048C1462.66 340.392 1461.44 342.344 1460.38 343.688H1456.48C1457.15 341.928 1457.57 340.168 1457.86 338.408L1455.42 338.152C1455.17 339.944 1454.69 341.832 1453.98 343.688H1449.98L1451.42 342.856C1450.91 341.736 1449.66 340.136 1448.58 338.984L1446.75 339.944C1447.71 341.096 1448.8 342.6 1449.38 343.688H1444.06V345.768H1453.06C1452.48 346.952 1451.74 348.104 1450.91 349.224H1442.08V351.368H1449.06C1447.01 353.512 1444.38 355.368 1441.18 356.776C1441.7 357.224 1442.4 358.088 1442.66 358.664C1444.74 357.704 1446.59 356.552 1448.22 355.272V363.528C1448.22 366.376 1449.41 367.048 1453.47 367.048H1462.3C1465.86 367.048 1466.62 365.992 1467.01 361.832C1466.37 361.672 1465.41 361.32 1464.83 360.968C1464.61 364.328 1464.29 364.904 1462.21 364.904H1453.5C1450.98 364.904 1450.53 364.648 1450.53 363.496V356.712H1460.16C1459.97 358.76 1459.74 359.656 1459.42 359.976C1459.17 360.2 1458.91 360.232 1458.34 360.232C1457.82 360.232 1456.22 360.232 1454.62 360.072C1454.94 360.616 1455.17 361.352 1455.23 361.96C1456.96 362.056 1458.59 362.056 1459.39 361.992C1460.26 361.96 1460.86 361.768 1461.38 361.288C1461.98 360.648 1462.3 359.112 1462.56 355.56C1462.59 355.336 1462.59 355.016 1462.59 354.824C1464.61 356.52 1466.94 357.896 1469.47 358.728C1469.79 358.152 1470.5 357.256 1471.04 356.808C1467.55 355.784 1464.29 353.832 1462.11 351.368H1469.98Z" fill="black"/>
<circle cx="351.314" cy="283" r="25" fill="#8D887C"/>
<path d="M264.274 357.456C263.922 355.824 262.994 353.168 262.002 351.12L260.274 351.76C260.722 352.688 261.106 353.744 261.49 354.8L256.274 355.536C258.93 352.56 261.458 348.784 263.538 345.04L261.554 343.824C260.786 345.392 259.89 346.96 258.994 348.4L255.634 348.72C257.458 346.256 259.282 343.12 260.754 340.048L258.578 339.12C257.234 342.576 254.962 346.256 254.226 347.184C253.586 348.144 253.01 348.784 252.498 348.912C252.722 349.52 253.106 350.64 253.234 351.12C253.65 350.896 254.322 350.768 257.682 350.352C256.562 352.048 255.57 353.36 255.058 353.936C254.098 355.12 253.362 355.92 252.69 356.08C252.946 356.688 253.33 357.808 253.426 358.288C254.034 357.936 254.994 357.68 262.034 356.528C262.194 357.136 262.322 357.68 262.418 358.16L264.274 357.456ZM254.002 359.664C253.682 362.224 253.202 365.04 252.466 367.024C252.946 367.184 253.906 367.504 254.29 367.728C254.962 365.744 255.57 362.736 255.89 360.016L254.002 359.664ZM257.394 359.888C257.778 362.032 258.098 364.848 258.162 366.672L260.05 366.224C259.954 364.4 259.57 361.648 259.186 359.504L257.394 359.888ZM264.402 364.464C264.082 362.896 263.314 360.56 262.578 358.704L260.914 359.248C261.586 361.072 262.322 363.504 262.61 365.04L264.402 364.464ZM276.786 365.776C276.082 365.776 275.986 365.616 275.986 364.784V353.328L278.418 353.072C278.898 353.968 279.282 354.8 279.57 355.504L281.682 354.48C280.818 352.464 278.834 349.2 277.202 346.8L275.25 347.632C275.954 348.72 276.69 349.968 277.394 351.184L267.986 352.08C269.394 350.192 270.77 347.92 272.082 345.52H281.49V343.28H273.234C273.778 342.224 274.322 341.104 274.802 340.016L272.242 339.248C271.73 340.592 271.122 341.968 270.482 343.28H264.658V345.52H269.394C268.21 347.728 267.154 349.488 266.642 350.192C265.778 351.504 265.074 352.368 264.434 352.528C264.754 353.2 265.106 354.384 265.266 354.896C265.714 354.704 266.322 354.544 268.402 354.256C268.21 360.848 267.442 364.592 262.418 366.736C262.962 367.152 263.602 367.984 263.858 368.592C269.49 365.968 270.45 361.52 270.706 353.968L273.714 353.616V364.816C273.714 367.184 274.258 367.888 276.498 367.888H279.218C281.17 367.888 281.746 366.768 281.97 362.48C281.298 362.288 280.402 361.968 279.858 361.552C279.794 365.168 279.666 365.776 278.994 365.776H276.786ZM295.122 343.216C294.642 342.096 293.618 340.432 292.658 339.12L290.866 340.048C291.698 341.36 292.722 343.152 293.202 344.304L295.122 343.216ZM300.21 344.656H287.058V346.608H300.21V344.656ZM298.802 353.008H288.466V354.896H298.802V353.008ZM296.754 359.248V364.528H290.802V359.248H296.754ZM298.834 357.264H288.722V368.016H290.802V366.512H298.834V357.264ZM288.466 350.736H298.866V348.848H288.466V350.736ZM315.378 350.256H308.818V339.824H306.418V350.256H300.146V352.592H306.418V368.464H308.818V352.592H315.378V350.256ZM330.61 348.656H335.666V352.592H330.61V348.656ZM330.61 354.576H335.666V358.576H330.61V354.576ZM330.61 342.768H335.666V346.672H330.61V342.768ZM328.562 340.656V360.656H337.81V340.656H328.562ZM334.194 362.224C335.474 363.792 337.042 365.968 337.746 367.312L339.634 366.128C338.898 364.848 337.298 362.736 335.986 361.232L334.194 362.224ZM329.874 361.328C328.946 363.504 327.314 365.744 325.618 367.216C326.13 367.536 327.09 368.176 327.474 368.528C329.17 366.928 330.994 364.368 332.082 361.904L329.874 361.328ZM345.778 339.248V365.488C345.778 366.032 345.554 366.192 345.01 366.192C344.53 366.224 342.834 366.256 340.946 366.192C341.266 366.8 341.554 367.824 341.65 368.432C344.274 368.432 345.778 368.368 346.674 367.984C347.57 367.6 347.922 366.928 347.922 365.456V339.248H345.778ZM340.21 342.512V360.688H342.322V342.512H340.21ZM321.202 341.264C322.994 342.16 325.202 343.632 326.226 344.688L327.634 342.8C326.546 341.744 324.37 340.4 322.578 339.568L321.202 341.264ZM319.826 349.808C321.714 350.64 323.986 351.984 325.074 352.976L326.418 351.024C325.298 350.032 323.026 348.816 321.17 348.08L319.826 349.808ZM320.498 366.768L322.642 368.048C324.018 365.104 325.618 361.2 326.802 357.872L324.882 356.624C323.602 360.208 321.778 364.304 320.498 366.768ZM381.874 343.856C381.33 342.768 380.114 341.104 378.994 339.92L377.33 340.848C378.45 342.128 379.634 343.888 380.146 344.976L381.874 343.856ZM360.978 343.184C360.53 342.064 359.474 340.4 358.546 339.088L356.722 340.016C357.586 341.36 358.61 343.12 359.09 344.304L360.978 343.184ZM361.554 359.248V364.528H357.106V359.248H361.554ZM363.634 357.264H355.058V368.016H357.106V366.512H363.634V357.264ZM355.09 354.896H363.602V353.008H355.09V354.896ZM363.602 348.848H355.09V350.736H363.602V348.848ZM353.746 346.608H364.178V344.656H353.746V346.608ZM370.226 354.384H373.65V352.24H364.69V354.384H368.05V362.832C366.61 363.184 365.298 363.504 364.178 363.76L364.85 366.064C367.698 365.232 371.41 364.208 374.93 363.12L374.706 361.104C373.202 361.488 371.666 361.904 370.226 362.288V354.384ZM382.802 347.728V345.488H376.594C376.53 343.504 376.498 341.456 376.53 339.312H374.194C374.226 341.424 374.258 343.472 374.322 345.488H364.978V347.728H374.418C374.93 359.344 376.402 368.496 379.986 368.496C381.97 368.496 382.61 366.992 382.962 362.224C382.418 362 381.682 361.456 381.17 360.944C381.074 364.528 380.786 366.16 380.306 366.16C378.61 366.16 377.106 358.416 376.658 347.728H382.802ZM388.53 359.664C388.21 362.352 387.73 365.264 386.962 367.28C387.474 367.44 388.434 367.76 388.882 367.952C389.522 366 390.13 362.832 390.514 360.016L388.53 359.664ZM392.114 359.92C392.466 362.224 392.85 365.2 392.946 367.184L394.834 366.8C394.706 364.816 394.322 361.872 393.874 359.568L392.114 359.92ZM395.378 359.312C396.05 361.296 396.818 363.92 397.138 365.616L398.93 364.976C398.578 363.312 397.778 360.784 397.01 358.8L395.378 359.312ZM395.186 351.792C395.538 352.72 395.922 353.776 396.242 354.8L390.866 355.504C393.49 352.624 396.05 349.008 398.162 345.36L396.114 344.144C395.41 345.552 394.578 346.96 393.746 348.272L390.226 348.592C392.05 346.128 393.874 343.056 395.346 340.048L393.17 339.12C391.794 342.608 389.458 346.256 388.786 347.248C388.082 348.176 387.538 348.848 386.962 348.976C387.218 349.552 387.602 350.64 387.698 351.088C388.146 350.896 388.882 350.736 392.338 350.352C391.122 352.08 390.066 353.424 389.554 354C388.594 355.152 387.826 355.952 387.154 356.08C387.442 356.688 387.794 357.808 387.89 358.288C388.53 357.936 389.522 357.712 396.754 356.656C396.946 357.328 397.074 357.968 397.17 358.512L399.09 357.84C398.738 356.176 397.842 353.36 396.978 351.248L395.186 351.792ZM411.922 358.416V364.912H402.962V358.416H411.922ZM400.722 368.432H402.962V367.088H411.922V368.304H414.226V356.24H400.722V368.432ZM416.018 345.712V343.472H408.53V339.216H406.13V343.472H399.122V345.712H406.13V350.736H400.05V352.944H415.122V350.736H408.53V345.712H416.018ZM426.898 351.344V348.048H434.098V351.344H426.898ZM426.898 342.832H434.098V346.096H426.898V342.832ZM443.826 346.096H436.562V342.832H443.826V346.096ZM443.826 351.344H436.562V348.048H443.826V351.344ZM449.266 358.288V356.08H436.562V353.392H446.354V340.752H424.498V353.392H434.098V356.08H421.394V358.288H432.114C429.298 361.328 424.754 364.08 420.594 365.424C421.106 365.904 421.874 366.832 422.194 367.376C426.354 365.808 431.026 362.768 434.098 359.28V368.464H436.562V359.12C439.698 362.512 444.402 365.616 448.466 367.248C448.818 366.672 449.554 365.744 450.098 365.264C446.066 363.92 441.49 361.232 438.546 358.288H449.266Z" fill="black"/>
<circle cx="558.814" cy="547" r="25" fill="#8D887C"/>
<path d="M435.678 606.128V608.272H431.07V606.128H435.678ZM436.318 613.936C437.15 613.936 438.046 613.904 438.526 613.776C438.43 613.328 438.366 612.592 438.334 612.08C437.79 612.176 436.798 612.208 436.254 612.208H431.902C431.198 612.208 431.07 611.92 431.07 611.024V609.904H437.758V604.528H429.086V610.992C429.086 613.136 429.63 613.936 431.838 613.936H436.318ZM425.406 606.096V608.24H420.894V606.096H425.406ZM420.894 612.304V609.872H427.454V604.496H418.974V611.024C418.974 612.24 418.494 612.624 418.142 612.816C418.398 613.296 418.846 614.192 418.974 614.736C419.518 614.416 420.446 614.224 427.55 612.944C427.55 612.528 427.646 611.792 427.742 611.248L420.894 612.304ZM425.79 618.64H430.782V621.584H425.79V618.64ZM438.654 621.584H432.99V618.64H437.63V616.784H432.99V614.48H430.782V616.784H425.79V614.48H423.582V616.784H419.166V618.64H423.582V621.584H417.854V623.44H438.654V621.584ZM438.142 627.472C436.606 626.288 433.918 624.816 431.55 623.696L429.95 624.784C432.286 625.904 434.686 627.376 436.03 628.56L438.142 627.472ZM424.638 623.728C423.134 625.04 420.734 626.32 418.462 627.216C419.006 627.504 419.87 628.24 420.286 628.688C422.462 627.664 425.054 626.032 426.75 624.464L424.638 623.728ZM416.51 608.304C415.614 607.024 413.886 605.008 412.414 603.44L410.654 604.528C412.062 606.096 413.822 608.272 414.686 609.616L416.51 608.304ZM416.478 618.416L416.062 618.48H412.958C414.43 616.304 416.414 612.88 417.502 611.056L415.934 610.416L415.55 610.576H410.046V612.56H414.302C413.214 614.544 411.678 617.136 411.102 617.808C410.59 618.416 410.142 618.608 409.694 618.736C409.95 619.216 410.398 620.304 410.526 620.88C410.782 620.656 411.646 620.432 412.35 620.432H415.23C414.27 625.36 412.254 628.912 409.47 630.896C409.95 631.216 410.718 632.016 411.038 632.528C412.542 631.376 413.854 629.776 414.974 627.728C417.47 631.344 421.534 631.984 428.03 631.984C431.55 631.984 435.582 631.888 438.59 631.728C438.718 631.056 438.974 629.968 439.358 629.424C436.062 629.712 431.422 629.872 428.03 629.872C421.982 629.872 417.95 629.36 415.838 625.808C416.606 623.824 417.246 621.488 417.63 618.864L416.478 618.416ZM467.998 619.12V628.24H459.23V617.104H469.31V606.128H466.75V614.768H459.23V603.248H456.67V614.768H449.342V606.16H446.878V617.104H456.67V628.24H448.03V619.12H445.47V630.576H467.998V632.4H470.558V619.12H467.998ZM483.102 620.912V618.48H490.334V620.912H483.102ZM483.102 614.48H490.334V616.88H483.102V614.48ZM500.286 614.48V616.88H492.67V614.48H500.286ZM500.286 620.912H492.67V618.48H500.286V620.912ZM492.67 629.488V626.736H503.87V624.816H492.67V622.608H502.686V612.752H492.67V610.832H505.694V608.88H492.67V606.416C496.414 606.128 499.902 605.776 502.622 605.264L501.342 603.408C496.318 604.336 487.358 604.912 479.966 605.104C480.19 605.616 480.446 606.416 480.478 606.992C483.614 606.928 487.006 606.8 490.334 606.576V608.88H477.566V610.832H490.334V612.752H480.766V622.608H490.334V624.816H479.806V626.736H490.334V629.488H477.406V631.44H505.886V629.488H492.67ZM539.262 614.8V612.368H526.046C526.494 609.008 526.526 605.84 526.558 603.28H523.998C523.966 605.808 523.998 609.008 523.518 612.368H511.326V614.8H523.134C521.822 620.848 518.622 626.992 510.686 630.448C511.358 630.928 512.126 631.76 512.478 632.4C520.254 628.848 523.71 622.704 525.246 616.56C527.774 623.824 531.838 629.488 537.982 632.4C538.398 631.696 539.198 630.704 539.774 630.16C533.598 627.632 529.438 621.84 527.198 614.8H539.262ZM551.166 611.728H566.878V614.896H551.166V611.728ZM551.166 606.672H566.878V609.84H551.166V606.672ZM553.182 619.6C553.854 618.736 554.558 617.84 555.102 616.912H569.278V604.688H548.83V616.912H552.35C550.334 619.856 547.262 622.48 544.158 624.24C544.734 624.624 545.63 625.456 546.014 625.904C547.774 624.816 549.566 623.376 551.198 621.744H555.646C553.534 625.168 550.27 628.176 546.846 630.096C547.39 630.512 548.286 631.376 548.67 631.792C552.318 629.456 555.934 625.872 558.27 621.744H562.59C561.054 625.552 558.622 628.944 555.678 631.152C556.254 631.472 557.182 632.24 557.598 632.624C560.638 630.096 563.326 626.224 565.022 621.744H568.926C568.414 627.248 567.87 629.52 567.166 630.16C566.878 630.48 566.558 630.512 566.014 630.512C565.438 630.512 563.966 630.512 562.43 630.352C562.782 630.928 563.038 631.792 563.07 632.432C564.67 632.528 566.206 632.528 567.006 632.464C567.934 632.432 568.542 632.208 569.15 631.568C570.11 630.576 570.75 627.824 571.358 620.688C571.422 620.336 571.454 619.6 571.454 619.6H553.182ZM593.758 620.432V615.12H602.366V620.432H593.758ZM583.614 620.432C583.71 619.248 583.742 618.064 583.742 617.008V615.12H591.39V620.432H583.614ZM591.39 607.76V612.88H583.742V607.76H591.39ZM602.366 612.88H593.758V607.76H602.366V612.88ZM604.702 605.488H581.406V617.008C581.406 621.456 581.086 627.088 577.566 631.056C578.078 631.344 579.038 632.144 579.39 632.624C581.822 629.904 582.91 626.256 583.39 622.704H591.39V632.144H593.758V622.704H602.366V629.2C602.366 629.808 602.142 630 601.502 630.032C600.926 630.032 598.75 630.064 596.51 629.968C596.83 630.608 597.214 631.632 597.31 632.272C600.318 632.304 602.174 632.272 603.262 631.888C604.286 631.472 604.702 630.768 604.702 629.232V605.488ZM612.862 618.096C613.694 615.76 614.302 612.144 614.462 609.52L612.67 609.264C612.446 611.856 611.87 615.344 611.006 617.456L612.862 618.096ZM615.614 632.432H617.982V603.216H615.614V632.432ZM618.206 609.104C619.102 610.864 620.062 613.168 620.414 614.544L622.206 613.68C621.822 612.336 620.83 610.064 619.87 608.336L618.206 609.104ZM632.254 629.072V621.072H638.782V618.864H632.254V612.24H639.486V609.968H632.254V603.344H629.886V609.968H625.886C626.334 608.4 626.718 606.736 627.038 605.072L624.734 604.688C623.998 609.04 622.718 613.328 620.862 616.112C621.438 616.368 622.494 616.88 622.974 617.2C623.838 615.824 624.574 614.16 625.214 612.24H629.886V618.864H623.102V621.072H629.886V629.072H620.734V631.344H640.254V629.072H632.254ZM655.87 606.512V609.2H648.99V606.512H655.87ZM648.99 613.872V610.96H655.87V613.872H648.99ZM658.142 615.792V604.592H646.654V632.464H648.99V615.792H658.142ZM663.23 620.656V625.936H655.71V620.656H663.23ZM665.438 627.952V618.64H653.534V629.872H655.71V627.952H665.438ZM663.262 613.904V610.96H670.366V613.904H663.262ZM670.366 606.48V609.2H663.262V606.48H670.366ZM672.766 604.592H660.99V615.792H670.366V629.232C670.366 629.84 670.174 630.032 669.598 630.032C668.958 630.064 666.878 630.096 664.798 630C665.118 630.64 665.502 631.76 665.63 632.432C668.414 632.432 670.238 632.4 671.358 632.016C672.382 631.6 672.766 630.8 672.766 629.232V604.592ZM703.902 613.2H696.286V610.8H703.902V613.2ZM703.902 617.232H696.286V614.864H703.902V617.232ZM703.902 621.328H696.286V618.928H703.902V621.328ZM694.142 609.04V623.088H706.11V609.04H700.19C700.478 608.304 700.798 607.44 701.086 606.608H707.39V604.784H692.926V606.608H698.878C698.686 607.408 698.43 608.272 698.174 609.04H694.142ZM701.214 624.528C702.974 625.712 705.054 627.536 706.11 628.816L707.838 627.696C706.782 626.48 704.702 624.72 702.846 623.6L701.214 624.528ZM696.798 623.632C695.582 625.104 693.534 626.544 691.518 627.472C691.998 627.792 692.766 628.592 693.118 628.976C695.134 627.824 697.406 626.032 698.782 624.272L696.798 623.632ZM689.054 608.688H682.814V606.32H689.054V608.688ZM689.054 612.784H682.814V610.352H689.054V612.784ZM691.23 604.56H680.67V614.544H691.23V604.56ZM687.166 623.984H692.574V622.16H687.166V618.736H693.118V616.88H678.782V618.736H685.118V627.248C684.158 626.48 683.358 625.456 682.75 624.144C682.878 622.96 682.942 621.712 683.006 620.496H681.022C680.862 624.4 680.318 628.688 678.398 630.992C678.91 631.344 679.614 632.08 679.902 632.528C681.118 631.056 681.886 629.008 682.334 626.704C685.214 630.992 689.982 631.76 696.894 631.76H707.166C707.294 631.12 707.678 630.224 708.03 629.712C706.174 629.776 698.302 629.776 696.894 629.776C692.958 629.744 689.694 629.552 687.166 628.464V623.984Z" fill="black"/>
<circle cx="1103.31" cy="538" r="25" fill="#8D887C"/>
<path d="M862.123 593.928C860.779 598.632 858.475 603.272 855.979 606.28C856.555 607.304 857.515 609.48 857.803 610.376C858.475 609.576 859.147 608.648 859.819 607.656V623.752H863.435V600.808C864.299 598.888 865.003 596.904 865.611 594.984L862.123 593.928ZM879.467 610.696C879.691 610.92 879.947 611.144 880.171 611.4C879.595 611.24 879.019 611.048 878.667 610.856C878.571 611.784 878.411 611.944 877.771 611.944H874.955C874.091 611.944 873.899 611.848 873.899 611.208V609.768H870.923V610.408L869.451 609.64C869.099 610.184 868.619 610.728 868.107 611.272V609.096H874.891L873.931 609.608C874.795 610.248 875.819 611.272 876.363 611.912L878.475 610.664C878.091 610.216 877.419 609.64 876.747 609.096H882.891V610.984C882.411 610.44 881.899 609.992 881.419 609.544L879.467 610.696ZM871.979 617.224L878.571 617.192C877.707 617.8 876.619 618.376 875.339 618.824C874.091 618.408 872.939 617.864 871.979 617.224ZM871.179 605.928H880.043V606.952H871.179V605.928ZM880.043 600.872V601.832H871.179V600.872H880.043ZM880.043 604.392H871.179V603.368H880.043V604.392ZM886.283 606.952H883.595V599.016H876.747L877.227 597.896H885.643V595.176H865.835V597.896H873.291C873.227 598.28 873.163 598.664 873.067 599.016H867.787V606.952H864.875V611.496H867.883C867.403 611.976 866.891 612.424 866.347 612.744L868.459 614.376C869.419 613.704 870.251 612.776 870.955 611.816C871.019 612.712 871.307 613.256 871.915 613.576C871.339 614.216 870.603 614.856 869.739 615.496C869.483 615.208 869.227 614.92 869.003 614.632L866.251 615.592C866.571 616.072 866.955 616.488 867.371 616.936C866.539 617.352 865.707 617.768 864.747 618.12C865.419 618.568 866.347 619.56 866.795 620.264C867.787 619.816 868.683 619.336 869.515 618.856C870.091 619.272 870.699 619.656 871.339 620.04C869.259 620.52 866.827 620.904 864.203 621.16C864.875 621.928 865.675 623.08 866.027 623.912C869.547 623.432 872.651 622.76 875.339 621.864C878.027 622.792 881.067 623.4 884.427 623.752C884.843 622.92 885.579 621.672 886.251 620.968C883.819 620.776 881.547 620.488 879.435 620.04C881.419 618.952 882.923 617.608 883.947 616.072L881.675 614.792L881.035 614.92H874.539C874.827 614.6 875.115 614.28 875.371 613.96H878.187C879.851 613.96 880.619 613.544 880.939 612.2C881.643 613 882.315 613.832 882.699 614.44L884.747 613.16C884.427 612.712 883.947 612.104 883.371 611.496H886.283V606.952ZM897.995 594.024C896.171 598.6 893.003 603.144 889.739 605.96C890.347 606.92 891.403 609 891.755 609.928C892.811 608.936 893.803 607.816 894.827 606.536V623.784H898.443V601.288C899.627 599.304 900.683 597.256 901.547 595.208L897.995 594.024ZM909.483 619.688C907.947 619.688 907.723 619.368 907.723 617.48V606.28H918.859V602.632H907.723V594.504H904.043V617.416C904.043 621.768 905.163 623.048 909.099 623.048H914.443C918.315 623.048 919.275 620.84 919.691 614.664C918.699 614.472 917.195 613.736 916.331 613.064C916.043 618.344 915.787 619.688 914.155 619.688H909.483ZM930.763 610.6C930.763 613.928 930.155 617.992 924.555 620.968C925.579 621.608 927.083 622.92 927.755 623.816C934.091 620.232 934.795 614.952 934.795 610.696V607.08H930.763V610.6ZM942.795 623.784H946.859V607.016H942.795V623.784ZM938.379 593.48C935.435 598.12 929.259 602.536 923.147 604.36C924.011 605.384 924.971 606.984 925.483 608.04C930.187 606.216 935.019 602.984 938.539 599.304C941.803 603.08 946.315 606.056 951.435 607.592C951.979 606.504 953.227 604.84 954.155 604.008C948.715 602.728 943.723 599.88 940.875 596.52C941.099 596.232 941.291 595.944 941.483 595.656L938.379 593.48ZM981.291 618.664H977.835V605.704H981.291V618.664ZM962.827 605.704H966.123V618.664H962.827V605.704ZM974.411 607.912H969.515V605.704H974.411V607.912ZM969.515 616.296H974.411V618.664H969.515V616.296ZM974.411 613.32H969.515V610.888H974.411V613.32ZM986.635 599.304V595.72H957.835V599.304H969.515C969.387 600.264 969.195 601.256 969.003 602.184H959.147V623.784H962.827V622.152H981.291V623.784H985.163V602.184H973.003C973.259 601.256 973.579 600.296 973.867 599.304H986.635ZM1007.56 614.184L1010.99 611.24C1009.35 609.256 1006.28 606.088 1004.01 604.232L1000.68 607.144C1002.89 609.032 1005.61 611.784 1007.56 614.184ZM1035.37 621.448C1041.16 621.448 1044.52 618.216 1044.52 610.344V597.288H1039.98V610.76C1039.98 615.688 1038.19 617.352 1035.37 617.352C1032.62 617.352 1030.89 615.688 1030.89 610.76V597.288H1026.15V610.344C1026.15 618.216 1029.61 621.448 1035.37 621.448ZM1056.31 621.448C1060.98 621.448 1063.44 618.92 1063.44 615.784C1063.44 612.456 1060.82 611.272 1058.45 610.376C1056.56 609.672 1054.9 609.192 1054.9 607.88C1054.9 606.856 1055.67 606.152 1057.3 606.152C1058.61 606.152 1059.86 606.76 1061.14 607.688L1063.25 604.84C1061.78 603.72 1059.76 602.632 1057.17 602.632C1053.07 602.632 1050.48 604.904 1050.48 608.104C1050.48 611.112 1053.01 612.488 1055.28 613.352C1057.17 614.088 1059.03 614.696 1059.03 616.04C1059.03 617.16 1058.23 617.928 1056.43 617.928C1054.77 617.928 1053.23 617.224 1051.63 615.976L1049.49 618.92C1051.28 620.392 1053.91 621.448 1056.31 621.448ZM1076.44 621.448C1078.65 621.448 1080.92 620.68 1082.68 619.464L1081.08 616.584C1079.8 617.384 1078.52 617.832 1077.05 617.832C1074.39 617.832 1072.47 616.296 1072.09 613.352H1083.13C1083.25 612.936 1083.35 612.072 1083.35 611.176C1083.35 606.248 1080.79 602.632 1075.86 602.632C1071.61 602.632 1067.51 606.248 1067.51 612.04C1067.51 617.96 1071.41 621.448 1076.44 621.448ZM1072.02 610.216C1072.37 607.624 1074.04 606.28 1075.93 606.28C1078.23 606.28 1079.32 607.816 1079.32 610.216H1072.02ZM1088.82 621H1093.53V610.312C1094.52 607.72 1096.22 606.792 1097.62 606.792C1098.36 606.792 1098.87 606.888 1099.51 607.08L1100.31 603.016C1099.77 602.792 1099.19 602.632 1098.2 602.632C1096.34 602.632 1094.42 603.912 1093.11 606.248H1093.02L1092.66 603.08H1088.82V621ZM1129.53 621.448C1130.65 621.448 1131.42 621.256 1131.93 621.032L1131.36 617.544C1131.07 617.608 1130.91 617.608 1130.72 617.608C1130.3 617.608 1129.79 617.256 1129.79 616.168V595.464H1125.12V615.976C1125.12 619.304 1126.24 621.448 1129.53 621.448ZM1114.01 621H1118.72V606.792H1122.08V603.08H1118.72V601.544C1118.72 599.56 1119.48 598.728 1120.89 598.728C1121.47 598.728 1122.17 598.856 1122.78 599.112L1123.64 595.624C1122.84 595.336 1121.63 595.016 1120.25 595.016C1115.74 595.016 1114.01 597.896 1114.01 601.64V603.112L1111.61 603.304V606.792H1114.01V621ZM1144.27 621.448C1148.75 621.448 1152.88 617.992 1152.88 612.04C1152.88 606.088 1148.75 602.632 1144.27 602.632C1139.79 602.632 1135.66 606.088 1135.66 612.04C1135.66 617.992 1139.79 621.448 1144.27 621.448ZM1144.27 617.608C1141.84 617.608 1140.46 615.432 1140.46 612.04C1140.46 608.68 1141.84 606.472 1144.27 606.472C1146.7 606.472 1148.08 608.68 1148.08 612.04C1148.08 615.432 1146.7 617.608 1144.27 617.608ZM1161.14 621H1166.51L1168.34 613.192C1168.72 611.528 1168.98 609.864 1169.33 607.976H1169.49C1169.84 609.864 1170.13 611.496 1170.51 613.192L1172.4 621H1177.94L1182.35 603.08H1178L1176.05 611.912C1175.73 613.672 1175.47 615.368 1175.15 617.16H1174.99C1174.61 615.368 1174.29 613.672 1173.87 611.912L1171.63 603.08H1167.47L1165.3 611.912C1164.85 613.64 1164.53 615.368 1164.18 617.16H1164.05C1163.73 615.368 1163.51 613.672 1163.15 611.912L1161.2 603.08H1156.5L1161.14 621ZM1202.65 614.184L1206.07 611.24C1204.44 609.256 1201.37 606.088 1199.1 604.232L1195.77 607.144C1197.98 609.032 1200.7 611.784 1202.65 614.184ZM1228.73 595.464H1220.54V598.248H1228.73V595.464ZM1227.67 614.728H1241.53V616.168H1227.67V614.728ZM1227.67 611.208H1241.53V612.584H1227.67V611.208ZM1227.67 607.688H1241.53V609.064H1227.67V607.688ZM1245.4 618.408V605.416H1223.99V618.408H1228.6C1226.36 619.528 1222.94 620.488 1219.87 621.064C1220.7 621.704 1222.04 623.112 1222.68 623.848C1225.91 622.952 1230.04 621.352 1232.67 619.688L1229.88 618.408H1238.91L1236.95 619.976C1240.12 621.128 1243.45 622.696 1245.27 623.752L1248.7 621.704C1246.81 620.776 1243.67 619.496 1240.73 618.408H1245.4ZM1239.87 599.24V598.6H1243.42C1243.07 599.272 1242.65 599.944 1242.3 600.456L1245.24 601.544C1246.27 600.264 1247.35 598.248 1248.19 596.488L1245.59 595.688L1245.02 595.848H1235.93C1236.12 595.4 1236.31 594.92 1236.47 594.44L1233.15 593.704C1232.41 595.88 1231.1 597.992 1229.4 599.4C1230.2 599.848 1231.61 600.776 1232.22 601.352C1233.02 600.616 1233.79 599.656 1234.46 598.6H1236.38V599.08C1236.38 600.264 1235.58 601.704 1229.47 602.344V600.392H1219.8V603.304H1228.28C1228.79 603.976 1229.31 604.776 1229.56 605.384C1234.94 604.776 1237.59 603.528 1238.81 602.12C1240.83 603.88 1243.61 604.904 1247.19 605.352C1247.64 604.424 1248.54 603.048 1249.31 602.312C1244.99 602.088 1241.59 601.288 1239.87 599.592V599.24ZM1265.08 599.176H1259.45L1261.4 598.024C1260.95 596.84 1260.03 595.08 1259.26 593.768L1256.54 595.144C1257.21 596.36 1258.01 597.96 1258.43 599.176H1253.34V602.184H1265.08V599.176ZM1263.93 606.504V603.624H1254.65V606.504H1263.93ZM1260.99 615.368V618.952H1257.59V615.368H1260.99ZM1263.99 612.328H1254.68V623.368H1257.59V622.024H1263.99V612.328ZM1254.65 610.792H1263.99V607.912H1254.65V610.792ZM1265.5 595.528V599.144H1268.63V607.592H1265.05V611.144H1268.63V623.752H1272.19V611.144H1275.26V607.592H1272.19V599.144H1276.06C1276.03 611.048 1276.06 622.12 1279.1 623.4C1281.08 624.232 1282.71 623.24 1283.19 618.568C1282.65 617.992 1281.72 616.488 1281.21 615.496C1281.11 617.544 1280.95 619.624 1280.79 619.56C1279.61 619.176 1279.58 606.056 1279.87 595.528H1265.5ZM1311.35 604.68H1306.78V599.592H1311.35V604.68ZM1315.13 596.328H1303.19V607.944H1315.13V596.328ZM1298.07 600.36C1297.91 603.496 1297.69 604.776 1297.34 605.192C1297.08 605.48 1296.83 605.576 1296.41 605.544C1295.96 605.544 1295 605.544 1293.91 605.416C1294.43 606.344 1294.81 607.72 1294.91 608.776C1296.28 608.808 1297.56 608.808 1298.3 608.68C1299.19 608.552 1299.83 608.264 1300.47 607.528C1301.24 606.6 1301.53 604.136 1301.79 598.44C1301.82 597.992 1301.85 597.064 1301.85 597.064H1295.23C1295.29 596.04 1295.35 595.016 1295.39 593.928H1291.74C1291.71 595.048 1291.67 596.072 1291.61 597.064H1287.35V600.36H1291.19C1290.62 603.272 1289.4 605.448 1286.59 607.016C1287.39 607.624 1288.44 609 1288.86 609.896C1292.6 607.752 1294.14 604.52 1294.84 600.36H1298.07ZM1294.14 615.016C1292.6 617.192 1289.75 619.208 1286.84 620.456C1287.71 621.032 1289.34 622.248 1290.07 622.92C1292.89 621.416 1296.06 618.952 1297.98 616.2L1294.14 615.016ZM1315.8 614.408V611.048H1303.58V608.744H1299.61V611.048H1287.35V614.408H1299.61V623.816H1303.58V614.408H1315.8ZM1305.18 617.192C1308.09 618.824 1311.8 621.384 1313.53 623.08L1316.57 620.488C1314.65 618.792 1310.81 616.392 1307.99 614.888L1305.18 617.192ZM1331.87 611.336C1331.35 610.44 1328.99 606.76 1328.09 605.512V604.008H1331.29V600.488H1328.09V593.896H1324.63V600.488H1320.79V604.008H1324.35C1323.55 607.784 1321.85 612.232 1320.06 614.728C1320.6 615.592 1321.37 617.032 1321.72 618.088C1322.81 616.488 1323.8 614.248 1324.63 611.784V623.752H1328.09V610.12C1328.79 611.56 1329.5 613.064 1329.91 614.056L1331.87 611.336ZM1342.33 615.976V614.44H1345.18V615.976H1342.33ZM1336.19 614.44H1338.91V615.976H1336.19V614.44ZM1338.91 610.6V611.976H1336.19V610.6H1338.91ZM1345.18 610.6V611.976H1342.33V610.6H1345.18ZM1338.87 602.728H1342.39V604.072H1338.87V602.728ZM1338.87 598.856H1342.39V600.168H1338.87V598.856ZM1350.43 615.976H1348.7V607.976H1342.33V606.76H1350.11V604.072H1345.95V602.728H1349.02V600.168H1345.95V598.856H1349.53V596.232H1345.95V593.896H1342.39V596.232H1338.87V593.896H1335.35V596.232H1332.06V598.856H1335.35V600.168H1332.73V602.728H1335.35V604.072H1331.39V606.76H1338.91V607.976H1332.76V615.976H1330.81V618.76H1332.76V623.528H1336.19V618.76H1345.18V620.104C1345.18 620.488 1345.05 620.584 1344.63 620.584C1344.25 620.584 1342.94 620.616 1341.75 620.552C1342.17 621.416 1342.59 622.664 1342.75 623.56C1344.76 623.56 1346.27 623.528 1347.32 623.048C1348.38 622.536 1348.7 621.736 1348.7 620.136V618.76H1350.43V615.976Z" fill="#932F2F"/>
<path d="M5.31348 26H1475.32C1638.81 26 1643.81 288.5 1475.32 288.5C1189.72 288.5 491.981 288.5 178.814 288.5C-50 288.5 -54.1857 541.5 178.814 541.5C506.014 541.5 921.481 541.5 1088.31 541.5" stroke="#8D887C" stroke-width="10" stroke-linecap="round"/>
</svg>
