<svg width="1924" height="280" viewBox="0 0 1924 280" fill="none" xmlns="http://www.w3.org/2000/svg">
<rect x="1001.5" width="922" height="280" rx="8" fill="#F0EFEC"/>
<circle cx="1041.5" cy="56" r="12" fill="#BAB4A3"/>
<path d="M1085.95 52.624H1076.16V55.504H1085.95V53.904C1086.65 54.576 1087.64 55.696 1088.03 56.336C1092.06 54.192 1092.92 50.576 1092.92 47.472V47.44H1096.76V50.864C1096.76 54.032 1097.34 55.376 1100.35 55.376H1102.01C1102.65 55.376 1103.36 55.344 1103.8 55.12C1103.68 54.256 1103.61 52.944 1103.55 51.984C1103.13 52.112 1102.4 52.208 1101.98 52.208H1100.7C1100.32 52.208 1100.25 51.824 1100.25 50.896V43.92H1089.47V47.344C1089.47 49.424 1089.08 51.664 1085.95 53.392V52.624ZM1087.29 48.176H1081.21L1083.32 47.024C1082.81 45.84 1081.85 44.08 1080.99 42.768L1078.01 44.144C1078.72 45.36 1079.58 46.96 1080.09 48.176H1074.78V51.184H1087.29V48.176ZM1086.01 56.912H1076.16V59.792H1086.01V56.912ZM1098.3 60.272C1097.44 62.032 1096.28 63.536 1094.88 64.816C1093.31 63.504 1092.03 62 1091.1 60.272H1098.3ZM1082.68 67.952H1079.42V64.368H1082.68V67.952ZM1100.73 56.56L1100.12 56.72H1086.78V60.272H1089.72L1087.64 61.008C1088.8 63.28 1090.2 65.296 1091.87 66.96C1090.11 67.984 1088.12 68.72 1085.98 69.232V61.328H1076.19V72.368H1079.42V71.024H1085.98V69.872C1086.56 70.768 1087.13 71.92 1087.45 72.72C1090.2 71.984 1092.7 70.896 1094.91 69.488C1097.02 70.896 1099.48 71.952 1102.3 72.624C1102.81 71.6 1103.8 69.968 1104.64 69.2C1102.17 68.72 1099.96 67.92 1098.01 66.896C1100.32 64.56 1102.08 61.52 1103.13 57.584L1100.73 56.56ZM1122.46 48.176H1115.74L1117.82 47.024C1117.31 45.84 1116.35 44.08 1115.48 42.768L1112.51 44.144C1113.21 45.36 1114.08 46.96 1114.59 48.176H1108.99V51.184H1122.46V48.176ZM1121.12 55.504V52.624H1110.4V55.504H1121.12ZM1121.08 56.912H1110.4V59.792H1121.08V56.912ZM1117.88 64.368V67.952H1113.72V64.368H1117.88ZM1121.18 61.328H1110.52V72.368H1113.72V71.024H1121.18V61.328ZM1137.82 53.52H1131.9V43.472H1127.93V53.52H1122.33V57.264H1127.93V72.784H1131.9V57.264H1137.82V53.52ZM1165.69 50.128L1163.45 51.44C1163.93 52.016 1164.44 52.688 1164.99 53.36L1156.7 53.808C1157.69 52.656 1158.68 51.44 1159.64 50.128H1165.69ZM1171.71 56.464C1170.56 54.8 1168.32 52.144 1166.65 50.128H1171.07V46.736H1161.98C1162.52 45.872 1163.04 45.04 1163.48 44.176L1159.8 42.736C1159.16 44.112 1158.4 45.456 1157.66 46.736H1151.23V50.128H1155.42C1154.68 51.152 1154.08 51.92 1153.69 52.304C1152.73 53.424 1152.06 54.096 1151.26 54.32C1151.68 55.248 1152.25 57.072 1152.44 57.808C1153.63 57.36 1155.36 57.2 1167.23 56.368C1167.77 57.136 1168.25 57.872 1168.6 58.416L1171.71 56.464ZM1151.04 46.736C1149.79 45.52 1147.16 44.112 1145.21 43.248L1143.1 46.032C1145.12 46.992 1147.64 48.592 1148.8 49.776L1151.04 46.736ZM1149.82 55.152C1148.51 54.064 1145.79 52.72 1143.77 51.952L1141.79 54.864C1143.84 55.728 1146.46 57.232 1147.71 58.32L1149.82 55.152ZM1148.41 59.76C1146.49 63.472 1144.06 67.44 1142.36 69.84L1145.6 72.4C1147.48 69.296 1149.5 65.648 1151.2 62.32L1148.41 59.76ZM1153.69 61.264C1153.69 64.048 1153.28 67.536 1149.69 70.16C1150.56 70.672 1151.84 71.888 1152.38 72.656C1156.6 69.424 1157.12 64.944 1157.12 61.392V58.288H1153.69V61.264ZM1159.07 71.376H1162.4V58.576H1159.07V71.376ZM1168.44 69.136C1168.03 69.136 1168 68.784 1168 67.76V58.288H1164.51V67.728C1164.51 70.768 1165.08 72.048 1168.09 72.048H1169.69C1170.33 72.048 1171 72.016 1171.48 71.824C1171.36 71.024 1171.26 69.84 1171.2 68.944C1170.78 69.072 1170.11 69.136 1169.66 69.136H1168.44ZM1199.87 52.08H1192.25V47.472H1199.87V52.08ZM1203.58 44.272H1188.73V55.28H1203.58V44.272ZM1188.06 60.528C1187.45 59.824 1184.83 57.04 1183.96 56.336V55.408H1187.39V51.856H1183.96V47.408C1185.4 47.024 1186.78 46.608 1188 46.128L1185.44 43.216C1182.91 44.336 1178.94 45.264 1175.32 45.872C1175.74 46.64 1176.19 47.952 1176.38 48.784C1177.63 48.624 1178.94 48.432 1180.28 48.176V51.856H1175.71V55.408H1179.77C1178.59 58.512 1176.83 61.904 1175.04 63.984C1175.64 64.944 1176.44 66.512 1176.8 67.6C1178.04 66 1179.26 63.728 1180.28 61.264V72.752H1183.96V60.272C1184.73 61.424 1185.5 62.672 1185.88 63.504L1188.06 60.528ZM1198.01 68.752V65.808H1203.68V62.608H1198.01V59.632C1200.28 59.344 1202.43 58.992 1204.28 58.544L1201.98 55.664C1198.46 56.592 1192.7 57.168 1187.71 57.456C1188.06 58.224 1188.48 59.504 1188.6 60.336C1190.4 60.272 1192.28 60.176 1194.2 60.016V62.608H1188.54V65.808H1194.2V68.752H1186.94V72.08H1204.92V68.752H1198.01ZM1216.57 72.24C1218.33 70.704 1219.32 68.304 1220 66.032L1216.92 64.912C1216.35 66.96 1215.23 69.104 1213.66 70.416L1216.57 72.24ZM1220.03 48.24H1224.25C1223.36 50.32 1221.98 52.368 1220.44 53.968V52.048C1221.15 51.056 1221.72 49.968 1222.27 48.944L1220.03 48.24ZM1214.62 48.24H1219.07C1218.04 50.352 1216.38 52.432 1214.62 54.064V48.24ZM1226.52 50.8C1226.88 50.096 1227.23 49.456 1227.52 48.752L1225.66 48.24H1230.72L1228.86 48.912C1229.28 49.488 1229.72 50.16 1230.04 50.8H1226.52ZM1229.63 54.128H1225.82V53.008H1229.63V54.128ZM1229.63 57.2H1225.82V55.984H1229.63V57.2ZM1229.63 60.304H1225.82V59.024H1229.63V60.304ZM1222.68 63.536H1224.86L1223.9 64.464C1225.66 65.296 1227.8 66.736 1228.83 67.792L1231.16 65.552C1230.08 64.56 1228.09 63.408 1226.4 62.608H1238.01V60.304H1232.8V59.024H1236.83V57.2H1232.8V55.984H1236.8V54.128H1232.8V53.008H1237.63V50.8H1232.38L1233.21 50.448C1232.92 49.808 1232.38 48.976 1231.8 48.24H1238.46V45.136H1227.36C1226.91 44.208 1226.33 43.184 1225.72 42.384L1222.33 43.344C1222.68 43.856 1223.04 44.496 1223.32 45.136H1211.13V54.512C1211.13 59.248 1210.97 65.968 1208.64 70.576C1209.4 70.96 1210.91 72.144 1211.52 72.816C1213.92 68.208 1214.52 61.2 1214.62 56.048C1215.1 56.56 1215.58 57.072 1215.84 57.392C1216.28 56.976 1216.8 56.496 1217.28 56.016V63.536H1220.44V55.44C1221.08 55.888 1221.72 56.496 1222.08 56.912C1222.27 56.72 1222.49 56.496 1222.68 56.272V63.536ZM1225.82 69.616C1224.73 69.616 1224.54 69.52 1224.54 68.72V65.296H1221.08V68.784C1221.08 71.664 1221.88 72.592 1225.34 72.592H1229.4C1231.93 72.592 1232.86 71.76 1233.21 68.496C1232.32 68.272 1230.88 67.76 1230.2 67.28C1230.08 69.328 1229.92 69.616 1229.05 69.616H1225.82ZM1231.8 65.936C1233.4 67.792 1235.16 70.416 1235.77 72.144L1238.81 70.672C1238.08 68.88 1236.25 66.416 1234.59 64.56L1231.8 65.936ZM1259.74 59.856V55.92H1266.49V59.856H1259.74ZM1249.79 59.856C1249.85 58.672 1249.88 57.52 1249.88 56.496V55.92H1255.9V59.856H1249.79ZM1255.9 48.656V52.368H1249.88V48.656H1255.9ZM1266.49 52.368H1259.74V48.656H1266.49V52.368ZM1270.27 45.04H1246.11V56.464C1246.11 60.944 1245.82 66.64 1242.33 70.48C1243.2 70.928 1244.73 72.24 1245.34 72.944C1247.64 70.448 1248.8 66.928 1249.37 63.44H1255.9V72.368H1259.74V63.44H1266.49V68.24C1266.49 68.816 1266.27 69.008 1265.66 69.008C1265.08 69.008 1262.97 69.04 1261.18 68.944C1261.66 69.936 1262.27 71.568 1262.4 72.592C1265.28 72.624 1267.23 72.56 1268.54 71.92C1269.82 71.344 1270.27 70.32 1270.27 68.272V45.04Z" fill="#8D887C"/>
<path d="M1053.5 110.448C1051.61 110.448 1050.11 111.952 1050.11 113.84C1050.11 115.728 1051.61 117.232 1053.5 117.232C1055.39 117.232 1056.89 115.728 1056.89 113.84C1056.89 111.952 1055.39 110.448 1053.5 110.448ZM1085.85 107.728H1101.56V110.896H1085.85V107.728ZM1085.85 102.672H1101.56V105.84H1085.85V102.672ZM1087.87 115.6C1088.54 114.736 1089.24 113.84 1089.79 112.912H1103.96V100.688H1083.52V112.912H1087.04C1085.02 115.856 1081.95 118.48 1078.84 120.24C1079.42 120.624 1080.32 121.456 1080.7 121.904C1082.46 120.816 1084.25 119.376 1085.88 117.744H1090.33C1088.22 121.168 1084.96 124.176 1081.53 126.096C1082.08 126.512 1082.97 127.376 1083.36 127.792C1087 125.456 1090.62 121.872 1092.96 117.744H1097.28C1095.74 121.552 1093.31 124.944 1090.36 127.152C1090.94 127.472 1091.87 128.24 1092.28 128.624C1095.32 126.096 1098.01 122.224 1099.71 117.744H1103.61C1103.1 123.248 1102.56 125.52 1101.85 126.16C1101.56 126.48 1101.24 126.512 1100.7 126.512C1100.12 126.512 1098.65 126.512 1097.12 126.352C1097.47 126.928 1097.72 127.792 1097.76 128.432C1099.36 128.528 1100.89 128.528 1101.69 128.464C1102.62 128.432 1103.23 128.208 1103.84 127.568C1104.8 126.576 1105.44 123.824 1106.04 116.688C1106.11 116.336 1106.14 115.6 1106.14 115.6H1087.87ZM1128.44 116.432V111.12H1137.05V116.432H1128.44ZM1118.3 116.432C1118.4 115.248 1118.43 114.064 1118.43 113.008V111.12H1126.08V116.432H1118.3ZM1126.08 103.76V108.88H1118.43V103.76H1126.08ZM1137.05 108.88H1128.44V103.76H1137.05V108.88ZM1139.39 101.488H1116.09V113.008C1116.09 117.456 1115.77 123.088 1112.25 127.056C1112.76 127.344 1113.72 128.144 1114.08 128.624C1116.51 125.904 1117.6 122.256 1118.08 118.704H1126.08V128.144H1128.44V118.704H1137.05V125.2C1137.05 125.808 1136.83 126 1136.19 126.032C1135.61 126.032 1133.44 126.064 1131.2 125.968C1131.52 126.608 1131.9 127.632 1132 128.272C1135 128.304 1136.86 128.272 1137.95 127.888C1138.97 127.472 1139.39 126.768 1139.39 125.232V101.488ZM1147.55 114.096C1148.38 111.76 1148.99 108.144 1149.15 105.52L1147.36 105.264C1147.13 107.856 1146.56 111.344 1145.69 113.456L1147.55 114.096ZM1150.3 128.432H1152.67V99.216H1150.3V128.432ZM1152.89 105.104C1153.79 106.864 1154.75 109.168 1155.1 110.544L1156.89 109.68C1156.51 108.336 1155.52 106.064 1154.56 104.336L1152.89 105.104ZM1166.94 125.072V117.072H1173.47V114.864H1166.94V108.24H1174.17V105.968H1166.94V99.344H1164.57V105.968H1160.57C1161.02 104.4 1161.4 102.736 1161.72 101.072L1159.42 100.688C1158.68 105.04 1157.4 109.328 1155.55 112.112C1156.12 112.368 1157.18 112.88 1157.66 113.2C1158.52 111.824 1159.26 110.16 1159.9 108.24H1164.57V114.864H1157.79V117.072H1164.57V125.072H1155.42V127.344H1174.94V125.072H1166.94ZM1190.4 108.656H1195.45V112.592H1190.4V108.656ZM1190.4 114.576H1195.45V118.576H1190.4V114.576ZM1190.4 102.768H1195.45V106.672H1190.4V102.768ZM1188.35 100.656V120.656H1197.6V100.656H1188.35ZM1193.98 122.224C1195.26 123.792 1196.83 125.968 1197.53 127.312L1199.42 126.128C1198.68 124.848 1197.08 122.736 1195.77 121.232L1193.98 122.224ZM1189.66 121.328C1188.73 123.504 1187.1 125.744 1185.4 127.216C1185.92 127.536 1186.88 128.176 1187.26 128.528C1188.96 126.928 1190.78 124.368 1191.87 121.904L1189.66 121.328ZM1205.56 99.248V125.488C1205.56 126.032 1205.34 126.192 1204.8 126.192C1204.32 126.224 1202.62 126.256 1200.73 126.192C1201.05 126.8 1201.34 127.824 1201.44 128.432C1204.06 128.432 1205.56 128.368 1206.46 127.984C1207.36 127.6 1207.71 126.928 1207.71 125.456V99.248H1205.56ZM1200 102.512V120.688H1202.11V102.512H1200ZM1180.99 101.264C1182.78 102.16 1184.99 103.632 1186.01 104.688L1187.42 102.8C1186.33 101.744 1184.16 100.4 1182.36 99.568L1180.99 101.264ZM1179.61 109.808C1181.5 110.64 1183.77 111.984 1184.86 112.976L1186.2 111.024C1185.08 110.032 1182.81 108.816 1180.96 108.08L1179.61 109.808ZM1180.28 126.768L1182.43 128.048C1183.8 125.104 1185.4 121.2 1186.59 117.872L1184.67 116.624C1183.39 120.208 1181.56 124.304 1180.28 126.768ZM1241.66 103.856C1241.12 102.768 1239.9 101.104 1238.78 99.92L1237.12 100.848C1238.24 102.128 1239.42 103.888 1239.93 104.976L1241.66 103.856ZM1220.76 103.184C1220.32 102.064 1219.26 100.4 1218.33 99.088L1216.51 100.016C1217.37 101.36 1218.4 103.12 1218.88 104.304L1220.76 103.184ZM1221.34 119.248V124.528H1216.89V119.248H1221.34ZM1223.42 117.264H1214.84V128.016H1216.89V126.512H1223.42V117.264ZM1214.88 114.896H1223.39V113.008H1214.88V114.896ZM1223.39 108.848H1214.88V110.736H1223.39V108.848ZM1213.53 106.608H1223.96V104.656H1213.53V106.608ZM1230.01 114.384H1233.44V112.24H1224.48V114.384H1227.84V122.832C1226.4 123.184 1225.08 123.504 1223.96 123.76L1224.64 126.064C1227.48 125.232 1231.2 124.208 1234.72 123.12L1234.49 121.104C1232.99 121.488 1231.45 121.904 1230.01 122.288V114.384ZM1242.59 107.728V105.488H1236.38C1236.32 103.504 1236.28 101.456 1236.32 99.312H1233.98C1234.01 101.424 1234.04 103.472 1234.11 105.488H1224.76V107.728H1234.2C1234.72 119.344 1236.19 128.496 1239.77 128.496C1241.76 128.496 1242.4 126.992 1242.75 122.224C1242.2 122 1241.47 121.456 1240.96 120.944C1240.86 124.528 1240.57 126.16 1240.09 126.16C1238.4 126.16 1236.89 118.416 1236.44 107.728H1242.59ZM1053.5 166.448C1051.61 166.448 1050.11 167.952 1050.11 169.84C1050.11 171.728 1051.61 173.232 1053.5 173.232C1055.39 173.232 1056.89 171.728 1056.89 169.84C1056.89 167.952 1055.39 166.448 1053.5 166.448ZM1086.36 159.216C1085.88 158.096 1084.96 156.432 1084.09 155.12L1082.4 156.048C1083.2 157.36 1084.16 159.152 1084.6 160.304L1086.36 159.216ZM1090.46 160.656H1079.13V162.608H1090.46V160.656ZM1080.38 170.896H1089.21V169.008H1080.38V170.896ZM1080.38 164.848V166.736H1089.18V164.848H1080.38ZM1087.23 175.248V180.528H1082.24V175.248H1087.23ZM1089.21 182.512V173.264H1080.32V184.016H1082.24V182.512H1089.21ZM1107.8 163.024V160.752H1100.12L1101.15 160.432C1100.89 159.152 1100.19 157.072 1099.48 155.472L1097.47 156.016C1098.08 157.52 1098.68 159.44 1098.91 160.752H1091.29V163.024H1095.61C1095.42 170.96 1094.84 178.768 1089.02 182.864C1089.56 183.216 1090.24 183.984 1090.59 184.528C1095.04 181.232 1096.76 175.984 1097.4 170.096H1104.06C1103.74 177.904 1103.29 180.944 1102.65 181.648C1102.36 182 1102.08 182.064 1101.53 182.032C1100.92 182.032 1099.39 182.032 1097.76 181.872C1098.14 182.512 1098.4 183.44 1098.46 184.144C1100.03 184.24 1101.63 184.272 1102.46 184.176C1103.39 184.08 1104 183.856 1104.57 183.12C1105.53 181.968 1105.95 178.544 1106.36 168.976C1106.36 168.656 1106.4 167.856 1106.4 167.856H1097.63C1097.76 166.256 1097.82 164.656 1097.88 163.024H1107.8ZM1138.46 157.296C1137.72 158.832 1136.41 161.104 1135.39 162.48L1137.12 163.248C1138.17 161.968 1139.52 159.952 1140.64 158.192L1138.46 157.296ZM1140.96 167.952C1139.2 166.288 1135.87 164.016 1132.99 162.32C1133.4 160.4 1133.56 158.096 1133.63 155.248H1131.42C1131.26 163.184 1130.56 166.224 1123.68 167.952C1124.16 168.4 1124.76 169.264 1124.99 169.872C1129.05 168.688 1131.16 167.056 1132.35 164.336C1135.04 166.064 1138.01 168.272 1139.58 169.808L1140.96 167.952ZM1136.99 177.232C1138.08 175.888 1139.48 173.712 1140.64 171.824L1138.46 170.96C1137.72 172.624 1136.35 175.056 1135.29 176.528L1136.99 177.232ZM1129.31 176.72C1128.57 175.28 1126.97 172.784 1125.69 170.896L1124 171.92C1125.24 173.84 1126.78 176.4 1127.58 177.936L1129.31 176.72ZM1129.63 162.8C1128.92 161.424 1127.36 159.056 1126.11 157.264L1124.41 158.288C1125.66 160.112 1127.16 162.608 1127.9 164.048L1129.63 162.8ZM1120 159.344C1119.58 158.256 1118.68 156.528 1117.88 155.216L1115.93 155.952C1116.73 157.264 1117.56 159.056 1117.95 160.176L1120 159.344ZM1124.09 160.656H1112.51V162.608H1124.09V160.656ZM1122.84 166.736V164.848H1113.76V166.736H1122.84ZM1122.84 169.008H1113.76V170.896H1122.84V169.008ZM1120.86 175.248V180.528H1115.96V175.248H1120.86ZM1122.97 182.512V173.264H1113.85V184.016H1115.96V182.512H1122.97ZM1133.37 168.432H1131.13V171.824C1131.13 174.864 1130.52 179.536 1122.84 182.8C1123.42 183.216 1124.09 183.984 1124.41 184.432C1129.31 182.224 1131.58 179.472 1132.57 176.816C1134.14 180.432 1136.54 183.024 1140.25 184.336C1140.57 183.728 1141.21 182.832 1141.72 182.384C1137.15 181.008 1134.52 177.584 1133.34 172.816C1133.37 172.464 1133.37 172.144 1133.37 171.824V168.432ZM1172.32 171.088V168.88H1161.79V158.352H1159.61V168.88H1149.08V171.088H1159.61V181.616H1161.79V171.088H1172.32ZM1186.65 163.728H1202.36V166.896H1186.65V163.728ZM1186.65 158.672H1202.36V161.84H1186.65V158.672ZM1188.67 171.6C1189.34 170.736 1190.04 169.84 1190.59 168.912H1204.76V156.688H1184.32V168.912H1187.84C1185.82 171.856 1182.75 174.48 1179.64 176.24C1180.22 176.624 1181.12 177.456 1181.5 177.904C1183.26 176.816 1185.05 175.376 1186.68 173.744H1191.13C1189.02 177.168 1185.76 180.176 1182.33 182.096C1182.88 182.512 1183.77 183.376 1184.16 183.792C1187.8 181.456 1191.42 177.872 1193.76 173.744H1198.08C1196.54 177.552 1194.11 180.944 1191.16 183.152C1191.74 183.472 1192.67 184.24 1193.08 184.624C1196.12 182.096 1198.81 178.224 1200.51 173.744H1204.41C1203.9 179.248 1203.36 181.52 1202.65 182.16C1202.36 182.48 1202.04 182.512 1201.5 182.512C1200.92 182.512 1199.45 182.512 1197.92 182.352C1198.27 182.928 1198.52 183.792 1198.56 184.432C1200.16 184.528 1201.69 184.528 1202.49 184.464C1203.42 184.432 1204.03 184.208 1204.64 183.568C1205.6 182.576 1206.24 179.824 1206.84 172.688C1206.91 172.336 1206.94 171.6 1206.94 171.6H1188.67ZM1229.24 172.432V167.12H1237.85V172.432H1229.24ZM1219.1 172.432C1219.2 171.248 1219.23 170.064 1219.23 169.008V167.12H1226.88V172.432H1219.1ZM1226.88 159.76V164.88H1219.23V159.76H1226.88ZM1237.85 164.88H1229.24V159.76H1237.85V164.88ZM1240.19 157.488H1216.89V169.008C1216.89 173.456 1216.57 179.088 1213.05 183.056C1213.56 183.344 1214.52 184.144 1214.88 184.624C1217.31 181.904 1218.4 178.256 1218.88 174.704H1226.88V184.144H1229.24V174.704H1237.85V181.2C1237.85 181.808 1237.63 182 1236.99 182.032C1236.41 182.032 1234.24 182.064 1232 181.968C1232.32 182.608 1232.7 183.632 1232.8 184.272C1235.8 184.304 1237.66 184.272 1238.75 183.888C1239.77 183.472 1240.19 182.768 1240.19 181.232V157.488ZM1248.35 170.096C1249.18 167.76 1249.79 164.144 1249.95 161.52L1248.16 161.264C1247.93 163.856 1247.36 167.344 1246.49 169.456L1248.35 170.096ZM1251.1 184.432H1253.47V155.216H1251.1V184.432ZM1253.69 161.104C1254.59 162.864 1255.55 165.168 1255.9 166.544L1257.69 165.68C1257.31 164.336 1256.32 162.064 1255.36 160.336L1253.69 161.104ZM1267.74 181.072V173.072H1274.27V170.864H1267.74V164.24H1274.97V161.968H1267.74V155.344H1265.37V161.968H1261.37C1261.82 160.4 1262.2 158.736 1262.52 157.072L1260.22 156.688C1259.48 161.04 1258.2 165.328 1256.35 168.112C1256.92 168.368 1257.98 168.88 1258.46 169.2C1259.32 167.824 1260.06 166.16 1260.7 164.24H1265.37V170.864H1258.59V173.072H1265.37V181.072H1256.22V183.344H1275.74V181.072H1267.74ZM1291.36 158.512V161.2H1284.48V158.512H1291.36ZM1284.48 165.872V162.96H1291.36V165.872H1284.48ZM1293.63 167.792V156.592H1282.14V184.464H1284.48V167.792H1293.63ZM1298.72 172.656V177.936H1291.2V172.656H1298.72ZM1300.92 179.952V170.64H1289.02V181.872H1291.2V179.952H1300.92ZM1298.75 165.904V162.96H1305.85V165.904H1298.75ZM1305.85 158.48V161.2H1298.75V158.48H1305.85ZM1308.25 156.592H1296.48V167.792H1305.85V181.232C1305.85 181.84 1305.66 182.032 1305.08 182.032C1304.44 182.064 1302.36 182.096 1300.28 182C1300.6 182.64 1300.99 183.76 1301.12 184.432C1303.9 184.432 1305.72 184.4 1306.84 184.016C1307.87 183.6 1308.25 182.8 1308.25 181.232V156.592ZM1321.72 171.632C1322.91 170.64 1324 169.52 1324.92 168.368H1332.16C1332.99 169.552 1334.01 170.672 1335.1 171.632H1321.72ZM1342.72 168.368V166.224H1326.46C1327.2 165.104 1327.84 163.952 1328.38 162.768H1340.54V160.688H1335.52C1336.44 159.536 1337.44 158.128 1338.27 156.752L1336.09 156.048C1335.39 157.392 1334.17 159.344 1333.12 160.688H1329.21C1329.88 158.928 1330.3 157.168 1330.59 155.408L1328.16 155.152C1327.9 156.944 1327.42 158.832 1326.72 160.688H1322.72L1324.16 159.856C1323.64 158.736 1322.4 157.136 1321.31 155.984L1319.48 156.944C1320.44 158.096 1321.53 159.6 1322.11 160.688H1316.8V162.768H1325.79C1325.21 163.952 1324.48 165.104 1323.64 166.224H1314.81V168.368H1321.79C1319.74 170.512 1317.12 172.368 1313.92 173.776C1314.43 174.224 1315.13 175.088 1315.39 175.664C1317.47 174.704 1319.32 173.552 1320.96 172.272V180.528C1320.96 183.376 1322.14 184.048 1326.2 184.048H1335.04C1338.59 184.048 1339.36 182.992 1339.74 178.832C1339.1 178.672 1338.14 178.32 1337.56 177.968C1337.34 181.328 1337.02 181.904 1334.94 181.904H1326.24C1323.71 181.904 1323.26 181.648 1323.26 180.496V173.712H1332.89C1332.7 175.76 1332.48 176.656 1332.16 176.976C1331.9 177.2 1331.64 177.232 1331.07 177.232C1330.56 177.232 1328.96 177.232 1327.36 177.072C1327.68 177.616 1327.9 178.352 1327.96 178.96C1329.69 179.056 1331.32 179.056 1332.12 178.992C1332.99 178.96 1333.6 178.768 1334.11 178.288C1334.72 177.648 1335.04 176.112 1335.29 172.56C1335.32 172.336 1335.32 172.016 1335.32 171.824C1337.34 173.52 1339.68 174.896 1342.2 175.728C1342.52 175.152 1343.23 174.256 1343.77 173.808C1340.28 172.784 1337.02 170.832 1334.84 168.368H1342.72ZM1053.5 222.448C1051.61 222.448 1050.11 223.952 1050.11 225.84C1050.11 227.728 1051.61 229.232 1053.5 229.232C1055.39 229.232 1056.89 227.728 1056.89 225.84C1056.89 223.952 1055.39 222.448 1053.5 222.448ZM1080.7 238H1083.68V228.688H1087.55C1092.7 228.688 1096.19 226.384 1096.19 221.424C1096.19 216.304 1092.67 214.512 1087.42 214.512H1080.7V238ZM1083.68 226.288V216.944H1087.04C1091.16 216.944 1093.24 218.032 1093.24 221.424C1093.24 224.784 1091.29 226.288 1087.16 226.288H1083.68ZM1102.26 238H1105.17V226.832C1106.33 223.856 1108.12 222.832 1109.56 222.832C1110.26 222.832 1110.68 222.896 1111.25 223.12L1111.8 220.56C1111.25 220.272 1110.71 220.176 1109.94 220.176C1107.99 220.176 1106.23 221.584 1105.01 223.792H1104.92L1104.66 220.624H1102.26V238ZM1122.68 238.416C1126.93 238.416 1130.74 235.088 1130.74 229.328C1130.74 223.536 1126.93 220.176 1122.68 220.176C1118.42 220.176 1114.61 223.536 1114.61 229.328C1114.61 235.088 1118.42 238.416 1122.68 238.416ZM1122.68 235.984C1119.67 235.984 1117.65 233.328 1117.65 229.328C1117.65 225.328 1119.67 222.608 1122.68 222.608C1125.69 222.608 1127.73 225.328 1127.73 229.328C1127.73 233.328 1125.69 235.984 1122.68 235.984ZM1141.81 238.416C1142.87 238.416 1144.02 238.096 1145.01 237.776L1144.43 235.6C1143.86 235.824 1143.06 236.048 1142.45 236.048C1140.43 236.048 1139.76 234.832 1139.76 232.688V222.992H1144.47V220.624H1139.76V215.728H1137.33L1136.98 220.624L1134.26 220.784V222.992H1136.85V232.624C1136.85 236.08 1138.1 238.416 1141.81 238.416ZM1156.28 238.416C1160.54 238.416 1164.35 235.088 1164.35 229.328C1164.35 223.536 1160.54 220.176 1156.28 220.176C1152.03 220.176 1148.22 223.536 1148.22 229.328C1148.22 235.088 1152.03 238.416 1156.28 238.416ZM1156.28 235.984C1153.28 235.984 1151.26 233.328 1151.26 229.328C1151.26 225.328 1153.28 222.608 1156.28 222.608C1159.29 222.608 1161.34 225.328 1161.34 229.328C1161.34 233.328 1159.29 235.984 1156.28 235.984ZM1175.42 238.416C1176.47 238.416 1177.62 238.096 1178.62 237.776L1178.04 235.6C1177.46 235.824 1176.66 236.048 1176.06 236.048C1174.04 236.048 1173.37 234.832 1173.37 232.688V222.992H1178.07V220.624H1173.37V215.728H1170.94L1170.58 220.624L1167.86 220.784V222.992H1170.46V232.624C1170.46 236.08 1171.7 238.416 1175.42 238.416ZM1183.89 245.488C1187.35 245.488 1189.17 242.864 1190.36 239.44L1196.92 220.624H1194.07L1190.97 230.288C1190.49 231.824 1189.97 233.584 1189.49 235.152H1189.33C1188.79 233.584 1188.18 231.792 1187.67 230.288L1184.12 220.624H1181.08L1188.05 238.032L1187.67 239.344C1186.97 241.488 1185.72 243.088 1183.73 243.088C1183.29 243.088 1182.77 242.928 1182.42 242.8L1181.85 245.136C1182.39 245.36 1183.06 245.488 1183.89 245.488ZM1201.89 245.328H1204.81V239.44L1204.74 236.4C1206.31 237.68 1207.97 238.416 1209.54 238.416C1213.54 238.416 1217.09 234.992 1217.09 229.04C1217.09 223.696 1214.66 220.176 1210.18 220.176C1208.17 220.176 1206.21 221.328 1204.65 222.608H1204.55L1204.29 220.624H1201.89V245.328ZM1209.06 235.984C1207.91 235.984 1206.37 235.504 1204.81 234.16V225.04C1206.5 223.472 1208.01 222.64 1209.48 222.64C1212.77 222.64 1214.05 225.232 1214.05 229.072C1214.05 233.392 1211.94 235.984 1209.06 235.984ZM1230.35 238.416C1232.71 238.416 1234.57 237.616 1236.11 236.624L1235.05 234.704C1233.77 235.568 1232.39 236.08 1230.7 236.08C1227.4 236.08 1225.13 233.712 1224.94 230H1236.65C1236.71 229.584 1236.78 228.976 1236.78 228.336C1236.78 223.376 1234.28 220.176 1229.87 220.176C1225.83 220.176 1222.03 223.696 1222.03 229.328C1222.03 235.056 1225.74 238.416 1230.35 238.416ZM1224.91 227.888C1225.26 224.496 1227.43 222.512 1229.9 222.512C1232.62 222.512 1234.22 224.4 1234.22 227.888H1224.91Z" fill="black"/>
<rect width="922" height="280" rx="8" fill="#F0EFEC"/>
<circle cx="40" cy="42" r="12" fill="#BAB4A3"/>
<path d="M85.056 34.176H79.488L81.536 33.024C81.056 31.84 80.096 30.08 79.232 28.768L76.416 30.144C77.12 31.36 77.92 32.96 78.432 34.176H73.056V37.184H85.056V34.176ZM83.904 38.624H74.432V41.504H83.904V38.624ZM74.432 45.792H83.904V42.912H74.432V45.792ZM80.96 53.952H77.44V50.368H80.96V53.952ZM87.392 41.44C87.392 46.752 87.072 52.128 84.096 56.512V47.328H74.336V58.368H77.44V57.024H83.744L83.616 57.184C84.64 57.568 86.272 58.464 87.104 59.04C90.592 54.048 90.976 47.584 90.976 41.472V30.272H87.392V41.44ZM92.928 55.616H96.352V31.84H92.928V55.616ZM98.368 29.984V58.72H102.112V29.984H98.368ZM107.872 49.92C107.68 52.672 107.296 55.648 106.528 57.6C107.296 57.792 108.704 58.208 109.312 58.56C109.984 56.544 110.496 53.344 110.752 50.368L107.872 49.92ZM111.392 50.336C111.744 52.704 112.032 55.744 112.064 57.76L114.752 57.248C114.656 55.232 114.336 52.224 113.984 49.888L111.392 50.336ZM122.208 40.928C122.784 42.144 123.296 43.776 123.392 44.864L125.344 44.288C125.184 43.232 124.64 41.6 124.064 40.416L122.208 40.928ZM121.76 39.968H125.504V45.216H121.76V39.968ZM132.256 40.864L130.176 40.288C129.92 41.472 129.344 43.232 128.896 44.352L130.656 44.928C131.136 43.904 131.712 42.464 132.256 41.056V45.216H128.544V39.968H132.256V40.864ZM135.392 48.192V36.992H128.832V35.232H135.968V31.968H128.832V28.928H125.216V31.968H118.176V35.168L115.232 33.408C114.592 34.848 113.856 36.352 113.056 37.696L110.976 37.856C112.544 35.552 114.048 32.8 115.168 30.144L111.84 28.768C110.816 32.16 108.832 35.712 108.192 36.608C107.584 37.568 107.072 38.176 106.464 38.368C106.848 39.232 107.392 40.864 107.584 41.536C108.032 41.312 108.736 41.152 111.072 40.864C110.272 42.144 109.536 43.072 109.12 43.52C108.128 44.736 107.456 45.472 106.688 45.632C107.072 46.56 107.648 48.256 107.808 48.896C108.512 48.608 109.632 48.32 115.616 47.424C115.712 47.968 115.776 48.48 115.84 48.896L118.624 48.032C118.432 46.336 117.696 43.52 116.96 41.376L114.304 42.08C114.528 42.816 114.784 43.68 114.976 44.544L111.84 44.928C114.208 42.08 116.544 38.624 118.304 35.232H125.216V36.992H118.816V48.192H123.584C122.272 50.464 120.288 52.672 118.24 54.016C117.952 52.448 117.44 50.56 116.992 49.024L114.592 49.728C115.168 51.712 115.744 54.336 115.936 56.064L118.4 55.296C118.976 56 119.488 56.768 119.808 57.376C121.76 55.968 123.744 53.76 125.312 51.424V58.784H128.928V50.272C130.496 52.928 132.416 55.456 134.144 57.056C134.72 56.224 135.872 55.04 136.64 54.4C134.656 52.96 132.352 50.56 130.688 48.192H135.392ZM147.616 52.736V48.96H162.432V52.736H147.616ZM162.432 41.6V45.376H147.616V41.6H162.432ZM162.432 34.336V38.016H147.616V34.336H162.432ZM143.776 30.624V58.432H147.616V56.448H162.432V58.432H166.464V30.624H143.776ZM194.784 34.528H193.088V33.088H194.784V34.528ZM199.328 37.216V39.616H197.504V37.216H199.328ZM193.088 37.216H194.784V39.616H193.088V37.216ZM188.672 37.216H190.4V39.616H188.672V37.216ZM190.4 34.528H185.6V42.304H202.624V34.528H197.504V33.088H203.2V30.08H184.992V33.088H190.4V34.528ZM201.312 46.304V43.424H186.944V46.304H201.312ZM185.568 45.504C185.024 44.576 182.624 40.864 181.792 39.776V38.368H184.896V34.848H181.792V28.896H178.336V34.848H174.336V38.368H177.856C176.992 41.984 175.296 46.432 173.536 48.896C174.08 49.888 174.912 51.648 175.296 52.768C176.448 50.944 177.472 48.288 178.336 45.408V58.752H181.792V44.512C182.432 45.824 183.008 47.168 183.36 48.096L185.568 45.504ZM187.712 51.232C186.848 53.024 185.312 54.912 183.68 56.16C184.48 56.64 185.888 57.6 186.528 58.176C188.128 56.704 189.92 54.4 191.008 52.16L187.712 51.232ZM203.264 50.56V47.584H185.024V50.56H192.288V58.752H195.68V50.56H203.264ZM196.864 52.672C198.304 54.272 199.968 56.512 200.672 57.952L203.616 56.224C202.784 54.848 201.12 52.768 199.616 51.264L196.864 52.672Z" fill="#8D887C"/>
<path d="M52 110.448C50.112 110.448 48.608 111.952 48.608 113.84C48.608 115.728 50.112 117.232 52 117.232C53.888 117.232 55.392 115.728 55.392 113.84C55.392 111.952 53.888 110.448 52 110.448ZM103.776 104.56C102.88 103.28 100.928 101.328 99.36 100.016L97.6 101.2C99.168 102.576 101.024 104.592 101.888 105.936L103.776 104.56ZM88.704 115.152L88.416 112.976C87.072 113.328 85.728 113.744 84.448 114.096V107.888H88.352V105.648H84.448V99.248H82.144V105.648H77.568V107.888H82.144V114.736C80.288 115.248 78.56 115.728 77.184 116.048L77.888 118.352C79.168 117.968 80.608 117.584 82.144 117.104V125.424C82.144 125.872 81.952 126.032 81.504 126.032C81.12 126.032 79.744 126.064 78.208 126C78.528 126.64 78.848 127.6 78.944 128.208C81.152 128.208 82.464 128.144 83.296 127.76C84.128 127.408 84.448 126.768 84.448 125.424V116.4L88.704 115.152ZM102.432 111.152C101.376 113.552 99.808 115.984 97.888 118.128C97.216 115.76 96.64 112.912 96.224 109.712L106.016 108.656L105.76 106.48L95.968 107.472C95.712 104.912 95.52 102.192 95.392 99.344H93.024C93.152 102.288 93.376 105.072 93.632 107.728L88.736 108.24L88.96 110.48L93.856 109.968C94.368 113.872 95.008 117.328 95.968 120.144C93.536 122.416 90.72 124.336 87.776 125.488C88.448 125.968 89.184 126.736 89.632 127.344C92.16 126.192 94.656 124.496 96.864 122.48C98.4 126 100.544 128.08 103.392 128.304C104.992 128.432 106.24 126.832 106.976 121.648C106.464 121.456 105.44 120.88 104.96 120.336C104.64 123.888 104.128 125.616 103.264 125.552C101.44 125.36 99.936 123.568 98.752 120.624C101.088 118.128 103.04 115.248 104.384 112.336L102.432 111.152ZM135.584 115.12V124.24H126.816V113.104H136.896V102.128H134.336V110.768H126.816V99.248H124.256V110.768H116.928V102.16H114.464V113.104H124.256V124.24H115.616V115.12H113.056V126.576H135.584V128.4H138.144V115.12H135.584ZM152.48 110.192C155.2 109.584 158.24 108.848 161.12 107.92C163.712 108.72 166.048 109.488 167.904 110.192H152.48ZM166.592 104.112C165.152 104.88 163.296 105.584 161.248 106.256C158.528 105.456 155.712 104.72 153.216 104.112H166.592ZM173.312 112.176V110.192H168.672L169.952 109.008C168.352 108.432 166.176 107.728 163.84 107.024C165.664 106.384 167.328 105.648 168.736 104.88L167.456 104.112H172.352V102.16H161.6C160.992 101.168 160 99.888 159.168 98.928L157.472 99.792C158.048 100.496 158.656 101.36 159.2 102.16H147.392V104.112H152.512L151.104 105.264C153.376 105.776 155.872 106.416 158.304 107.12C155.552 107.888 152.64 108.528 150.112 109.008C150.432 109.296 150.944 109.776 151.264 110.192H147.232V116.912C147.232 120.112 146.912 124.24 144.32 127.216C144.832 127.504 145.76 128.304 146.112 128.752C148.992 125.456 149.536 120.56 149.536 116.944V112.176H173.312ZM162.912 125.392V122.192H170.816V120.272H162.912V117.424H171.52V115.472H162.912V112.752H160.576V115.472H154.976C155.296 114.736 155.584 114.032 155.872 113.296L153.824 112.72C152.896 115.28 151.36 117.744 149.6 119.408C150.016 119.824 150.624 120.944 150.848 121.36C151.936 120.336 152.992 118.96 153.888 117.424H160.576V120.272H153.12V122.192H160.576V125.392H150.112V127.408H173.824V125.392H162.912ZM199.2 108.912H186.496V102.864H199.2V108.912ZM201.6 100.592H184.192V111.184H201.6V100.592ZM188.512 116.848V124.432H181.824V116.848H188.512ZM179.552 128.464H181.824V126.736H188.512V128.176H190.848V114.544H179.552V128.464ZM196.64 124.432V116.848H203.904V124.432H196.64ZM194.336 114.544V128.464H196.64V126.736H203.904V128.24H206.24V114.544H194.336ZM222.176 113.168H215.456V106.48H222.176V113.168ZM215.456 122.96V115.28H222.176V122.96H215.456ZM218.144 99.152C217.92 100.656 217.344 102.8 216.864 104.336H213.28V127.632H215.456V125.104H224.352V104.336H219.04C219.584 102.96 220.16 101.2 220.704 99.632L218.144 99.152ZM240 104.24H230.432C230.976 102.736 231.424 101.2 231.808 99.632L229.536 99.088C228.512 103.472 226.784 107.888 224.64 110.704C225.152 111.024 226.176 111.664 226.592 112.048C227.712 110.544 228.704 108.592 229.6 106.448H237.728C237.312 119.184 236.832 124.048 235.776 125.168C235.456 125.584 235.104 125.648 234.464 125.648C233.728 125.648 231.808 125.648 229.728 125.456C230.176 126.128 230.464 127.088 230.528 127.792C232.32 127.888 234.144 127.952 235.264 127.824C236.352 127.728 237.088 127.44 237.792 126.544C239.072 124.976 239.488 120.048 240 105.456V104.24ZM234.944 118.64C233.92 116.752 231.712 113.68 229.92 111.408L228.064 112.496C229.824 114.8 231.968 117.968 232.928 119.888L234.944 118.64ZM252.896 103.12C251.84 102.064 249.696 100.592 248.064 99.632L246.56 101.2C248.192 102.224 250.336 103.824 251.36 104.912L252.896 103.12ZM251.936 111.472C250.816 110.48 248.544 109.104 246.784 108.24L245.344 109.84C247.104 110.8 249.344 112.272 250.432 113.296L251.936 111.472ZM248.16 128.016C249.568 125.104 251.168 121.168 252.352 117.872L250.432 116.592C249.152 120.176 247.328 124.304 246.048 126.768L248.16 128.016ZM255.488 106.48C255.68 105.136 255.904 103.568 256.032 102.192H258.24V103.728C258.24 104.56 258.208 105.488 258.016 106.48H255.488ZM259.296 111.184C259.296 112.592 258.592 113.36 258.176 113.68C258.496 113.968 258.944 114.64 259.136 115.056C259.52 114.64 260.192 114.224 263.968 112.336C263.808 112.016 263.552 111.344 263.424 110.832L260.96 111.952V108.368H263.264V106.48H259.904C260.096 105.456 260.16 104.56 260.16 103.728V102.192H262.88V100.432H253.408V102.192H254.24C254.08 104.24 253.792 106.736 253.472 108.368H257.472C256.736 110.224 255.232 112.112 252.352 113.776C252.8 114.128 253.408 114.736 253.664 115.152C256.832 113.168 258.464 110.832 259.296 108.688V111.184ZM269.952 117.552V120.304H257.408V117.552H269.952ZM257.408 125.072V122.032H269.952V125.072H257.408ZM255.2 128.4H257.408V126.992H269.952V128.304H272.288V115.632H255.2V128.4ZM265.824 106.544C266.016 105.168 266.24 103.6 266.4 102.192H268.544V104.048C268.544 104.784 268.512 105.616 268.384 106.544H265.824ZM271.2 112.912C270.752 112.912 270.688 112.88 270.688 112.368V109.392H269.472C269.6 109.104 269.728 108.752 269.824 108.432H274.24V106.544H270.24C270.4 105.648 270.432 104.816 270.432 104.08V102.192H273.984V100.432H263.872V102.192H264.672C264.48 104.272 264.192 106.768 263.904 108.432H267.936C267.264 110.32 265.952 112.272 263.232 113.872C263.68 114.192 264.256 114.8 264.512 115.216C266.688 113.744 268.096 112.144 268.96 110.48V112.368C268.96 114.128 269.376 114.576 271.008 114.576H272.832C274.112 114.576 274.592 113.904 274.752 111.12C274.24 110.992 273.568 110.704 273.216 110.448C273.152 112.752 273.056 112.912 272.544 112.912H271.2ZM299.072 116.464H306.272V114.224H299.072V108.112H296.704V114.224H289.536V116.464H296.704V125.456H288.288V127.696H307.52V125.456H299.072V116.464ZM291.04 104.176C291.616 102.736 292.16 101.264 292.576 99.824L290.144 99.216C289.696 100.848 289.12 102.544 288.448 104.176H279.712V106.448H287.392C285.408 110.512 282.592 114.288 278.944 116.88C279.328 117.392 279.936 118.384 280.16 119.024C281.504 118.064 282.752 117.008 283.872 115.792V128.304H286.208V112.976C287.712 110.928 288.96 108.752 290.08 106.448H307.52V104.176H291.04ZM323.456 102.512V105.2H316.576V102.512H323.456ZM316.576 109.872V106.96H323.456V109.872H316.576ZM325.728 111.792V100.592H314.24V128.464H316.576V111.792H325.728ZM330.816 116.656V121.936H323.296V116.656H330.816ZM333.024 123.952V114.64H321.12V125.872H323.296V123.952H333.024ZM330.848 109.904V106.96H337.952V109.904H330.848ZM337.952 102.48V105.2H330.848V102.48H337.952ZM340.352 100.592H328.576V111.792H337.952V125.232C337.952 125.84 337.76 126.032 337.184 126.032C336.544 126.064 334.464 126.096 332.384 126C332.704 126.64 333.088 127.76 333.216 128.432C336 128.432 337.824 128.4 338.944 128.016C339.968 127.6 340.352 126.8 340.352 125.232V100.592ZM371.488 109.2H363.872V106.8H371.488V109.2ZM371.488 113.232H363.872V110.864H371.488V113.232ZM371.488 117.328H363.872V114.928H371.488V117.328ZM361.728 105.04V119.088H373.696V105.04H367.776C368.064 104.304 368.384 103.44 368.672 102.608H374.976V100.784H360.512V102.608H366.464C366.272 103.408 366.016 104.272 365.76 105.04H361.728ZM368.8 120.528C370.56 121.712 372.64 123.536 373.696 124.816L375.424 123.696C374.368 122.48 372.288 120.72 370.432 119.6L368.8 120.528ZM364.384 119.632C363.168 121.104 361.12 122.544 359.104 123.472C359.584 123.792 360.352 124.592 360.704 124.976C362.72 123.824 364.992 122.032 366.368 120.272L364.384 119.632ZM356.64 104.688H350.4V102.32H356.64V104.688ZM356.64 108.784H350.4V106.352H356.64V108.784ZM358.816 100.56H348.256V110.544H358.816V100.56ZM354.752 119.984H360.16V118.16H354.752V114.736H360.704V112.88H346.368V114.736H352.704V123.248C351.744 122.48 350.944 121.456 350.336 120.144C350.464 118.96 350.528 117.712 350.592 116.496H348.608C348.448 120.4 347.904 124.688 345.984 126.992C346.496 127.344 347.2 128.08 347.488 128.528C348.704 127.056 349.472 125.008 349.92 122.704C352.8 126.992 357.568 127.76 364.48 127.76H374.752C374.88 127.12 375.264 126.224 375.616 125.712C373.76 125.776 365.888 125.776 364.48 125.776C360.544 125.744 357.28 125.552 354.752 124.464V119.984ZM52 166.448C50.112 166.448 48.608 167.952 48.608 169.84C48.608 171.728 50.112 173.232 52 173.232C53.888 173.232 55.392 171.728 55.392 169.84C55.392 167.952 53.888 166.448 52 166.448ZM96.416 165.744H90.816V162.48H96.416V165.744ZM96.416 170.928H90.816V167.632H96.416V170.928ZM96.416 176.24H90.816V172.816H96.416V176.24ZM88.64 178.288H106.112V176.24H98.528V172.816H104.544V170.928H98.528V167.632H104.512V165.744H98.528V162.48H105.408V160.496H99.904C99.424 159.184 98.432 157.2 97.472 155.696L95.52 156.304C96.256 157.584 97.088 159.216 97.568 160.496H91.328C92 159.024 92.672 157.52 93.184 156.016L91.2 155.44C89.728 159.632 87.424 163.792 84.832 166.544C85.28 166.96 85.952 167.952 86.208 168.368C87.04 167.44 87.84 166.384 88.64 165.168V178.288ZM84.64 160.144C83.744 158.864 81.984 156.816 80.544 155.28L78.784 156.368C80.192 157.936 81.952 160.112 82.816 161.456L84.64 160.144ZM84.704 170.416L84.288 170.48H80.64C82.464 168.336 84.864 165.04 86.24 163.184L84.672 162.448L84.256 162.608H77.632V164.56H82.752C81.376 166.512 79.488 169.04 78.72 169.776C78.176 170.384 77.664 170.576 77.184 170.704C77.44 171.216 77.92 172.304 78.08 172.88C78.304 172.624 79.136 172.432 79.968 172.432H83.424C82.4 177.424 80.064 180.944 77.024 182.896C77.472 183.216 78.272 184.048 78.592 184.528C80.224 183.408 81.632 181.872 82.848 179.856C85.344 183.312 89.312 183.984 95.712 183.984C99.2 183.984 103.168 183.888 106.144 183.728C106.272 183.056 106.592 181.968 106.944 181.456C103.68 181.712 99.04 181.872 95.712 181.872C89.888 181.872 85.92 181.392 83.776 178.064C84.736 176.048 85.44 173.648 85.888 170.864L84.704 170.416ZM139.136 157.168H123.52V159.408H139.136V157.168ZM118.176 155.216C116.576 157.488 113.504 160.368 110.848 162.16C111.264 162.608 111.904 163.536 112.256 164.048C115.104 162.032 118.368 158.928 120.448 156.112L118.176 155.216ZM119.488 162.032C117.28 165.648 113.824 169.328 110.528 171.664C111.008 172.144 111.84 173.168 112.192 173.648C113.376 172.72 114.592 171.568 115.808 170.32V184.528H118.176V167.696C119.488 166.128 120.704 164.496 121.696 162.864L119.488 162.032ZM140.064 165.904H122.144V168.176H132.832V181.36C132.832 181.904 132.64 182.032 132.032 182.064C131.424 182.096 129.312 182.096 127.04 182.032C127.392 182.704 127.712 183.696 127.808 184.336C130.944 184.336 132.736 184.336 133.824 183.984C134.88 183.6 135.232 182.864 135.232 181.392V168.176H140.064V165.904ZM151.552 163.728H167.264V166.896H151.552V163.728ZM151.552 158.672H167.264V161.84H151.552V158.672ZM153.568 171.6C154.24 170.736 154.944 169.84 155.488 168.912H169.664V156.688H149.216V168.912H152.736C150.72 171.856 147.648 174.48 144.544 176.24C145.12 176.624 146.016 177.456 146.4 177.904C148.16 176.816 149.952 175.376 151.584 173.744H156.032C153.92 177.168 150.656 180.176 147.232 182.096C147.776 182.512 148.672 183.376 149.056 183.792C152.704 181.456 156.32 177.872 158.656 173.744H162.976C161.44 177.552 159.008 180.944 156.064 183.152C156.64 183.472 157.568 184.24 157.984 184.624C161.024 182.096 163.712 178.224 165.408 173.744H169.312C168.8 179.248 168.256 181.52 167.552 182.16C167.264 182.48 166.944 182.512 166.4 182.512C165.824 182.512 164.352 182.512 162.816 182.352C163.168 182.928 163.424 183.792 163.456 184.432C165.056 184.528 166.592 184.528 167.392 184.464C168.32 184.432 168.928 184.208 169.536 183.568C170.496 182.576 171.136 179.824 171.744 172.688C171.808 172.336 171.84 171.6 171.84 171.6H153.568ZM194.144 172.432V167.12H202.752V172.432H194.144ZM184 172.432C184.096 171.248 184.128 170.064 184.128 169.008V167.12H191.776V172.432H184ZM191.776 159.76V164.88H184.128V159.76H191.776ZM202.752 164.88H194.144V159.76H202.752V164.88ZM205.088 157.488H181.792V169.008C181.792 173.456 181.472 179.088 177.952 183.056C178.464 183.344 179.424 184.144 179.776 184.624C182.208 181.904 183.296 178.256 183.776 174.704H191.776V184.144H194.144V174.704H202.752V181.2C202.752 181.808 202.528 182 201.888 182.032C201.312 182.032 199.136 182.064 196.896 181.968C197.216 182.608 197.6 183.632 197.696 184.272C200.704 184.304 202.56 184.272 203.648 183.888C204.672 183.472 205.088 182.768 205.088 181.232V157.488ZM213.248 170.096C214.08 167.76 214.688 164.144 214.848 161.52L213.056 161.264C212.832 163.856 212.256 167.344 211.392 169.456L213.248 170.096ZM216 184.432H218.368V155.216H216V184.432ZM218.592 161.104C219.488 162.864 220.448 165.168 220.8 166.544L222.592 165.68C222.208 164.336 221.216 162.064 220.256 160.336L218.592 161.104ZM232.64 181.072V173.072H239.168V170.864H232.64V164.24H239.872V161.968H232.64V155.344H230.272V161.968H226.272C226.72 160.4 227.104 158.736 227.424 157.072L225.12 156.688C224.384 161.04 223.104 165.328 221.248 168.112C221.824 168.368 222.88 168.88 223.36 169.2C224.224 167.824 224.96 166.16 225.6 164.24H230.272V170.864H223.488V173.072H230.272V181.072H221.12V183.344H240.64V181.072H232.64ZM256.096 164.656H261.152V168.592H256.096V164.656ZM256.096 170.576H261.152V174.576H256.096V170.576ZM256.096 158.768H261.152V162.672H256.096V158.768ZM254.048 156.656V176.656H263.296V156.656H254.048ZM259.68 178.224C260.96 179.792 262.528 181.968 263.232 183.312L265.12 182.128C264.384 180.848 262.784 178.736 261.472 177.232L259.68 178.224ZM255.36 177.328C254.432 179.504 252.8 181.744 251.104 183.216C251.616 183.536 252.576 184.176 252.96 184.528C254.656 182.928 256.48 180.368 257.568 177.904L255.36 177.328ZM271.264 155.248V181.488C271.264 182.032 271.04 182.192 270.496 182.192C270.016 182.224 268.32 182.256 266.432 182.192C266.752 182.8 267.04 183.824 267.136 184.432C269.76 184.432 271.264 184.368 272.16 183.984C273.056 183.6 273.408 182.928 273.408 181.456V155.248H271.264ZM265.696 158.512V176.688H267.808V158.512H265.696ZM246.688 157.264C248.48 158.16 250.688 159.632 251.712 160.688L253.12 158.8C252.032 157.744 249.856 156.4 248.064 155.568L246.688 157.264ZM245.312 165.808C247.2 166.64 249.472 167.984 250.56 168.976L251.904 167.024C250.784 166.032 248.512 164.816 246.656 164.08L245.312 165.808ZM245.984 182.768L248.128 184.048C249.504 181.104 251.104 177.2 252.288 173.872L250.368 172.624C249.088 176.208 247.264 180.304 245.984 182.768ZM307.36 159.856C306.816 158.768 305.6 157.104 304.48 155.92L302.816 156.848C303.936 158.128 305.12 159.888 305.632 160.976L307.36 159.856ZM286.464 159.184C286.016 158.064 284.96 156.4 284.032 155.088L282.208 156.016C283.072 157.36 284.096 159.12 284.576 160.304L286.464 159.184ZM287.04 175.248V180.528H282.592V175.248H287.04ZM289.12 173.264H280.544V184.016H282.592V182.512H289.12V173.264ZM280.576 170.896H289.088V169.008H280.576V170.896ZM289.088 164.848H280.576V166.736H289.088V164.848ZM279.232 162.608H289.664V160.656H279.232V162.608ZM295.712 170.384H299.136V168.24H290.176V170.384H293.536V178.832C292.096 179.184 290.784 179.504 289.664 179.76L290.336 182.064C293.184 181.232 296.896 180.208 300.416 179.12L300.192 177.104C298.688 177.488 297.152 177.904 295.712 178.288V170.384ZM308.288 163.728V161.488H302.08C302.016 159.504 301.984 157.456 302.016 155.312H299.68C299.712 157.424 299.744 159.472 299.808 161.488H290.464V163.728H299.904C300.416 175.344 301.888 184.496 305.472 184.496C307.456 184.496 308.096 182.992 308.448 178.224C307.904 178 307.168 177.456 306.656 176.944C306.56 180.528 306.272 182.16 305.792 182.16C304.096 182.16 302.592 174.416 302.144 163.728H308.288ZM52 222.448C50.112 222.448 48.608 223.952 48.608 225.84C48.608 227.728 50.112 229.232 52 229.232C53.888 229.232 55.392 227.728 55.392 225.84C55.392 223.952 53.888 222.448 52 222.448ZM84.768 211.216H82.592V217.36H77.696V219.6H82.336C81.344 223.952 79.328 229.008 77.248 231.696C77.664 232.24 78.272 233.296 78.528 233.968C80.032 231.856 81.504 228.368 82.592 224.784V240.432H84.768V224.016C85.632 225.584 86.624 227.504 87.04 228.528L88.48 226.832C87.936 225.904 85.6 222.224 84.768 221.104V219.6H88.512V217.36H84.768V211.216ZM92.096 220.56H101.664V224.528H92.096V220.56ZM101.664 214.736V218.576H92.096V214.736H101.664ZM104.256 227.632C102.976 228.816 100.928 230.32 99.264 231.376C98.464 229.936 97.792 228.336 97.312 226.608H103.968V212.624H89.76V236.56C89.76 237.776 89.28 238.224 88.864 238.448C89.184 238.928 89.696 239.92 89.856 240.464C90.464 240.048 91.424 239.728 98.016 237.936C97.952 237.424 97.888 236.528 97.92 235.856L92.096 237.264V226.608H95.264C96.928 233.008 100 237.872 105.152 240.208C105.536 239.6 106.24 238.64 106.784 238.192C104.128 237.136 101.984 235.344 100.32 233.072C102.112 232.048 104.224 230.608 105.856 229.296L104.256 227.632ZM120.576 226.896L120.288 224.688L117.12 225.68V219.856H120.032V217.648H117.12V211.248H114.944V217.648H111.04V219.856H114.944V226.384C113.312 226.896 111.808 227.312 110.592 227.664L111.2 229.968C112.352 229.616 113.6 229.168 114.944 228.72V237.744C114.944 238.192 114.784 238.32 114.4 238.32C114.048 238.32 112.768 238.32 111.392 238.288C111.712 238.928 112 239.888 112.096 240.464C114.112 240.496 115.296 240.4 116.032 240.048C116.832 239.632 117.12 239.024 117.12 237.744V228.016L120.576 226.896ZM123.296 218.544H128.192V220.528L124.032 220.912L124.256 222.736L128.192 222.352C128.224 224.08 128.704 224.848 130.72 224.848H135.616C136.48 224.848 137.472 224.816 137.92 224.688C137.856 224.24 137.792 223.664 137.76 223.152C137.248 223.28 136.096 223.28 135.488 223.28H131.04C130.304 223.28 130.176 223.056 130.176 222.288V221.872L135.52 221.36L135.36 219.888L130.176 220.368V218.544H137.376C137.12 219.44 136.8 220.4 136.512 221.04L138.336 221.456C138.88 220.368 139.456 218.576 139.872 217.04L138.432 216.688L138.048 216.752H130.72V214.992H138.208V213.232H130.72V211.28H128.416V216.752H121.216V225.776C121.216 229.936 120.896 235.344 118.048 239.216C118.56 239.44 119.424 240.08 119.808 240.432C122.848 236.368 123.296 230.256 123.296 225.776V218.544ZM138.336 228.72C136.896 229.616 134.496 230.832 132.512 231.696C132.064 230.832 131.456 230.064 130.688 229.36C131.488 228.848 132.256 228.336 132.832 227.792H139.808V226.128H124.192V227.792H130.592C128.8 229.008 126.112 230.096 123.808 230.736C124 231.056 124.384 231.696 124.576 232.016C126.08 231.6 127.744 230.928 129.248 230.16C129.568 230.448 129.824 230.768 130.08 231.088C128.384 232.368 125.536 233.648 123.264 234.224C123.616 234.544 124 235.152 124.192 235.568C126.4 234.8 129.024 233.456 130.816 232.176C131.008 232.56 131.2 232.944 131.296 233.296C129.408 235.184 125.728 237.232 122.816 238.128C123.2 238.48 123.616 239.152 123.84 239.568C126.432 238.512 129.568 236.656 131.712 234.864C131.968 236.464 131.648 237.872 131.168 238.352C130.848 238.768 130.432 238.8 129.92 238.8C129.472 238.8 128.8 238.768 128.064 238.704C128.384 239.184 128.544 239.952 128.576 240.432C129.216 240.464 129.792 240.496 130.272 240.496C131.264 240.496 131.872 240.272 132.544 239.664C133.664 238.64 134.112 235.728 133.056 232.944C133.536 232.752 134.048 232.56 134.56 232.368C135.392 235.408 136.96 238.192 139.168 239.6C139.456 239.088 140.096 238.384 140.544 238.032C138.368 236.912 136.832 234.448 136.032 231.728C137.344 231.152 138.624 230.48 139.712 229.872L138.336 228.72ZM159.296 238.192C158.272 237.648 156.896 236.976 155.424 236.336C156.896 235.056 157.568 233.68 157.824 232.368H161.216V230.64H158.016V230.448V229.36H156.064V230.416V230.64H152.032C152.384 229.936 152.736 229.264 153.056 228.592H160.288V225.616C160.768 226.032 161.44 226.608 161.728 226.928C162.368 225.904 162.944 224.72 163.488 223.376C164.096 226.48 164.832 229.328 165.856 231.824C164.352 234.576 162.176 236.656 159.232 238.256L159.296 238.192ZM155.808 232.368C155.488 233.392 154.816 234.512 153.408 235.536C152.224 235.056 151.008 234.64 149.856 234.288C150.24 233.68 150.624 233.04 151.04 232.368H155.808ZM148.192 224.944H152.16V227.056H148.192V224.944ZM158.176 224.944V227.056H154.048V224.944H158.176ZM169.248 219.664C168.832 223.472 168.128 226.672 167.04 229.424C165.952 226.64 165.216 223.472 164.704 220.048L164.864 219.664H169.248ZM148.768 220.368V218.32H152.16V220.368H148.768ZM152.16 214.96V216.72H148.768V214.96H152.16ZM157.696 214.96V216.72H154.048V214.96H157.696ZM154.048 220.368V218.32H157.696V220.368H154.048ZM173.792 219.664V217.52H165.504C166.016 215.6 166.496 213.584 166.88 211.632L164.8 211.216C163.904 216.432 162.4 221.648 160.288 225.136V223.44H154.048V222.032H159.648V218.416H161.472V216.624H159.648V213.296H154.048V211.216H152.16V213.296H146.912V216.624H144.704V218.416H146.912V222.032H152.16V223.44H146.144V228.592H150.88C150.56 229.264 150.24 229.936 149.856 230.64H144.736V232.368H148.864C148.192 233.392 147.52 234.416 146.912 235.184C148.384 235.568 149.952 236.112 151.456 236.688C149.792 237.488 147.52 238.224 144.48 238.832C144.864 239.248 145.344 239.952 145.504 240.432C149.216 239.632 151.84 238.672 153.664 237.616C155.264 238.256 156.704 238.992 157.76 239.6L158.528 238.896C158.912 239.376 159.424 240.08 159.616 240.496C162.784 238.832 165.152 236.72 166.912 234.032C168.352 236.688 170.176 238.864 172.512 240.304C172.864 239.696 173.568 238.896 174.048 238.48C171.52 237.104 169.568 234.8 168.128 231.92C169.76 228.624 170.784 224.592 171.36 219.664H173.792ZM187.776 226.896L187.488 224.688L184.32 225.68V219.856H187.232V217.648H184.32V211.248H182.144V217.648H178.24V219.856H182.144V226.384C180.512 226.896 179.008 227.312 177.792 227.664L178.4 229.968C179.552 229.616 180.8 229.168 182.144 228.72V237.744C182.144 238.192 181.984 238.32 181.6 238.32C181.248 238.32 179.968 238.32 178.592 238.288C178.912 238.928 179.2 239.888 179.296 240.464C181.312 240.496 182.496 240.4 183.232 240.048C184.032 239.632 184.32 239.024 184.32 237.744V228.016L187.776 226.896ZM190.496 218.544H195.392V220.528L191.232 220.912L191.456 222.736L195.392 222.352C195.424 224.08 195.904 224.848 197.92 224.848H202.816C203.68 224.848 204.672 224.816 205.12 224.688C205.056 224.24 204.992 223.664 204.96 223.152C204.448 223.28 203.296 223.28 202.688 223.28H198.24C197.504 223.28 197.376 223.056 197.376 222.288V221.872L202.72 221.36L202.56 219.888L197.376 220.368V218.544H204.576C204.32 219.44 204 220.4 203.712 221.04L205.536 221.456C206.08 220.368 206.656 218.576 207.072 217.04L205.632 216.688L205.248 216.752H197.92V214.992H205.408V213.232H197.92V211.28H195.616V216.752H188.416V225.776C188.416 229.936 188.096 235.344 185.248 239.216C185.76 239.44 186.624 240.08 187.008 240.432C190.048 236.368 190.496 230.256 190.496 225.776V218.544ZM205.536 228.72C204.096 229.616 201.696 230.832 199.712 231.696C199.264 230.832 198.656 230.064 197.888 229.36C198.688 228.848 199.456 228.336 200.032 227.792H207.008V226.128H191.392V227.792H197.792C196 229.008 193.312 230.096 191.008 230.736C191.2 231.056 191.584 231.696 191.776 232.016C193.28 231.6 194.944 230.928 196.448 230.16C196.768 230.448 197.024 230.768 197.28 231.088C195.584 232.368 192.736 233.648 190.464 234.224C190.816 234.544 191.2 235.152 191.392 235.568C193.6 234.8 196.224 233.456 198.016 232.176C198.208 232.56 198.4 232.944 198.496 233.296C196.608 235.184 192.928 237.232 190.016 238.128C190.4 238.48 190.816 239.152 191.04 239.568C193.632 238.512 196.768 236.656 198.912 234.864C199.168 236.464 198.848 237.872 198.368 238.352C198.048 238.768 197.632 238.8 197.12 238.8C196.672 238.8 196 238.768 195.264 238.704C195.584 239.184 195.744 239.952 195.776 240.432C196.416 240.464 196.992 240.496 197.472 240.496C198.464 240.496 199.072 240.272 199.744 239.664C200.864 238.64 201.312 235.728 200.256 232.944C200.736 232.752 201.248 232.56 201.76 232.368C202.592 235.408 204.16 238.192 206.368 239.6C206.656 239.088 207.296 238.384 207.744 238.032C205.568 236.912 204.032 234.448 203.232 231.728C204.544 231.152 205.824 230.48 206.912 229.872L205.536 228.72ZM223.776 231.984C227.136 230.8 229.312 228.176 229.312 224.72C229.312 222.48 228.352 221.04 226.592 221.04C225.28 221.04 224.16 221.84 224.16 223.344C224.16 224.848 225.248 225.616 226.56 225.616C226.752 225.616 226.912 225.616 227.104 225.584C226.944 227.76 225.536 229.264 223.072 230.288L223.776 231.984ZM251.424 211.408C250.016 216.304 247.648 221.2 245.056 224.4C245.44 224.976 246.08 226.256 246.304 226.8C247.264 225.616 248.192 224.208 249.056 222.672V240.464H251.328V218.16C252.192 216.176 252.96 214.096 253.6 212.016L251.424 211.408ZM259.84 233.648H268.224C267.104 234.608 265.568 235.536 263.648 236.272C262.016 235.664 260.576 234.896 259.392 234.032L259.84 233.648ZM270.176 231.952L269.76 232.048H261.696C262.176 231.6 262.592 231.152 262.976 230.672H266.816C268.48 230.672 269.024 230.192 269.216 228.368C268.704 228.272 267.968 228.08 267.584 227.824C267.488 229.072 267.328 229.232 266.592 229.232H262.624C261.568 229.232 261.376 229.136 261.376 228.528V226.672H259.392V228.528C259.392 229.744 259.68 230.288 260.608 230.512C259.904 231.312 258.976 232.08 257.92 232.848C257.568 232.496 257.216 232.144 256.96 231.76L255.104 232.464C255.488 232.944 255.872 233.424 256.32 233.872C255.36 234.448 254.24 234.992 253.056 235.504C253.536 235.792 254.144 236.432 254.464 236.912C255.648 236.336 256.768 235.76 257.76 235.12C258.72 235.888 259.808 236.56 260.992 237.168C258.624 237.84 255.808 238.384 252.64 238.736C253.088 239.216 253.6 239.984 253.856 240.528C257.6 240.016 260.896 239.28 263.648 238.288C266.496 239.344 269.76 240.08 273.184 240.496C273.472 239.888 274.016 239.088 274.432 238.608C271.552 238.352 268.768 237.872 266.304 237.168C268.672 235.984 270.496 234.512 271.648 232.816L270.176 231.952ZM257.76 226.672C257.056 227.792 255.808 229.168 254.496 229.904L255.904 231.024C257.312 230.128 258.464 228.688 259.264 227.472L257.76 226.672ZM273.504 230.192C272.736 229.168 271.168 227.632 269.824 226.576L268.48 227.376C269.824 228.496 271.392 230.064 272.096 231.152L273.504 230.192ZM258.72 222.768H269.376V224.144H258.72V222.768ZM269.376 217.52V218.896H258.72V217.52H269.376ZM269.376 221.52H258.72V220.144H269.376V221.52ZM271.616 224.144V216.144H264.352C264.576 215.632 264.8 215.056 265.024 214.48H274.08V212.656H254.24V214.48H262.528C262.4 215.024 262.272 215.6 262.112 216.144H256.544V224.144H253.408V228.432H255.488V225.68H263.104L262.048 226.384C263.136 226.992 264.448 228.016 265.152 228.688L266.496 227.728C265.856 227.088 264.672 226.256 263.648 225.68H272.448V228.432H274.592V224.144H271.616ZM287.616 211.344C285.568 216.24 282.144 221.008 278.656 224.016C279.072 224.592 279.744 225.808 280 226.384C281.472 225.008 282.944 223.344 284.32 221.52V240.464H286.624V218.128C287.84 216.208 288.896 214.16 289.824 212.08L287.616 211.344ZM297.536 237.2C295.872 237.2 295.52 236.816 295.52 235.12V222.736H306.88V220.432H295.52V211.728H293.216V235.056C293.216 238.448 294.208 239.376 297.376 239.376H303.456C306.816 239.376 307.456 237.328 307.84 231.408C307.168 231.248 306.24 230.8 305.632 230.32C305.376 235.792 305.12 237.2 303.328 237.2H297.536ZM319.552 219.728H335.264V222.896H319.552V219.728ZM319.552 214.672H335.264V217.84H319.552V214.672ZM321.568 227.6C322.24 226.736 322.944 225.84 323.488 224.912H337.664V212.688H317.216V224.912H320.736C318.72 227.856 315.648 230.48 312.544 232.24C313.12 232.624 314.016 233.456 314.4 233.904C316.16 232.816 317.952 231.376 319.584 229.744H324.032C321.92 233.168 318.656 236.176 315.232 238.096C315.776 238.512 316.672 239.376 317.056 239.792C320.704 237.456 324.32 233.872 326.656 229.744H330.976C329.44 233.552 327.008 236.944 324.064 239.152C324.64 239.472 325.568 240.24 325.984 240.624C329.024 238.096 331.712 234.224 333.408 229.744H337.312C336.8 235.248 336.256 237.52 335.552 238.16C335.264 238.48 334.944 238.512 334.4 238.512C333.824 238.512 332.352 238.512 330.816 238.352C331.168 238.928 331.424 239.792 331.456 240.432C333.056 240.528 334.592 240.528 335.392 240.464C336.32 240.432 336.928 240.208 337.536 239.568C338.496 238.576 339.136 235.824 339.744 228.688C339.808 228.336 339.84 227.6 339.84 227.6H321.568ZM362.144 228.432V223.12H370.752V228.432H362.144ZM352 228.432C352.096 227.248 352.128 226.064 352.128 225.008V223.12H359.776V228.432H352ZM359.776 215.76V220.88H352.128V215.76H359.776ZM370.752 220.88H362.144V215.76H370.752V220.88ZM373.088 213.488H349.792V225.008C349.792 229.456 349.472 235.088 345.952 239.056C346.464 239.344 347.424 240.144 347.776 240.624C350.208 237.904 351.296 234.256 351.776 230.704H359.776V240.144H362.144V230.704H370.752V237.2C370.752 237.808 370.528 238 369.888 238.032C369.312 238.032 367.136 238.064 364.896 237.968C365.216 238.608 365.6 239.632 365.696 240.272C368.704 240.304 370.56 240.272 371.648 239.888C372.672 239.472 373.088 238.768 373.088 237.232V213.488ZM381.248 226.096C382.08 223.76 382.688 220.144 382.848 217.52L381.056 217.264C380.832 219.856 380.256 223.344 379.392 225.456L381.248 226.096ZM384 240.432H386.368V211.216H384V240.432ZM386.592 217.104C387.488 218.864 388.448 221.168 388.8 222.544L390.592 221.68C390.208 220.336 389.216 218.064 388.256 216.336L386.592 217.104ZM400.64 237.072V229.072H407.168V226.864H400.64V220.24H407.872V217.968H400.64V211.344H398.272V217.968H394.272C394.72 216.4 395.104 214.736 395.424 213.072L393.12 212.688C392.384 217.04 391.104 221.328 389.248 224.112C389.824 224.368 390.88 224.88 391.36 225.2C392.224 223.824 392.96 222.16 393.6 220.24H398.272V226.864H391.488V229.072H398.272V237.072H389.12V239.344H408.64V237.072H400.64Z" fill="black"/>
</svg>
