<svg width="1256" height="428" viewBox="0 0 1256 428" fill="none" xmlns="http://www.w3.org/2000/svg">
<rect x="1" y="1" width="1254" height="426" fill="white"/>
<mask id="path-2-inside-1_245_3038" fill="white">
<path d="M2 2H242V107H2V2Z"/>
</mask>
<path d="M2 2H242V107H2V2Z" fill="#F0EFEC"/>
<path d="M101.288 43.76C99.58 48.156 96.696 52.412 93.672 55.1C94.092 55.604 94.736 56.668 94.96 57.172C96.136 56.08 97.228 54.792 98.292 53.364V69.1H100.336V50.284C101.484 48.408 102.492 46.392 103.332 44.376L101.288 43.76ZM119.852 57.592V55.576H112.04V48.212H118.704V46.224H103.808V48.212H109.968V55.576H101.96V57.592H109.968V66.076H102.828V68.092H119.236V66.076H112.04V57.592H119.852ZM144.464 48.268C143.82 49.696 142.896 50.872 141.748 51.88C140.432 50.844 139.34 49.612 138.584 48.268H144.464ZM133.264 60.42C133.88 59.272 134.44 57.676 134.916 56.052C135.224 56.444 135.532 56.864 135.672 57.144C137.94 56.444 140.012 55.52 141.776 54.288C143.624 55.604 145.78 56.612 148.132 57.256C148.412 56.696 149.028 55.912 149.448 55.464C147.208 54.988 145.136 54.148 143.372 53.028C144.8 51.74 145.948 50.172 146.732 48.268H148.888V46.504H139.592C140.068 45.72 140.516 44.908 140.88 44.096L138.892 43.564C137.772 46.224 135.756 48.772 133.572 50.396C134.076 50.676 134.888 51.264 135.28 51.6C135.952 51.04 136.624 50.34 137.296 49.612C138.08 50.872 139.06 52.02 140.18 53.028C138.752 53.952 137.044 54.652 135.168 55.184C135.308 54.68 135.448 54.176 135.588 53.7L134.328 53.252L134.02 53.364H131.948L133.012 52.16C132.424 51.628 131.584 51.04 130.66 50.48C132.34 49.192 134.132 47.4 135.224 45.72L133.88 44.88L133.516 44.964H124.108V46.784H132.032C131.192 47.764 130.128 48.772 129.092 49.556C128.196 49.08 127.244 48.632 126.376 48.268L125.088 49.612C127.272 50.564 129.848 52.132 131.304 53.364H123.8V55.184H128.028C126.992 58.04 125.256 61.036 123.52 62.688C123.884 63.22 124.388 64.032 124.612 64.62C126.152 63.052 127.608 60.42 128.7 57.732V66.72C128.7 67.028 128.588 67.112 128.252 67.14C127.888 67.14 126.796 67.14 125.592 67.112C125.872 67.644 126.152 68.512 126.236 69.016C127.916 69.016 129.008 68.988 129.736 68.708C130.436 68.344 130.66 67.784 130.66 66.72V55.184H133.348C132.928 56.808 132.368 58.544 131.836 59.692L133.264 60.42ZM141.72 59.188C141.888 58.292 142.028 57.368 142.112 56.416H140.012C139.928 57.368 139.816 58.292 139.648 59.188H134.832V60.924H139.2C138.332 63.78 136.568 66.132 132.704 67.532C133.124 67.896 133.684 68.652 133.936 69.128C138.416 67.392 140.376 64.48 141.356 60.924H146.06C145.64 64.76 145.22 66.328 144.688 66.86C144.408 67.112 144.184 67.14 143.736 67.14C143.288 67.14 142.168 67.112 140.964 67C141.272 67.532 141.468 68.372 141.524 68.932C142.784 69.016 143.96 68.988 144.632 68.96C145.36 68.876 145.892 68.736 146.368 68.232C147.18 67.42 147.712 65.292 148.216 60.084C148.244 59.748 148.272 59.188 148.272 59.188H141.72Z" fill="black"/>
<path d="M242 107V109H244V107H242ZM240 2V107H244V2H240ZM242 105H2V109H242V105Z" fill="#DEDEDE" mask="url(#path-2-inside-1_245_3038)"/>
<mask id="path-5-inside-2_245_3038" fill="white">
<path d="M242 2H343V107H242V2Z"/>
</mask>
<path d="M242 2H343V107H242V2Z" fill="#F0EFEC"/>
<path d="M286.316 68.5H299.18V66.068H294.476V45.012H292.236C290.956 45.78 289.452 46.324 287.372 46.708V48.564H291.532V66.068H286.316V68.5Z" fill="black"/>
<path d="M343 107V109H345V107H343ZM341 2V107H345V2H341ZM343 105H242V109H343V105Z" fill="#DEDEDE" mask="url(#path-5-inside-2_245_3038)"/>
<mask id="path-8-inside-3_245_3038" fill="white">
<path d="M343 2H444V107H343V2Z"/>
</mask>
<path d="M343 2H444V107H343V2Z" fill="#F0EFEC"/>
<path d="M385.908 68.5H400.66V65.972H394.164C392.98 65.972 391.54 66.1 390.324 66.196C395.828 60.98 399.508 56.212 399.508 51.54C399.508 47.348 396.884 44.596 392.692 44.596C389.716 44.596 387.7 45.972 385.78 48.052L387.476 49.716C388.756 48.18 390.42 46.996 392.34 46.996C395.252 46.996 396.66 48.948 396.66 51.636C396.66 55.668 393.268 60.34 385.908 66.772V68.5Z" fill="black"/>
<path d="M444 107V109H446V107H444ZM442 2V107H446V2H442ZM444 105H343V109H444V105Z" fill="#DEDEDE" mask="url(#path-8-inside-3_245_3038)"/>
<mask id="path-11-inside-4_245_3038" fill="white">
<path d="M444 2H545V107H444V2Z"/>
</mask>
<path d="M444 2H545V107H444V2Z" fill="#F0EFEC"/>
<path d="M493.948 68.916C498.108 68.916 501.468 66.42 501.468 62.228C501.468 59.028 499.26 56.916 496.508 56.276V56.148C498.972 55.22 500.668 53.332 500.668 50.484C500.668 46.772 497.788 44.596 493.852 44.596C491.132 44.596 489.052 45.78 487.292 47.412L488.86 49.268C490.172 47.924 491.836 46.996 493.724 46.996C496.156 46.996 497.692 48.468 497.692 50.708C497.692 53.236 496.028 55.188 491.196 55.188V57.428C496.604 57.428 498.492 59.316 498.492 62.1C498.492 64.82 496.508 66.484 493.724 66.484C491.068 66.484 489.276 65.236 487.9 63.796L486.428 65.716C487.964 67.38 490.268 68.916 493.948 68.916Z" fill="black"/>
<path d="M545 107V109H547V107H545ZM543 2V107H547V2H543ZM545 105H444V109H545V105Z" fill="#DEDEDE" mask="url(#path-11-inside-4_245_3038)"/>
<mask id="path-14-inside-5_245_3038" fill="white">
<path d="M545 2H646V107H545V2Z"/>
</mask>
<path d="M545 2H646V107H545V2Z" fill="#EDDADA"/>
<path d="M590.18 59.7L595.524 51.7C596.196 50.548 596.836 49.396 597.412 48.244H597.54C597.476 49.46 597.38 51.348 597.38 52.5V59.7H590.18ZM597.38 68.5H600.132V62.036H603.236V59.7H600.132V45.012H596.9L587.14 60.116V62.036H597.38V68.5Z" fill="black"/>
<path d="M646 107V109H648V107H646ZM644 2V107H648V2H644ZM646 105H545V109H646V105Z" fill="#DEDEDE" mask="url(#path-14-inside-5_245_3038)"/>
<mask id="path-17-inside-6_245_3038" fill="white">
<path d="M646 2H747V107H646V2Z"/>
</mask>
<path d="M646 2H747V107H646V2Z" fill="#F0EFEC"/>
<path d="M695.852 68.916C699.82 68.916 703.532 66.004 703.532 60.852C703.532 55.7 700.364 53.396 696.46 53.396C695.052 53.396 694.028 53.748 692.972 54.324L693.548 47.54H702.412V45.012H690.988L690.252 56.02L691.82 56.98C693.164 56.084 694.156 55.604 695.724 55.604C698.668 55.604 700.588 57.588 700.588 60.948C700.588 64.372 698.348 66.484 695.596 66.484C692.876 66.484 691.18 65.236 689.836 63.892L688.396 65.812C689.964 67.38 692.204 68.916 695.852 68.916Z" fill="black"/>
<path d="M747 107V109H749V107H747ZM745 2V107H749V2H745ZM747 105H646V109H747V105Z" fill="#DEDEDE" mask="url(#path-17-inside-6_245_3038)"/>
<mask id="path-20-inside-7_245_3038" fill="white">
<path d="M747 2H848V107H747V2Z"/>
</mask>
<path d="M747 2H848V107H747V2Z" fill="#F0EFEC"/>
<path d="M797.876 56.116C800.724 56.116 802.132 58.132 802.132 61.3C802.132 64.5 800.372 66.644 798.132 66.644C795.188 66.644 793.428 63.988 793.076 59.124C794.516 56.98 796.404 56.116 797.876 56.116ZM798.132 68.916C801.78 68.916 804.852 65.844 804.852 61.3C804.852 56.404 802.324 53.94 798.356 53.94C796.5 53.94 794.452 55.028 793.012 56.788C793.14 49.492 795.86 47.028 799.06 47.028C800.5 47.028 801.908 47.7 802.836 48.82L804.436 46.996C803.156 45.62 801.396 44.596 798.964 44.596C794.42 44.596 790.292 48.116 790.292 57.3C790.292 65.044 793.62 68.916 798.132 68.916Z" fill="black"/>
<path d="M848 107V109H850V107H848ZM846 2V107H850V2H846ZM848 105H747V109H848V105Z" fill="#DEDEDE" mask="url(#path-20-inside-7_245_3038)"/>
<mask id="path-23-inside-8_245_3038" fill="white">
<path d="M848 2H949V107H848V2Z"/>
</mask>
<path d="M848 2H949V107H848V2Z" fill="#F0EFEC"/>
<path d="M895.836 68.5H898.876C899.228 59.316 900.252 53.844 905.756 46.804V45.012H891.068V47.54H902.428C897.852 53.94 896.22 59.604 895.836 68.5Z" fill="black"/>
<path d="M949 107V109H951V107H949ZM947 2V107H951V2H947ZM949 105H848V109H949V105Z" fill="#DEDEDE" mask="url(#path-23-inside-8_245_3038)"/>
<mask id="path-26-inside-9_245_3038" fill="white">
<path d="M949 2H1050V107H949V2Z"/>
</mask>
<path d="M949 2H1050V107H949V2Z" fill="#EDDADA"/>
<path d="M999.428 68.916C1003.84 68.916 1006.79 66.26 1006.79 62.836C1006.79 59.636 1004.87 57.876 1002.82 56.692V56.532C1004.23 55.444 1005.96 53.332 1005.96 50.868C1005.96 47.252 1003.52 44.692 999.524 44.692C995.876 44.692 993.092 47.06 993.092 50.644C993.092 53.108 994.532 54.868 996.26 56.052V56.212C994.116 57.364 991.94 59.54 991.94 62.676C991.94 66.292 995.108 68.916 999.428 68.916ZM1001.03 55.764C998.276 54.676 995.748 53.46 995.748 50.644C995.748 48.372 997.316 46.836 999.492 46.836C1002.02 46.836 1003.46 48.724 1003.46 51.028C1003.46 52.756 1002.63 54.356 1001.03 55.764ZM999.492 66.74C996.676 66.74 994.596 64.916 994.596 62.42C994.596 60.18 995.908 58.324 997.796 57.108C1001.12 58.452 1004 59.636 1004 62.772C1004 65.108 1002.18 66.74 999.492 66.74Z" fill="black"/>
<path d="M1050 107V109H1052V107H1050ZM1048 2V107H1052V2H1048ZM1050 105H949V109H1050V105Z" fill="#DEDEDE" mask="url(#path-26-inside-9_245_3038)"/>
<mask id="path-29-inside-10_245_3038" fill="white">
<path d="M1050 2H1151V107H1050V2Z"/>
</mask>
<path d="M1050 2H1151V107H1050V2Z" fill="#F0EFEC"/>
<path d="M1095.66 52.212C1095.66 49.012 1097.39 46.9 1099.63 46.9C1102.64 46.9 1104.43 49.46 1104.75 54.292C1103.24 56.5 1101.45 57.428 1099.85 57.428C1097.07 57.428 1095.66 55.38 1095.66 52.212ZM1098.99 68.916C1103.4 68.916 1107.5 65.268 1107.5 55.764C1107.5 48.308 1104.14 44.596 1099.63 44.596C1095.98 44.596 1092.91 47.668 1092.91 52.212C1092.91 57.076 1095.47 59.604 1099.37 59.604C1101.32 59.604 1103.34 58.484 1104.78 56.724C1104.56 63.988 1101.93 66.484 1098.89 66.484C1097.39 66.484 1095.95 65.812 1094.99 64.692L1093.36 66.516C1094.67 67.892 1096.46 68.916 1098.99 68.916Z" fill="black"/>
<path d="M1151 107V109H1153V107H1151ZM1149 2V107H1153V2H1149ZM1151 105H1050V109H1151V105Z" fill="#DEDEDE" mask="url(#path-29-inside-10_245_3038)"/>
<mask id="path-32-inside-11_245_3038" fill="white">
<path d="M1151 2H1254V107H1151V2Z"/>
</mask>
<path d="M1151 2H1254V107H1151V2Z" fill="#EDDADA"/>
<path d="M1186.32 68.5H1199.18V66.068H1194.48V45.012H1192.24C1190.96 45.78 1189.45 46.324 1187.37 46.708V48.564H1191.53V66.068H1186.32V68.5ZM1211.75 68.916C1216.19 68.916 1219.04 64.852 1219.04 56.692C1219.04 48.564 1216.19 44.596 1211.75 44.596C1207.27 44.596 1204.42 48.532 1204.42 56.692C1204.42 64.852 1207.27 68.916 1211.75 68.916ZM1211.75 66.58C1209.06 66.58 1207.27 63.604 1207.27 56.692C1207.27 49.844 1209.06 46.932 1211.75 46.932C1214.4 46.932 1216.19 49.844 1216.19 56.692C1216.19 63.604 1214.4 66.58 1211.75 66.58Z" fill="black"/>
<path d="M1254 105H1151V109H1254V105Z" fill="#DEDEDE" mask="url(#path-32-inside-11_245_3038)"/>
<mask id="path-35-inside-12_245_3038" fill="white">
<path d="M2 107H242V216H2V107Z"/>
</mask>
<path d="M2 107H242V216H2V107Z" fill="#F0EFEC"/>
<path d="M89.988 164.284H78.508V154.512H88.42V152.468H66.524V154.512H76.38V164.284H65.068V166.328H76.38V176.128H78.508V166.328H89.988V164.284ZM68.484 156.444C69.548 158.488 70.612 161.204 71.004 162.856L72.964 162.184C72.6 160.532 71.452 157.9 70.304 155.884L68.484 156.444ZM83.324 162.94C84.416 161.26 85.76 158.6 86.768 156.36L84.584 155.744C83.884 157.76 82.596 160.616 81.56 162.352L83.324 162.94ZM104.94 169.38H114.404V167.504H104.94V169.38ZM105.584 161.148V163.052H113.928V161.148H105.584ZM108.076 155.212C108.664 153.896 109.196 152.524 109.644 151.124L107.544 150.592C106.564 153.812 105.08 156.976 103.288 159.384V157.592H100.04V151.18H98.024V157.592H94.412V159.58H98.024V169.128C96.484 169.828 95.056 170.472 93.936 170.92L94.72 173.02C97.324 171.76 100.796 170.052 104.044 168.456L103.484 166.552C102.336 167.084 101.16 167.644 100.04 168.176V159.58H103.176C102.756 160.112 102.308 160.644 101.86 161.092C102.392 161.4 103.344 161.988 103.764 162.296C104.968 160.896 106.116 159.132 107.152 157.172H117.092C116.728 168.456 116.308 172.768 115.384 173.72C115.048 174.084 114.74 174.168 114.18 174.168C113.536 174.168 111.828 174.168 109.952 173.972C110.316 174.588 110.596 175.484 110.624 176.1C112.304 176.184 114.012 176.24 114.964 176.128C116 176.044 116.616 175.792 117.26 174.98C118.38 173.58 118.744 169.156 119.192 156.304C119.192 156.024 119.22 155.212 119.22 155.212H108.076ZM148.956 162.464C148.424 160.42 147.108 157.312 145.708 154.932L143.972 155.52C145.288 157.872 146.576 161.092 147.052 163.164L148.956 162.464ZM141.984 150.592H139.996V167.784H141.984V150.592ZM136.104 155.296C135.712 158.348 134.984 161.568 133.976 163.696C134.452 163.864 135.32 164.284 135.74 164.536C136.72 162.324 137.532 158.908 138.064 155.66L136.104 155.296ZM133.976 165.544C133.444 164.788 131.092 161.764 130.308 160.924V160.364H134.228V158.404H130.308V153.728C131.68 153.42 132.968 153.028 134.032 152.608L132.772 150.956C130.672 151.88 127.004 152.692 123.868 153.196C124.092 153.644 124.372 154.372 124.484 154.82C125.688 154.652 126.976 154.428 128.264 154.176V158.404H123.616V160.364H127.984C126.892 163.584 124.988 167.168 123.252 169.156C123.588 169.632 124.092 170.472 124.316 171.032C125.716 169.324 127.144 166.552 128.264 163.78V176.1H130.308V163.22C131.204 164.564 132.296 166.328 132.744 167.168L133.976 165.544ZM145.708 164.172C143.72 169.632 139.324 172.796 132.408 174.224C132.856 174.7 133.332 175.484 133.556 176.1C140.864 174.308 145.456 170.78 147.668 164.76L145.708 164.172ZM165.784 174.168C164.888 173.692 163.684 173.104 162.396 172.544C163.684 171.424 164.272 170.22 164.496 169.072H167.464V167.56H164.664V167.392V166.44H162.956V167.364V167.56H159.428C159.736 166.944 160.044 166.356 160.324 165.768H166.652V163.164C167.072 163.528 167.66 164.032 167.912 164.312C168.472 163.416 168.976 162.38 169.452 161.204C169.984 163.92 170.628 166.412 171.524 168.596C170.208 171.004 168.304 172.824 165.728 174.224L165.784 174.168ZM162.732 169.072C162.452 169.968 161.864 170.948 160.632 171.844C159.596 171.424 158.532 171.06 157.524 170.752C157.86 170.22 158.196 169.66 158.56 169.072H162.732ZM156.068 162.576H159.54V164.424H156.068V162.576ZM164.804 162.576V164.424H161.192V162.576H164.804ZM174.492 157.956C174.128 161.288 173.512 164.088 172.56 166.496C171.608 164.06 170.964 161.288 170.516 158.292L170.656 157.956H174.492ZM156.572 158.572V156.78H159.54V158.572H156.572ZM159.54 153.84V155.38H156.572V153.84H159.54ZM164.384 153.84V155.38H161.192V153.84H164.384ZM161.192 158.572V156.78H164.384V158.572H161.192ZM178.468 157.956V156.08H171.216C171.664 154.4 172.084 152.636 172.42 150.928L170.6 150.564C169.816 155.128 168.5 159.692 166.652 162.744V161.26H161.192V160.028H166.092V156.864H167.688V155.296H166.092V152.384H161.192V150.564H159.54V152.384H154.948V155.296H153.016V156.864H154.948V160.028H159.54V161.26H154.276V165.768H158.42C158.14 166.356 157.86 166.944 157.524 167.56H153.044V169.072H156.656C156.068 169.968 155.48 170.864 154.948 171.536C156.236 171.872 157.608 172.348 158.924 172.852C157.468 173.552 155.48 174.196 152.82 174.728C153.156 175.092 153.576 175.708 153.716 176.128C156.964 175.428 159.26 174.588 160.856 173.664C162.256 174.224 163.516 174.868 164.44 175.4L165.112 174.784C165.448 175.204 165.896 175.82 166.064 176.184C168.836 174.728 170.908 172.88 172.448 170.528C173.708 172.852 175.304 174.756 177.348 176.016C177.656 175.484 178.272 174.784 178.692 174.42C176.48 173.216 174.772 171.2 173.512 168.68C174.94 165.796 175.836 162.268 176.34 157.956H178.468Z" fill="black"/>
<path d="M242 216V218H244V216H242ZM240 107V216H244V107H240ZM242 214H2V218H242V214Z" fill="#DEDEDE" mask="url(#path-35-inside-12_245_3038)"/>
<mask id="path-38-inside-13_245_3038" fill="white">
<path d="M242 107H343V216H242V107Z"/>
</mask>
<path d="M242 107H343V216H242V107Z" fill="white"/>
<path d="M273.336 172.312C276.456 172.312 278.976 170.44 278.976 167.296C278.976 164.896 277.32 163.312 275.256 162.832V162.736C277.104 162.04 278.376 160.624 278.376 158.488C278.376 155.704 276.216 154.072 273.264 154.072C271.224 154.072 269.664 154.96 268.344 156.184L269.52 157.576C270.504 156.568 271.752 155.872 273.168 155.872C274.992 155.872 276.144 156.976 276.144 158.656C276.144 160.552 274.896 162.016 271.272 162.016V163.696C275.328 163.696 276.744 165.112 276.744 167.2C276.744 169.24 275.256 170.488 273.168 170.488C271.176 170.488 269.832 169.552 268.8 168.472L267.696 169.912C268.848 171.16 270.576 172.312 273.336 172.312ZM287.848 172.312C290.969 172.312 293.489 170.44 293.489 167.296C293.489 164.896 291.832 163.312 289.769 162.832V162.736C291.617 162.04 292.889 160.624 292.889 158.488C292.889 155.704 290.728 154.072 287.776 154.072C285.737 154.072 284.177 154.96 282.856 156.184L284.032 157.576C285.017 156.568 286.265 155.872 287.68 155.872C289.504 155.872 290.657 156.976 290.657 158.656C290.657 160.552 289.409 162.016 285.784 162.016V163.696C289.84 163.696 291.257 165.112 291.257 167.2C291.257 169.24 289.769 170.488 287.68 170.488C285.689 170.488 284.345 169.552 283.312 168.472L282.208 169.912C283.36 171.16 285.088 172.312 287.848 172.312ZM299.361 172.312C300.225 172.312 300.945 171.64 300.945 170.656C300.945 169.648 300.225 168.952 299.361 168.952C298.497 168.952 297.777 169.648 297.777 170.656C297.777 171.64 298.497 172.312 299.361 172.312ZM310.169 172.312C313.145 172.312 315.929 170.128 315.929 166.264C315.929 162.4 313.553 160.672 310.625 160.672C309.569 160.672 308.801 160.936 308.009 161.368L308.441 156.28H315.089V154.384H306.521L305.969 162.64L307.145 163.36C308.153 162.688 308.897 162.328 310.073 162.328C312.281 162.328 313.721 163.816 313.721 166.336C313.721 168.904 312.041 170.488 309.977 170.488C307.937 170.488 306.665 169.552 305.657 168.544L304.577 169.984C305.753 171.16 307.433 172.312 310.169 172.312Z" fill="black"/>
<path d="M343 216V218H345V216H343ZM341 107V216H345V107H341ZM343 214H242V218H343V214Z" fill="#D5D5D5" mask="url(#path-38-inside-13_245_3038)"/>
<mask id="path-41-inside-14_245_3038" fill="white">
<path d="M343 107H444V216H343V107Z"/>
</mask>
<path d="M343 107H444V216H343V107Z" fill="white"/>
<path d="M369.056 172H380.12V170.104H375.248C374.36 170.104 373.28 170.2 372.368 170.272C376.496 166.36 379.256 162.784 379.256 159.28C379.256 156.136 377.288 154.072 374.144 154.072C371.912 154.072 370.4 155.104 368.96 156.664L370.232 157.912C371.192 156.76 372.44 155.872 373.88 155.872C376.064 155.872 377.12 157.336 377.12 159.352C377.12 162.376 374.576 165.88 369.056 170.704V172ZM385.272 165.4L389.28 159.4C389.784 158.536 390.265 157.672 390.697 156.808H390.793C390.745 157.72 390.672 159.136 390.672 160V165.4H385.272ZM390.672 172H392.737V167.152H395.064V165.4H392.737V154.384H390.313L382.992 165.712V167.152H390.672V172ZM400.361 172.312C401.225 172.312 401.945 171.64 401.945 170.656C401.945 169.648 401.225 168.952 400.361 168.952C399.497 168.952 398.777 169.648 398.777 170.656C398.777 171.64 399.497 172.312 400.361 172.312ZM407.017 172H416.665V170.176H413.137V154.384H411.457C410.497 154.96 409.369 155.368 407.809 155.656V157.048H410.929V170.176H407.017V172Z" fill="black"/>
<path d="M444 216V218H446V216H444ZM442 107V216H446V107H442ZM444 214H343V218H444V214Z" fill="#D5D5D5" mask="url(#path-41-inside-14_245_3038)"/>
<mask id="path-44-inside-15_245_3038" fill="white">
<path d="M444 107H545V216H444V107Z"/>
</mask>
<path d="M444 107H545V216H444V107Z" fill="white"/>
<path d="M471.112 172H480.76V170.176H477.232V154.384H475.552C474.592 154.96 473.464 155.368 471.904 155.656V157.048H475.024V170.176H471.112V172ZM486.633 159.784C486.633 157.384 487.929 155.8 489.609 155.8C491.865 155.8 493.209 157.72 493.449 161.344C492.321 163 490.977 163.696 489.776 163.696C487.689 163.696 486.633 162.16 486.633 159.784ZM489.129 172.312C492.441 172.312 495.512 169.576 495.512 162.448C495.512 156.856 492.993 154.072 489.609 154.072C486.872 154.072 484.568 156.376 484.568 159.784C484.568 163.432 486.488 165.328 489.416 165.328C490.881 165.328 492.392 164.488 493.473 163.168C493.305 168.616 491.336 170.488 489.056 170.488C487.929 170.488 486.849 169.984 486.128 169.144L484.904 170.512C485.888 171.544 487.232 172.312 489.129 172.312ZM501.361 172.312C502.225 172.312 502.945 171.64 502.945 170.656C502.945 169.648 502.225 168.952 501.361 168.952C500.497 168.952 499.777 169.648 499.777 170.656C499.777 171.64 500.497 172.312 501.361 172.312ZM508.017 172H517.665V170.176H514.137V154.384H512.457C511.497 154.96 510.369 155.368 508.809 155.656V157.048H511.929V170.176H508.017V172Z" fill="black"/>
<path d="M545 216V218H547V216H545ZM543 107V216H547V107H543ZM545 214H444V218H545V214Z" fill="#D5D5D5" mask="url(#path-44-inside-15_245_3038)"/>
<mask id="path-47-inside-16_245_3038" fill="white">
<path d="M545 107H646V216H545V107Z"/>
</mask>
<path d="M545 107H646V216H545V107Z" fill="white"/>
<path d="M571.968 172H582.648V169.144H579.312V154.216H576.696C575.568 154.936 574.344 155.392 572.568 155.728V157.912H575.784V169.144H571.968V172ZM589.221 163.216C590.493 163.216 591.429 162.232 591.429 160.936C591.429 159.616 590.493 158.632 589.221 158.632C587.973 158.632 587.037 159.616 587.037 160.936C587.037 162.232 587.973 163.216 589.221 163.216ZM589.221 172.336C590.493 172.336 591.429 171.328 591.429 170.032C591.429 168.712 590.493 167.728 589.221 167.728C587.973 167.728 587.037 168.712 587.037 170.032C587.037 171.328 587.973 172.336 589.221 172.336ZM601.418 172.336C605.041 172.336 607.418 169.168 607.418 163.048C607.418 156.928 605.041 153.904 601.418 153.904C597.793 153.904 595.393 156.904 595.393 163.048C595.393 169.168 597.793 172.336 601.418 172.336ZM601.418 169.576C599.881 169.576 598.729 168.04 598.729 163.048C598.729 158.08 599.881 156.64 601.418 156.64C602.954 156.64 604.082 158.08 604.082 163.048C604.082 168.04 602.954 169.576 601.418 169.576ZM614.134 172H617.71C617.998 165.04 618.55 161.416 622.678 156.376V154.216H610.87V157.192H618.862C615.478 161.896 614.446 165.832 614.134 172Z" fill="#932F2F"/>
<path d="M646 216V218H648V216H646ZM644 107V216H648V107H644ZM646 214H545V218H646V214Z" fill="#D5D5D5" mask="url(#path-47-inside-16_245_3038)"/>
<mask id="path-50-inside-17_245_3038" fill="white">
<path d="M646 107H747V216H646V107Z"/>
</mask>
<path d="M646 107H747V216H646V107Z" fill="white"/>
<path d="M673.112 172H682.76V170.176H679.232V154.384H677.552C676.592 154.96 675.464 155.368 673.904 155.656V157.048H677.024V170.176H673.112V172ZM688.633 159.784C688.633 157.384 689.929 155.8 691.609 155.8C693.865 155.8 695.209 157.72 695.449 161.344C694.321 163 692.977 163.696 691.776 163.696C689.689 163.696 688.633 162.16 688.633 159.784ZM691.129 172.312C694.441 172.312 697.512 169.576 697.512 162.448C697.512 156.856 694.993 154.072 691.609 154.072C688.872 154.072 686.568 156.376 686.568 159.784C686.568 163.432 688.488 165.328 691.416 165.328C692.881 165.328 694.392 164.488 695.473 163.168C695.305 168.616 693.336 170.488 691.056 170.488C689.929 170.488 688.849 169.984 688.128 169.144L686.904 170.512C687.888 171.544 689.232 172.312 691.129 172.312ZM703.361 172.312C704.225 172.312 704.945 171.64 704.945 170.656C704.945 169.648 704.225 168.952 703.361 168.952C702.497 168.952 701.777 169.648 701.777 170.656C701.777 171.64 702.497 172.312 703.361 172.312ZM714.937 162.712C717.073 162.712 718.129 164.224 718.129 166.6C718.129 169 716.809 170.608 715.129 170.608C712.921 170.608 711.601 168.616 711.337 164.968C712.417 163.36 713.833 162.712 714.937 162.712ZM715.129 172.312C717.865 172.312 720.169 170.008 720.169 166.6C720.169 162.928 718.273 161.08 715.297 161.08C713.905 161.08 712.369 161.896 711.289 163.216C711.385 157.744 713.425 155.896 715.825 155.896C716.905 155.896 717.961 156.4 718.657 157.24L719.857 155.872C718.897 154.84 717.577 154.072 715.753 154.072C712.345 154.072 709.249 156.712 709.249 163.6C709.249 169.408 711.745 172.312 715.129 172.312Z" fill="black"/>
<path d="M747 216V218H749V216H747ZM745 107V216H749V107H745ZM747 214H646V218H747V214Z" fill="#D5D5D5" mask="url(#path-50-inside-17_245_3038)"/>
<mask id="path-53-inside-18_245_3038" fill="white">
<path d="M747 107H848V216H747V107Z"/>
</mask>
<path d="M747 107H848V216H747V107Z" fill="white"/>
<path d="M774.76 165.4L778.768 159.4C779.272 158.536 779.752 157.672 780.184 156.808H780.28C780.232 157.72 780.16 159.136 780.16 160V165.4H774.76ZM780.16 172H782.224V167.152H784.552V165.4H782.224V154.384H779.8L772.48 165.712V167.152H780.16V172ZM789.633 159.784C789.633 157.384 790.929 155.8 792.609 155.8C794.865 155.8 796.209 157.72 796.449 161.344C795.321 163 793.977 163.696 792.776 163.696C790.689 163.696 789.633 162.16 789.633 159.784ZM792.129 172.312C795.441 172.312 798.512 169.576 798.512 162.448C798.512 156.856 795.993 154.072 792.609 154.072C789.872 154.072 787.568 156.376 787.568 159.784C787.568 163.432 789.488 165.328 792.416 165.328C793.881 165.328 795.392 164.488 796.473 163.168C796.305 168.616 794.336 170.488 792.056 170.488C790.929 170.488 789.849 169.984 789.128 169.144L787.904 170.512C788.888 171.544 790.232 172.312 792.129 172.312ZM804.361 172.312C805.225 172.312 805.945 171.64 805.945 170.656C805.945 169.648 805.225 168.952 804.361 168.952C803.497 168.952 802.777 169.648 802.777 170.656C802.777 171.64 803.497 172.312 804.361 172.312ZM809.961 172H821.025V170.104H816.153C815.265 170.104 814.185 170.2 813.273 170.272C817.401 166.36 820.161 162.784 820.161 159.28C820.161 156.136 818.193 154.072 815.049 154.072C812.817 154.072 811.305 155.104 809.865 156.664L811.137 157.912C812.097 156.76 813.345 155.872 814.785 155.872C816.969 155.872 818.025 157.336 818.025 159.352C818.025 162.376 815.481 165.88 809.961 170.704V172Z" fill="black"/>
<path d="M848 216V218H850V216H848ZM846 107V216H850V107H846ZM848 214H747V218H848V214Z" fill="#D5D5D5" mask="url(#path-53-inside-18_245_3038)"/>
<mask id="path-56-inside-19_245_3038" fill="white">
<path d="M848 107H949V216H848V107Z"/>
</mask>
<path d="M848 107H949V216H848V107Z" fill="white"/>
<path d="M874.056 172H885.12V170.104H880.248C879.36 170.104 878.28 170.2 877.368 170.272C881.496 166.36 884.256 162.784 884.256 159.28C884.256 156.136 882.288 154.072 879.144 154.072C876.912 154.072 875.4 155.104 873.96 156.664L875.232 157.912C876.192 156.76 877.44 155.872 878.88 155.872C881.064 155.872 882.12 157.336 882.12 159.352C882.12 162.376 879.576 165.88 874.056 170.704V172ZM890.633 159.784C890.633 157.384 891.929 155.8 893.609 155.8C895.865 155.8 897.209 157.72 897.449 161.344C896.321 163 894.977 163.696 893.776 163.696C891.689 163.696 890.633 162.16 890.633 159.784ZM893.129 172.312C896.441 172.312 899.512 169.576 899.512 162.448C899.512 156.856 896.993 154.072 893.609 154.072C890.872 154.072 888.568 156.376 888.568 159.784C888.568 163.432 890.488 165.328 893.416 165.328C894.881 165.328 896.392 164.488 897.473 163.168C897.305 168.616 895.336 170.488 893.056 170.488C891.929 170.488 890.849 169.984 890.128 169.144L888.904 170.512C889.888 171.544 891.232 172.312 893.129 172.312ZM905.361 172.312C906.225 172.312 906.945 171.64 906.945 170.656C906.945 169.648 906.225 168.952 905.361 168.952C904.497 168.952 903.777 169.648 903.777 170.656C903.777 171.64 904.497 172.312 905.361 172.312ZM913.025 159.784C913.025 157.384 914.321 155.8 916.001 155.8C918.257 155.8 919.601 157.72 919.841 161.344C918.713 163 917.369 163.696 916.169 163.696C914.081 163.696 913.025 162.16 913.025 159.784ZM915.521 172.312C918.833 172.312 921.905 169.576 921.905 162.448C921.905 156.856 919.385 154.072 916.001 154.072C913.265 154.072 910.961 156.376 910.961 159.784C910.961 163.432 912.881 165.328 915.809 165.328C917.273 165.328 918.785 164.488 919.865 163.168C919.697 168.616 917.729 170.488 915.449 170.488C914.321 170.488 913.241 169.984 912.521 169.144L911.297 170.512C912.281 171.544 913.625 172.312 915.521 172.312Z" fill="black"/>
<path d="M949 216V218H951V216H949ZM947 107V216H951V107H947ZM949 214H848V218H949V214Z" fill="#D5D5D5" mask="url(#path-56-inside-19_245_3038)"/>
<mask id="path-59-inside-20_245_3038" fill="white">
<path d="M949 107H1050V216H949V107Z"/>
</mask>
<path d="M949 107H1050V216H949V107Z" fill="white"/>
<path d="M975.968 172H986.648V169.144H983.312V154.216H980.696C979.568 154.936 978.344 155.392 976.568 155.728V157.912H979.784V169.144H975.968V172ZM993.221 163.216C994.493 163.216 995.429 162.232 995.429 160.936C995.429 159.616 994.493 158.632 993.221 158.632C991.973 158.632 991.037 159.616 991.037 160.936C991.037 162.232 991.973 163.216 993.221 163.216ZM993.221 172.336C994.493 172.336 995.429 171.328 995.429 170.032C995.429 168.712 994.493 167.728 993.221 167.728C991.973 167.728 991.037 168.712 991.037 170.032C991.037 171.328 991.973 172.336 993.221 172.336ZM1005.42 172.336C1009.04 172.336 1011.42 169.168 1011.42 163.048C1011.42 156.928 1009.04 153.904 1005.42 153.904C1001.79 153.904 999.393 156.904 999.393 163.048C999.393 169.168 1001.79 172.336 1005.42 172.336ZM1005.42 169.576C1003.88 169.576 1002.73 168.04 1002.73 163.048C1002.73 158.08 1003.88 156.64 1005.42 156.64C1006.95 156.64 1008.08 158.08 1008.08 163.048C1008.08 168.04 1006.95 169.576 1005.42 169.576ZM1014.7 172H1026.61V169.024H1022.77C1021.93 169.024 1020.75 169.12 1019.86 169.216C1023.1 166.048 1025.77 162.592 1025.77 159.376C1025.77 156.064 1023.53 153.904 1020.17 153.904C1017.75 153.904 1016.17 154.84 1014.53 156.592L1016.45 158.512C1017.37 157.528 1018.42 156.688 1019.72 156.688C1021.42 156.688 1022.38 157.768 1022.38 159.568C1022.38 162.304 1019.53 165.64 1014.7 169.96V172Z" fill="#932F2F"/>
<path d="M1050 216V218H1052V216H1050ZM1048 107V216H1052V107H1048ZM1050 214H949V218H1050V214Z" fill="#D5D5D5" mask="url(#path-59-inside-20_245_3038)"/>
<mask id="path-62-inside-21_245_3038" fill="white">
<path d="M1050 107H1151V216H1050V107Z"/>
</mask>
<path d="M1050 107H1151V216H1050V107Z" fill="white"/>
<path d="M1095.65 162.712C1097.78 162.712 1098.84 164.224 1098.84 166.6C1098.84 169 1097.52 170.608 1095.84 170.608C1093.63 170.608 1092.31 168.616 1092.05 164.968C1093.13 163.36 1094.54 162.712 1095.65 162.712ZM1095.84 172.312C1098.57 172.312 1100.88 170.008 1100.88 166.6C1100.88 162.928 1098.98 161.08 1096.01 161.08C1094.61 161.08 1093.08 161.896 1092 163.216C1092.09 157.744 1094.13 155.896 1096.53 155.896C1097.61 155.896 1098.67 156.4 1099.37 157.24L1100.57 155.872C1099.61 154.84 1098.29 154.072 1096.46 154.072C1093.05 154.072 1089.96 156.712 1089.96 163.6C1089.96 169.408 1092.45 172.312 1095.84 172.312ZM1106.46 172.312C1107.33 172.312 1108.05 171.64 1108.05 170.656C1108.05 169.648 1107.33 168.952 1106.46 168.952C1105.6 168.952 1104.88 169.648 1104.88 170.656C1104.88 171.64 1105.6 172.312 1106.46 172.312ZM1118.04 162.712C1120.18 162.712 1121.23 164.224 1121.23 166.6C1121.23 169 1119.91 170.608 1118.23 170.608C1116.02 170.608 1114.7 168.616 1114.44 164.968C1115.52 163.36 1116.94 162.712 1118.04 162.712ZM1118.23 172.312C1120.97 172.312 1123.27 170.008 1123.27 166.6C1123.27 162.928 1121.38 161.08 1118.4 161.08C1117.01 161.08 1115.47 161.896 1114.39 163.216C1114.49 157.744 1116.53 155.896 1118.93 155.896C1120.01 155.896 1121.06 156.4 1121.76 157.24L1122.96 155.872C1122 154.84 1120.68 154.072 1118.86 154.072C1115.45 154.072 1112.35 156.712 1112.35 163.6C1112.35 169.408 1114.85 172.312 1118.23 172.312Z" fill="black"/>
<path d="M1151 216V218H1153V216H1151ZM1149 107V216H1153V107H1149ZM1151 214H1050V218H1151V214Z" fill="#D5D5D5" mask="url(#path-62-inside-21_245_3038)"/>
<mask id="path-65-inside-22_245_3038" fill="white">
<path d="M1151 107H1254V216H1151V107Z"/>
</mask>
<path d="M1151 107H1254V216H1151V107Z" fill="white"/>
<path d="M1182.58 172.336C1185.96 172.336 1188.82 170.44 1188.82 167.176C1188.82 164.848 1187.28 163.36 1185.29 162.808V162.688C1187.16 161.944 1188.24 160.552 1188.24 158.632C1188.24 155.608 1185.91 153.904 1182.48 153.904C1180.39 153.904 1178.69 154.744 1177.15 156.088L1178.95 158.248C1180.01 157.264 1181.04 156.688 1182.31 156.688C1183.82 156.688 1184.69 157.504 1184.69 158.896C1184.69 160.48 1183.63 161.608 1180.37 161.608V164.128C1184.23 164.128 1185.26 165.232 1185.26 166.96C1185.26 168.568 1184.04 169.456 1182.24 169.456C1180.63 169.456 1179.34 168.664 1178.28 167.632L1176.62 169.864C1177.87 171.28 1179.77 172.336 1182.58 172.336ZM1195.22 163.216C1196.49 163.216 1197.43 162.232 1197.43 160.936C1197.43 159.616 1196.49 158.632 1195.22 158.632C1193.97 158.632 1193.04 159.616 1193.04 160.936C1193.04 162.232 1193.97 163.216 1195.22 163.216ZM1195.22 172.336C1196.49 172.336 1197.43 171.328 1197.43 170.032C1197.43 168.712 1196.49 167.728 1195.22 167.728C1193.97 167.728 1193.04 168.712 1193.04 170.032C1193.04 171.328 1193.97 172.336 1195.22 172.336ZM1201.37 172H1213.27V169.024H1209.43C1208.59 169.024 1207.42 169.12 1206.53 169.216C1209.77 166.048 1212.43 162.592 1212.43 159.376C1212.43 156.064 1210.2 153.904 1206.84 153.904C1204.42 153.904 1202.83 154.84 1201.2 156.592L1203.12 158.512C1204.03 157.528 1205.09 156.688 1206.39 156.688C1208.09 156.688 1209.05 157.768 1209.05 159.568C1209.05 162.304 1206.19 165.64 1201.37 169.96V172ZM1222.29 172.336C1225.58 172.336 1228.51 170.056 1228.51 166.096C1228.51 162.232 1226.01 160.456 1223.04 160.456C1222.22 160.456 1221.62 160.624 1220.9 160.96L1221.24 157.192H1227.69V154.216H1218.19L1217.71 162.856L1219.32 163.912C1220.35 163.24 1220.93 162.976 1221.98 162.976C1223.78 162.976 1224.98 164.128 1224.98 166.192C1224.98 168.28 1223.69 169.456 1221.84 169.456C1220.18 169.456 1218.93 168.64 1217.93 167.656L1216.29 169.912C1217.61 171.232 1219.49 172.336 1222.29 172.336Z" fill="#932F2F"/>
<path d="M1254 214H1151V218H1254V214Z" fill="#D5D5D5" mask="url(#path-65-inside-22_245_3038)"/>
<mask id="path-68-inside-23_245_3038" fill="white">
<path d="M2 216H242V321H2V216Z"/>
</mask>
<path d="M2 216H242V321H2V216Z" fill="#F0EFEC"/>
<path d="M60.988 271.284H49.508V261.512H59.42V259.468H37.524V261.512H47.38V271.284H36.068V273.328H47.38V283.128H49.508V273.328H60.988V271.284ZM39.484 263.444C40.548 265.488 41.612 268.204 42.004 269.856L43.964 269.184C43.6 267.532 42.452 264.9 41.304 262.884L39.484 263.444ZM54.324 269.94C55.416 268.26 56.76 265.6 57.768 263.36L55.584 262.744C54.884 264.76 53.596 267.616 52.56 269.352L54.324 269.94ZM75.94 276.38H85.404V274.504H75.94V276.38ZM76.584 268.148V270.052H84.928V268.148H76.584ZM79.076 262.212C79.664 260.896 80.196 259.524 80.644 258.124L78.544 257.592C77.564 260.812 76.08 263.976 74.288 266.384V264.592H71.04V258.18H69.024V264.592H65.412V266.58H69.024V276.128C67.484 276.828 66.056 277.472 64.936 277.92L65.72 280.02C68.324 278.76 71.796 277.052 75.044 275.456L74.484 273.552C73.336 274.084 72.16 274.644 71.04 275.176V266.58H74.176C73.756 267.112 73.308 267.644 72.86 268.092C73.392 268.4 74.344 268.988 74.764 269.296C75.968 267.896 77.116 266.132 78.152 264.172H88.092C87.728 275.456 87.308 279.768 86.384 280.72C86.048 281.084 85.74 281.168 85.18 281.168C84.536 281.168 82.828 281.168 80.952 280.972C81.316 281.588 81.596 282.484 81.624 283.1C83.304 283.184 85.012 283.24 85.964 283.128C87 283.044 87.616 282.792 88.26 281.98C89.38 280.58 89.744 276.156 90.192 263.304C90.192 263.024 90.22 262.212 90.22 262.212H79.076ZM100.944 279.068V271.312H104.752V269.492H100.944V266.468H103.884V264.648H97.08C98.144 263.528 99.18 262.212 100.076 260.84C101.756 262.044 103.492 263.5 104.584 264.648L105.536 262.94C104.444 261.876 102.708 260.476 101 259.328C101.224 258.936 101.42 258.516 101.588 258.152L99.992 257.424C98.676 260.14 96.464 262.716 94.308 264.368C94.56 264.872 95.036 265.992 95.176 266.468C95.652 266.076 96.072 265.684 96.548 265.208V266.468H99.236V269.492H95.008V271.312H99.236V279.404C97.5 279.768 95.932 280.076 94.7 280.3L95.148 282.176C97.78 281.588 101.448 280.748 104.864 279.936L104.724 278.256L100.944 279.068ZM95.54 273.16C96.016 274.784 96.464 276.94 96.548 278.34L98.004 277.92C97.864 276.548 97.416 274.42 96.884 272.796L95.54 273.16ZM102.932 278.004C103.408 276.716 103.996 274.672 104.5 272.964L102.96 272.46C102.708 273.972 102.148 276.184 101.7 277.556L102.932 278.004ZM116.4 272.656V275.512H109.092V272.656H116.4ZM109.092 280.16V277.22H116.4V280.16H109.092ZM107.244 283.128H109.092V281.896H116.4V283.072H118.36V270.864H107.244V283.128ZM110.576 263.08H114.888V266.748H110.576V263.08ZM116.764 266.748V263.08H119.2V261.232H116.764V257.592H114.888V261.232H110.576V257.592H108.7V261.232H106.04V263.08H108.7V266.748H105.48V268.652H119.984V266.748H116.764ZM145.128 264.9H139.752V260.168H145.128V264.9ZM147.088 258.432H137.904V266.664H147.088V258.432ZM130.54 261.344C130.204 260.364 129.42 258.824 128.72 257.676L126.956 258.292C127.628 259.468 128.384 261.036 128.72 262.072L130.54 261.344ZM133.788 262.212H123.876V263.948H133.788V262.212ZM131.128 275.176V279.852H126.648V275.176H131.128ZM132.92 273.468H124.856V282.848H126.648V281.56H132.92V273.468ZM124.884 271.368H132.948V269.688H124.884V271.368ZM124.884 267.644H132.948V265.992H124.884V267.644ZM142.132 270.388H146.024V274H142.104C142.132 273.636 142.132 273.328 142.132 272.964V270.388ZM149.496 275.904V274H148.012V268.568H136.784V260.196H134.964V270.388H140.2V272.936C140.2 273.3 140.2 273.636 140.172 274H133.62V275.904H139.808C139.164 278.004 137.428 280.104 132.976 281.7C133.396 282.064 133.984 282.764 134.264 283.212C139.416 281.28 141.236 278.62 141.852 275.904H149.496ZM141.404 278.284C143.756 279.768 146.864 281.868 148.432 283.156L149.692 281.644C148.068 280.412 144.932 278.368 142.664 276.968L141.404 278.284ZM175.48 264.396C174.92 266.328 174.08 268.428 173.408 269.744C173.912 269.968 174.696 270.388 175.144 270.64C176.124 268.708 177.356 265.768 178.084 263.052L176.544 262.24L176.152 262.352H166.016C166.436 260.952 166.828 259.496 167.108 258.012L164.868 257.592C164.028 262.016 162.488 266.384 160.36 269.1C160.92 269.352 161.956 269.912 162.404 270.276C163.524 268.68 164.476 266.664 165.344 264.396H175.48ZM161.536 261.96H154.2V263.976H161.536V261.96ZM162.376 273.44H153.584V275.484H162.376V273.44ZM169.824 265.572H167.64V267.7C167.64 271.704 167.024 277.528 158.988 281.588C159.464 281.952 160.22 282.736 160.556 283.212C165.904 280.412 168.2 276.828 169.18 273.412C170.776 277.92 173.38 281.252 177.58 282.96C177.888 282.372 178.532 281.56 178.952 281.14C173.856 279.376 171.084 274.896 169.796 268.988C169.824 268.596 169.824 268.176 169.824 267.756V265.572ZM195.584 281.168C194.688 280.692 193.484 280.104 192.196 279.544C193.484 278.424 194.072 277.22 194.296 276.072H197.264V274.56H194.464V274.392V273.44H192.756V274.364V274.56H189.228C189.536 273.944 189.844 273.356 190.124 272.768H196.452V270.164C196.872 270.528 197.46 271.032 197.712 271.312C198.272 270.416 198.776 269.38 199.252 268.204C199.784 270.92 200.428 273.412 201.324 275.596C200.008 278.004 198.104 279.824 195.528 281.224L195.584 281.168ZM192.532 276.072C192.252 276.968 191.664 277.948 190.432 278.844C189.396 278.424 188.332 278.06 187.324 277.752C187.66 277.22 187.996 276.66 188.36 276.072H192.532ZM185.868 269.576H189.34V271.424H185.868V269.576ZM194.604 269.576V271.424H190.992V269.576H194.604ZM204.292 264.956C203.928 268.288 203.312 271.088 202.36 273.496C201.408 271.06 200.764 268.288 200.316 265.292L200.456 264.956H204.292ZM186.372 265.572V263.78H189.34V265.572H186.372ZM189.34 260.84V262.38H186.372V260.84H189.34ZM194.184 260.84V262.38H190.992V260.84H194.184ZM190.992 265.572V263.78H194.184V265.572H190.992ZM208.268 264.956V263.08H201.016C201.464 261.4 201.884 259.636 202.22 257.928L200.4 257.564C199.616 262.128 198.3 266.692 196.452 269.744V268.26H190.992V267.028H195.892V263.864H197.488V262.296H195.892V259.384H190.992V257.564H189.34V259.384H184.748V262.296H182.816V263.864H184.748V267.028H189.34V268.26H184.076V272.768H188.22C187.94 273.356 187.66 273.944 187.324 274.56H182.844V276.072H186.456C185.868 276.968 185.28 277.864 184.748 278.536C186.036 278.872 187.408 279.348 188.724 279.852C187.268 280.552 185.28 281.196 182.62 281.728C182.956 282.092 183.376 282.708 183.516 283.128C186.764 282.428 189.06 281.588 190.656 280.664C192.056 281.224 193.316 281.868 194.24 282.4L194.912 281.784C195.248 282.204 195.696 282.82 195.864 283.184C198.636 281.728 200.708 279.88 202.248 277.528C203.508 279.852 205.104 281.756 207.148 283.016C207.456 282.484 208.072 281.784 208.492 281.42C206.28 280.216 204.572 278.2 203.312 275.68C204.74 272.796 205.636 269.268 206.14 264.956H208.268Z" fill="black"/>
<path d="M242 321V323H244V321H242ZM240 216V321H244V216H240ZM242 319H2V323H242V319Z" fill="#DEDEDE" mask="url(#path-68-inside-23_245_3038)"/>
<mask id="path-71-inside-24_245_3038" fill="white">
<path d="M242 216H343V321H242V216Z"/>
</mask>
<path d="M242 216H343V321H242V216Z" fill="white"/>
<path d="M293.016 281.312C296.352 281.312 298.488 278.264 298.488 272.144C298.488 266.048 296.352 263.072 293.016 263.072C289.656 263.072 287.52 266.024 287.52 272.144C287.52 278.264 289.656 281.312 293.016 281.312ZM293.016 279.56C291 279.56 289.656 277.328 289.656 272.144C289.656 267.008 291 264.824 293.016 264.824C295.008 264.824 296.352 267.008 296.352 272.144C296.352 277.328 295.008 279.56 293.016 279.56Z" fill="black"/>
<path d="M343 321V323H345V321H343ZM341 216V321H345V216H341ZM343 319H242V323H343V319Z" fill="#D5D5D5" mask="url(#path-71-inside-24_245_3038)"/>
<mask id="path-74-inside-25_245_3038" fill="white">
<path d="M343 216H444V321H343V216Z"/>
</mask>
<path d="M343 216H444V321H343V216Z" fill="white"/>
<path d="M389.456 281H399.104V279.176H395.576V263.384H393.896C392.936 263.96 391.808 264.368 390.248 264.656V266.048H393.368V279.176H389.456V281Z" fill="black"/>
<path d="M444 321V323H446V321H444ZM442 216V321H446V216H442ZM444 319H343V323H444V319Z" fill="#D5D5D5" mask="url(#path-74-inside-25_245_3038)"/>
<mask id="path-77-inside-26_245_3038" fill="white">
<path d="M444 216H545V321H444V216Z"/>
</mask>
<path d="M444 216H545V321H444V216Z" fill="white"/>
<path d="M483.82 281.312C487.156 281.312 489.292 278.264 489.292 272.144C489.292 266.048 487.156 263.072 483.82 263.072C480.46 263.072 478.324 266.024 478.324 272.144C478.324 278.264 480.46 281.312 483.82 281.312ZM483.82 279.56C481.804 279.56 480.46 277.328 480.46 272.144C480.46 267.008 481.804 264.824 483.82 264.824C485.812 264.824 487.156 267.008 487.156 272.144C487.156 277.328 485.812 279.56 483.82 279.56ZM494.996 281.312C495.86 281.312 496.58 280.64 496.58 279.656C496.58 278.648 495.86 277.952 494.996 277.952C494.132 277.952 493.412 278.648 493.412 279.656C493.412 280.64 494.132 281.312 494.996 281.312ZM501.652 281H511.3V279.176H507.772V263.384H506.092C505.132 263.96 504.004 264.368 502.444 264.656V266.048H505.564V279.176H501.652V281Z" fill="black"/>
<path d="M545 321V323H547V321H545ZM543 216V321H547V216H543ZM545 319H444V323H545V319Z" fill="#D5D5D5" mask="url(#path-77-inside-26_245_3038)"/>
<mask id="path-80-inside-27_245_3038" fill="white">
<path d="M545 216H646V321H545V216Z"/>
</mask>
<path d="M545 216H646V321H545V216Z" fill="white"/>
<path d="M591.456 281H601.104V279.176H597.576V263.384H595.896C594.936 263.96 593.808 264.368 592.248 264.656V266.048H595.368V279.176H591.456V281Z" fill="black"/>
<path d="M646 321V323H648V321H646ZM644 216V321H648V216H644ZM646 319H545V323H646V319Z" fill="#D5D5D5" mask="url(#path-80-inside-27_245_3038)"/>
<mask id="path-83-inside-28_245_3038" fill="white">
<path d="M646 216H747V321H646V216Z"/>
</mask>
<path d="M646 216H747V321H646V216Z" fill="white"/>
<path d="M685.82 281.312C689.156 281.312 691.292 278.264 691.292 272.144C691.292 266.048 689.156 263.072 685.82 263.072C682.46 263.072 680.324 266.024 680.324 272.144C680.324 278.264 682.46 281.312 685.82 281.312ZM685.82 279.56C683.804 279.56 682.46 277.328 682.46 272.144C682.46 267.008 683.804 264.824 685.82 264.824C687.812 264.824 689.156 267.008 689.156 272.144C689.156 277.328 687.812 279.56 685.82 279.56ZM696.996 281.312C697.86 281.312 698.58 280.64 698.58 279.656C698.58 278.648 697.86 277.952 696.996 277.952C696.132 277.952 695.412 278.648 695.412 279.656C695.412 280.64 696.132 281.312 696.996 281.312ZM706.292 281H708.572C708.836 274.112 709.604 270.008 713.732 264.728V263.384H702.716V265.28H711.236C707.804 270.08 706.58 274.328 706.292 281Z" fill="black"/>
<path d="M747 321V323H749V321H747ZM745 216V321H749V216H745ZM747 319H646V323H747V319Z" fill="#D5D5D5" mask="url(#path-83-inside-28_245_3038)"/>
<mask id="path-86-inside-29_245_3038" fill="white">
<path d="M747 216H848V321H747V216Z"/>
</mask>
<path d="M747 216H848V321H747V216Z" fill="white"/>
<path d="M786.82 281.312C790.156 281.312 792.292 278.264 792.292 272.144C792.292 266.048 790.156 263.072 786.82 263.072C783.46 263.072 781.324 266.024 781.324 272.144C781.324 278.264 783.46 281.312 786.82 281.312ZM786.82 279.56C784.804 279.56 783.46 277.328 783.46 272.144C783.46 267.008 784.804 264.824 786.82 264.824C788.812 264.824 790.156 267.008 790.156 272.144C790.156 277.328 788.812 279.56 786.82 279.56ZM797.996 281.312C798.86 281.312 799.58 280.64 799.58 279.656C799.58 278.648 798.86 277.952 797.996 277.952C797.132 277.952 796.412 278.648 796.412 279.656C796.412 280.64 797.132 281.312 797.996 281.312ZM807.292 281H809.572C809.836 274.112 810.604 270.008 814.732 264.728V263.384H803.716V265.28H812.236C808.804 270.08 807.58 274.328 807.292 281Z" fill="black"/>
<path d="M848 321V323H850V321H848ZM846 216V321H850V216H846ZM848 319H747V323H848V319Z" fill="#D5D5D5" mask="url(#path-86-inside-29_245_3038)"/>
<mask id="path-89-inside-30_245_3038" fill="white">
<path d="M848 216H949V321H848V216Z"/>
</mask>
<path d="M848 216H949V321H848V216Z" fill="white"/>
<path d="M887.82 281.312C891.156 281.312 893.292 278.264 893.292 272.144C893.292 266.048 891.156 263.072 887.82 263.072C884.46 263.072 882.324 266.024 882.324 272.144C882.324 278.264 884.46 281.312 887.82 281.312ZM887.82 279.56C885.804 279.56 884.46 277.328 884.46 272.144C884.46 267.008 885.804 264.824 887.82 264.824C889.812 264.824 891.156 267.008 891.156 272.144C891.156 277.328 889.812 279.56 887.82 279.56ZM898.996 281.312C899.86 281.312 900.58 280.64 900.58 279.656C900.58 278.648 899.86 277.952 898.996 277.952C898.132 277.952 897.412 278.648 897.412 279.656C897.412 280.64 898.132 281.312 898.996 281.312ZM905.652 281H915.3V279.176H911.772V263.384H910.092C909.132 263.96 908.004 264.368 906.444 264.656V266.048H909.564V279.176H905.652V281Z" fill="black"/>
<path d="M949 321V323H951V321H949ZM947 216V321H951V216H947ZM949 319H848V323H949V319Z" fill="#D5D5D5" mask="url(#path-89-inside-30_245_3038)"/>
<mask id="path-92-inside-31_245_3038" fill="white">
<path d="M949 216H1050V321H949V216Z"/>
</mask>
<path d="M949 216H1050V321H949V216Z" fill="white"/>
<path d="M988.82 281.312C992.156 281.312 994.292 278.264 994.292 272.144C994.292 266.048 992.156 263.072 988.82 263.072C985.46 263.072 983.324 266.024 983.324 272.144C983.324 278.264 985.46 281.312 988.82 281.312ZM988.82 279.56C986.804 279.56 985.46 277.328 985.46 272.144C985.46 267.008 986.804 264.824 988.82 264.824C990.812 264.824 992.156 267.008 992.156 272.144C992.156 277.328 990.812 279.56 988.82 279.56ZM999.996 281.312C1000.86 281.312 1001.58 280.64 1001.58 279.656C1001.58 278.648 1000.86 277.952 999.996 277.952C999.132 277.952 998.412 278.648 998.412 279.656C998.412 280.64 999.132 281.312 999.996 281.312ZM1009.29 281H1011.57C1011.84 274.112 1012.6 270.008 1016.73 264.728V263.384H1005.72V265.28H1014.24C1010.8 270.08 1009.58 274.328 1009.29 281Z" fill="black"/>
<path d="M1050 321V323H1052V321H1050ZM1048 216V321H1052V216H1048ZM1050 319H949V323H1050V319Z" fill="#D5D5D5" mask="url(#path-92-inside-31_245_3038)"/>
<mask id="path-95-inside-32_245_3038" fill="white">
<path d="M1050 216H1151V321H1050V216Z"/>
</mask>
<path d="M1050 216H1151V321H1050V216Z" fill="white"/>
<path d="M1089.82 281.312C1093.16 281.312 1095.29 278.264 1095.29 272.144C1095.29 266.048 1093.16 263.072 1089.82 263.072C1086.46 263.072 1084.32 266.024 1084.32 272.144C1084.32 278.264 1086.46 281.312 1089.82 281.312ZM1089.82 279.56C1087.8 279.56 1086.46 277.328 1086.46 272.144C1086.46 267.008 1087.8 264.824 1089.82 264.824C1091.81 264.824 1093.16 267.008 1093.16 272.144C1093.16 277.328 1091.81 279.56 1089.82 279.56ZM1101 281.312C1101.86 281.312 1102.58 280.64 1102.58 279.656C1102.58 278.648 1101.86 277.952 1101 277.952C1100.13 277.952 1099.41 278.648 1099.41 279.656C1099.41 280.64 1100.13 281.312 1101 281.312ZM1108.3 274.4L1112.31 268.4C1112.81 267.536 1113.29 266.672 1113.72 265.808H1113.82C1113.77 266.72 1113.7 268.136 1113.7 269V274.4H1108.3ZM1113.7 281H1115.76V276.152H1118.09V274.4H1115.76V263.384H1113.34L1106.02 274.712V276.152H1113.7V281Z" fill="black"/>
<path d="M1151 321V323H1153V321H1151ZM1149 216V321H1153V216H1149ZM1151 319H1050V323H1151V319Z" fill="#D5D5D5" mask="url(#path-95-inside-32_245_3038)"/>
<mask id="path-98-inside-33_245_3038" fill="white">
<path d="M1151 216H1254V321H1151V216Z"/>
</mask>
<path d="M1151 216H1254V321H1151V216Z" fill="white"/>
<path d="M1189.89 281.336C1193.18 281.336 1196.1 279.056 1196.1 275.096C1196.1 271.232 1193.61 269.456 1190.63 269.456C1189.82 269.456 1189.22 269.624 1188.5 269.96L1188.83 266.192H1195.29V263.216H1185.78L1185.3 271.856L1186.91 272.912C1187.94 272.24 1188.52 271.976 1189.58 271.976C1191.38 271.976 1192.58 273.128 1192.58 275.192C1192.58 277.28 1191.28 278.456 1189.43 278.456C1187.78 278.456 1186.53 277.64 1185.52 276.656L1183.89 278.912C1185.21 280.232 1187.08 281.336 1189.89 281.336ZM1202.49 281.336C1203.76 281.336 1204.69 280.328 1204.69 279.032C1204.69 277.712 1203.76 276.728 1202.49 276.728C1201.24 276.728 1200.3 277.712 1200.3 279.032C1200.3 280.328 1201.24 281.336 1202.49 281.336ZM1211.8 268.832C1211.8 266.648 1212.88 265.568 1214.2 265.568C1215.71 265.568 1216.94 266.768 1217.25 269.984C1216.43 271.352 1215.31 271.904 1214.32 271.904C1212.79 271.904 1211.8 270.92 1211.8 268.832ZM1213.72 281.336C1217.25 281.336 1220.54 278.432 1220.54 271.712C1220.54 265.544 1217.51 262.904 1214.15 262.904C1211.11 262.904 1208.56 265.184 1208.56 268.832C1208.56 272.6 1210.7 274.424 1213.65 274.424C1214.85 274.424 1216.36 273.704 1217.3 272.504C1217.13 276.944 1215.5 278.456 1213.51 278.456C1212.45 278.456 1211.37 277.904 1210.72 277.184L1208.85 279.32C1209.91 280.4 1211.51 281.336 1213.72 281.336Z" fill="#932F2F"/>
<path d="M1254 319H1151V323H1254V319Z" fill="#D5D5D5" mask="url(#path-98-inside-33_245_3038)"/>
<mask id="path-101-inside-34_245_3038" fill="white">
<path d="M2 321H242V426H2V321Z"/>
</mask>
<path d="M2 321H242V426H2V321Z" fill="#F0EFEC"/>
<path d="M28.512 386.364C32.796 386.364 35.484 383.788 35.484 380.54C35.484 377.488 33.636 376.088 31.256 375.052L28.316 373.792C26.72 373.12 24.928 372.364 24.928 370.376C24.928 368.528 26.44 367.352 28.764 367.352C30.668 367.352 32.18 368.108 33.44 369.284L34.812 367.632C33.356 366.12 31.2 365.084 28.764 365.084C25.04 365.084 22.296 367.38 22.296 370.544C22.296 373.54 24.564 374.996 26.468 375.808L29.436 377.096C31.368 377.964 32.852 378.636 32.852 380.736C32.852 382.752 31.228 384.096 28.54 384.096C26.412 384.096 24.34 383.088 22.884 381.548L21.316 383.312C23.108 385.188 25.6 386.364 28.512 386.364ZM48.187 386.364C52.387 386.364 55.579 384.124 55.579 377.516V365.448H53.087V377.6C53.087 382.556 50.931 384.096 48.187 384.096C45.527 384.096 43.427 382.556 43.427 377.6V365.448H40.823V377.516C40.823 384.124 44.015 386.364 48.187 386.364ZM67.8979 386.364C72.1819 386.364 74.8699 383.788 74.8699 380.54C74.8699 377.488 73.0219 376.088 70.6419 375.052L67.7019 373.792C66.1059 373.12 64.3139 372.364 64.3139 370.376C64.3139 368.528 65.8259 367.352 68.1499 367.352C70.0539 367.352 71.5659 368.108 72.8259 369.284L74.1979 367.632C72.7419 366.12 70.5859 365.084 68.1499 365.084C64.4259 365.084 61.6819 367.38 61.6819 370.544C61.6819 373.54 63.9499 374.996 65.8539 375.808L68.8219 377.096C70.7539 377.964 72.2379 378.636 72.2379 380.736C72.2379 382.752 70.6139 384.096 67.9259 384.096C65.7979 384.096 63.7259 383.088 62.2699 381.548L60.7019 383.312C62.4939 385.188 64.9859 386.364 67.8979 386.364ZM84.801 370.012H98.549V372.784H84.801V370.012ZM84.801 365.588H98.549V368.36H84.801V365.588ZM86.565 376.9C87.153 376.144 87.769 375.36 88.245 374.548H100.649V363.852H82.757V374.548H85.837C84.073 377.124 81.385 379.42 78.669 380.96C79.173 381.296 79.957 382.024 80.293 382.416C81.833 381.464 83.401 380.204 84.829 378.776H88.721C86.873 381.772 84.017 384.404 81.021 386.084C81.497 386.448 82.281 387.204 82.617 387.568C85.809 385.524 88.973 382.388 91.017 378.776H94.797C93.453 382.108 91.325 385.076 88.749 387.008C89.253 387.288 90.065 387.96 90.429 388.296C93.089 386.084 95.441 382.696 96.925 378.776H100.341C99.893 383.592 99.417 385.58 98.801 386.14C98.549 386.42 98.269 386.448 97.793 386.448C97.289 386.448 96.001 386.448 94.657 386.308C94.965 386.812 95.189 387.568 95.217 388.128C96.617 388.212 97.961 388.212 98.661 388.156C99.473 388.128 100.005 387.932 100.537 387.372C101.377 386.504 101.937 384.096 102.469 377.852C102.525 377.544 102.553 376.9 102.553 376.9H86.565ZM122.069 377.628V372.98H129.601V377.628H122.069ZM113.193 377.628C113.277 376.592 113.305 375.556 113.305 374.632V372.98H119.997V377.628H113.193ZM119.997 366.54V371.02H113.305V366.54H119.997ZM129.601 371.02H122.069V366.54H129.601V371.02ZM131.645 364.552H111.261V374.632C111.261 378.524 110.981 383.452 107.901 386.924C108.349 387.176 109.189 387.876 109.497 388.296C111.625 385.916 112.577 382.724 112.997 379.616H119.997V387.876H122.069V379.616H129.601V385.3C129.601 385.832 129.405 386 128.845 386.028C128.341 386.028 126.437 386.056 124.477 385.972C124.757 386.532 125.093 387.428 125.177 387.988C127.809 388.016 129.433 387.988 130.385 387.652C131.281 387.288 131.645 386.672 131.645 385.328V364.552ZM138.785 375.584C139.513 373.54 140.045 370.376 140.185 368.08L138.617 367.856C138.421 370.124 137.917 373.176 137.161 375.024L138.785 375.584ZM141.193 388.128H143.265V362.564H141.193V388.128ZM143.461 367.716C144.245 369.256 145.085 371.272 145.393 372.476L146.961 371.72C146.625 370.544 145.757 368.556 144.917 367.044L143.461 367.716ZM155.753 385.188V378.188H161.465V376.256H155.753V370.46H162.081V368.472H155.753V362.676H153.681V368.472H150.181C150.573 367.1 150.909 365.644 151.189 364.188L149.173 363.852C148.529 367.66 147.409 371.412 145.785 373.848C146.289 374.072 147.213 374.52 147.633 374.8C148.389 373.596 149.033 372.14 149.593 370.46H153.681V376.256H147.745V378.188H153.681V385.188H145.673V387.176H162.753V385.188H155.753ZM188.401 367.268H179.189V365.028H188.401V367.268ZM188.401 371.048H179.189V368.78H188.401V371.048ZM190.473 363.46H177.173V372.644H190.473V363.46ZM172.777 362.676C171.545 364.636 169.053 366.96 166.841 368.388C167.205 368.808 167.709 369.592 167.933 370.068C170.397 368.416 173.113 365.812 174.765 363.432L172.777 362.676ZM173.281 368.78C171.629 371.664 168.913 374.492 166.393 376.34C166.757 376.844 167.317 377.908 167.485 378.328C168.577 377.488 169.697 376.452 170.761 375.304V388.128H172.805V372.952C173.645 371.832 174.457 370.656 175.101 369.508L173.281 368.78ZM177.229 381.912C178.517 383.144 180.001 384.852 180.673 385.972L182.269 384.852C181.541 383.76 180.001 382.108 178.713 380.96L177.229 381.912ZM192.293 378.692H188.121V376.312H191.789V374.52H175.465V376.312H186.049V378.692H174.821V380.484H186.049V385.804C186.049 386.168 185.937 386.28 185.489 386.308C185.097 386.336 183.697 386.336 182.129 386.28C182.409 386.84 182.717 387.596 182.801 388.184C184.901 388.184 186.217 388.156 187.057 387.848C187.869 387.512 188.121 386.98 188.121 385.86V380.484H192.293V378.692ZM203.381 363.516C202.037 367.884 199.489 371.58 196.185 373.876C196.689 374.212 197.557 374.996 197.921 375.416C201.197 372.784 203.969 368.808 205.537 364.048L203.381 363.516ZM200.385 373.092V375.108H206.097C205.425 379.84 203.885 384.264 197.305 386.476C197.809 386.924 198.397 387.736 198.649 388.296C205.761 385.692 207.581 380.652 208.309 375.108H215.533C215.197 382.164 214.805 384.964 214.077 385.664C213.797 385.972 213.489 386.028 212.901 386.028C212.229 386.028 210.521 386 208.701 385.832C209.093 386.448 209.345 387.288 209.373 387.932C211.109 388.016 212.873 388.072 213.769 387.988C214.777 387.876 215.365 387.68 215.953 386.98C216.905 385.916 217.297 382.696 217.689 374.1C217.717 373.82 217.745 373.092 217.745 373.092H200.385ZM207.749 363.068V365.028H212.705C214.301 369.2 217.185 373.12 220.657 375.36C221.021 374.772 221.693 373.932 222.141 373.484C218.585 371.468 215.589 367.464 214.189 363.068H207.749Z" fill="black"/>
<path d="M240 321V426H244V321H240Z" fill="#DEDEDE" mask="url(#path-101-inside-34_245_3038)"/>
<path d="M242 321H1254V426H242V321Z" fill="white"/>
<path d="M708.952 376.704L711.712 372.288C712.216 371.328 712.696 370.344 713.128 369.384H713.224C713.176 370.44 713.104 372.048 713.104 373.08V376.704H708.952ZM713.104 384H716.392V379.392H718.48V376.704H716.392V366.216H712.144L705.52 376.992V379.392H713.104V384ZM724.812 384H728.388C728.676 377.04 729.228 373.416 733.356 368.376V366.216H721.548V369.192H729.54C726.156 373.896 725.124 377.832 724.812 384ZM736.017 388.368H738.369L744.321 364.656H741.993L736.017 388.368ZM748.154 384H758.834V381.144H755.498V366.216H752.882C751.754 366.936 750.53 367.392 748.754 367.728V369.912H751.97V381.144H748.154V384ZM768.599 384.336C772.223 384.336 774.599 381.168 774.599 375.048C774.599 368.928 772.223 365.904 768.599 365.904C764.975 365.904 762.575 368.904 762.575 375.048C762.575 381.168 764.975 384.336 768.599 384.336ZM768.599 381.576C767.063 381.576 765.911 380.04 765.911 375.048C765.911 370.08 767.063 368.64 768.599 368.64C770.135 368.64 771.263 370.08 771.263 375.048C771.263 380.04 770.135 381.576 768.599 381.576ZM783.932 384.336C787.556 384.336 789.932 381.168 789.932 375.048C789.932 368.928 787.556 365.904 783.932 365.904C780.308 365.904 777.908 368.904 777.908 375.048C777.908 381.168 780.308 384.336 783.932 384.336ZM783.932 381.576C782.396 381.576 781.244 380.04 781.244 375.048C781.244 370.08 782.396 368.64 783.932 368.64C785.468 368.64 786.596 370.08 786.596 375.048C786.596 380.04 785.468 381.576 783.932 381.576Z" fill="#932F2F"/>
<rect x="1" y="1" width="1254" height="426" stroke="#D7D7D7" stroke-width="2"/>
</svg>
