<svg width="1742" height="523" viewBox="0 0 1742 523" fill="none" xmlns="http://www.w3.org/2000/svg">
<rect width="350" height="417" transform="translate(261 106)" fill="#F0EFEC"/>
<path d="M405.272 192.92H395.96L398.04 191.96C397.528 190.84 396.44 189.24 395.352 188.056L393.368 188.92C394.36 190.104 395.384 191.8 395.896 192.92H387.832V195.128H405.272V192.92ZM397.976 197.048C400.024 199.064 402.424 201.944 403.448 203.832L405.208 202.36C404.152 200.536 401.688 197.752 399.608 195.8L397.976 197.048ZM392.056 195.96C390.936 198.2 388.92 200.888 386.84 202.584C387.352 202.968 388.12 203.608 388.504 204.024C390.616 202.168 392.76 199.448 394.2 196.92L392.056 195.96ZM387.224 204.728C386.68 203.768 384.216 199.576 383.448 198.488V197.208H387.032V194.968H383.448V188.216H381.272V194.968H377.112V197.208H380.824C379.928 201.592 378.008 206.648 376.056 209.336C376.504 209.912 377.08 210.936 377.336 211.608C378.808 209.368 380.216 205.72 381.272 201.944V217.432H383.448V201.592C384.312 203.32 385.368 205.432 385.784 206.52L387.224 204.728ZM399.288 201.56C398.584 204.12 397.528 206.392 396.088 208.408C394.52 206.424 393.304 204.184 392.408 201.688L390.36 202.264C391.416 205.208 392.824 207.896 394.616 210.2C392.504 212.44 389.848 214.296 386.616 215.704C387.096 216.12 387.8 216.984 388.12 217.496C391.32 216.056 393.976 214.2 396.12 211.96C398.328 214.264 401.048 216.088 404.184 217.24C404.536 216.6 405.24 215.64 405.784 215.192C402.616 214.136 399.896 212.408 397.656 210.168C399.384 207.864 400.696 205.176 401.56 202.136L399.288 201.56ZM437.176 195.32H426.104C425.816 193.56 425.624 191.672 425.528 189.656H417.752V191.768H423.512C423.576 193.016 423.704 194.2 423.864 195.32H412.216V217.432H414.584V197.656H422.904C421.816 202.68 419.192 206.136 414.904 208.216C415.416 208.664 416.152 209.56 416.504 210.104C420.76 207.928 423.384 204.376 424.728 199.48C426.104 204.28 428.568 207.864 432.76 209.944C433.144 209.304 433.912 208.376 434.424 207.864C430.232 206.072 427.832 202.552 426.616 197.656H434.776V214.328C434.776 214.84 434.648 215 434.072 215.032C433.432 215.064 431.448 215.064 429.368 215C429.72 215.64 430.072 216.728 430.168 217.4C432.888 217.4 434.712 217.4 435.8 217.016C436.856 216.6 437.176 215.832 437.176 214.328V195.32ZM452.6 206.808V212.28H447.032V206.808H452.6ZM452.312 195.064V199.768H447.032V195.064H452.312ZM447.032 201.784H454.424V193.016H449.72C450.296 191.704 450.968 190.04 451.48 188.6L448.92 188.216C448.632 189.624 448.088 191.544 447.544 193.016H444.856V216.472H447.032V214.328H454.744V204.76H447.032V201.784ZM472.664 192.056V189.912H455.704V192.056H463V195.992H456.888V212.664H459.064V198.168H463V217.4H465.24V198.168H469.496V210.136C469.496 210.456 469.4 210.584 469.048 210.584C468.728 210.584 467.736 210.584 466.584 210.552C466.84 211.128 467.16 212.024 467.224 212.632C468.952 212.632 470.04 212.6 470.776 212.248C471.512 211.896 471.704 211.224 471.704 210.168V195.992H465.24V192.056H472.664ZM493.08 214.136V206.008H503.352V203.704H493.08V196.728H504.536V194.392H493.08V188.248H490.648V194.392H484.152C484.856 192.76 485.432 191.032 485.944 189.272L483.544 188.76C482.296 193.304 480.248 197.72 477.624 200.536C478.264 200.856 479.32 201.56 479.8 201.944C480.984 200.504 482.104 198.744 483.128 196.728H490.648V203.704H481.144V206.008H490.648V214.136H477.688V216.44H506.04V214.136H493.08Z" fill="black"/>
<path d="M331 370.448C329.112 370.448 327.608 371.952 327.608 373.84C327.608 375.728 329.112 377.232 331 377.232C332.888 377.232 334.392 375.728 334.392 373.84C334.392 371.952 332.888 370.448 331 370.448ZM367.8 377.968L363.384 379.216V372.08H367.32V369.872H363.384V363.056H367.608V360.88H356.696V363.056H361.112V369.872H357.08V372.08H361.112V379.824C359.224 380.368 357.496 380.816 356.088 381.168L356.728 383.44C359.832 382.512 364.088 381.264 368.088 380.08L367.8 377.968ZM371.32 372.848H381.688V376.112H371.32V372.848ZM371.32 367.728H381.688V370.928H371.32V367.728ZM371.32 362.64H381.688V365.84H371.32V362.64ZM380.6 386.16C379.8 386.16 379.672 386.032 379.672 385.232V378.128H384.024V360.624H369.08V378.128H371.928C371.416 382.256 369.976 385.136 364.344 386.672C364.824 387.12 365.464 388.08 365.688 388.624C371.896 386.704 373.624 383.216 374.264 378.128H377.4V385.232C377.4 387.536 377.976 388.208 380.248 388.208H383.352C385.272 388.208 385.88 387.216 386.04 383.312C385.464 383.152 384.504 382.8 384.056 382.384C383.96 385.68 383.832 386.16 383.096 386.16H380.6ZM414.744 364.496H404.504V361.968H414.744V364.496ZM414.744 368.72H404.504V366.16H414.744V368.72ZM416.952 360.176H402.328V370.512H416.952V360.176ZM399.608 375.888L396.344 377.36V368.368H399.8V366.128H396.344V359.472H394.136V366.128H390.392V368.368H394.136V378.384C392.504 379.12 391 379.76 389.784 380.272L390.712 382.608C393.4 381.328 396.888 379.632 400.12 378L399.608 375.888ZM419.224 374.32V372.304H399.192V374.32H403.672C402.168 376.944 399.864 379.216 397.336 380.72C397.816 381.04 398.648 381.808 398.968 382.192C400.408 381.232 401.848 379.984 403.128 378.544H406.36C404.632 381.392 401.816 384.272 399.16 385.712C399.736 386.096 400.376 386.672 400.728 387.184C403.672 385.328 406.808 381.84 408.504 378.544H411.608C410.296 382 407.96 385.456 405.368 387.184C405.944 387.536 406.68 388.08 407.064 388.56C409.816 386.48 412.312 382.352 413.592 378.544H416.088C415.672 383.568 415.192 385.584 414.648 386.16C414.424 386.48 414.136 386.512 413.688 386.512C413.208 386.512 412.152 386.48 410.968 386.384C411.288 386.864 411.512 387.728 411.512 388.304C412.792 388.368 413.976 388.368 414.68 388.336C415.416 388.24 415.992 388.08 416.472 387.536C417.368 386.608 417.88 384.112 418.36 377.52C418.424 377.2 418.456 376.56 418.456 376.56H404.696C405.208 375.856 405.656 375.088 406.072 374.32H419.224ZM443.032 380.912C442.52 382.32 441.528 384.272 440.696 385.616H433.304L435.288 384.944C434.968 383.824 434.136 382.192 433.336 380.976L431.192 381.648C431.96 382.864 432.696 384.528 432.984 385.616H424.216V387.696H452.216V385.616H443.128C443.8 384.4 444.6 382.896 445.272 381.52L443.032 380.912ZM444.568 378.736H431.288V374.736H444.568V378.736ZM447.064 372.752H428.952V380.72H447.064V372.752ZM450.232 363.28C449.144 364.432 447.352 365.968 445.784 367.152C445.016 366.384 444.28 365.552 443.64 364.72C445.208 363.632 447.032 362.16 448.504 360.784L446.68 359.504C445.656 360.624 443.992 362.128 442.552 363.28C441.688 362 440.92 360.656 440.344 359.312L438.264 359.952C439.576 362.96 441.368 365.712 443.576 368.112H433.016C434.84 366.096 436.376 363.76 437.368 361.136L435.8 360.336L435.352 360.432H425.528V362.448H434.232C433.432 364.016 432.28 365.52 431.032 366.928C430.008 365.84 428.312 364.592 426.84 363.728L425.56 365.072C427 365.968 428.632 367.216 429.624 368.304C427.64 370.128 425.336 371.632 423.16 372.528C423.64 372.976 424.312 373.776 424.632 374.32C427.352 373.04 430.136 371.088 432.504 368.656V370.16H443.96V368.528C446.2 370.864 448.76 372.784 451.544 374.032C451.96 373.424 452.632 372.496 453.176 372.048C451.032 371.216 448.984 369.936 447.16 368.368C448.728 367.28 450.584 365.84 452.024 364.496L450.232 363.28ZM465.56 362.896C465.048 361.84 463.928 360.208 462.808 359.056L460.984 360.048C462.008 361.232 463.128 362.928 463.608 364.016L465.56 362.896ZM466.328 379.408V384.752H460.728V379.408H466.328ZM468.472 377.456H458.616V388.208H460.728V386.736H468.472V377.456ZM458.2 375.024H468.984V373.104H458.2V375.024ZM458.808 368.656V370.512H468.376V368.656H458.808ZM457.272 366.16H470.008V364.208H457.272V366.16ZM476.152 385.552C474.424 385.552 474.072 385.296 474.072 384.048V373.648H482.104V375.344H484.44V360.976H471.32V363.248H482.104V371.376H471.736V384.048C471.736 387.056 472.696 387.792 475.96 387.792H482.232C485.368 387.792 486.104 386.416 486.456 381.232C485.752 381.104 484.792 380.688 484.216 380.272C484.024 384.72 483.736 385.552 482.072 385.552H476.152ZM519.576 372.784C519.256 371.6 518.488 369.552 517.784 368.048L516.344 368.464C516.6 369.072 516.856 369.744 517.112 370.384L513.88 370.832C515.512 368.848 517.208 366.288 518.552 363.664L516.76 362.992C516.44 363.728 516.056 364.496 515.64 365.2L513.304 365.456C514.296 363.984 515.288 362.096 516.056 360.208L514.328 359.664C513.656 361.808 512.312 364.144 511.992 364.688C511.608 365.296 511.256 365.712 510.872 365.744C511.096 366.256 511.384 367.12 511.48 367.536C511.8 367.376 512.344 367.216 514.712 366.896C513.848 368.272 513.112 369.328 512.76 369.744C512.184 370.512 511.704 371.056 511.224 371.152C511.416 371.632 511.704 372.624 511.832 373.008C512.216 372.784 513.016 372.624 517.624 371.888C517.816 372.432 517.944 372.944 518.04 373.328L519.576 372.784ZM508.056 373.328C507.768 372.144 507.128 370.128 506.424 368.592L504.92 369.008C505.176 369.648 505.432 370.32 505.688 371.024L502.552 371.44C504.248 369.456 505.944 366.928 507.352 364.368L505.624 363.696C505.304 364.432 504.92 365.136 504.536 365.84L502.008 366.096C503.16 364.496 504.312 362.384 505.208 360.304L503.416 359.728C502.648 362.16 501.176 364.624 500.728 365.264C500.28 365.904 499.928 366.32 499.544 366.416C499.736 366.896 500.024 367.792 500.088 368.176C500.408 368.016 501.016 367.856 503.512 367.504C502.616 368.88 501.784 370 501.432 370.384C500.824 371.184 500.28 371.696 499.832 371.824C500.056 372.304 500.312 373.232 500.376 373.616C500.824 373.36 501.56 373.232 506.136 372.528C506.264 373.04 506.392 373.488 506.488 373.872L508.056 373.328ZM499.416 374.544C498.968 373.744 497.24 370.8 496.536 369.68V367.6H499.064V365.36H496.536V359.216H494.456V365.36H491.064V367.6H494.264C493.496 371.792 491.96 376.688 490.36 379.28C490.712 379.856 491.224 380.912 491.48 381.584C492.568 379.664 493.656 376.528 494.456 373.232V388.432H496.536V372.56C497.208 373.904 497.912 375.44 498.232 376.304L499.416 374.544ZM515.768 377.936C515.096 379.376 514.104 380.752 512.92 381.968C512.376 380.752 511.96 379.28 511.544 377.584H519.256V375.664H516.6L517.432 374.8C516.696 374.128 515.224 373.136 514.104 372.496L512.888 373.616C513.816 374.192 514.968 374.992 515.736 375.664H511.16C510.36 371.28 509.912 365.712 509.752 359.472H507.704C507.896 365.584 508.312 371.12 509.08 375.664H499.736V377.584H502.168V378.032C502.168 380.72 501.368 384.304 497.624 387.056C498.072 387.312 498.872 388.048 499.192 388.496C502.008 386.352 503.352 383.568 503.896 381.008C505.144 382.064 506.392 383.248 507.128 384.048L508.6 382.608C507.64 381.616 505.72 379.984 504.184 378.8C504.216 378.544 504.216 378.288 504.216 378.064V377.584H509.432C509.944 379.824 510.552 381.808 511.288 383.44C509.592 384.784 507.544 385.904 505.336 386.768C505.784 387.152 506.36 387.856 506.616 388.272C508.664 387.44 510.552 386.384 512.216 385.168C513.528 387.152 515.192 388.304 517.272 388.432C518.552 388.528 519.544 387.344 520.152 383.856C519.736 383.632 518.936 383.088 518.552 382.64C518.296 384.944 517.88 386.16 517.208 386.096C515.928 385.968 514.808 385.2 513.88 383.792C515.512 382.288 516.824 380.592 517.816 378.672L515.768 377.936ZM546.68 377.328V384.4H531.224V377.328H546.68ZM528.824 388.432H531.224V386.704H546.68V388.368H549.176V375.056H528.824V388.432ZM542.136 364.08C543.672 365.456 545.304 367.12 546.776 368.784L530.456 369.584C533.272 366.928 536.12 363.632 538.648 360.176L536.312 359.12C533.816 363.088 530.104 367.12 528.952 368.144C527.896 369.2 527.064 369.904 526.36 370.032C526.616 370.672 527.032 371.856 527.128 372.368C528.376 371.92 530.232 371.856 548.504 370.832C549.304 371.824 549.976 372.752 550.456 373.584L552.472 372.144C550.808 369.488 547.128 365.584 544.024 362.864L542.136 364.08ZM331 426.448C329.112 426.448 327.608 427.952 327.608 429.84C327.608 431.728 329.112 433.232 331 433.232C332.888 433.232 334.392 431.728 334.392 429.84C334.392 427.952 332.888 426.448 331 426.448ZM360.664 419.152H371.096V423.248H360.664V419.152ZM373.464 428.656H368.184V425.36H373.336V417.04H358.52V427.792C358.52 432.208 358.328 438.224 356.088 442.48C356.568 442.704 357.496 443.408 357.848 443.856C360.312 439.312 360.664 432.496 360.664 427.792V425.36H366.136V428.656H361.208V440.976H363.032V430.672H366.136V444.368H368.184V430.672H371.512V438.384C371.512 438.672 371.448 438.768 371.128 438.768C370.808 438.8 369.976 438.8 368.792 438.768C369.08 439.344 369.368 440.144 369.432 440.72C370.968 440.72 371.96 440.688 372.664 440.336C373.336 439.984 373.464 439.376 373.464 438.416V428.656ZM377.912 418.576H375.672V436.4H377.912V418.576ZM382.04 415.856V441.264C382.04 441.808 381.88 441.968 381.368 441.968C380.792 442 379.032 442.032 377.112 441.968C377.464 442.64 377.816 443.728 377.944 444.4C380.28 444.4 382.04 444.336 382.968 443.952C383.96 443.536 384.312 442.832 384.312 441.264V415.856H382.04ZM405.656 434.576C409.048 435.92 413.752 438 416.12 439.28L417.4 437.168C414.968 435.952 410.2 434 406.904 432.752L405.656 434.576ZM405.112 426.96V422.032H415.608V419.76H405.112V415.216H402.648V426.96H390.392V429.296H402.744V444.464H405.208V429.296H418.84V426.96H405.112ZM434.488 418.384V420.784H427.352V418.384H434.488ZM427.352 424.88V422.416H434.488V424.88H427.352ZM436.728 426.672V416.592H425.08V444.464H427.352V426.672H436.728ZM433.016 436.912V434.32H437.08V436.912H433.016ZM437.08 430.256V432.72H433.016V430.256H437.08ZM443.288 432.72H439.096V430.256H443.288V432.72ZM439.096 436.912V434.32H443.288V436.912H439.096ZM445.368 438.672V428.496H430.968V438.672H437.08V443.92H439.096V438.672H445.368ZM441.848 424.88V422.416H449.208V424.88H441.848ZM449.208 418.384V420.784H441.848V418.384H449.208ZM451.512 416.592H439.576V426.672H449.208V441.424C449.208 441.872 449.08 442.032 448.632 442.032C448.216 442.064 446.776 442.064 445.336 442C445.624 442.608 445.976 443.728 446.072 444.368C448.12 444.368 449.528 444.304 450.36 443.888C451.256 443.536 451.512 442.768 451.512 441.424V416.592ZM467.96 418.736V421.52H461.176V418.736H467.96ZM461.176 426.416V423.344H467.96V426.416H461.176ZM470.2 416.72H458.84V444.432H461.176V428.4H470.2V416.72ZM475.448 426.448V423.344H482.552V426.448H475.448ZM482.552 418.736V421.52H475.448V418.736H482.552ZM484.952 416.72H473.176V428.432H482.552V441.168C482.552 441.808 482.328 441.968 481.752 442C481.08 442.032 478.904 442.064 476.728 441.936C477.08 442.608 477.464 443.728 477.592 444.4C480.472 444.4 482.36 444.336 483.48 443.952C484.536 443.568 484.952 442.8 484.952 441.168V416.72Z" fill="black"/>
<rect width="370" height="417" transform="translate(623 106)" fill="#E7E4DE"/>
<path d="M669 346.448C667.112 346.448 665.608 347.952 665.608 349.84C665.608 351.728 667.112 353.232 669 353.232C670.888 353.232 672.392 351.728 672.392 349.84C672.392 347.952 670.888 346.448 669 346.448ZM705.416 354.064C705.16 352.368 704.328 349.488 703.56 347.28L701.736 347.76C702.088 348.72 702.408 349.84 702.696 350.928L698.088 351.536C700.648 348.56 703.176 344.88 705.224 341.2L703.112 339.984C702.408 341.424 701.608 342.896 700.744 344.24L697.416 344.56C699.144 342.192 700.872 339.088 702.248 336.08L700.04 335.184C698.792 338.608 696.648 342.256 695.944 343.184C695.336 344.144 694.792 344.816 694.248 344.944C694.504 345.52 694.888 346.64 695.016 347.088C695.464 346.896 696.136 346.768 699.4 346.352C698.28 348.048 697.256 349.36 696.776 349.904C695.816 351.088 695.112 351.856 694.44 352.016C694.696 352.656 695.08 353.776 695.208 354.288C695.784 353.968 696.776 353.744 703.144 352.816C703.272 353.456 703.4 354.096 703.464 354.64L705.416 354.064ZM695.784 355.664C695.496 358.288 695.016 361.168 694.248 363.152C694.76 363.312 695.656 363.632 696.072 363.856C696.776 361.84 697.352 358.8 697.704 355.984L695.784 355.664ZM698.888 355.92C699.24 358.064 699.56 360.912 699.592 362.736L701.48 362.416C701.384 360.56 701.032 357.776 700.68 355.6L698.888 355.92ZM701.864 355.312C702.44 356.944 703.112 359.12 703.368 360.528L705.128 359.952C704.84 358.576 704.168 356.432 703.528 354.832L701.864 355.312ZM711.784 352.368L711.4 352.464H706.344V354.448H710.472C709.32 357.552 707.048 360.048 704.616 361.264C705.064 361.648 705.672 362.448 705.992 362.96C709.224 361.136 712.008 357.712 713.16 352.88L711.784 352.368ZM709.736 345.072H719.688V347.92H709.736V345.072ZM709.736 340.496H719.688V343.28H709.736V340.496ZM721.224 350.928C720.36 352.016 718.888 353.488 717.64 354.64C717 353.456 716.52 352.24 716.136 350.96V349.808H721.992V338.608H714.792C715.208 337.744 715.688 336.72 716.136 335.76L713.48 335.216C713.256 336.208 712.84 337.52 712.392 338.608H707.496V349.808H713.864V361.808C713.864 362.192 713.736 362.288 713.32 362.32C712.936 362.352 711.592 362.352 710.088 362.288C710.408 362.928 710.664 363.824 710.792 364.496C712.84 364.496 714.184 364.464 715.016 364.08C715.88 363.696 716.136 363.056 716.136 361.84V355.824C717.64 358.928 719.656 361.52 722.184 363.088C722.568 362.48 723.24 361.616 723.752 361.2C721.704 360.144 719.912 358.384 718.536 356.208C719.944 355.152 721.576 353.68 723.016 352.368L721.224 350.928ZM742.792 360.56V347.888H754.696V345.52H742.792V335.728H740.296V360.56H728.36V362.928H756.872V360.56H742.792ZM787.272 346.768H777.928V343.664H787.272V346.768ZM787.272 351.6H777.928V348.464H787.272V351.6ZM787.272 356.528H777.928V353.392H787.272V356.528ZM775.72 341.808V358.384H789.512V341.808H782.888C783.176 340.88 783.496 339.824 783.784 338.768H790.632V336.72H774.504V338.768H781.16C781 339.76 780.776 340.848 780.552 341.808H775.72ZM772.456 354.128C773.352 352.4 774.312 349.616 775.176 347.152L773.704 346.768L773.352 346.864H771.016L771.784 345.872C771.176 345.232 770.28 344.496 769.288 343.792C771.08 342.096 772.936 339.792 774.248 337.648L772.776 336.624L772.296 336.784H762.216V338.896H770.792C769.864 340.208 768.712 341.584 767.624 342.64C766.536 341.968 765.416 341.296 764.392 340.752L763.112 342.288C765.384 343.504 768.008 345.328 769.672 346.864H761.512V348.976H766.76V361.616C766.76 362 766.632 362.128 766.152 362.128C765.736 362.16 764.264 362.16 762.632 362.128C762.952 362.736 763.272 363.728 763.368 364.368C765.576 364.368 766.984 364.336 767.88 363.952C768.808 363.6 769.064 362.896 769.064 361.648V348.976H772.424C771.88 350.704 771.24 352.464 770.696 353.648L772.456 354.128ZM778.888 358.992C777.512 360.4 774.632 362.032 772.136 362.928C772.584 363.344 773.352 364.08 773.704 364.528C776.264 363.6 779.208 361.872 780.968 360.208L778.888 358.992ZM783.816 360.336C785.768 361.552 788.2 363.344 789.416 364.528L791.272 363.152C789.992 361.968 787.528 360.24 785.608 359.12L783.816 360.336ZM808.616 353.52C808.296 351.888 807.336 349.104 806.408 347.024L804.52 347.504C804.872 348.432 805.256 349.488 805.576 350.48L799.528 351.376C802.28 348.592 805.064 345.104 807.432 341.552L805.384 340.272C804.648 341.584 803.72 342.896 802.856 344.144L798.696 344.528C800.744 342.16 802.76 339.12 804.424 336.112L802.216 335.152C800.616 338.672 798.024 342.256 797.224 343.184C796.488 344.144 795.848 344.784 795.24 344.944C795.528 345.552 795.88 346.64 796.008 347.12C796.488 346.896 797.256 346.736 801.256 346.256C799.816 348.048 798.6 349.456 798.024 350.032C796.904 351.152 796.104 351.92 795.4 352.016C795.656 352.656 796.04 353.808 796.168 354.288C796.808 353.904 797.928 353.648 806.184 352.4C806.344 353.04 806.472 353.616 806.568 354.128L808.616 353.52ZM797.288 355.664C796.808 358.192 796.104 361.072 795.208 363.024C795.784 363.184 796.776 363.504 797.256 363.76C798.056 361.808 798.888 358.8 799.432 356.112L797.288 355.664ZM801.128 355.92C801.544 358.128 801.96 361.072 802.088 362.96L804.104 362.448C803.976 360.528 803.496 357.712 803.048 355.44L801.128 355.92ZM805 355.344C805.8 357.296 806.632 359.856 806.984 361.52L808.904 360.848C808.52 359.216 807.624 356.688 806.792 354.768L805 355.344ZM818.024 354.512C817 352.56 814.536 349.68 812.392 347.632L810.728 348.848C812.872 350.96 815.272 353.904 816.264 355.888L818.024 354.512ZM823.336 341.136H812.68C813.384 339.408 813.992 337.552 814.44 335.696L812.136 335.248C811.08 339.568 809.352 343.888 807.112 346.672C807.72 346.992 808.712 347.632 809.16 348.016C810.088 346.704 810.984 345.136 811.784 343.376H820.936C820.584 355.728 820.136 360.496 819.176 361.52C818.856 361.936 818.504 362 817.896 362C817.128 362 815.336 362 813.32 361.84C813.768 362.512 814.056 363.504 814.088 364.208C815.848 364.304 817.736 364.336 818.792 364.24C819.944 364.112 820.648 363.824 821.352 362.928C822.536 361.392 822.888 356.592 823.336 342.384V341.136ZM836.648 355.536C835.016 357.776 832.328 360.08 829.832 361.616C830.44 361.968 831.432 362.736 831.88 363.152C834.28 361.488 837.096 358.896 839.016 356.368L836.648 355.536ZM853.352 353.136C853.992 353.968 854.6 354.736 855.048 355.376L857.064 354.128C855.72 352.24 852.968 349.296 850.536 347.12L848.616 348.112C849.576 349.04 850.632 350.128 851.656 351.248L838.024 352.144C842.472 350.128 846.984 347.632 851.336 344.56L849.48 342.992C848.328 343.856 847.112 344.72 845.832 345.488L837.992 345.904C840.264 344.688 842.6 343.152 844.744 341.488L842.728 340.208C846.184 339.28 849.384 338.288 851.944 337.136L850.184 335.28C845.64 337.424 837.448 339.408 830.28 340.72C830.568 341.264 830.856 342.096 830.984 342.704C834.792 342.032 838.824 341.2 842.632 340.208C839.944 342.576 836.392 344.688 835.24 345.232C834.184 345.808 833.384 346.16 832.648 346.224C832.936 346.832 833.256 348.016 833.384 348.464C834.056 348.24 835.144 348.08 842.344 347.664C839.24 349.456 836.52 350.832 835.304 351.344C833.384 352.24 831.976 352.752 830.92 352.88C831.176 353.52 831.528 354.64 831.624 355.152C832.52 354.8 833.8 354.608 842.504 353.968V361.52C842.504 361.904 842.408 362 841.864 362.032C841.352 362.096 839.624 362.096 837.704 362C838.088 362.64 838.504 363.664 838.6 364.336C840.936 364.336 842.568 364.304 843.56 363.92C844.616 363.568 844.904 362.896 844.904 361.552V353.776L853.352 353.136ZM847.784 356.464C850.344 358.416 853.448 361.2 854.984 362.896L856.968 361.488C855.336 359.792 852.168 357.104 849.64 355.248L847.784 356.464ZM873.96 353.456C873.608 351.824 872.68 349.168 871.688 347.12L869.96 347.76C870.408 348.688 870.792 349.744 871.176 350.8L865.96 351.536C868.616 348.56 871.144 344.784 873.224 341.04L871.24 339.824C870.472 341.392 869.576 342.96 868.68 344.4L865.32 344.72C867.144 342.256 868.968 339.12 870.44 336.048L868.264 335.12C866.92 338.576 864.648 342.256 863.912 343.184C863.272 344.144 862.696 344.784 862.184 344.912C862.408 345.52 862.792 346.64 862.92 347.12C863.336 346.896 864.008 346.768 867.368 346.352C866.248 348.048 865.256 349.36 864.744 349.936C863.784 351.12 863.048 351.92 862.376 352.08C862.632 352.688 863.016 353.808 863.112 354.288C863.72 353.936 864.68 353.68 871.72 352.528C871.88 353.136 872.008 353.68 872.104 354.16L873.96 353.456ZM863.688 355.664C863.368 358.224 862.888 361.04 862.152 363.024C862.632 363.184 863.592 363.504 863.976 363.728C864.648 361.744 865.256 358.736 865.576 356.016L863.688 355.664ZM867.08 355.888C867.464 358.032 867.784 360.848 867.848 362.672L869.736 362.224C869.64 360.4 869.256 357.648 868.872 355.504L867.08 355.888ZM874.088 360.464C873.768 358.896 873 356.56 872.264 354.704L870.6 355.248C871.272 357.072 872.008 359.504 872.296 361.04L874.088 360.464ZM886.472 361.776C885.768 361.776 885.672 361.616 885.672 360.784V349.328L888.104 349.072C888.584 349.968 888.968 350.8 889.256 351.504L891.368 350.48C890.504 348.464 888.52 345.2 886.888 342.8L884.936 343.632C885.64 344.72 886.376 345.968 887.08 347.184L877.672 348.08C879.08 346.192 880.456 343.92 881.768 341.52H891.176V339.28H882.92C883.464 338.224 884.008 337.104 884.488 336.016L881.928 335.248C881.416 336.592 880.808 337.968 880.168 339.28H874.344V341.52H879.08C877.896 343.728 876.84 345.488 876.328 346.192C875.464 347.504 874.76 348.368 874.12 348.528C874.44 349.2 874.792 350.384 874.952 350.896C875.4 350.704 876.008 350.544 878.088 350.256C877.896 356.848 877.128 360.592 872.104 362.736C872.648 363.152 873.288 363.984 873.544 364.592C879.176 361.968 880.136 357.52 880.392 349.968L883.4 349.616V360.816C883.4 363.184 883.944 363.888 886.184 363.888H888.904C890.856 363.888 891.432 362.768 891.656 358.48C890.984 358.288 890.088 357.968 889.544 357.552C889.48 361.168 889.352 361.776 888.68 361.776H886.472ZM669 402.448C667.112 402.448 665.608 403.952 665.608 405.84C665.608 407.728 667.112 409.232 669 409.232C670.888 409.232 672.392 407.728 672.392 405.84C672.392 403.952 670.888 402.448 669 402.448ZM705.8 409.968L701.384 411.216V404.08H705.32V401.872H701.384V395.056H705.608V392.88H694.696V395.056H699.112V401.872H695.08V404.08H699.112V411.824C697.224 412.368 695.496 412.816 694.088 413.168L694.728 415.44C697.832 414.512 702.088 413.264 706.088 412.08L705.8 409.968ZM709.32 404.848H719.688V408.112H709.32V404.848ZM709.32 399.728H719.688V402.928H709.32V399.728ZM709.32 394.64H719.688V397.84H709.32V394.64ZM718.6 418.16C717.8 418.16 717.672 418.032 717.672 417.232V410.128H722.024V392.624H707.08V410.128H709.928C709.416 414.256 707.976 417.136 702.344 418.672C702.824 419.12 703.464 420.08 703.688 420.624C709.896 418.704 711.624 415.216 712.264 410.128H715.4V417.232C715.4 419.536 715.976 420.208 718.248 420.208H721.352C723.272 420.208 723.88 419.216 724.04 415.312C723.464 415.152 722.504 414.8 722.056 414.384C721.96 417.68 721.832 418.16 721.096 418.16H718.6ZM752.744 396.496H742.504V393.968H752.744V396.496ZM752.744 400.72H742.504V398.16H752.744V400.72ZM754.952 392.176H740.328V402.512H754.952V392.176ZM737.608 407.888L734.344 409.36V400.368H737.8V398.128H734.344V391.472H732.136V398.128H728.392V400.368H732.136V410.384C730.504 411.12 729 411.76 727.784 412.272L728.712 414.608C731.4 413.328 734.888 411.632 738.12 410L737.608 407.888ZM757.224 406.32V404.304H737.192V406.32H741.672C740.168 408.944 737.864 411.216 735.336 412.72C735.816 413.04 736.648 413.808 736.968 414.192C738.408 413.232 739.848 411.984 741.128 410.544H744.36C742.632 413.392 739.816 416.272 737.16 417.712C737.736 418.096 738.376 418.672 738.728 419.184C741.672 417.328 744.808 413.84 746.504 410.544H749.608C748.296 414 745.96 417.456 743.368 419.184C743.944 419.536 744.68 420.08 745.064 420.56C747.816 418.48 750.312 414.352 751.592 410.544H754.088C753.672 415.568 753.192 417.584 752.648 418.16C752.424 418.48 752.136 418.512 751.688 418.512C751.208 418.512 750.152 418.48 748.968 418.384C749.288 418.864 749.512 419.728 749.512 420.304C750.792 420.368 751.976 420.368 752.68 420.336C753.416 420.24 753.992 420.08 754.472 419.536C755.368 418.608 755.88 416.112 756.36 409.52C756.424 409.2 756.456 408.56 756.456 408.56H742.696C743.208 407.856 743.656 407.088 744.072 406.32H757.224ZM790.472 396.848V394.608H779.976C779.432 393.488 778.568 392.112 777.768 391.024L775.56 391.76C776.168 392.592 776.776 393.648 777.256 394.608H763.912V403.44C763.912 408.048 763.656 414.48 761.224 419.024C761.768 419.248 762.792 419.952 763.208 420.368C765.832 415.536 766.216 408.336 766.216 403.472V396.848H790.472ZM771.432 398.672C770.824 402.64 769.288 405.904 766.664 407.984C767.144 408.272 768.072 408.944 768.424 409.328C769.832 408.112 770.984 406.576 771.848 404.752C773.192 406 774.536 407.472 775.24 408.464L776.68 406.928C775.816 405.808 774.12 404.144 772.616 402.8C773.032 401.616 773.384 400.304 773.608 398.928L771.432 398.672ZM779.56 412.784H788.616V410.704H779.56V407.536C780.072 407.888 780.872 408.528 781.224 408.88C782.568 407.792 783.688 406.416 784.584 404.752C786.312 406.256 788.136 407.984 789.128 409.168L790.568 407.632C789.448 406.384 787.272 404.464 785.384 402.928C785.864 401.712 786.248 400.4 786.504 398.992L784.36 398.672C783.688 402.448 782.152 405.52 779.56 407.472V398.128H777.256V410.704H768.424V412.784H777.256V417.52H766.376V419.632H790.568V417.52H779.56V412.784ZM815.848 395.952C815.56 394.64 814.824 392.592 814.248 390.992L812.008 391.568C812.616 393.168 813.256 395.312 813.512 396.656L815.848 395.952ZM822.888 397.008H805.64V399.312H822.888V397.008ZM812.232 414.704C811.88 411.44 810.92 405.712 809.864 401.264L807.72 401.744C808.712 406.192 809.64 412.048 809.896 415.376L812.232 414.704ZM803.016 391.344C801.256 396.208 798.28 400.976 795.144 404.048C795.592 404.592 796.264 405.808 796.488 406.384C797.576 405.232 798.664 403.952 799.656 402.512V420.4H802.024V398.8C803.272 396.624 804.392 394.352 805.256 392.016L803.016 391.344ZM817.672 416.848C818.824 412.592 820.136 406.352 820.968 401.456L818.504 401.008C817.896 405.776 816.616 412.56 815.464 416.848H804.296V419.152H824.2V416.848H817.672ZM848.232 412.912C847.72 414.32 846.728 416.272 845.896 417.616H838.504L840.488 416.944C840.168 415.824 839.336 414.192 838.536 412.976L836.392 413.648C837.16 414.864 837.896 416.528 838.184 417.616H829.416V419.696H857.416V417.616H848.328C849 416.4 849.8 414.896 850.472 413.52L848.232 412.912ZM849.768 410.736H836.488V406.736H849.768V410.736ZM852.264 404.752H834.152V412.72H852.264V404.752ZM855.432 395.28C854.344 396.432 852.552 397.968 850.984 399.152C850.216 398.384 849.48 397.552 848.84 396.72C850.408 395.632 852.232 394.16 853.704 392.784L851.88 391.504C850.856 392.624 849.192 394.128 847.752 395.28C846.888 394 846.12 392.656 845.544 391.312L843.464 391.952C844.776 394.96 846.568 397.712 848.776 400.112H838.216C840.04 398.096 841.576 395.76 842.568 393.136L841 392.336L840.552 392.432H830.728V394.448H839.432C838.632 396.016 837.48 397.52 836.232 398.928C835.208 397.84 833.512 396.592 832.04 395.728L830.76 397.072C832.2 397.968 833.832 399.216 834.824 400.304C832.84 402.128 830.536 403.632 828.36 404.528C828.84 404.976 829.512 405.776 829.832 406.32C832.552 405.04 835.336 403.088 837.704 400.656V402.16H849.16V400.528C851.4 402.864 853.96 404.784 856.744 406.032C857.16 405.424 857.832 404.496 858.376 404.048C856.232 403.216 854.184 401.936 852.36 400.368C853.928 399.28 855.784 397.84 857.224 396.496L855.432 395.28ZM870.76 394.896C870.248 393.84 869.128 392.208 868.008 391.056L866.184 392.048C867.208 393.232 868.328 394.928 868.808 396.016L870.76 394.896ZM871.528 411.408V416.752H865.928V411.408H871.528ZM873.672 409.456H863.816V420.208H865.928V418.736H873.672V409.456ZM863.4 407.024H874.184V405.104H863.4V407.024ZM864.008 400.656V402.512H873.576V400.656H864.008ZM862.472 398.16H875.208V396.208H862.472V398.16ZM881.352 417.552C879.624 417.552 879.272 417.296 879.272 416.048V405.648H887.304V407.344H889.64V392.976H876.52V395.248H887.304V403.376H876.936V416.048C876.936 419.056 877.896 419.792 881.16 419.792H887.432C890.568 419.792 891.304 418.416 891.656 413.232C890.952 413.104 889.992 412.688 889.416 412.272C889.224 416.72 888.936 417.552 887.272 417.552H881.352ZM924.776 404.784C924.456 403.6 923.688 401.552 922.984 400.048L921.544 400.464C921.8 401.072 922.056 401.744 922.312 402.384L919.08 402.832C920.712 400.848 922.408 398.288 923.752 395.664L921.96 394.992C921.64 395.728 921.256 396.496 920.84 397.2L918.504 397.456C919.496 395.984 920.488 394.096 921.256 392.208L919.528 391.664C918.856 393.808 917.512 396.144 917.192 396.688C916.808 397.296 916.456 397.712 916.072 397.744C916.296 398.256 916.584 399.12 916.68 399.536C917 399.376 917.544 399.216 919.912 398.896C919.048 400.272 918.312 401.328 917.96 401.744C917.384 402.512 916.904 403.056 916.424 403.152C916.616 403.632 916.904 404.624 917.032 405.008C917.416 404.784 918.216 404.624 922.824 403.888C923.016 404.432 923.144 404.944 923.24 405.328L924.776 404.784ZM913.256 405.328C912.968 404.144 912.328 402.128 911.624 400.592L910.12 401.008C910.376 401.648 910.632 402.32 910.888 403.024L907.752 403.44C909.448 401.456 911.144 398.928 912.552 396.368L910.824 395.696C910.504 396.432 910.12 397.136 909.736 397.84L907.208 398.096C908.36 396.496 909.512 394.384 910.408 392.304L908.616 391.728C907.848 394.16 906.376 396.624 905.928 397.264C905.48 397.904 905.128 398.32 904.744 398.416C904.936 398.896 905.224 399.792 905.288 400.176C905.608 400.016 906.216 399.856 908.712 399.504C907.816 400.88 906.984 402 906.632 402.384C906.024 403.184 905.48 403.696 905.032 403.824C905.256 404.304 905.512 405.232 905.576 405.616C906.024 405.36 906.76 405.232 911.336 404.528C911.464 405.04 911.592 405.488 911.688 405.872L913.256 405.328ZM904.616 406.544C904.168 405.744 902.44 402.8 901.736 401.68V399.6H904.264V397.36H901.736V391.216H899.656V397.36H896.264V399.6H899.464C898.696 403.792 897.16 408.688 895.56 411.28C895.912 411.856 896.424 412.912 896.68 413.584C897.768 411.664 898.856 408.528 899.656 405.232V420.432H901.736V404.56C902.408 405.904 903.112 407.44 903.432 408.304L904.616 406.544ZM920.968 409.936C920.296 411.376 919.304 412.752 918.12 413.968C917.576 412.752 917.16 411.28 916.744 409.584H924.456V407.664H921.8L922.632 406.8C921.896 406.128 920.424 405.136 919.304 404.496L918.088 405.616C919.016 406.192 920.168 406.992 920.936 407.664H916.36C915.56 403.28 915.112 397.712 914.952 391.472H912.904C913.096 397.584 913.512 403.12 914.28 407.664H904.936V409.584H907.368V410.032C907.368 412.72 906.568 416.304 902.824 419.056C903.272 419.312 904.072 420.048 904.392 420.496C907.208 418.352 908.552 415.568 909.096 413.008C910.344 414.064 911.592 415.248 912.328 416.048L913.8 414.608C912.84 413.616 910.92 411.984 909.384 410.8C909.416 410.544 909.416 410.288 909.416 410.064V409.584H914.632C915.144 411.824 915.752 413.808 916.488 415.44C914.792 416.784 912.744 417.904 910.536 418.768C910.984 419.152 911.56 419.856 911.816 420.272C913.864 419.44 915.752 418.384 917.416 417.168C918.728 419.152 920.392 420.304 922.472 420.432C923.752 420.528 924.744 419.344 925.352 415.856C924.936 415.632 924.136 415.088 923.752 414.64C923.496 416.944 923.08 418.16 922.408 418.096C921.128 417.968 920.008 417.2 919.08 415.792C920.712 414.288 922.024 412.592 923.016 410.672L920.968 409.936ZM951.88 409.328V416.4H936.424V409.328H951.88ZM934.024 420.432H936.424V418.704H951.88V420.368H954.376V407.056H934.024V420.432ZM947.336 396.08C948.872 397.456 950.504 399.12 951.976 400.784L935.656 401.584C938.472 398.928 941.32 395.632 943.848 392.176L941.512 391.12C939.016 395.088 935.304 399.12 934.152 400.144C933.096 401.2 932.264 401.904 931.56 402.032C931.816 402.672 932.232 403.856 932.328 404.368C933.576 403.92 935.432 403.856 953.704 402.832C954.504 403.824 955.176 404.752 955.656 405.584L957.672 404.144C956.008 401.488 952.328 397.584 949.224 394.864L947.336 396.08ZM669 458.448C667.112 458.448 665.608 459.952 665.608 461.84C665.608 463.728 667.112 465.232 669 465.232C670.888 465.232 672.392 463.728 672.392 461.84C672.392 459.952 670.888 458.448 669 458.448ZM713.832 468.912C713.32 470.32 712.328 472.272 711.496 473.616H704.104L706.088 472.944C705.768 471.824 704.936 470.192 704.136 468.976L701.992 469.648C702.76 470.864 703.496 472.528 703.784 473.616H695.016V475.696H723.016V473.616H713.928C714.6 472.4 715.4 470.896 716.072 469.52L713.832 468.912ZM715.368 466.736H702.088V462.736H715.368V466.736ZM717.864 460.752H699.752V468.72H717.864V460.752ZM721.032 451.28C719.944 452.432 718.152 453.968 716.584 455.152C715.816 454.384 715.08 453.552 714.44 452.72C716.008 451.632 717.832 450.16 719.304 448.784L717.48 447.504C716.456 448.624 714.792 450.128 713.352 451.28C712.488 450 711.72 448.656 711.144 447.312L709.064 447.952C710.376 450.96 712.168 453.712 714.376 456.112H703.816C705.64 454.096 707.176 451.76 708.168 449.136L706.6 448.336L706.152 448.432H696.328V450.448H705.032C704.232 452.016 703.08 453.52 701.832 454.928C700.808 453.84 699.112 452.592 697.64 451.728L696.36 453.072C697.8 453.968 699.432 455.216 700.424 456.304C698.44 458.128 696.136 459.632 693.96 460.528C694.44 460.976 695.112 461.776 695.432 462.32C698.152 461.04 700.936 459.088 703.304 456.656V458.16H714.76V456.528C717 458.864 719.56 460.784 722.344 462.032C722.76 461.424 723.432 460.496 723.976 460.048C721.832 459.216 719.784 457.936 717.96 456.368C719.528 455.28 721.384 453.84 722.824 452.496L721.032 451.28ZM736.36 450.896C735.848 449.84 734.728 448.208 733.608 447.056L731.784 448.048C732.808 449.232 733.928 450.928 734.408 452.016L736.36 450.896ZM737.128 467.408V472.752H731.528V467.408H737.128ZM739.272 465.456H729.416V476.208H731.528V474.736H739.272V465.456ZM729 463.024H739.784V461.104H729V463.024ZM729.608 456.656V458.512H739.176V456.656H729.608ZM728.072 454.16H740.808V452.208H728.072V454.16ZM746.952 473.552C745.224 473.552 744.872 473.296 744.872 472.048V461.648H752.904V463.344H755.24V448.976H742.12V451.248H752.904V459.376H742.536V472.048C742.536 475.056 743.496 475.792 746.76 475.792H753.032C756.168 475.792 756.904 474.416 757.256 469.232C756.552 469.104 755.592 468.688 755.016 468.272C754.824 472.72 754.536 473.552 752.872 473.552H746.952ZM765.864 451.152H776.296V455.248H765.864V451.152ZM778.664 460.656H773.384V457.36H778.536V449.04H763.72V459.792C763.72 464.208 763.528 470.224 761.288 474.48C761.768 474.704 762.696 475.408 763.048 475.856C765.512 471.312 765.864 464.496 765.864 459.792V457.36H771.336V460.656H766.408V472.976H768.232V462.672H771.336V476.368H773.384V462.672H776.712V470.384C776.712 470.672 776.648 470.768 776.328 470.768C776.008 470.8 775.176 470.8 773.992 470.768C774.28 471.344 774.568 472.144 774.632 472.72C776.168 472.72 777.16 472.688 777.864 472.336C778.536 471.984 778.664 471.376 778.664 470.416V460.656ZM783.112 450.576H780.872V468.4H783.112V450.576ZM787.24 447.856V473.264C787.24 473.808 787.08 473.968 786.568 473.968C785.992 474 784.232 474.032 782.312 473.968C782.664 474.64 783.016 475.728 783.144 476.4C785.48 476.4 787.24 476.336 788.168 475.952C789.16 475.536 789.512 474.832 789.512 473.264V447.856H787.24ZM810.856 466.576C814.248 467.92 818.952 470 821.32 471.28L822.6 469.168C820.168 467.952 815.4 466 812.104 464.752L810.856 466.576ZM810.312 458.96V454.032H820.808V451.76H810.312V447.216H807.848V458.96H795.592V461.296H807.944V476.464H810.408V461.296H824.04V458.96H810.312ZM839.688 450.384V452.784H832.552V450.384H839.688ZM832.552 456.88V454.416H839.688V456.88H832.552ZM841.928 458.672V448.592H830.28V476.464H832.552V458.672H841.928ZM838.216 468.912V466.32H842.28V468.912H838.216ZM842.28 462.256V464.72H838.216V462.256H842.28ZM848.488 464.72H844.296V462.256H848.488V464.72ZM844.296 468.912V466.32H848.488V468.912H844.296ZM850.568 470.672V460.496H836.168V470.672H842.28V475.92H844.296V470.672H850.568ZM847.048 456.88V454.416H854.408V456.88H847.048ZM854.408 450.384V452.784H847.048V450.384H854.408ZM856.712 448.592H844.776V458.672H854.408V473.424C854.408 473.872 854.28 474.032 853.832 474.032C853.416 474.064 851.976 474.064 850.536 474C850.824 474.608 851.176 475.728 851.272 476.368C853.32 476.368 854.728 476.304 855.56 475.888C856.456 475.536 856.712 474.768 856.712 473.424V448.592ZM873.16 450.736V453.52H866.376V450.736H873.16ZM866.376 458.416V455.344H873.16V458.416H866.376ZM875.4 448.72H864.04V476.432H866.376V460.4H875.4V448.72ZM880.648 458.448V455.344H887.752V458.448H880.648ZM887.752 450.736V453.52H880.648V450.736H887.752ZM890.152 448.72H878.376V460.432H887.752V473.168C887.752 473.808 887.528 473.968 886.952 474C886.28 474.032 884.104 474.064 881.928 473.936C882.28 474.608 882.664 475.728 882.792 476.4C885.672 476.4 887.56 476.336 888.68 475.952C889.736 475.568 890.152 474.8 890.152 473.168V448.72Z" fill="black"/>
<path d="M774.272 191.92H764.96L767.04 190.96C766.528 189.84 765.44 188.24 764.352 187.056L762.368 187.92C763.36 189.104 764.384 190.8 764.896 191.92H756.832V194.128H774.272V191.92ZM766.976 196.048C769.024 198.064 771.424 200.944 772.448 202.832L774.208 201.36C773.152 199.536 770.688 196.752 768.608 194.8L766.976 196.048ZM761.056 194.96C759.936 197.2 757.92 199.888 755.84 201.584C756.352 201.968 757.12 202.608 757.504 203.024C759.616 201.168 761.76 198.448 763.2 195.92L761.056 194.96ZM756.224 203.728C755.68 202.768 753.216 198.576 752.448 197.488V196.208H756.032V193.968H752.448V187.216H750.272V193.968H746.112V196.208H749.824C748.928 200.592 747.008 205.648 745.056 208.336C745.504 208.912 746.08 209.936 746.336 210.608C747.808 208.368 749.216 204.72 750.272 200.944V216.432H752.448V200.592C753.312 202.32 754.368 204.432 754.784 205.52L756.224 203.728ZM768.288 200.56C767.584 203.12 766.528 205.392 765.088 207.408C763.52 205.424 762.304 203.184 761.408 200.688L759.36 201.264C760.416 204.208 761.824 206.896 763.616 209.2C761.504 211.44 758.848 213.296 755.616 214.704C756.096 215.12 756.8 215.984 757.12 216.496C760.32 215.056 762.976 213.2 765.12 210.96C767.328 213.264 770.048 215.088 773.184 216.24C773.536 215.6 774.24 214.64 774.784 214.192C771.616 213.136 768.896 211.408 766.656 209.168C768.384 206.864 769.696 204.176 770.56 201.136L768.288 200.56ZM806.176 194.32H795.104C794.816 192.56 794.624 190.672 794.528 188.656H786.752V190.768H792.512C792.576 192.016 792.704 193.2 792.864 194.32H781.216V216.432H783.584V196.656H791.904C790.816 201.68 788.192 205.136 783.904 207.216C784.416 207.664 785.152 208.56 785.504 209.104C789.76 206.928 792.384 203.376 793.728 198.48C795.104 203.28 797.568 206.864 801.76 208.944C802.144 208.304 802.912 207.376 803.424 206.864C799.232 205.072 796.832 201.552 795.616 196.656H803.776V213.328C803.776 213.84 803.648 214 803.072 214.032C802.432 214.064 800.448 214.064 798.368 214C798.72 214.64 799.072 215.728 799.168 216.4C801.888 216.4 803.712 216.4 804.8 216.016C805.856 215.6 806.176 214.832 806.176 213.328V194.32ZM821.6 205.808V211.28H816.032V205.808H821.6ZM821.312 194.064V198.768H816.032V194.064H821.312ZM816.032 200.784H823.424V192.016H818.72C819.296 190.704 819.968 189.04 820.48 187.6L817.92 187.216C817.632 188.624 817.088 190.544 816.544 192.016H813.856V215.472H816.032V213.328H823.744V203.76H816.032V200.784ZM841.664 191.056V188.912H824.704V191.056H832V194.992H825.888V211.664H828.064V197.168H832V216.4H834.24V197.168H838.496V209.136C838.496 209.456 838.4 209.584 838.048 209.584C837.728 209.584 836.736 209.584 835.584 209.552C835.84 210.128 836.16 211.024 836.224 211.632C837.952 211.632 839.04 211.6 839.776 211.248C840.512 210.896 840.704 210.224 840.704 209.168V194.992H834.24V191.056H841.664ZM862.08 213.136V205.008H872.352V202.704H862.08V195.728H873.536V193.392H862.08V187.248H859.648V193.392H853.152C853.856 191.76 854.432 190.032 854.944 188.272L852.544 187.76C851.296 192.304 849.248 196.72 846.624 199.536C847.264 199.856 848.32 200.56 848.8 200.944C849.984 199.504 851.104 197.744 852.128 195.728H859.648V202.704H850.144V205.008H859.648V213.136H846.688V215.44H875.04V213.136H862.08Z" fill="black"/>
<rect width="363" height="417" transform="translate(1005 106)" fill="#F0EFEC"/>
<path d="M1080 373.448C1078.11 373.448 1076.61 374.952 1076.61 376.84C1076.61 378.728 1078.11 380.232 1080 380.232C1081.89 380.232 1083.39 378.728 1083.39 376.84C1083.39 374.952 1081.89 373.448 1080 373.448ZM1116.8 380.968L1112.38 382.216V375.08H1116.32V372.872H1112.38V366.056H1116.61V363.88H1105.7V366.056H1110.11V372.872H1106.08V375.08H1110.11V382.824C1108.22 383.368 1106.5 383.816 1105.09 384.168L1105.73 386.44C1108.83 385.512 1113.09 384.264 1117.09 383.08L1116.8 380.968ZM1120.32 375.848H1130.69V379.112H1120.32V375.848ZM1120.32 370.728H1130.69V373.928H1120.32V370.728ZM1120.32 365.64H1130.69V368.84H1120.32V365.64ZM1129.6 389.16C1128.8 389.16 1128.67 389.032 1128.67 388.232V381.128H1133.02V363.624H1118.08V381.128H1120.93C1120.42 385.256 1118.98 388.136 1113.34 389.672C1113.82 390.12 1114.46 391.08 1114.69 391.624C1120.9 389.704 1122.62 386.216 1123.26 381.128H1126.4V388.232C1126.4 390.536 1126.98 391.208 1129.25 391.208H1132.35C1134.27 391.208 1134.88 390.216 1135.04 386.312C1134.46 386.152 1133.5 385.8 1133.06 385.384C1132.96 388.68 1132.83 389.16 1132.1 389.16H1129.6ZM1163.74 367.496H1153.5V364.968H1163.74V367.496ZM1163.74 371.72H1153.5V369.16H1163.74V371.72ZM1165.95 363.176H1151.33V373.512H1165.95V363.176ZM1148.61 378.888L1145.34 380.36V371.368H1148.8V369.128H1145.34V362.472H1143.14V369.128H1139.39V371.368H1143.14V381.384C1141.5 382.12 1140 382.76 1138.78 383.272L1139.71 385.608C1142.4 384.328 1145.89 382.632 1149.12 381L1148.61 378.888ZM1168.22 377.32V375.304H1148.19V377.32H1152.67C1151.17 379.944 1148.86 382.216 1146.34 383.72C1146.82 384.04 1147.65 384.808 1147.97 385.192C1149.41 384.232 1150.85 382.984 1152.13 381.544H1155.36C1153.63 384.392 1150.82 387.272 1148.16 388.712C1148.74 389.096 1149.38 389.672 1149.73 390.184C1152.67 388.328 1155.81 384.84 1157.5 381.544H1160.61C1159.3 385 1156.96 388.456 1154.37 390.184C1154.94 390.536 1155.68 391.08 1156.06 391.56C1158.82 389.48 1161.31 385.352 1162.59 381.544H1165.09C1164.67 386.568 1164.19 388.584 1163.65 389.16C1163.42 389.48 1163.14 389.512 1162.69 389.512C1162.21 389.512 1161.15 389.48 1159.97 389.384C1160.29 389.864 1160.51 390.728 1160.51 391.304C1161.79 391.368 1162.98 391.368 1163.68 391.336C1164.42 391.24 1164.99 391.08 1165.47 390.536C1166.37 389.608 1166.88 387.112 1167.36 380.52C1167.42 380.2 1167.46 379.56 1167.46 379.56H1153.7C1154.21 378.856 1154.66 378.088 1155.07 377.32H1168.22ZM1192.03 383.912C1191.52 385.32 1190.53 387.272 1189.7 388.616H1182.3L1184.29 387.944C1183.97 386.824 1183.14 385.192 1182.34 383.976L1180.19 384.648C1180.96 385.864 1181.7 387.528 1181.98 388.616H1173.22V390.696H1201.22V388.616H1192.13C1192.8 387.4 1193.6 385.896 1194.27 384.52L1192.03 383.912ZM1193.57 381.736H1180.29V377.736H1193.57V381.736ZM1196.06 375.752H1177.95V383.72H1196.06V375.752ZM1199.23 366.28C1198.14 367.432 1196.35 368.968 1194.78 370.152C1194.02 369.384 1193.28 368.552 1192.64 367.72C1194.21 366.632 1196.03 365.16 1197.5 363.784L1195.68 362.504C1194.66 363.624 1192.99 365.128 1191.55 366.28C1190.69 365 1189.92 363.656 1189.34 362.312L1187.26 362.952C1188.58 365.96 1190.37 368.712 1192.58 371.112H1182.02C1183.84 369.096 1185.38 366.76 1186.37 364.136L1184.8 363.336L1184.35 363.432H1174.53V365.448H1183.23C1182.43 367.016 1181.28 368.52 1180.03 369.928C1179.01 368.84 1177.31 367.592 1175.84 366.728L1174.56 368.072C1176 368.968 1177.63 370.216 1178.62 371.304C1176.64 373.128 1174.34 374.632 1172.16 375.528C1172.64 375.976 1173.31 376.776 1173.63 377.32C1176.35 376.04 1179.14 374.088 1181.5 371.656V373.16H1192.96V371.528C1195.2 373.864 1197.76 375.784 1200.54 377.032C1200.96 376.424 1201.63 375.496 1202.18 375.048C1200.03 374.216 1197.98 372.936 1196.16 371.368C1197.73 370.28 1199.58 368.84 1201.02 367.496L1199.23 366.28ZM1214.56 365.896C1214.05 364.84 1212.93 363.208 1211.81 362.056L1209.98 363.048C1211.01 364.232 1212.13 365.928 1212.61 367.016L1214.56 365.896ZM1215.33 382.408V387.752H1209.73V382.408H1215.33ZM1217.47 380.456H1207.62V391.208H1209.73V389.736H1217.47V380.456ZM1207.2 378.024H1217.98V376.104H1207.2V378.024ZM1207.81 371.656V373.512H1217.38V371.656H1207.81ZM1206.27 369.16H1219.01V367.208H1206.27V369.16ZM1225.15 388.552C1223.42 388.552 1223.07 388.296 1223.07 387.048V376.648H1231.1V378.344H1233.44V363.976H1220.32V366.248H1231.1V374.376H1220.74V387.048C1220.74 390.056 1221.7 390.792 1224.96 390.792H1231.23C1234.37 390.792 1235.1 389.416 1235.46 384.232C1234.75 384.104 1233.79 383.688 1233.22 383.272C1233.02 387.72 1232.74 388.552 1231.07 388.552H1225.15ZM1268.58 375.784C1268.26 374.6 1267.49 372.552 1266.78 371.048L1265.34 371.464C1265.6 372.072 1265.86 372.744 1266.11 373.384L1262.88 373.832C1264.51 371.848 1266.21 369.288 1267.55 366.664L1265.76 365.992C1265.44 366.728 1265.06 367.496 1264.64 368.2L1262.3 368.456C1263.3 366.984 1264.29 365.096 1265.06 363.208L1263.33 362.664C1262.66 364.808 1261.31 367.144 1260.99 367.688C1260.61 368.296 1260.26 368.712 1259.87 368.744C1260.1 369.256 1260.38 370.12 1260.48 370.536C1260.8 370.376 1261.34 370.216 1263.71 369.896C1262.85 371.272 1262.11 372.328 1261.76 372.744C1261.18 373.512 1260.7 374.056 1260.22 374.152C1260.42 374.632 1260.7 375.624 1260.83 376.008C1261.22 375.784 1262.02 375.624 1266.62 374.888C1266.82 375.432 1266.94 375.944 1267.04 376.328L1268.58 375.784ZM1257.06 376.328C1256.77 375.144 1256.13 373.128 1255.42 371.592L1253.92 372.008C1254.18 372.648 1254.43 373.32 1254.69 374.024L1251.55 374.44C1253.25 372.456 1254.94 369.928 1256.35 367.368L1254.62 366.696C1254.3 367.432 1253.92 368.136 1253.54 368.84L1251.01 369.096C1252.16 367.496 1253.31 365.384 1254.21 363.304L1252.42 362.728C1251.65 365.16 1250.18 367.624 1249.73 368.264C1249.28 368.904 1248.93 369.32 1248.54 369.416C1248.74 369.896 1249.02 370.792 1249.09 371.176C1249.41 371.016 1250.02 370.856 1252.51 370.504C1251.62 371.88 1250.78 373 1250.43 373.384C1249.82 374.184 1249.28 374.696 1248.83 374.824C1249.06 375.304 1249.31 376.232 1249.38 376.616C1249.82 376.36 1250.56 376.232 1255.14 375.528C1255.26 376.04 1255.39 376.488 1255.49 376.872L1257.06 376.328ZM1248.42 377.544C1247.97 376.744 1246.24 373.8 1245.54 372.68V370.6H1248.06V368.36H1245.54V362.216H1243.46V368.36H1240.06V370.6H1243.26C1242.5 374.792 1240.96 379.688 1239.36 382.28C1239.71 382.856 1240.22 383.912 1240.48 384.584C1241.57 382.664 1242.66 379.528 1243.46 376.232V391.432H1245.54V375.56C1246.21 376.904 1246.91 378.44 1247.23 379.304L1248.42 377.544ZM1264.77 380.936C1264.1 382.376 1263.1 383.752 1261.92 384.968C1261.38 383.752 1260.96 382.28 1260.54 380.584H1268.26V378.664H1265.6L1266.43 377.8C1265.7 377.128 1264.22 376.136 1263.1 375.496L1261.89 376.616C1262.82 377.192 1263.97 377.992 1264.74 378.664H1260.16C1259.36 374.28 1258.91 368.712 1258.75 362.472H1256.7C1256.9 368.584 1257.31 374.12 1258.08 378.664H1248.74V380.584H1251.17V381.032C1251.17 383.72 1250.37 387.304 1246.62 390.056C1247.07 390.312 1247.87 391.048 1248.19 391.496C1251.01 389.352 1252.35 386.568 1252.9 384.008C1254.14 385.064 1255.39 386.248 1256.13 387.048L1257.6 385.608C1256.64 384.616 1254.72 382.984 1253.18 381.8C1253.22 381.544 1253.22 381.288 1253.22 381.064V380.584H1258.43C1258.94 382.824 1259.55 384.808 1260.29 386.44C1258.59 387.784 1256.54 388.904 1254.34 389.768C1254.78 390.152 1255.36 390.856 1255.62 391.272C1257.66 390.44 1259.55 389.384 1261.22 388.168C1262.53 390.152 1264.19 391.304 1266.27 391.432C1267.55 391.528 1268.54 390.344 1269.15 386.856C1268.74 386.632 1267.94 386.088 1267.55 385.64C1267.3 387.944 1266.88 389.16 1266.21 389.096C1264.93 388.968 1263.81 388.2 1262.88 386.792C1264.51 385.288 1265.82 383.592 1266.82 381.672L1264.77 380.936ZM1295.68 380.328V387.4H1280.22V380.328H1295.68ZM1277.82 391.432H1280.22V389.704H1295.68V391.368H1298.18V378.056H1277.82V391.432ZM1291.14 367.08C1292.67 368.456 1294.3 370.12 1295.78 371.784L1279.46 372.584C1282.27 369.928 1285.12 366.632 1287.65 363.176L1285.31 362.12C1282.82 366.088 1279.1 370.12 1277.95 371.144C1276.9 372.2 1276.06 372.904 1275.36 373.032C1275.62 373.672 1276.03 374.856 1276.13 375.368C1277.38 374.92 1279.23 374.856 1297.5 373.832C1298.3 374.824 1298.98 375.752 1299.46 376.584L1301.47 375.144C1299.81 372.488 1296.13 368.584 1293.02 365.864L1291.14 367.08ZM1080 429.448C1078.11 429.448 1076.61 430.952 1076.61 432.84C1076.61 434.728 1078.11 436.232 1080 436.232C1081.89 436.232 1083.39 434.728 1083.39 432.84C1083.39 430.952 1081.89 429.448 1080 429.448ZM1124.83 439.912C1124.32 441.32 1123.33 443.272 1122.5 444.616H1115.1L1117.09 443.944C1116.77 442.824 1115.94 441.192 1115.14 439.976L1112.99 440.648C1113.76 441.864 1114.5 443.528 1114.78 444.616H1106.02V446.696H1134.02V444.616H1124.93C1125.6 443.4 1126.4 441.896 1127.07 440.52L1124.83 439.912ZM1126.37 437.736H1113.09V433.736H1126.37V437.736ZM1128.86 431.752H1110.75V439.72H1128.86V431.752ZM1132.03 422.28C1130.94 423.432 1129.15 424.968 1127.58 426.152C1126.82 425.384 1126.08 424.552 1125.44 423.72C1127.01 422.632 1128.83 421.16 1130.3 419.784L1128.48 418.504C1127.46 419.624 1125.79 421.128 1124.35 422.28C1123.49 421 1122.72 419.656 1122.14 418.312L1120.06 418.952C1121.38 421.96 1123.17 424.712 1125.38 427.112H1114.82C1116.64 425.096 1118.18 422.76 1119.17 420.136L1117.6 419.336L1117.15 419.432H1107.33V421.448H1116.03C1115.23 423.016 1114.08 424.52 1112.83 425.928C1111.81 424.84 1110.11 423.592 1108.64 422.728L1107.36 424.072C1108.8 424.968 1110.43 426.216 1111.42 427.304C1109.44 429.128 1107.14 430.632 1104.96 431.528C1105.44 431.976 1106.11 432.776 1106.43 433.32C1109.15 432.04 1111.94 430.088 1114.3 427.656V429.16H1125.76V427.528C1128 429.864 1130.56 431.784 1133.34 433.032C1133.76 432.424 1134.43 431.496 1134.98 431.048C1132.83 430.216 1130.78 428.936 1128.96 427.368C1130.53 426.28 1132.38 424.84 1133.82 423.496L1132.03 422.28ZM1147.36 421.896C1146.85 420.84 1145.73 419.208 1144.61 418.056L1142.78 419.048C1143.81 420.232 1144.93 421.928 1145.41 423.016L1147.36 421.896ZM1148.13 438.408V443.752H1142.53V438.408H1148.13ZM1150.27 436.456H1140.42V447.208H1142.53V445.736H1150.27V436.456ZM1140 434.024H1150.78V432.104H1140V434.024ZM1140.61 427.656V429.512H1150.18V427.656H1140.61ZM1139.07 425.16H1151.81V423.208H1139.07V425.16ZM1157.95 444.552C1156.22 444.552 1155.87 444.296 1155.87 443.048V432.648H1163.9V434.344H1166.24V419.976H1153.12V422.248H1163.9V430.376H1153.54V443.048C1153.54 446.056 1154.5 446.792 1157.76 446.792H1164.03C1167.17 446.792 1167.9 445.416 1168.26 440.232C1167.55 440.104 1166.59 439.688 1166.02 439.272C1165.82 443.72 1165.54 444.552 1163.87 444.552H1157.95ZM1176.86 422.152H1187.3V426.248H1176.86V422.152ZM1189.66 431.656H1184.38V428.36H1189.54V420.04H1174.72V430.792C1174.72 435.208 1174.53 441.224 1172.29 445.48C1172.77 445.704 1173.7 446.408 1174.05 446.856C1176.51 442.312 1176.86 435.496 1176.86 430.792V428.36H1182.34V431.656H1177.41V443.976H1179.23V433.672H1182.34V447.368H1184.38V433.672H1187.71V441.384C1187.71 441.672 1187.65 441.768 1187.33 441.768C1187.01 441.8 1186.18 441.8 1184.99 441.768C1185.28 442.344 1185.57 443.144 1185.63 443.72C1187.17 443.72 1188.16 443.688 1188.86 443.336C1189.54 442.984 1189.66 442.376 1189.66 441.416V431.656ZM1194.11 421.576H1191.87V439.4H1194.11V421.576ZM1198.24 418.856V444.264C1198.24 444.808 1198.08 444.968 1197.57 444.968C1196.99 445 1195.23 445.032 1193.31 444.968C1193.66 445.64 1194.02 446.728 1194.14 447.4C1196.48 447.4 1198.24 447.336 1199.17 446.952C1200.16 446.536 1200.51 445.832 1200.51 444.264V418.856H1198.24ZM1221.86 437.576C1225.25 438.92 1229.95 441 1232.32 442.28L1233.6 440.168C1231.17 438.952 1226.4 437 1223.1 435.752L1221.86 437.576ZM1221.31 429.96V425.032H1231.81V422.76H1221.31V418.216H1218.85V429.96H1206.59V432.296H1218.94V447.464H1221.41V432.296H1235.04V429.96H1221.31ZM1250.69 421.384V423.784H1243.55V421.384H1250.69ZM1243.55 427.88V425.416H1250.69V427.88H1243.55ZM1252.93 429.672V419.592H1241.28V447.464H1243.55V429.672H1252.93ZM1249.22 439.912V437.32H1253.28V439.912H1249.22ZM1253.28 433.256V435.72H1249.22V433.256H1253.28ZM1259.49 435.72H1255.3V433.256H1259.49V435.72ZM1255.3 439.912V437.32H1259.49V439.912H1255.3ZM1261.57 441.672V431.496H1247.17V441.672H1253.28V446.92H1255.3V441.672H1261.57ZM1258.05 427.88V425.416H1265.41V427.88H1258.05ZM1265.41 421.384V423.784H1258.05V421.384H1265.41ZM1267.71 419.592H1255.78V429.672H1265.41V444.424C1265.41 444.872 1265.28 445.032 1264.83 445.032C1264.42 445.064 1262.98 445.064 1261.54 445C1261.82 445.608 1262.18 446.728 1262.27 447.368C1264.32 447.368 1265.73 447.304 1266.56 446.888C1267.46 446.536 1267.71 445.768 1267.71 444.424V419.592ZM1284.16 421.736V424.52H1277.38V421.736H1284.16ZM1277.38 429.416V426.344H1284.16V429.416H1277.38ZM1286.4 419.72H1275.04V447.432H1277.38V431.4H1286.4V419.72ZM1291.65 429.448V426.344H1298.75V429.448H1291.65ZM1298.75 421.736V424.52H1291.65V421.736H1298.75ZM1301.15 419.72H1289.38V431.432H1298.75V444.168C1298.75 444.808 1298.53 444.968 1297.95 445C1297.28 445.032 1295.1 445.064 1292.93 444.936C1293.28 445.608 1293.66 446.728 1293.79 447.4C1296.67 447.4 1298.56 447.336 1299.68 446.952C1300.74 446.568 1301.15 445.8 1301.15 444.168V419.72Z" fill="black"/>
<path d="M1155.27 195.92H1145.96L1148.04 194.96C1147.53 193.84 1146.44 192.24 1145.35 191.056L1143.37 191.92C1144.36 193.104 1145.38 194.8 1145.9 195.92H1137.83V198.128H1155.27V195.92ZM1147.98 200.048C1150.02 202.064 1152.42 204.944 1153.45 206.832L1155.21 205.36C1154.15 203.536 1151.69 200.752 1149.61 198.8L1147.98 200.048ZM1142.06 198.96C1140.94 201.2 1138.92 203.888 1136.84 205.584C1137.35 205.968 1138.12 206.608 1138.5 207.024C1140.62 205.168 1142.76 202.448 1144.2 199.92L1142.06 198.96ZM1137.22 207.728C1136.68 206.768 1134.22 202.576 1133.45 201.488V200.208H1137.03V197.968H1133.45V191.216H1131.27V197.968H1127.11V200.208H1130.82C1129.93 204.592 1128.01 209.648 1126.06 212.336C1126.5 212.912 1127.08 213.936 1127.34 214.608C1128.81 212.368 1130.22 208.72 1131.27 204.944V220.432H1133.45V204.592C1134.31 206.32 1135.37 208.432 1135.78 209.52L1137.22 207.728ZM1149.29 204.56C1148.58 207.12 1147.53 209.392 1146.09 211.408C1144.52 209.424 1143.3 207.184 1142.41 204.688L1140.36 205.264C1141.42 208.208 1142.82 210.896 1144.62 213.2C1142.5 215.44 1139.85 217.296 1136.62 218.704C1137.1 219.12 1137.8 219.984 1138.12 220.496C1141.32 219.056 1143.98 217.2 1146.12 214.96C1148.33 217.264 1151.05 219.088 1154.18 220.24C1154.54 219.6 1155.24 218.64 1155.78 218.192C1152.62 217.136 1149.9 215.408 1147.66 213.168C1149.38 210.864 1150.7 208.176 1151.56 205.136L1149.29 204.56ZM1187.18 198.32H1176.1C1175.82 196.56 1175.62 194.672 1175.53 192.656H1167.75V194.768H1173.51C1173.58 196.016 1173.7 197.2 1173.86 198.32H1162.22V220.432H1164.58V200.656H1172.9C1171.82 205.68 1169.19 209.136 1164.9 211.216C1165.42 211.664 1166.15 212.56 1166.5 213.104C1170.76 210.928 1173.38 207.376 1174.73 202.48C1176.1 207.28 1178.57 210.864 1182.76 212.944C1183.14 212.304 1183.91 211.376 1184.42 210.864C1180.23 209.072 1177.83 205.552 1176.62 200.656H1184.78V217.328C1184.78 217.84 1184.65 218 1184.07 218.032C1183.43 218.064 1181.45 218.064 1179.37 218C1179.72 218.64 1180.07 219.728 1180.17 220.4C1182.89 220.4 1184.71 220.4 1185.8 220.016C1186.86 219.6 1187.18 218.832 1187.18 217.328V198.32ZM1202.6 209.808V215.28H1197.03V209.808H1202.6ZM1202.31 198.064V202.768H1197.03V198.064H1202.31ZM1197.03 204.784H1204.42V196.016H1199.72C1200.3 194.704 1200.97 193.04 1201.48 191.6L1198.92 191.216C1198.63 192.624 1198.09 194.544 1197.54 196.016H1194.86V219.472H1197.03V217.328H1204.74V207.76H1197.03V204.784ZM1222.66 195.056V192.912H1205.7V195.056H1213V198.992H1206.89V215.664H1209.06V201.168H1213V220.4H1215.24V201.168H1219.5V213.136C1219.5 213.456 1219.4 213.584 1219.05 213.584C1218.73 213.584 1217.74 213.584 1216.58 213.552C1216.84 214.128 1217.16 215.024 1217.22 215.632C1218.95 215.632 1220.04 215.6 1220.78 215.248C1221.51 214.896 1221.7 214.224 1221.7 213.168V198.992H1215.24V195.056H1222.66ZM1243.08 217.136V209.008H1253.35V206.704H1243.08V199.728H1254.54V197.392H1243.08V191.248H1240.65V197.392H1234.15C1234.86 195.76 1235.43 194.032 1235.94 192.272L1233.54 191.76C1232.3 196.304 1230.25 200.72 1227.62 203.536C1228.26 203.856 1229.32 204.56 1229.8 204.944C1230.98 203.504 1232.1 201.744 1233.13 199.728H1240.65V206.704H1231.14V209.008H1240.65V217.136H1227.69V219.44H1256.04V217.136H1243.08Z" fill="black"/>
<rect width="362" height="417" transform="translate(1380 106)" fill="#E7E4DE"/>
<path d="M1486 394.448C1484.11 394.448 1482.61 395.952 1482.61 397.84C1482.61 399.728 1484.11 401.232 1486 401.232C1487.89 401.232 1489.39 399.728 1489.39 397.84C1489.39 395.952 1487.89 394.448 1486 394.448ZM1515.66 387.152H1526.1V391.248H1515.66V387.152ZM1528.46 396.656H1523.18V393.36H1528.34V385.04H1513.52V395.792C1513.52 400.208 1513.33 406.224 1511.09 410.48C1511.57 410.704 1512.5 411.408 1512.85 411.856C1515.31 407.312 1515.66 400.496 1515.66 395.792V393.36H1521.14V396.656H1516.21V408.976H1518.03V398.672H1521.14V412.368H1523.18V398.672H1526.51V406.384C1526.51 406.672 1526.45 406.768 1526.13 406.768C1525.81 406.8 1524.98 406.8 1523.79 406.768C1524.08 407.344 1524.37 408.144 1524.43 408.72C1525.97 408.72 1526.96 408.688 1527.66 408.336C1528.34 407.984 1528.46 407.376 1528.46 406.416V396.656ZM1532.91 386.576H1530.67V404.4H1532.91V386.576ZM1537.04 383.856V409.264C1537.04 409.808 1536.88 409.968 1536.37 409.968C1535.79 410 1534.03 410.032 1532.11 409.968C1532.46 410.64 1532.82 411.728 1532.94 412.4C1535.28 412.4 1537.04 412.336 1537.97 411.952C1538.96 411.536 1539.31 410.832 1539.31 409.264V383.856H1537.04ZM1560.66 402.576C1564.05 403.92 1568.75 406 1571.12 407.28L1572.4 405.168C1569.97 403.952 1565.2 402 1561.9 400.752L1560.66 402.576ZM1560.11 394.96V390.032H1570.61V387.76H1560.11V383.216H1557.65V394.96H1545.39V397.296H1557.74V412.464H1560.21V397.296H1573.84V394.96H1560.11ZM1589.49 386.384V388.784H1582.35V386.384H1589.49ZM1582.35 392.88V390.416H1589.49V392.88H1582.35ZM1591.73 394.672V384.592H1580.08V412.464H1582.35V394.672H1591.73ZM1588.02 404.912V402.32H1592.08V404.912H1588.02ZM1592.08 398.256V400.72H1588.02V398.256H1592.08ZM1598.29 400.72H1594.1V398.256H1598.29V400.72ZM1594.1 404.912V402.32H1598.29V404.912H1594.1ZM1600.37 406.672V396.496H1585.97V406.672H1592.08V411.92H1594.1V406.672H1600.37ZM1596.85 392.88V390.416H1604.21V392.88H1596.85ZM1604.21 386.384V388.784H1596.85V386.384H1604.21ZM1606.51 384.592H1594.58V394.672H1604.21V409.424C1604.21 409.872 1604.08 410.032 1603.63 410.032C1603.22 410.064 1601.78 410.064 1600.34 410C1600.62 410.608 1600.98 411.728 1601.07 412.368C1603.12 412.368 1604.53 412.304 1605.36 411.888C1606.26 411.536 1606.51 410.768 1606.51 409.424V384.592ZM1622.96 386.736V389.52H1616.18V386.736H1622.96ZM1616.18 394.416V391.344H1622.96V394.416H1616.18ZM1625.2 384.72H1613.84V412.432H1616.18V396.4H1625.2V384.72ZM1630.45 394.448V391.344H1637.55V394.448H1630.45ZM1637.55 386.736V389.52H1630.45V386.736H1637.55ZM1639.95 384.72H1628.18V396.432H1637.55V409.168C1637.55 409.808 1637.33 409.968 1636.75 410C1636.08 410.032 1633.9 410.064 1631.73 409.936C1632.08 410.608 1632.46 411.728 1632.59 412.4C1635.47 412.4 1637.36 412.336 1638.48 411.952C1639.54 411.568 1639.95 410.8 1639.95 409.168V384.72Z" fill="black"/>
<path d="M1536.27 193.92H1526.96L1529.04 192.96C1528.53 191.84 1527.44 190.24 1526.35 189.056L1524.37 189.92C1525.36 191.104 1526.38 192.8 1526.9 193.92H1518.83V196.128H1536.27V193.92ZM1528.98 198.048C1531.02 200.064 1533.42 202.944 1534.45 204.832L1536.21 203.36C1535.15 201.536 1532.69 198.752 1530.61 196.8L1528.98 198.048ZM1523.06 196.96C1521.94 199.2 1519.92 201.888 1517.84 203.584C1518.35 203.968 1519.12 204.608 1519.5 205.024C1521.62 203.168 1523.76 200.448 1525.2 197.92L1523.06 196.96ZM1518.22 205.728C1517.68 204.768 1515.22 200.576 1514.45 199.488V198.208H1518.03V195.968H1514.45V189.216H1512.27V195.968H1508.11V198.208H1511.82C1510.93 202.592 1509.01 207.648 1507.06 210.336C1507.5 210.912 1508.08 211.936 1508.34 212.608C1509.81 210.368 1511.22 206.72 1512.27 202.944V218.432H1514.45V202.592C1515.31 204.32 1516.37 206.432 1516.78 207.52L1518.22 205.728ZM1530.29 202.56C1529.58 205.12 1528.53 207.392 1527.09 209.408C1525.52 207.424 1524.3 205.184 1523.41 202.688L1521.36 203.264C1522.42 206.208 1523.82 208.896 1525.62 211.2C1523.5 213.44 1520.85 215.296 1517.62 216.704C1518.1 217.12 1518.8 217.984 1519.12 218.496C1522.32 217.056 1524.98 215.2 1527.12 212.96C1529.33 215.264 1532.05 217.088 1535.18 218.24C1535.54 217.6 1536.24 216.64 1536.78 216.192C1533.62 215.136 1530.9 213.408 1528.66 211.168C1530.38 208.864 1531.7 206.176 1532.56 203.136L1530.29 202.56ZM1568.18 196.32H1557.1C1556.82 194.56 1556.62 192.672 1556.53 190.656H1548.75V192.768H1554.51C1554.58 194.016 1554.7 195.2 1554.86 196.32H1543.22V218.432H1545.58V198.656H1553.9C1552.82 203.68 1550.19 207.136 1545.9 209.216C1546.42 209.664 1547.15 210.56 1547.5 211.104C1551.76 208.928 1554.38 205.376 1555.73 200.48C1557.1 205.28 1559.57 208.864 1563.76 210.944C1564.14 210.304 1564.91 209.376 1565.42 208.864C1561.23 207.072 1558.83 203.552 1557.62 198.656H1565.78V215.328C1565.78 215.84 1565.65 216 1565.07 216.032C1564.43 216.064 1562.45 216.064 1560.37 216C1560.72 216.64 1561.07 217.728 1561.17 218.4C1563.89 218.4 1565.71 218.4 1566.8 218.016C1567.86 217.6 1568.18 216.832 1568.18 215.328V196.32ZM1583.6 207.808V213.28H1578.03V207.808H1583.6ZM1583.31 196.064V200.768H1578.03V196.064H1583.31ZM1578.03 202.784H1585.42V194.016H1580.72C1581.3 192.704 1581.97 191.04 1582.48 189.6L1579.92 189.216C1579.63 190.624 1579.09 192.544 1578.54 194.016H1575.86V217.472H1578.03V215.328H1585.74V205.76H1578.03V202.784ZM1603.66 193.056V190.912H1586.7V193.056H1594V196.992H1587.89V213.664H1590.06V199.168H1594V218.4H1596.24V199.168H1600.5V211.136C1600.5 211.456 1600.4 211.584 1600.05 211.584C1599.73 211.584 1598.74 211.584 1597.58 211.552C1597.84 212.128 1598.16 213.024 1598.22 213.632C1599.95 213.632 1601.04 213.6 1601.78 213.248C1602.51 212.896 1602.7 212.224 1602.7 211.168V196.992H1596.24V193.056H1603.66ZM1624.08 215.136V207.008H1634.35V204.704H1624.08V197.728H1635.54V195.392H1624.08V189.248H1621.65V195.392H1615.15C1615.86 193.76 1616.43 192.032 1616.94 190.272L1614.54 189.76C1613.3 194.304 1611.25 198.72 1608.62 201.536C1609.26 201.856 1610.32 202.56 1610.8 202.944C1611.98 201.504 1613.1 199.744 1614.13 197.728H1621.65V204.704H1612.14V207.008H1621.65V215.136H1608.69V217.44H1637.04V215.136H1624.08Z" fill="black"/>
<rect width="249" height="134" transform="translate(0 106)" fill="#BAB4A3"/>
<path d="M66.516 183.736V179.96H81.332V183.736H66.516ZM81.332 172.6V176.376H66.516V172.6H81.332ZM81.332 165.336V169.016H66.516V165.336H81.332ZM62.676 161.624V189.432H66.516V187.448H81.332V189.432H85.364V161.624H62.676ZM113.684 165.528H111.988V164.088H113.684V165.528ZM118.228 168.216V170.616H116.404V168.216H118.228ZM111.988 168.216H113.684V170.616H111.988V168.216ZM107.572 168.216H109.3V170.616H107.572V168.216ZM109.3 165.528H104.5V173.304H121.524V165.528H116.404V164.088H122.1V161.08H103.892V164.088H109.3V165.528ZM120.212 177.304V174.424H105.844V177.304H120.212ZM104.468 176.504C103.924 175.576 101.524 171.864 100.692 170.776V169.368H103.796V165.848H100.692V159.896H97.236V165.848H93.236V169.368H96.756C95.892 172.984 94.196 177.432 92.436 179.896C92.98 180.888 93.812 182.648 94.196 183.768C95.348 181.944 96.372 179.288 97.236 176.408V189.752H100.692V175.512C101.332 176.824 101.908 178.168 102.26 179.096L104.468 176.504ZM106.612 182.232C105.748 184.024 104.212 185.912 102.58 187.16C103.38 187.64 104.788 188.6 105.428 189.176C107.028 187.704 108.82 185.4 109.908 183.16L106.612 182.232ZM122.164 181.56V178.584H103.924V181.56H111.188V189.752H114.58V181.56H122.164ZM115.764 183.672C117.204 185.272 118.868 187.512 119.572 188.952L122.516 187.224C121.684 185.848 120.02 183.768 118.516 182.264L115.764 183.672ZM132.884 171.992C132.916 170.776 132.948 169.56 132.98 168.28H138.388C138.196 168.504 138.004 168.696 137.812 168.888C138.612 169.336 140.084 170.296 140.724 170.904C141.652 169.816 142.548 168.472 143.412 167H155.892V163.576H145.044C145.428 162.616 145.78 161.656 146.068 160.664L142.676 159.896C141.908 162.616 140.628 165.304 139.092 167.384V164.792H133.812L135.764 164.088C135.284 162.936 134.26 161.048 133.396 159.736L130.004 160.824C130.708 162.04 131.476 163.608 131.956 164.792H126.452V168.28H129.428C129.332 176.44 129.14 182.968 126.004 187.064C126.9 187.64 128.052 188.888 128.596 189.752C131.316 186.296 132.34 181.368 132.724 175.416H135.092C134.964 182.296 134.772 184.824 134.388 185.432C134.132 185.816 133.908 185.912 133.492 185.912C132.98 185.912 132.084 185.912 131.06 185.816C131.54 186.712 131.956 188.12 131.988 189.144C133.3 189.176 134.548 189.176 135.348 189.016C136.244 188.856 136.884 188.536 137.492 187.672C138.292 186.584 138.452 183.032 138.612 173.464C138.644 173.016 138.644 171.992 138.644 171.992H132.884ZM156.372 187.896C155.348 186.008 153.14 182.872 151.476 180.6L148.82 181.976C149.012 181.432 149.204 180.888 149.332 180.344H155.956V176.952H149.78V176.6V173.656H154.868V170.328H146.452C146.74 169.656 147.028 168.984 147.252 168.28L143.828 167.48C142.996 170.136 141.492 172.792 139.636 174.488C140.436 174.936 141.908 175.896 142.548 176.472C143.284 175.672 144.052 174.744 144.724 173.656H146.068V176.536V176.952H139.924V180.344H145.556C144.82 182.712 143.028 185.24 138.676 187.256C139.54 187.896 140.66 189.08 141.204 189.848C145.364 187.672 147.604 184.952 148.692 182.232C150.356 184.632 152.372 187.8 153.3 189.72L156.372 187.896ZM170.676 180.728V184.984H166.74V180.728H170.676ZM170.292 169.784V171.8H167.508C167.636 171.128 167.732 170.456 167.828 169.784H170.292ZM170.292 164.568V166.616H168.148C168.212 165.944 168.276 165.272 168.308 164.568H170.292ZM166.068 177.464C166.356 176.664 166.612 175.864 166.836 175H173.812V169.784H175.38V166.616H173.812V161.368H161.78V164.568H164.724C164.692 165.272 164.66 165.944 164.596 166.616H160.02V169.784H164.276C164.18 170.488 164.084 171.16 163.956 171.8H161.588V175H163.156C162.388 177.432 161.268 179.512 159.636 181.08C160.372 181.752 161.652 183.256 162.068 183.992C162.516 183.544 162.9 183.096 163.284 182.616V189.784H166.74V188.248H174.388V177.464H166.068ZM189.876 179.192H184.084V175.832H188.66V172.376H184.084V169.432H189.236V166.04H186.452C187.188 164.632 188.052 162.648 188.852 160.696L185.172 159.864C184.788 161.528 183.924 163.832 183.252 165.336L185.908 166.04H178.9L180.98 165.304C180.66 163.832 179.796 161.688 178.804 160.088L175.764 161.144C176.596 162.648 177.332 164.6 177.652 166.04H175.732V169.432H180.404V172.376H176.148V175.832H180.404V179.192H175.028V182.744H180.404V189.752H184.084V182.744H189.876V179.192Z" fill="white"/>
<rect width="350" height="94" transform="translate(261)" fill="#BAB4A3"/>
<path d="M349.216 55.208V34.408H345.248V41.448H337.856V45.256H345.248V56.616C341.984 57.736 338.912 58.792 336.768 59.464L338.464 63.368C342.24 61.864 347.168 59.912 351.68 57.96L351.008 54.568L349.216 55.208ZM358.592 59.112C357.536 59.112 357.376 58.824 357.376 57.096V45.192H365.728V41.416H357.376V34.44H353.408V57.064C353.408 61.48 354.464 62.824 357.984 62.824H361.792C365.408 62.824 366.304 60.296 366.656 53.672C365.6 53.416 363.936 52.616 363.008 51.88C362.816 57.608 362.624 59.112 361.44 59.112H358.592ZM392.416 40.424C391.456 39.016 389.216 37.128 387.488 35.816L384.992 37.992C386.784 39.368 388.864 41.416 389.76 42.792L392.416 40.424ZM391.52 48.808C390.464 47.432 388.096 45.448 386.272 44.168L383.84 46.344C385.696 47.784 387.936 49.832 388.928 51.24L391.52 48.808ZM383.424 51.304C382.816 50.568 380.192 47.56 379.264 46.664V46.408H383.488V42.856H379.264V38.472C380.736 38.152 382.144 37.768 383.392 37.288L381.248 34.184C378.592 35.272 374.592 36.232 370.944 36.808C371.36 37.64 371.84 38.888 371.968 39.752C373.152 39.624 374.336 39.432 375.584 39.24V42.856H370.752V46.408H375.072C373.92 49.512 372.128 52.936 370.336 54.984C370.912 55.944 371.744 57.512 372.096 58.6C373.344 57 374.528 54.728 375.584 52.264V63.784H379.264V50.792C380.032 52.072 380.8 53.416 381.184 54.312L383.424 51.304ZM400.736 55.016L400.128 51.464L396.96 52.008V33.896H393.216V52.648L382.944 54.408L383.552 58.024L393.216 56.36V63.752H396.96V55.688L400.736 55.016ZM433.408 46.408V42.472H420.832C421.152 39.496 421.184 36.552 421.216 33.928H417.056C417.024 36.552 417.056 39.464 416.736 42.472H405.088V46.408H416.096C414.848 51.912 411.808 57.224 404.48 60.488C405.6 61.288 406.72 62.664 407.328 63.72C414.112 60.456 417.568 55.464 419.296 50.12C421.792 56.296 425.504 60.968 431.296 63.688C431.904 62.6 433.152 60.904 434.112 60.104C428.128 57.672 424.256 52.648 422.144 46.408H433.408ZM451.488 52.808H453.792V53.832H451.488V52.808ZM449.472 55.432H455.968V51.176H449.472V55.432ZM448.16 50.248H457.184V56.36H448.16V50.248ZM445.248 58.472H460.256V48.168H445.248V58.472ZM449.376 41.032H455.936V42.312H449.376V41.032ZM454.272 45.16V44.2H459.136V39.112H446.368V44.2H451.072V45.16H443.776V47.24H461.888V45.16H454.272ZM442.688 59.528V38.088H462.848V59.528H442.688ZM439.168 34.952V63.752H442.688V62.632H462.848V63.752H466.56V34.952H439.168ZM493.408 55.912V57.064H479.712V55.912H493.408ZM479.712 60.52V59.272H493.408V60.52H479.712ZM476.032 63.88H479.712V62.92H493.408V63.848H497.248V53.48H476.032V63.88ZM488.16 41.832H493.312V43.048H488.16V41.832ZM488.16 38.024H493.312V39.208H488.16V38.024ZM497.088 45.256V41.832H500.736V39.208H497.088V35.816H488.16V33.8H484.352V35.816H475.328V38.024H484.352V39.208H472.064V41.832H484.352V43.048H474.976V45.256H484.352V46.376H474.272V48.68H484.352V49.832H472.032V52.488H500.736V49.832H488.16V48.68H498.4V46.376H488.16V45.256H497.088ZM513.312 46.312V47.944H510.016V46.312H513.312ZM510.016 52.296V50.568H513.312V52.296H510.016ZM512.064 56.392C512.32 56.872 512.576 57.416 512.864 57.992L510.016 58.952V55.016H516.64V43.56H506.784V58.664C506.784 59.816 506.112 60.328 505.504 60.584C506.016 61.32 506.56 62.856 506.72 63.72C507.392 63.176 508.384 62.728 514.08 60.616C514.432 61.48 514.752 62.248 514.976 62.888L517.696 61.512C517.088 59.912 515.712 57.256 514.656 55.272L512.064 56.392ZM529.952 56.36V59.464H522.56V56.36H529.952ZM531.2 40.52V42.536H520.704V40.52H531.2ZM528.64 48.296H522.56V45.544H528.64V48.296ZM531.872 51.304V43.304H534.496V37.512H527.488L528.576 37C528.128 36.04 527.328 34.632 526.688 33.576L523.328 34.92C523.744 35.72 524.256 36.648 524.672 37.512H517.728C516.736 36.936 515.072 36.136 513.632 35.496C513.792 35.176 513.984 34.888 514.144 34.568L511.168 33.48C509.792 35.976 507.264 38.312 504.8 39.752C505.248 40.584 506.048 42.44 506.272 43.176C507.392 42.44 508.448 41.576 509.504 40.552V42.408H515.136V39.912H510.144C510.752 39.304 511.264 38.696 511.808 38.056C513.44 38.888 515.328 39.88 516.352 40.552L517.568 38.28V43.304H519.2V63.752H522.56V62.664H529.952V63.656H533.28V53.224H522.56V51.304H531.872Z" fill="white"/>
<rect width="370" height="94" transform="translate(623)" fill="#BAB4A3"/>
<path d="M708.824 56.264L714.552 56.104C715.096 56.52 715.608 56.936 715.992 57.288H708.824V56.264ZM710.104 53.096L709.944 53.224C710.456 53.512 711.064 53.832 711.672 54.184L702.904 54.312C703.608 53.96 704.312 53.544 705.048 53.096H710.104ZM708.824 59.528H718.2V57.288H716.312L718.392 55.56C717.528 54.856 716.248 53.928 714.84 53.096H717.112V51.08H696.632V50.152H717.24V52.584H720.824V47.784H693.24V52.584H696.568V53.096H700.92C699.96 53.576 699.128 53.896 698.744 54.024C698.168 54.248 697.56 54.376 697.08 54.44C697.336 55.112 697.72 56.296 697.848 56.808C698.552 56.584 699.512 56.488 704.984 56.36V57.288H696.216V59.528H704.984V60.552H693.112V63.112H721.016V60.552H708.824V59.528ZM713.88 45H700.12V43.88H713.88V45ZM696.632 42.024V46.856H717.624V42.024H696.632ZM708.824 35.496V33.896H704.984V35.496H692.888V37.832H704.984V38.888H695.48V41.096H718.616V38.888H708.824V37.832H721.208V35.496H708.824ZM737.816 55.208V34.408H733.848V41.448H726.456V45.256H733.848V56.616C730.584 57.736 727.512 58.792 725.368 59.464L727.064 63.368C730.84 61.864 735.768 59.912 740.28 57.96L739.608 54.568L737.816 55.208ZM747.192 59.112C746.136 59.112 745.976 58.824 745.976 57.096V45.192H754.328V41.416H745.976V34.44H742.008V57.064C742.008 61.48 743.064 62.824 746.584 62.824H750.392C754.008 62.824 754.904 60.296 755.256 53.672C754.2 53.416 752.536 52.616 751.608 51.88C751.416 57.608 751.224 59.112 750.04 59.112H747.192ZM788.408 46.408V42.472H775.832C776.152 39.496 776.184 36.552 776.216 33.928H772.056C772.024 36.552 772.056 39.464 771.736 42.472H760.088V46.408H771.096C769.848 51.912 766.808 57.224 759.48 60.488C760.6 61.288 761.72 62.664 762.328 63.72C769.112 60.456 772.568 55.464 774.296 50.12C776.792 56.296 780.504 60.968 786.296 63.688C786.904 62.6 788.152 60.904 789.112 60.104C783.128 57.672 779.256 52.648 777.144 46.408H788.408ZM811.544 37.864C811.096 37.48 810.52 37.032 809.88 36.584C810.488 36.04 811.032 35.432 811.48 34.824L808.984 34.088C808.664 34.536 808.248 34.952 807.832 35.368C807.16 34.984 806.488 34.632 805.88 34.344L804.184 35.816C804.76 36.104 805.304 36.424 805.912 36.776C805.144 37.256 804.312 37.704 803.48 38.024C804.088 38.44 805.048 39.272 805.464 39.72C806.328 39.304 807.192 38.76 808.056 38.12C808.696 38.6 809.304 39.048 809.72 39.464L811.544 37.864ZM799.736 44.232H803.544V43.88C804.024 44.328 804.632 44.936 804.984 45.352H799.8L799.736 44.232ZM797.496 48.104H818.04V51.912H821.816V45.352H819.448C819.704 42.376 819.96 38.312 820.12 34.952H812.12V37.352H816.408L816.344 38.408H812.28V40.776H816.184L816.12 41.864H812.12V44.232H815.896L815.768 45.352H805.4C806.264 44.872 807.128 44.328 807.992 43.688C808.728 44.264 809.368 44.776 809.848 45.256L811.768 43.592C811.256 43.112 810.584 42.632 809.816 42.12C810.456 41.512 811.032 40.872 811.512 40.2L809.016 39.464C808.664 39.912 808.216 40.392 807.768 40.808C807.064 40.424 806.392 40.04 805.752 39.72L803.992 41.224C804.568 41.544 805.176 41.896 805.784 42.28C805.112 42.728 804.312 43.112 803.544 43.496V41.864H799.608L799.544 40.776H803.48V38.408H799.416L799.352 37.48C800.856 37.16 802.488 36.744 803.736 36.264L802.168 34.056C800.472 34.664 797.624 35.528 795.704 35.848L796.28 45.352H793.88V51.912H797.496V48.104ZM822.232 54.92H810.264C812.44 53.832 814.616 52.52 816.376 51.24L814.232 49.288L813.432 49.48H799.512V52.136H809.784C808.632 52.84 807.416 53.544 806.264 53.992V54.92H793.304V57.928H806.264V60.104C806.264 60.488 806.104 60.584 805.592 60.584C805.112 60.616 803.192 60.616 801.688 60.552C802.136 61.448 802.68 62.728 802.84 63.752C805.24 63.752 807 63.72 808.312 63.272C809.624 62.76 810.008 61.928 810.008 60.232V57.928H822.232V54.92ZM840.088 52.808H842.392V53.832H840.088V52.808ZM838.072 55.432H844.568V51.176H838.072V55.432ZM836.76 50.248H845.784V56.36H836.76V50.248ZM833.848 58.472H848.856V48.168H833.848V58.472ZM837.976 41.032H844.536V42.312H837.976V41.032ZM842.872 45.16V44.2H847.736V39.112H834.968V44.2H839.672V45.16H832.376V47.24H850.488V45.16H842.872ZM831.288 59.528V38.088H851.448V59.528H831.288ZM827.768 34.952V63.752H831.288V62.632H851.448V63.752H855.16V34.952H827.768ZM882.008 55.912V57.064H868.312V55.912H882.008ZM868.312 60.52V59.272H882.008V60.52H868.312ZM864.632 63.88H868.312V62.92H882.008V63.848H885.848V53.48H864.632V63.88ZM876.76 41.832H881.912V43.048H876.76V41.832ZM876.76 38.024H881.912V39.208H876.76V38.024ZM885.688 45.256V41.832H889.336V39.208H885.688V35.816H876.76V33.8H872.952V35.816H863.928V38.024H872.952V39.208H860.664V41.832H872.952V43.048H863.576V45.256H872.952V46.376H862.872V48.68H872.952V49.832H860.632V52.488H889.336V49.832H876.76V48.68H887V46.376H876.76V45.256H885.688ZM901.912 46.312V47.944H898.616V46.312H901.912ZM898.616 52.296V50.568H901.912V52.296H898.616ZM900.664 56.392C900.92 56.872 901.176 57.416 901.464 57.992L898.616 58.952V55.016H905.24V43.56H895.384V58.664C895.384 59.816 894.712 60.328 894.104 60.584C894.616 61.32 895.16 62.856 895.32 63.72C895.992 63.176 896.984 62.728 902.68 60.616C903.032 61.48 903.352 62.248 903.576 62.888L906.296 61.512C905.688 59.912 904.312 57.256 903.256 55.272L900.664 56.392ZM918.552 56.36V59.464H911.16V56.36H918.552ZM919.8 40.52V42.536H909.304V40.52H919.8ZM917.24 48.296H911.16V45.544H917.24V48.296ZM920.472 51.304V43.304H923.096V37.512H916.088L917.176 37C916.728 36.04 915.928 34.632 915.288 33.576L911.928 34.92C912.344 35.72 912.856 36.648 913.272 37.512H906.328C905.336 36.936 903.672 36.136 902.232 35.496C902.392 35.176 902.584 34.888 902.744 34.568L899.768 33.48C898.392 35.976 895.864 38.312 893.4 39.752C893.848 40.584 894.648 42.44 894.872 43.176C895.992 42.44 897.048 41.576 898.104 40.552V42.408H903.736V39.912H898.744C899.352 39.304 899.864 38.696 900.408 38.056C902.04 38.888 903.928 39.88 904.952 40.552L906.168 38.28V43.304H907.8V63.752H911.16V62.664H918.552V63.656H921.88V53.224H911.16V51.304H920.472Z" fill="white"/>
<rect width="363" height="94" transform="translate(1005)" fill="#BAB4A3"/>
<path d="M1125.69 53.352V58.472H1112.12V53.352H1125.69ZM1108.22 63.752H1112.12V62.12H1125.69V63.72H1129.78V49.704H1108.22V63.752ZM1121.62 38.824C1122.81 40.008 1124.09 41.352 1125.34 42.76L1112.22 43.176C1114.65 40.84 1117.18 37.992 1119.19 35.016L1115.35 33.384C1113.18 37.224 1109.69 41.096 1108.57 42.088C1107.51 43.112 1106.74 43.72 1105.91 43.944C1106.36 44.936 1106.97 46.824 1107.16 47.592C1108.86 47.016 1111.13 46.952 1128.12 46.12C1128.79 47.016 1129.37 47.848 1129.78 48.552L1133.02 46.216C1131.35 43.528 1127.54 39.592 1124.6 36.84L1121.62 38.824ZM1166.81 46.408V42.472H1154.23C1154.55 39.496 1154.58 36.552 1154.62 33.928H1150.46C1150.42 36.552 1150.46 39.464 1150.14 42.472H1138.49V46.408H1149.5C1148.25 51.912 1145.21 57.224 1137.88 60.488C1139 61.288 1140.12 62.664 1140.73 63.72C1147.51 60.456 1150.97 55.464 1152.7 50.12C1155.19 56.296 1158.9 60.968 1164.7 63.688C1165.3 62.6 1166.55 60.904 1167.51 60.104C1161.53 57.672 1157.66 52.648 1155.54 46.408H1166.81ZM1184.89 52.808H1187.19V53.832H1184.89V52.808ZM1182.87 55.432H1189.37V51.176H1182.87V55.432ZM1181.56 50.248H1190.58V56.36H1181.56V50.248ZM1178.65 58.472H1193.66V48.168H1178.65V58.472ZM1182.78 41.032H1189.34V42.312H1182.78V41.032ZM1187.67 45.16V44.2H1192.54V39.112H1179.77V44.2H1184.47V45.16H1177.18V47.24H1195.29V45.16H1187.67ZM1176.09 59.528V38.088H1196.25V59.528H1176.09ZM1172.57 34.952V63.752H1176.09V62.632H1196.25V63.752H1199.96V34.952H1172.57ZM1226.81 55.912V57.064H1213.11V55.912H1226.81ZM1213.11 60.52V59.272H1226.81V60.52H1213.11ZM1209.43 63.88H1213.11V62.92H1226.81V63.848H1230.65V53.48H1209.43V63.88ZM1221.56 41.832H1226.71V43.048H1221.56V41.832ZM1221.56 38.024H1226.71V39.208H1221.56V38.024ZM1230.49 45.256V41.832H1234.14V39.208H1230.49V35.816H1221.56V33.8H1217.75V35.816H1208.73V38.024H1217.75V39.208H1205.46V41.832H1217.75V43.048H1208.38V45.256H1217.75V46.376H1207.67V48.68H1217.75V49.832H1205.43V52.488H1234.14V49.832H1221.56V48.68H1231.8V46.376H1221.56V45.256H1230.49ZM1246.71 46.312V47.944H1243.42V46.312H1246.71ZM1243.42 52.296V50.568H1246.71V52.296H1243.42ZM1245.46 56.392C1245.72 56.872 1245.98 57.416 1246.26 57.992L1243.42 58.952V55.016H1250.04V43.56H1240.18V58.664C1240.18 59.816 1239.51 60.328 1238.9 60.584C1239.42 61.32 1239.96 62.856 1240.12 63.72C1240.79 63.176 1241.78 62.728 1247.48 60.616C1247.83 61.48 1248.15 62.248 1248.38 62.888L1251.1 61.512C1250.49 59.912 1249.11 57.256 1248.06 55.272L1245.46 56.392ZM1263.35 56.36V59.464H1255.96V56.36H1263.35ZM1264.6 40.52V42.536H1254.1V40.52H1264.6ZM1262.04 48.296H1255.96V45.544H1262.04V48.296ZM1265.27 51.304V43.304H1267.9V37.512H1260.89L1261.98 37C1261.53 36.04 1260.73 34.632 1260.09 33.576L1256.73 34.92C1257.14 35.72 1257.66 36.648 1258.07 37.512H1251.13C1250.14 36.936 1248.47 36.136 1247.03 35.496C1247.19 35.176 1247.38 34.888 1247.54 34.568L1244.57 33.48C1243.19 35.976 1240.66 38.312 1238.2 39.752C1238.65 40.584 1239.45 42.44 1239.67 43.176C1240.79 42.44 1241.85 41.576 1242.9 40.552V42.408H1248.54V39.912H1243.54C1244.15 39.304 1244.66 38.696 1245.21 38.056C1246.84 38.888 1248.73 39.88 1249.75 40.552L1250.97 38.28V43.304H1252.6V63.752H1255.96V62.664H1263.35V63.656H1266.68V53.224H1255.96V51.304H1265.27Z" fill="white"/>
<rect width="359" height="94" transform="translate(1380)" fill="#BAB4A3"/>
<path d="M1482.19 53.352V58.472H1468.62V53.352H1482.19ZM1464.72 63.752H1468.62V62.12H1482.19V63.72H1486.28V49.704H1464.72V63.752ZM1478.12 38.824C1479.31 40.008 1480.59 41.352 1481.84 42.76L1468.72 43.176C1471.15 40.84 1473.68 37.992 1475.69 35.016L1471.85 33.384C1469.68 37.224 1466.19 41.096 1465.07 42.088C1464.01 43.112 1463.24 43.72 1462.41 43.944C1462.86 44.936 1463.47 46.824 1463.66 47.592C1465.36 47.016 1467.63 46.952 1484.62 46.12C1485.29 47.016 1485.87 47.848 1486.28 48.552L1489.52 46.216C1487.85 43.528 1484.04 39.592 1481.1 36.84L1478.12 38.824ZM1515.92 40.424C1514.96 39.016 1512.72 37.128 1510.99 35.816L1508.49 37.992C1510.28 39.368 1512.36 41.416 1513.26 42.792L1515.92 40.424ZM1515.02 48.808C1513.96 47.432 1511.6 45.448 1509.77 44.168L1507.34 46.344C1509.2 47.784 1511.44 49.832 1512.43 51.24L1515.02 48.808ZM1506.92 51.304C1506.32 50.568 1503.69 47.56 1502.76 46.664V46.408H1506.99V42.856H1502.76V38.472C1504.24 38.152 1505.64 37.768 1506.89 37.288L1504.75 34.184C1502.09 35.272 1498.09 36.232 1494.44 36.808C1494.86 37.64 1495.34 38.888 1495.47 39.752C1496.65 39.624 1497.84 39.432 1499.08 39.24V42.856H1494.25V46.408H1498.57C1497.42 49.512 1495.63 52.936 1493.84 54.984C1494.41 55.944 1495.24 57.512 1495.6 58.6C1496.84 57 1498.03 54.728 1499.08 52.264V63.784H1502.76V50.792C1503.53 52.072 1504.3 53.416 1504.68 54.312L1506.92 51.304ZM1524.24 55.016L1523.63 51.464L1520.46 52.008V33.896H1516.72V52.648L1506.44 54.408L1507.05 58.024L1516.72 56.36V63.752H1520.46V55.688L1524.24 55.016ZM1556.91 46.408V42.472H1544.33C1544.65 39.496 1544.68 36.552 1544.72 33.928H1540.56C1540.52 36.552 1540.56 39.464 1540.24 42.472H1528.59V46.408H1539.6C1538.35 51.912 1535.31 57.224 1527.98 60.488C1529.1 61.288 1530.22 62.664 1530.83 63.72C1537.61 60.456 1541.07 55.464 1542.8 50.12C1545.29 56.296 1549 60.968 1554.8 63.688C1555.4 62.6 1556.65 60.904 1557.61 60.104C1551.63 57.672 1547.76 52.648 1545.64 46.408H1556.91ZM1574.99 52.808H1577.29V53.832H1574.99V52.808ZM1572.97 55.432H1579.47V51.176H1572.97V55.432ZM1571.66 50.248H1580.68V56.36H1571.66V50.248ZM1568.75 58.472H1583.76V48.168H1568.75V58.472ZM1572.88 41.032H1579.44V42.312H1572.88V41.032ZM1577.77 45.16V44.2H1582.64V39.112H1569.87V44.2H1574.57V45.16H1567.28V47.24H1585.39V45.16H1577.77ZM1566.19 59.528V38.088H1586.35V59.528H1566.19ZM1562.67 34.952V63.752H1566.19V62.632H1586.35V63.752H1590.06V34.952H1562.67ZM1616.91 55.912V57.064H1603.21V55.912H1616.91ZM1603.21 60.52V59.272H1616.91V60.52H1603.21ZM1599.53 63.88H1603.21V62.92H1616.91V63.848H1620.75V53.48H1599.53V63.88ZM1611.66 41.832H1616.81V43.048H1611.66V41.832ZM1611.66 38.024H1616.81V39.208H1611.66V38.024ZM1620.59 45.256V41.832H1624.24V39.208H1620.59V35.816H1611.66V33.8H1607.85V35.816H1598.83V38.024H1607.85V39.208H1595.56V41.832H1607.85V43.048H1598.48V45.256H1607.85V46.376H1597.77V48.68H1607.85V49.832H1595.53V52.488H1624.24V49.832H1611.66V48.68H1621.9V46.376H1611.66V45.256H1620.59ZM1636.81 46.312V47.944H1633.52V46.312H1636.81ZM1633.52 52.296V50.568H1636.81V52.296H1633.52ZM1635.56 56.392C1635.82 56.872 1636.08 57.416 1636.36 57.992L1633.52 58.952V55.016H1640.14V43.56H1630.28V58.664C1630.28 59.816 1629.61 60.328 1629 60.584C1629.52 61.32 1630.06 62.856 1630.22 63.72C1630.89 63.176 1631.88 62.728 1637.58 60.616C1637.93 61.48 1638.25 62.248 1638.48 62.888L1641.2 61.512C1640.59 59.912 1639.21 57.256 1638.16 55.272L1635.56 56.392ZM1653.45 56.36V59.464H1646.06V56.36H1653.45ZM1654.7 40.52V42.536H1644.2V40.52H1654.7ZM1652.14 48.296H1646.06V45.544H1652.14V48.296ZM1655.37 51.304V43.304H1658V37.512H1650.99L1652.08 37C1651.63 36.04 1650.83 34.632 1650.19 33.576L1646.83 34.92C1647.24 35.72 1647.76 36.648 1648.17 37.512H1641.23C1640.24 36.936 1638.57 36.136 1637.13 35.496C1637.29 35.176 1637.48 34.888 1637.64 34.568L1634.67 33.48C1633.29 35.976 1630.76 38.312 1628.3 39.752C1628.75 40.584 1629.55 42.44 1629.77 43.176C1630.89 42.44 1631.95 41.576 1633 40.552V42.408H1638.64V39.912H1633.64C1634.25 39.304 1634.76 38.696 1635.31 38.056C1636.94 38.888 1638.83 39.88 1639.85 40.552L1641.07 38.28V43.304H1642.7V63.752H1646.06V62.664H1653.45V63.656H1656.78V53.224H1646.06V51.304H1655.37Z" fill="white"/>
<rect width="249" height="271" transform="translate(0 252)" fill="#BAB4A3"/>
<path d="M98.068 362.14C98.1 361.084 98.1 360.092 98.1 359.132V358.268H101.236V362.14H98.068ZM101.236 351.036V354.748H98.1V351.036H101.236ZM104.756 347.516H94.676V359.132C94.676 363.804 94.548 370.236 92.564 374.588C93.396 374.876 94.964 375.772 95.636 376.316C96.948 373.404 97.588 369.468 97.876 365.724H101.236V372.06C101.236 372.508 101.076 372.636 100.692 372.636C100.308 372.636 99.124 372.668 97.972 372.604C98.452 373.564 98.9 375.292 98.996 376.284C101.076 376.284 102.452 376.188 103.444 375.58C104.5 374.908 104.756 373.884 104.756 372.124V347.516ZM110.132 362.076H110.324C111.284 364.988 112.468 367.676 114.036 370.012C112.852 371.356 111.572 372.476 110.132 373.276V362.076ZM118.1 362.076C117.588 363.868 116.884 365.564 116.02 367.068C115.028 365.532 114.196 363.836 113.556 362.076H118.1ZM119.956 358.524L119.38 358.652H110.132V351.068H117.588V353.628C117.588 354.012 117.428 354.108 116.916 354.14C116.404 354.172 114.516 354.172 112.916 354.076C113.364 355.004 113.876 356.284 114.036 357.276C116.468 357.276 118.292 357.276 119.54 356.796C120.884 356.284 121.236 355.388 121.236 353.724V347.548H106.516V376.316H110.132V373.692C110.836 374.396 111.636 375.516 112.02 376.252C113.588 375.324 114.996 374.172 116.212 372.828C117.556 374.204 119.092 375.388 120.756 376.316C121.3 375.388 122.356 374.044 123.124 373.34C121.364 372.572 119.764 371.388 118.388 369.98C120.18 367.1 121.492 363.58 122.228 359.26L119.956 358.524ZM148.276 364.22C148.404 363.292 148.5 362.332 148.596 361.372H144.788C144.724 362.364 144.628 363.292 144.468 364.22H139.796V367.388H143.668C142.676 369.884 140.82 371.932 136.98 373.34C137.78 374.044 138.772 375.388 139.188 376.284C144.244 374.3 146.516 371.196 147.604 367.388H151.316C150.964 370.364 150.548 371.74 150.1 372.156C149.78 372.444 149.524 372.508 149.076 372.508C148.564 372.508 147.476 372.476 146.324 372.348C146.9 373.34 147.316 374.812 147.348 375.868C148.82 375.932 150.132 375.9 150.932 375.804C151.892 375.676 152.564 375.42 153.268 374.684C154.196 373.66 154.772 371.196 155.284 365.66C155.348 365.212 155.412 364.22 155.412 364.22H148.276ZM149.684 352.764C149.14 353.788 148.436 354.716 147.572 355.484C146.516 354.684 145.62 353.756 144.916 352.764H149.684ZM155.764 352.764V349.596H146.324C146.772 348.86 147.156 348.124 147.508 347.356L143.956 346.396C142.708 349.34 140.34 352.22 137.844 354.012C138.74 354.524 140.212 355.548 140.948 356.156C141.428 355.74 141.908 355.292 142.388 354.78C143.06 355.74 143.828 356.636 144.66 357.436C143.508 358.044 142.164 358.524 140.756 358.908L140.884 358.172L138.58 357.404L138.068 357.564H136.532L138.1 355.932C137.492 355.484 136.692 355.004 135.764 354.524C137.556 352.988 139.348 351.036 140.436 349.244L138.004 347.708L137.428 347.836H127.092V351.036H134.772C134.164 351.74 133.46 352.444 132.756 353.052C131.892 352.668 130.996 352.316 130.228 352.028L127.828 354.46C129.812 355.26 132.212 356.476 134.004 357.564H126.676V360.892H130.676C129.556 363.42 127.892 365.916 126.132 367.484C126.708 368.508 127.54 370.076 127.86 371.164C129.396 369.756 130.74 367.612 131.86 365.244V372.092C131.86 372.476 131.732 372.54 131.348 372.572C130.932 372.572 129.652 372.572 128.468 372.54C128.948 373.564 129.46 375.1 129.556 376.156C131.54 376.156 132.98 376.092 134.068 375.484C135.188 374.908 135.444 373.884 135.444 372.156V360.892H137.14C136.852 362.524 136.468 364.124 136.116 365.308L138.676 366.492C139.252 365.052 139.796 363.132 140.244 361.148C140.628 361.66 140.948 362.14 141.14 362.492C143.572 361.82 145.78 360.956 147.668 359.804C149.588 360.988 151.764 361.948 154.196 362.556C154.708 361.596 155.764 360.092 156.596 359.324C154.452 358.908 152.468 358.268 150.708 357.436C152.02 356.124 153.076 354.588 153.908 352.764H155.764ZM62.516 417.34C62.516 424.188 65.364 429.308 68.82 432.7L71.86 431.356C68.66 427.9 66.132 423.484 66.132 417.34C66.132 411.196 68.66 406.78 71.86 403.324L68.82 401.98C65.364 405.372 62.516 410.492 62.516 417.34ZM83.412 427.132V423.804H98.612V427.132H83.412ZM98.612 416.988V420.284H83.412V416.988H98.612ZM98.612 410.172V413.468H83.412V410.172H98.612ZM91.7 406.524C92.212 405.372 92.724 404.124 93.204 402.844L88.596 402.332C88.436 403.612 88.084 405.148 87.732 406.524H79.54V432.252H83.412V430.652H98.612V432.22H102.676V406.524H91.7ZM115.252 402.492C113.844 407.164 111.476 411.836 108.916 414.844C109.524 415.836 110.42 418.044 110.74 418.94C111.444 418.14 112.116 417.212 112.756 416.252V432.252H116.372V409.596C117.268 407.612 118.068 405.532 118.74 403.548L115.252 402.492ZM121.46 411.324C122.164 411.836 122.932 412.444 123.348 412.86C123.988 412.284 124.628 411.644 125.204 410.94C125.876 411.772 126.676 412.604 127.572 413.404C125.78 414.428 123.732 415.196 121.46 415.772V411.324ZM132.692 408.668C131.988 409.788 131.156 410.748 130.132 411.612C128.884 410.716 127.86 409.692 127.06 408.668H132.692ZM139.06 408.668V405.596H128.66C129.044 404.828 129.396 403.996 129.684 403.196L126.26 402.396C125.268 405.18 123.54 407.9 121.46 409.852V406.46H118.164V426.94H121.46V416.508C122.1 417.244 122.836 418.236 123.124 418.812C125.812 418.012 128.276 416.924 130.42 415.516C132.532 416.828 135.092 417.916 138.036 418.556C138.484 417.66 139.412 416.22 140.084 415.516C137.428 415.1 135.092 414.332 133.108 413.372C134.516 412.028 135.732 410.492 136.66 408.668H139.06ZM133.716 419.996C131.604 422.108 127.444 423.708 123.444 424.54C124.116 425.148 124.884 426.204 125.3 426.908C129.652 425.788 133.908 423.868 136.436 421.116L133.716 419.996ZM130.58 417.084C129.012 418.524 125.94 419.836 123.22 420.54C123.956 421.116 124.788 422.012 125.236 422.716C128.212 421.756 131.38 420.252 133.364 418.236L130.58 417.084ZM136.02 423.612C133.268 426.62 127.732 428.348 121.844 429.148C122.58 429.98 123.348 431.228 123.764 432.156C130.292 430.972 135.956 428.828 139.284 424.924L136.02 423.612ZM168.212 408.412V410.364H147.828V408.412H168.212ZM153.524 416.7C154.804 415.74 156.084 414.716 157.236 413.628H162.772L161.204 414.684C161.716 415.1 162.292 415.58 162.868 416.092L153.524 416.7ZM147.668 413.628H152.372C151.092 414.78 149.94 415.644 149.428 415.996C148.564 416.636 147.86 417.052 147.156 417.148C147.54 418.044 148.052 419.74 148.244 420.444C149.524 419.932 151.252 419.804 165.556 418.652C166.26 419.388 166.836 420.092 167.252 420.636L170.26 418.62C169.076 417.18 166.868 415.196 164.916 413.628H168.692V411.068H172.084V404.956H160.692C160.34 403.996 159.796 402.876 159.252 401.948L155.54 403.036C155.86 403.58 156.148 404.284 156.404 404.956H144.116V411.068H147.668V413.628ZM160.02 428.06V425.308H169.812V422.044H160.02V419.612H156.116V422.044H146.804V425.308H156.116V428.06H144.02V431.42H172.372V428.06H160.02ZM186.484 417.34C186.484 410.492 183.636 405.372 180.18 401.98L177.14 403.324C180.34 406.78 182.868 411.196 182.868 417.34C182.868 423.484 180.34 427.9 177.14 431.356L180.18 432.7C183.636 429.308 186.484 424.188 186.484 417.34Z" fill="white"/>
</svg>
